<?xml version="1.0" encoding="UTF-8" standalone="no"?>
<!-- Created with Inkscape (http://www.inkscape.org/) -->

<svg
   xmlns:dc="http://purl.org/dc/elements/1.1/"
   xmlns:cc="http://creativecommons.org/ns#"
   xmlns:rdf="http://www.w3.org/1999/02/22-rdf-syntax-ns#"
   xmlns:svg="http://www.w3.org/2000/svg"
   xmlns="http://www.w3.org/2000/svg"
   xmlns:sodipodi="http://sodipodi.sourceforge.net/DTD/sodipodi-0.dtd"
   xmlns:inkscape="http://www.inkscape.org/namespaces/inkscape"
   version="1.1"
   id="svg4143"
   xml:space="preserve"
   width="1200"
   height="500"
   viewBox="0 0 1200 500"
   sodipodi:docname="erroarx2.svg"
   inkscape:version="0.92.3 (2405546, 2018-03-11)"><metadata
     id="metadata4149"><rdf:RDF><cc:Work
         rdf:about=""><dc:format>image/svg+xml</dc:format><dc:type
           rdf:resource="http://purl.org/dc/dcmitype/StillImage" /><dc:title></dc:title></cc:Work></rdf:RDF></metadata><defs
     id="defs4147" /><sodipodi:namedview
     pagecolor="#ffffff"
     bordercolor="#666666"
     borderopacity="1"
     objecttolerance="10"
     gridtolerance="10"
     guidetolerance="10"
     inkscape:pageopacity="0"
     inkscape:pageshadow="2"
     inkscape:window-width="640"
     inkscape:window-height="480"
     id="namedview4145"
     showgrid="false"
     inkscape:zoom="0.28333333"
     inkscape:cx="600"
     inkscape:cy="250"
     inkscape:window-x="0"
     inkscape:window-y="0"
     inkscape:window-maximized="0"
     inkscape:current-layer="g4151" /><g
     id="g4151"
     inkscape:groupmode="layer"
     inkscape:label="ink_ext_XXXXXX"
     transform="matrix(1.3333333,0,0,-1.3333333,0,500)"><g
       id="g4153"
       transform="scale(0.1)"><path
         d="M 0,0 H 9000 V 3750 H 0 Z"
         style="fill:#ffffff;fill-opacity:1;fill-rule:nonzero;stroke:none"
         id="path4155"
         inkscape:connector-curvature="0" /><path
         d="M 0,0 H 9000 V 3750 H 0 Z"
         style="fill:#ffffff;fill-opacity:1;fill-rule:nonzero;stroke:none"
         id="path4157"
         inkscape:connector-curvature="0" /><path
         d="M 1395,600 H 8595 V 3412.5 H 1395 Z"
         style="fill:#ffffff;fill-opacity:1;fill-rule:nonzero;stroke:none"
         id="path4159"
         inkscape:connector-curvature="0" /><path
         d="M 1395,600 H 8595"
         style="fill:none;stroke:#262626;stroke-width:5.00250006;stroke-linecap:square;stroke-linejoin:round;stroke-miterlimit:10;stroke-dasharray:none;stroke-opacity:1"
         id="path4161"
         inkscape:connector-curvature="0" /><path
         d="M 1395,3412.5 H 8595"
         style="fill:none;stroke:#262626;stroke-width:5.00250006;stroke-linecap:square;stroke-linejoin:round;stroke-miterlimit:10;stroke-dasharray:none;stroke-opacity:1"
         id="path4163"
         inkscape:connector-curvature="0" /><path
         d="m 1395,600 v 72"
         style="fill:none;stroke:#262626;stroke-width:5.00250006;stroke-linecap:square;stroke-linejoin:round;stroke-miterlimit:10;stroke-dasharray:none;stroke-opacity:1"
         id="path4165"
         inkscape:connector-curvature="0" /><path
         d="m 2297.26,600 v 72"
         style="fill:none;stroke:#262626;stroke-width:5.00250006;stroke-linecap:square;stroke-linejoin:round;stroke-miterlimit:10;stroke-dasharray:none;stroke-opacity:1"
         id="path4167"
         inkscape:connector-curvature="0" /><path
         d="m 3199.52,600 v 72"
         style="fill:none;stroke:#262626;stroke-width:5.00250006;stroke-linecap:square;stroke-linejoin:round;stroke-miterlimit:10;stroke-dasharray:none;stroke-opacity:1"
         id="path4169"
         inkscape:connector-curvature="0" /><path
         d="m 4101.77,600 v 72"
         style="fill:none;stroke:#262626;stroke-width:5.00250006;stroke-linecap:square;stroke-linejoin:round;stroke-miterlimit:10;stroke-dasharray:none;stroke-opacity:1"
         id="path4171"
         inkscape:connector-curvature="0" /><path
         d="m 5004.02,600 v 72"
         style="fill:none;stroke:#262626;stroke-width:5.00250006;stroke-linecap:square;stroke-linejoin:round;stroke-miterlimit:10;stroke-dasharray:none;stroke-opacity:1"
         id="path4173"
         inkscape:connector-curvature="0" /><path
         d="m 5906.28,600 v 72"
         style="fill:none;stroke:#262626;stroke-width:5.00250006;stroke-linecap:square;stroke-linejoin:round;stroke-miterlimit:10;stroke-dasharray:none;stroke-opacity:1"
         id="path4175"
         inkscape:connector-curvature="0" /><path
         d="m 6808.54,600 v 72"
         style="fill:none;stroke:#262626;stroke-width:5.00250006;stroke-linecap:square;stroke-linejoin:round;stroke-miterlimit:10;stroke-dasharray:none;stroke-opacity:1"
         id="path4177"
         inkscape:connector-curvature="0" /><path
         d="m 7710.79,600 v 72"
         style="fill:none;stroke:#262626;stroke-width:5.00250006;stroke-linecap:square;stroke-linejoin:round;stroke-miterlimit:10;stroke-dasharray:none;stroke-opacity:1"
         id="path4179"
         inkscape:connector-curvature="0" /><path
         d="m 1395,3412.5 v -72"
         style="fill:none;stroke:#262626;stroke-width:5.00250006;stroke-linecap:square;stroke-linejoin:round;stroke-miterlimit:10;stroke-dasharray:none;stroke-opacity:1"
         id="path4181"
         inkscape:connector-curvature="0" /><path
         d="m 2297.26,3412.5 v -72"
         style="fill:none;stroke:#262626;stroke-width:5.00250006;stroke-linecap:square;stroke-linejoin:round;stroke-miterlimit:10;stroke-dasharray:none;stroke-opacity:1"
         id="path4183"
         inkscape:connector-curvature="0" /><path
         d="m 3199.52,3412.5 v -72"
         style="fill:none;stroke:#262626;stroke-width:5.00250006;stroke-linecap:square;stroke-linejoin:round;stroke-miterlimit:10;stroke-dasharray:none;stroke-opacity:1"
         id="path4185"
         inkscape:connector-curvature="0" /><path
         d="m 4101.77,3412.5 v -72"
         style="fill:none;stroke:#262626;stroke-width:5.00250006;stroke-linecap:square;stroke-linejoin:round;stroke-miterlimit:10;stroke-dasharray:none;stroke-opacity:1"
         id="path4187"
         inkscape:connector-curvature="0" /><path
         d="m 5004.02,3412.5 v -72"
         style="fill:none;stroke:#262626;stroke-width:5.00250006;stroke-linecap:square;stroke-linejoin:round;stroke-miterlimit:10;stroke-dasharray:none;stroke-opacity:1"
         id="path4189"
         inkscape:connector-curvature="0" /><path
         d="m 5906.28,3412.5 v -72"
         style="fill:none;stroke:#262626;stroke-width:5.00250006;stroke-linecap:square;stroke-linejoin:round;stroke-miterlimit:10;stroke-dasharray:none;stroke-opacity:1"
         id="path4191"
         inkscape:connector-curvature="0" /><path
         d="m 6808.54,3412.5 v -72"
         style="fill:none;stroke:#262626;stroke-width:5.00250006;stroke-linecap:square;stroke-linejoin:round;stroke-miterlimit:10;stroke-dasharray:none;stroke-opacity:1"
         id="path4193"
         inkscape:connector-curvature="0" /><path
         d="m 7710.79,3412.5 v -72"
         style="fill:none;stroke:#262626;stroke-width:5.00250006;stroke-linecap:square;stroke-linejoin:round;stroke-miterlimit:10;stroke-dasharray:none;stroke-opacity:1"
         id="path4195"
         inkscape:connector-curvature="0" /><g
         id="g4197"
         transform="scale(10)"><text
           transform="matrix(1,0,0,-1,133.5,33)"
           style="font-variant:normal;font-weight:normal;font-size:20.00020027px;font-family:Helvetica;-inkscape-font-specification:Helvetica;writing-mode:lr-tb;fill:#262626;fill-opacity:1;fill-rule:nonzero;stroke:none"
           id="text4201"><tspan
             x="0 90.225105 174.82574 185.94586 265.05084 276.17096 355.27637 366.39645 445.50146 456.62155 535.72693 546.84705 625.95209 637.07214"
             y="0"
             sodipodi:role="line"
             id="tspan4199">05101520253035</tspan></text>
<text
           transform="matrix(1,0,0,-1,449.625,5)"
           style="font-variant:normal;font-weight:normal;font-size:21.99970055px;font-family:Helvetica;-inkscape-font-specification:Helvetica;writing-mode:lr-tb;fill:#262626;fill-opacity:1;fill-rule:nonzero;stroke:none"
           id="text4205"><tspan
             x="0 13.441816 25.673651 43.999401 56.231232 68.463066 74.578979 81.904884 92.904732"
             y="0"
             sodipodi:role="line"
             id="tspan4203">Tempo (s)</tspan></text>
</g><path
         d="M 1395,600 V 3412.5"
         style="fill:none;stroke:#262626;stroke-width:5.00250006;stroke-linecap:square;stroke-linejoin:round;stroke-miterlimit:10;stroke-dasharray:none;stroke-opacity:1"
         id="path4207"
         inkscape:connector-curvature="0" /><path
         d="M 8595,600 V 3412.5"
         style="fill:none;stroke:#262626;stroke-width:5.00250006;stroke-linecap:square;stroke-linejoin:round;stroke-miterlimit:10;stroke-dasharray:none;stroke-opacity:1"
         id="path4209"
         inkscape:connector-curvature="0" /><path
         d="m 1395,865.703 h 72"
         style="fill:none;stroke:#262626;stroke-width:5.00250006;stroke-linecap:square;stroke-linejoin:round;stroke-miterlimit:10;stroke-dasharray:none;stroke-opacity:1"
         id="path4211"
         inkscape:connector-curvature="0" /><path
         d="m 1395,1317.78 h 72"
         style="fill:none;stroke:#262626;stroke-width:5.00250006;stroke-linecap:square;stroke-linejoin:round;stroke-miterlimit:10;stroke-dasharray:none;stroke-opacity:1"
         id="path4213"
         inkscape:connector-curvature="0" /><path
         d="m 1395,1769.85 h 72"
         style="fill:none;stroke:#262626;stroke-width:5.00250006;stroke-linecap:square;stroke-linejoin:round;stroke-miterlimit:10;stroke-dasharray:none;stroke-opacity:1"
         id="path4215"
         inkscape:connector-curvature="0" /><path
         d="m 1395,2221.93 h 72"
         style="fill:none;stroke:#262626;stroke-width:5.00250006;stroke-linecap:square;stroke-linejoin:round;stroke-miterlimit:10;stroke-dasharray:none;stroke-opacity:1"
         id="path4217"
         inkscape:connector-curvature="0" /><path
         d="m 1395,2674 h 72"
         style="fill:none;stroke:#262626;stroke-width:5.00250006;stroke-linecap:square;stroke-linejoin:round;stroke-miterlimit:10;stroke-dasharray:none;stroke-opacity:1"
         id="path4219"
         inkscape:connector-curvature="0" /><path
         d="m 1395,3126.07 h 72"
         style="fill:none;stroke:#262626;stroke-width:5.00250006;stroke-linecap:square;stroke-linejoin:round;stroke-miterlimit:10;stroke-dasharray:none;stroke-opacity:1"
         id="path4221"
         inkscape:connector-curvature="0" /><path
         d="m 8595,865.703 h -72"
         style="fill:none;stroke:#262626;stroke-width:5.00250006;stroke-linecap:square;stroke-linejoin:round;stroke-miterlimit:10;stroke-dasharray:none;stroke-opacity:1"
         id="path4223"
         inkscape:connector-curvature="0" /><path
         d="m 8595,1317.78 h -72"
         style="fill:none;stroke:#262626;stroke-width:5.00250006;stroke-linecap:square;stroke-linejoin:round;stroke-miterlimit:10;stroke-dasharray:none;stroke-opacity:1"
         id="path4225"
         inkscape:connector-curvature="0" /><path
         d="m 8595,1769.85 h -72"
         style="fill:none;stroke:#262626;stroke-width:5.00250006;stroke-linecap:square;stroke-linejoin:round;stroke-miterlimit:10;stroke-dasharray:none;stroke-opacity:1"
         id="path4227"
         inkscape:connector-curvature="0" /><path
         d="m 8595,2221.93 h -72"
         style="fill:none;stroke:#262626;stroke-width:5.00250006;stroke-linecap:square;stroke-linejoin:round;stroke-miterlimit:10;stroke-dasharray:none;stroke-opacity:1"
         id="path4229"
         inkscape:connector-curvature="0" /><path
         d="m 8595,2674 h -72"
         style="fill:none;stroke:#262626;stroke-width:5.00250006;stroke-linecap:square;stroke-linejoin:round;stroke-miterlimit:10;stroke-dasharray:none;stroke-opacity:1"
         id="path4231"
         inkscape:connector-curvature="0" /><path
         d="m 8595,3126.07 h -72"
         style="fill:none;stroke:#262626;stroke-width:5.00250006;stroke-linecap:square;stroke-linejoin:round;stroke-miterlimit:10;stroke-dasharray:none;stroke-opacity:1"
         id="path4233"
         inkscape:connector-curvature="0" /><g
         id="g4235"
         transform="scale(10)"><text
           transform="matrix(1,0,0,-1,114.75,78.3203)"
           style="font-variant:normal;font-weight:normal;font-size:20.00020027px;font-family:Helvetica;-inkscape-font-specification:Helvetica;writing-mode:lr-tb;fill:#262626;fill-opacity:1;fill-rule:nonzero;stroke:none"
           id="text4249"><tspan
             x="0 6.6600666"
             y="0"
             sodipodi:role="line"
             id="tspan4237">-1</tspan><tspan
             x="-16.5 -9.8399334 1.2801778 6.8402333"
             y="-45.207401"
             sodipodi:role="line"
             id="tspan4239">-0.5</tspan><tspan
             x="6.75"
             y="-90.414803"
             id="tspan4241">0</tspan><tspan
             x="-9.75 1.3701112 6.9301667"
             y="-135.62219"
             sodipodi:role="line"
             id="tspan4243">0.5</tspan><tspan
             x="6.75"
             y="-180.82961"
             id="tspan4245">1</tspan><tspan
             x="-9.75 1.3701112 6.9301667"
             y="-226.037"
             sodipodi:role="line"
             id="tspan4247">1.5</tspan></text>
<text
           transform="matrix(0,1,1,0,90,155.25)"
           style="font-variant:normal;font-weight:normal;font-size:21.99970055px;font-family:Helvetica;-inkscape-font-specification:Helvetica;writing-mode:lr-tb;fill:#262626;fill-opacity:1;fill-rule:nonzero;stroke:none"
           id="text4253"><tspan
             x="0 14.6738 21.999701 29.3256 41.557434 47.673351 54.999249 65.9991 84.324852"
             y="0"
             sodipodi:role="line"
             id="tspan4251">Erro (cm)</tspan></text>
</g><g
         id="g4255"
         transform="scale(10)"><text
           transform="matrix(1,0,0,-1,312.75,350.625)"
           style="font-variant:normal;font-weight:bold;font-size:21.99970055px;font-family:Helvetica;-inkscape-font-specification:Helvetica-Bold;writing-mode:lr-tb;fill:#000000;fill-opacity:1;fill-rule:nonzero;stroke:none"
           id="text4259"><tspan
             x="0 14.6738 23.231684 31.789566 45.231384 51.347301 64.789116 78.230934 84.346848 99.020653 111.25248 118.57838 124.6943 144.25203 156.48387 169.92569 183.36749 191.92538 198.04131 211.48311 223.71495 229.83087 242.0627 254.29453 261.62042 273.85226 287.29407 300.7359 312.96774 319.08365 334.96744 350.85123 365.52502"
             y="0"
             sodipodi:role="line"
             id="tspan4257">Erro do Estimador de estados ARX2</tspan></text>
</g><path
         d="m 1395,2167.17 h 9.02 v -533.18 h 9.03 v 449.56 h 9.02 v -381.88 h 9.02 v 11.83 h 9.02 v -314.53 h 9.03 v 85.86 h 9.02 v -41.56 h 9.02 v 73.99 h 9.02 v -89.05 h 9.03 v 260.48 h 9.02 v 104.11 h 9.02 v 136.34 h 9.02 v -268.1 h 9.03 v -14.37 h 9.02 v 31.71 h 9.02 v -406.72 h 9.02 v 661.82 h 9.03 v -593.81 h 9.02 v 362.44 h 9.02 v -110.02 h 9.02 v -49.72 h 9.03 v 158.6 h 9.02 v -6.79 h 9.02 v -12.26 h 9.02 v -85.19 h 9.03 v -34.12 h 9.02 v 8.34 h 9.02 v 54.41 h 9.02 v 40.98 h 9.03 v -94.77 h 9.02 v 194.35 h 9.02 v -81.28 h 9.02 V 1736 h 9.03 v 107.49 h 9.02 v -411.33 h 9.02 v 273.01 h 9.02 v -480.94 h 9.03 v -59.3 h 9.02 v 434.62 h 9.02 v -117.73 h 9.02 v 46.21 h 9.03 v -132.67 h 9.02 v 507.79 h 9.02 v -324.88 h 9.02 v 172.29 h 9.03 v 171.24 h 9.02 v -278.61 h 9.02 v -8.16 h 9.02 v -305.11 h 9.03 v 372.44 h 9.02 v -97.02 h 9.02 v 276.23 h 9.02 v -215.32 h 9.02 v 83.34 h 9.03 v -203.38 h 9.02 v 295.75 h 9.02 V 1539.9 h 9.02 v 203.45 h 9.03 v -261.02 h 9.02 v -207.34 h 9.02 v -35.22 h 9.02 v 74.55 h 9.03 v 545.63 h 9.02 v -14.82 h 9.02 v 309.11 h 9.02 v -647.42 h 9.04 v -19.89 h 9.02 v -272.81 h 9.02 v 382.99 h 9.02 v 153.07 h 9.03 v 2.07 h 9.02 v 442.93 h 9.02 v -546.45 h 9.02 v -289.21 h 9.03 v 60.86 h 9.02 v -187.45 h 9.02 v 113.39 h 9.02 v 168.98 h 9.03 v 406.72 h 9.02 v 177.27 h 9.02 v -503.78 h 9.02 v 42.52 h 9.03 v -234.41 h 9.02 v 286.78 h 9.02 v -64.99 h 9.02 v 53.15 h 9.02 v 513.02 h 9.03 V 1784.8 h 9.02 v -140.16 h 9.02 v -34.85 h 9.02 v 124.55 h 9.03 v -10.38 h 9.02 v 82.58 h 9.02 v -201.06 h 9.02 v -12.33 h 9.03 v 120.82 h 9.02 v -309.62 h 9.02 v 353.22 h 9.02 v -269 h 9.03 v 87.48 h 9.02 v -20.73 h 9.02 v 142.47 h 9.02 v 153.49 h 9.03 v 38.35 h 9.02 V 1850 h 9.02 v 143.68 h 9.02 V 1424.3 h 9.03 v 510.41 h 9.02 v -544.65 h 9.02 v 626.13 h 9.02 v -221.22 h 9.03 v -294.54 h 9.02 v 141.68 h 9.02 v -10.23 h 9.02 v -344.26 h 9.03 v 209.41 h 9.02 V 1253.8 h 9.02 V 1529 h 9.02 v 224.57 h 9.03 v 171.65 h 9.02 v -106.14 h 9.02 v -101.71 h 9.02 v -386.58 h 9.03 v 266.37 h 9.02 v -81.94 h 9.02 v 347.36 h 9.02 v -229.3 h 9.03 v 231.16 h 9.02 v -360.88 h 9.02 v 45.76 h 9.03 v -17.84 h 9.02 v 165.88 h 9.02 v 58.98 h 9.02 v 1.55 h 9.03 v -95.91 h 9.02 v -75.04 h 9.02 v -15.13 h 9.02 v 156.03 h 9.03 v 136.58 h 9.02 v -327.71 h 9.02 v 244.87 h 9.02 v -107.2 h 9.03 v -165.24 h 9.02 v 187.95 h 9.02 v -74.18 h 9.02 v -134.53 h 9.03 v -189.93 h 9.02 v -209.22 h 9.02 v 489.92 h 9.02 v 179.26 h 9.03 v 333.41 h 9.02 v -404.25 h 9.02 v 20.39 h 9.02 v -414.1 h 9.03 v 253.97 h 9.02 v -76.02 h 9.02 v 492.73 h 9.02 v -124.99 h 9.03 v -252.6 h 9.02 v 29.85 h 9.02 v -112 h 9.02 v -57.4 h 9.03 v 353.94 h 9.02 v -106.45 h 9.02 v 149.56 h 9.02 v -263.6 h 9.03 v 92.48 h 9.02 V 1450.9 h 9.02 v 186.4 h 9.02 v -8.05 h 9.03 v -345.33 h 9.02 v 637.74 h 9.02 v -532.81 h 9.02 v 95.76 h 9.03 v 253.46 h 9.02 v 263 h 9.02 v -231.44 h 9.02 v 395.91 h 9.03 v -216.7 h 9.02 v -330.47 h 9.02 v 332.41 h 9.02 v -695.27 h 9.03 v 916.32 h 9.02 v -376.67 h 9.02 v 105.95 h 9.02 v -290.76 h 9.02 v 183.16 h 9.03 V 1427.1 h 9.02 v 240.87 h 9.02 v 144.49 h 9.02 v 151.69 h 9.03 v -262.12 h 9.02 v -135.56 h 9.02 v -57.88 h 9.02 v -61.29 h 9.03 v 199.15 h 9.02 v 233.19 h 9.02 v -178.39 h 9.02 v 233.21 h 9.04 v -387.44 h 9.02 v -90.66 h 9.02 v 33.14 h 9.02 v -35.04 h 9.03 v -10.1 h 9.02 v -313.05 h 9.02 v 163.64 h 9.02 v -190.72 h 9.03 v -20.61 h 9.02 v -4.69 h 9.02 v -0.03 h 9.02 v 63.5 h 9.03 v 201.37 h 9.02 v -318.39 h 9.02 v 566.55 h 9.02 v -205.91 h 9.03 v 344.32 h 9.02 v -390.8 h 9.02 v 462.36 h 9.02 v -125.57 h 9.02 v 558.65 h 9.03 v -188 h 9.02 v 227.14 h 9.02 v -331 h 9.02 v -309.56 h 9.03 v -254.13 h 9.02 v -99.28 h 9.02 v 124.31 h 9.02 v 17.96 h 9.03 v -363.83 h 9.02 v 375.48 h 9.02 v 130.42 h 9.02 v 180.85 h 9.03 v 107.95 h 9.02 v 323.46 h 9.02 v -302.21 h 9.02 v -451.22 h 9.03 v -74.86 h 9.02 v 451.66 h 9.02 v 118.79 h 9.02 v 158.81 h 9.03 v -245.1 h 9.02 v -129.67 h 9.02 v -498.52 h 9.02 v 312.73 h 9.03 v 487.95 h 9.02 v -79.18 h 9.02 v -514.91 h 9.02 v 478.32 h 9.03 v -796.47 h 9.02 v 636.46 h 9.02 v -179.97 h 9.02 v 724.84 h 9.03 v -231.84 h 9.02 V 2094 h 9.02 v -416.02 h 9.02 v 128.58 h 9.03 v -88.49 h 9.02 v -349 h 9.02 v 434.96 h 9.02 v 96.23 h 9.03 v 205.86 h 9.02 v -128.57 h 9.02 v -44.69 h 9.03 v -10.36 h 9.02 v -542.12 h 9.02 v 507.03 h 9.02 v -558.35 h 9.03 v 125.05 h 9.02 v -85.16 h 9.02 v -11.2 h 9.02 v 337.04 h 9.03 v -409.18 h 9.02 v 633.88 h 9.02 v -134.9 h 9.02 v 135.96 h 9.03 v -100.3 h 9.02 v -294.2 h 9.02 v -100.32 h 9.02 v 186.14 h 9.03 v 261.54 h 9.02 v 368.94 h 9.02 V 1924.9 h 9.02 v -43.01 h 9.03 v -335.41 h 9.02 v 215.23 h 9.02 v -557.48 h 9.02 v 636.43 h 9.03 v 23.6 h 9.02 v -354 h 9.02 v -96.94 h 9.02 v -1.27 h 9.03 v 60.63 h 9.02 v -35.74 h 9.02 v 477.74 h 9.02 v 11.96 h 9.03 v 454.16 h 9.02 v -890.3 h 9.02 v 133.42 h 9.02 v -140.05 h 9.03 v -34.62 h 9.02 v 6.95 h 9.02 v 443.03 h 9.02 v 91.58 h 9.03 v 67.47 h 9.02 v 49.93 h 9.02 v -308.17 h 9.02 v -7.38 h 9.03 V 1363.7 h 9.02 v -352.32 h 9.02 V 750.613 h 9.02 v 404.517 h 9.03 V 1201 h 9.02 v 829.44 h 9.02 v 106.8 h 9.02 v -75.88 h 9.03 v -220.19 h 9.02 V 1701.4 h 9.02 v -679.94 h 9.02 v 294.78 h 9.02 v 646.74 h 9.03 v 227.56 h 9.02 v -40.3 h 9.02 v -173.93 h 9.02 v -50.56 h 9.03 v -121.96 h 9.02 v -691.56 h 9.02 v 414.42 h 9.02 v -21.9 h 9.03 v -322.98 h 9.02 v 640.99 h 9.02 v -26.35 h 9.02 v 255.39 h 9.04 v -441.17 h 9.02 v 125.78 h 9.02 v -225.1 h 9.02 v 57.29 h 9.03 v 130.13 h 9.02 v 165.07 h 9.02 v 21.99 h 9.02 v -89.95 h 9.03 v -206.45 h 9.02 v 128.04 h 9.02 v -367.65 h 9.02 v 512.72 h 9.03 v -176.03 h 9.02 v 344.07 h 9.02 v -139.83 h 9.02 v 112.45 h 9.03 v 145.08 h 9.02 v -484.01 h 9.02 v 317.41 h 9.02 V 1633.5 h 9.02 v -22.04 h 9.03 v -198.63 h 9.02 v 250.08 h 9.02 v -565.16 h 9.02 v 393.89 h 9.03 v 5.36 h 9.02 v 300.61 h 9.02 v -252.33 h 9.02 v 481.5 h 9.03 v 61.16 h 9.02 v -320.05 h 9.02 v -18.42 h 9.02 v 188.47 h 9.03 v 41.34 h 9.02 v 32.99 h 9.02 v -190.38 h 9.02 v -131.08 h 9.03 v -541.1 h 9.02 V 967.32 h 9.02 v 51.89 h 9.02 v 655.32 h 9.03 v 193.95 h 9.02 v 213.51 h 9.02 v 179.09 h 9.02 V 1863.2 h 9.03 v -331.36 h 9.02 v -158.93 h 9.02 v 49.59 h 9.02 v 577.15 h 9.03 v -92.72 h 9.02 v 187.64 h 9.02 v 90.67 h 9.02 v -409.13 h 9.03 v 271.61 h 9.02 v -475.94 h 9.02 v 198.4 h 9.02 V 1276.5 h 9.03 v 3.03 h 9.02 v -173.68 h 9.02 v 48.06 h 9.02 v 438.89 h 9.03 v -155.03 h 9.02 v 705.03 h 9.02 v -67.62 h 9.03 v 208.2 h 9.02 V 1930.7 h 9.02 v -350.01 h 9.02 v -330.38 h 9.03 v 637.57 h 9.02 v 8.93 h 9.02 v -30.13 h 9.02 v -391.26 h 9.03 v -191.4 h 9.02 V 720.766 h 9.02 v -75.555 h 9.02 v 631.069 h 9.03 v 306.77 h 9.02 v -195.08 h 9.02 v -169.99 h 9.02 V 882.301 h 9.03 v 183.649 h 9.02 v 450.21 h 9.02 v 288.1 h 9.02 v 0.06 h 9.03 v 442.25 h 9.02 v -667.05 h 9.02 v -449.4 h 9.02 v -32.37 h 9.03 v 419.85 h 9.02 v 46.76 h 9.02 v 190.32 h 9.02 v 65.2 h 9.03 v -457.46 h 9.02 v 192.98 h 9.02 v 633.87 h 9.02 v -638.03 h 9.03 v 787.46 h 9.02 v -38.43 h 9.02 v -170.38 h 9.02 V 1773.1 h 9.03 v -223.4 h 9.02 v 25.89 h 9.02 v -156.07 h 9.02 v 337.09 h 9.03 v 31.66 h 9.02 v -62.85 h 9.02 v -232.99 h 9.02 v 212.41 h 9.03 v -224.42 h 9.02 v 168.95 h 9.02 v -206.14 h 9.02 v 279.86 h 9.03 v -303.27 h 9.02 v 164.34 h 9.02 v -87.53 h 9.02 v 352.38 h 9.03 v -151.58 h 9.02 v 0 h 9.02 v 298.73 h 9.02 v -272.89 h 9.02 v 268.23 h 9.03 v 172.71 h 9.02 v -623.46 h 9.02 v 31.3 h 9.02 v 7.84 h 9.03 V 1329.8 h 9.02 v -53.65 h 9.02 v 440.7 h 9.02 v 15.99 h 9.03 v -113.33 h 9.02 v 166.93 h 9.02 v 56.2 h 9.02 v -83.43 h 9.04 v 382.32 h 9.02 v -346.62 h 9.02 v 176.57 h 9.02 v -187.25 h 9.03 v -259.58 h 9.02 v -48.56 h 9.02 v 27.89 h 9.02 v -38.1 h 9.03 v 405.02 h 9.02 v -244.76 h 9.02 v 113.7 h 9.02 v -133.26 h 9.03 v 182.66 h 9.02 v -300.57 h 9.02 v 44.2 h 9.02 v 80.81 h 9.03 v -83.52 h 9.02 v 85.59 h 9.02 v -10.03 h 9.02 v 4.18 h 9.02 v 212.65 h 9.03 v -168.7 h 9.02 v 324.17 h 9.02 v -99.86 h 9.02 v 342.57 h 9.03 v -537.5 h 9.02 v -209.24 h 9.02 v -35.75 h 9.02 v 126.8 h 9.03 v -68.39 h 9.02 v 415.43 h 9.02 v 342.23 h 9.02 v -932.26 h 9.03 v 260.75 h 9.02 v -188.64 h 9.02 v 16.82 h 9.02 v 99.66 h 9.03 v 508.8 h 9.02 v 118.74 h 9.02 v -440.97 h 9.02 v 1.98 h 9.03 v -96.2 h 9.02 v 149.26 h 9.02 v -93.8 h 9.02 v 229.71 h 9.03 v -298.37 h 9.02 v 40.69 h 9.02 v -111 h 9.02 v -87.01 h 9.03 v 241.43 h 9.02 v 121.23 h 9.02 v -40.86 h 9.02 v -174.85 h 9.03 v -181.31 h 9.02 v 567.59 h 9.02 v -337.87 h 9.02 v 373.09 h 9.03 v -86.78 h 9.02 v -81.84 h 9.02 v -106.43 h 9.02 v 25.81 h 9.03 V 1243.6 h 9.02 v 193.31 h 9.02 v 421.13 h 9.03 v -856.57 h 9.02 v 803.55 h 9.02 v 59.71 h 9.02 v -73.78 h 9.03 v -61.59 h 9.02 v 130.74 h 9.02 v 180.46 h 9.02 v -493.49 h 9.03 v 203.4 h 9.02 v 211.96 h 9.02 V 1645 h 9.02 v -49.14 h 9.03 v 308.74 h 9.02 v -253.01 h 9.02 v -270.42 h 9.02 v 439.03 h 9.03 v -147.06 h 9.02 v -7.98 h 9.02 v 80.41 h 9.02 v 117.5 h 9.03 v 104.48 h 9.02 v 121.18 h 9.02 v -221.86 h 9.02 v -16.84 h 9.03 v -269.9 h 9.02 v -38.24 h 9.02 v -90.55 h 9.02 v 229.7 h 9.03 v 65.89 h 9.02 v 261.32 h 9.02 v -406.71 h 9.02 v 386.11 h 9.03 v -541.01 h 9.02 v 277.18 h 9.02 v 280.35 h 9.02 v -443.43 h 9.03 v 190.45 h 9.02 v -345.55 h 9.02 v 260.45 h 9.02 v 23.2 h 9.03 v 358.59 h 9.02 v -165.52 h 9.02 V 1682.5 h 9.02 v 30.99 h 9.03 v -391.75 h 9.02 v 137.99 h 9.02 v 225.92 h 9.02 v 80.01 h 9.03 v 130.31 h 9.02 v -176.64 h 9.02 v 188.55 h 9.02 v 34.18 h 9.03 V 1566.3 h 9.02 v 190.15 h 9.02 v -281.31 h 9.02 v 205.18 h 9.02 v 60.31 h 9.03 v 127.41 h 9.02 v -239.46 h 9.02 v 99.86 h 9.02 v -98.34 h 9.03 v 118.13 h 9.02 v 135.23 h 9.02 v 149.68 h 9.02 v -203.38 h 9.03 v -197.17 h 9.02 v -63.88 h 9.02 v 65.65 h 9.02 v 29.57 h 9.04 v 472.58 h 9.02 v -444.3 h 9.02 v 13.44 h 9.02 v -159.57 h 9.03 v 467.88 h 9.02 v -218.64 h 9.02 V 2796.5 h 9.02 v -75.92 h 9.03 v -44.12 h 9.02 v -305.67 h 9.02 v 182.49 h 9.02 v 42.36 h 9.03 v 179.13 h 9.02 v 419.15 h 9.02 v 128.17 h 9.02 v -362.97 h 9.03 V 2373.5 h 9.02 v -227.68 h 9.02 v -563.09 h 9.02 v -398.14 h 9.02 v 333.91 h 9.03 v -229.88 h 9.02 v 83.25 h 9.02 v 611.65 h 9.02 v -929.54 h 9.03 v 790.49 h 9.02 v -505.4 h 9.02 v 468.18 h 9.02 v 358.16 h 9.03 v 249.65 h 9.02 v 230.9 h 9.02 v -381.63 h 9.02 v -83.22 h 9.03 v -160.95 h 9.02 v -207.6 h 9.02 v -496.47 h 9.02 v 652.16 h 9.03 V 1019.5 h 9.02 v 732.08 h 9.02 v -294.47 h 9.02 v -5.07 h 9.03 v 66.08 h 9.02 V 1394.5 h 9.02 v 400.95 h 9.02 v -510.37 h 9.03 v 579.99 h 9.02 v 73.31 h 9.02 v 13.17 h 9.02 v 304.25 h 9.03 v -100.95 h 9.02 V 1931.6 h 9.02 v -453.49 h 9.02 v 158.57 h 9.03 v -109.43 h 9.02 v -273.76 h 9.02 v 703.52 h 9.02 v -562.9 h 9.03 v 570.67 h 9.02 V 1642.4 h 9.02 v 342.15 h 9.02 v -569.89 h 9.03 v 493.33 h 9.02 V 1358.7 h 9.02 v 398.99 h 9.03 v 313.29 h 9.02 v 95.61 h 9.02 v 113.91 h 9.02 v -413.31 h 9.03 v 344.29 h 9.02 v -778.03 h 9.02 v 523.83 h 9.02 v -343.21 h 9.03 v 116.08 h 9.02 v -335.94 h 9.02 v 241.73 h 9.02 v -86.42 h 9.03 v 180.69 h 9.02 v 124.39 h 9.02 v 64.33 h 9.02 v -274.41 h 9.03 v 132.91 h 9.02 v -186.99 h 9.02 v 233.38 h 9.02 v -88.07 h 9.03 v 388.54 h 9.02 v -50.7 h 9.02 v -653.3 h 9.02 v 790.97 h 9.03 v -948.05 h 9.02 v 632.54 h 9.02 v -210.27 h 9.02 V 1598 h 9.03 v 91.55 h 9.02 v 384.77 h 9.02 v -629.84 h 9.02 v 532.38 h 9.03 v -178.43 h 9.02 v 95.92 h 9.02 v -1.81 h 9.02 v 214.19 h 9.03 v -463.05 h 9.02 v 15.57 h 9.02 v 80.62 h 9.02 v -296.1 h 9.03 v -10.09 h 9.02 v 609.34 h 9.02 v -360.88 h 9.02 v 469.49 h 9.03 v 43.93 h 9.02 v -519.17 h 9.02 v 411.95 h 9.02 v -177.52 h 9.03 v -185.95 h 9.02 v 30.74 h 9.02 v 175.05 h 9.02 v -348.7 h 9.03 v 116.99 h 9.02 v -109.72 h 9.02 v 96.61 h 9.02 v 5.93 h 9.02 v -62.2 h 9.03 v 190.12 h 9.02 v -269.88 h 9.02 v 104.02 h 9.02 v 134.6 h 9.03 v -383.59 h 9.02 v 236 h 9.03 v -61.93 h 9.01 v 222.92 h 9.04 v -244.06 h 9.02 v 587.48 h 9.01 V 1892 h 9.02 v -364.2 h 9.03 v 491 h 9.03 v -466.07 h 9.02 v 156.2 h 9.02 v 173.91 h 9.03 v -47.62 h 9.01 v -480.79 h 9.03 v 589.52 h 9.02 v -447.48 h 9.03 v 338.89 h 9.02 v 146.51 h 9.02 v -489.92 h 9.02 v 709.29 h 9.03 v -826.49 h 9.02 v 550.17 h 9.02 v -321.7 h 9.02 v 597.79 h 9.03 v -327.17 h 9.02 v -57.1 h 9.02 v 144.1 h 9.02 v -518.52 h 9.02 v 441.17 h 9.03 v -228.95 h 9.02 v 109.62 h 9.02 v 45.69 h 9.02 v -71.78 h 9.03 v -232.69 h 9.02 v 293.13 h 9.03 v -67.06 h 9.01 v 285.84 h 9.03 v 80.26 h 9.02 v 71.41 h 9.02 v -220.71 h 9.02 v -393.73 h 9.03 v 370.92 h 9.02 v -400.23 h 9.02 v 450.85 h 9.02 v 172.05 h 9.03 v -422.38 h 9.02 v -64.53 h 9.02 v -160.86 h 9.02 v 98.28 h 9.03 v -149.64 h 9.02 v 219.24 h 9.02 v -168.49 h 9.03 v 199.64 h 9.02 v 70.13 h 9.02 v 339.52 h 9.02 v -306.55 h 9.02 v 168.18 h 9.03 v -241.2 h 9.02 v -73.28 h 9.02 v 149.74 h 9.02 v 164.4 h 9.03 v -488.56 h 9.02 v 482.1 h 9.02 v -111.39 h 9.02 v -519.24 h 9.03 v 222.87 h 9.02 v 40.41 h 9.02 v 227.42 h 9.03 v -126.41 h 9.02 v 653.04 h 9.02 v -366.08 h 9.02 v -155.38 h 9.03 v -298.3 h 9.02 v -106.55 h 9.02 v 329.36"
         style="fill:none;stroke:#0072bd;stroke-width:15;stroke-linecap:butt;stroke-linejoin:miter;stroke-miterlimit:10;stroke-dasharray:none;stroke-opacity:1"
         id="path4261"
         inkscape:connector-curvature="0" /><path
         d="M 1492.5,3015 H 1980 v 300 h -487.5 z"
         style="fill:#ffffff;fill-opacity:1;fill-rule:nonzero;stroke:none"
         id="path4263"
         inkscape:connector-curvature="0" /><path
         d="m 1890.57,3109.74 c -6.87,0 -12.93,1.82 -18.16,5.45 -5.24,3.63 -9.2,8.49 -11.9,14.59 -2.69,6.1 -4.04,12.54 -4.04,19.33 0,10.39 2.6,20.14 7.79,29.24 5.2,9.11 12.25,16.37 21.16,21.8 8.9,5.43 18.47,8.15 28.71,8.15 6.17,0 11.58,-1.6 16.23,-4.81 4.65,-3.2 6.98,-7.81 6.98,-13.83 0,-8.36 -3.33,-14.57 -9.97,-18.63 -6.64,-4.07 -14.14,-6.58 -22.5,-7.56 -8.36,-0.97 -17.62,-1.46 -27.78,-1.46 h -0.58 c -2.35,-8.68 -3.52,-16.06 -3.52,-22.15 0,-6.48 1.49,-12.17 4.46,-17.06 2.97,-4.87 7.5,-7.32 13.59,-7.32 8.67,0 16.98,2 24.91,5.98 7.93,3.98 14.43,9.45 19.51,16.4 0.39,0.48 0.93,0.71 1.63,0.71 0.71,0 1.43,-0.41 2.17,-1.23 0.75,-0.82 1.12,-1.58 1.12,-2.29 0,-0.54 -0.12,-0.97 -0.35,-1.29 -5.32,-7.42 -12.46,-13.28 -21.44,-17.58 -8.99,-4.29 -18.33,-6.44 -28.02,-6.44 z m -12.77,57.89 c 8.44,0 16.23,0.39 23.38,1.17 7.15,0.78 13.61,2.75 19.39,5.92 5.78,3.17 8.67,8.07 8.67,14.71 0,2.65 -0.74,5 -2.22,7.03 -1.48,2.03 -3.42,3.58 -5.8,4.63 -2.38,1.05 -4.82,1.58 -7.32,1.58 -6.18,0 -11.72,-1.66 -16.65,-4.98 -4.92,-3.32 -8.98,-7.66 -12.18,-13.01 -3.21,-5.35 -5.63,-11.03 -7.27,-17.05"
         style="fill:#000000;fill-opacity:1;fill-rule:nonzero;stroke:none"
         id="path4265"
         inkscape:connector-curvature="0" /><path
         d="m 1522.66,3165 h 301.58"
         style="fill:none;stroke:#0072bd;stroke-width:15;stroke-linecap:butt;stroke-linejoin:round;stroke-miterlimit:10;stroke-dasharray:none;stroke-opacity:1"
         id="path4267"
         inkscape:connector-curvature="0" /><path
         d="M 1492.5,3015 H 1980 v 300 h -487.5 z"
         style="fill:none;stroke:#262626;stroke-width:5.00250006;stroke-linecap:butt;stroke-linejoin:miter;stroke-miterlimit:10;stroke-dasharray:none;stroke-opacity:1"
         id="path4269"
         inkscape:connector-curvature="0" /></g></g></svg>