<?xml version="1.0" encoding="UTF-8" standalone="no"?>
<!-- Created with Inkscape (http://www.inkscape.org/) -->

<svg
   xmlns:dc="http://purl.org/dc/elements/1.1/"
   xmlns:cc="http://creativecommons.org/ns#"
   xmlns:rdf="http://www.w3.org/1999/02/22-rdf-syntax-ns#"
   xmlns:svg="http://www.w3.org/2000/svg"
   xmlns="http://www.w3.org/2000/svg"
   xmlns:sodipodi="http://sodipodi.sourceforge.net/DTD/sodipodi-0.dtd"
   xmlns:inkscape="http://www.inkscape.org/namespaces/inkscape"
   version="1.1"
   id="svg4021"
   xml:space="preserve"
   width="1200"
   height="500"
   viewBox="0 0 1200 500"
   sodipodi:docname="erroarx1.svg"
   inkscape:version="0.92.3 (2405546, 2018-03-11)"><metadata
     id="metadata4027"><rdf:RDF><cc:Work
         rdf:about=""><dc:format>image/svg+xml</dc:format><dc:type
           rdf:resource="http://purl.org/dc/dcmitype/StillImage" /><dc:title></dc:title></cc:Work></rdf:RDF></metadata><defs
     id="defs4025" /><sodipodi:namedview
     pagecolor="#ffffff"
     bordercolor="#666666"
     borderopacity="1"
     objecttolerance="10"
     gridtolerance="10"
     guidetolerance="10"
     inkscape:pageopacity="0"
     inkscape:pageshadow="2"
     inkscape:window-width="640"
     inkscape:window-height="480"
     id="namedview4023"
     showgrid="false"
     inkscape:zoom="0.28333333"
     inkscape:cx="600"
     inkscape:cy="250"
     inkscape:window-x="0"
     inkscape:window-y="0"
     inkscape:window-maximized="0"
     inkscape:current-layer="g4029" /><g
     id="g4029"
     inkscape:groupmode="layer"
     inkscape:label="ink_ext_XXXXXX"
     transform="matrix(1.3333333,0,0,-1.3333333,0,500)"><g
       id="g4031"
       transform="scale(0.1)"><path
         d="M 0,0 H 9000 V 3750 H 0 Z"
         style="fill:#ffffff;fill-opacity:1;fill-rule:nonzero;stroke:none"
         id="path4033"
         inkscape:connector-curvature="0" /><path
         d="M 0,0 H 9000 V 3750 H 0 Z"
         style="fill:#ffffff;fill-opacity:1;fill-rule:nonzero;stroke:none"
         id="path4035"
         inkscape:connector-curvature="0" /><path
         d="M 1395,600 H 8595 V 3412.5 H 1395 Z"
         style="fill:#ffffff;fill-opacity:1;fill-rule:nonzero;stroke:none"
         id="path4037"
         inkscape:connector-curvature="0" /><path
         d="M 1395,600 H 8595"
         style="fill:none;stroke:#262626;stroke-width:5.00250006;stroke-linecap:square;stroke-linejoin:round;stroke-miterlimit:10;stroke-dasharray:none;stroke-opacity:1"
         id="path4039"
         inkscape:connector-curvature="0" /><path
         d="M 1395,3412.5 H 8595"
         style="fill:none;stroke:#262626;stroke-width:5.00250006;stroke-linecap:square;stroke-linejoin:round;stroke-miterlimit:10;stroke-dasharray:none;stroke-opacity:1"
         id="path4041"
         inkscape:connector-curvature="0" /><path
         d="m 1395,600 v 72"
         style="fill:none;stroke:#262626;stroke-width:5.00250006;stroke-linecap:square;stroke-linejoin:round;stroke-miterlimit:10;stroke-dasharray:none;stroke-opacity:1"
         id="path4043"
         inkscape:connector-curvature="0" /><path
         d="m 2297.26,600 v 72"
         style="fill:none;stroke:#262626;stroke-width:5.00250006;stroke-linecap:square;stroke-linejoin:round;stroke-miterlimit:10;stroke-dasharray:none;stroke-opacity:1"
         id="path4045"
         inkscape:connector-curvature="0" /><path
         d="m 3199.52,600 v 72"
         style="fill:none;stroke:#262626;stroke-width:5.00250006;stroke-linecap:square;stroke-linejoin:round;stroke-miterlimit:10;stroke-dasharray:none;stroke-opacity:1"
         id="path4047"
         inkscape:connector-curvature="0" /><path
         d="m 4101.77,600 v 72"
         style="fill:none;stroke:#262626;stroke-width:5.00250006;stroke-linecap:square;stroke-linejoin:round;stroke-miterlimit:10;stroke-dasharray:none;stroke-opacity:1"
         id="path4049"
         inkscape:connector-curvature="0" /><path
         d="m 5004.02,600 v 72"
         style="fill:none;stroke:#262626;stroke-width:5.00250006;stroke-linecap:square;stroke-linejoin:round;stroke-miterlimit:10;stroke-dasharray:none;stroke-opacity:1"
         id="path4051"
         inkscape:connector-curvature="0" /><path
         d="m 5906.28,600 v 72"
         style="fill:none;stroke:#262626;stroke-width:5.00250006;stroke-linecap:square;stroke-linejoin:round;stroke-miterlimit:10;stroke-dasharray:none;stroke-opacity:1"
         id="path4053"
         inkscape:connector-curvature="0" /><path
         d="m 6808.54,600 v 72"
         style="fill:none;stroke:#262626;stroke-width:5.00250006;stroke-linecap:square;stroke-linejoin:round;stroke-miterlimit:10;stroke-dasharray:none;stroke-opacity:1"
         id="path4055"
         inkscape:connector-curvature="0" /><path
         d="m 7710.79,600 v 72"
         style="fill:none;stroke:#262626;stroke-width:5.00250006;stroke-linecap:square;stroke-linejoin:round;stroke-miterlimit:10;stroke-dasharray:none;stroke-opacity:1"
         id="path4057"
         inkscape:connector-curvature="0" /><path
         d="m 1395,3412.5 v -72"
         style="fill:none;stroke:#262626;stroke-width:5.00250006;stroke-linecap:square;stroke-linejoin:round;stroke-miterlimit:10;stroke-dasharray:none;stroke-opacity:1"
         id="path4059"
         inkscape:connector-curvature="0" /><path
         d="m 2297.26,3412.5 v -72"
         style="fill:none;stroke:#262626;stroke-width:5.00250006;stroke-linecap:square;stroke-linejoin:round;stroke-miterlimit:10;stroke-dasharray:none;stroke-opacity:1"
         id="path4061"
         inkscape:connector-curvature="0" /><path
         d="m 3199.52,3412.5 v -72"
         style="fill:none;stroke:#262626;stroke-width:5.00250006;stroke-linecap:square;stroke-linejoin:round;stroke-miterlimit:10;stroke-dasharray:none;stroke-opacity:1"
         id="path4063"
         inkscape:connector-curvature="0" /><path
         d="m 4101.77,3412.5 v -72"
         style="fill:none;stroke:#262626;stroke-width:5.00250006;stroke-linecap:square;stroke-linejoin:round;stroke-miterlimit:10;stroke-dasharray:none;stroke-opacity:1"
         id="path4065"
         inkscape:connector-curvature="0" /><path
         d="m 5004.02,3412.5 v -72"
         style="fill:none;stroke:#262626;stroke-width:5.00250006;stroke-linecap:square;stroke-linejoin:round;stroke-miterlimit:10;stroke-dasharray:none;stroke-opacity:1"
         id="path4067"
         inkscape:connector-curvature="0" /><path
         d="m 5906.28,3412.5 v -72"
         style="fill:none;stroke:#262626;stroke-width:5.00250006;stroke-linecap:square;stroke-linejoin:round;stroke-miterlimit:10;stroke-dasharray:none;stroke-opacity:1"
         id="path4069"
         inkscape:connector-curvature="0" /><path
         d="m 6808.54,3412.5 v -72"
         style="fill:none;stroke:#262626;stroke-width:5.00250006;stroke-linecap:square;stroke-linejoin:round;stroke-miterlimit:10;stroke-dasharray:none;stroke-opacity:1"
         id="path4071"
         inkscape:connector-curvature="0" /><path
         d="m 7710.79,3412.5 v -72"
         style="fill:none;stroke:#262626;stroke-width:5.00250006;stroke-linecap:square;stroke-linejoin:round;stroke-miterlimit:10;stroke-dasharray:none;stroke-opacity:1"
         id="path4073"
         inkscape:connector-curvature="0" /><g
         id="g4075"
         transform="scale(10)"><text
           transform="matrix(1,0,0,-1,133.5,33)"
           style="font-variant:normal;font-weight:normal;font-size:20.00020027px;font-family:Helvetica;-inkscape-font-specification:Helvetica;writing-mode:lr-tb;fill:#262626;fill-opacity:1;fill-rule:nonzero;stroke:none"
           id="text4079"><tspan
             x="0 90.225105 174.82574 185.94586 265.05084 276.17096 355.27637 366.39645 445.50146 456.62155 535.72693 546.84705 625.95209 637.07214"
             y="0"
             sodipodi:role="line"
             id="tspan4077">05101520253035</tspan></text>
<text
           transform="matrix(1,0,0,-1,449.625,5)"
           style="font-variant:normal;font-weight:normal;font-size:21.99970055px;font-family:Helvetica;-inkscape-font-specification:Helvetica;writing-mode:lr-tb;fill:#262626;fill-opacity:1;fill-rule:nonzero;stroke:none"
           id="text4083"><tspan
             x="0 13.441816 25.673651 43.999401 56.231232 68.463066 74.578979 81.904884 92.904732"
             y="0"
             sodipodi:role="line"
             id="tspan4081">Tempo (s)</tspan></text>
</g><path
         d="M 1395,600 V 3412.5"
         style="fill:none;stroke:#262626;stroke-width:5.00250006;stroke-linecap:square;stroke-linejoin:round;stroke-miterlimit:10;stroke-dasharray:none;stroke-opacity:1"
         id="path4085"
         inkscape:connector-curvature="0" /><path
         d="M 8595,600 V 3412.5"
         style="fill:none;stroke:#262626;stroke-width:5.00250006;stroke-linecap:square;stroke-linejoin:round;stroke-miterlimit:10;stroke-dasharray:none;stroke-opacity:1"
         id="path4087"
         inkscape:connector-curvature="0" /><path
         d="m 1395,708.391 h 72"
         style="fill:none;stroke:#262626;stroke-width:5.00250006;stroke-linecap:square;stroke-linejoin:round;stroke-miterlimit:10;stroke-dasharray:none;stroke-opacity:1"
         id="path4089"
         inkscape:connector-curvature="0" /><path
         d="m 1395,1252.08 h 72"
         style="fill:none;stroke:#262626;stroke-width:5.00250006;stroke-linecap:square;stroke-linejoin:round;stroke-miterlimit:10;stroke-dasharray:none;stroke-opacity:1"
         id="path4091"
         inkscape:connector-curvature="0" /><path
         d="m 1395,1795.77 h 72"
         style="fill:none;stroke:#262626;stroke-width:5.00250006;stroke-linecap:square;stroke-linejoin:round;stroke-miterlimit:10;stroke-dasharray:none;stroke-opacity:1"
         id="path4093"
         inkscape:connector-curvature="0" /><path
         d="m 1395,2339.45 h 72"
         style="fill:none;stroke:#262626;stroke-width:5.00250006;stroke-linecap:square;stroke-linejoin:round;stroke-miterlimit:10;stroke-dasharray:none;stroke-opacity:1"
         id="path4095"
         inkscape:connector-curvature="0" /><path
         d="m 1395,2883.14 h 72"
         style="fill:none;stroke:#262626;stroke-width:5.00250006;stroke-linecap:square;stroke-linejoin:round;stroke-miterlimit:10;stroke-dasharray:none;stroke-opacity:1"
         id="path4097"
         inkscape:connector-curvature="0" /><path
         d="m 8595,708.391 h -72"
         style="fill:none;stroke:#262626;stroke-width:5.00250006;stroke-linecap:square;stroke-linejoin:round;stroke-miterlimit:10;stroke-dasharray:none;stroke-opacity:1"
         id="path4099"
         inkscape:connector-curvature="0" /><path
         d="m 8595,1252.08 h -72"
         style="fill:none;stroke:#262626;stroke-width:5.00250006;stroke-linecap:square;stroke-linejoin:round;stroke-miterlimit:10;stroke-dasharray:none;stroke-opacity:1"
         id="path4101"
         inkscape:connector-curvature="0" /><path
         d="m 8595,1795.77 h -72"
         style="fill:none;stroke:#262626;stroke-width:5.00250006;stroke-linecap:square;stroke-linejoin:round;stroke-miterlimit:10;stroke-dasharray:none;stroke-opacity:1"
         id="path4103"
         inkscape:connector-curvature="0" /><path
         d="m 8595,2339.45 h -72"
         style="fill:none;stroke:#262626;stroke-width:5.00250006;stroke-linecap:square;stroke-linejoin:round;stroke-miterlimit:10;stroke-dasharray:none;stroke-opacity:1"
         id="path4105"
         inkscape:connector-curvature="0" /><path
         d="m 8595,2883.14 h -72"
         style="fill:none;stroke:#262626;stroke-width:5.00250006;stroke-linecap:square;stroke-linejoin:round;stroke-miterlimit:10;stroke-dasharray:none;stroke-opacity:1"
         id="path4107"
         inkscape:connector-curvature="0" /><g
         id="g4109"
         transform="scale(10)"><text
           transform="matrix(1,0,0,-1,114.75,62.5891)"
           style="font-variant:normal;font-weight:normal;font-size:20.00020027px;font-family:Helvetica;-inkscape-font-specification:Helvetica;writing-mode:lr-tb;fill:#262626;fill-opacity:1;fill-rule:nonzero;stroke:none"
           id="text4121"><tspan
             x="0 6.6600666"
             y="0"
             sodipodi:role="line"
             id="tspan4111">-1</tspan><tspan
             x="-16.5 -9.8399334 1.2801778 6.8402333"
             y="-54.368698"
             sodipodi:role="line"
             id="tspan4113">-0.5</tspan><tspan
             x="6.75"
             y="-108.7374"
             id="tspan4115">0</tspan><tspan
             x="-9.75 1.3701112 6.9301667"
             y="-163.10651"
             sodipodi:role="line"
             id="tspan4117">0.5</tspan><tspan
             x="6.75"
             y="-217.4752"
             id="tspan4119">1</tspan></text>
<text
           transform="matrix(0,1,1,0,90,155.25)"
           style="font-variant:normal;font-weight:normal;font-size:21.99970055px;font-family:Helvetica;-inkscape-font-specification:Helvetica;writing-mode:lr-tb;fill:#262626;fill-opacity:1;fill-rule:nonzero;stroke:none"
           id="text4125"><tspan
             x="0 14.6738 21.999701 29.3256 41.557434 47.673351 54.999249 65.9991 84.324852"
             y="0"
             sodipodi:role="line"
             id="tspan4123">Erro (cm)</tspan></text>
</g><g
         id="g4127"
         transform="scale(10)"><text
           transform="matrix(1,0,0,-1,312.75,350.625)"
           style="font-variant:normal;font-weight:bold;font-size:21.99970055px;font-family:Helvetica;-inkscape-font-specification:Helvetica-Bold;writing-mode:lr-tb;fill:#000000;fill-opacity:1;fill-rule:nonzero;stroke:none"
           id="text4131"><tspan
             x="0 14.6738 23.231684 31.789566 45.231384 51.347301 64.789116 78.230934 84.346848 99.020653 111.25248 118.57838 124.6943 144.25203 156.48387 169.92569 183.36749 191.92538 198.04131 211.48311 223.71495 229.83087 242.0627 254.29453 261.62042 273.85226 287.29407 300.7359 312.96774 319.08365 334.96744 350.85123 365.52502"
             y="0"
             sodipodi:role="line"
             id="tspan4129">Erro do Estimador de estados ARX1</tspan></text>
</g><path
         d="m 1395,1656.71 h 9.02 v 111.75 h 9.03 v 48.38 h 9.02 v -309.95 h 9.02 v 557.24 h 9.02 V 1917.8 h 9.03 v -102.82 h 9.02 v -21.88 h 9.02 v 7.71 h 9.02 v 166.23 h 9.03 v -284.6 h 9.02 v 72.1 h 9.02 v 533.33 h 9.02 v -376.11 h 9.03 v -494.33 h 9.02 v 245.9 h 9.02 v 135.66 h 9.02 v 19.74 h 9.03 v -14.37 h 9.02 v -168.9 h 9.02 v 284.52 h 9.02 v 415.36 h 9.03 v -929.71 h 9.02 v 210.87 h 9.02 v 650.08 h 9.02 V 1587.1 h 9.03 v -237.16 h 9.02 v 507.67 h 9.02 V 1869 h 9.02 v -210.61 h 9.03 v 260.94 h 9.02 v -75.28 h 9.02 V 1636.3 h 9.02 v 118.31 h 9.03 v 378.91 h 9.02 v 76.44 h 9.02 v -867.64 h 9.02 v 107.89 h 9.03 v 951.63 h 9.02 v -428.32 h 9.02 V 1737.7 h 9.02 v -360.59 h 9.03 v 287.37 h 9.02 v -29.7 h 9.02 v 139.5 h 9.02 v -120.85 h 9.03 v 121.08 h 9.02 v 527.52 h 9.02 v -223.14 h 9.02 v -307.35 h 9.03 v -70.69 h 9.02 v 20.64 h 9.02 v -304.75 h 9.02 v 268.7 h 9.02 v 275.05 h 9.03 v 38.92 h 9.02 v -205.36 h 9.02 v -395.58 h 9.02 v -53.44 h 9.03 v 1029.92 h 9.02 v -395.6 h 9.02 v -880.26 h 9.02 v 479.98 h 9.03 v 566.71 h 9.02 v -386.94 h 9.02 v -169.66 h 9.02 v 158.54 h 9.04 v 390.78 h 9.02 v -412.1 h 9.02 v -150.84 h 9.02 v 171.51 h 9.03 v 393.49 h 9.02 v 73.92 h 9.02 V 1503.8 h 9.02 v 298.79 h 9.03 v -8.29 h 9.02 v -24.02 h 9.02 v -332.52 h 9.02 v -56.85 h 9.03 v 367.95 h 9.02 v 274.68 h 9.02 v -448.9 h 9.02 v 172.04 h 9.03 v 251.5 h 9.02 v 46.46 h 9.02 v -190.5 h 9.02 v -222.22 h 9.02 v 286.7 h 9.03 v 99.86 h 9.02 v -332.79 h 9.02 v 61.46 h 9.02 v 536.76 h 9.03 v -372.68 h 9.02 v -170.42 h 9.02 v -336.74 h 9.02 v -189.12 h 9.03 v 198.08 h 9.02 v 268.16 h 9.02 v 370.74 h 9.02 v 210.55 h 9.03 v -169.39 h 9.02 v -251.21 h 9.02 v 260.29 h 9.02 v 86.61 h 9.03 v -833.6 h 9.02 v 273.45 h 9.02 v 176.15 h 9.02 v 353.08 h 9.03 v 54.59 h 9.02 v -712.57 h 9.02 V 1319.3 h 9.02 v 223.19 h 9.03 v -39.38 h 9.02 v 151.4 h 9.02 v 515.08 h 9.02 v 106.75 h 9.03 v -375.63 h 9.02 v -287.43 h 9.02 v 608.28 h 9.02 v 22.77 h 9.03 V 1503.5 h 9.02 v -188.05 h 9.02 v 863.73 h 9.02 v -403.79 h 9.03 v -355.75 h 9.02 v 278.52 h 9.02 v 609.22 h 9.02 v -858.79 h 9.03 v 202.39 h 9.02 v 306.83 h 9.02 v -94.83 h 9.03 v -537.49 h 9.02 v 211.4 h 9.02 v 292.88 h 9.02 v 222 h 9.03 V 1754.7 h 9.02 v 49.57 h 9.02 v 44.25 h 9.02 v 11.74 h 9.03 V 1858 h 9.02 v -155.45 h 9.02 v 121.46 h 9.02 v 515.04 h 9.03 v -210.68 h 9.02 v 351.25 h 9.02 v -913.9 h 9.02 v -103.44 h 9.03 V 1240.5 h 9.02 v 326.59 h 9.02 v 291.19 h 9.02 v -105.01 h 9.03 v 246.34 h 9.02 v 218.85 h 9.02 v 173.29 h 9.02 v -7.97 h 9.03 v -892.75 h 9.02 v -219.29 h 9.02 v 720.35 h 9.02 V 1890.2 h 9.03 v -431.61 h 9.02 v 227.32 h 9.02 v 116.32 h 9.02 v 14.09 h 9.03 v -485.36 h 9.02 v 216.49 h 9.02 v 440.19 h 9.02 V 1928 h 9.03 v 82.02 h 9.02 v 167.66 h 9.02 v -145.64 h 9.02 v 89.07 h 9.03 v -314.98 h 9.02 v -583.74 h 9.02 v 724.39 h 9.02 v 95.24 h 9.03 v -226.07 h 9.02 v -575.41 h 9.02 v 712.87 h 9.02 V 1554.9 h 9.03 v 164.25 h 9.02 V 1329.1 h 9.02 v 543.84 h 9.02 v 186.35 h 9.03 v -643.63 h 9.02 v 601.89 h 9.02 v 63.36 h 9.02 v 432.44 h 9.02 v -597.56 h 9.03 v -223.81 h 9.02 v 0.55 h 9.02 v 38.88 h 9.02 v -308.69 h 9.03 v 426.08 h 9.02 v 144.75 h 9.02 v -182.91 h 9.02 v -77.14 h 9.03 v -3.79 h 9.02 v -634.36 h 9.02 v 212.25 h 9.02 v 170.49 h 9.04 v 363.3 h 9.02 v 193.96 h 9.02 V 1830.5 h 9.02 v 212.18 h 9.03 v -758.57 h 9.02 v -201.84 h 9.02 v 65.15 h 9.02 v 90.83 h 9.03 v 499.27 h 9.02 v -621.29 h 9.02 V 677.355 h 9.02 v 987.715 h 9.03 v 57.94 h 9.02 V 986.406 h 9.02 v 370.754 h 9.02 v 590.85 h 9.03 v -127.83 h 9.02 v -101.91 h 9.02 v 108.87 h 9.02 v 294.73 h 9.02 v -73.49 h 9.03 v -68.21 h 9.02 v -285.1 h 9.02 v 197.09 h 9.02 v -555.35 h 9.03 v 376.92 h 9.02 v 421.98 h 9.02 v -61.41 h 9.02 v -84.63 h 9.03 v -422.2 h 9.02 v -82.14 h 9.02 v 303.03 h 9.02 v 104.53 h 9.03 v -128.33 h 9.02 v 79.56 h 9.02 v 158.63 h 9.02 v -97.44 h 9.03 v -48.11 h 9.02 v 246.18 h 9.02 v -68.67 h 9.02 V 1469.5 h 9.03 v 255.59 h 9.02 v 141.53 h 9.02 v 20.77 h 9.02 v -14.91 h 9.03 v 368.48 h 9.02 v -178.02 h 9.02 v -490.65 h 9.02 v -97.4 h 9.03 v 307.86 h 9.02 v 109.37 h 9.02 v -3.01 h 9.02 v -144.19 h 9.03 v 593.7 h 9.02 v -489.03 h 9.02 v -320.02 h 9.02 v 481.79 h 9.03 v 37.71 h 9.02 v -557.1 h 9.02 v 240.94 h 9.02 v 258.53 h 9.03 v 172.81 h 9.02 v -515.32 h 9.02 v 357.03 h 9.03 v 12.01 h 9.02 v -425.74 h 9.02 v 24.69 h 9.02 v 194.7 h 9.03 v 443.08 h 9.02 v -569.42 h 9.02 V 1745 h 9.02 v 332.36 h 9.03 v -437.49 h 9.02 v -136.49 h 9.02 v 280.76 h 9.02 v 355.11 h 9.03 v -329.27 h 9.02 v -4.27 h 9.02 v 156.77 h 9.02 v 169.4 h 9.03 v -504.54 h 9.02 v -14 h 9.02 v 190.58 h 9.02 v 191.67 h 9.03 v 151.78 h 9.02 v -644.95 h 9.02 v 85.26 h 9.02 v 613.33 h 9.03 V 1711.3 h 9.02 v 316.92 h 9.02 v -10.81 h 9.02 v -43.12 h 9.03 v -669.51 h 9.02 v 626.18 h 9.02 v -144.17 h 9.02 v -90.54 h 9.03 v 244.45 h 9.02 v 200.09 h 9.02 v -249.43 h 9.02 V 1409.5 h 9.03 v 558.67 h 9.02 v -182.4 h 9.02 v -96.4 h 9.02 v 248.35 h 9.03 v 202.89 h 9.02 v -505 h 9.02 v 106.31 h 9.02 v 342.61 h 9.03 v -440.85 h 9.02 v -14.66 h 9.02 v 305.55 h 9.02 v 215.02 h 9.03 v -635.62 h 9.02 V 1844 h 9.02 v 283.93 h 9.02 v -481.97 h 9.03 v -23.39 h 9.02 v 564.85 h 9.02 v -114.19 h 9.02 v -626.15 h 9.02 v 118.86 h 9.03 v 501.15 h 9.02 v -6.79 h 9.02 v -73.05 h 9.02 v -557.64 h 9.03 v 396.94 h 9.02 v 171.41 h 9.02 v -383.93 h 9.02 v 16.33 h 9.03 v 437.44 h 9.02 v -18.28 h 9.02 v -453.5 h 9.02 v 270.97 h 9.04 v 120.8 h 9.02 v -129.22 h 9.02 v -437.69 h 9.02 v 558.17 h 9.03 v 65.93 h 9.02 v -435.72 h 9.02 v 137.08 h 9.02 v 344.76 h 9.03 v -188.96 h 9.02 V 1423 h 9.02 v 295.72 h 9.02 v 398.16 h 9.03 v -442.59 h 9.02 v 97.7 h 9.02 v 325.94 h 9.02 v -59.05 h 9.03 v -452.93 h 9.02 v 278.26 h 9.02 v 124.03 h 9.02 v -511.45 h 9.02 v 126.6 h 9.03 v 609.25 h 9.02 v -498.73 h 9.02 v 59.72 h 9.02 v 318.22 h 9.03 v 73.93 h 9.02 v -684.64 h 9.02 v 466.93 h 9.02 v -321.92 h 9.03 v 18.37 h 9.02 v 173.9 h 9.02 v 434.64 h 9.02 v -442.22 h 9.03 v -295.2 h 9.02 v 111.34 h 9.02 v 210.86 h 9.02 v 432.18 h 9.03 v -316.49 h 9.02 v -525.37 h 9.02 v 291.98 h 9.02 v 530.25 h 9.03 v -413.03 h 9.02 v -422.12 h 9.02 v 450.85 h 9.02 v 302 h 9.03 v -484.15 h 9.02 v -32.14 h 9.02 v 679.54 h 9.02 v -469.02 h 9.03 v -325.65 h 9.02 v 603.23 h 9.02 v -447.82 h 9.02 v 210.39 h 9.03 v 92.81 h 9.02 v -384.06 h 9.02 v -96.21 h 9.02 v 662.85 h 9.03 v -73.88 h 9.02 V 1488.4 h 9.02 v 358.52 h 9.02 v 293.27 h 9.03 v -602.47 h 9.02 v 200.44 h 9.02 v 374.09 h 9.03 v -431.83 h 9.02 v 103.35 h 9.02 v 324.75 h 9.02 v -63.23 h 9.03 v -259.03 h 9.02 v -501.83 h 9.02 v -88.55 h 9.02 v 189.9 h 9.03 v 87.41 h 9.02 v -341.67 h 9.02 v 176.86 h 9.02 v 342.05 h 9.03 v -373.4 h 9.02 V 654.367 h 9.02 v 910.613 h 9.02 v 546.54 h 9.03 v -169.47 h 9.02 v -442.83 h 9.02 v -282.35 h 9.02 v 918.7 h 9.03 v 73.91 h 9.02 v -305.96 h 9.02 v -318.18 h 9.02 v 64.24 h 9.03 v 375.4 h 9.02 v 91.75 h 9.02 V 1564.2 h 9.02 v 261.92 h 9.03 v 130.04 h 9.02 v -300.39 h 9.02 v -83.2 h 9.02 v -260.58 h 9.03 v 3.79 h 9.02 v 918.18 h 9.02 v -142.11 h 9.02 v -246 h 9.03 v 31.13 h 9.02 v 133.04 h 9.02 v 127.76 h 9.02 v 204.81 h 9.03 v -386.73 h 9.02 v 269.23 h 9.02 V 2006.5 h 9.02 v -405.58 h 9.03 v -70.58 h 9.02 v 253.98 h 9.02 v 89.39 h 9.02 v 98.22 h 9.03 v -497.22 h 9.02 v -107.66 h 9.02 v 735.22 h 9.02 v 14.69 h 9.03 v -187.78 h 9.02 v 228.42 h 9.02 v -138.12 h 9.02 v -374.01 h 9.02 v 226.17 h 9.03 v 2.87 h 9.02 v -217.96 h 9.02 v 52.93 h 9.02 v 445.91 h 9.03 V 1755.7 h 9.02 v 148.71 h 9.02 v 174.46 h 9.02 v -481.22 h 9.03 v -28.67 h 9.02 v 555.33 h 9.02 V 1873.3 h 9.02 v -321.62 h 9.04 v 540.09 h 9.02 v -123.69 h 9.02 v -93.28 h 9.02 v 381.22 h 9.03 v -214.48 h 9.02 v -721.51 h 9.02 v 664.68 h 9.02 v -47.89 h 9.03 v -379.27 h 9.02 v 514.57 h 9.02 v -136.21 h 9.02 v -294.48 h 9.03 v 242.79 h 9.02 v 97.83 h 9.02 V 1576.1 h 9.02 v 295.44 h 9.03 v 223.26 h 9.02 v -484.18 h 9.02 v 257.27 h 9.02 v 424.01 h 9.02 v -749.3 h 9.03 v 174.2 h 9.02 v 536.78 h 9.02 v -501.17 h 9.02 v 14.43 h 9.03 v 258.29 h 9.02 v -245.27 h 9.02 v -190.73 h 9.02 v 394.25 h 9.03 v -81.75 h 9.02 V 1432.7 h 9.02 v 607.94 h 9.02 v 107.11 h 9.03 v -957.87 h 9.02 v 565.36 h 9.02 V 2422 h 9.02 V 1417.49 h 9.03 v 277.15 h 9.02 v 580.66 h 9.02 v -381.56 h 9.02 V 1623.6 h 9.03 v 470.69 h 9.02 v -152.17 h 9.02 v -391.58 h 9.02 v 421.05 h 9.03 v 359.18 h 9.02 v -586.96 h 9.02 v 5.77 h 9.02 v 372.8 h 9.03 v -219.34 h 9.02 v -413.73 h 9.02 v 545.85 h 9.02 v -22.62 h 9.03 v -488.02 h 9.02 V 2134 h 9.02 v -8.44 h 9.02 V 1197 h 9.03 v 723.54 h 9.02 v 624.4 h 9.02 V 1408.78 h 9.02 v 74.05 h 9.03 v 1128.63 h 9.02 V 1554.97 h 9.02 v 156.81 h 9.03 V 1964 h 9.02 v -715.77 h 9.02 v 148.48 h 9.02 v 458.94 h 9.03 v 224.44 h 9.02 v -544.84 h 9.02 v 261.08 h 9.02 v 232.66 h 9.03 v -401.45 h 9.02 v -18.66 h 9.02 v 471.73 h 9.02 v -417.44 h 9.03 v -151.44 h 9.02 v 226.44 h 9.02 v 193.94 h 9.02 v -186.73 h 9.03 v 349.51 h 9.02 v -438.93 h 9.02 v 278.79 h 9.02 v 330.2 h 9.03 V 1532.6 h 9.02 v -214.41 h 9.02 v 579.5 h 9.02 v 80.97 h 9.03 v -476.61 h 9.02 v 402.93 h 9.02 v 45.29 h 9.02 v -462.5 h 9.03 v 309.19 h 9.02 v 133.2 h 9.02 v -629.11 h 9.02 v 471.93 h 9.03 v 839.04 h 9.02 V 1563.8 h 9.02 v 62.7 h 9.02 v 126.38 h 9.03 v -369.4 h 9.02 v 541.01 h 9.02 v 502.7 h 9.02 V 1400.73 h 9.03 v -392.21 h 9.02 v 663.33 h 9.02 v 453.74 h 9.02 v -158.42 h 9.03 v -410.55 h 9.02 v 314.04 h 9.02 v 435.43 h 9.02 v -240.88 h 9.03 v -133.88 h 9.02 v 79.24 h 9.02 v 245.53 h 9.02 v -183.42 h 9.03 v -761.23 h 9.02 v 171.86 h 9.02 v 368.21 h 9.02 v -440.81 h 9.02 v 186.24 h 9.03 v 524.17 h 9.02 v -417.85 h 9.02 v 43.66 h 9.02 v 51.56 h 9.03 v 16.11 h 9.02 v -1.52 h 9.02 v -3.48 h 9.02 v -1.33 h 9.03 v -0.01 h 9.02 v 0.22 h 9.02 v -206.37 h 9.02 v 268.77 h 9.04 v 92.87 h 9.02 v -515.41 h 9.02 v 665.27 h 9.02 v 934.32 h 9.03 v -362.04 h 9.02 v -658.22 h 9.02 v 497.06 h 9.02 v 315.92 h 9.03 v 21.8 h 9.02 v 57.31 h 9.02 v 109.69 h 9.02 v 274.32 h 9.03 v -664.41 h 9.02 v -389.62 h 9.02 v 95.48 h 9.02 v 374.36 h 9.03 v -245.16 h 9.02 v -469.19 h 9.02 v -121.47 h 9.02 v -150.45 h 9.02 V 1717 h 9.03 v 18.49 h 9.02 V 943.613 h 9.02 v 337.897 h 9.02 v 374.77 h 9.03 v 398.4 h 9.02 v -256.2 h 9.02 v 35.56 h 9.02 v 31.08 h 9.03 v 160.51 h 9.02 v 185.45 h 9.02 v -146.74 h 9.02 v -79.01 h 9.03 v 305.94 h 9.02 v -430.09 h 9.02 v -155.9 h 9.02 v 168.65 h 9.03 v -271.02 h 9.02 v 88.05 h 9.02 v 220.97 h 9.02 V 1296.4 h 9.03 v 172.42 h 9.02 v 134 h 9.02 v 201.21 h 9.02 v 38.4 h 9.03 v -17.11 h 9.02 v 144.43 h 9.02 v 355.63 h 9.02 v -445.87 h 9.03 V 1707.8 h 9.02 v -488.78 h 9.02 v 420.24 h 9.02 v 505.88 h 9.03 V 2061 h 9.02 v -270.59 h 9.02 v -77.82 h 9.02 v -476 h 9.03 v -61.84 h 9.02 v 401.14 h 9.02 v 145.39 h 9.02 v 160 h 9.03 v -429.04 h 9.02 v 340.95 h 9.02 v 440.86 h 9.03 v 538.41 h 9.02 v -743.75 h 9.02 v -285.14 h 9.02 v -2.35 h 9.03 v 48.14 h 9.02 v 22.47 h 9.02 v 483.85 h 9.02 v -60.27 h 9.03 v -764.46 h 9.02 v -182.8 h 9.02 v 233.08 h 9.02 v 596.09 h 9.03 v -361.54 h 9.02 v -163.1 h 9.02 v 316.09 h 9.02 v 102.39 h 9.03 v 146.79 h 9.02 v -331.32 h 9.02 v -278.25 h 9.02 v 300.8 h 9.03 v -52.87 h 9.02 v -208.54 h 9.02 v -518.48 h 9.02 v 263.65 h 9.03 v 25.11 h 9.02 v 929.81 h 9.02 v -388.99 h 9.02 v 402.91 h 9.03 v -203.41 h 9.02 v 47.52 h 9.02 v -153.68 h 9.02 v -57.73 h 9.03 v -175.66 h 9.02 v -38.89 h 9.02 v 12.51 h 9.02 v 178.32 h 9.03 v -129.78 h 9.02 v -224.1 h 9.02 v -358 h 9.02 v 780.14 h 9.03 v -405.19 h 9.02 v -9.33 h 9.02 v 203.84 h 9.02 v 710.29 h 9.03 v -524.81 h 9.02 v -238.4 h 9.02 v 147.17 h 9.02 v -266.63 h 9.03 v 259.65 h 9.02 v -76.35 h 9.02 v -47.78 h 9.02 v -8.72 h 9.03 v 4.25 h 9.02 v 3.45 h 9.02 v -165.02 h 9.02 v -193.31 h 9.02 v 0.28 h 9.03 v 693.23 h 9.02 v 179.16 h 9.02 V 1370 h 9.02 v 245.79 h 9.03 V 1946 h 9.02 v 232.63 h 9.03 v -331.27 h 9.01 v 36.91 h 9.04 v -301.14 h 9.02 v 262.85 h 9.01 v -234.79 h 9.02 v 88.38 h 9.03 v 49.02 h 9.03 v -479.82 h 9.02 v 709.2 h 9.02 V 1561.3 h 9.03 v -2.37 h 9.01 v 367.93 h 9.03 v 98.43 h 9.02 v -28.08 h 9.03 v -39.62 h 9.02 v -515.46 h 9.02 v 540.61 h 9.02 v 27.65 h 9.03 v -226.93 h 9.02 v -242.64 h 9.02 v 137.29 h 9.02 v 72.78 h 9.03 v 175.54 h 9.02 v -307.32 h 9.02 v 70.21 h 9.02 v -433.83 h 9.02 v 244.77 h 9.03 v 613.1 h 9.02 v -514.69 h 9.02 v 282.14 h 9.02 v 278.84 h 9.03 v -297.76 h 9.02 v 41.83 h 9.03 v 29.36 h 9.01 v -337.31 h 9.03 v 81.71 h 9.02 V 1907 h 9.02 v -284.14 h 9.02 v 71.54 h 9.03 v 49.79 h 9.02 v 176.35 h 9.02 v -629.38 h 9.02 v 14.88 h 9.03 v 423.62 h 9.02 v 129.91 h 9.02 v -170.8 h 9.02 v 254.98 h 9.03 v 76.44 h 9.02 v 143.79 h 9.02 V 2003.9 h 9.03 v -242.92 h 9.02 v -52.03 h 9.02 v 18.07 h 9.02 v 17.27 h 9.02 v 4.79 h 9.03 v -0.78 h 9.02 v -1.18 h 9.02 v -646.34 h 9.02 v 519.15 h 9.03 v 224.77 h 9.02 v 13.43 h 9.02 v -32.64 h 9.02 v -17.27 h 9.03 v 156.62 h 9.02 v -284.68 h 9.02 v 555.56 h 9.03 V 1900.7 h 9.02 v 7.68 h 9.02 v -145.74 h 9.02 v -200.52 h 9.03 v 140.32 h 9.02 v -255.71 h 9.02 v 266.16"
         style="fill:none;stroke:#0072bd;stroke-width:15;stroke-linecap:butt;stroke-linejoin:miter;stroke-miterlimit:10;stroke-dasharray:none;stroke-opacity:1"
         id="path4133"
         inkscape:connector-curvature="0" /><path
         d="M 1492.5,3015 H 1980 v 300 h -487.5 z"
         style="fill:#ffffff;fill-opacity:1;fill-rule:nonzero;stroke:none"
         id="path4135"
         inkscape:connector-curvature="0" /><path
         d="m 1890.57,3109.74 c -6.87,0 -12.93,1.82 -18.16,5.45 -5.24,3.63 -9.2,8.49 -11.9,14.59 -2.69,6.1 -4.04,12.54 -4.04,19.33 0,10.39 2.6,20.14 7.79,29.24 5.2,9.11 12.25,16.37 21.16,21.8 8.9,5.43 18.47,8.15 28.71,8.15 6.17,0 11.58,-1.6 16.23,-4.81 4.65,-3.2 6.98,-7.81 6.98,-13.83 0,-8.36 -3.33,-14.57 -9.97,-18.63 -6.64,-4.07 -14.14,-6.58 -22.5,-7.56 -8.36,-0.97 -17.62,-1.46 -27.78,-1.46 h -0.58 c -2.35,-8.68 -3.52,-16.06 -3.52,-22.15 0,-6.48 1.49,-12.17 4.46,-17.06 2.97,-4.87 7.5,-7.32 13.59,-7.32 8.67,0 16.98,2 24.91,5.98 7.93,3.98 14.43,9.45 19.51,16.4 0.39,0.48 0.93,0.71 1.63,0.71 0.71,0 1.43,-0.41 2.17,-1.23 0.75,-0.82 1.12,-1.58 1.12,-2.29 0,-0.54 -0.12,-0.97 -0.35,-1.29 -5.32,-7.42 -12.46,-13.28 -21.44,-17.58 -8.99,-4.29 -18.33,-6.44 -28.02,-6.44 z m -12.77,57.89 c 8.44,0 16.23,0.39 23.38,1.17 7.15,0.78 13.61,2.75 19.39,5.92 5.78,3.17 8.67,8.07 8.67,14.71 0,2.65 -0.74,5 -2.22,7.03 -1.48,2.03 -3.42,3.58 -5.8,4.63 -2.38,1.05 -4.82,1.58 -7.32,1.58 -6.18,0 -11.72,-1.66 -16.65,-4.98 -4.92,-3.32 -8.98,-7.66 -12.18,-13.01 -3.21,-5.35 -5.63,-11.03 -7.27,-17.05"
         style="fill:#000000;fill-opacity:1;fill-rule:nonzero;stroke:none"
         id="path4137"
         inkscape:connector-curvature="0" /><path
         d="m 1522.66,3165 h 301.58"
         style="fill:none;stroke:#0072bd;stroke-width:15;stroke-linecap:butt;stroke-linejoin:round;stroke-miterlimit:10;stroke-dasharray:none;stroke-opacity:1"
         id="path4139"
         inkscape:connector-curvature="0" /><path
         d="M 1492.5,3015 H 1980 v 300 h -487.5 z"
         style="fill:none;stroke:#262626;stroke-width:5.00250006;stroke-linecap:butt;stroke-linejoin:miter;stroke-miterlimit:10;stroke-dasharray:none;stroke-opacity:1"
         id="path4141"
         inkscape:connector-curvature="0" /></g></g></svg>