<?xml version="1.0" encoding="UTF-8" standalone="no"?>
<!-- Created with Inkscape (http://www.inkscape.org/) -->

<svg
   xmlns:dc="http://purl.org/dc/elements/1.1/"
   xmlns:cc="http://creativecommons.org/ns#"
   xmlns:rdf="http://www.w3.org/1999/02/22-rdf-syntax-ns#"
   xmlns:svg="http://www.w3.org/2000/svg"
   xmlns="http://www.w3.org/2000/svg"
   xmlns:sodipodi="http://sodipodi.sourceforge.net/DTD/sodipodi-0.dtd"
   xmlns:inkscape="http://www.inkscape.org/namespaces/inkscape"
   version="1.1"
   id="svg4271"
   xml:space="preserve"
   width="1200"
   height="500"
   viewBox="0 0 1200 500"
   sodipodi:docname="errosub1.svg"
   inkscape:version="0.92.3 (2405546, 2018-03-11)"><metadata
     id="metadata4277"><rdf:RDF><cc:Work
         rdf:about=""><dc:format>image/svg+xml</dc:format><dc:type
           rdf:resource="http://purl.org/dc/dcmitype/StillImage" /><dc:title></dc:title></cc:Work></rdf:RDF></metadata><defs
     id="defs4275" /><sodipodi:namedview
     pagecolor="#ffffff"
     bordercolor="#666666"
     borderopacity="1"
     objecttolerance="10"
     gridtolerance="10"
     guidetolerance="10"
     inkscape:pageopacity="0"
     inkscape:pageshadow="2"
     inkscape:window-width="640"
     inkscape:window-height="480"
     id="namedview4273"
     showgrid="false"
     inkscape:zoom="0.28333333"
     inkscape:cx="600"
     inkscape:cy="250"
     inkscape:window-x="0"
     inkscape:window-y="0"
     inkscape:window-maximized="0"
     inkscape:current-layer="g4279" /><g
     id="g4279"
     inkscape:groupmode="layer"
     inkscape:label="ink_ext_XXXXXX"
     transform="matrix(1.3333333,0,0,-1.3333333,0,500)"><g
       id="g4281"
       transform="scale(0.1)"><path
         d="M 0,0 H 9000 V 3750 H 0 Z"
         style="fill:#ffffff;fill-opacity:1;fill-rule:nonzero;stroke:none"
         id="path4283"
         inkscape:connector-curvature="0" /><path
         d="M 0,0 H 9000 V 3750 H 0 Z"
         style="fill:#ffffff;fill-opacity:1;fill-rule:nonzero;stroke:none"
         id="path4285"
         inkscape:connector-curvature="0" /><path
         d="M 1395,600 H 8595 V 3412.5 H 1395 Z"
         style="fill:#ffffff;fill-opacity:1;fill-rule:nonzero;stroke:none"
         id="path4287"
         inkscape:connector-curvature="0" /><path
         d="M 1395,600 H 8595"
         style="fill:none;stroke:#262626;stroke-width:5.00250006;stroke-linecap:square;stroke-linejoin:round;stroke-miterlimit:10;stroke-dasharray:none;stroke-opacity:1"
         id="path4289"
         inkscape:connector-curvature="0" /><path
         d="M 1395,3412.5 H 8595"
         style="fill:none;stroke:#262626;stroke-width:5.00250006;stroke-linecap:square;stroke-linejoin:round;stroke-miterlimit:10;stroke-dasharray:none;stroke-opacity:1"
         id="path4291"
         inkscape:connector-curvature="0" /><path
         d="m 1395,600 v 72"
         style="fill:none;stroke:#262626;stroke-width:5.00250006;stroke-linecap:square;stroke-linejoin:round;stroke-miterlimit:10;stroke-dasharray:none;stroke-opacity:1"
         id="path4293"
         inkscape:connector-curvature="0" /><path
         d="m 2297.26,600 v 72"
         style="fill:none;stroke:#262626;stroke-width:5.00250006;stroke-linecap:square;stroke-linejoin:round;stroke-miterlimit:10;stroke-dasharray:none;stroke-opacity:1"
         id="path4295"
         inkscape:connector-curvature="0" /><path
         d="m 3199.52,600 v 72"
         style="fill:none;stroke:#262626;stroke-width:5.00250006;stroke-linecap:square;stroke-linejoin:round;stroke-miterlimit:10;stroke-dasharray:none;stroke-opacity:1"
         id="path4297"
         inkscape:connector-curvature="0" /><path
         d="m 4101.77,600 v 72"
         style="fill:none;stroke:#262626;stroke-width:5.00250006;stroke-linecap:square;stroke-linejoin:round;stroke-miterlimit:10;stroke-dasharray:none;stroke-opacity:1"
         id="path4299"
         inkscape:connector-curvature="0" /><path
         d="m 5004.02,600 v 72"
         style="fill:none;stroke:#262626;stroke-width:5.00250006;stroke-linecap:square;stroke-linejoin:round;stroke-miterlimit:10;stroke-dasharray:none;stroke-opacity:1"
         id="path4301"
         inkscape:connector-curvature="0" /><path
         d="m 5906.28,600 v 72"
         style="fill:none;stroke:#262626;stroke-width:5.00250006;stroke-linecap:square;stroke-linejoin:round;stroke-miterlimit:10;stroke-dasharray:none;stroke-opacity:1"
         id="path4303"
         inkscape:connector-curvature="0" /><path
         d="m 6808.54,600 v 72"
         style="fill:none;stroke:#262626;stroke-width:5.00250006;stroke-linecap:square;stroke-linejoin:round;stroke-miterlimit:10;stroke-dasharray:none;stroke-opacity:1"
         id="path4305"
         inkscape:connector-curvature="0" /><path
         d="m 7710.79,600 v 72"
         style="fill:none;stroke:#262626;stroke-width:5.00250006;stroke-linecap:square;stroke-linejoin:round;stroke-miterlimit:10;stroke-dasharray:none;stroke-opacity:1"
         id="path4307"
         inkscape:connector-curvature="0" /><path
         d="m 1395,3412.5 v -72"
         style="fill:none;stroke:#262626;stroke-width:5.00250006;stroke-linecap:square;stroke-linejoin:round;stroke-miterlimit:10;stroke-dasharray:none;stroke-opacity:1"
         id="path4309"
         inkscape:connector-curvature="0" /><path
         d="m 2297.26,3412.5 v -72"
         style="fill:none;stroke:#262626;stroke-width:5.00250006;stroke-linecap:square;stroke-linejoin:round;stroke-miterlimit:10;stroke-dasharray:none;stroke-opacity:1"
         id="path4311"
         inkscape:connector-curvature="0" /><path
         d="m 3199.52,3412.5 v -72"
         style="fill:none;stroke:#262626;stroke-width:5.00250006;stroke-linecap:square;stroke-linejoin:round;stroke-miterlimit:10;stroke-dasharray:none;stroke-opacity:1"
         id="path4313"
         inkscape:connector-curvature="0" /><path
         d="m 4101.77,3412.5 v -72"
         style="fill:none;stroke:#262626;stroke-width:5.00250006;stroke-linecap:square;stroke-linejoin:round;stroke-miterlimit:10;stroke-dasharray:none;stroke-opacity:1"
         id="path4315"
         inkscape:connector-curvature="0" /><path
         d="m 5004.02,3412.5 v -72"
         style="fill:none;stroke:#262626;stroke-width:5.00250006;stroke-linecap:square;stroke-linejoin:round;stroke-miterlimit:10;stroke-dasharray:none;stroke-opacity:1"
         id="path4317"
         inkscape:connector-curvature="0" /><path
         d="m 5906.28,3412.5 v -72"
         style="fill:none;stroke:#262626;stroke-width:5.00250006;stroke-linecap:square;stroke-linejoin:round;stroke-miterlimit:10;stroke-dasharray:none;stroke-opacity:1"
         id="path4319"
         inkscape:connector-curvature="0" /><path
         d="m 6808.54,3412.5 v -72"
         style="fill:none;stroke:#262626;stroke-width:5.00250006;stroke-linecap:square;stroke-linejoin:round;stroke-miterlimit:10;stroke-dasharray:none;stroke-opacity:1"
         id="path4321"
         inkscape:connector-curvature="0" /><path
         d="m 7710.79,3412.5 v -72"
         style="fill:none;stroke:#262626;stroke-width:5.00250006;stroke-linecap:square;stroke-linejoin:round;stroke-miterlimit:10;stroke-dasharray:none;stroke-opacity:1"
         id="path4323"
         inkscape:connector-curvature="0" /><g
         id="g4325"
         transform="scale(10)"><text
           transform="matrix(1,0,0,-1,133.5,33)"
           style="font-variant:normal;font-weight:normal;font-size:20.00020027px;font-family:Helvetica;-inkscape-font-specification:Helvetica;writing-mode:lr-tb;fill:#262626;fill-opacity:1;fill-rule:nonzero;stroke:none"
           id="text4329"><tspan
             x="0 90.225105 174.82574 185.94586 265.05084 276.17096 355.27637 366.39645 445.50146 456.62155 535.72693 546.84705 625.95209 637.07214"
             y="0"
             sodipodi:role="line"
             id="tspan4327">05101520253035</tspan></text>
<text
           transform="matrix(1,0,0,-1,449.625,5)"
           style="font-variant:normal;font-weight:normal;font-size:21.99970055px;font-family:Helvetica;-inkscape-font-specification:Helvetica;writing-mode:lr-tb;fill:#262626;fill-opacity:1;fill-rule:nonzero;stroke:none"
           id="text4333"><tspan
             x="0 13.441816 25.673651 43.999401 56.231232 68.463066 74.578979 81.904884 92.904732"
             y="0"
             sodipodi:role="line"
             id="tspan4331">Tempo (s)</tspan></text>
</g><path
         d="M 1395,600 V 3412.5"
         style="fill:none;stroke:#262626;stroke-width:5.00250006;stroke-linecap:square;stroke-linejoin:round;stroke-miterlimit:10;stroke-dasharray:none;stroke-opacity:1"
         id="path4335"
         inkscape:connector-curvature="0" /><path
         d="M 8595,600 V 3412.5"
         style="fill:none;stroke:#262626;stroke-width:5.00250006;stroke-linecap:square;stroke-linejoin:round;stroke-miterlimit:10;stroke-dasharray:none;stroke-opacity:1"
         id="path4337"
         inkscape:connector-curvature="0" /><path
         d="m 1395,660.84 h 72"
         style="fill:none;stroke:#262626;stroke-width:5.00250006;stroke-linecap:square;stroke-linejoin:round;stroke-miterlimit:10;stroke-dasharray:none;stroke-opacity:1"
         id="path4339"
         inkscape:connector-curvature="0" /><path
         d="m 1395,1219.19 h 72"
         style="fill:none;stroke:#262626;stroke-width:5.00250006;stroke-linecap:square;stroke-linejoin:round;stroke-miterlimit:10;stroke-dasharray:none;stroke-opacity:1"
         id="path4341"
         inkscape:connector-curvature="0" /><path
         d="m 1395,1777.55 h 72"
         style="fill:none;stroke:#262626;stroke-width:5.00250006;stroke-linecap:square;stroke-linejoin:round;stroke-miterlimit:10;stroke-dasharray:none;stroke-opacity:1"
         id="path4343"
         inkscape:connector-curvature="0" /><path
         d="m 1395,2335.9 h 72"
         style="fill:none;stroke:#262626;stroke-width:5.00250006;stroke-linecap:square;stroke-linejoin:round;stroke-miterlimit:10;stroke-dasharray:none;stroke-opacity:1"
         id="path4345"
         inkscape:connector-curvature="0" /><path
         d="m 1395,2894.25 h 72"
         style="fill:none;stroke:#262626;stroke-width:5.00250006;stroke-linecap:square;stroke-linejoin:round;stroke-miterlimit:10;stroke-dasharray:none;stroke-opacity:1"
         id="path4347"
         inkscape:connector-curvature="0" /><path
         d="m 8595,660.84 h -72"
         style="fill:none;stroke:#262626;stroke-width:5.00250006;stroke-linecap:square;stroke-linejoin:round;stroke-miterlimit:10;stroke-dasharray:none;stroke-opacity:1"
         id="path4349"
         inkscape:connector-curvature="0" /><path
         d="m 8595,1219.19 h -72"
         style="fill:none;stroke:#262626;stroke-width:5.00250006;stroke-linecap:square;stroke-linejoin:round;stroke-miterlimit:10;stroke-dasharray:none;stroke-opacity:1"
         id="path4351"
         inkscape:connector-curvature="0" /><path
         d="m 8595,1777.55 h -72"
         style="fill:none;stroke:#262626;stroke-width:5.00250006;stroke-linecap:square;stroke-linejoin:round;stroke-miterlimit:10;stroke-dasharray:none;stroke-opacity:1"
         id="path4353"
         inkscape:connector-curvature="0" /><path
         d="m 8595,2335.9 h -72"
         style="fill:none;stroke:#262626;stroke-width:5.00250006;stroke-linecap:square;stroke-linejoin:round;stroke-miterlimit:10;stroke-dasharray:none;stroke-opacity:1"
         id="path4355"
         inkscape:connector-curvature="0" /><path
         d="m 8595,2894.25 h -72"
         style="fill:none;stroke:#262626;stroke-width:5.00250006;stroke-linecap:square;stroke-linejoin:round;stroke-miterlimit:10;stroke-dasharray:none;stroke-opacity:1"
         id="path4357"
         inkscape:connector-curvature="0" /><g
         id="g4359"
         transform="scale(10)"><text
           transform="matrix(1,0,0,-1,114.75,57.834)"
           style="font-variant:normal;font-weight:normal;font-size:20.00020027px;font-family:Helvetica;-inkscape-font-specification:Helvetica;writing-mode:lr-tb;fill:#262626;fill-opacity:1;fill-rule:nonzero;stroke:none"
           id="text4371"><tspan
             x="0 6.6600666"
             y="0"
             sodipodi:role="line"
             id="tspan4361">-2</tspan><tspan
             x="0 6.6600666"
             y="-55.835201"
             sodipodi:role="line"
             id="tspan4363">-1</tspan><tspan
             x="6.75"
             y="-111.6707"
             id="tspan4365">0</tspan><tspan
             x="6.75"
             y="-167.50591"
             id="tspan4367">1</tspan><tspan
             x="6.75"
             y="-223.3414"
             id="tspan4369">2</tspan></text>
<text
           transform="matrix(0,1,1,0,106.5,155.25)"
           style="font-variant:normal;font-weight:normal;font-size:21.99970055px;font-family:Helvetica;-inkscape-font-specification:Helvetica;writing-mode:lr-tb;fill:#262626;fill-opacity:1;fill-rule:nonzero;stroke:none"
           id="text4375"><tspan
             x="0 14.6738 21.999701 29.3256 41.557434 47.673351 54.999249 65.9991 84.324852"
             y="0"
             sodipodi:role="line"
             id="tspan4373">Erro (cm)</tspan></text>
</g><g
         id="g4377"
         transform="scale(10)"><text
           transform="matrix(1,0,0,-1,312.75,350.625)"
           style="font-variant:normal;font-weight:bold;font-size:21.99970055px;font-family:Helvetica;-inkscape-font-specification:Helvetica-Bold;writing-mode:lr-tb;fill:#000000;fill-opacity:1;fill-rule:nonzero;stroke:none"
           id="text4381"><tspan
             x="0 14.6738 23.231684 31.789566 45.231384 51.347301 64.789116 78.230934 84.346848 99.020653 111.25248 118.57838 124.6943 144.25203 156.48387 169.92569 183.36749 191.92538 198.04131 211.48311 223.71495 229.83087 242.0627 254.29453 261.62042 273.85226 287.29407 300.7359 312.96774 319.08365 333.75745 349.64124 365.52502"
             y="0"
             sodipodi:role="line"
             id="tspan4379">Erro do Estimador de estados SUB1</tspan></text>
</g><path
         d="m 1395,1600.43 h 9.02 v 202.99 h 9.03 v 25.72 h 9.02 v -60.06 h 9.02 v -2.87 h 9.02 v 16.14 h 9.03 v -0.42 h 9.02 v -4.27 h 9.02 v 0.43 h 9.02 v 1.11 h 9.03 v -200.46 h 9.02 v 429.5 h 9.02 v -200.36 h 9.02 v -96.93 h 9.03 v 64.64 h 9.02 v -178.77 h 9.02 v 411.05 h 9.02 v -405.03 h 9.03 v 338.08 h 9.02 v -335.26 h 9.02 v -241.73 h 9.02 v 921.09 h 9.03 v -244.73 h 9.02 v -1031.7 h 9.02 v 990.3 h 9.02 v 173.39 h 9.03 v -294.72 h 9.02 v -429.09 h 9.02 v 537.3 h 9.02 v -142.18 h 9.03 v -723.87 h 9.02 v 1127.26 h 9.02 v -334.47 h 9.02 V 1439.5 h 9.03 v 542.3 h 9.02 v 67.25 h 9.02 v -361.32 h 9.02 v -180.09 h 9.03 v 329.29 h 9.02 v 217.21 h 9.02 v -523.29 h 9.02 v 202.29 h 9.03 v 121.68 h 9.02 v 133.29 h 9.02 v -457.67 h 9.02 v 220.24 h 9.03 v 102.96 h 9.02 v -464.65 h 9.02 v 823.49 h 9.02 V 1838.2 h 9.03 v -384.62 h 9.02 v 348.72 h 9.02 v 268.5 h 9.02 v -129.37 h 9.02 v -67.58 h 9.03 v 245.54 h 9.02 v -839.91 h 9.02 v 1078.2 h 9.02 V 1211.49 h 9.03 v 274.39 h 9.02 v 292.59 h 9.02 v 299.98 h 9.02 V 1750.3 h 9.03 v -254 h 9.02 v 324.92 h 9.02 v 36.83 h 9.02 v -93.82 h 9.04 v 196.86 h 9.02 v -204.36 h 9.02 v -30.02 h 9.02 v 468.24 h 9.03 v -46.7 h 9.02 v -552.1 h 9.02 v 77.78 h 9.02 v -468.32 h 9.03 v 477.79 h 9.02 v 83.71 h 9.02 v 666.73 h 9.02 v -320.46 h 9.03 v -582.89 h 9.02 v 157.05 h 9.02 v 154.78 h 9.02 v -672.25 h 9.03 v 471.25 h 9.02 v 138.32 h 9.02 v 257.53 h 9.02 v -284.15 h 9.02 v -45.69 h 9.03 v 83.13 h 9.02 v 6.49 h 9.02 v -22.54 h 9.02 v -0.07 h 9.03 v 6 h 9.02 v -0.43 h 9.02 v 200.83 h 9.02 v -434.11 h 9.03 v 405.34 h 9.02 v 70.55 h 9.02 v -533.85 h 9.02 v 251.67 h 9.03 v -81.09 h 9.02 v 151.84 h 9.02 v 2.56 h 9.02 v 568.28 h 9.03 v -492.2 h 9.02 V 952.68 h 9.02 v 1507.49 h 9.02 v -752.02 h 9.03 v -112.87 h 9.02 v 422.8 h 9.02 v -17.48 h 9.02 v -957.48 h 9.03 v 353.15 h 9.02 v 647.82 h 9.02 v 31.77 h 9.02 v -605.23 h 9.03 v 259.33 h 9.02 v 341.61 h 9.02 v -517.81 h 9.02 v 171.19 h 9.03 v 122.48 h 9.02 v 143.59 h 9.02 v -260.66 h 9.02 v -214.09 h 9.03 v 509.31 h 9.02 v -204.45 h 9.02 v -320.17 h 9.02 v 299.26 h 9.03 v 258.62 h 9.02 v -522.79 h 9.02 v 807.28 h 9.03 v -992.48 h 9.02 v 728.82 h 9.02 v -22.75 h 9.02 v -409.55 h 9.03 v -363.1 h 9.02 v 1003.09 h 9.02 v -853.31 h 9.02 v 42.66 h 9.03 v 234.45 h 9.02 v 172.15 h 9.02 v -88.15 h 9.02 v -44.72 h 9.03 v 26.18 h 9.02 v 9.93 h 9.02 v 194.7 h 9.02 v -234.04 h 9.03 v -229.58 h 9.02 v 300.98 h 9.02 v 32.06 h 9.02 v 319.81 h 9.03 v -262.29 h 9.02 v -479.47 h 9.02 v 759.64 h 9.02 V 1812.5 h 9.03 v -163.51 h 9.02 v 121.33 h 9.02 v 35.56 h 9.02 v -655.06 h 9.03 v 703.98 h 9.02 v -102.54 h 9.02 V 1775 h 9.02 v 630.36 h 9.03 v -295.31 h 9.02 V 908.273 h 9.02 v 462.197 h 9.02 v 1117.68 h 9.03 V 1411.17 h 9.02 v 21.88 h 9.02 v 693.47 h 9.02 v -287.57 h 9.03 v -161.63 h 9.02 v 92.48 h 9.02 v 36.64 h 9.02 v -27.22 h 9.03 v -7.76 h 9.02 v 7.81 h 9.02 v 1.49 h 9.02 v -2.19 h 9.03 v 406.72 h 9.02 v -872.75 h 9.02 v 407.31 h 9.02 v 196.95 h 9.03 v -131.4 h 9.02 v -43.65 h 9.02 v 38.06 h 9.02 v -191.45 h 9.02 v 218.75 h 9.03 v 227.79 h 9.02 v -294.45 h 9.02 v -232.4 h 9.02 v 515.13 h 9.03 v -397.9 h 9.02 v 109.65 h 9.02 v 94.7 h 9.02 v -40.41 h 9.03 v -22.66 h 9.02 v -381.92 h 9.02 v 851.28 h 9.02 v -398.28 h 9.04 v -136.98 h 9.02 v -360.58 h 9.02 v 682.84 h 9.02 v 19.28 h 9.03 v -792.03 h 9.02 v 292.78 h 9.02 v 5.78 h 9.02 v -58.66 h 9.03 v 200.57 h 9.02 v 175.35 h 9.02 v -625.03 h 9.02 v 49.2 h 9.03 v 534.77 h 9.02 v -406.12 h 9.02 v -81.34 h 9.02 v 297.32 h 9.03 v 632.97 h 9.02 v -1128.1 h 9.02 v 597.84 h 9.02 v 395.99 h 9.02 v -526.51 h 9.03 v 739.78 h 9.02 v -917.22 h 9.02 V 888.621 h 9.02 V 2467.02 h 9.03 v -186.25 h 9.02 v -745.32 h 9.02 V 1190.9 h 9.02 v 1046.54 h 9.03 v 142.63 h 9.02 v -474.94 h 9.02 v -329.4 h 9.02 v 507.02 h 9.03 v 41.67 h 9.02 v -994.74 h 9.02 v 459.72 h 9.02 v 398.69 h 9.03 v -3.13 h 9.02 v -453.95 h 9.02 v 217.22 h 9.02 v 102.62 h 9.03 v 96.71 h 9.02 v -377.83 h 9.02 v 351.1 h 9.02 v -270.49 h 9.03 v 106.57 h 9.02 v 61.61 h 9.02 v -36.41 h 9.02 v 151.44 h 9.03 V 1589 h 9.02 v 168.63 h 9.02 v 242.64 h 9.02 v -243.72 h 9.03 v -40.96 h 9.02 v 71.7 h 9.02 v 6.04 h 9.02 v -184.99 h 9.03 v 189.52 h 9.02 v 194.75 h 9.02 v -411.68 h 9.02 v 327.14 h 9.03 v -259.78 h 9.02 v 277.69 h 9.02 v -131.36 h 9.03 v -61.7 h 9.02 v 43.01 h 9.02 v 13.62 h 9.02 v -177.92 h 9.03 v 186.99 h 9.02 v 27.53 h 9.02 v -219.58 h 9.02 v 348.14 h 9.03 v -149.03 h 9.02 v -243.45 h 9.02 v 400.74 h 9.02 v -146.14 h 9.03 v 71.83 h 9.02 v -140.48 h 9.02 v -494.19 h 9.02 v 444.3 h 9.03 v 740.93 h 9.02 V 1239.48 h 9.02 v 267.03 h 9.02 v 622.94 h 9.03 v -463.2 h 9.02 v 40.23 h 9.02 v 277 h 9.02 v -205.37 h 9.03 v 270.12 h 9.02 v -144.29 h 9.02 v -59.35 h 9.02 v -450.57 h 9.03 v 89.74 h 9.02 v 292.96 h 9.02 v 588.95 h 9.02 v -489.11 h 9.03 V 1593 h 9.02 v 333.37 h 9.02 v -121.58 h 9.02 v -238.68 h 9.03 v 231.35 h 9.02 v 373.46 h 9.02 v -449.6 h 9.02 v -221.66 h 9.03 v 322.91 h 9.02 v 536.14 h 9.02 v -672.07 h 9.02 V 1105.3 h 9.03 v 1112.13 h 9.02 v -640.32 h 9.02 v 447.69 h 9.02 v -564.19 h 9.03 v 122.09 h 9.02 v 313.55 h 9.02 v -68.74 h 9.02 v 418.32 h 9.03 v -550.67 h 9.02 v -388.34 h 9.02 v 381.52 h 9.02 v 574.38 h 9.02 v -345.58 h 9.03 v -636.75 h 9.02 v 512.41 h 9.02 v 291.32 h 9.02 v -5.26 h 9.03 v -941.69 h 9.02 v 796.86 h 9.02 v -164.45 h 9.02 v -191.13 h 9.03 v 231.99 h 9.02 v 24.08 h 9.02 v 264.87 h 9.02 v -550.18 h 9.04 v 161.31 h 9.02 v 472.05 h 9.02 v -776.7 h 9.02 v 138.1 h 9.03 v 535.12 h 9.02 v -266.73 h 9.02 V 1525.5 h 9.02 v 272.97 h 9.03 v 50.57 h 9.02 v -80.18 h 9.02 v -7.98 h 9.02 v 21.87 h 9.03 v 333.14 h 9.02 v -719.68 h 9.02 v 333.18 h 9.02 v -1.28 h 9.03 v 80.28 h 9.02 v 151.62 h 9.02 v -212.27 h 9.02 v 313.47 h 9.02 v -652.12 h 9.03 v 333.87 h 9.02 v 144.65 h 9.02 v 226.16 h 9.02 v -243.89 h 9.03 v -40.75 h 9.02 v -271.24 h 9.02 v -276.77 h 9.02 v 628.5 h 9.03 v 5.56 h 9.02 v -343.72 h 9.02 v 362.23 h 9.02 v -117.12 h 9.03 v -85.61 h 9.02 v 373.51 h 9.02 v -192.36 h 9.02 V 1156.8 h 9.03 v 658.4 h 9.02 v 139.02 h 9.02 v -196.68 h 9.02 v 141.79 h 9.03 v 200.04 h 9.02 v -742.34 h 9.02 v 212.18 h 9.02 v 355.46 h 9.03 v -95.65 h 9.02 v 73.33 h 9.02 v -323.5 h 9.02 v 187.81 h 9.03 v 70.11 h 9.02 v 274.02 h 9.02 v -56.83 h 9.02 v -926.49 h 9.03 v 646.37 h 9.02 v 356.37 h 9.02 v -555.45 h 9.02 v -35.35 h 9.03 v 658.2 h 9.02 v -572.38 h 9.02 v -598.59 h 9.02 v 1384.72 h 9.03 v -492.05 h 9.02 v -656.39 h 9.02 v 378.07 h 9.03 v 469.32 h 9.02 v 5.28 h 9.02 v -473.95 h 9.02 v -383.41 h 9.03 v 594.2 h 9.02 v -117.94 h 9.02 v 169.45 h 9.02 v -159.03 h 9.03 v -505.04 h 9.02 v 435.82 h 9.02 v 251.56 h 9.02 v -151.21 h 9.03 V 1259 h 9.02 V 808.313 h 9.02 v 556.367 h 9.02 v 905.98 h 9.03 v -273.55 h 9.02 v -787.96 h 9.02 v 176.74 h 9.02 v 873.07 h 9.03 v 122.75 h 9.02 V 1288.69 h 9.02 v -166.05 h 9.02 v 1138.28 h 9.03 v -212.76 h 9.02 V 960 h 9.02 v 848.46 h 9.02 v 995.88 h 9.03 v -750.17 h 9.02 V 1021.78 h 9.02 v 1020.81 h 9.02 v 321.56 h 9.03 V 1343.58 h 9.02 v 309.85 h 9.02 v 248.91 h 9.02 v -380.73 h 9.03 v 255.66 h 9.02 v 209.05 h 9.02 v 322.35 h 9.02 V 1213.39 h 9.03 v 331.95 h 9.02 v 550.82 h 9.02 v -290.18 h 9.02 v -398.86 h 9.03 v 540.46 h 9.02 v -362.13 h 9.02 v 583.39 h 9.02 v -393.76 h 9.03 v -117.42 h 9.02 v 122.41 h 9.02 v 23.18 h 9.02 v -172.01 h 9.03 v 154.32 h 9.02 v 167.24 h 9.02 v -342.3 h 9.02 v 133.22 h 9.02 v 217.29 h 9.03 V 1484.3 h 9.02 v 6.63 h 9.02 v 815.38 h 9.02 v 45.13 h 9.03 V 1257.85 h 9.02 v 123.01 h 9.02 v 720.57 h 9.02 v -248.79 h 9.03 v -313.32 h 9.02 v 239.54 h 9.02 v 60.99 h 9.02 v -477.9 h 9.04 v 724.35 h 9.02 v 44.16 h 9.02 v -69.17 h 9.02 v -442.78 h 9.03 v -347.59 h 9.02 v 330.97 h 9.02 v 78.54 h 9.02 v -350.27 h 9.03 v 1211.92 h 9.02 v -595.01 h 9.02 V 1534.1 h 9.02 v 761.7 h 9.03 V 1070.84 h 9.02 v -12.68 h 9.02 v 894.16 h 9.02 v -343.04 h 9.03 v -319.02 h 9.02 v 744.99 h 9.02 v 494.96 h 9.02 V 1119.73 h 9.02 v 288.76 h 9.03 v 856.08 h 9.02 v -420.46 h 9.02 V 812.789 h 9.02 V 2136.92 h 9.03 v 14.34 h 9.02 v -844.2 h 9.02 v 560.91 h 9.02 v 646.05 h 9.03 V 1430.84 h 9.02 v 432.89 h 9.02 v 498.23 h 9.02 v -929.1 h 9.03 V 816.742 h 9.02 V 2016.91 h 9.02 v 637.8 h 9.02 v -904.95 h 9.03 v -579.2 h 9.02 v 934.38 h 9.02 v 695.9 h 9.02 V 1430.41 h 9.03 V 1266.8 h 9.02 v 1441.5 h 9.02 v -501.54 h 9.02 V 1180.38 h 9.03 v 397.37 h 9.02 v 388.2 h 9.02 v 258.74 h 9.02 v -558.24 h 9.03 v 123.2 h 9.02 v -134.39 h 9.02 v 266.42 h 9.02 v -132.12 h 9.03 v -59.06 h 9.02 v 42.4 h 9.02 v 12.91 h 9.02 v -12.2 h 9.03 v -2.53 h 9.02 v 3.43 h 9.02 v -136.27 h 9.02 v 155.71 h 9.03 v 156.51 h 9.02 V 1747.7 h 9.02 v -22.09 h 9.03 v 58.76 h 9.02 v -134.8 H 6195 V 1520.7 h 9.02 v 196.53 h 9.03 v 149.61 h 9.02 V 1792 h 9.02 v -170.19 h 9.02 v 305.7 h 9.03 v 279.31 h 9.02 v -532.38 h 9.02 v -420.65 h 9.02 v 614.56 h 9.03 v 53.05 h 9.02 v -43.6 h 9.02 v -287.95 h 9.02 v 48.32 h 9.03 v 345.03 h 9.02 v -187.49 h 9.02 v -339.57 h 9.02 v 229.84 h 9.03 v 74.62 h 9.02 v 450.03 h 9.02 v 55.94 h 9.02 v -956.69 h 9.03 v 373.19 h 9.02 v 637.27 h 9.02 v -723.75 h 9.02 v -225.2 h 9.03 v 502.97 h 9.02 v -254.35 h 9.02 v 428.03 h 9.02 v -258.7 h 9.03 v 315.02 h 9.02 v -521.43 h 9.02 v -153.22 h 9.02 v 444.02 h 9.03 v -3.96 h 9.02 v 145.39 h 9.02 v -163.04 h 9.02 v -25.66 h 9.03 v -91.24 h 9.02 v -115.38 h 9.02 v 322.11 h 9.02 V 1521.9 h 9.03 v 516.03 h 9.02 v -227.79 h 9.02 v -254.51 h 9.02 v 370.83 h 9.03 v -249.69 h 9.02 v 69.43 h 9.02 v 197.03 h 9.02 v -183.75 h 9.03 v -34.16 h 9.02 v 54.59 h 9.02 v 5.43 h 9.02 v -14.89 h 9.02 v 420.59 h 9.03 v -478.45 h 9.02 v -482.28 h 9.02 v 903.52 h 9.02 v 321.74 h 9.03 V 1287.01 h 9.02 v -226.48 h 9.02 v 1215.08 h 9.02 v -70.25 h 9.03 v -1051.4 h 9.02 v 427.85 h 9.02 v 251.32 h 9.02 v 1.26 h 9.04 v -212.93 h 9.02 v 184.72 h 9.02 v 631.15 h 9.02 v -693.19 h 9.03 v -514.59 h 9.02 v 966.55 h 9.02 v 36.61 h 9.02 v -564.39 h 9.03 v 337.12 h 9.02 v 1351.22 h 9.02 V 2191.68 h 9.02 V 627.914 h 9.03 V 2633.15 h 9.02 v 422.18 h 9.02 V 1754.41 h 9.02 v 20.24 h 9.03 v 555.05 h 9.02 v 153.4 h 9.02 v -765.34 h 9.02 v -156.55 h 9.02 v 444.7 h 9.03 v 418.98 h 9.02 v -806.31 h 9.02 v -24.72 h 9.02 v 231.43 h 9.03 v 202.44 h 9.02 v -514.16 h 9.02 v 218.25 h 9.02 v 118 h 9.03 v -71.18 h 9.02 v -26.62 h 9.02 v 20.82 h 9.02 v 5.55 h 9.03 v -5.94 h 9.02 v -1.04 h 9.02 v 1.65 h 9.02 v 0.16 h 9.03 v -0.45 h 9.02 v -0.01 h 9.02 v -415.6 h 9.02 v 69.49 h 9.03 v 526.75 h 9.02 v -81.87 h 9.02 V 1726.8 h 9.02 v -168.97 h 9.03 v 465.88 h 9.02 v 195.55 h 9.02 v -365.45 h 9.02 v -18.85 h 9.03 v -523.67 h 9.02 v 96.03 h 9.02 v 559.08 h 9.02 v 111.65 h 9.03 v -384.58 h 9.02 v -397.81 h 9.02 V 2677.7 h 9.02 v -882.99 h 9.03 v -693.74 h 9.02 v 542.82 h 9.02 v 348.62 h 9.02 v -186.89 h 9.03 v -679.35 h 9.02 v 1131.01 h 9.02 v -146.82 h 9.03 V 1605.9 h 9.02 v 91.25 h 9.02 v -461.5 h 9.02 v 453.86 h 9.03 v 666.09 h 9.02 v -999.5 h 9.02 v 322.99 h 9.02 v 236.45 h 9.03 v 278.62 h 9.02 v -304.57 h 9.02 v -644.44 h 9.02 v 763.83 h 9.03 v 94.37 h 9.02 v -622.4 h 9.02 v 244.12 h 9.02 v 543.89 h 9.03 V 1532.3 h 9.02 v 338.64 h 9.02 v 365.24 h 9.02 v -343.07 h 9.03 v -274.5 h 9.02 v -77.72 h 9.02 v 513.16 h 9.02 v -36.75 h 9.03 v -564.21 h 9.02 v 496.37 h 9.02 V 1627.7 h 9.02 v 328.01 h 9.03 v -374.82 h 9.02 v 376.59 h 9.02 v -155.29 h 9.02 v -85.58 h 9.03 v 52.05 h 9.02 v 19.41 h 9.02 v -15.22 h 9.02 v -4.04 h 9.03 v 4.33 h 9.02 v 0.77 h 9.02 v -1.22 h 9.02 v -0.11 h 9.03 v 0.33 h 9.02 v 0.01 h 9.02 v -0.08 h 9.02 v 0 h 9.03 v 0.02 h 9.02 v 0 h 9.02 v -0.01 h 9.02 v 0 h 9.03 v 0 h 9.02 v 0 h 9.02 v 0 h 9.02 v 0 h 9.03 v 0 h 9.02 v 0 h 9.02 v -415.72 h 9.02 v 271.89 h 9.02 v 499.38 h 9.03 v 70.01 h 9.02 v -582.27 h 9.02 v 254.84 h 9.02 v -707.16 h 9.03 v 460.93 h 9.02 v 355.81 h 9.03 v 449.78 h 9.01 V 1631 h 9.04 v -38.89 h 9.02 v 230.07 h 9.01 v -5.02 h 9.02 v -60.68 h 9.03 v 5.78 h 9.03 V 1157.7 h 9.02 v 1119.51 h 9.02 v -176.3 h 9.03 V 972.039 h 9.01 V 1783 h 9.03 v 21.43 h 9.02 v -14.21 h 9.03 v -13.55 h 9.02 v -0.17 h 9.02 v 616.82 h 9.02 v -703.57 h 9.03 V 1188.5 h 9.02 v 477.23 h 9.02 v 504.23 h 9.02 v -398.02 h 9.03 v -305.67 h 9.02 v 349.57 h 9.02 v 251.09 h 9.02 V 1531.3 h 9.02 v -201.9 h 9.03 v 385.9 h 9.02 v 412.96 h 9.02 v 38.09 h 9.02 v -538.52 h 9.03 v 250.42 h 9.02 v -82.38 h 9.03 v -254.51 h 9.01 v 262.56 h 9.03 v 243.9 h 9.02 v -511.96 h 9.02 v 810.41 h 9.02 v -375.31 h 9.03 v -393.98 h 9.02 v -265.27 h 9.02 v 783.33 h 9.02 v -223.26 h 9.03 v -807.86 h 9.02 v 780.83 h 9.02 v 337.89 h 9.02 v 156.26 h 9.03 v -760.82 h 9.02 V 999.426 h 9.02 V 2545.07 h 9.03 v -646.04 h 9.02 v -355.49 h 9.02 v -204.67 h 9.02 v 972.61 h 9.02 v -477.95 h 9.03 V 995.031 h 9.02 v 862.829 h 9.02 v 549.21 h 9.02 V 1270.21 h 9.03 v 803.4 h 9.02 v -614.59 h 9.02 v 76.61 h 9.02 v 368.68 h 9.03 v -63.67 h 9.02 v -99.07 h 9.02 v 23.61 h 9.03 v 24.57 h 9.02 v -8.09 h 9.02 v -206.2 h 9.02 v 432.36 h 9.03 v 3.35 h 9.02 v 81.56 h 9.02 v -436.42"
         style="fill:none;stroke:#0072bd;stroke-width:15;stroke-linecap:butt;stroke-linejoin:miter;stroke-miterlimit:10;stroke-dasharray:none;stroke-opacity:1"
         id="path4383"
         inkscape:connector-curvature="0" /><path
         d="M 1492.5,3015 H 1980 v 300 h -487.5 z"
         style="fill:#ffffff;fill-opacity:1;fill-rule:nonzero;stroke:none"
         id="path4385"
         inkscape:connector-curvature="0" /><path
         d="m 1890.57,3109.74 c -6.87,0 -12.93,1.82 -18.16,5.45 -5.24,3.63 -9.2,8.49 -11.9,14.59 -2.69,6.1 -4.04,12.54 -4.04,19.33 0,10.39 2.6,20.14 7.79,29.24 5.2,9.11 12.25,16.37 21.16,21.8 8.9,5.43 18.47,8.15 28.71,8.15 6.17,0 11.58,-1.6 16.23,-4.81 4.65,-3.2 6.98,-7.81 6.98,-13.83 0,-8.36 -3.33,-14.57 -9.97,-18.63 -6.64,-4.07 -14.14,-6.58 -22.5,-7.56 -8.36,-0.97 -17.62,-1.46 -27.78,-1.46 h -0.58 c -2.35,-8.68 -3.52,-16.06 -3.52,-22.15 0,-6.48 1.49,-12.17 4.46,-17.06 2.97,-4.87 7.5,-7.32 13.59,-7.32 8.67,0 16.98,2 24.91,5.98 7.93,3.98 14.43,9.45 19.51,16.4 0.39,0.48 0.93,0.71 1.63,0.71 0.71,0 1.43,-0.41 2.17,-1.23 0.75,-0.82 1.12,-1.58 1.12,-2.29 0,-0.54 -0.12,-0.97 -0.35,-1.29 -5.32,-7.42 -12.46,-13.28 -21.44,-17.58 -8.99,-4.29 -18.33,-6.44 -28.02,-6.44 z m -12.77,57.89 c 8.44,0 16.23,0.39 23.38,1.17 7.15,0.78 13.61,2.75 19.39,5.92 5.78,3.17 8.67,8.07 8.67,14.71 0,2.65 -0.74,5 -2.22,7.03 -1.48,2.03 -3.42,3.58 -5.8,4.63 -2.38,1.05 -4.82,1.58 -7.32,1.58 -6.18,0 -11.72,-1.66 -16.65,-4.98 -4.92,-3.32 -8.98,-7.66 -12.18,-13.01 -3.21,-5.35 -5.63,-11.03 -7.27,-17.05"
         style="fill:#000000;fill-opacity:1;fill-rule:nonzero;stroke:none"
         id="path4387"
         inkscape:connector-curvature="0" /><path
         d="m 1522.66,3165 h 301.58"
         style="fill:none;stroke:#0072bd;stroke-width:15;stroke-linecap:butt;stroke-linejoin:round;stroke-miterlimit:10;stroke-dasharray:none;stroke-opacity:1"
         id="path4389"
         inkscape:connector-curvature="0" /><path
         d="M 1492.5,3015 H 1980 v 300 h -487.5 z"
         style="fill:none;stroke:#262626;stroke-width:5.00250006;stroke-linecap:butt;stroke-linejoin:miter;stroke-miterlimit:10;stroke-dasharray:none;stroke-opacity:1"
         id="path4391"
         inkscape:connector-curvature="0" /></g></g></svg>