<?xml version="1.0" encoding="UTF-8" standalone="no"?>
<svg
   xmlns:dc="http://purl.org/dc/elements/1.1/"
   xmlns:cc="http://creativecommons.org/ns#"
   xmlns:rdf="http://www.w3.org/1999/02/22-rdf-syntax-ns#"
   xmlns:svg="http://www.w3.org/2000/svg"
   xmlns="http://www.w3.org/2000/svg"
   viewBox="0 0 1200 500"
   height="500"
   width="1200"
   xml:space="preserve"
   id="svg2"
   version="1.1"><metadata
     id="metadata8"><rdf:RDF><cc:Work
         rdf:about=""><dc:format>image/svg+xml</dc:format><dc:type
           rdf:resource="http://purl.org/dc/dcmitype/StillImage" /></cc:Work></rdf:RDF></metadata><defs
     id="defs6" /><g
     transform="matrix(1.3333333,0,0,-1.3333333,0,500)"
     id="g10"><g
       transform="scale(0.1)"
       id="g12"><path
         id="path14"
         style="fill:#ffffff;fill-opacity:1;fill-rule:nonzero;stroke:none"
         d="M 0,0 H 9000 V 3750 H 0 Z" /><path
         id="path16"
         style="fill:#ffffff;fill-opacity:1;fill-rule:nonzero;stroke:none"
         d="M 0,0 H 9000 V 3750 H 0 Z" /><path
         id="path18"
         style="fill:#ffffff;fill-opacity:1;fill-rule:nonzero;stroke:none"
         d="M 1395,600 H 8595 V 3412.5 H 1395 Z" /><path
         id="path20"
         style="fill:none;stroke:#262626;stroke-width:5.00250006;stroke-linecap:square;stroke-linejoin:round;stroke-miterlimit:10;stroke-dasharray:none;stroke-opacity:1"
         d="M 1395,600 H 8595" /><path
         id="path22"
         style="fill:none;stroke:#262626;stroke-width:5.00250006;stroke-linecap:square;stroke-linejoin:round;stroke-miterlimit:10;stroke-dasharray:none;stroke-opacity:1"
         d="M 1395,3412.5 H 8595" /><path
         id="path24"
         style="fill:none;stroke:#262626;stroke-width:5.00250006;stroke-linecap:square;stroke-linejoin:round;stroke-miterlimit:10;stroke-dasharray:none;stroke-opacity:1"
         d="m 1395,600 v 72" /><path
         id="path26"
         style="fill:none;stroke:#262626;stroke-width:5.00250006;stroke-linecap:square;stroke-linejoin:round;stroke-miterlimit:10;stroke-dasharray:none;stroke-opacity:1"
         d="m 2115,600 v 72" /><path
         id="path28"
         style="fill:none;stroke:#262626;stroke-width:5.00250006;stroke-linecap:square;stroke-linejoin:round;stroke-miterlimit:10;stroke-dasharray:none;stroke-opacity:1"
         d="m 2835,600 v 72" /><path
         id="path30"
         style="fill:none;stroke:#262626;stroke-width:5.00250006;stroke-linecap:square;stroke-linejoin:round;stroke-miterlimit:10;stroke-dasharray:none;stroke-opacity:1"
         d="m 3555,600 v 72" /><path
         id="path32"
         style="fill:none;stroke:#262626;stroke-width:5.00250006;stroke-linecap:square;stroke-linejoin:round;stroke-miterlimit:10;stroke-dasharray:none;stroke-opacity:1"
         d="m 4275,600 v 72" /><path
         id="path34"
         style="fill:none;stroke:#262626;stroke-width:5.00250006;stroke-linecap:square;stroke-linejoin:round;stroke-miterlimit:10;stroke-dasharray:none;stroke-opacity:1"
         d="m 4995,600 v 72" /><path
         id="path36"
         style="fill:none;stroke:#262626;stroke-width:5.00250006;stroke-linecap:square;stroke-linejoin:round;stroke-miterlimit:10;stroke-dasharray:none;stroke-opacity:1"
         d="m 5715,600 v 72" /><path
         id="path38"
         style="fill:none;stroke:#262626;stroke-width:5.00250006;stroke-linecap:square;stroke-linejoin:round;stroke-miterlimit:10;stroke-dasharray:none;stroke-opacity:1"
         d="m 6435,600 v 72" /><path
         id="path40"
         style="fill:none;stroke:#262626;stroke-width:5.00250006;stroke-linecap:square;stroke-linejoin:round;stroke-miterlimit:10;stroke-dasharray:none;stroke-opacity:1"
         d="m 7155,600 v 72" /><path
         id="path42"
         style="fill:none;stroke:#262626;stroke-width:5.00250006;stroke-linecap:square;stroke-linejoin:round;stroke-miterlimit:10;stroke-dasharray:none;stroke-opacity:1"
         d="m 7875,600 v 72" /><path
         id="path44"
         style="fill:none;stroke:#262626;stroke-width:5.00250006;stroke-linecap:square;stroke-linejoin:round;stroke-miterlimit:10;stroke-dasharray:none;stroke-opacity:1"
         d="m 8595,600 v 72" /><path
         id="path46"
         style="fill:none;stroke:#262626;stroke-width:5.00250006;stroke-linecap:square;stroke-linejoin:round;stroke-miterlimit:10;stroke-dasharray:none;stroke-opacity:1"
         d="m 1395,3412.5 v -72" /><path
         id="path48"
         style="fill:none;stroke:#262626;stroke-width:5.00250006;stroke-linecap:square;stroke-linejoin:round;stroke-miterlimit:10;stroke-dasharray:none;stroke-opacity:1"
         d="m 2115,3412.5 v -72" /><path
         id="path50"
         style="fill:none;stroke:#262626;stroke-width:5.00250006;stroke-linecap:square;stroke-linejoin:round;stroke-miterlimit:10;stroke-dasharray:none;stroke-opacity:1"
         d="m 2835,3412.5 v -72" /><path
         id="path52"
         style="fill:none;stroke:#262626;stroke-width:5.00250006;stroke-linecap:square;stroke-linejoin:round;stroke-miterlimit:10;stroke-dasharray:none;stroke-opacity:1"
         d="m 3555,3412.5 v -72" /><path
         id="path54"
         style="fill:none;stroke:#262626;stroke-width:5.00250006;stroke-linecap:square;stroke-linejoin:round;stroke-miterlimit:10;stroke-dasharray:none;stroke-opacity:1"
         d="m 4275,3412.5 v -72" /><path
         id="path56"
         style="fill:none;stroke:#262626;stroke-width:5.00250006;stroke-linecap:square;stroke-linejoin:round;stroke-miterlimit:10;stroke-dasharray:none;stroke-opacity:1"
         d="m 4995,3412.5 v -72" /><path
         id="path58"
         style="fill:none;stroke:#262626;stroke-width:5.00250006;stroke-linecap:square;stroke-linejoin:round;stroke-miterlimit:10;stroke-dasharray:none;stroke-opacity:1"
         d="m 5715,3412.5 v -72" /><path
         id="path60"
         style="fill:none;stroke:#262626;stroke-width:5.00250006;stroke-linecap:square;stroke-linejoin:round;stroke-miterlimit:10;stroke-dasharray:none;stroke-opacity:1"
         d="m 6435,3412.5 v -72" /><path
         id="path62"
         style="fill:none;stroke:#262626;stroke-width:5.00250006;stroke-linecap:square;stroke-linejoin:round;stroke-miterlimit:10;stroke-dasharray:none;stroke-opacity:1"
         d="m 7155,3412.5 v -72" /><path
         id="path64"
         style="fill:none;stroke:#262626;stroke-width:5.00250006;stroke-linecap:square;stroke-linejoin:round;stroke-miterlimit:10;stroke-dasharray:none;stroke-opacity:1"
         d="m 7875,3412.5 v -72" /><path
         id="path66"
         style="fill:none;stroke:#262626;stroke-width:5.00250006;stroke-linecap:square;stroke-linejoin:round;stroke-miterlimit:10;stroke-dasharray:none;stroke-opacity:1"
         d="m 8595,3412.5 v -72" /><g
         transform="scale(10)"
         id="g68"><text
           id="text72"
           style="font-variant:normal;font-weight:normal;font-size:20.00020027px;font-family:Helvetica;-inkscape-font-specification:Helvetica;writing-mode:lr-tb;fill:#262626;fill-opacity:1;fill-rule:nonzero;stroke:none"
           transform="matrix(1,0,0,-1,133.5,33)"><tspan
             id="tspan70"
             y="0"
             x="0 71.999718 143.99944 215.99916 287.99887 359.99881 431.99872 503.99863 575.99854 647.99847 714.37335 725.49347">012345678910</tspan></text>
<text
           id="text76"
           style="font-variant:normal;font-weight:normal;font-size:21.99970055px;font-family:Helvetica;-inkscape-font-specification:Helvetica;writing-mode:lr-tb;fill:#262626;fill-opacity:1;fill-rule:nonzero;stroke:none"
           transform="matrix(1,0,0,-1,449.625,5)"><tspan
             id="tspan74"
             y="0"
             x="0 13.441816 25.673651 43.999401 56.231232 68.463066 74.578979 81.904884 92.904732">Tempo (s)</tspan></text>
</g><path
         id="path78"
         style="fill:none;stroke:#262626;stroke-width:5.00250006;stroke-linecap:square;stroke-linejoin:round;stroke-miterlimit:10;stroke-dasharray:none;stroke-opacity:1"
         d="M 1395,600 V 3412.5" /><path
         id="path80"
         style="fill:none;stroke:#262626;stroke-width:5.00250006;stroke-linecap:square;stroke-linejoin:round;stroke-miterlimit:10;stroke-dasharray:none;stroke-opacity:1"
         d="M 8595,600 V 3412.5" /><path
         id="path82"
         style="fill:none;stroke:#262626;stroke-width:5.00250006;stroke-linecap:square;stroke-linejoin:round;stroke-miterlimit:10;stroke-dasharray:none;stroke-opacity:1"
         d="m 1395,622.082 h 72" /><path
         id="path84"
         style="fill:none;stroke:#262626;stroke-width:5.00250006;stroke-linecap:square;stroke-linejoin:round;stroke-miterlimit:10;stroke-dasharray:none;stroke-opacity:1"
         d="m 1395,1156.91 h 72" /><path
         id="path86"
         style="fill:none;stroke:#262626;stroke-width:5.00250006;stroke-linecap:square;stroke-linejoin:round;stroke-miterlimit:10;stroke-dasharray:none;stroke-opacity:1"
         d="m 1395,1691.73 h 72" /><path
         id="path88"
         style="fill:none;stroke:#262626;stroke-width:5.00250006;stroke-linecap:square;stroke-linejoin:round;stroke-miterlimit:10;stroke-dasharray:none;stroke-opacity:1"
         d="m 1395,2226.55 h 72" /><path
         id="path90"
         style="fill:none;stroke:#262626;stroke-width:5.00250006;stroke-linecap:square;stroke-linejoin:round;stroke-miterlimit:10;stroke-dasharray:none;stroke-opacity:1"
         d="m 1395,2761.38 h 72" /><path
         id="path92"
         style="fill:none;stroke:#262626;stroke-width:5.00250006;stroke-linecap:square;stroke-linejoin:round;stroke-miterlimit:10;stroke-dasharray:none;stroke-opacity:1"
         d="m 1395,3296.21 h 72" /><path
         id="path94"
         style="fill:none;stroke:#262626;stroke-width:5.00250006;stroke-linecap:square;stroke-linejoin:round;stroke-miterlimit:10;stroke-dasharray:none;stroke-opacity:1"
         d="m 8595,622.082 h -72" /><path
         id="path96"
         style="fill:none;stroke:#262626;stroke-width:5.00250006;stroke-linecap:square;stroke-linejoin:round;stroke-miterlimit:10;stroke-dasharray:none;stroke-opacity:1"
         d="m 8595,1156.91 h -72" /><path
         id="path98"
         style="fill:none;stroke:#262626;stroke-width:5.00250006;stroke-linecap:square;stroke-linejoin:round;stroke-miterlimit:10;stroke-dasharray:none;stroke-opacity:1"
         d="m 8595,1691.73 h -72" /><path
         id="path100"
         style="fill:none;stroke:#262626;stroke-width:5.00250006;stroke-linecap:square;stroke-linejoin:round;stroke-miterlimit:10;stroke-dasharray:none;stroke-opacity:1"
         d="m 8595,2226.55 h -72" /><path
         id="path102"
         style="fill:none;stroke:#262626;stroke-width:5.00250006;stroke-linecap:square;stroke-linejoin:round;stroke-miterlimit:10;stroke-dasharray:none;stroke-opacity:1"
         d="m 8595,2761.38 h -72" /><path
         id="path104"
         style="fill:none;stroke:#262626;stroke-width:5.00250006;stroke-linecap:square;stroke-linejoin:round;stroke-miterlimit:10;stroke-dasharray:none;stroke-opacity:1"
         d="m 8595,3296.21 h -72" /><g
         transform="scale(10)"
         id="g106"><text
           id="text120"
           style="font-variant:normal;font-weight:normal;font-size:20.00020027px;font-family:Helvetica;-inkscape-font-specification:Helvetica;writing-mode:lr-tb;fill:#262626;fill-opacity:1;fill-rule:nonzero;stroke:none"
           transform="matrix(1,0,0,-1,110.25,53.9578)"><tspan
             id="tspan108"
             y="0"
             x="0 11.120111">30</tspan><tspan
             id="tspan110"
             y="-53.482399"
             x="0 11.120111">32</tspan><tspan
             id="tspan112"
             y="-106.9648"
             x="0 11.120111">34</tspan><tspan
             id="tspan114"
             y="-160.4472"
             x="0 11.120111">36</tspan><tspan
             id="tspan116"
             y="-213.92999"
             x="0 11.120111">38</tspan><tspan
             id="tspan118"
             y="-267.41241"
             x="0 11.120111">40</tspan></text>
<text
           id="text124"
           style="font-variant:normal;font-weight:normal;font-size:21.99970055px;font-family:Helvetica;-inkscape-font-specification:Helvetica;writing-mode:lr-tb;fill:#262626;fill-opacity:1;fill-rule:nonzero;stroke:none"
           transform="matrix(0,1,1,0,102,147.375)"><tspan
             id="tspan122"
             y="0"
             x="0 14.6738 19.557734 25.673651 37.905483 45.231384 57.463215 63.579132 70.905029 81.904884 100.23064">Altura (cm)</tspan></text>
</g><g
         transform="scale(10)"
         id="g126"><text
           id="text130"
           style="font-variant:normal;font-weight:bold;font-size:21.99970055px;font-family:Helvetica;-inkscape-font-specification:Helvetica-Bold;writing-mode:lr-tb;fill:#000000;fill-opacity:1;fill-rule:nonzero;stroke:none"
           transform="matrix(1,0,0,-1,283.5,350.625)"><tspan
             id="tspan128"
             y="0"
             x="0 14.6738 20.789717 40.34745 53.789265 59.905182 72.137016 84.368851 96.600685 110.0425 116.15842 129.60023 143.04205 149.15796 161.3898 173.62163 180.94753 187.06345 206.62119 218.85301 232.29483 245.73665 254.29453 260.41046 273.85226 287.29407 293.41 312.96774 326.40955 339.85138 352.08319 358.19913 371.64093 377.75684 393.64062 409.52441 424.19821">Simulação do estimador do modelo ARX2</tspan></text>
</g><path
         id="path132"
         style="fill:none;stroke:#0072bd;stroke-width:20.00250053;stroke-linecap:butt;stroke-linejoin:bevel;stroke-miterlimit:10;stroke-dasharray:15, 15;stroke-dashoffset:0;stroke-opacity:1"
         d="m 1395,3296.21 h 36 v 0 h 36 v 0 h 36 v 0 h 36 v 0 h 36 v 0 h 36 v 0 h 36 v 0 h 36 v 0 h 36 v 0 h 36 v 0 h 36 v 0 h 36 v 0 h 36 v 0 h 36 v 0 h 36 v 0 h 36 v 0 h 36 v 0 h 36 v 0 h 36 v 0 h 36 v 0 h 36 v 0 h 36 v 0 h 36 v 0 h 36 v 0 h 36 v 0 h 36 v 0 h 36 v 0 h 36 v 0 h 36 v 0 h 36 v 0 h 36 v 0 h 36 v 0 h 36 v 0 h 36 v 0 h 36 v 0 h 36 v 0 h 36 v 0 h 36 v 0 h 36 v 0 h 36 v 0 h 36 v 0 h 36 v 0 h 36 v 0 h 36 v 0 h 36 v 0 h 36 v 0 h 36 v 0 h 36 v 0 h 36 v 0 h 36 v 0 h 36 v 0 h 36 v 0 h 36 v 0 h 36 v 0 h 36 v 0 h 36 v 0 h 36 v 0 h 36 v 0 h 36 v 0 h 36 v 0 h 36 v 0 h 36 v 0 h 36 v 0 h 36 v 0 h 36 v 0 h 36 v 0 h 36 v 0 h 36 v 0 h 36 v 0 h 36 v 0 h 36 v 0 h 36 v 0 h 36 v 0 h 36 v 0 h 36 v 0 h 36 v 0 h 36 v 0 h 36 v 0 h 36 v 0 h 36 v -534.83 h 36 v 0 h 36 v 0 h 36 v 0 h 36 v 0 h 36 v 0 h 36 v 0 h 36 v 0 h 36 v 0 h 36 v 0 h 36 v 0 h 36 v 0 h 36 v 0 h 36 v 0 h 36 v 0 h 36 v 0 h 36 v 0 h 36 v 0 h 36 v 0 h 36 v 0 h 36 v 0 h 36 v 0 h 36 v 0 h 36 v 0 h 36 v 0 h 36 v 0 h 36 v 0 h 36 v 0 h 36 v 0 h 36 v 0 h 36 v 0 h 36 v 0 h 36 v 0 h 36 v 0 h 36 v 0 h 36 v 0 h 36 v 0 h 36 v 0 h 36 v 0 h 36 v 0 h 36 v 0 h 36 v 0 h 36 v 0 h 36 v 0 h 36 v 0 h 36 v 0 h 36 v 0 h 36 v 0 h 36 v 0 h 36 v 0 h 36 v 0 h 36 v 0 h 36 v 0 h 36 v 0 h 36 v 0 h 36 v 0 h 36 v 0 h 36 v 0 h 36 v 0 h 36 v 0 h 36 v 0 h 36 v 0 h 36 v 0 h 36 v 0 h 36 v 0 h 36 v 0 h 36 v 0 h 36 v 0 h 36 v 0 h 36 v 0 h 36 v 0 h 36 v 0 h 36 v 0 h 36 v 0 h 36 v 0 h 36 v 0 h 36 v 0 h 36 v 0 h 36 v 0 h 36 v 0 h 36 v 0 h 36 v 0 h 36 v 0 h 36 v 0 h 36 v 0 h 36 v 0 h 36 v 0 h 36 v 0 h 36 v 0 h 36 v 0 h 36 v 0 h 36 v 0 h 36 v 0 h 36 v 0 h 36 v 0 h 36 v 0 h 36 v 0 h 36 v 0 h 36 v 0 h 36 v 0 h 36 v 0 h 36 v 0 h 36 v 0 h 36 v 0 h 36 v 0 h 36 v 0 h 36 v 0 h 36 v 0 h 36 v 0 h 36 v 0 h 36 v 0 h 36 v 0 h 36 v 0 h 36 v 0 h 36 v 0 h 36 v 0 h 36 v 0 h 36 v 0 h 36 v 0 h 36 v 0 h 36 v 0" /><path
         id="path134"
         style="fill:none;stroke:#000000;stroke-width:20.00250053;stroke-linecap:butt;stroke-linejoin:miter;stroke-miterlimit:10;stroke-dasharray:none;stroke-opacity:1"
         d="m 1395,619.852 h 36 v -6.481 h 36 v 0.008 h 36 v 5.492 h 36 v 72.473 h 36 v 110.562 h 36 v 187.703 h 36 v 219.981 h 36 v 273.26 h 36 v 276.83 h 36 v 294.04 h 36 v 265.94 h 36 v 252.41 h 36 v 203.36 h 36 v 173.71 h 36 v 119.45 h 36 v 89.25 h 36 V 3201 h 36 v 23.26 h 36 v -7.5 h 36 v -13.14 h 36 v -28.07 h 36 v -21.4 h 36 v -24.72 h 36 v -11.06 h 36 v -8.78 h 36 v 6.13 h 36 v 8.64 h 36 v 20.59 h 36 v 20.16 h 36 v 27.32 h 36 v 23.15 h 36 v 25.88 h 36 v 18.95 h 36 v 18.86 h 36 v 10.98 h 36 v 10 h 36 v 2.83 h 36 v 2.46 h 36 v -2.97 h 36 v -2.05 h 36 v -5.48 h 36 v -3.31 h 36 v -5.14 h 36 v -2.2 h 36 v -3.14 h 36 v -0.09 h 36 v -0.76 h 36 v 1.88 h 36 v 1.02 h 36 v 3 h 36 v 1.8 h 36 v 3.12 h 36 v 1.63 h 36 v 2.48 h 36 v 0.9 h 36 v 1.5 h 36 v 0.04 h 36 v 0.59 h 36 v -0.63 h 36 v -0.02 h 36 v -0.95 h 36 v -0.24 h 36 v -0.92 h 36 v -0.17 h 36 v -0.69 h 36 v 0.06 h 36 v -0.37 h 36 v 0.28 h 36 v -0.11 h 36 v 0.44 h 36 v 0.03 h 36 v 0.48 h 36 v 0.06 h 36 v 0.39 h 36 v 0.01 h 36 v 0.29 h 36 v -0.08 h 36 v 0.17 h 36 v -0.16 h 36 v 0.54 h 36 v 1.11 h 36 v 0.03 h 36 v -1.28 h 36 v -14.46 h 36 v -22.26 h 36 v -37.49 h 36 v -44.1 h 36 v -54.58 h 36 v -55.44 h 36 v -58.71 h 36 v -53.23 h 36 v -50.39 h 36 v -40.71 h 36 v -34.65 h 36 v -23.92 h 36 v -17.79 h 36 v -8.67 h 36 v -4.6 h 36 v 1.46 h 36 v 2.66 h 36 v 5.57 h 36 v 4.31 h 36 v 4.9 h 36 v 2.24 h 36 v 1.71 h 36 v -1.2 h 36 v -1.76 h 36 v -4.09 h 36 v -4.05 h 36 v -5.45 h 36 v -4.65 h 36 v -5.15 h 36 v -3.81 h 36 v -3.75 h 36 v -2.21 h 36 v -1.98 h 36 v -0.58 h 36 v -0.48 h 36 v 0.58 h 36 v 0.43 h 36 v 1.08 h 36 v 0.68 h 36 v 1.01 h 36 v 0.45 h 36 v 0.61 h 36 v 0.03 h 36 v 0.15 h 36 v -0.37 h 36 v -0.21 h 36 v -0.6 h 36 v -0.36 h 36 v -0.62 h 36 v -0.34 h 36 v -0.48 h 36 v -0.19 h 36 v -0.29 h 36 v -0.02 h 36 v -0.11 h 36 v 0.12 h 36 v 0.02 h 36 v 0.18 h 36 v 0.05 h 36 v 0.18 h 36 v 0.04 h 36 v 0.13 h 36 v -0.01 h 36 v 0.07 h 36 v -0.05 h 36 v 0.02 h 36 v -0.09 h 36 v -0.01 h 36 v -0.09 h 36 v -0.01 h 36 v -0.08 h 36 v -0.01 h 36 v -0.05 h 36 v 0.02 h 36 v -0.04 h 36 v 0.03 h 36 v -0.01 h 36 v 0.03 h 36 v -0.01 h 36 v 0.04 h 36 v -0.01 h 36 v 0.04 h 36 v -0.01 h 36 v 0.01 h 36 v 0 h 36 v 0 h 36 v -0.01 h 36 v 0.01 h 36 v -0.02 h 36 v 0 h 36 v -0.02 h 36 v 0.01 h 36 v -0.01 h 36 v 0 h 36 v 0 h 36 v 0 h 36 v 0 h 36 v 0 h 36 v 0 h 36 v 0.01 h 36 v -0.01 h 36 v 0.01 h 36 v -0.01 h 36 v 0.01 h 36 v 0 h 36 v 0 h 36 v 0 h 36 v 0 h 36 v 0 h 36 v 0 h 36 v -0.01 h 36 v 0.01 h 36 v -0.01 h 36 v 0.01 h 36 v -0.01 h 36 v 0.01 h 36 v -0.01" /><path
         id="path136"
         style="fill:none;stroke:#ff0000;stroke-width:20.00250053;stroke-linecap:butt;stroke-linejoin:miter;stroke-miterlimit:10;stroke-dasharray:none;stroke-opacity:1"
         d="m 1395,622.082 h 36 v -2.23 h 36 v -6.481 h 36 v 0.008 h 36 v 5.492 h 36 v 72.473 h 36 v 110.562 h 36 v 187.703 h 36 v 219.981 h 36 v 273.26 h 36 v 276.83 h 36 v 294.04 h 36 v 265.94 h 36 v 252.41 h 36 v 203.36 h 36 v 173.71 h 36 v 119.45 h 36 v 89.25 h 36 V 3201 h 36 v 23.26 h 36 v -7.5 h 36 v -13.14 h 36 v -28.07 h 36 v -21.4 h 36 v -24.72 h 36 v -11.06 h 36 v -8.78 h 36 v 6.13 h 36 v 8.64 h 36 v 20.59 h 36 v 20.16 h 36 v 27.32 h 36 v 23.15 h 36 v 25.88 h 36 v 18.95 h 36 v 18.86 h 36 v 10.98 h 36 v 10 h 36 v 2.83 h 36 v 2.46 h 36 v -2.97 h 36 v -2.05 h 36 v -5.48 h 36 v -3.31 h 36 v -5.14 h 36 v -2.2 h 36 v -3.14 h 36 v -0.09 h 36 v -0.76 h 36 v 1.88 h 36 v 1.02 h 36 v 3 h 36 v 1.8 h 36 v 3.12 h 36 v 1.63 h 36 v 2.48 h 36 v 0.9 h 36 v 1.5 h 36 v 0.04 h 36 v 0.59 h 36 v -0.63 h 36 v -0.02 h 36 v -0.95 h 36 v -0.24 h 36 v -0.92 h 36 v -0.17 h 36 v -0.69 h 36 v 0.06 h 36 v -0.37 h 36 v 0.28 h 36 v -0.11 h 36 v 0.44 h 36 v 0.03 h 36 v 0.48 h 36 v 0.06 h 36 v 0.39 h 36 v 0.01 h 36 v 0.29 h 36 v -0.08 h 36 v 0.17 h 36 v -0.16 h 36 v 0.54 h 36 v 1.11 h 36 v 0.03 h 36 v -1.28 h 36 v -14.46 h 36 v -22.26 h 36 v -37.49 h 36 v -44.1 h 36 v -54.58 h 36 v -55.44 h 36 v -58.71 h 36 v -53.23 h 36 v -50.39 h 36 v -40.71 h 36 v -34.65 h 36 v -23.92 h 36 v -17.79 h 36 v -8.67 h 36 v -4.6 h 36 v 1.46 h 36 v 2.66 h 36 v 5.57 h 36 v 4.31 h 36 v 4.9 h 36 v 2.24 h 36 v 1.71 h 36 v -1.2 h 36 v -1.76 h 36 v -4.09 h 36 v -4.05 h 36 v -5.45 h 36 v -4.65 h 36 v -5.15 h 36 v -3.81 h 36 v -3.75 h 36 v -2.21 h 36 v -1.98 h 36 v -0.58 h 36 v -0.48 h 36 v 0.58 h 36 v 0.43 h 36 v 1.08 h 36 v 0.68 h 36 v 1.01 h 36 v 0.45 h 36 v 0.61 h 36 v 0.03 h 36 v 0.15 h 36 v -0.37 h 36 v -0.21 h 36 v -0.6 h 36 v -0.36 h 36 v -0.62 h 36 v -0.34 h 36 v -0.48 h 36 v -0.19 h 36 v -0.29 h 36 v -0.02 h 36 v -0.11 h 36 v 0.12 h 36 v 0.02 h 36 v 0.18 h 36 v 0.05 h 36 v 0.18 h 36 v 0.04 h 36 v 0.13 h 36 v -0.01 h 36 v 0.07 h 36 v -0.05 h 36 v 0.02 h 36 v -0.09 h 36 v -0.01 h 36 v -0.09 h 36 v -0.01 h 36 v -0.08 h 36 v -0.01 h 36 v -0.05 h 36 v 0.02 h 36 v -0.04 h 36 v 0.03 h 36 v -0.01 h 36 v 0.03 h 36 v -0.01 h 36 v 0.04 h 36 v -0.01 h 36 v 0.04 h 36 v -0.01 h 36 v 0.01 h 36 v 0 h 36 v 0 h 36 v -0.01 h 36 v 0.01 h 36 v -0.02 h 36 v 0 h 36 v -0.02 h 36 v 0.01 h 36 v -0.01 h 36 v 0 h 36 v 0 h 36 v 0 h 36 v 0 h 36 v 0 h 36 v 0 h 36 v 0.01 h 36 v -0.01 h 36 v 0.01 h 36 v -0.01 h 36 v 0.01 h 36 v 0 h 36 v 0 h 36 v 0 h 36 v 0 h 36 v 0 h 36 v 0 h 36 v -0.01 h 36 v 0.01 h 36 v -0.01 h 36 v 0.01 h 36 v -0.01 h 36 v 0.01" /><path
         id="path138"
         style="fill:#ffffff;fill-opacity:1;fill-rule:nonzero;stroke:none"
         d="m 7372.5,697.5 h 1125 V 1530 h -1125 z" /><path
         id="path140"
         style="fill:#000000;fill-opacity:1;fill-rule:nonzero;stroke:none"
         d="m 7741.65,1333.42 c 0,0.86 0.08,1.48 0.24,1.87 l 16.29,64.92 c 1.02,3.99 1.52,7.5 1.52,10.56 0,6.25 -2.11,9.37 -6.33,9.37 -4.53,0 -7.89,-2.71 -10.08,-8.14 -2.18,-5.43 -4.33,-12.29 -6.44,-20.58 0,-0.38 -0.2,-0.7 -0.59,-0.94 -0.38,-0.23 -0.78,-0.34 -1.17,-0.34 h -2.58 c -0.47,0 -0.88,0.25 -1.22,0.76 -0.36,0.51 -0.54,0.99 -0.54,1.46 1.57,6.25 3.07,11.58 4.52,16 1.44,4.41 3.71,8.42 6.79,12.02 3.08,3.59 6.93,5.39 11.54,5.39 5,0 9.4,-1.45 13.19,-4.35 3.79,-2.88 6.15,-6.71 7.09,-11.48 3.67,4.85 7.85,8.69 12.53,11.54 4.7,2.86 9.85,4.29 15.48,4.29 4.61,0 8.67,-1.35 12.18,-4.05 3.52,-2.7 5.28,-6.35 5.28,-10.95 0,-3.68 -1.15,-6.88 -3.46,-9.62 -2.3,-2.74 -5.37,-4.1 -9.2,-4.1 -2.34,0 -4.31,0.74 -5.92,2.23 -1.6,1.48 -2.4,3.4 -2.4,5.74 0,3.12 1.17,5.96 3.52,8.5 2.34,2.54 5.03,3.81 8.08,3.81 -2.34,1.87 -5.19,2.81 -8.56,2.81 -6.16,0 -11.55,-2.21 -16.16,-6.62 -4.61,-4.42 -8.75,-10.02 -12.43,-16.82 l -15.58,-62.22 c -0.47,-2.04 -1.56,-3.76 -3.28,-5.16 -1.73,-1.41 -3.67,-2.11 -5.86,-2.11 -1.72,0 -3.22,0.57 -4.52,1.7 -1.29,1.13 -1.93,2.63 -1.93,4.51" /><path
         id="path142"
         style="fill:none;stroke:#0072bd;stroke-width:20.00250053;stroke-linecap:butt;stroke-linejoin:bevel;stroke-miterlimit:10;stroke-dasharray:15, 15;stroke-dashoffset:0;stroke-opacity:1"
         d="M 7402.49,1382.47 H 7702.4" /><path
         id="path144"
         style="fill:#000000;fill-opacity:1;fill-rule:nonzero;stroke:none"
         d="m 7743.18,1029.78 c 3.04,-5.23 8.36,-7.85 15.94,-7.85 6.87,0 12.81,2.42 17.81,7.27 5,4.84 9.04,10.68 12.12,17.51 3.09,6.84 5.49,13.81 7.21,20.92 -6.41,-6.09 -13.4,-9.14 -20.97,-9.14 -5.71,0 -10.58,0.99 -14.6,2.99 -4.02,1.99 -7.14,4.96 -9.37,8.91 -2.23,3.94 -3.34,8.68 -3.34,14.23 0,4.77 0.62,9.65 1.87,14.65 1.25,5 3.03,10.55 5.34,16.64 2.3,6.09 4.31,11.41 6.03,15.94 1.88,5.31 2.82,9.69 2.82,13.12 0,4.3 -1.57,6.45 -4.69,6.45 -5.78,0 -10.53,-2.95 -14.24,-8.85 -3.72,-5.9 -6.47,-12.52 -8.26,-19.87 -0.24,-0.85 -0.82,-1.28 -1.76,-1.28 h -2.58 c -1.17,0 -1.76,0.67 -1.76,1.99 v 0.59 c 2.35,8.67 5.92,16.35 10.73,23.03 4.8,6.68 10.88,10.02 18.22,10.02 5.16,0 9.53,-1.7 13.12,-5.1 3.59,-3.4 5.39,-7.72 5.39,-12.95 0,-2.66 -0.58,-5.47 -1.75,-8.44 -0.71,-1.8 -2.19,-5.67 -4.46,-11.61 -2.27,-5.93 -3.98,-10.85 -5.15,-14.75 -1.18,-3.91 -2.15,-7.75 -2.94,-11.5 -0.77,-3.75 -1.16,-7.5 -1.16,-11.25 0,-4.84 1.01,-8.91 3.04,-12.24 2.03,-3.32 5.27,-4.98 9.73,-4.98 8.98,0 17.07,5.51 24.25,16.53 l 16.41,66.91 c 0.55,1.95 1.7,3.61 3.46,4.98 1.75,1.37 3.65,2.05 5.68,2.05 1.8,0 3.36,-0.56 4.69,-1.7 1.33,-1.13 1.99,-2.59 1.99,-4.39 0,-0.86 -0.08,-1.45 -0.23,-1.76 l -21.56,-86.49 c -1.96,-7.5 -5.48,-14.64 -10.55,-21.44 -5.08,-6.8 -11.21,-12.27 -18.4,-16.41 -7.19,-4.14 -14.69,-6.21 -22.5,-6.21 -3.75,0 -7.46,0.75 -11.13,2.23 -3.67,1.49 -6.64,3.67 -8.91,6.56 -2.26,2.89 -3.4,6.29 -3.4,10.2 0,3.9 1.18,7.32 3.52,10.25 2.34,2.93 5.43,4.39 9.26,4.39 2.34,0 4.31,-0.72 5.92,-2.16 1.6,-1.45 2.39,-3.34 2.39,-5.69 0,-3.35 -1.22,-6.26 -3.68,-8.73 -2.46,-2.46 -5.37,-3.69 -8.73,-3.69 -0.16,0.08 -0.3,0.12 -0.42,0.12 -0.11,0 -0.25,0 -0.4,0" /><path
         id="path146"
         style="fill:none;stroke:#000000;stroke-width:20.00250053;stroke-linecap:butt;stroke-linejoin:round;stroke-miterlimit:10;stroke-dasharray:none;stroke-opacity:1"
         d="M 7402.49,1113.75 H 7702.4" /><path
         id="path148"
         style="fill:#000000;fill-opacity:1;fill-rule:nonzero;stroke:none"
         d="m 7743.18,761.063 c 3.04,-5.235 8.36,-7.852 15.94,-7.852 6.87,0 12.81,2.422 17.81,7.266 5,4.839 9.04,10.679 12.12,17.519 3.09,6.836 5.49,13.809 7.21,20.918 -6.41,-6.094 -13.4,-9.141 -20.97,-9.141 -5.71,0 -10.58,0.993 -14.6,2.985 -4.02,1.992 -7.14,4.965 -9.37,8.91 -2.23,3.945 -3.34,8.687 -3.34,14.234 0,4.766 0.62,9.649 1.87,14.649 1.25,5 3.03,10.547 5.34,16.64 2.3,6.094 4.31,11.407 6.03,15.938 1.88,5.316 2.82,9.691 2.82,13.125 0,4.301 -1.57,6.449 -4.69,6.449 -5.78,0 -10.53,-2.949 -14.24,-8.848 -3.72,-5.902 -6.47,-12.523 -8.26,-19.867 -0.24,-0.855 -0.82,-1.285 -1.76,-1.285 h -2.58 c -1.17,0 -1.76,0.664 -1.76,1.988 v 0.586 c 2.35,8.676 5.92,16.352 10.73,23.032 4.8,6.679 10.88,10.019 18.22,10.019 5.16,0 9.53,-1.699 13.12,-5.098 3.59,-3.402 5.39,-7.718 5.39,-12.953 0,-2.656 -0.58,-5.468 -1.75,-8.437 -0.71,-1.797 -2.19,-5.664 -4.46,-11.602 -2.27,-5.937 -3.98,-10.855 -5.15,-14.761 -1.18,-3.911 -2.15,-7.739 -2.94,-11.489 -0.77,-3.75 -1.16,-7.5 -1.16,-11.25 0,-4.84 1.01,-8.922 3.04,-12.242 2.03,-3.32 5.27,-4.98 9.73,-4.98 8.98,0 17.07,5.507 24.25,16.523 l 16.41,66.914 c 0.55,1.949 1.7,3.61 3.46,4.981 1.75,1.367 3.65,2.046 5.68,2.046 1.8,0 3.36,-0.562 4.69,-1.695 1.33,-1.133 1.99,-2.597 1.99,-4.394 0,-0.86 -0.08,-1.446 -0.23,-1.762 l -21.56,-86.481 c -1.96,-7.5 -5.48,-14.648 -10.55,-21.445 -5.08,-6.801 -11.21,-12.269 -18.4,-16.41 -7.19,-4.141 -14.69,-6.207 -22.5,-6.207 -3.75,0 -7.46,0.742 -11.13,2.227 -3.67,1.484 -6.64,3.671 -8.91,6.562 -2.26,2.891 -3.4,6.285 -3.4,10.191 0,3.907 1.18,7.325 3.52,10.254 2.34,2.93 5.43,4.395 9.26,4.395 2.34,0 4.31,-0.723 5.92,-2.168 1.6,-1.445 2.39,-3.34 2.39,-5.684 0,-3.355 -1.22,-6.265 -3.68,-8.73 -2.46,-2.461 -5.37,-3.692 -8.73,-3.692 -0.16,0.082 -0.3,0.122 -0.42,0.122 -0.11,0 -0.25,0 -0.4,0" /><path
         id="path150"
         style="fill:#000000;fill-opacity:1;fill-rule:nonzero;stroke:none"
         d="m 7864.39,757.477 c -5,0 -9.37,1.308 -13.12,3.921 -3.75,2.622 -6.62,6.137 -8.61,10.547 -2,4.414 -3,9.082 -3,14.008 0,7.5 1.9,14.551 5.69,21.152 3.79,6.598 8.91,11.872 15.35,15.817 6.45,3.945 13.34,5.918 20.69,5.918 4.53,0 8.47,-1.172 11.83,-3.512 3.36,-2.344 5.04,-5.703 5.04,-10.078 0,-6.016 -2.4,-10.488 -7.21,-13.418 -4.8,-2.93 -10.23,-4.746 -16.28,-5.453 -6.06,-0.699 -12.76,-1.051 -20.11,-1.051 h -0.46 c -1.72,-6.25 -2.58,-11.601 -2.58,-16.055 0,-4.687 1.09,-8.808 3.29,-12.363 2.18,-3.555 5.46,-5.332 9.84,-5.332 6.25,0 12.26,1.445 18.04,4.336 5.78,2.891 10.47,6.875 14.06,11.957 0.32,0.309 0.75,0.465 1.29,0.465 0.47,0 0.98,-0.293 1.52,-0.879 0.55,-0.586 0.83,-1.152 0.83,-1.703 0,-0.391 -0.08,-0.703 -0.23,-0.938 -3.91,-5.39 -9.11,-9.628 -15.6,-12.711 -6.47,-3.085 -13.23,-4.628 -20.27,-4.628 z m -9.25,41.957 c 6.09,0 11.74,0.269 16.93,0.816 5.2,0.543 9.89,1.949 14.07,4.215 4.18,2.269 6.27,5.824 6.27,10.664 0,1.957 -0.53,3.656 -1.59,5.101 -1.05,1.446 -2.44,2.555 -4.16,3.336 -1.72,0.786 -3.52,1.18 -5.39,1.18 -4.45,0 -8.45,-1.215 -12.01,-3.641 -3.55,-2.417 -6.48,-5.562 -8.79,-9.433 -2.31,-3.863 -4.08,-7.945 -5.33,-12.238" /><path
         id="path152"
         style="fill:#000000;fill-opacity:1;fill-rule:nonzero;stroke:none"
         d="m 7918.18,768.84 c 2.8,-4.84 8.47,-7.262 16.98,-7.262 3.68,0 7.18,0.645 10.5,1.93 3.32,1.289 6.07,3.183 8.25,5.683 2.19,2.5 3.29,5.547 3.29,9.145 0,2.734 -0.98,4.961 -2.93,6.68 -1.96,1.714 -4.34,2.886 -7.15,3.511 l -8.56,1.641 c -3.83,1.016 -7.01,2.855 -9.55,5.516 -2.54,2.652 -3.81,5.894 -3.81,9.718 0,4.61 1.27,8.711 3.81,12.309 2.54,3.594 5.88,6.348 10.03,8.262 4.13,1.91 8.47,2.867 13,2.867 4.76,0 9.02,-1.133 12.77,-3.399 3.75,-2.265 5.63,-5.664 5.63,-10.191 0,-2.348 -0.69,-4.457 -2.05,-6.332 -1.37,-1.875 -3.26,-2.813 -5.69,-2.813 -1.32,0 -2.5,0.454 -3.51,1.352 -1.02,0.898 -1.53,2.051 -1.53,3.457 0,1.25 0.36,2.441 1.06,3.57 0.7,1.137 1.62,2.055 2.75,2.762 1.14,0.699 2.33,1.047 3.58,1.047 -0.94,2.266 -2.68,3.906 -5.22,4.922 -2.54,1.019 -5.26,1.531 -8.14,1.531 -2.66,0 -5.31,-0.531 -7.97,-1.586 -2.65,-1.055 -4.81,-2.637 -6.45,-4.746 -1.64,-2.109 -2.46,-4.574 -2.46,-7.387 0,-1.875 0.67,-3.535 1.99,-4.98 1.34,-1.445 2.98,-2.481 4.93,-3.106 l 9.14,-1.753 c 2.97,-0.625 5.67,-1.723 8.08,-3.286 2.43,-1.562 4.34,-3.531 5.75,-5.918 1.4,-2.379 2.1,-5.132 2.1,-8.257 0,-3.907 -1.09,-7.754 -3.28,-11.543 -2.18,-3.789 -4.84,-6.817 -7.97,-9.082 -5.62,-3.75 -12.45,-5.625 -20.5,-5.625 -5.62,0 -10.76,1.289 -15.41,3.863 -4.65,2.578 -6.98,6.41 -6.98,11.488 0,2.813 0.82,5.293 2.47,7.442 1.63,2.148 3.9,3.226 6.8,3.226 1.71,0 3.14,-0.531 4.27,-1.586 1.13,-1.055 1.69,-2.402 1.69,-4.039 0,-2.426 -0.89,-4.535 -2.69,-6.332 -1.79,-1.801 -3.9,-2.699 -6.32,-2.699 h -0.7" /><path
         id="path154"
         style="fill:#000000;fill-opacity:1;fill-rule:nonzero;stroke:none"
         d="m 7986.38,772.004 c 0,1.566 0.15,3.012 0.47,4.336 l 11.36,45.238 h -16.52 c -1.02,0 -1.53,0.703 -1.53,2.11 0.39,2.265 1.06,3.398 2,3.398 h 17.46 l 6.33,25.785 c 0.39,1.324 1.21,2.473 2.46,3.449 1.25,0.981 2.62,1.469 4.1,1.469 1.4,0 2.56,-0.391 3.46,-1.168 0.89,-0.785 1.34,-1.844 1.34,-3.168 0,-0.312 -0.02,-0.57 -0.05,-0.765 -0.04,-0.192 -0.1,-0.368 -0.18,-0.524 l -6.33,-25.078 h 16.29 c 1.09,0 1.64,-0.668 1.64,-1.996 -0.08,-0.313 -0.2,-0.758 -0.35,-1.344 -0.16,-0.586 -0.37,-1.094 -0.65,-1.523 -0.27,-0.43 -0.64,-0.645 -1.11,-0.645 h -17.11 l -11.36,-45.473 c -0.78,-2.968 -1.17,-5.546 -1.17,-7.73 0,-4.531 1.56,-6.797 4.68,-6.797 4.61,0 8.69,2.168 12.24,6.504 3.56,4.336 6.28,9.121 8.15,14.356 0.39,0.542 0.82,0.816 1.29,0.816 h 1.87 c 0.39,0 0.73,-0.133 1,-0.406 0.28,-0.274 0.41,-0.571 0.41,-0.883 0,-0.231 -0.03,-0.387 -0.12,-0.465 -2.34,-6.406 -5.72,-12.012 -10.13,-16.816 -4.41,-4.805 -9.47,-7.207 -15.18,-7.207 -4.14,0 -7.64,1.347 -10.48,4.043 -2.86,2.695 -4.28,6.191 -4.28,10.484" /><path
         id="path156"
         style="fill:#000000;fill-opacity:1;fill-rule:nonzero;stroke:none"
         d="m 8044.57,770.48 c 0,1.958 0.43,4.028 1.29,6.211 l 12.65,33.872 c 1.41,3.902 2.12,7.07 2.12,9.496 0,3.125 -1.14,4.687 -3.41,4.687 -4.22,0 -7.65,-2.133 -10.31,-6.391 -2.66,-4.261 -4.65,-9.046 -5.97,-14.355 -0.16,-0.707 -0.59,-1.059 -1.3,-1.059 h -1.87 c -0.86,0 -1.29,0.508 -1.29,1.524 v 0.473 c 1.72,6.25 4.32,11.796 7.79,16.64 3.48,4.84 7.87,7.262 13.19,7.262 3.75,0 6.91,-1.231 9.49,-3.692 2.58,-2.46 3.87,-5.605 3.87,-9.433 0,-1.949 -0.43,-3.981 -1.29,-6.09 l -12.78,-33.871 c -1.4,-3.516 -2.11,-6.676 -2.11,-9.488 0,-3.125 1.22,-4.688 3.64,-4.688 4.06,0 7.48,2.207 10.25,6.617 2.77,4.414 4.71,9.16 5.8,14.243 0.24,0.542 0.63,0.816 1.17,0.816 h 2 c 0.39,0 0.72,-0.133 0.99,-0.406 0.27,-0.274 0.41,-0.571 0.41,-0.883 0,-0.156 -0.08,-0.313 -0.23,-0.465 -1.41,-5.941 -3.88,-11.43 -7.44,-16.465 -3.56,-5.039 -7.99,-7.558 -13.31,-7.558 -3.67,0 -6.81,1.269 -9.43,3.808 -2.61,2.535 -3.92,5.602 -3.92,9.195 z m 17.81,84.145 c 0,2.266 0.92,4.293 2.75,6.09 1.83,1.801 3.85,2.699 6.04,2.699 1.79,0 3.28,-0.566 4.46,-1.703 1.16,-1.129 1.75,-2.516 1.75,-4.152 0,-2.348 -0.94,-4.418 -2.81,-6.219 -1.88,-1.797 -3.95,-2.692 -6.21,-2.692 -1.72,0 -3.15,0.582 -4.29,1.754 -1.12,1.176 -1.69,2.582 -1.69,4.223" /><path
         id="path158"
         style="fill:#000000;fill-opacity:1;fill-rule:nonzero;stroke:none"
         d="m 8097.5,761.934 c 0,0.625 0.04,1.089 0.12,1.402 l 11.72,46.992 c 0.78,2.891 1.17,5.43 1.17,7.613 0,4.536 -1.52,6.805 -4.57,6.805 -3.28,0 -5.72,-1.957 -7.32,-5.867 -1.61,-3.906 -3.15,-8.863 -4.63,-14.879 0,-0.316 -0.16,-0.57 -0.47,-0.766 -0.31,-0.195 -0.58,-0.293 -0.82,-0.293 h -1.88 c -0.31,0 -0.61,0.196 -0.88,0.586 -0.27,0.395 -0.4,0.746 -0.4,1.059 1.17,4.609 2.26,8.496 3.27,11.66 1.02,3.164 2.66,6.055 4.93,8.672 2.26,2.613 5.04,3.922 8.32,3.922 3.98,0 7.48,-1.25 10.48,-3.75 3.01,-2.5 4.52,-5.664 4.52,-9.488 3.12,4.14 6.8,7.382 11.01,9.726 4.22,2.34 8.67,3.512 13.36,3.512 5,0 9.3,-1.27 12.89,-3.805 3.59,-2.539 5.39,-6.152 5.39,-10.844 3.29,4.61 7.09,8.207 11.43,10.786 4.34,2.574 9.04,3.863 14.12,3.863 5.47,0 9.85,-1.485 13.13,-4.449 3.28,-2.969 4.92,-7.149 4.92,-12.539 0,-4.301 -0.96,-9.497 -2.87,-15.586 -1.92,-6.094 -4.28,-12.93 -7.09,-20.512 -1.56,-3.59 -2.35,-6.754 -2.35,-9.488 0,-3.125 1.25,-4.688 3.75,-4.688 4.07,0 7.46,2.207 10.2,6.617 2.74,4.414 4.65,9.16 5.74,14.243 0.31,0.542 0.78,0.816 1.41,0.816 h 1.76 c 0.46,0 0.84,-0.133 1.11,-0.406 0.27,-0.274 0.41,-0.571 0.41,-0.883 0,-0.156 -0.04,-0.313 -0.12,-0.465 -1.48,-5.941 -4,-11.43 -7.56,-16.465 -3.55,-5.039 -7.99,-7.558 -13.3,-7.558 -3.75,0 -6.92,1.269 -9.49,3.808 -2.58,2.535 -3.87,5.602 -3.87,9.195 0,1.875 0.43,3.946 1.29,6.211 2.97,7.891 5.43,14.942 7.38,21.157 1.96,6.211 2.93,11.66 2.93,16.343 0,2.969 -0.58,5.469 -1.75,7.5 -1.18,2.036 -3.13,3.055 -5.87,3.055 -5.78,0 -10.76,-1.762 -14.94,-5.281 -4.18,-3.516 -7.83,-8.164 -10.95,-13.942 -0.16,-1.015 -0.31,-1.796 -0.47,-2.339 l -10.08,-40.434 c -0.39,-1.484 -1.21,-2.734 -2.46,-3.75 -1.25,-1.016 -2.66,-1.523 -4.22,-1.523 -1.25,0 -2.35,0.41 -3.28,1.23 -0.94,0.82 -1.41,1.895 -1.41,3.227 0,0.625 0.04,1.089 0.12,1.402 l 10.08,40.078 c 1.09,4.297 1.64,7.887 1.64,10.777 0,2.969 -0.6,5.469 -1.82,7.5 -1.21,2.036 -3.22,3.055 -6.03,3.055 -3.91,0 -7.47,-0.844 -10.66,-2.523 -3.21,-1.68 -6.02,-3.926 -8.44,-6.743 -2.43,-2.808 -4.65,-6.128 -6.69,-9.957 l -10.66,-42.773 c -0.31,-1.484 -1.11,-2.734 -2.4,-3.75 -1.29,-1.016 -2.68,-1.523 -4.16,-1.523 -1.33,0 -2.44,0.41 -3.34,1.23 -0.9,0.82 -1.35,1.895 -1.35,3.227" /><path
         id="path160"
         style="fill:#000000;fill-opacity:1;fill-rule:nonzero;stroke:none"
         d="m 8247.95,757.477 c -6.64,0 -11.88,2.5 -15.7,7.5 -3.83,5 -5.74,10.898 -5.74,17.691 0,6.723 1.74,13.695 5.21,20.918 3.48,7.23 8.18,13.246 14.12,18.047 5.94,4.805 12.3,7.207 19.11,7.207 3.12,0 5.91,-0.84 8.37,-2.52 2.47,-1.675 4.39,-4 5.8,-6.968 1.18,4.218 3.48,6.332 6.92,6.332 1.33,0 2.44,-0.395 3.34,-1.18 0.9,-0.781 1.34,-1.836 1.34,-3.164 0,-0.313 0,-0.543 0,-0.699 0,-0.161 -0.03,-0.356 -0.11,-0.582 l -11.02,-43.954 c -0.7,-3.125 -1.05,-5.703 -1.05,-7.73 0,-4.531 1.52,-6.797 4.57,-6.797 3.28,0 5.78,2.09 7.5,6.27 1.71,4.179 3.16,9.043 4.34,14.59 0.15,0.542 0.54,0.816 1.17,0.816 h 1.99 c 0.39,0 0.7,-0.176 0.94,-0.524 0.23,-0.351 0.34,-0.683 0.34,-1 -1.79,-7.343 -3.78,-13.222 -5.97,-17.632 -2.19,-4.414 -5.74,-6.621 -10.66,-6.621 -3.52,0 -6.64,1.035 -9.38,3.105 -2.73,2.07 -4.41,4.82 -5.04,8.258 -6.8,-7.574 -13.59,-11.363 -20.39,-11.363 z m 0.12,4.101 c 3.82,0 7.52,1.426 11.07,4.277 3.56,2.848 6.62,6.188 9.2,10.02 0.08,0.152 0.12,0.309 0.12,0.465 l 8.43,34.223 0.12,0.464 c -0.62,3.75 -1.97,6.973 -4.04,9.668 -2.07,2.7 -4.86,4.051 -8.38,4.051 -3.51,0 -6.79,-1.449 -9.84,-4.344 -3.05,-2.89 -5.62,-6.328 -7.74,-10.312 -2.03,-4.141 -3.98,-9.879 -5.85,-17.219 -1.88,-7.348 -2.82,-13.051 -2.82,-17.117 0,-3.59 0.79,-6.852 2.34,-9.781 1.57,-2.93 4.03,-4.395 7.39,-4.395" /><path
         id="path162"
         style="fill:#000000;fill-opacity:1;fill-rule:nonzero;stroke:none"
         d="m 8329.36,757.477 c -6.65,0 -11.88,2.5 -15.71,7.5 -3.83,5 -5.74,10.898 -5.74,17.691 0,6.723 1.73,13.695 5.22,20.918 3.47,7.23 8.17,13.246 14.11,18.047 5.94,4.805 12.31,7.207 19.1,7.207 3.13,0 5.92,-0.86 8.39,-2.574 2.46,-1.719 4.39,-4.024 5.8,-6.914 l 8.9,35.152 c 0.39,1.801 0.63,3.207 0.7,4.223 0,1.718 -3.4,2.582 -10.19,2.582 -1.09,0 -1.64,0.699 -1.64,2.105 0.08,0.234 0.2,0.684 0.35,1.344 0.15,0.664 0.39,1.176 0.71,1.527 0.31,0.352 0.69,0.528 1.17,0.528 l 21.2,1.753 c 1.34,0 2,-0.703 2,-2.105 l -22.74,-90.586 c -0.7,-1.723 -1.05,-4.223 -1.05,-7.5 0,-4.531 1.52,-6.797 4.57,-6.797 3.28,0 5.78,2.09 7.5,6.27 1.72,4.179 3.16,9.043 4.33,14.59 0.16,0.542 0.55,0.816 1.18,0.816 h 1.99 c 0.39,0 0.7,-0.176 0.94,-0.524 0.23,-0.351 0.35,-0.683 0.35,-1 -1.8,-7.343 -3.79,-13.222 -5.98,-17.632 -2.18,-4.414 -5.74,-6.621 -10.66,-6.621 -3.52,0 -6.64,1.035 -9.38,3.105 -2.73,2.07 -4.41,4.82 -5.04,8.258 -6.79,-7.574 -13.59,-11.363 -20.38,-11.363 z m 0.11,4.101 c 3.83,0 7.52,1.426 11.08,4.277 3.55,2.848 6.62,6.188 9.19,10.02 0.08,0.152 0.12,0.391 0.12,0.703 l 8.56,34.688 c -0.63,3.672 -1.97,6.832 -4.04,9.488 -2.08,2.66 -4.87,3.992 -8.39,3.992 -3.51,0 -6.79,-1.449 -9.84,-4.344 -3.04,-2.89 -5.62,-6.328 -7.73,-10.312 -2.04,-4.141 -3.99,-9.879 -5.87,-17.219 -1.87,-7.348 -2.81,-13.051 -2.81,-17.117 0,-3.59 0.78,-6.852 2.35,-9.781 1.56,-2.93 4.02,-4.395 7.38,-4.395" /><path
         id="path164"
         style="fill:#000000;fill-opacity:1;fill-rule:nonzero;stroke:none"
         d="m 8413.73,757.477 c -4.93,0 -9.32,1.171 -13.18,3.519 -3.87,2.34 -6.86,5.52 -8.98,9.547 -2.1,4.023 -3.15,8.574 -3.15,13.648 0,7.11 1.99,14.145 5.97,21.098 3.99,6.949 9.26,12.613 15.82,16.988 6.56,4.375 13.48,6.563 20.74,6.563 3.91,0 7.39,-0.664 10.43,-1.988 3.05,-1.329 5.69,-3.204 7.92,-5.625 2.22,-2.426 3.94,-5.258 5.15,-8.497 1.21,-3.242 1.81,-6.734 1.81,-10.484 0,-5.473 -1.15,-10.863 -3.45,-16.18 -2.3,-5.308 -5.47,-10.132 -9.49,-14.468 -4.03,-4.34 -8.62,-7.778 -13.77,-10.313 -5.16,-2.539 -10.43,-3.808 -15.82,-3.808 z m 0.34,4.101 c 4.7,0 8.97,1.602 12.84,4.801 3.87,3.207 7.04,7.23 9.49,12.074 2.46,4.84 4.38,9.957 5.75,15.356 1.37,5.386 2.05,10.23 2.05,14.527 0,4.609 -1.16,8.496 -3.46,11.66 -2.31,3.164 -5.69,4.75 -10.13,4.75 -6.18,0 -11.57,-2.621 -16.18,-7.855 -4.61,-5.235 -8.07,-11.504 -10.37,-18.809 -2.3,-7.305 -3.45,-14.004 -3.45,-20.102 0,-4.527 1.15,-8.394 3.45,-11.601 2.3,-3.199 5.64,-4.801 10.01,-4.801" /><path
         id="path166"
         style="fill:none;stroke:#ff0000;stroke-width:20.00250053;stroke-linecap:butt;stroke-linejoin:round;stroke-miterlimit:10;stroke-dasharray:none;stroke-opacity:1"
         d="M 7402.49,845.031 H 7702.4" /><path
         id="path168"
         style="fill:none;stroke:#262626;stroke-width:5.00250006;stroke-linecap:butt;stroke-linejoin:miter;stroke-miterlimit:10;stroke-dasharray:none;stroke-opacity:1"
         d="m 7372.5,697.5 h 1125 V 1530 h -1125 z" /></g></g></svg>