<?xml version="1.0" encoding="UTF-8" standalone="no"?>
<!-- Created with Inkscape (http://www.inkscape.org/) -->

<svg
   xmlns:dc="http://purl.org/dc/elements/1.1/"
   xmlns:cc="http://creativecommons.org/ns#"
   xmlns:rdf="http://www.w3.org/1999/02/22-rdf-syntax-ns#"
   xmlns:svg="http://www.w3.org/2000/svg"
   xmlns="http://www.w3.org/2000/svg"
   xmlns:sodipodi="http://sodipodi.sourceforge.net/DTD/sodipodi-0.dtd"
   xmlns:inkscape="http://www.inkscape.org/namespaces/inkscape"
   version="1.1"
   id="svg4393"
   xml:space="preserve"
   width="1200"
   height="500"
   viewBox="0 0 1200 500"
   sodipodi:docname="ise.svg"
   inkscape:version="0.92.3 (2405546, 2018-03-11)"><metadata
     id="metadata4399"><rdf:RDF><cc:Work
         rdf:about=""><dc:format>image/svg+xml</dc:format><dc:type
           rdf:resource="http://purl.org/dc/dcmitype/StillImage" /><dc:title></dc:title></cc:Work></rdf:RDF></metadata><defs
     id="defs4397" /><sodipodi:namedview
     pagecolor="#ffffff"
     bordercolor="#666666"
     borderopacity="1"
     objecttolerance="10"
     gridtolerance="10"
     guidetolerance="10"
     inkscape:pageopacity="0"
     inkscape:pageshadow="2"
     inkscape:window-width="640"
     inkscape:window-height="480"
     id="namedview4395"
     showgrid="false"
     inkscape:zoom="0.28333333"
     inkscape:cx="600"
     inkscape:cy="250"
     inkscape:window-x="0"
     inkscape:window-y="0"
     inkscape:window-maximized="0"
     inkscape:current-layer="g4401" /><g
     id="g4401"
     inkscape:groupmode="layer"
     inkscape:label="ink_ext_XXXXXX"
     transform="matrix(1.3333333,0,0,-1.3333333,0,500)"><g
       id="g4403"
       transform="scale(0.1)"><path
         d="M 0,0 H 9000 V 3750 H 0 Z"
         style="fill:#ffffff;fill-opacity:1;fill-rule:nonzero;stroke:none"
         id="path4405"
         inkscape:connector-curvature="0" /><path
         d="M 0,0 H 9000 V 3750 H 0 Z"
         style="fill:#ffffff;fill-opacity:1;fill-rule:nonzero;stroke:none"
         id="path4407"
         inkscape:connector-curvature="0" /><path
         d="M 1395,600 H 8595 V 3412.5 H 1395 Z"
         style="fill:#ffffff;fill-opacity:1;fill-rule:nonzero;stroke:none"
         id="path4409"
         inkscape:connector-curvature="0" /><path
         d="M 1395,600 H 8595"
         style="fill:none;stroke:#262626;stroke-width:5.00250006;stroke-linecap:square;stroke-linejoin:round;stroke-miterlimit:10;stroke-dasharray:none;stroke-opacity:1"
         id="path4411"
         inkscape:connector-curvature="0" /><path
         d="M 1395,3412.5 H 8595"
         style="fill:none;stroke:#262626;stroke-width:5.00250006;stroke-linecap:square;stroke-linejoin:round;stroke-miterlimit:10;stroke-dasharray:none;stroke-opacity:1"
         id="path4413"
         inkscape:connector-curvature="0" /><path
         d="m 1395,600 v 72"
         style="fill:none;stroke:#262626;stroke-width:5.00250006;stroke-linecap:square;stroke-linejoin:round;stroke-miterlimit:10;stroke-dasharray:none;stroke-opacity:1"
         id="path4415"
         inkscape:connector-curvature="0" /><path
         d="m 2115,600 v 72"
         style="fill:none;stroke:#262626;stroke-width:5.00250006;stroke-linecap:square;stroke-linejoin:round;stroke-miterlimit:10;stroke-dasharray:none;stroke-opacity:1"
         id="path4417"
         inkscape:connector-curvature="0" /><path
         d="m 2835,600 v 72"
         style="fill:none;stroke:#262626;stroke-width:5.00250006;stroke-linecap:square;stroke-linejoin:round;stroke-miterlimit:10;stroke-dasharray:none;stroke-opacity:1"
         id="path4419"
         inkscape:connector-curvature="0" /><path
         d="m 3555,600 v 72"
         style="fill:none;stroke:#262626;stroke-width:5.00250006;stroke-linecap:square;stroke-linejoin:round;stroke-miterlimit:10;stroke-dasharray:none;stroke-opacity:1"
         id="path4421"
         inkscape:connector-curvature="0" /><path
         d="m 4275,600 v 72"
         style="fill:none;stroke:#262626;stroke-width:5.00250006;stroke-linecap:square;stroke-linejoin:round;stroke-miterlimit:10;stroke-dasharray:none;stroke-opacity:1"
         id="path4423"
         inkscape:connector-curvature="0" /><path
         d="m 4995,600 v 72"
         style="fill:none;stroke:#262626;stroke-width:5.00250006;stroke-linecap:square;stroke-linejoin:round;stroke-miterlimit:10;stroke-dasharray:none;stroke-opacity:1"
         id="path4425"
         inkscape:connector-curvature="0" /><path
         d="m 5715,600 v 72"
         style="fill:none;stroke:#262626;stroke-width:5.00250006;stroke-linecap:square;stroke-linejoin:round;stroke-miterlimit:10;stroke-dasharray:none;stroke-opacity:1"
         id="path4427"
         inkscape:connector-curvature="0" /><path
         d="m 6435,600 v 72"
         style="fill:none;stroke:#262626;stroke-width:5.00250006;stroke-linecap:square;stroke-linejoin:round;stroke-miterlimit:10;stroke-dasharray:none;stroke-opacity:1"
         id="path4429"
         inkscape:connector-curvature="0" /><path
         d="m 7155,600 v 72"
         style="fill:none;stroke:#262626;stroke-width:5.00250006;stroke-linecap:square;stroke-linejoin:round;stroke-miterlimit:10;stroke-dasharray:none;stroke-opacity:1"
         id="path4431"
         inkscape:connector-curvature="0" /><path
         d="m 7875,600 v 72"
         style="fill:none;stroke:#262626;stroke-width:5.00250006;stroke-linecap:square;stroke-linejoin:round;stroke-miterlimit:10;stroke-dasharray:none;stroke-opacity:1"
         id="path4433"
         inkscape:connector-curvature="0" /><path
         d="m 8595,600 v 72"
         style="fill:none;stroke:#262626;stroke-width:5.00250006;stroke-linecap:square;stroke-linejoin:round;stroke-miterlimit:10;stroke-dasharray:none;stroke-opacity:1"
         id="path4435"
         inkscape:connector-curvature="0" /><path
         d="m 1395,3412.5 v -72"
         style="fill:none;stroke:#262626;stroke-width:5.00250006;stroke-linecap:square;stroke-linejoin:round;stroke-miterlimit:10;stroke-dasharray:none;stroke-opacity:1"
         id="path4437"
         inkscape:connector-curvature="0" /><path
         d="m 2115,3412.5 v -72"
         style="fill:none;stroke:#262626;stroke-width:5.00250006;stroke-linecap:square;stroke-linejoin:round;stroke-miterlimit:10;stroke-dasharray:none;stroke-opacity:1"
         id="path4439"
         inkscape:connector-curvature="0" /><path
         d="m 2835,3412.5 v -72"
         style="fill:none;stroke:#262626;stroke-width:5.00250006;stroke-linecap:square;stroke-linejoin:round;stroke-miterlimit:10;stroke-dasharray:none;stroke-opacity:1"
         id="path4441"
         inkscape:connector-curvature="0" /><path
         d="m 3555,3412.5 v -72"
         style="fill:none;stroke:#262626;stroke-width:5.00250006;stroke-linecap:square;stroke-linejoin:round;stroke-miterlimit:10;stroke-dasharray:none;stroke-opacity:1"
         id="path4443"
         inkscape:connector-curvature="0" /><path
         d="m 4275,3412.5 v -72"
         style="fill:none;stroke:#262626;stroke-width:5.00250006;stroke-linecap:square;stroke-linejoin:round;stroke-miterlimit:10;stroke-dasharray:none;stroke-opacity:1"
         id="path4445"
         inkscape:connector-curvature="0" /><path
         d="m 4995,3412.5 v -72"
         style="fill:none;stroke:#262626;stroke-width:5.00250006;stroke-linecap:square;stroke-linejoin:round;stroke-miterlimit:10;stroke-dasharray:none;stroke-opacity:1"
         id="path4447"
         inkscape:connector-curvature="0" /><path
         d="m 5715,3412.5 v -72"
         style="fill:none;stroke:#262626;stroke-width:5.00250006;stroke-linecap:square;stroke-linejoin:round;stroke-miterlimit:10;stroke-dasharray:none;stroke-opacity:1"
         id="path4449"
         inkscape:connector-curvature="0" /><path
         d="m 6435,3412.5 v -72"
         style="fill:none;stroke:#262626;stroke-width:5.00250006;stroke-linecap:square;stroke-linejoin:round;stroke-miterlimit:10;stroke-dasharray:none;stroke-opacity:1"
         id="path4451"
         inkscape:connector-curvature="0" /><path
         d="m 7155,3412.5 v -72"
         style="fill:none;stroke:#262626;stroke-width:5.00250006;stroke-linecap:square;stroke-linejoin:round;stroke-miterlimit:10;stroke-dasharray:none;stroke-opacity:1"
         id="path4453"
         inkscape:connector-curvature="0" /><path
         d="m 7875,3412.5 v -72"
         style="fill:none;stroke:#262626;stroke-width:5.00250006;stroke-linecap:square;stroke-linejoin:round;stroke-miterlimit:10;stroke-dasharray:none;stroke-opacity:1"
         id="path4455"
         inkscape:connector-curvature="0" /><path
         d="m 8595,3412.5 v -72"
         style="fill:none;stroke:#262626;stroke-width:5.00250006;stroke-linecap:square;stroke-linejoin:round;stroke-miterlimit:10;stroke-dasharray:none;stroke-opacity:1"
         id="path4457"
         inkscape:connector-curvature="0" /><g
         id="g4459"
         transform="scale(10)"><text
           transform="matrix(1,0,0,-1,130.125,33)"
           style="font-variant:normal;font-weight:normal;font-size:20.00020027px;font-family:Helvetica;-inkscape-font-specification:Helvetica;writing-mode:lr-tb;fill:#262626;fill-opacity:1;fill-rule:nonzero;stroke:none"
           id="text4463"><tspan
             x="0 6.6600666 63.749836 70.409904 81.530014 87.090073 135.74976 142.40982 153.52994 159.09 207.74968 214.40974 225.52986 231.0899 279.7496 286.40967 297.52979 303.08984 363.37442 427.12427 438.24438 443.80444 499.12418 510.24429 515.80438 571.12408 582.2442 587.80426 643.12402 654.24414 659.8042 723.37384"
             y="0"
             sodipodi:role="line"
             id="tspan4461">-1-0.8-0.6-0.4-0.200.20.40.60.81</tspan></text>
<text
           transform="matrix(1,0,0,-1,424.875,5)"
           style="font-variant:normal;font-weight:normal;font-size:21.99970055px;font-family:Helvetica;-inkscape-font-specification:Helvetica;writing-mode:lr-tb;fill:#262626;fill-opacity:1;fill-rule:nonzero;stroke:none"
           id="text4467"><tspan
             x="0 15.883783 28.115616 40.34745 47.673351 59.905182 72.137016 78.25293 84.368851 96.600685 107.60053 113.71645 125.94828 138.18011"
             y="0"
             sodipodi:role="line"
             id="tspan4465">Degrau testado</tspan></text>
</g><path
         d="M 1395,600 V 3412.5"
         style="fill:none;stroke:#262626;stroke-width:5.00250006;stroke-linecap:square;stroke-linejoin:round;stroke-miterlimit:10;stroke-dasharray:none;stroke-opacity:1"
         id="path4469"
         inkscape:connector-curvature="0" /><path
         d="M 8595,600 V 3412.5"
         style="fill:none;stroke:#262626;stroke-width:5.00250006;stroke-linecap:square;stroke-linejoin:round;stroke-miterlimit:10;stroke-dasharray:none;stroke-opacity:1"
         id="path4471"
         inkscape:connector-curvature="0" /><path
         d="m 1395,613.793 h 72"
         style="fill:none;stroke:#262626;stroke-width:5.00250006;stroke-linecap:square;stroke-linejoin:round;stroke-miterlimit:10;stroke-dasharray:none;stroke-opacity:1"
         id="path4473"
         inkscape:connector-curvature="0" /><path
         d="m 1395,1179 h 72"
         style="fill:none;stroke:#262626;stroke-width:5.00250006;stroke-linecap:square;stroke-linejoin:round;stroke-miterlimit:10;stroke-dasharray:none;stroke-opacity:1"
         id="path4475"
         inkscape:connector-curvature="0" /><path
         d="m 1395,1744.21 h 72"
         style="fill:none;stroke:#262626;stroke-width:5.00250006;stroke-linecap:square;stroke-linejoin:round;stroke-miterlimit:10;stroke-dasharray:none;stroke-opacity:1"
         id="path4477"
         inkscape:connector-curvature="0" /><path
         d="m 1395,2309.41 h 72"
         style="fill:none;stroke:#262626;stroke-width:5.00250006;stroke-linecap:square;stroke-linejoin:round;stroke-miterlimit:10;stroke-dasharray:none;stroke-opacity:1"
         id="path4479"
         inkscape:connector-curvature="0" /><path
         d="m 1395,2874.62 h 72"
         style="fill:none;stroke:#262626;stroke-width:5.00250006;stroke-linecap:square;stroke-linejoin:round;stroke-miterlimit:10;stroke-dasharray:none;stroke-opacity:1"
         id="path4481"
         inkscape:connector-curvature="0" /><path
         d="m 8595,613.793 h -72"
         style="fill:none;stroke:#262626;stroke-width:5.00250006;stroke-linecap:square;stroke-linejoin:round;stroke-miterlimit:10;stroke-dasharray:none;stroke-opacity:1"
         id="path4483"
         inkscape:connector-curvature="0" /><path
         d="m 8595,1179 h -72"
         style="fill:none;stroke:#262626;stroke-width:5.00250006;stroke-linecap:square;stroke-linejoin:round;stroke-miterlimit:10;stroke-dasharray:none;stroke-opacity:1"
         id="path4485"
         inkscape:connector-curvature="0" /><path
         d="m 8595,1744.21 h -72"
         style="fill:none;stroke:#262626;stroke-width:5.00250006;stroke-linecap:square;stroke-linejoin:round;stroke-miterlimit:10;stroke-dasharray:none;stroke-opacity:1"
         id="path4487"
         inkscape:connector-curvature="0" /><path
         d="m 8595,2309.41 h -72"
         style="fill:none;stroke:#262626;stroke-width:5.00250006;stroke-linecap:square;stroke-linejoin:round;stroke-miterlimit:10;stroke-dasharray:none;stroke-opacity:1"
         id="path4489"
         inkscape:connector-curvature="0" /><path
         d="m 8595,2874.62 h -72"
         style="fill:none;stroke:#262626;stroke-width:5.00250006;stroke-linecap:square;stroke-linejoin:round;stroke-miterlimit:10;stroke-dasharray:none;stroke-opacity:1"
         id="path4491"
         inkscape:connector-curvature="0" /><g
         id="g4493"
         transform="scale(10)"><text
           transform="matrix(1,0,0,-1,121.5,53.1289)"
           style="font-variant:normal;font-weight:normal;font-size:20.00020027px;font-family:Helvetica;-inkscape-font-specification:Helvetica;writing-mode:lr-tb;fill:#262626;fill-opacity:1;fill-rule:nonzero;stroke:none"
           id="text4505"><tspan
             x="0"
             y="0"
             id="tspan4495">0</tspan><tspan
             x="0"
             y="-56.521099"
             id="tspan4497">2</tspan><tspan
             x="0"
             y="-113.0418"
             id="tspan4499">4</tspan><tspan
             x="0"
             y="-169.5625"
             id="tspan4501">6</tspan><tspan
             x="0"
             y="-226.08321"
             id="tspan4503">8</tspan></text>
<text
           transform="matrix(0,1,1,0,113.25,183)"
           style="font-variant:normal;font-weight:normal;font-size:21.99970055px;font-family:Helvetica;-inkscape-font-specification:Helvetica;writing-mode:lr-tb;fill:#262626;fill-opacity:1;fill-rule:nonzero;stroke:none"
           id="text4509"><tspan
             x="0 6.1159167 20.789717"
             y="0"
             sodipodi:role="line"
             id="tspan4507">ISE</tspan></text>
</g><g
         id="g4511"
         transform="scale(10)"><text
           transform="matrix(1,0,0,-1,291.375,350.625)"
           style="font-variant:normal;font-weight:bold;font-size:21.99970055px;font-family:Helvetica;-inkscape-font-specification:Helvetica-Bold;writing-mode:lr-tb;fill:#000000;fill-opacity:1;fill-rule:nonzero;stroke:none"
           id="text4515"><tspan
             x="0 17.115767 25.673651 37.905483 45.231384 51.347301 63.579132 77.02095 83.136864 89.252785 103.92658 118.60038 124.7163 138.15811 151.59993 163.83177 169.94768 182.17952 188.29543 207.85316 221.29498 234.7368 246.96863 253.08455 266.52637 278.75821 284.87411 290.99002 304.43185 316.6637 330.1055 337.4314 343.5473 350.87323 356.98914 369.22098 381.45279 394.89462 408.33643"
             y="0"
             sodipodi:role="line"
             id="tspan4513">Gráfico ISE dos 4 modelos identificados</tspan></text>
</g><path
         d="m 1395,3384.24 360,-526.38 360,-470.98 360,-415.57 360,-360.15 360,-304.77 360,-249.33 360,-193.931 360,-138.531 360,-83.114 h 720 l 360,83.114 360,138.531 360,193.931 360,249.33 360,304.77 360,360.15 360,415.57 360,470.98 360,526.38"
         style="fill:none;stroke:#0072bd;stroke-width:15;stroke-linecap:butt;stroke-linejoin:round;stroke-miterlimit:10;stroke-dasharray:none;stroke-opacity:1"
         id="path4517"
         inkscape:connector-curvature="0" /><path
         d="m 1395,2061.43 360,-275.04 360,-246.11 360,-217.15 360,-188.19 360,-159.249 360,-130.277 360,-101.34 360,-72.375 360,-43.437 h 720 l 360,43.437 360,72.375 360,101.34 360,130.277 360,159.249 360,188.19 360,217.15 360,246.11 360,275.04"
         style="fill:none;stroke:#d95319;stroke-width:15;stroke-linecap:butt;stroke-linejoin:round;stroke-miterlimit:10;stroke-dasharray:none;stroke-opacity:1"
         id="path4519"
         inkscape:connector-curvature="0" /><path
         d="m 1395,3017.14 360,-456.63 360,-408.56 360,-360.52 360,-312.42 360,-264.38 360,-216.298 360,-168.238 360,-120.16 360,-72.118 h 720 l 360,72.118 360,120.16 360,168.238 360,216.298 360,264.38 360,312.42 360,360.52 360,408.56 360,456.63"
         style="fill:none;stroke:#edb120;stroke-width:15;stroke-linecap:butt;stroke-linejoin:round;stroke-miterlimit:10;stroke-dasharray:none;stroke-opacity:1"
         id="path4521"
         inkscape:connector-curvature="0" /><path
         d="m 1799.7,3412.84 315.3,-528.27 360,-532.23 360,-461.24 360,-390.3 360,-319.32 360,-248.375 360,-177.39 360,-106.453 h 720 l 360,106.453 360,177.39 360,248.375 360,319.32 360,390.3 360,461.24 360,532.23 315.3,528.27"
         style="fill:none;stroke:#7e2f8e;stroke-width:15;stroke-linecap:butt;stroke-linejoin:round;stroke-miterlimit:10;stroke-dasharray:none;stroke-opacity:1"
         id="path4523"
         inkscape:connector-curvature="0" /><path
         d="m 1492.5,2212.5 h 1290 V 3315 h -1290 z"
         style="fill:#ffffff;fill-opacity:1;fill-rule:nonzero;stroke:none"
         id="path4525"
         inkscape:connector-curvature="0" /><path
         d="m 1858.83,3109.69 c -0.39,0 -0.76,0.26 -1.12,0.76 -0.34,0.51 -0.52,0.96 -0.52,1.35 l 12.54,50.86 c 0.23,0.78 0.82,1.17 1.75,1.17 h 2.59 c 0.54,0 0.97,-0.19 1.29,-0.58 0.3,-0.39 0.46,-0.94 0.46,-1.64 -1.17,-4.93 -1.75,-9.34 -1.75,-13.24 0,-10.47 3.61,-18.26 10.83,-23.38 7.23,-5.12 16.31,-7.68 27.25,-7.68 4.76,0 9.45,1.17 14.06,3.52 4.61,2.34 8.63,5.39 12.07,9.14 3.44,3.75 6.18,7.95 8.2,12.59 2.04,4.65 3.05,9.36 3.05,14.12 0,5.09 -1.35,9.62 -4.04,13.6 -2.7,3.98 -6.39,6.56 -11.07,7.74 l -26.6,7.02 c -7.11,1.88 -12.8,5.71 -17.06,11.49 -4.26,5.78 -6.38,12.26 -6.38,19.45 0,8.75 2.58,17.15 7.73,25.2 5.16,8.04 11.89,14.51 20.21,19.39 8.33,4.88 16.82,7.32 25.5,7.32 6.64,0 12.73,-1.23 18.27,-3.69 5.55,-2.45 9.81,-6.34 12.79,-11.66 l 12.41,14.65 c 0.86,0.47 1.37,0.7 1.53,0.7 h 1.4 c 0.55,0 1,-0.25 1.35,-0.75 0.35,-0.51 0.52,-1 0.52,-1.47 l -12.65,-50.51 c -0.23,-1.01 -0.78,-1.52 -1.64,-1.52 h -2.69 c -1.25,0 -1.88,0.78 -1.88,2.34 0.7,4.61 1.05,8.63 1.05,12.07 0,6.72 -1.15,12.58 -3.46,17.58 -2.3,5 -5.77,8.79 -10.42,11.37 -4.65,2.58 -10.42,3.87 -17.29,3.87 -5.78,0 -11.54,-1.66 -17.29,-4.98 -5.74,-3.32 -10.38,-7.76 -13.94,-13.31 -3.56,-5.54 -5.33,-11.29 -5.33,-17.22 0,-4.69 1.36,-8.83 4.1,-12.43 2.74,-3.59 6.37,-6.01 10.9,-7.26 l 26.6,-6.92 c 4.76,-1.32 8.94,-3.59 12.54,-6.79 3.6,-3.2 6.31,-7.01 8.15,-11.42 1.83,-4.42 2.75,-9.25 2.75,-14.48 0,-6.88 -1.45,-13.67 -4.34,-20.39 -2.89,-6.72 -6.93,-12.83 -12.12,-18.34 -5.2,-5.51 -11.1,-9.83 -17.7,-12.95 -6.61,-3.13 -13.34,-4.69 -20.22,-4.69 -17.26,0 -29.64,5.08 -37.14,15.24 L 1862,3110.39 c -0.86,-0.46 -1.41,-0.7 -1.64,-0.7 h -1.53"
         style="fill:#000000;fill-opacity:1;fill-rule:nonzero;stroke:none"
         id="path4527"
         inkscape:connector-curvature="0" /><path
         d="m 2025.16,3144.73 c 0,-5.31 1.04,-10.05 3.11,-14.23 2.07,-4.19 5.09,-7.43 9.08,-9.73 3.98,-2.31 8.63,-3.46 13.95,-3.46 6.17,0 12.22,1.29 18.16,3.87 5.94,2.57 11.27,6.13 15.99,10.66 4.73,4.54 8.78,9.69 12.14,15.47 3.35,5.78 5.73,11.52 7.14,17.23 l 19.57,78.51 c 0.32,1.56 0.48,2.66 0.48,3.28 0,6.1 -5.59,9.14 -16.77,9.14 -1.4,0 -2.1,0.94 -2.1,2.82 0.47,1.87 0.84,3.14 1.11,3.81 0.27,0.66 1.11,0.99 2.52,0.99 h 47.22 c 0.63,0 1.15,-0.31 1.59,-0.93 0.43,-0.63 0.64,-1.29 0.64,-2 0,-0.08 -0.15,-0.62 -0.46,-1.64 -0.32,-1.02 -0.67,-1.77 -1.06,-2.28 -0.39,-0.51 -0.86,-0.77 -1.41,-0.77 -13.83,0 -21.87,-4.45 -24.14,-13.35 l -19.57,-78.4 c -1.64,-6.8 -4.39,-13.4 -8.26,-19.81 -3.87,-6.4 -8.62,-12.22 -14.24,-17.46 -5.63,-5.24 -11.81,-9.34 -18.57,-12.31 -6.76,-2.96 -13.65,-4.45 -20.69,-4.45 -7.96,0 -15.27,1.76 -21.91,5.28 -6.64,3.51 -11.84,8.42 -15.59,14.71 -3.75,6.28 -5.62,13.53 -5.62,21.73 0,4.77 0.55,9.14 1.64,13.13 l 20.98,84.37 c 0.31,1.41 0.46,2.42 0.46,3.05 0,1.56 -0.86,2.42 -2.58,2.58 -2.73,0.62 -7.97,0.93 -15.69,0.93 -1.41,0 -2.12,0.94 -2.12,2.82 0.47,1.87 0.86,3.14 1.18,3.81 0.31,0.66 1.16,0.99 2.57,0.99 h 58.37 c 1.47,0 2.22,-0.97 2.22,-2.93 -0.08,-0.31 -0.21,-0.9 -0.41,-1.75 -0.2,-0.86 -0.47,-1.57 -0.82,-2.12 -0.36,-0.54 -0.88,-0.82 -1.59,-0.82 -8.9,0 -15.07,-0.51 -18.51,-1.52 -1.87,-0.7 -3.24,-2.7 -4.1,-5.98 l -21.1,-84.25 c -1.87,-7.66 -2.81,-13.99 -2.81,-18.99"
         style="fill:#000000;fill-opacity:1;fill-rule:nonzero;stroke:none"
         id="path4529"
         inkscape:connector-curvature="0" /><path
         d="m 2178.14,3114.5 c -1.4,0 -2.1,0.93 -2.1,2.81 0.08,0.39 0.24,1.01 0.47,1.87 0.24,0.86 0.53,1.57 0.88,2.11 0.35,0.55 0.88,0.83 1.58,0.83 4.06,0 7.62,0.11 10.67,0.35 3.04,0.23 5.62,0.62 7.73,1.17 1.72,0.63 3.12,2.57 4.21,5.86 l 29.77,119.41 c 0.24,1.41 0.35,2.42 0.35,3.05 0,1.56 -0.86,2.42 -2.57,2.58 -2.74,0.62 -7.97,0.93 -15.7,0.93 -1.41,0 -2.12,0.94 -2.12,2.82 0.08,0.39 0.24,1.01 0.48,1.87 0.23,0.86 0.54,1.56 0.93,2.11 0.39,0.55 0.86,0.82 1.41,0.82 h 77.92 c 4.77,0 9.46,-0.58 14.07,-1.76 4.61,-1.17 8.88,-3.02 12.83,-5.56 3.94,-2.54 7.07,-5.71 9.37,-9.5 2.31,-3.78 3.47,-8.22 3.47,-13.3 0,-5.38 -1.41,-10.43 -4.23,-15.11 -2.81,-4.69 -6.42,-8.77 -10.84,-12.25 -4.41,-3.48 -9.18,-6.33 -14.29,-8.55 -5.12,-2.23 -10.49,-3.89 -16.12,-4.98 3.99,0 8.01,-0.77 12.08,-2.29 4.06,-1.52 7.69,-3.64 10.9,-6.33 3.19,-2.69 5.75,-5.92 7.67,-9.67 1.91,-3.75 2.87,-7.81 2.87,-12.18 0,-8.68 -3.03,-16.62 -9.08,-23.85 -6.06,-7.23 -13.71,-12.91 -22.97,-17.05 -9.26,-4.14 -18.23,-6.21 -26.89,-6.21 z m 40.09,9.37 c 0,-1.17 2.5,-1.75 7.5,-1.75 h 31.06 c 7.1,0 13.9,1.97 20.39,5.92 6.48,3.94 11.69,9.17 15.64,15.7 3.95,6.52 5.92,13.3 5.92,20.32 0,4.38 -0.9,8.48 -2.7,12.31 -1.8,3.83 -4.4,6.86 -7.79,9.08 -3.4,2.23 -7.29,3.34 -11.67,3.34 h -42.42 l -15.11,-60.11 c -0.55,-2.04 -0.82,-3.64 -0.82,-4.81 z m 17.46,70.67 h 33.05 c 6.87,0 13.59,1.77 20.15,5.33 6.57,3.56 11.92,8.38 16.06,14.47 4.14,6.09 6.21,12.54 6.21,19.34 0,6.25 -1.97,11.45 -5.92,15.59 -3.94,4.13 -9.01,6.2 -15.18,6.2 h -29.88 c -3.9,0 -6.52,-0.36 -7.85,-1.11 -1.33,-0.74 -2.46,-2.87 -3.4,-6.39 l -13.24,-53.43"
         style="fill:#000000;fill-opacity:1;fill-rule:nonzero;stroke:none"
         id="path4531"
         inkscape:connector-curvature="0" /><path
         d="m 2365.44,3114.5 v 7.62 c 18.12,0 27.19,2.3 27.19,6.91 v 114.14 c -7.5,-3.59 -17,-5.39 -28.49,-5.39 v 7.61 c 17.82,0 31.25,4.65 40.32,13.95 h 3.04 c 0.47,0 0.94,-0.19 1.41,-0.59 0.47,-0.39 0.7,-0.82 0.7,-1.28 v -128.44 c 0,-4.61 9.06,-6.91 27.19,-6.91 v -7.62 h -71.36"
         style="fill:#000000;fill-opacity:1;fill-rule:nonzero;stroke:none"
         id="path4533"
         inkscape:connector-curvature="0" /><path
         d="m 1522.55,3167.3 h 300.5"
         style="fill:none;stroke:#0072bd;stroke-width:15;stroke-linecap:butt;stroke-linejoin:round;stroke-miterlimit:10;stroke-dasharray:none;stroke-opacity:1"
         id="path4535"
         inkscape:connector-curvature="0" /><path
         d="m 1855.32,2845.46 c -1.41,0 -2.11,0.94 -2.11,2.82 0.62,3.2 1.56,4.81 2.81,4.81 5.86,0 10.94,1.16 15.23,3.51 4.3,2.34 8.01,5.97 11.13,10.9 0.24,0.23 0.35,0.35 0.35,0.35 l 77.71,131.01 c 1.09,1.57 2.45,2.35 4.09,2.35 h 2.81 c 0.47,0 0.92,-0.1 1.35,-0.29 0.44,-0.2 0.81,-0.49 1.12,-0.88 0.31,-0.4 0.47,-0.79 0.47,-1.18 l 13.12,-140.5 c 0,-0.63 0.31,-1.61 0.94,-2.93 1.48,-1.56 6.91,-2.34 16.29,-2.34 1.48,0 2.23,-0.94 2.23,-2.82 -0.47,-1.95 -0.86,-3.24 -1.17,-3.87 -0.32,-0.62 -1.18,-0.94 -2.58,-0.94 h -54.38 c -1.33,0 -2,0.94 -2,2.82 0.79,3.2 1.76,4.81 2.94,4.81 11.48,0 17.58,1.95 18.28,5.85 l -3.4,35.86 H 1907 l -17.47,-29.17 c -1.01,-1.57 -1.52,-3.37 -1.52,-5.4 0,-2.58 1.21,-4.41 3.63,-5.51 2.43,-1.09 5.12,-1.63 8.09,-1.63 1.41,0 2.11,-0.94 2.11,-2.82 -0.47,-2.03 -0.84,-3.34 -1.11,-3.93 -0.28,-0.58 -1.08,-0.88 -2.41,-0.88 z m 55.89,57.08 h 48.52 l -6.45,70.42 z"
         style="fill:#000000;fill-opacity:1;fill-rule:nonzero;stroke:none"
         id="path4537"
         inkscape:connector-curvature="0" /><path
         d="m 2021.25,2845.46 c -1.4,0 -2.11,0.94 -2.11,2.82 0,0.39 0.12,1.03 0.36,1.93 0.23,0.9 0.54,1.61 0.94,2.11 0.38,0.51 0.85,0.77 1.4,0.77 8.83,0 15.04,0.5 18.63,1.52 1.8,0.62 3.13,2.58 3.99,5.85 l 29.88,119.42 c 0.23,1.41 0.35,2.42 0.35,3.05 0,1.56 -0.82,2.42 -2.46,2.57 -2.82,0.63 -8.05,0.94 -15.7,0.94 -1.49,0 -2.23,0.94 -2.23,2.81 0.08,0.39 0.24,1.02 0.47,1.88 0.23,0.86 0.55,1.56 0.94,2.11 0.39,0.55 0.86,0.82 1.4,0.82 h 65.98 c 5.23,0 10.68,-0.6 16.35,-1.82 5.66,-1.21 10.86,-3.1 15.58,-5.68 4.73,-2.58 8.62,-6.01 11.67,-10.31 3.04,-4.3 4.56,-9.3 4.56,-15 0,-7.34 -2.4,-13.87 -7.2,-19.57 -4.81,-5.7 -10.91,-10.49 -18.29,-14.36 -7.38,-3.86 -14.51,-6.58 -21.38,-8.14 5.62,-2.04 10.25,-5.29 13.88,-9.79 3.63,-4.49 5.45,-9.7 5.45,-15.64 0,-0.79 -0.02,-1.37 -0.06,-1.76 -0.04,-0.39 -0.1,-0.82 -0.17,-1.29 l -1.76,-19.34 c -0.16,-2.81 -0.29,-5.21 -0.41,-7.2 -0.12,-2 -0.18,-3.58 -0.18,-4.75 0,-3.98 0.59,-7.16 1.76,-9.55 1.18,-2.38 3.48,-3.57 6.92,-3.57 4.53,0 8.51,2.1 11.95,6.32 3.44,4.22 5.7,8.83 6.8,13.83 0.63,1.25 1.33,1.88 2.11,1.88 h 1.99 c 1.41,0 2.11,-0.98 2.11,-2.93 -1.09,-4.14 -2.77,-8.09 -5.04,-11.84 -2.27,-3.75 -5.16,-6.84 -8.67,-9.25 -3.52,-2.43 -7.35,-3.64 -11.49,-3.64 -8.43,0 -15.66,1.89 -21.68,5.68 -6.01,3.79 -9.01,9.75 -9.01,17.87 0,2.98 0.31,5.63 0.93,7.98 l 4.69,19.33 c 0.63,1.8 0.94,3.87 0.94,6.21 0,6.02 -2.06,10.74 -6.16,14.18 -4.1,3.44 -9.2,5.16 -15.3,5.16 h -26.83 l -14.29,-57.42 c -0.4,-1.25 -0.59,-2.31 -0.59,-3.17 0,-1.48 0.9,-2.3 2.69,-2.46 2.74,-0.62 7.93,-0.93 15.59,-0.93 1.49,0 2.23,-0.94 2.23,-2.82 -0.48,-2.03 -0.84,-3.34 -1.12,-3.93 -0.27,-0.58 -1.11,-0.88 -2.52,-0.88 z m 57.19,77.23 h 24.14 c 15.78,0 27.66,3.99 35.63,11.96 3.67,3.67 6.6,8.35 8.79,14.06 2.18,5.7 3.28,11.4 3.28,17.11 0,5.39 -1.59,9.61 -4.75,12.65 -3.17,3.05 -7.07,5.14 -11.72,6.27 -4.65,1.14 -9.74,1.7 -15.29,1.7 h -14.54 c -3.98,0 -6.62,-0.35 -7.91,-1.05 -1.28,-0.7 -2.43,-2.85 -3.44,-6.45 l -14.19,-56.25"
         style="fill:#000000;fill-opacity:1;fill-rule:nonzero;stroke:none"
         id="path4539"
         inkscape:connector-curvature="0" /><path
         d="m 2187.18,2845.46 c -1.48,0 -2.22,0.94 -2.22,2.82 0.08,0.39 0.23,1.05 0.47,1.99 0.23,0.94 0.55,1.64 0.94,2.11 0.38,0.47 0.93,0.71 1.63,0.71 13.21,0 24.5,4.91 33.87,14.76 0.16,0.15 0.33,0.28 0.52,0.35 0.2,0.08 0.3,0.12 0.3,0.12 l 47.58,51.33 -25.9,62.34 c -1.48,1.95 -3.91,3.18 -7.27,3.69 -3.36,0.51 -7.26,0.76 -11.71,0.76 -1.41,0 -2.11,0.94 -2.11,2.81 0.54,1.88 0.95,3.15 1.23,3.82 0.27,0.66 1.11,0.99 2.52,0.99 h 54.38 c 1.4,0 2.1,-0.97 2.1,-2.93 -0.08,-0.31 -0.23,-0.94 -0.47,-1.88 -0.24,-0.93 -0.55,-1.64 -0.94,-2.1 -0.39,-0.47 -0.93,-0.71 -1.63,-0.71 -2.74,0 -5.53,-0.45 -8.39,-1.35 -2.85,-0.89 -4.86,-2.32 -6.03,-4.27 l 18.75,-45.12 35.63,38.32 c 0.23,0.47 0.74,1.33 1.52,2.58 0.78,1.25 1.17,2.42 1.17,3.51 0,2.11 -0.92,3.69 -2.75,4.75 -1.83,1.05 -4.05,1.58 -6.62,1.58 -1.49,0 -2.23,0.94 -2.23,2.81 0.55,1.88 0.96,3.15 1.23,3.82 0.27,0.66 1.11,0.99 2.52,0.99 h 47.11 c 0.78,0 1.35,-0.29 1.7,-0.88 0.35,-0.59 0.52,-1.27 0.52,-2.05 0,-0.31 -0.12,-0.9 -0.35,-1.75 -0.23,-0.86 -0.52,-1.57 -0.87,-2.12 -0.36,-0.55 -0.88,-0.82 -1.59,-0.82 -6.72,0 -12.88,-1.23 -18.51,-3.69 -5.62,-2.46 -10.82,-6.15 -15.59,-11.07 -0.08,-0.08 -0.17,-0.14 -0.3,-0.18 -0.11,-0.04 -0.21,-0.13 -0.29,-0.29 l -39.48,-42.42 29.76,-71.37 c 2.34,-2.89 8.67,-4.33 18.99,-4.33 1.4,0 2.1,-0.94 2.1,-2.82 -0.47,-1.95 -0.86,-3.24 -1.17,-3.87 -0.31,-0.62 -1.13,-0.94 -2.46,-0.94 h -54.37 c -1.41,0 -2.12,0.94 -2.12,2.82 0.08,0.39 0.22,1.03 0.42,1.93 0.19,0.9 0.48,1.61 0.87,2.11 0.4,0.51 0.86,0.77 1.41,0.77 2.81,0 5.68,0.45 8.61,1.34 2.93,0.9 4.95,2.32 6.04,4.28 l -22.62,54.14 -43.94,-47.46 c -0.24,-0.47 -0.75,-1.31 -1.52,-2.52 -0.79,-1.21 -1.18,-2.37 -1.18,-3.46 0,-2.11 1,-3.69 2.99,-4.74 1.99,-1.06 4.12,-1.58 6.38,-1.58 1.49,0 2.23,-0.94 2.23,-2.82 -0.47,-2.03 -0.83,-3.34 -1.11,-3.93 -0.27,-0.58 -1.15,-0.88 -2.64,-0.88 h -47.11"
         style="fill:#000000;fill-opacity:1;fill-rule:nonzero;stroke:none"
         id="path4541"
         inkscape:connector-curvature="0" /><path
         d="m 2399.01,2845.46 v 7.63 c 18.13,0 27.19,2.3 27.19,6.91 v 114.14 c -7.5,-3.59 -16.99,-5.39 -28.48,-5.39 v 7.61 c 17.82,0 31.26,4.65 40.32,13.95 h 3.05 c 0.46,0 0.93,-0.19 1.4,-0.59 0.47,-0.39 0.71,-0.82 0.71,-1.28 V 2860 c 0,-4.61 9.06,-6.91 27.18,-6.91 v -7.63 h -71.37"
         style="fill:#000000;fill-opacity:1;fill-rule:nonzero;stroke:none"
         id="path4543"
         inkscape:connector-curvature="0" /><path
         d="m 1522.55,2898.26 h 300.5"
         style="fill:none;stroke:#d95319;stroke-width:15;stroke-linecap:butt;stroke-linejoin:round;stroke-miterlimit:10;stroke-dasharray:none;stroke-opacity:1"
         id="path4545"
         inkscape:connector-curvature="0" /><path
         d="m 1855.32,2576.43 c -1.41,0 -2.11,0.94 -2.11,2.82 0.62,3.2 1.56,4.8 2.81,4.8 5.86,0 10.94,1.17 15.23,3.52 4.3,2.34 8.01,5.97 11.13,10.9 0.24,0.23 0.35,0.35 0.35,0.35 l 77.71,131.01 c 1.09,1.57 2.45,2.35 4.09,2.35 h 2.81 c 0.47,0 0.92,-0.1 1.35,-0.29 0.44,-0.2 0.81,-0.49 1.12,-0.89 0.31,-0.39 0.47,-0.78 0.47,-1.17 l 13.12,-140.5 c 0,-0.63 0.31,-1.61 0.94,-2.94 1.48,-1.55 6.91,-2.34 16.29,-2.34 1.48,0 2.23,-0.93 2.23,-2.81 -0.47,-1.95 -0.86,-3.24 -1.17,-3.87 -0.32,-0.62 -1.18,-0.94 -2.58,-0.94 h -54.38 c -1.33,0 -2,0.94 -2,2.82 0.79,3.2 1.76,4.8 2.94,4.8 11.48,0 17.58,1.96 18.28,5.86 l -3.4,35.86 H 1907 l -17.47,-29.18 c -1.01,-1.56 -1.52,-3.36 -1.52,-5.39 0,-2.58 1.21,-4.41 3.63,-5.51 2.43,-1.09 5.12,-1.64 8.09,-1.64 1.41,0 2.11,-0.93 2.11,-2.81 -0.47,-2.03 -0.84,-3.34 -1.11,-3.93 -0.28,-0.58 -1.08,-0.88 -2.41,-0.88 z m 55.89,57.07 h 48.52 l -6.45,70.43 z"
         style="fill:#000000;fill-opacity:1;fill-rule:nonzero;stroke:none"
         id="path4547"
         inkscape:connector-curvature="0" /><path
         d="m 2021.25,2576.43 c -1.4,0 -2.11,0.94 -2.11,2.82 0,0.39 0.12,1.03 0.36,1.93 0.23,0.9 0.54,1.61 0.94,2.11 0.38,0.51 0.85,0.76 1.4,0.76 8.83,0 15.04,0.51 18.63,1.53 1.8,0.62 3.13,2.58 3.99,5.85 l 29.88,119.42 c 0.23,1.4 0.35,2.42 0.35,3.04 0,1.57 -0.82,2.43 -2.46,2.58 -2.82,0.63 -8.05,0.94 -15.7,0.94 -1.49,0 -2.23,0.94 -2.23,2.81 0.08,0.39 0.24,1.02 0.47,1.88 0.23,0.86 0.55,1.56 0.94,2.11 0.39,0.55 0.86,0.82 1.4,0.82 h 65.98 c 5.23,0 10.68,-0.6 16.35,-1.82 5.66,-1.21 10.86,-3.1 15.58,-5.68 4.73,-2.58 8.62,-6.01 11.67,-10.31 3.04,-4.3 4.56,-9.3 4.56,-15 0,-7.34 -2.4,-13.87 -7.2,-19.58 -4.81,-5.69 -10.91,-10.48 -18.29,-14.35 -7.38,-3.86 -14.51,-6.58 -21.38,-8.15 5.62,-2.03 10.25,-5.28 13.88,-9.78 3.63,-4.49 5.45,-9.7 5.45,-15.64 0,-0.79 -0.02,-1.37 -0.06,-1.76 -0.04,-0.39 -0.1,-0.82 -0.17,-1.29 l -1.76,-19.34 c -0.16,-2.81 -0.29,-5.21 -0.41,-7.2 -0.12,-2 -0.18,-3.58 -0.18,-4.75 0,-3.98 0.59,-7.17 1.76,-9.55 1.18,-2.38 3.48,-3.58 6.92,-3.58 4.53,0 8.51,2.11 11.95,6.33 3.44,4.22 5.7,8.83 6.8,13.83 0.63,1.25 1.33,1.88 2.11,1.88 h 1.99 c 1.41,0 2.11,-0.98 2.11,-2.93 -1.09,-4.15 -2.77,-8.09 -5.04,-11.84 -2.27,-3.75 -5.16,-6.84 -8.67,-9.25 -3.52,-2.43 -7.35,-3.64 -11.49,-3.64 -8.43,0 -15.66,1.89 -21.68,5.68 -6.01,3.79 -9.01,9.75 -9.01,17.87 0,2.98 0.31,5.63 0.93,7.98 l 4.69,19.33 c 0.63,1.8 0.94,3.87 0.94,6.21 0,6.02 -2.06,10.74 -6.16,14.18 -4.1,3.44 -9.2,5.16 -15.3,5.16 h -26.83 l -14.29,-57.42 c -0.4,-1.25 -0.59,-2.31 -0.59,-3.17 0,-1.48 0.9,-2.3 2.69,-2.46 2.74,-0.62 7.93,-0.94 15.59,-0.94 1.49,0 2.23,-0.93 2.23,-2.81 -0.48,-2.03 -0.84,-3.34 -1.12,-3.93 -0.27,-0.58 -1.11,-0.88 -2.52,-0.88 z m 57.19,77.23 h 24.14 c 15.78,0 27.66,3.99 35.63,11.96 3.67,3.67 6.6,8.35 8.79,14.06 2.18,5.7 3.28,11.4 3.28,17.11 0,5.39 -1.59,9.6 -4.75,12.65 -3.17,3.05 -7.07,5.14 -11.72,6.27 -4.65,1.13 -9.74,1.7 -15.29,1.7 h -14.54 c -3.98,0 -6.62,-0.35 -7.91,-1.05 -1.28,-0.7 -2.43,-2.85 -3.44,-6.45 l -14.19,-56.25"
         style="fill:#000000;fill-opacity:1;fill-rule:nonzero;stroke:none"
         id="path4549"
         inkscape:connector-curvature="0" /><path
         d="m 2187.18,2576.43 c -1.48,0 -2.22,0.94 -2.22,2.82 0.08,0.39 0.23,1.05 0.47,1.99 0.23,0.94 0.55,1.64 0.94,2.11 0.38,0.47 0.93,0.7 1.63,0.7 13.21,0 24.5,4.92 33.87,14.77 0.16,0.15 0.33,0.27 0.52,0.35 0.2,0.08 0.3,0.12 0.3,0.12 l 47.58,51.33 -25.9,62.34 c -1.48,1.95 -3.91,3.18 -7.27,3.69 -3.36,0.51 -7.26,0.76 -11.71,0.76 -1.41,0 -2.11,0.94 -2.11,2.81 0.54,1.88 0.95,3.15 1.23,3.82 0.27,0.66 1.11,0.99 2.52,0.99 h 54.38 c 1.4,0 2.1,-0.98 2.1,-2.93 -0.08,-0.31 -0.23,-0.94 -0.47,-1.88 -0.24,-0.93 -0.55,-1.64 -0.94,-2.1 -0.39,-0.47 -0.93,-0.71 -1.63,-0.71 -2.74,0 -5.53,-0.45 -8.39,-1.35 -2.85,-0.89 -4.86,-2.32 -6.03,-4.27 l 18.75,-45.12 35.63,38.32 c 0.23,0.47 0.74,1.33 1.52,2.58 0.78,1.25 1.17,2.42 1.17,3.51 0,2.11 -0.92,3.69 -2.75,4.75 -1.83,1.05 -4.05,1.58 -6.62,1.58 -1.49,0 -2.23,0.94 -2.23,2.81 0.55,1.88 0.96,3.15 1.23,3.82 0.27,0.66 1.11,0.99 2.52,0.99 h 47.11 c 0.78,0 1.35,-0.29 1.7,-0.88 0.35,-0.59 0.52,-1.27 0.52,-2.05 0,-0.31 -0.12,-0.9 -0.35,-1.76 -0.23,-0.86 -0.52,-1.56 -0.87,-2.11 -0.36,-0.55 -0.88,-0.82 -1.59,-0.82 -6.72,0 -12.88,-1.23 -18.51,-3.69 -5.62,-2.46 -10.82,-6.15 -15.59,-11.08 -0.08,-0.07 -0.17,-0.13 -0.3,-0.17 -0.11,-0.04 -0.21,-0.13 -0.29,-0.29 l -39.48,-42.43 29.76,-71.36 c 2.34,-2.89 8.67,-4.34 18.99,-4.34 1.4,0 2.1,-0.93 2.1,-2.81 -0.47,-1.95 -0.86,-3.24 -1.17,-3.87 -0.31,-0.62 -1.13,-0.94 -2.46,-0.94 h -54.37 c -1.41,0 -2.12,0.94 -2.12,2.82 0.08,0.39 0.22,1.03 0.42,1.93 0.19,0.9 0.48,1.61 0.87,2.11 0.4,0.51 0.86,0.76 1.41,0.76 2.81,0 5.68,0.45 8.61,1.35 2.93,0.9 4.95,2.32 6.04,4.28 l -22.62,54.14 -43.94,-47.46 c -0.24,-0.47 -0.75,-1.31 -1.52,-2.52 -0.79,-1.21 -1.18,-2.37 -1.18,-3.46 0,-2.11 1,-3.69 2.99,-4.74 1.99,-1.06 4.12,-1.59 6.38,-1.59 1.49,0 2.23,-0.93 2.23,-2.81 -0.47,-2.03 -0.83,-3.34 -1.11,-3.93 -0.27,-0.58 -1.15,-0.88 -2.64,-0.88 h -47.11"
         style="fill:#000000;fill-opacity:1;fill-rule:nonzero;stroke:none"
         id="path4551"
         inkscape:connector-curvature="0" /><path
         d="m 2389.64,2576.43 v 5.86 c 0,0.32 0.16,0.71 0.47,1.18 l 33.75,37.38 c 5.16,5.54 9.32,10.19 12.48,13.94 3.16,3.75 6.31,8.07 9.44,12.96 3.12,4.88 5.58,9.84 7.38,14.88 1.79,5.03 2.69,10.41 2.69,16.11 0,5.94 -1.1,11.62 -3.28,17.05 -2.19,5.43 -5.47,9.77 -9.85,13.01 -4.37,3.24 -9.6,4.86 -15.69,4.86 -6.33,0 -12.02,-1.89 -17.06,-5.68 -5.04,-3.79 -8.58,-8.69 -10.6,-14.71 0.54,0.16 1.33,0.23 2.34,0.23 3.28,0 6.06,-1.09 8.32,-3.28 2.27,-2.18 3.4,-5.04 3.4,-8.55 0,-3.28 -1.13,-6.08 -3.4,-8.38 -2.26,-2.31 -5.04,-3.46 -8.32,-3.46 -3.44,0 -6.31,1.17 -8.61,3.52 -2.31,2.35 -3.46,5.12 -3.46,8.32 0,5.47 1.03,10.58 3.1,15.35 2.07,4.77 5.05,9 8.91,12.72 3.87,3.71 8.23,6.56 13.07,8.55 4.84,2 10,2.99 15.47,2.99 8.28,0 15.99,-1.76 23.14,-5.28 7.15,-3.51 12.81,-8.47 16.99,-14.88 4.18,-6.4 6.27,-13.86 6.27,-22.38 0,-6.33 -1.38,-12.33 -4.16,-17.99 -2.77,-5.66 -6.3,-10.82 -10.61,-15.46 -4.29,-4.66 -9.82,-9.91 -16.58,-15.77 -6.75,-5.86 -11.19,-9.77 -13.29,-11.72 l -24.61,-23.78 h 20.86 c 10.3,0 18.92,0.09 25.84,0.29 6.91,0.19 10.56,0.48 10.95,0.87 1.72,1.8 3.44,8.48 5.16,20.04 h 6.44 l -6.21,-38.79 h -80.74"
         style="fill:#000000;fill-opacity:1;fill-rule:nonzero;stroke:none"
         id="path4553"
         inkscape:connector-curvature="0" /><path
         d="m 1522.55,2629.24 h 300.5"
         style="fill:none;stroke:#edb120;stroke-width:15;stroke-linecap:butt;stroke-linejoin:round;stroke-miterlimit:10;stroke-dasharray:none;stroke-opacity:1"
         id="path4555"
         inkscape:connector-curvature="0" /><path
         d="m 1855.32,2307.4 c -1.41,0 -2.11,0.94 -2.11,2.81 0.62,3.21 1.56,4.81 2.81,4.81 5.86,0 10.94,1.18 15.23,3.52 4.3,2.34 8.01,5.97 11.13,10.9 0.24,0.23 0.35,0.35 0.35,0.35 l 77.71,131.01 c 1.09,1.57 2.45,2.35 4.09,2.35 h 2.81 c 0.47,0 0.92,-0.1 1.35,-0.29 0.44,-0.2 0.81,-0.49 1.12,-0.89 0.31,-0.39 0.47,-0.78 0.47,-1.17 l 13.12,-140.5 c 0,-0.63 0.31,-1.6 0.94,-2.94 1.48,-1.56 6.91,-2.34 16.29,-2.34 1.48,0 2.23,-0.93 2.23,-2.81 -0.47,-1.95 -0.86,-3.25 -1.17,-3.87 -0.32,-0.63 -1.18,-0.94 -2.58,-0.94 h -54.38 c -1.33,0 -2,0.94 -2,2.81 0.79,3.21 1.76,4.81 2.94,4.81 11.48,0 17.58,1.96 18.28,5.86 l -3.4,35.86 H 1907 l -17.47,-29.18 c -1.01,-1.56 -1.52,-3.36 -1.52,-5.39 0,-2.58 1.21,-4.42 3.63,-5.51 2.43,-1.09 5.12,-1.64 8.09,-1.64 1.41,0 2.11,-0.93 2.11,-2.81 -0.47,-2.03 -0.84,-3.34 -1.11,-3.93 -0.28,-0.58 -1.08,-0.88 -2.41,-0.88 z m 55.89,57.07 h 48.52 l -6.45,70.43 z"
         style="fill:#000000;fill-opacity:1;fill-rule:nonzero;stroke:none"
         id="path4557"
         inkscape:connector-curvature="0" /><path
         d="m 2021.25,2307.4 c -1.4,0 -2.11,0.94 -2.11,2.81 0,0.4 0.12,1.04 0.36,1.94 0.23,0.9 0.54,1.6 0.94,2.11 0.38,0.51 0.85,0.76 1.4,0.76 8.83,0 15.04,0.51 18.63,1.53 1.8,0.62 3.13,2.58 3.99,5.85 l 29.88,119.42 c 0.23,1.4 0.35,2.42 0.35,3.04 0,1.57 -0.82,2.43 -2.46,2.59 -2.82,0.62 -8.05,0.93 -15.7,0.93 -1.49,0 -2.23,0.94 -2.23,2.82 0.08,0.38 0.24,1.01 0.47,1.87 0.23,0.86 0.55,1.56 0.94,2.11 0.39,0.55 0.86,0.82 1.4,0.82 h 65.98 c 5.23,0 10.68,-0.61 16.35,-1.82 5.66,-1.21 10.86,-3.11 15.58,-5.68 4.73,-2.58 8.62,-6.02 11.67,-10.31 3.04,-4.3 4.56,-9.3 4.56,-15 0,-7.35 -2.4,-13.87 -7.2,-19.58 -4.81,-5.7 -10.91,-10.48 -18.29,-14.35 -7.38,-3.87 -14.51,-6.58 -21.38,-8.15 5.62,-2.03 10.25,-5.29 13.88,-9.78 3.63,-4.49 5.45,-9.7 5.45,-15.64 0,-0.79 -0.02,-1.37 -0.06,-1.76 -0.04,-0.39 -0.1,-0.82 -0.17,-1.29 l -1.76,-19.34 c -0.16,-2.81 -0.29,-5.21 -0.41,-7.21 -0.12,-1.99 -0.18,-3.57 -0.18,-4.74 0,-3.98 0.59,-7.17 1.76,-9.55 1.18,-2.39 3.48,-3.58 6.92,-3.58 4.53,0 8.51,2.11 11.95,6.33 3.44,4.22 5.7,8.83 6.8,13.83 0.63,1.25 1.33,1.88 2.11,1.88 h 1.99 c 1.41,0 2.11,-0.98 2.11,-2.94 -1.09,-4.14 -2.77,-8.08 -5.04,-11.83 -2.27,-3.75 -5.16,-6.84 -8.67,-9.26 -3.52,-2.42 -7.35,-3.63 -11.49,-3.63 -8.43,0 -15.66,1.89 -21.68,5.68 -6.01,3.79 -9.01,9.75 -9.01,17.87 0,2.98 0.31,5.63 0.93,7.98 l 4.69,19.33 c 0.63,1.8 0.94,3.86 0.94,6.21 0,6.02 -2.06,10.74 -6.16,14.18 -4.1,3.44 -9.2,5.16 -15.3,5.16 h -26.83 l -14.29,-57.42 c -0.4,-1.25 -0.59,-2.31 -0.59,-3.17 0,-1.48 0.9,-2.3 2.69,-2.46 2.74,-0.62 7.93,-0.94 15.59,-0.94 1.49,0 2.23,-0.93 2.23,-2.81 -0.48,-2.03 -0.84,-3.34 -1.12,-3.93 -0.27,-0.58 -1.11,-0.88 -2.52,-0.88 z m 57.19,77.23 h 24.14 c 15.78,0 27.66,3.99 35.63,11.96 3.67,3.67 6.6,8.36 8.79,14.06 2.18,5.7 3.28,11.4 3.28,17.11 0,5.38 -1.59,9.6 -4.75,12.65 -3.17,3.05 -7.07,5.14 -11.72,6.27 -4.65,1.13 -9.74,1.7 -15.29,1.7 h -14.54 c -3.98,0 -6.62,-0.35 -7.91,-1.06 -1.28,-0.69 -2.43,-2.84 -3.44,-6.44 l -14.19,-56.25"
         style="fill:#000000;fill-opacity:1;fill-rule:nonzero;stroke:none"
         id="path4559"
         inkscape:connector-curvature="0" /><path
         d="m 2187.18,2307.4 c -1.48,0 -2.22,0.94 -2.22,2.81 0.08,0.4 0.23,1.06 0.47,2 0.23,0.93 0.55,1.64 0.94,2.11 0.38,0.47 0.93,0.7 1.63,0.7 13.21,0 24.5,4.93 33.87,14.77 0.16,0.16 0.33,0.27 0.52,0.35 0.2,0.07 0.3,0.12 0.3,0.12 l 47.58,51.33 -25.9,62.34 c -1.48,1.95 -3.91,3.18 -7.27,3.69 -3.36,0.51 -7.26,0.76 -11.71,0.76 -1.41,0 -2.11,0.94 -2.11,2.82 0.54,1.87 0.95,3.14 1.23,3.8 0.27,0.67 1.11,1 2.52,1 h 54.38 c 1.4,0 2.1,-0.98 2.1,-2.93 -0.08,-0.32 -0.23,-0.94 -0.47,-1.87 -0.24,-0.95 -0.55,-1.65 -0.94,-2.11 -0.39,-0.47 -0.93,-0.71 -1.63,-0.71 -2.74,0 -5.53,-0.45 -8.39,-1.35 -2.85,-0.89 -4.86,-2.32 -6.03,-4.27 l 18.75,-45.12 35.63,38.32 c 0.23,0.47 0.74,1.33 1.52,2.58 0.78,1.25 1.17,2.42 1.17,3.51 0,2.11 -0.92,3.69 -2.75,4.75 -1.83,1.05 -4.05,1.58 -6.62,1.58 -1.49,0 -2.23,0.94 -2.23,2.82 0.55,1.87 0.96,3.14 1.23,3.8 0.27,0.67 1.11,1 2.52,1 h 47.11 c 0.78,0 1.35,-0.29 1.7,-0.88 0.35,-0.59 0.52,-1.27 0.52,-2.05 0,-0.32 -0.12,-0.9 -0.35,-1.76 -0.23,-0.86 -0.52,-1.56 -0.87,-2.11 -0.36,-0.55 -0.88,-0.82 -1.59,-0.82 -6.72,0 -12.88,-1.23 -18.51,-3.69 -5.62,-2.46 -10.82,-6.15 -15.59,-11.08 -0.08,-0.07 -0.17,-0.13 -0.3,-0.17 -0.11,-0.04 -0.21,-0.14 -0.29,-0.29 l -39.48,-42.43 29.76,-71.36 c 2.34,-2.89 8.67,-4.34 18.99,-4.34 1.4,0 2.1,-0.93 2.1,-2.81 -0.47,-1.95 -0.86,-3.25 -1.17,-3.87 -0.31,-0.63 -1.13,-0.94 -2.46,-0.94 h -54.37 c -1.41,0 -2.12,0.94 -2.12,2.81 0.08,0.4 0.22,1.04 0.42,1.94 0.19,0.9 0.48,1.6 0.87,2.11 0.4,0.51 0.86,0.76 1.41,0.76 2.81,0 5.68,0.45 8.61,1.35 2.93,0.9 4.95,2.33 6.04,4.28 l -22.62,54.14 -43.94,-47.47 c -0.24,-0.46 -0.75,-1.3 -1.52,-2.52 -0.79,-1.21 -1.18,-2.36 -1.18,-3.45 0,-2.11 1,-3.69 2.99,-4.74 1.99,-1.06 4.12,-1.59 6.38,-1.59 1.49,0 2.23,-0.93 2.23,-2.81 -0.47,-2.03 -0.83,-3.34 -1.11,-3.93 -0.27,-0.58 -1.15,-0.88 -2.64,-0.88 h -47.11"
         style="fill:#000000;fill-opacity:1;fill-rule:nonzero;stroke:none"
         id="path4561"
         inkscape:connector-curvature="0" /><path
         d="m 2397.72,2320.65 c 3.91,-6.64 11.76,-9.96 23.56,-9.96 5.08,0 9.93,0.88 14.54,2.63 4.6,1.76 8.41,4.36 11.42,7.79 3.01,3.44 4.51,7.66 4.51,12.66 0,3.75 -1.35,6.82 -4.05,9.2 -2.69,2.38 -5.99,4.01 -9.9,4.87 l -11.83,2.34 c -5.31,1.33 -9.71,3.85 -13.18,7.55 -3.48,3.72 -5.22,8.19 -5.22,13.42 0,6.41 1.74,12.09 5.22,17.06 3.47,4.96 8.09,8.75 13.82,11.36 5.74,2.62 11.7,3.93 17.87,3.93 6.57,0 12.46,-1.56 17.7,-4.69 5.23,-3.12 7.85,-7.77 7.85,-13.95 0,-3.36 -0.94,-6.31 -2.81,-8.84 -1.88,-2.54 -4.49,-3.81 -7.85,-3.81 -1.96,0 -3.62,0.63 -4.98,1.88 -1.37,1.25 -2.05,2.81 -2.05,4.68 0,1.72 0.48,3.38 1.46,4.98 0.98,1.6 2.25,2.88 3.81,3.81 1.56,0.94 3.2,1.4 4.92,1.4 -1.25,3.13 -3.63,5.4 -7.15,6.8 -3.51,1.41 -7.3,2.12 -11.37,2.12 -3.67,0 -7.34,-0.75 -11.01,-2.23 -3.67,-1.49 -6.62,-3.65 -8.85,-6.51 -2.22,-2.85 -3.33,-6.23 -3.33,-10.13 0,-2.66 0.91,-4.96 2.75,-6.92 1.83,-1.95 4.12,-3.36 6.85,-4.21 l 12.54,-2.58 c 4.06,-0.86 7.77,-2.37 11.13,-4.52 3.36,-2.14 6.02,-4.88 7.98,-8.2 1.95,-3.32 2.92,-7.09 2.92,-11.31 0,-5.39 -1.5,-10.7 -4.51,-15.93 -3.01,-5.24 -6.7,-9.42 -11.07,-12.54 -7.74,-5.24 -17.19,-7.85 -28.36,-7.85 -7.74,0 -14.83,1.77 -21.27,5.33 -6.45,3.55 -9.67,8.85 -9.67,15.87 0,3.91 1.15,7.33 3.46,10.26 2.31,2.93 5.45,4.39 9.43,4.39 2.34,0 4.3,-0.7 5.86,-2.1 1.56,-1.41 2.34,-3.29 2.34,-5.63 0,-3.28 -1.23,-6.17 -3.69,-8.67 -2.46,-2.5 -5.37,-3.75 -8.73,-3.75 h -1.06"
         style="fill:#000000;fill-opacity:1;fill-rule:nonzero;stroke:none"
         id="path4563"
         inkscape:connector-curvature="0" /><path
         d="m 2498.97,2322.99 c 0,2.73 0.59,5.58 1.76,8.56 l 17.59,46.75 c 1.87,5.32 2.81,9.69 2.81,13.13 0,4.3 -1.56,6.45 -4.69,6.45 -5.78,0 -10.53,-2.95 -14.24,-8.85 -3.71,-5.9 -6.47,-12.53 -8.26,-19.87 -0.23,-0.86 -0.82,-1.28 -1.76,-1.28 h -2.58 c -1.17,0 -1.76,0.66 -1.76,1.98 v 0.59 c 2.35,8.68 5.92,16.35 10.73,23.03 4.81,6.68 10.88,10.02 18.22,10.02 5.16,0 9.53,-1.7 13.12,-5.1 3.59,-3.4 5.39,-7.72 5.39,-12.95 0,-2.66 -0.58,-5.47 -1.75,-8.44 l -17.7,-46.75 c -1.95,-4.85 -2.93,-9.22 -2.93,-13.13 0,-4.29 1.64,-6.44 4.92,-6.44 5.71,0 10.45,3.02 14.24,9.08 3.79,6.05 6.47,12.59 8.03,19.63 0.24,0.86 0.78,1.29 1.64,1.29 h 2.7 c 0.54,0 0.99,-0.2 1.35,-0.59 0.34,-0.39 0.52,-0.86 0.52,-1.4 0,-0.09 -0.08,-0.28 -0.23,-0.59 -1.96,-8.21 -5.39,-15.79 -10.31,-22.73 -4.93,-6.96 -11.03,-10.43 -18.29,-10.43 -5.15,0 -9.53,1.75 -13.12,5.26 -3.6,3.52 -5.4,7.78 -5.4,12.78 z m 24.5,116.25 c 0,3.05 1.29,5.8 3.87,8.26 2.57,2.46 5.39,3.7 8.44,3.7 2.42,0 4.43,-0.77 6.02,-2.29 1.61,-1.52 2.41,-3.46 2.41,-5.8 0,-3.21 -1.29,-6.04 -3.87,-8.5 -2.58,-2.46 -5.43,-3.69 -8.55,-3.69 -2.34,0 -4.32,0.8 -5.92,2.4 -1.6,1.6 -2.4,3.57 -2.4,5.92"
         style="fill:#000000;fill-opacity:1;fill-rule:nonzero;stroke:none"
         id="path4565"
         inkscape:connector-curvature="0" /><path
         d="m 2574.54,2311.15 c 0,0.86 0.07,1.49 0.23,1.88 l 16.29,64.92 c 1.01,3.98 1.52,7.5 1.52,10.55 0,6.25 -2.11,9.38 -6.33,9.38 -4.53,0 -7.89,-2.72 -10.07,-8.15 -2.19,-5.43 -4.34,-12.28 -6.45,-20.57 0,-0.39 -0.19,-0.7 -0.59,-0.94 -0.39,-0.23 -0.78,-0.34 -1.17,-0.34 h -2.58 c -0.47,0 -0.88,0.25 -1.23,0.75 -0.35,0.51 -0.52,1 -0.52,1.47 1.56,6.25 3.06,11.58 4.5,15.99 1.45,4.42 3.72,8.42 6.81,12.02 3.09,3.59 6.93,5.39 11.54,5.39 5.39,0 10.17,-1.72 14.36,-5.16 4.18,-3.43 6.27,-7.81 6.27,-13.13 4.37,5.71 9.45,10.18 15.23,13.42 5.78,3.25 11.95,4.87 18.52,4.87 6.87,0 12.79,-1.76 17.75,-5.28 4.96,-3.51 7.44,-8.47 7.44,-14.88 4.45,6.33 9.69,11.27 15.7,14.83 6.02,3.55 12.54,5.33 19.57,5.33 7.5,0 13.54,-2.03 18.11,-6.1 4.56,-4.06 6.85,-9.84 6.85,-17.34 0,-5.93 -1.33,-13.12 -3.98,-21.56 -2.66,-8.44 -5.93,-17.86 -9.84,-28.24 -2.11,-5 -3.17,-9.38 -3.17,-13.13 0,-4.29 1.72,-6.44 5.16,-6.44 5.62,0 10.31,3.04 14.06,9.13 3.75,6.1 6.41,12.63 7.97,19.58 0.47,0.86 1.09,1.29 1.88,1.29 h 2.45 c 0.63,0 1.14,-0.2 1.53,-0.59 0.39,-0.39 0.58,-0.86 0.58,-1.4 0,-0.09 -0.07,-0.28 -0.23,-0.59 -2.03,-8.21 -5.51,-15.79 -10.43,-22.73 -4.92,-6.96 -11.06,-10.43 -18.4,-10.43 -5.08,0 -9.41,1.75 -13,5.26 -3.6,3.52 -5.4,7.78 -5.4,12.78 0,2.58 0.59,5.43 1.76,8.56 4.06,10.86 7.46,20.58 10.2,29.17 2.73,8.6 4.1,16.14 4.1,22.62 0,4.07 -0.8,7.5 -2.4,10.31 -1.61,2.82 -4.32,4.23 -8.15,4.23 -7.97,0 -14.84,-2.43 -20.63,-7.27 -5.78,-4.85 -10.81,-11.25 -15.11,-19.22 -0.24,-1.49 -0.43,-2.62 -0.58,-3.4 l -14.07,-55.78 c -0.46,-2.03 -1.58,-3.75 -3.34,-5.16 -1.76,-1.41 -3.69,-2.1 -5.8,-2.1 -1.72,0 -3.22,0.56 -4.51,1.69 -1.3,1.14 -1.94,2.64 -1.94,4.51 0,0.86 0.08,1.49 0.24,1.88 l 13.82,55.43 c 1.49,5.93 2.23,10.9 2.23,14.88 0,4.07 -0.82,7.5 -2.46,10.31 -1.64,2.82 -4.45,4.23 -8.44,4.23 -5.31,0 -10.19,-1.18 -14.64,-3.52 -4.46,-2.35 -8.35,-5.43 -11.67,-9.26 -3.32,-3.83 -6.38,-8.4 -9.19,-13.71 l -14.77,-59.18 c -0.47,-2.03 -1.56,-3.75 -3.28,-5.16 -1.71,-1.41 -3.67,-2.1 -5.86,-2.1 -1.72,0 -3.22,0.56 -4.51,1.69 -1.29,1.14 -1.93,2.64 -1.93,4.51"
         style="fill:#000000;fill-opacity:1;fill-rule:nonzero;stroke:none"
         id="path4567"
         inkscape:connector-curvature="0" /><path
         d="m 1522.55,2360.21 h 300.5"
         style="fill:none;stroke:#7e2f8e;stroke-width:15;stroke-linecap:butt;stroke-linejoin:round;stroke-miterlimit:10;stroke-dasharray:none;stroke-opacity:1"
         id="path4569"
         inkscape:connector-curvature="0" /><path
         d="m 1492.5,2212.5 h 1290 V 3315 h -1290 z"
         style="fill:none;stroke:#262626;stroke-width:5.00250006;stroke-linecap:butt;stroke-linejoin:miter;stroke-miterlimit:10;stroke-dasharray:none;stroke-opacity:1"
         id="path4571"
         inkscape:connector-curvature="0" /></g></g></svg>