<?xml version="1.0" encoding="UTF-8" standalone="no"?>
<svg
   xmlns:dc="http://purl.org/dc/elements/1.1/"
   xmlns:cc="http://creativecommons.org/ns#"
   xmlns:rdf="http://www.w3.org/1999/02/22-rdf-syntax-ns#"
   xmlns:svg="http://www.w3.org/2000/svg"
   xmlns="http://www.w3.org/2000/svg"
   viewBox="0 0 1200 500"
   height="500"
   width="1200"
   xml:space="preserve"
   id="svg2"
   version="1.1"><metadata
     id="metadata8"><rdf:RDF><cc:Work
         rdf:about=""><dc:format>image/svg+xml</dc:format><dc:type
           rdf:resource="http://purl.org/dc/dcmitype/StillImage" /></cc:Work></rdf:RDF></metadata><defs
     id="defs6" /><g
     transform="matrix(1.3333333,0,0,-1.3333333,0,500)"
     id="g10"><g
       transform="scale(0.1)"
       id="g12"><path
         id="path14"
         style="fill:#ffffff;fill-opacity:1;fill-rule:nonzero;stroke:none"
         d="M 0,0 H 9000 V 3750 H 0 Z" /><path
         id="path16"
         style="fill:#ffffff;fill-opacity:1;fill-rule:nonzero;stroke:none"
         d="M 0,0 H 9000 V 3750 H 0 Z" /><path
         id="path18"
         style="fill:#ffffff;fill-opacity:1;fill-rule:nonzero;stroke:none"
         d="M 1395,600 H 8595 V 3412.5 H 1395 Z" /><path
         id="path20"
         style="fill:none;stroke:#262626;stroke-width:5.00250006;stroke-linecap:square;stroke-linejoin:round;stroke-miterlimit:10;stroke-dasharray:none;stroke-opacity:1"
         d="M 1395,600 H 8595" /><path
         id="path22"
         style="fill:none;stroke:#262626;stroke-width:5.00250006;stroke-linecap:square;stroke-linejoin:round;stroke-miterlimit:10;stroke-dasharray:none;stroke-opacity:1"
         d="M 1395,3412.5 H 8595" /><path
         id="path24"
         style="fill:none;stroke:#262626;stroke-width:5.00250006;stroke-linecap:square;stroke-linejoin:round;stroke-miterlimit:10;stroke-dasharray:none;stroke-opacity:1"
         d="m 1395,600 v 72" /><path
         id="path26"
         style="fill:none;stroke:#262626;stroke-width:5.00250006;stroke-linecap:square;stroke-linejoin:round;stroke-miterlimit:10;stroke-dasharray:none;stroke-opacity:1"
         d="m 2297.26,600 v 72" /><path
         id="path28"
         style="fill:none;stroke:#262626;stroke-width:5.00250006;stroke-linecap:square;stroke-linejoin:round;stroke-miterlimit:10;stroke-dasharray:none;stroke-opacity:1"
         d="m 3199.52,600 v 72" /><path
         id="path30"
         style="fill:none;stroke:#262626;stroke-width:5.00250006;stroke-linecap:square;stroke-linejoin:round;stroke-miterlimit:10;stroke-dasharray:none;stroke-opacity:1"
         d="m 4101.77,600 v 72" /><path
         id="path32"
         style="fill:none;stroke:#262626;stroke-width:5.00250006;stroke-linecap:square;stroke-linejoin:round;stroke-miterlimit:10;stroke-dasharray:none;stroke-opacity:1"
         d="m 5004.02,600 v 72" /><path
         id="path34"
         style="fill:none;stroke:#262626;stroke-width:5.00250006;stroke-linecap:square;stroke-linejoin:round;stroke-miterlimit:10;stroke-dasharray:none;stroke-opacity:1"
         d="m 5906.28,600 v 72" /><path
         id="path36"
         style="fill:none;stroke:#262626;stroke-width:5.00250006;stroke-linecap:square;stroke-linejoin:round;stroke-miterlimit:10;stroke-dasharray:none;stroke-opacity:1"
         d="m 6808.54,600 v 72" /><path
         id="path38"
         style="fill:none;stroke:#262626;stroke-width:5.00250006;stroke-linecap:square;stroke-linejoin:round;stroke-miterlimit:10;stroke-dasharray:none;stroke-opacity:1"
         d="m 7710.79,600 v 72" /><path
         id="path40"
         style="fill:none;stroke:#262626;stroke-width:5.00250006;stroke-linecap:square;stroke-linejoin:round;stroke-miterlimit:10;stroke-dasharray:none;stroke-opacity:1"
         d="m 1395,3412.5 v -72" /><path
         id="path42"
         style="fill:none;stroke:#262626;stroke-width:5.00250006;stroke-linecap:square;stroke-linejoin:round;stroke-miterlimit:10;stroke-dasharray:none;stroke-opacity:1"
         d="m 2297.26,3412.5 v -72" /><path
         id="path44"
         style="fill:none;stroke:#262626;stroke-width:5.00250006;stroke-linecap:square;stroke-linejoin:round;stroke-miterlimit:10;stroke-dasharray:none;stroke-opacity:1"
         d="m 3199.52,3412.5 v -72" /><path
         id="path46"
         style="fill:none;stroke:#262626;stroke-width:5.00250006;stroke-linecap:square;stroke-linejoin:round;stroke-miterlimit:10;stroke-dasharray:none;stroke-opacity:1"
         d="m 4101.77,3412.5 v -72" /><path
         id="path48"
         style="fill:none;stroke:#262626;stroke-width:5.00250006;stroke-linecap:square;stroke-linejoin:round;stroke-miterlimit:10;stroke-dasharray:none;stroke-opacity:1"
         d="m 5004.02,3412.5 v -72" /><path
         id="path50"
         style="fill:none;stroke:#262626;stroke-width:5.00250006;stroke-linecap:square;stroke-linejoin:round;stroke-miterlimit:10;stroke-dasharray:none;stroke-opacity:1"
         d="m 5906.28,3412.5 v -72" /><path
         id="path52"
         style="fill:none;stroke:#262626;stroke-width:5.00250006;stroke-linecap:square;stroke-linejoin:round;stroke-miterlimit:10;stroke-dasharray:none;stroke-opacity:1"
         d="m 6808.54,3412.5 v -72" /><path
         id="path54"
         style="fill:none;stroke:#262626;stroke-width:5.00250006;stroke-linecap:square;stroke-linejoin:round;stroke-miterlimit:10;stroke-dasharray:none;stroke-opacity:1"
         d="m 7710.79,3412.5 v -72" /><g
         transform="scale(10)"
         id="g56"><text
           id="text60"
           style="font-variant:normal;font-weight:normal;font-size:20.00020027px;font-family:Helvetica;-inkscape-font-specification:Helvetica;writing-mode:lr-tb;fill:#262626;fill-opacity:1;fill-rule:nonzero;stroke:none"
           transform="matrix(1,0,0,-1,133.5,33)"><tspan
             id="tspan58"
             y="0"
             x="0 90.225105 174.82574 185.94586 265.05084 276.17096 355.27637 366.39645 445.50146 456.62155 535.72693 546.84705 625.95209 637.07214">05101520253035</tspan></text>
<text
           id="text64"
           style="font-variant:normal;font-weight:normal;font-size:21.99970055px;font-family:Helvetica;-inkscape-font-specification:Helvetica;writing-mode:lr-tb;fill:#262626;fill-opacity:1;fill-rule:nonzero;stroke:none"
           transform="matrix(1,0,0,-1,449.625,5)"><tspan
             id="tspan62"
             y="0"
             x="0 13.441816 25.673651 43.999401 56.231232 68.463066 74.578979 81.904884 92.904732">Tempo (s)</tspan></text>
</g><path
         id="path66"
         style="fill:none;stroke:#262626;stroke-width:5.00250006;stroke-linecap:square;stroke-linejoin:round;stroke-miterlimit:10;stroke-dasharray:none;stroke-opacity:1"
         d="M 1395,600 V 3412.5" /><path
         id="path68"
         style="fill:none;stroke:#262626;stroke-width:5.00250006;stroke-linecap:square;stroke-linejoin:round;stroke-miterlimit:10;stroke-dasharray:none;stroke-opacity:1"
         d="M 8595,600 V 3412.5" /><path
         id="path70"
         style="fill:none;stroke:#262626;stroke-width:5.00250006;stroke-linecap:square;stroke-linejoin:round;stroke-miterlimit:10;stroke-dasharray:none;stroke-opacity:1"
         d="m 1395,878.582 h 72" /><path
         id="path72"
         style="fill:none;stroke:#262626;stroke-width:5.00250006;stroke-linecap:square;stroke-linejoin:round;stroke-miterlimit:10;stroke-dasharray:none;stroke-opacity:1"
         d="m 1395,1377.38 h 72" /><path
         id="path74"
         style="fill:none;stroke:#262626;stroke-width:5.00250006;stroke-linecap:square;stroke-linejoin:round;stroke-miterlimit:10;stroke-dasharray:none;stroke-opacity:1"
         d="m 1395,1876.18 h 72" /><path
         id="path76"
         style="fill:none;stroke:#262626;stroke-width:5.00250006;stroke-linecap:square;stroke-linejoin:round;stroke-miterlimit:10;stroke-dasharray:none;stroke-opacity:1"
         d="m 1395,2374.99 h 72" /><path
         id="path78"
         style="fill:none;stroke:#262626;stroke-width:5.00250006;stroke-linecap:square;stroke-linejoin:round;stroke-miterlimit:10;stroke-dasharray:none;stroke-opacity:1"
         d="m 1395,2873.79 h 72" /><path
         id="path80"
         style="fill:none;stroke:#262626;stroke-width:5.00250006;stroke-linecap:square;stroke-linejoin:round;stroke-miterlimit:10;stroke-dasharray:none;stroke-opacity:1"
         d="m 1395,3372.59 h 72" /><path
         id="path82"
         style="fill:none;stroke:#262626;stroke-width:5.00250006;stroke-linecap:square;stroke-linejoin:round;stroke-miterlimit:10;stroke-dasharray:none;stroke-opacity:1"
         d="m 8595,878.582 h -72" /><path
         id="path84"
         style="fill:none;stroke:#262626;stroke-width:5.00250006;stroke-linecap:square;stroke-linejoin:round;stroke-miterlimit:10;stroke-dasharray:none;stroke-opacity:1"
         d="m 8595,1377.38 h -72" /><path
         id="path86"
         style="fill:none;stroke:#262626;stroke-width:5.00250006;stroke-linecap:square;stroke-linejoin:round;stroke-miterlimit:10;stroke-dasharray:none;stroke-opacity:1"
         d="m 8595,1876.18 h -72" /><path
         id="path88"
         style="fill:none;stroke:#262626;stroke-width:5.00250006;stroke-linecap:square;stroke-linejoin:round;stroke-miterlimit:10;stroke-dasharray:none;stroke-opacity:1"
         d="m 8595,2374.99 h -72" /><path
         id="path90"
         style="fill:none;stroke:#262626;stroke-width:5.00250006;stroke-linecap:square;stroke-linejoin:round;stroke-miterlimit:10;stroke-dasharray:none;stroke-opacity:1"
         d="m 8595,2873.79 h -72" /><path
         id="path92"
         style="fill:none;stroke:#262626;stroke-width:5.00250006;stroke-linecap:square;stroke-linejoin:round;stroke-miterlimit:10;stroke-dasharray:none;stroke-opacity:1"
         d="m 8595,3372.59 h -72" /><g
         transform="scale(10)"
         id="g94"><text
           id="text108"
           style="font-variant:normal;font-weight:normal;font-size:20.00020027px;font-family:Helvetica;-inkscape-font-specification:Helvetica;writing-mode:lr-tb;fill:#262626;fill-opacity:1;fill-rule:nonzero;stroke:none"
           transform="matrix(1,0,0,-1,110.25,79.6082)"><tspan
             id="tspan96"
             y="0"
             x="0 11.120111">15</tspan><tspan
             id="tspan98"
             y="-49.880501"
             x="0 11.120111">20</tspan><tspan
             id="tspan100"
             y="-99.760597"
             x="0 11.120111">25</tspan><tspan
             id="tspan102"
             y="-149.6411"
             x="0 11.120111">30</tspan><tspan
             id="tspan104"
             y="-199.52119"
             x="0 11.120111">35</tspan><tspan
             id="tspan106"
             y="-249.4017"
             x="0 11.120111">40</tspan></text>
<text
           id="text112"
           style="font-variant:normal;font-weight:normal;font-size:21.99970055px;font-family:Helvetica;-inkscape-font-specification:Helvetica;writing-mode:lr-tb;fill:#262626;fill-opacity:1;fill-rule:nonzero;stroke:none"
           transform="matrix(0,1,1,0,102,147.375)"><tspan
             id="tspan110"
             y="0"
             x="0 14.6738 19.557734 25.673651 37.905483 45.231384 57.463215 63.579132 70.905029 81.904884 100.23064">Altura (cm)</tspan></text>
</g><g
         transform="scale(10)"
         id="g114"><text
           id="text118"
           style="font-variant:normal;font-weight:bold;font-size:21.99970055px;font-family:Helvetica;-inkscape-font-specification:Helvetica-Bold;writing-mode:lr-tb;fill:#000000;fill-opacity:1;fill-rule:nonzero;stroke:none"
           transform="matrix(1,0,0,-1,222.375,350.625)"><tspan
             id="tspan116"
             y="0"
             x="0 15.883783 28.115616 40.34745 53.789265 67.231087 79.462914 86.788818 99.020653 105.13657 117.3684 123.48431 143.04205 156.48387 169.92569 182.15752 195.59933 207.83116 220.063 226.17891 239.62073 251.85257 257.96848 271.41031 283.64212 292.20001 304.43185 323.98959 336.22141 343.5473 352.10519 365.54703 377.77884 383.89478 397.33658 410.77841 416.89432 436.45206 449.89386 463.33569 475.5675 481.68344 495.12524 501.24115 515.91498 531.79877 547.68256">Resposta à mudança de parâmetros do modelo SUB1</tspan></text>
</g><path
         id="path120"
         style="fill:none;stroke:#ff0000;stroke-width:15;stroke-linecap:butt;stroke-linejoin:miter;stroke-miterlimit:10;stroke-dasharray:none;stroke-opacity:1"
         d="m 1395,2374.99 h 9.02 9.03 9.02 9.02 9.02 9.03 9.02 9.02 9.02 9.03 9.02 9.02 9.02 9.03 9.02 9.02 9.02 9.03 9.02 9.02 9.02 9.03 9.02 9.02 9.02 9.03 9.02 9.02 9.02 9.03 9.02 9.02 9.02 9.03 9.02 9.02 9.02 9.03 9.02 9.02 9.02 9.03 9.02 9.02 9.02 9.03 9.02 9.02 9.02 9.03 9.02 9.02 9.02 9.02 9.03 9.02 9.02 9.02 9.03 9.02 9.02 9.02 9.03 9.02 9.02 9.02 9.04 9.02 9.02 9.02 9.03 9.02 9.02 9.02 9.03 9.02 9.02 9.02 9.03 9.02 9.02 9.02 9.03 9.02 9.02 9.02 9.02 9.03 9.02 9.02 9.02 9.03 9.02 9.02 9.02 9.03 9.02 9.02 9.02 9.03 9.02 9.02 9.02 9.03 9.02 9.02 9.02 9.03 9.02 9.02 9.02 9.03 9.02 9.02 9.02 9.03 9.02 9.02 9.02 9.03 9.02 9.02 9.02 9.03 9.02 9.02 9.02 9.03 9.02 9.02 9.03 9.02 9.02 9.02 9.03 9.02 9.02 9.02 9.03 9.02 9.02 9.02 9.03 9.02 9.02 9.02 9.03 9.02 9.02 9.02 9.03 9.02 9.02 9.02 9.03 9.02 9.02 9.02 9.03 9.02 9.02 9.02 9.03 9.02 9.02 9.02 9.03 9.02 9.02 9.02 9.03 9.02 9.02 9.02 9.03 9.02 9.02 9.02 9.03 9.02 9.02 9.02 9.03 9.02 9.02 9.02 9.02 9.03 9.02 9.02 9.02 9.03 9.02 9.02 9.02 9.03 9.02 9.02 9.02 v 997.6 h 9.04 9.02 9.02 9.02 9.03 9.02 9.02 9.02 9.03 9.02 9.02 9.02 9.03 9.02 9.02 9.02 9.03 9.02 9.02 9.02 9.02 9.03 9.02 9.02 9.02 9.03 9.02 9.02 9.02 9.03 9.02 9.02 9.02 9.03 9.02 9.02 9.02 9.03 9.02 9.02 9.02 9.03 9.02 9.02 9.02 9.03 9.02 9.02 9.02 9.03 9.02 9.02 9.02 9.03 9.02 9.02 9.02 9.03 9.02 9.02 9.02 9.03 9.02 9.02 9.03 9.02 9.02 9.02 9.03 9.02 9.02 9.02 9.03 9.02 9.02 9.02 9.03 9.02 9.02 9.02 9.03 9.02 9.02 9.02 9.03 9.02 9.02 9.02 9.03 9.02 9.02 9.02 9.03 9.02 9.02 9.02 9.03 9.02 9.02 9.02 9.03 9.02 9.02 9.02 9.03 9.02 9.02 9.02 9.03 9.02 9.02 9.02 9.03 9.02 9.02 9.02 9.03 9.02 9.02 9.02 9.02 9.03 9.02 9.02 9.02 9.03 9.02 9.02 9.02 9.03 9.02 9.02 9.02 9.04 9.02 9.02 9.02 9.03 9.02 9.02 9.02 9.03 9.02 9.02 9.02 9.03 9.02 9.02 9.02 9.03 9.02 9.02 9.02 9.02 9.03 9.02 9.02 9.02 9.03 9.02 9.02 9.02 9.03 9.02 9.02 9.02 9.03 9.02 9.02 9.02 9.03 9.02 9.02 9.02 9.03 9.02 9.02 9.02 9.03 9.02 9.02 9.02 9.03 9.02 9.02 9.02 9.03 9.02 9.02 9.02 9.03 9.02 9.02 9.02 9.03 9.02 9.02 9.03 9.02 9.02 9.02 9.03 9.02 9.02 9.02 9.03 9.02 9.02 9.02 9.03 9.02 9.02 9.02 9.03 9.02 9.02 9.02 9.03 9.02 9.02 9.02 9.03 9.02 9.02 9.02 9.03 9.02 9.02 9.02 9.03 9.02 9.02 9.02 9.03 9.02 9.02 9.02 9.03 9.02 9.02 9.02 9.03 9.02 9.02 9.02 9.03 9.02 9.02 9.02 9.03 9.02 9.02 9.02 9.02 9.03 9.02 9.02 9.02 9.03 9.02 9.02 9.02 9.03 9.02 9.02 9.02 9.04 9.02 9.02 9.02 9.03 9.02 9.02 9.02 9.03 9.02 9.02 9.02 9.03 9.02 9.02 9.02 9.03 9.02 9.02 9.02 9.02 9.03 9.02 9.02 9.02 9.03 9.02 9.02 9.02 9.03 9.02 9.02 9.02 9.03 9.02 9.02 9.02 9.03 9.02 9.02 9.02 9.03 9.02 9.02 9.02 9.03 9.02 9.02 9.02 9.03 9.02 9.02 9.02 9.03 9.02 9.02 9.02 9.03 9.02 9.02 9.02 9.03 9.02 9.02 9.03 9.02 9.02 9.02 9.03 9.02 9.02 9.02 9.03 9.02 9.02 9.02 9.03 9.02 9.02 9.02 9.03 9.02 9.02 9.02 9.03 9.02 9.02 9.02 9.03 9.02 9.02 9.02 9.03 9.02 9.02 9.02 9.03 9.02 9.02 9.02 9.03 9.02 9.02 9.02 9.03 9.02 9.02 9.02 9.03 9.02 9.02 9.02 9.03 9.02 9.02 9.02 9.03 9.02 9.02 9.02 9.02 9.03 9.02 9.02 9.02 9.03 9.02 9.02 9.02 9.03 9.02 9.02 9.02 9.04 9.02 9.02 9.02 9.03 9.02 9.02 9.02 9.03 9.02 9.02 9.02 9.03 9.02 9.02 9.02 9.03 9.02 9.02 9.02 9.02 9.03 9.02 9.02 9.02 9.03 9.02 9.02 9.02 9.03 9.02 9.02 9.02 9.03 9.02 9.02 9.02 9.03 9.02 9.02 9.02 9.03 9.02 9.02 9.02 9.03 9.02 9.02 9.02 9.03 9.02 9.02 9.02 9.03 9.02 9.02 9.02 9.03 9.02 9.02 9.02 9.03 9.02 9.02 9.03 9.02 9.02 9.02 9.03 9.02 9.02 9.02 9.03 9.02 9.02 9.02 9.03 9.02 9.02 9.02 9.03 9.02 9.02 9.02 9.03 9.02 9.02 9.02 9.03 9.02 9.02 9.02 9.03 9.02 9.02 9.02 9.03 9.02 9.02 9.02 9.03 9.02 9.02 9.02 9.03 9.02 9.02 9.02 9.03 9.02 9.02 9.02 9.03 9.02 9.02 9.02 9.03 9.02 9.02 9.02 9.02 9.03 9.02 9.02 9.02 9.03 9.02 9.03 9.01 9.04 9.02 9.01 9.02 9.03 9.03 9.02 9.02 9.03 9.01 9.03 9.02 9.03 9.02 9.02 9.02 9.03 9.02 9.02 9.02 9.03 9.02 9.02 9.02 9.02 9.03 9.02 9.02 9.02 9.03 9.02 9.03 9.01 9.03 9.02 9.02 9.02 9.03 9.02 9.02 9.02 9.03 9.02 9.02 9.02 9.03 9.02 9.02 9.03 9.02 9.02 9.02 9.02 9.03 9.02 9.02 9.02 9.03 9.02 9.02 9.02 9.03 9.02 9.02 9.03 9.02 9.02 9.02 9.03 9.02 9.02 v 0" /><path
         id="path122"
         style="fill:none;stroke:#0072bd;stroke-width:15;stroke-linecap:butt;stroke-linejoin:miter;stroke-miterlimit:10;stroke-dasharray:none;stroke-opacity:1"
         d="m 1395,604.988 h 9.02 V 1922.41 h 9.03 v 200.05 h 9.02 v -459.87 h 9.02 v -78.34 h 9.02 v 415.95 h 9.03 v -3.56 h 9.02 v -92.22 h 9.02 v 210.98 h 9.02 v -106.92 h 9.03 v -164.52 h 9.02 v 53.71 h 9.02 v 286.49 h 9.02 v -323.99 h 9.03 v -244.14 h 9.02 v 418.3 h 9.02 v -253.16 h 9.02 v -307.41 h 9.03 v 417.9 h 9.02 v -250.34 h 9.02 v -318.21 h 9.02 v 177.05 h 9.03 v 73.99 h 9.02 v -69.02 h 9.02 v 156.2 h 9.02 v 239.78 h 9.03 v -146.93 h 9.02 v -132.73 h 9.02 v 191.7 h 9.02 v -363.29 h 9.03 v -258.64 h 9.02 v 141.02 h 9.02 v 7.41 h 9.02 v 167.99 h 9.03 v 43.16 h 9.02 v -127.76 h 9.02 v 24.53 h 9.02 v -144.21 h 9.03 v 16.4 h 9.02 v -311.33 h 9.02 v 221.11 h 9.02 v 204.76 h 9.03 v -95.56 h 9.02 v 286.6 h 9.02 v -101.8 h 9.02 V 1188 h 9.03 v -149.37 h 9.02 v 184.25 h 9.02 v 27.69 h 9.02 v -69.44 h 9.03 v 186.73 h 9.02 v 171.68 h 9.02 v -17.26 h 9.02 v 152.84 h 9.02 v -301.01 h 9.03 V 949.148 h 9.02 v 117.392 h 9.02 v 482.97 h 9.02 v -185.96 h 9.03 v -322.71 h 9.02 v 386.33 h 9.02 v 462.09 h 9.02 v -337.72 h 9.03 v 499.41 h 9.02 v -257.63 h 9.02 v -355.14 h 9.02 v 449.86 h 9.04 v -74.97 h 9.02 v 62.16 h 9.02 v -74.34 h 9.02 v -310.18 h 9.03 v 392.11 h 9.02 v 230.03 h 9.02 v -284.19 h 9.02 v 3.97 h 9.03 v 79.67 h 9.02 v -6.44 h 9.02 v -175.49 h 9.02 v -54.58 h 9.03 v 121.1 h 9.02 v -17.97 h 9.02 v -195.55 h 9.02 v -310.86 h 9.03 v 209.2 h 9.02 v 58.33 h 9.02 v -348.02 h 9.02 v 164.17 h 9.02 v 313.89 h 9.03 v -496.53 h 9.02 v 52.82 h 9.02 v 148.37 h 9.02 v -40.73 h 9.03 v -38.05 h 9.02 v 13.46 h 9.02 v 9.12 h 9.02 v -4.25 h 9.03 v -2.11 h 9.02 v 1.28 h 9.02 v 0.47 h 9.02 v -0.38 h 9.03 v -0.1 h 9.02 v 183.73 h 9.02 v -29.32 h 9.02 v -163.83 h 9.03 v 86.49 h 9.02 v 205.5 h 9.02 v -412.71 h 9.02 v 247 h 9.03 v 183.72 h 9.02 v -173.46 h 9.02 v -99.9 h 9.02 v 196.24 h 9.03 v -50.97 h 9.02 v -307.81 h 9.02 v 193.16 h 9.02 v 301.35 h 9.03 v -503.3 h 9.02 v 330.36 h 9.02 v 60.84 h 9.02 v -122.27 h 9.03 v -263.3 h 9.02 v 23.2 h 9.02 v 232.67 h 9.02 v -199.71 h 9.03 v 383.91 h 9.02 v -109.78 h 9.02 v -8.78 h 9.02 v -91.81 h 9.03 v -196.88 h 9.02 v 91.82 h 9.02 v 334.89 h 9.03 v -496.91 h 9.02 v 233.27 h 9.02 v 298.32 h 9.02 v -230.62 h 9.03 v -387.47 h 9.02 v 486.35 h 9.02 v -178.67 h 9.02 v -135.89 h 9.03 v 374.07 h 9.02 v -73.84 h 9.02 v -109.56 h 9.02 v -45.67 h 9.03 v 174.33 h 9.02 v -63.89 h 9.02 v -30.78 h 9.02 v 280.65 h 9.03 v -77.85 h 9.02 v -82.4 h 9.02 v 41.74 h 9.02 v -150.01 h 9.03 v -76.26 h 9.02 v 123.11 h 9.02 v -14.75 h 9.02 v 140.38 h 9.03 v 62.96 h 9.02 v -116.56 h 9.02 v 17.3 h 9.02 v 32.26 h 9.03 v -177.07 h 9.02 v 102.73 h 9.02 v 186.78 h 9.02 v -141.61 h 9.03 v -16.39 h 9.02 v 41.13 h 9.02 v 1.59 h 9.02 v 72.6 h 9.03 v -137.65 h 9.02 v 134.05 h 9.02 v -115.36 h 9.02 V 1353.2 h 9.03 v 442.4 h 9.02 v -156.74 h 9.02 v -74.79 h 9.02 v 50.25 h 9.03 v 16.53 h 9.02 v -14.54 h 9.02 v -3.33 h 9.02 v 170.38 h 9.03 v -190.18 h 9.02 v 283.84 h 9.02 v -533.81 h 9.02 v 234.51 h 9.03 v 404.39 h 9.02 v -208.47 h 9.02 v -679.89 h 9.02 v 631.13 h 9.02 v 41.65 h 9.03 v -461.17 h 9.02 v 270.9 h 9.02 v 273.08 h 9.02 v -570.93 h 9.03 v 541.98 h 9.02 v -127.35 h 9.02 v -92.71 h 9.02 v 44.8 h 9.03 v 186.06 h 9.02 v -284.56 h 9.02 v -165.52 h 9.02 v 299.98 h 9.04 v -169.3 h 9.02 v -64.27 h 9.02 v 261.41 h 9.02 v -286.94 h 9.03 v -14.65 h 9.02 v 106.84 h 9.02 v 327.02 h 9.02 v -169.22 h 9.03 v 168.84 h 9.02 v -92.74 h 9.02 v 76.49 h 9.02 v -23.5 h 9.03 v 149.21 h 9.02 v -17.02 h 9.02 v -61.46 h 9.02 v 247.21 h 9.03 V 1762.7 h 9.02 v 44.38 h 9.02 v 410.87 h 9.02 v -156.21 h 9.02 v -248.26 h 9.03 v 306.79 h 9.02 v 12.21 h 9.02 v -401.89 h 9.02 v 208.52 h 9.03 v 52.58 h 9.02 v -294.03 h 9.02 v 371.27 h 9.02 v -38.44 h 9.03 v -186.27 h 9.02 v 4.22 h 9.02 v 84.2 h 9.02 v -18.5 h 9.03 v -176.98 h 9.02 v 261.94 h 9.02 v 68.76 h 9.02 v -218.25 h 9.03 v -12.54 h 9.02 v 246.13 h 9.02 V 1664 h 9.02 v 316.16 h 9.03 v -40.69 h 9.02 v -218.8 h 9.02 v 195.74 h 9.02 v 280.61 h 9.03 v -541.26 h 9.02 v 181.58 h 9.02 v 170.64 h 9.02 v -185.8 h 9.03 v -55.13 h 9.02 v 469.34 h 9.02 v -177.28 h 9.02 v -326.73 h 9.03 v 289.98 h 9.02 v 213.94 h 9.02 v -285.34 h 9.02 v 181.14 h 9.03 v -99.47 h 9.02 v -276.15 h 9.02 v 358.98 h 9.02 v -6.62 h 9.03 v -268.95 h 9.02 v 43.14 h 9.02 v 531.44 h 9.03 V 1809.8 h 9.02 v -21.37 h 9.02 v 364.71 h 9.02 v -57.45 h 9.03 v -44.56 h 9.02 v -84.31 h 9.02 v -76.81 h 9.02 v -46.69 h 9.03 v 533.81 h 9.02 v -234.29 h 9.02 v -250.66 h 9.02 v 321.41 h 9.03 v -57.22 h 9.02 v -352.69 h 9.02 v 60.06 h 9.02 v 286.14 h 9.03 v -373.02 h 9.02 v 250.61 h 9.02 v 257 h 9.02 v -165.43 h 9.03 V 1847.7 h 9.02 v 346.56 h 9.02 v 76.77 h 9.02 V 1895.4 h 9.03 v 222.83 h 9.02 v 156.53 h 9.02 v -145.17 h 9.02 v -11.1 h 9.03 v 41.38 h 9.02 v -141.19 h 9.02 v -63.6 h 9.02 v 32.91 h 9.03 v 108.87 h 9.02 v 144.3 h 9.02 v -84.87 h 9.02 v 26.93 h 9.03 v -76.45 h 9.02 v -163.93 h 9.02 v -73.52 h 9.02 v 220.77 h 9.03 v 1.06 h 9.02 v -94.36 h 9.02 v 161.79 h 9.02 v 72.22 h 9.03 v -323.29 h 9.02 v 291.54 h 9.02 v -187.6 h 9.02 v 35.44 h 9.03 v 29.52 h 9.02 v 199.82 h 9.02 v -145.68 h 9.02 v -226.68 h 9.03 v 253.08 h 9.02 v 112.92 h 9.02 v -291.52 h 9.02 v 92.75 h 9.02 v 194.82 h 9.03 v -52.71 h 9.02 v -138.5 h 9.02 v -137.58 h 9.02 v 161.62 h 9.03 v -225.54 h 9.02 v 245.67 h 9.02 v 141.98 h 9.02 v -254.1 h 9.03 v 194.15 h 9.02 v -34.78 h 9.02 v -30.53 h 9.02 v 82.8 h 9.04 v -107.35 h 9.02 v 35.41 h 9.02 v 86.93 h 9.02 v -56.72 h 9.03 v -9.6 h 9.02 v 16.7 h 9.02 v -68.05 h 9.02 v 110.13 h 9.03 v -39.51 h 9.02 v -17.89 h 9.02 v 12.66 h 9.02 v -65.56 h 9.03 v 41.54 h 9.02 v 74.44 h 9.02 v -268.34 h 9.02 v 272.18 h 9.03 V 2247 h 9.02 v -96.87 h 9.02 v 15.07 h 9.02 v 25.75 h 9.02 v -5.78 h 9.03 v -75.9 h 9.02 v 116.69 h 9.02 v -37.91 h 9.02 v -19.75 h 9.03 v 12.37 h 9.02 v 4.43 h 9.02 v -3.6 h 9.02 v -0.92 h 9.03 v -138.72 h 9.02 v 230.8 h 9.02 v -79.65 h 9.02 v -107.92 h 9.03 v 140.36 h 9.02 v -30.95 h 9.02 v -26.54 h 9.02 v 147.71 h 9.03 v -219.26 h 9.02 v 74.25 h 9.02 v 36.14 h 9.02 v -24.05 h 9.03 v -8.01 h 9.02 v 6.96 h 9.02 v 1.62 h 9.02 v -1.97 h 9.03 v -0.28 h 9.02 v 0.54 h 9.02 v 0.03 h 9.02 v -0.14 h 9.03 9.02 v -69.44 h 9.02 v 114.67 h 9.02 v -39.48 h 9.03 v 117.6 h 9.02 v 57.58 h 9.02 v -94.02 h 9.02 v 11.6 h 9.03 V 2172.4 h 9.02 v -194.25 h 9.02 v 323.98 h 9.02 v -161.58 h 9.03 v 50.36 h 9.02 v -8.78 h 9.02 v 199.83 h 9.03 v -333.05 h 9.02 v 116.73 h 9.02 v -14.42 h 9.02 v -205.51 h 9.03 v 59.54 h 9.02 v 277.88 h 9.02 V 1966.8 h 9.02 v 202.65 h 9.03 v 40.43 h 9.02 v -10.15 h 9.02 v -249.6 h 9.02 v 294.51 h 9.03 v 5.14 h 9.02 v -171.8 h 9.02 v 62.38 h 9.02 v -37.49 h 9.03 v -117.01 h 9.02 v 18.7 h 9.02 v 51.32 h 9.02 v 194.94 h 9.03 v -83.25 h 9.02 v -57.12 h 9.02 v 38.76 h 9.02 v 13.59 h 9.03 v -224.34 h 9.02 v 63.18 h 9.02 v 68.01 h 9.02 v 181.04 h 9.03 v -86.76 h 9.02 v -53.18 h 9.02 v 39.41 h 9.02 v -57.77 h 9.03 v 104.69 h 9.02 v -42.4 h 9.02 v -16.13 h 9.02 v 13.31 h 9.03 v -137.91 h 9.02 v 16.28 h 9.02 v -14.93 h 9.02 v 27.04 h 9.03 v -9.04 h 9.02 v -7.62 h 9.02 v 2.84 h 9.02 v 74.49 h 9.03 v -120.83 h 9.02 v 40.86 h 9.02 v 20.24 h 9.02 v -13.23 h 9.03 v -4.5 h 9.02 v 3.84 h 9.02 v 286.75 h 9.02 V 1916 h 9.03 v 42.23 h 9.02 v 335.7 h 9.02 V 2050.3 h 9.02 v 68.69 h 9.02 v 82.14 h 9.03 v -55.85 h 9.02 v -148.64 h 9.02 v -36.19 h 9.02 v 106.49 h 9.03 v -19.7 h 9.02 v 186.55 h 9.02 v -133.05 h 9.02 v -81.64 h 9.03 v 156.31 h 9.02 v 30.17 h 9.02 v -75.6 h 9.02 v 7.92 h 9.04 v 20.56 h 9.02 v -216.67 h 9.02 v 60.76 h 9.02 v 66.15 h 9.03 v 181.82 h 9.02 v -86.32 h 9.02 v -53.42 h 9.02 v -102.01 h 9.03 v -40.05 h 9.02 v 94.39 h 9.02 v -17.79 h 9.02 v -25.94 h 9.03 v 6.42 h 9.02 v 6.41 h 9.02 v -2.18 h 9.02 v 214.02 h 9.03 V 2033.5 h 9.02 v 99.85 h 9.02 v 71.19 h 9.02 v -276.49 h 9.02 v -85.73 h 9.03 v 253.47 h 9.02 v 2.1 h 9.02 v -30.45 h 9.02 v -102.28 h 9.03 v 284.03 h 9.02 v -197.85 h 9.02 v 8.39 h 9.02 v -26.7 h 9.03 v 40.52 h 9.02 v -78.37 h 9.02 v 35.93 h 9.02 v 8.24 h 9.03 v 204.42 h 9.02 v -71.4 h 9.02 v -201.72 h 9.02 v 269.08 h 9.03 v -278.74 h 9.02 v 89.3 h 9.02 v 40.34 h 9.02 v -102.06 h 9.03 v 38.41 h 9.02 v 230 h 9.02 v -12.71 h 9.02 v -394.34 h 9.03 v 289.11 h 9.02 v 147.31 h 9.02 V 2123.3 h 9.02 v -77.7 h 9.03 v 368.01 h 9.02 v -243.14 h 9.02 v -72.92 h 9.02 v 34.56 h 9.03 v 47.08 h 9.02 v 46.42 h 9.02 v -126.54 h 9.02 v 115.84 h 9.03 v -92.93 h 9.02 v 94.19 h 9.02 v -30.88 h 9.02 V 1960.3 h 9.03 v 288.51 h 9.02 v -1.93 h 9.02 v -100.31 h 9.03 v 18.92 h 9.02 v 26.39 h 9.02 v -6.85 h 9.02 v -6.51 h 9.03 v 2.3 h 9.02 v 1.56 h 9.02 v -0.73 h 9.02 v -0.36 h 9.03 v -69.26 h 9.02 v 114.75 h 9.02 v -39.53 h 9.02 v -19.11 h 9.03 v 12.75 h 9.02 v -65.25 h 9.02 v 110.98 h 9.02 v -40.32 h 9.03 v -18.05 h 9.02 v -197.91 h 9.02 v 141.04 h 9.02 v -58.18 h 9.03 v 5.39 h 9.02 v 5.02 h 9.02 v -2.8 h 9.02 v -1.23 h 9.03 v 0.83 h 9.02 v 0.27 h 9.02 v 142.65 h 9.02 v -235.88 h 9.03 v 81.22 h 9.02 v -33.38 h 9.02 v -201.98 h 9.02 v 291.88 h 9.03 v -234.81 h 9.02 v 43.1 h 9.02 v 40.67 h 9.02 v -16.29 h 9.03 V 1852 h 9.02 v 54.49 h 9.02 v 84.57 h 9.02 v -65.6 h 9.03 v -238.33 h 9.02 v 323.97 h 9.02 v -80.96 h 9.02 v -62.29 h 9.03 v 103.92 h 9.02 v 40.45 h 9.02 v -138.86 h 9.02 v -21.99 h 9.03 v 73.33 h 9.02 v -165.57 h 9.02 v 158.72 h 9.02 v 43.27 h 9.03 V 1725 h 9.02 v 184.29 h 9.02 v 212.66 h 9.02 V 1549.4 h 9.02 v 624.22 h 9.03 v -16.89 h 9.02 v -656.54 h 9.02 v 570.18 h 9.02 v 163.41 h 9.03 v -720.71 h 9.02 v 758.01 h 9.02 v 171.08 h 9.02 v -792.07 h 9.03 v 531.8 h 9.02 v 63.99 h 9.02 v -526.11 h 9.02 v 606.68 h 9.04 v -233.48 h 9.02 v -350.95 h 9.02 v 399.08 h 9.02 v 83.08 h 9.03 v -471.86 h 9.02 v 494.74 h 9.02 v 24.23 h 9.02 v -687.75 h 9.03 v 435.56 h 9.02 v 188.53 h 9.02 V 1697.2 h 9.02 v 479.37 h 9.03 v -37.92 h 9.02 v -425.52 h 9.02 v 374.95 h 9.02 v 106.73 h 9.03 V 1723.7 h 9.02 v 421.28 h 9.02 v 72.18 h 9.02 v -466.51 h 9.02 v 280.28 h 9.03 v 96.61 h 9.02 v -265.45 h 9.02 v 237.48 h 9.02 v 93.38 h 9.03 v -279.72 h 9.02 v 245.02 h 9.02 v 96.84 h 9.02 v -644.77 h 9.03 v 411.33 h 9.02 v -44.34 h 9.02 v -135.2 h 9.02 v 206.96 h 9.03 v 70.02 h 9.02 v -126.05 h 9.02 v -286.47 h 9.02 v 454.9 h 9.03 v -277.29 h 9.02 v -218.59 h 9.02 v 436.18 h 9.02 v -140.18 h 9.03 v -77.64 h 9.02 v 195.28 h 9.02 v -154 h 9.02 v -283.5 h 9.03 v 385.11 h 9.02 v 66.71 h 9.02 V 1609.7 h 9.02 v 294.42 h 9.03 v 325.34 h 9.02 v -419.58 h 9.02 v -3.79 h 9.02 v 365.18 h 9.03 v -242.2 h 9.02 v -82.21 h 9.02 v 256.18 h 9.02 v -94.12 h 9.03 v -191.54 h 9.02 v 276.8 h 9.02 v -2.27 h 9.02 v -97.53 h 9.03 v 19.53 h 9.02 v 25.68 h 9.02 v -6.95 h 9.03 v -6.31 h 9.02 v 2.31 h 9.02 v 74.19 h 9.02 v -120.67 h 9.03 v 40.93 h 9.02 v 20.19 h 9.02 v -236.27 h 9.02 v 290.1 h 9.03 v -1.54 h 9.02 v -102.13 h 9.02 v 92.26 h 9.02 v -20.38 h 9.03 v -13.05 h 9.02 v 7.37 h 9.02 v -69.65 h 9.02 v 117.77 h 9.03 V 2279 h 9.02 v -157.98 h 9.02 v -4.13 h 9.02 v 45.27 h 9.03 v -215.08 h 9.02 v -168.94 h 9.02 v 360.81 h 9.02 v -37.36 h 9.03 v -46.91 h 9.02 v 402.34 h 9.02 v -315.95 h 9.02 V 1875 h 9.03 v 402.65 h 9.02 v -219.91 h 9.02 v -286.36 h 9.02 v 450.98 h 9.03 v 87.57 h 9.02 V 2155.9 h 9.02 v -231.39 h 9.02 v 333.45 h 9.03 v -213.15 h 9.02 v -46.86 h 9.02 v 297.16 h 9.02 v -143.82 h 9.03 v -40.67 h 9.02 V 2428 h 9.02 v -443.35 h 9.02 v 72.77 h 9.03 v 189.92 h 9.02 v -227.98 h 9.02 v 197.33 h 9.02 v -53.77 h 9.03 v 38.33 h 9.02 v -96.37 h 9.02 v 116.07 h 9.02 v -31.47 h 9.03 v -19.96 h 9.02 v 10.68 h 9.02 v 4.61 h 9.02 v -3.17 h 9.02 v -0.99 h 9.03 v -68.57 h 9.02 v 114.87 h 9.02 v -109.2 h 9.02 v 26.06 h 9.03 v 88.01 h 9.02 v -54.32 h 9.03 v -79.56 h 9.01 v 130.78 h 9.04 v -37.86 h 9.02 v -23.5 h 9.01 V 2180 h 9.02 v 5.4 h 9.03 v -3.75 h 9.03 v -70.64 h 9.02 v 115.76 h 9.02 v -39.24 h 9.03 v -19.4 h 9.01 v 12.69 h 9.03 v 4.32 h 9.02 v -3.69 h 9.03 v -70.36 h 9.02 v 46.23 h 9.02 v 75.37 h 9.02 v -58.85 h 9.03 v -6.38 h 9.02 v -52.44 h 9.02 v 45.73 h 9.02 v -212 h 9.03 v 197.3 h 9.02 v 182.2 h 9.02 v -180.58 h 9.02 v -288.56 h 9.02 v 235.19 h 9.03 v 21.41 h 9.02 v -67.89 h 9.02 v 212.05 h 9.02 v -51.05 h 9.03 v -133.27 h 9.02 v 75.74 h 9.03 v -119.64 h 9.01 v -2.48 h 9.03 v -18.49 h 9.02 v 104.95 h 9.02 v 87.16 h 9.02 v -37.72 h 9.03 v -40.69 h 9.02 v -116.74 h 9.02 v 30.23 h 9.02 v -21.46 h 9.03 v 96.49 h 9.02 v -127.01 h 9.02 v 249.93 h 9.02 v -260.84 h 9.03 v 135.36 h 9.02 v 142.7 h 9.02 v -119.88 h 9.03 v -222.33 h 9.02 v 100.49 h 9.02 v 280.52 h 9.02 v -399.98 h 9.02 v 107.13 h 9.03 v 72 h 9.02 v -36.38 h 9.02 v 127.78 h 9.02 v -154.97 h 9.03 v 181.37 h 9.02 v 7.91 h 9.02 v -212.04 h 9.02 v 177.43 h 9.03 V 2003.5 h 9.02 v -17.9 h 9.02 v 66.78 h 9.03 v 203.73 h 9.02 v -88 h 9.02 v -59.1 h 9.02 v 40.16 h 9.03 v 14.02 h 9.02 v -297.42 h 9.02 v 255.7" /><path
         id="path124"
         style="fill:none;stroke:#000000;stroke-width:15;stroke-linecap:butt;stroke-linejoin:miter;stroke-miterlimit:10;stroke-dasharray:none;stroke-opacity:1"
         d="m 1395,1609.41 h 9.02 v 71.92 h 9.03 v 70.21 h 9.02 9.02 v -34.9 h 9.02 v 103.45 h 9.03 v 66.96 h 9.02 v 32.9 h 9.02 v 96.47 h 9.02 9.03 v -63.94 h 9.02 v -32.53 h 9.02 v 96.47 h 9.02 v -63.94 h 9.03 v -132.39 h 9.02 v 66.96 h 9.02 v -66.96 h 9.02 v -138.76 h 9.03 v 70.21 h 9.02 v -70.21 h 9.02 v -145.61 h 9.02 v -37.53 h 9.03 9.02 9.02 v 74.61 h 9.02 v 143.84 h 9.03 v 34.9 h 9.02 v -34.9 h 9.02 v 34.9 h 9.02 v -142.13 h 9.03 v -187.69 h 9.02 v -78.42 h 9.02 v -39.96 h 9.02 v 79.42 h 9.03 v 77.44 h 9.02 9.02 9.02 v -77.44 h 9.03 v -39.46 h 9.02 v -162.99 h 9.02 9.02 v 82.55 h 9.03 v 40.48 h 9.02 v 156.86 h 9.02 v 37.99 h 9.02 v -115.43 h 9.03 v -160.9 h 9.02 v -41.55 h 9.02 9.02 9.03 v 82.55 h 9.02 v 119.9 h 9.02 v 77.44 h 9.02 v 112.6 h 9.02 v -74.61 h 9.03 v -235.33 h 9.02 v -124.63 h 9.02 v 124.63 h 9.02 v 40.48 h 9.03 v -81.48 h 9.02 v 81.48 h 9.02 v 232.38 h 9.02 v 37.08 h 9.03 v 247.29 h 9.02 9.02 v -138.76 h 9.02 v 70.21 h 9.04 9.02 v 68.55 h 9.02 9.02 v -138.76 h 9.03 v 70.21 h 9.02 v 135.51 h 9.02 9.02 9.03 9.02 9.02 v -66.96 h 9.02 v -68.55 h 9.03 9.02 9.02 v -70.21 h 9.02 v -183.14 h 9.03 v -37.99 h 9.02 9.02 v -116.9 h 9.02 9.02 v 116.9 h 9.03 v -116.9 h 9.02 v -39.96 h 9.02 9.02 9.03 9.02 9.02 9.02 9.03 9.02 9.02 9.02 9.03 9.02 v 79.42 h 9.02 v 38.96 h 9.02 v -38.96 h 9.03 9.02 v 77.44 h 9.02 v -116.9 h 9.02 v 39.46 h 9.03 v 77.44 h 9.02 9.02 v -38.48 h 9.02 v 38.48 h 9.03 9.02 v -116.9 h 9.02 9.02 v 116.9 h 9.03 v -116.9 h 9.02 v 78.42 h 9.02 v 38.48 h 9.02 9.03 v -116.9 h 9.02 v -80.44 h 9.02 v 40.48 h 9.02 v -40.48 h 9.03 v 158.86 h 9.02 v 38.48 h 9.02 v 37.99 h 9.02 v -37.99 h 9.03 v -116.9 h 9.02 v -39.96 h 9.02 v 118.38 h 9.03 v -118.38 h 9.02 v 39.96 h 9.02 v 116.9 h 9.02 9.03 v -156.86 h 9.02 v 79.42 h 9.02 v -39.46 h 9.02 v -39.96 h 9.03 v 118.38 h 9.02 v 38.48 h 9.02 9.02 v -38.48 h 9.03 v 38.48 h 9.02 9.02 9.02 v 112.6 h 9.03 v 36.61 h 9.02 9.02 9.02 v -73.69 h 9.03 v -75.52 h 9.02 9.02 9.02 v 75.52 h 9.03 v 73.69 h 9.02 9.02 9.02 9.03 v -73.69 h 9.02 9.02 v 73.69 h 9.02 9.03 9.02 9.02 9.02 v 36.18 h 9.03 v -36.18 h 9.02 v 36.18 h 9.02 v -36.18 h 9.02 v -111.22 h 9.03 v 111.22 h 9.02 9.02 9.02 9.03 9.02 9.02 9.02 v 71.92 h 9.03 v -35.74 h 9.02 v 105.95 h 9.02 V 1572.8 h 9.02 9.03 v 143.84 h 9.02 v 34.9 h 9.02 v -253.35 h 9.02 v 74.61 h 9.02 v 36.61 h 9.03 v -111.22 h 9.02 v 37.53 h 9.02 v 109.87 h 9.02 v -147.4 h 9.03 v 147.4 h 9.02 9.02 9.02 9.03 v 71.05 h 9.02 v -71.05 h 9.02 v -109.87 h 9.02 v 37.08 h 9.04 v -37.08 h 9.02 v -37.53 h 9.02 v 74.61 h 9.02 v -74.61 h 9.03 v -37.99 h 9.02 9.02 v 149.21 h 9.02 v 36.18 h 9.03 v 105.95 h 9.02 9.02 v 34.47 h 9.02 9.03 v 67.76 h 9.02 v 33.28 h 9.02 9.02 v 97.58 h 9.03 v -97.58 h 9.02 v -33.28 h 9.02 v 130.86 h 9.02 v 31.79 h 9.02 v -63.94 h 9.03 v 63.94 h 9.02 v 31.43 h 9.02 v -127.9 h 9.02 9.03 9.02 v -99.86 h 9.02 v 99.86 h 9.02 v 32.53 h 9.03 v -32.53 h 9.02 v -32.9 h 9.02 9.02 9.03 v -66.96 h 9.02 v 66.96 h 9.02 v 65.43 h 9.02 v -32.53 h 9.03 v -32.9 h 9.02 v 65.43 h 9.02 v -132.39 h 9.02 v 66.96 h 9.03 9.02 v -66.96 h 9.02 v 33.68 h 9.02 v 130.86 h 9.03 v -130.86 h 9.02 9.02 v 33.28 h 9.02 v -33.28 h 9.03 v -33.68 h 9.02 v 164.54 h 9.02 v 31.79 h 9.02 v -96.47 h 9.03 v 32.53 h 9.02 v 95.37 h 9.02 v -31.43 h 9.02 v 62.51 h 9.03 v -31.08 h 9.02 v -127.9 h 9.02 v 64.68 h 9.02 v 31.79 h 9.03 v -63.94 h 9.02 v -32.53 h 9.02 v 189.71 h 9.03 v -125.03 h 9.02 v -64.68 h 9.02 v 64.68 h 9.02 v 31.79 h 9.03 v 31.43 h 9.02 v -31.43 h 9.02 v -63.94 h 9.02 v -65.43 h 9.03 v 191.88 h 9.02 v 30.73 h 9.02 v -61.81 h 9.02 v 61.81 h 9.03 9.02 v -125.03 h 9.02 v -64.68 h 9.02 v 64.68 h 9.03 v -97.58 h 9.02 v 65.43 h 9.02 v 126.45 h 9.02 v 30.73 h 9.03 v -93.24 h 9.02 v 62.51 h 9.02 v 61.12 h 9.02 v -92.2 h 9.03 v 31.08 h 9.02 v 61.12 h 9.02 9.02 9.03 9.02 v -61.12 h 9.02 v -62.51 h 9.02 v -31.79 h 9.03 v 31.79 h 9.02 v 93.24 h 9.02 v 30.39 h 9.02 v 30.05 h 9.03 v -30.05 h 9.02 v -92.2 h 9.02 v -95.37 h 9.02 v 32.15 h 9.03 v 31.79 h 9.02 9.02 v 62.51 h 9.02 v 61.12 h 9.03 v -92.2 h 9.02 v 61.81 h 9.02 v -61.81 h 9.02 9.03 9.02 v 92.2 h 9.02 9.02 v -92.2 h 9.03 v 31.08 h 9.02 v 61.12 h 9.02 v -61.12 h 9.02 9.02 v 61.12 h 9.03 v 30.05 h 9.02 v -30.05 h 9.02 v -92.2 h 9.02 9.03 v -95.37 h 9.02 v 63.94 h 9.02 v 93.24 h 9.02 v -30.73 h 9.03 v 61.12 h 9.02 9.02 9.02 v 30.05 h 9.04 v -30.05 h 9.02 9.02 v 30.05 h 9.02 9.03 9.02 9.02 v -30.05 h 9.02 v 30.05 h 9.03 9.02 9.02 9.02 v -30.05 h 9.03 9.02 v 30.05 h 9.02 v -91.17 h 9.02 v 61.12 h 9.03 v 30.05 h 9.02 9.02 9.02 9.02 9.03 v -30.05 h 9.02 v 30.05 h 9.02 9.02 9.03 9.02 9.02 9.02 9.03 v -60.44 h 9.02 v 60.44 h 9.02 9.02 v -30.05 h 9.03 v 30.05 h 9.02 9.02 9.02 v 59.13 h 9.03 v -59.13 h 9.02 9.02 9.02 9.03 9.02 9.02 9.02 9.03 9.02 9.02 9.02 9.03 9.02 v -30.05 h 9.02 v 30.05 h 9.02 9.03 v 59.13 h 9.02 v 57.85 h 9.02 9.02 9.03 v -57.85 h 9.02 v -119.57 h 9.02 v 60.44 h 9.02 v -30.05 h 9.03 v 30.05 h 9.02 9.02 v 88.2 h 9.03 v -88.2 h 9.02 9.02 v -30.05 h 9.02 v -92.2 h 9.03 v -31.43 h 9.02 v 93.24 h 9.02 v -61.81 h 9.02 v 61.81 h 9.03 v 30.39 h 9.02 v 30.05 h 9.02 v -91.17 h 9.02 v 61.12 h 9.03 v 30.05 h 9.02 v -30.05 h 9.02 9.02 v -30.39 h 9.03 v -61.81 h 9.02 v -31.43 h 9.02 9.02 v 93.24 h 9.03 v 30.39 h 9.02 9.02 9.02 9.03 v -92.2 h 9.02 v -31.43 h 9.02 9.02 v 93.24 h 9.03 v 30.39 h 9.02 9.02 9.02 v -30.39 h 9.03 v 30.39 h 9.02 9.02 9.02 9.03 v -61.12 h 9.02 v -31.08 h 9.02 v -31.43 h 9.02 9.03 9.02 9.02 9.02 v 31.43 h 9.03 v -31.43 h 9.02 9.02 9.02 9.03 9.02 9.02 v 123.63 h 9.02 v -92.2 h 9.03 v -31.43 h 9.02 v 93.24 h 9.02 v -30.73 h 9.02 v 30.73 h 9.02 v 30.39 h 9.03 9.02 v -61.12 h 9.02 v -62.51 h 9.02 9.03 9.02 v 93.24 h 9.02 9.02 v -30.73 h 9.03 v 30.73 h 9.02 v 30.39 h 9.02 9.02 9.04 9.02 v -92.2 h 9.02 v -31.43 h 9.02 9.03 v 93.24 h 9.02 v 30.39 h 9.02 9.02 v -61.12 h 9.03 v -62.51 h 9.02 9.02 9.02 9.03 9.02 9.02 9.02 v 93.24 h 9.03 v -30.73 h 9.02 v 30.73 h 9.02 v 30.39 h 9.02 v -92.2 h 9.02 v -95.37 h 9.03 v 32.15 h 9.02 v 31.79 h 9.02 v 31.43 h 9.02 v -31.43 h 9.03 v 93.24 h 9.02 v -30.73 h 9.02 9.02 v -31.08 h 9.03 9.02 v -31.43 h 9.02 9.02 9.03 v 93.24 h 9.02 v 30.39 h 9.02 v -61.12 h 9.02 v 61.12 h 9.03 v -92.2 h 9.02 9.02 9.02 v -31.43 h 9.03 9.02 v 93.24 h 9.02 v 60.44 h 9.02 v -122.25 h 9.03 v 31.08 h 9.02 v 61.12 h 9.02 9.02 v -30.39 h 9.03 v 119.57 h 9.02 v -29.41 h 9.02 v -29.72 h 9.02 v -30.05 h 9.03 9.02 v 30.05 h 9.02 v -30.05 h 9.02 v 30.05 h 9.03 v -30.05 h 9.02 v 30.05 h 9.02 9.02 v -91.17 h 9.03 v 61.12 h 9.02 v 30.05 h 9.02 9.03 9.02 9.02 9.02 9.03 9.02 9.02 9.02 9.03 v -30.05 h 9.02 v 30.05 h 9.02 9.02 9.03 9.02 v -30.05 h 9.02 v 30.05 h 9.02 9.03 9.02 v -91.17 h 9.02 9.02 v -31.08 h 9.03 9.02 9.02 9.02 9.03 9.02 9.02 v 61.81 h 9.02 v -61.81 h 9.03 9.02 v -31.43 h 9.02 v -96.47 h 9.02 v 64.68 h 9.03 v -64.68 h 9.02 9.02 9.02 9.03 v -32.9 h 9.02 9.02 v 32.9 h 9.02 9.03 v -99.86 h 9.02 v 66.96 h 9.02 9.02 9.03 v 32.9 h 9.02 v 32.53 h 9.02 v -32.53 h 9.02 v -32.9 h 9.03 9.02 v -66.96 h 9.02 v 33.68 h 9.02 v 33.28 h 9.03 v -66.96 h 9.02 v 33.68 h 9.02 v 98.71 h 9.02 v -166.47 h 9.02 v 166.47 h 9.03 v 63.94 h 9.02 v -196.33 h 9.02 v 99.86 h 9.02 v 96.47 h 9.03 v -196.33 h 9.02 v 196.33 h 9.02 v 153.68 h 9.02 v -185.47 h 9.03 v 94.3 h 9.02 v 30.73 h 9.02 v -157.18 h 9.02 v 157.18 h 9.04 v -30.73 h 9.02 v -126.45 h 9.02 v 63.94 h 9.02 v 62.51 h 9.03 v -126.45 h 9.02 v 126.45 h 9.02 v 61.12 h 9.02 v -220.1 h 9.03 v 32.53 h 9.02 v 63.94 h 9.02 v -129.37 h 9.02 v 129.37 h 9.03 v 31.43 h 9.02 v -127.9 h 9.02 v 64.68 h 9.02 v 63.22 h 9.03 v -127.9 h 9.02 v 96.47 h 9.02 v 62.51 h 9.02 v -126.45 h 9.02 v 32.15 h 9.03 v 31.79 h 9.02 v -63.94 h 9.02 v 63.94 h 9.02 v 62.51 h 9.03 v -62.51 h 9.02 v 62.51 h 9.02 v 61.12 h 9.02 v -220.1 h 9.03 v 32.53 h 9.02 v -32.53 h 9.02 v -32.9 h 9.02 v 65.43 h 9.03 v 63.94 h 9.02 9.02 v -129.37 h 9.02 v 97.58 h 9.03 v -64.68 h 9.02 v -99.86 h 9.02 v 99.86 h 9.02 9.03 9.02 v 64.68 h 9.02 v -32.15 h 9.02 v -132.39 h 9.03 v 66.96 h 9.02 v 65.43 h 9.02 v -132.39 h 9.02 v 33.68 h 9.03 v 130.86 h 9.02 v -64.68 h 9.02 v -32.9 h 9.02 v 97.58 h 9.03 v -32.15 h 9.02 v -32.53 h 9.02 v 64.68 h 9.02 9.03 v -64.68 h 9.02 v 64.68 h 9.02 v 31.79 h 9.02 9.03 9.02 9.02 9.03 9.02 9.02 v 31.43 h 9.02 v -31.43 h 9.03 9.02 9.02 v -96.47 h 9.02 v 64.68 h 9.03 v 31.79 h 9.02 9.02 v 31.43 h 9.02 9.03 9.02 9.02 v -31.43 h 9.02 v 31.43 h 9.03 v 92.2 h 9.02 9.02 9.02 9.03 v -92.2 h 9.02 v -127.9 h 9.02 v 64.68 h 9.02 v 31.79 h 9.03 v 31.43 h 9.02 v 181.38 h 9.02 v -29.41 h 9.02 v -120.89 h 9.03 v 61.12 h 9.02 v -61.12 h 9.02 v -126.45 h 9.02 v 95.37 h 9.03 v 92.2 h 9.02 v 30.05 h 9.02 v -91.17 h 9.02 v 61.12 h 9.03 v -61.12 h 9.02 v -31.08 h 9.02 v 92.2 h 9.02 9.03 9.02 v 118.25 h 9.02 v -118.25 h 9.02 v -30.39 h 9.03 v 30.39 h 9.02 v -61.12 h 9.02 v 61.12 h 9.02 9.03 v 30.05 h 9.02 v -30.05 h 9.02 v 30.05 h 9.02 9.03 9.02 9.02 9.02 9.02 9.03 v -30.05 h 9.02 v 30.05 h 9.02 v -30.05 h 9.02 9.03 v 30.05 h 9.02 9.03 v -30.05 h 9.01 v 30.05 h 9.04 9.02 9.01 9.02 9.03 9.03 v -30.05 h 9.02 v 30.05 h 9.02 9.03 9.01 9.03 9.02 9.03 v -30.05 h 9.02 9.02 v 30.05 h 9.02 9.03 9.02 v -30.05 h 9.02 9.02 v -92.2 h 9.03 v 31.08 h 9.02 v 91.17 h 9.02 9.02 v -122.25 h 9.02 9.03 9.02 9.02 v 92.2 h 9.02 v 30.05 h 9.03 v -30.05 h 9.02 9.03 v -61.12 h 9.01 v -31.08 h 9.03 v -31.43 h 9.02 v 31.43 h 9.02 v 61.81 h 9.02 v 30.39 h 9.03 9.02 v -61.12 h 9.02 v -31.08 h 9.02 v -31.43 h 9.03 v 31.43 h 9.02 v -31.43 h 9.02 v 93.24 h 9.02 v -61.81 h 9.03 v 31.08 h 9.02 v 61.12 h 9.02 9.03 v -92.2 h 9.02 v -31.43 h 9.02 v 93.24 h 9.02 v -93.24 h 9.02 9.03 9.02 9.02 v 62.51 h 9.02 v -31.08 h 9.03 v 61.81 h 9.02 v 30.39 h 9.02 v -61.12 h 9.02 v 30.73 h 9.03 v -61.81 h 9.02 v -31.43 h 9.02 9.03 v 93.24 h 9.02 v 30.39 h 9.02 9.02 9.03 9.02 v -123.63 h 9.02 v 31.43" /><path
         id="path126"
         style="fill:#ffffff;fill-opacity:1;fill-rule:nonzero;stroke:none"
         d="m 7372.5,697.5 h 1125 V 1530 h -1125 z" /><path
         id="path128"
         style="fill:#000000;fill-opacity:1;fill-rule:nonzero;stroke:none"
         d="m 7741.65,1333.42 c 0,0.86 0.08,1.48 0.24,1.87 l 16.29,64.92 c 1.02,3.99 1.52,7.5 1.52,10.56 0,6.25 -2.11,9.37 -6.33,9.37 -4.53,0 -7.89,-2.71 -10.08,-8.14 -2.18,-5.43 -4.33,-12.29 -6.44,-20.58 0,-0.38 -0.2,-0.7 -0.59,-0.94 -0.38,-0.23 -0.78,-0.34 -1.17,-0.34 h -2.58 c -0.47,0 -0.88,0.25 -1.22,0.76 -0.36,0.51 -0.54,0.99 -0.54,1.46 1.57,6.25 3.07,11.58 4.52,16 1.44,4.41 3.71,8.42 6.79,12.02 3.08,3.59 6.93,5.39 11.54,5.39 5,0 9.4,-1.45 13.19,-4.35 3.79,-2.88 6.15,-6.71 7.09,-11.48 3.67,4.85 7.85,8.69 12.53,11.54 4.7,2.86 9.85,4.29 15.48,4.29 4.61,0 8.67,-1.35 12.18,-4.05 3.52,-2.7 5.28,-6.35 5.28,-10.95 0,-3.68 -1.15,-6.88 -3.46,-9.62 -2.3,-2.74 -5.37,-4.1 -9.2,-4.1 -2.34,0 -4.31,0.74 -5.92,2.23 -1.6,1.48 -2.4,3.4 -2.4,5.74 0,3.12 1.17,5.96 3.52,8.5 2.34,2.54 5.03,3.81 8.08,3.81 -2.34,1.87 -5.19,2.81 -8.56,2.81 -6.16,0 -11.55,-2.21 -16.16,-6.62 -4.61,-4.42 -8.75,-10.02 -12.43,-16.82 l -15.58,-62.22 c -0.47,-2.04 -1.56,-3.76 -3.28,-5.16 -1.73,-1.41 -3.67,-2.11 -5.86,-2.11 -1.72,0 -3.22,0.57 -4.52,1.7 -1.29,1.13 -1.93,2.63 -1.93,4.51" /><path
         id="path130"
         style="fill:none;stroke:#ff0000;stroke-width:15;stroke-linecap:butt;stroke-linejoin:round;stroke-miterlimit:10;stroke-dasharray:none;stroke-opacity:1"
         d="M 7402.49,1382.47 H 7702.4" /><path
         id="path132"
         style="fill:#000000;fill-opacity:1;fill-rule:nonzero;stroke:none"
         d="m 7743.18,1029.78 c 3.04,-5.23 8.36,-7.85 15.94,-7.85 6.87,0 12.81,2.42 17.81,7.27 5,4.84 9.04,10.68 12.12,17.51 3.09,6.84 5.49,13.81 7.21,20.92 -6.41,-6.09 -13.4,-9.14 -20.97,-9.14 -5.71,0 -10.58,0.99 -14.6,2.99 -4.02,1.99 -7.14,4.96 -9.37,8.91 -2.23,3.94 -3.34,8.68 -3.34,14.23 0,4.77 0.62,9.65 1.87,14.65 1.25,5 3.03,10.55 5.34,16.64 2.3,6.09 4.31,11.41 6.03,15.94 1.88,5.31 2.82,9.69 2.82,13.12 0,4.3 -1.57,6.45 -4.69,6.45 -5.78,0 -10.53,-2.95 -14.24,-8.85 -3.72,-5.9 -6.47,-12.52 -8.26,-19.87 -0.24,-0.85 -0.82,-1.28 -1.76,-1.28 h -2.58 c -1.17,0 -1.76,0.67 -1.76,1.99 v 0.59 c 2.35,8.67 5.92,16.35 10.73,23.03 4.8,6.68 10.88,10.02 18.22,10.02 5.16,0 9.53,-1.7 13.12,-5.1 3.59,-3.4 5.39,-7.72 5.39,-12.95 0,-2.66 -0.58,-5.47 -1.75,-8.44 -0.71,-1.8 -2.19,-5.67 -4.46,-11.61 -2.27,-5.93 -3.98,-10.85 -5.15,-14.75 -1.18,-3.91 -2.15,-7.75 -2.94,-11.5 -0.77,-3.75 -1.16,-7.5 -1.16,-11.25 0,-4.84 1.01,-8.91 3.04,-12.24 2.03,-3.32 5.27,-4.98 9.73,-4.98 8.98,0 17.07,5.51 24.25,16.53 l 16.41,66.91 c 0.55,1.95 1.7,3.61 3.46,4.98 1.75,1.37 3.65,2.05 5.68,2.05 1.8,0 3.36,-0.56 4.69,-1.7 1.33,-1.13 1.99,-2.59 1.99,-4.39 0,-0.86 -0.08,-1.45 -0.23,-1.76 l -21.56,-86.49 c -1.96,-7.5 -5.48,-14.64 -10.55,-21.44 -5.08,-6.8 -11.21,-12.27 -18.4,-16.41 -7.19,-4.14 -14.69,-6.21 -22.5,-6.21 -3.75,0 -7.46,0.75 -11.13,2.23 -3.67,1.49 -6.64,3.67 -8.91,6.56 -2.26,2.89 -3.4,6.29 -3.4,10.2 0,3.9 1.18,7.32 3.52,10.25 2.34,2.93 5.43,4.39 9.26,4.39 2.34,0 4.31,-0.72 5.92,-2.16 1.6,-1.45 2.39,-3.34 2.39,-5.69 0,-3.35 -1.22,-6.26 -3.68,-8.73 -2.46,-2.46 -5.37,-3.69 -8.73,-3.69 -0.16,0.08 -0.3,0.12 -0.42,0.12 -0.11,0 -0.25,0 -0.4,0" /><path
         id="path134"
         style="fill:#000000;fill-opacity:1;fill-rule:nonzero;stroke:none"
         d="m 7864.39,1026.2 c -5,0 -9.37,1.3 -13.12,3.92 -3.75,2.62 -6.62,6.13 -8.61,10.54 -2,4.42 -3,9.09 -3,14.01 0,7.5 1.9,14.55 5.69,21.15 3.79,6.6 8.91,11.88 15.35,15.82 6.45,3.95 13.34,5.92 20.69,5.92 4.53,0 8.47,-1.17 11.83,-3.51 3.36,-2.35 5.04,-5.71 5.04,-10.08 0,-6.02 -2.4,-10.49 -7.21,-13.42 -4.8,-2.93 -10.23,-4.75 -16.28,-5.45 -6.06,-0.7 -12.76,-1.05 -20.11,-1.05 h -0.46 c -1.72,-6.25 -2.58,-11.6 -2.58,-16.06 0,-4.69 1.09,-8.81 3.29,-12.36 2.18,-3.56 5.46,-5.33 9.84,-5.33 6.25,0 12.26,1.44 18.04,4.33 5.78,2.89 10.47,6.88 14.06,11.96 0.32,0.31 0.75,0.46 1.29,0.46 0.47,0 0.98,-0.29 1.52,-0.87 0.55,-0.59 0.83,-1.16 0.83,-1.71 0,-0.39 -0.08,-0.7 -0.23,-0.93 -3.91,-5.4 -9.11,-9.63 -15.6,-12.72 -6.47,-3.08 -13.23,-4.62 -20.27,-4.62 z m -9.25,41.95 c 6.09,0 11.74,0.27 16.93,0.82 5.2,0.54 9.89,1.95 14.07,4.21 4.18,2.27 6.27,5.83 6.27,10.67 0,1.95 -0.53,3.65 -1.59,5.1 -1.05,1.44 -2.44,2.55 -4.16,3.34 -1.72,0.78 -3.52,1.17 -5.39,1.17 -4.45,0 -8.45,-1.21 -12.01,-3.64 -3.55,-2.41 -6.48,-5.56 -8.79,-9.43 -2.31,-3.87 -4.08,-7.94 -5.33,-12.24" /><path
         id="path136"
         style="fill:#000000;fill-opacity:1;fill-rule:nonzero;stroke:none"
         d="m 7918.18,1037.56 c 2.8,-4.84 8.47,-7.26 16.98,-7.26 3.68,0 7.18,0.64 10.5,1.93 3.32,1.29 6.07,3.18 8.25,5.68 2.19,2.5 3.29,5.55 3.29,9.14 0,2.74 -0.98,4.97 -2.93,6.68 -1.96,1.72 -4.34,2.89 -7.15,3.52 l -8.56,1.64 c -3.83,1.01 -7.01,2.85 -9.55,5.51 -2.54,2.65 -3.81,5.9 -3.81,9.72 0,4.61 1.27,8.71 3.81,12.31 2.54,3.59 5.88,6.35 10.03,8.26 4.13,1.91 8.47,2.87 13,2.87 4.76,0 9.02,-1.13 12.77,-3.4 3.75,-2.27 5.63,-5.66 5.63,-10.19 0,-2.35 -0.69,-4.46 -2.05,-6.33 -1.37,-1.88 -3.26,-2.82 -5.69,-2.82 -1.32,0 -2.5,0.45 -3.51,1.36 -1.02,0.89 -1.53,2.05 -1.53,3.45 0,1.25 0.36,2.44 1.06,3.57 0.7,1.14 1.62,2.06 2.75,2.76 1.14,0.7 2.33,1.05 3.58,1.05 -0.94,2.27 -2.68,3.91 -5.22,4.92 -2.54,1.02 -5.26,1.53 -8.14,1.53 -2.66,0 -5.31,-0.53 -7.97,-1.58 -2.65,-1.06 -4.81,-2.64 -6.45,-4.75 -1.64,-2.11 -2.46,-4.57 -2.46,-7.38 0,-1.88 0.67,-3.54 1.99,-4.98 1.34,-1.45 2.98,-2.48 4.93,-3.11 l 9.14,-1.75 c 2.97,-0.63 5.67,-1.73 8.08,-3.29 2.43,-1.56 4.34,-3.53 5.75,-5.92 1.4,-2.38 2.1,-5.13 2.1,-8.25 0,-3.91 -1.09,-7.76 -3.28,-11.55 -2.18,-3.79 -4.84,-6.81 -7.97,-9.08 -5.62,-3.75 -12.45,-5.62 -20.5,-5.62 -5.62,0 -10.76,1.28 -15.41,3.86 -4.65,2.58 -6.98,6.41 -6.98,11.49 0,2.81 0.82,5.29 2.47,7.44 1.63,2.15 3.9,3.22 6.8,3.22 1.71,0 3.14,-0.53 4.27,-1.58 1.13,-1.06 1.69,-2.4 1.69,-4.04 0,-2.43 -0.89,-4.54 -2.69,-6.33 -1.79,-1.8 -3.9,-2.7 -6.32,-2.7 h -0.7" /><path
         id="path138"
         style="fill:#000000;fill-opacity:1;fill-rule:nonzero;stroke:none"
         d="m 7986.38,1040.72 c 0,1.57 0.15,3.01 0.47,4.34 l 11.36,45.24 h -16.52 c -1.02,0 -1.53,0.7 -1.53,2.11 0.39,2.26 1.06,3.39 2,3.39 h 17.46 l 6.33,25.79 c 0.39,1.32 1.21,2.47 2.46,3.45 1.25,0.98 2.62,1.47 4.1,1.47 1.4,0 2.56,-0.39 3.46,-1.17 0.89,-0.79 1.34,-1.84 1.34,-3.17 0,-0.31 -0.02,-0.57 -0.05,-0.76 -0.04,-0.2 -0.1,-0.37 -0.18,-0.53 l -6.33,-25.08 h 16.29 c 1.09,0 1.64,-0.66 1.64,-1.99 -0.08,-0.31 -0.2,-0.76 -0.35,-1.35 -0.16,-0.58 -0.37,-1.09 -0.65,-1.52 -0.27,-0.43 -0.64,-0.64 -1.11,-0.64 h -17.11 l -11.36,-45.48 c -0.78,-2.96 -1.17,-5.54 -1.17,-7.73 0,-4.53 1.56,-6.79 4.68,-6.79 4.61,0 8.69,2.16 12.24,6.5 3.56,4.34 6.28,9.12 8.15,14.36 0.39,0.54 0.82,0.81 1.29,0.81 h 1.87 c 0.39,0 0.73,-0.13 1,-0.4 0.28,-0.28 0.41,-0.57 0.41,-0.89 0,-0.23 -0.03,-0.38 -0.12,-0.46 -2.34,-6.41 -5.72,-12.01 -10.13,-16.82 -4.41,-4.8 -9.47,-7.2 -15.18,-7.2 -4.14,0 -7.64,1.34 -10.48,4.04 -2.86,2.69 -4.28,6.19 -4.28,10.48" /><path
         id="path140"
         style="fill:#000000;fill-opacity:1;fill-rule:nonzero;stroke:none"
         d="m 8044.57,1039.2 c 0,1.96 0.43,4.03 1.29,6.21 l 12.65,33.87 c 1.41,3.9 2.12,7.07 2.12,9.49 0,3.13 -1.14,4.69 -3.41,4.69 -4.22,0 -7.65,-2.13 -10.31,-6.39 -2.66,-4.26 -4.65,-9.04 -5.97,-14.35 -0.16,-0.71 -0.59,-1.06 -1.3,-1.06 h -1.87 c -0.86,0 -1.29,0.51 -1.29,1.52 v 0.48 c 1.72,6.25 4.32,11.79 7.79,16.64 3.48,4.84 7.87,7.26 13.19,7.26 3.75,0 6.91,-1.23 9.49,-3.69 2.58,-2.46 3.87,-5.61 3.87,-9.44 0,-1.95 -0.43,-3.98 -1.29,-6.09 l -12.78,-33.87 c -1.4,-3.51 -2.11,-6.67 -2.11,-9.49 0,-3.12 1.22,-4.68 3.64,-4.68 4.06,0 7.48,2.2 10.25,6.61 2.77,4.42 4.71,9.16 5.8,14.25 0.24,0.54 0.63,0.81 1.17,0.81 h 2 c 0.39,0 0.72,-0.13 0.99,-0.4 0.27,-0.28 0.41,-0.57 0.41,-0.89 0,-0.15 -0.08,-0.31 -0.23,-0.46 -1.41,-5.94 -3.88,-11.43 -7.44,-16.47 -3.56,-5.04 -7.99,-7.55 -13.31,-7.55 -3.67,0 -6.81,1.26 -9.43,3.8 -2.61,2.54 -3.92,5.61 -3.92,9.2 z m 17.81,84.14 c 0,2.27 0.92,4.3 2.75,6.09 1.83,1.8 3.85,2.7 6.04,2.7 1.79,0 3.28,-0.56 4.46,-1.7 1.16,-1.13 1.75,-2.52 1.75,-4.16 0,-2.34 -0.94,-4.41 -2.81,-6.21 -1.88,-1.8 -3.95,-2.7 -6.21,-2.7 -1.72,0 -3.15,0.59 -4.29,1.76 -1.12,1.18 -1.69,2.58 -1.69,4.22" /><path
         id="path142"
         style="fill:#000000;fill-opacity:1;fill-rule:nonzero;stroke:none"
         d="m 8097.5,1030.65 c 0,0.62 0.04,1.09 0.12,1.4 l 11.72,47 c 0.78,2.89 1.17,5.43 1.17,7.61 0,4.54 -1.52,6.8 -4.57,6.8 -3.28,0 -5.72,-1.95 -7.32,-5.86 -1.61,-3.91 -3.15,-8.87 -4.63,-14.88 0,-0.32 -0.16,-0.57 -0.47,-0.77 -0.31,-0.19 -0.58,-0.29 -0.82,-0.29 h -1.88 c -0.31,0 -0.61,0.2 -0.88,0.59 -0.27,0.39 -0.4,0.74 -0.4,1.05 1.17,4.61 2.26,8.5 3.27,11.66 1.02,3.17 2.66,6.06 4.93,8.68 2.26,2.61 5.04,3.92 8.32,3.92 3.98,0 7.48,-1.25 10.48,-3.75 3.01,-2.5 4.52,-5.67 4.52,-9.49 3.12,4.14 6.8,7.38 11.01,9.73 4.22,2.34 8.67,3.51 13.36,3.51 5,0 9.3,-1.27 12.89,-3.81 3.59,-2.54 5.39,-6.15 5.39,-10.84 3.29,4.61 7.09,8.2 11.43,10.79 4.34,2.57 9.04,3.86 14.12,3.86 5.47,0 9.85,-1.49 13.13,-4.45 3.28,-2.97 4.92,-7.15 4.92,-12.54 0,-4.3 -0.96,-9.5 -2.87,-15.59 -1.92,-6.09 -4.28,-12.93 -7.09,-20.51 -1.56,-3.59 -2.35,-6.75 -2.35,-9.49 0,-3.12 1.25,-4.68 3.75,-4.68 4.07,0 7.46,2.2 10.2,6.61 2.74,4.42 4.65,9.16 5.74,14.25 0.31,0.54 0.78,0.81 1.41,0.81 h 1.76 c 0.46,0 0.84,-0.13 1.11,-0.4 0.27,-0.28 0.41,-0.57 0.41,-0.89 0,-0.15 -0.04,-0.31 -0.12,-0.46 -1.48,-5.94 -4,-11.43 -7.56,-16.47 -3.55,-5.04 -7.99,-7.55 -13.3,-7.55 -3.75,0 -6.92,1.26 -9.49,3.8 -2.58,2.54 -3.87,5.61 -3.87,9.2 0,1.87 0.43,3.94 1.29,6.21 2.97,7.89 5.43,14.94 7.38,21.16 1.96,6.21 2.93,11.66 2.93,16.34 0,2.97 -0.58,5.47 -1.75,7.5 -1.18,2.04 -3.13,3.05 -5.87,3.05 -5.78,0 -10.76,-1.76 -14.94,-5.28 -4.18,-3.51 -7.83,-8.16 -10.95,-13.94 -0.16,-1.01 -0.31,-1.79 -0.47,-2.34 l -10.08,-40.43 c -0.39,-1.49 -1.21,-2.74 -2.46,-3.75 -1.25,-1.02 -2.66,-1.52 -4.22,-1.52 -1.25,0 -2.35,0.41 -3.28,1.23 -0.94,0.82 -1.41,1.89 -1.41,3.22 0,0.62 0.04,1.09 0.12,1.4 l 10.08,40.08 c 1.09,4.3 1.64,7.89 1.64,10.78 0,2.97 -0.6,5.47 -1.82,7.5 -1.21,2.04 -3.22,3.05 -6.03,3.05 -3.91,0 -7.47,-0.84 -10.66,-2.52 -3.21,-1.68 -6.02,-3.92 -8.44,-6.74 -2.43,-2.81 -4.65,-6.13 -6.69,-9.96 l -10.66,-42.77 c -0.31,-1.49 -1.11,-2.74 -2.4,-3.75 -1.29,-1.02 -2.68,-1.52 -4.16,-1.52 -1.33,0 -2.44,0.41 -3.34,1.23 -0.9,0.82 -1.35,1.89 -1.35,3.22" /><path
         id="path144"
         style="fill:#000000;fill-opacity:1;fill-rule:nonzero;stroke:none"
         d="m 8247.95,1026.2 c -6.64,0 -11.88,2.5 -15.7,7.5 -3.83,5 -5.74,10.89 -5.74,17.69 0,6.72 1.74,13.69 5.21,20.91 3.48,7.24 8.18,13.25 14.12,18.05 5.94,4.81 12.3,7.21 19.11,7.21 3.12,0 5.91,-0.84 8.37,-2.52 2.47,-1.68 4.39,-4 5.8,-6.97 1.18,4.22 3.48,6.33 6.92,6.33 1.33,0 2.44,-0.39 3.34,-1.18 0.9,-0.78 1.34,-1.83 1.34,-3.16 0,-0.31 0,-0.54 0,-0.7 0,-0.16 -0.03,-0.36 -0.11,-0.59 l -11.02,-43.95 c -0.7,-3.12 -1.05,-5.7 -1.05,-7.73 0,-4.53 1.52,-6.79 4.57,-6.79 3.28,0 5.78,2.09 7.5,6.27 1.71,4.18 3.16,9.04 4.34,14.59 0.15,0.54 0.54,0.81 1.17,0.81 h 1.99 c 0.39,0 0.7,-0.17 0.94,-0.52 0.23,-0.35 0.34,-0.68 0.34,-1 -1.79,-7.34 -3.78,-13.22 -5.97,-17.63 -2.19,-4.42 -5.74,-6.62 -10.66,-6.62 -3.52,0 -6.64,1.03 -9.38,3.1 -2.73,2.07 -4.41,4.82 -5.04,8.26 -6.8,-7.58 -13.59,-11.36 -20.39,-11.36 z m 0.12,4.1 c 3.82,0 7.52,1.42 11.07,4.27 3.56,2.85 6.62,6.19 9.2,10.02 0.08,0.16 0.12,0.31 0.12,0.47 l 8.43,34.22 0.12,0.47 c -0.62,3.75 -1.97,6.97 -4.04,9.66 -2.07,2.7 -4.86,4.05 -8.38,4.05 -3.51,0 -6.79,-1.44 -9.84,-4.34 -3.05,-2.89 -5.62,-6.33 -7.74,-10.31 -2.03,-4.14 -3.98,-9.88 -5.85,-17.22 -1.88,-7.35 -2.82,-13.05 -2.82,-17.12 0,-3.59 0.79,-6.85 2.34,-9.78 1.57,-2.93 4.03,-4.39 7.39,-4.39" /><path
         id="path146"
         style="fill:#000000;fill-opacity:1;fill-rule:nonzero;stroke:none"
         d="m 8329.36,1026.2 c -6.65,0 -11.88,2.5 -15.71,7.5 -3.83,5 -5.74,10.89 -5.74,17.69 0,6.72 1.73,13.69 5.22,20.91 3.47,7.24 8.17,13.25 14.11,18.05 5.94,4.81 12.31,7.21 19.1,7.21 3.13,0 5.92,-0.86 8.39,-2.58 2.46,-1.71 4.39,-4.02 5.8,-6.91 l 8.9,35.15 c 0.39,1.8 0.63,3.21 0.7,4.23 0,1.71 -3.4,2.57 -10.19,2.57 -1.09,0 -1.64,0.71 -1.64,2.11 0.08,0.24 0.2,0.69 0.35,1.35 0.15,0.66 0.39,1.17 0.71,1.52 0.31,0.36 0.69,0.53 1.17,0.53 l 21.2,1.76 c 1.34,0 2,-0.71 2,-2.11 l -22.74,-90.59 c -0.7,-1.72 -1.05,-4.22 -1.05,-7.5 0,-4.53 1.52,-6.79 4.57,-6.79 3.28,0 5.78,2.09 7.5,6.27 1.72,4.18 3.16,9.04 4.33,14.59 0.16,0.54 0.55,0.81 1.18,0.81 h 1.99 c 0.39,0 0.7,-0.17 0.94,-0.52 0.23,-0.35 0.35,-0.68 0.35,-1 -1.8,-7.34 -3.79,-13.22 -5.98,-17.63 -2.18,-4.42 -5.74,-6.62 -10.66,-6.62 -3.52,0 -6.64,1.03 -9.38,3.1 -2.73,2.07 -4.41,4.82 -5.04,8.26 -6.79,-7.58 -13.59,-11.36 -20.38,-11.36 z m 0.11,4.1 c 3.83,0 7.52,1.42 11.08,4.27 3.55,2.85 6.62,6.19 9.19,10.02 0.08,0.16 0.12,0.39 0.12,0.71 l 8.56,34.68 c -0.63,3.68 -1.97,6.84 -4.04,9.49 -2.08,2.66 -4.87,3.99 -8.39,3.99 -3.51,0 -6.79,-1.44 -9.84,-4.34 -3.04,-2.89 -5.62,-6.33 -7.73,-10.31 -2.04,-4.14 -3.99,-9.88 -5.87,-17.22 -1.87,-7.35 -2.81,-13.05 -2.81,-17.12 0,-3.59 0.78,-6.85 2.35,-9.78 1.56,-2.93 4.02,-4.39 7.38,-4.39" /><path
         id="path148"
         style="fill:#000000;fill-opacity:1;fill-rule:nonzero;stroke:none"
         d="m 8413.73,1026.2 c -4.93,0 -9.32,1.17 -13.18,3.51 -3.87,2.34 -6.86,5.52 -8.98,9.55 -2.1,4.03 -3.15,8.58 -3.15,13.65 0,7.11 1.99,14.14 5.97,21.1 3.99,6.95 9.26,12.61 15.82,16.99 6.56,4.37 13.48,6.56 20.74,6.56 3.91,0 7.39,-0.67 10.43,-1.99 3.05,-1.33 5.69,-3.21 7.92,-5.62 2.22,-2.43 3.94,-5.26 5.15,-8.5 1.21,-3.24 1.81,-6.74 1.81,-10.49 0,-5.47 -1.15,-10.86 -3.45,-16.17 -2.3,-5.31 -5.47,-10.14 -9.49,-14.47 -4.03,-4.34 -8.62,-7.78 -13.77,-10.32 -5.16,-2.54 -10.43,-3.8 -15.82,-3.8 z m 0.34,4.1 c 4.7,0 8.97,1.6 12.84,4.8 3.87,3.2 7.04,7.23 9.49,12.07 2.46,4.84 4.38,9.96 5.75,15.35 1.37,5.39 2.05,10.24 2.05,14.53 0,4.61 -1.16,8.5 -3.46,11.66 -2.31,3.17 -5.69,4.75 -10.13,4.75 -6.18,0 -11.57,-2.62 -16.18,-7.85 -4.61,-5.23 -8.07,-11.5 -10.37,-18.81 -2.3,-7.3 -3.45,-14 -3.45,-20.1 0,-4.53 1.15,-8.4 3.45,-11.6 2.3,-3.2 5.64,-4.8 10.01,-4.8" /><path
         id="path150"
         style="fill:none;stroke:#0072bd;stroke-width:15;stroke-linecap:butt;stroke-linejoin:round;stroke-miterlimit:10;stroke-dasharray:none;stroke-opacity:1"
         d="M 7402.49,1113.75 H 7702.4" /><path
         id="path152"
         style="fill:#000000;fill-opacity:1;fill-rule:nonzero;stroke:none"
         d="m 7743.18,761.063 c 3.04,-5.235 8.36,-7.852 15.94,-7.852 6.87,0 12.81,2.422 17.81,7.266 5,4.839 9.04,10.679 12.12,17.519 3.09,6.836 5.49,13.809 7.21,20.918 -6.41,-6.094 -13.4,-9.141 -20.97,-9.141 -5.71,0 -10.58,0.993 -14.6,2.985 -4.02,1.992 -7.14,4.965 -9.37,8.91 -2.23,3.945 -3.34,8.687 -3.34,14.234 0,4.766 0.62,9.649 1.87,14.649 1.25,5 3.03,10.547 5.34,16.64 2.3,6.094 4.31,11.407 6.03,15.938 1.88,5.316 2.82,9.691 2.82,13.125 0,4.301 -1.57,6.449 -4.69,6.449 -5.78,0 -10.53,-2.949 -14.24,-8.848 -3.72,-5.902 -6.47,-12.523 -8.26,-19.867 -0.24,-0.855 -0.82,-1.285 -1.76,-1.285 h -2.58 c -1.17,0 -1.76,0.664 -1.76,1.988 v 0.586 c 2.35,8.676 5.92,16.352 10.73,23.032 4.8,6.679 10.88,10.019 18.22,10.019 5.16,0 9.53,-1.699 13.12,-5.098 3.59,-3.402 5.39,-7.718 5.39,-12.953 0,-2.656 -0.58,-5.468 -1.75,-8.437 -0.71,-1.797 -2.19,-5.664 -4.46,-11.602 -2.27,-5.937 -3.98,-10.855 -5.15,-14.761 -1.18,-3.911 -2.15,-7.739 -2.94,-11.489 -0.77,-3.75 -1.16,-7.5 -1.16,-11.25 0,-4.84 1.01,-8.922 3.04,-12.242 2.03,-3.32 5.27,-4.98 9.73,-4.98 8.98,0 17.07,5.507 24.25,16.523 l 16.41,66.914 c 0.55,1.949 1.7,3.61 3.46,4.981 1.75,1.367 3.65,2.046 5.68,2.046 1.8,0 3.36,-0.562 4.69,-1.695 1.33,-1.133 1.99,-2.597 1.99,-4.394 0,-0.86 -0.08,-1.446 -0.23,-1.762 l -21.56,-86.481 c -1.96,-7.5 -5.48,-14.648 -10.55,-21.445 -5.08,-6.801 -11.21,-12.269 -18.4,-16.41 -7.19,-4.141 -14.69,-6.207 -22.5,-6.207 -3.75,0 -7.46,0.742 -11.13,2.227 -3.67,1.484 -6.64,3.671 -8.91,6.562 -2.26,2.891 -3.4,6.285 -3.4,10.191 0,3.907 1.18,7.325 3.52,10.254 2.34,2.93 5.43,4.395 9.26,4.395 2.34,0 4.31,-0.723 5.92,-2.168 1.6,-1.445 2.39,-3.34 2.39,-5.684 0,-3.355 -1.22,-6.265 -3.68,-8.73 -2.46,-2.461 -5.37,-3.692 -8.73,-3.692 -0.16,0.082 -0.3,0.122 -0.42,0.122 -0.11,0 -0.25,0 -0.4,0" /><path
         id="path154"
         style="fill:#000000;fill-opacity:1;fill-rule:nonzero;stroke:none"
         d="m 7844.95,761.934 c 0,0.625 0.03,1.089 0.11,1.402 l 11.72,46.992 c 0.78,2.891 1.17,5.43 1.17,7.613 0,4.536 -1.52,6.805 -4.57,6.805 -3.28,0 -5.72,-1.957 -7.33,-5.867 -1.59,-3.906 -3.14,-8.863 -4.62,-14.879 0,-0.316 -0.16,-0.57 -0.47,-0.766 -0.32,-0.195 -0.58,-0.293 -0.82,-0.293 h -1.88 c -0.31,0 -0.6,0.196 -0.87,0.586 -0.28,0.395 -0.42,0.746 -0.42,1.059 1.17,4.609 2.27,8.496 3.29,11.66 1.01,3.164 2.65,6.055 4.92,8.672 2.26,2.613 5.03,3.922 8.32,3.922 3.98,0 7.48,-1.25 10.49,-3.75 3,-2.5 4.51,-5.664 4.51,-9.488 3.12,4.14 6.79,7.382 11.01,9.726 4.22,2.34 8.68,3.512 13.36,3.512 5,0 9.3,-1.27 12.89,-3.805 3.6,-2.539 5.4,-6.152 5.4,-10.844 3.28,4.61 7.08,8.207 11.42,10.786 4.33,2.574 9.04,3.863 14.12,3.863 5.47,0 9.85,-1.485 13.12,-4.449 3.29,-2.969 4.93,-7.149 4.93,-12.539 0,-4.301 -0.96,-9.497 -2.87,-15.586 -1.92,-6.094 -4.28,-12.93 -7.09,-20.512 -1.56,-3.59 -2.34,-6.754 -2.34,-9.488 0,-3.125 1.25,-4.688 3.75,-4.688 4.06,0 7.45,2.207 10.19,6.617 2.74,4.414 4.65,9.16 5.74,14.243 0.32,0.542 0.78,0.816 1.41,0.816 h 1.75 c 0.47,0 0.84,-0.133 1.12,-0.406 0.27,-0.274 0.41,-0.571 0.41,-0.883 0,-0.156 -0.04,-0.313 -0.12,-0.465 -1.49,-5.941 -4,-11.43 -7.56,-16.465 -3.55,-5.039 -7.99,-7.558 -13.3,-7.558 -3.75,0 -6.91,1.269 -9.49,3.808 -2.58,2.535 -3.87,5.602 -3.87,9.195 0,1.875 0.43,3.946 1.29,6.211 2.97,7.891 5.43,14.942 7.39,21.157 1.95,6.211 2.92,11.66 2.92,16.343 0,2.969 -0.58,5.469 -1.76,7.5 -1.16,2.036 -3.12,3.055 -5.85,3.055 -5.79,0 -10.77,-1.762 -14.94,-5.281 -4.18,-3.516 -7.83,-8.164 -10.96,-13.942 -0.16,-1.015 -0.32,-1.796 -0.47,-2.339 l -10.08,-40.434 c -0.39,-1.484 -1.21,-2.734 -2.46,-3.75 -1.25,-1.016 -2.66,-1.523 -4.22,-1.523 -1.25,0 -2.34,0.41 -3.28,1.23 -0.93,0.82 -1.4,1.895 -1.4,3.227 0,0.625 0.03,1.089 0.11,1.402 l 10.08,40.078 c 1.09,4.297 1.64,7.887 1.64,10.777 0,2.969 -0.6,5.469 -1.81,7.5 -1.22,2.036 -3.23,3.055 -6.04,3.055 -3.91,0 -7.46,-0.844 -10.67,-2.523 -3.2,-1.68 -6.01,-3.926 -8.43,-6.743 -2.42,-2.808 -4.65,-6.128 -6.69,-9.957 L 7856.2,762.75 c -0.32,-1.484 -1.12,-2.734 -2.41,-3.75 -1.29,-1.016 -2.68,-1.523 -4.16,-1.523 -1.33,0 -2.44,0.41 -3.34,1.23 -0.9,0.82 -1.34,1.895 -1.34,3.227" /><path
         id="path156"
         style="fill:#000000;fill-opacity:1;fill-rule:nonzero;stroke:none"
         d="m 7999.61,757.477 c -5,0 -9.38,1.308 -13.13,3.921 -3.75,2.622 -6.62,6.137 -8.61,10.547 -1.99,4.414 -2.99,9.082 -2.99,14.008 0,7.5 1.9,14.551 5.69,21.152 3.79,6.598 8.91,11.872 15.35,15.817 6.45,3.945 13.34,5.918 20.68,5.918 4.53,0 8.48,-1.172 11.84,-3.512 3.36,-2.344 5.03,-5.703 5.03,-10.078 0,-6.016 -2.4,-10.488 -7.2,-13.418 -4.8,-2.93 -10.23,-4.746 -16.29,-5.453 -6.05,-0.699 -12.75,-1.051 -20.1,-1.051 h -0.47 c -1.71,-6.25 -2.57,-11.601 -2.57,-16.055 0,-4.687 1.09,-8.808 3.28,-12.363 2.18,-3.555 5.47,-5.332 9.84,-5.332 6.25,0 12.27,1.445 18.05,4.336 5.78,2.891 10.47,6.875 14.06,11.957 0.31,0.309 0.74,0.465 1.29,0.465 0.47,0 0.98,-0.293 1.52,-0.879 0.55,-0.586 0.82,-1.152 0.82,-1.703 0,-0.391 -0.07,-0.703 -0.23,-0.938 -3.91,-5.39 -9.1,-9.628 -15.59,-12.711 -6.48,-3.085 -13.24,-4.628 -20.27,-4.628 z m -9.26,41.957 c 6.09,0 11.74,0.269 16.94,0.816 5.19,0.543 9.87,1.949 14.06,4.215 4.18,2.269 6.27,5.824 6.27,10.664 0,1.957 -0.53,3.656 -1.58,5.101 -1.06,1.446 -2.45,2.555 -4.16,3.336 -1.72,0.786 -3.52,1.18 -5.4,1.18 -4.45,0 -8.45,-1.215 -12.01,-3.641 -3.56,-2.417 -6.49,-5.562 -8.79,-9.433 -2.3,-3.863 -4.08,-7.945 -5.33,-12.238" /><path
         id="path158"
         style="fill:#000000;fill-opacity:1;fill-rule:nonzero;stroke:none"
         d="m 8067.1,757.477 c -6.64,0 -11.88,2.5 -15.71,7.5 -3.82,5 -5.74,10.898 -5.74,17.691 0,6.723 1.74,13.695 5.22,20.918 3.47,7.23 8.18,13.246 14.12,18.047 5.93,4.805 12.3,7.207 19.1,7.207 3.12,0 5.92,-0.86 8.38,-2.574 2.46,-1.719 4.39,-4.024 5.8,-6.914 l 8.91,35.152 c 0.39,1.801 0.62,3.207 0.7,4.223 0,1.718 -3.4,2.582 -10.2,2.582 -1.09,0 -1.63,0.699 -1.63,2.105 0.07,0.234 0.18,0.684 0.34,1.344 0.16,0.664 0.4,1.176 0.71,1.527 0.31,0.352 0.7,0.528 1.17,0.528 l 21.21,1.753 c 1.33,0 1.99,-0.703 1.99,-2.105 l -22.73,-90.586 c -0.7,-1.723 -1.06,-4.223 -1.06,-7.5 0,-4.531 1.53,-6.797 4.57,-6.797 3.29,0 5.79,2.09 7.5,6.27 1.72,4.179 3.16,9.043 4.34,14.59 0.16,0.542 0.55,0.816 1.17,0.816 h 1.99 c 0.39,0 0.71,-0.176 0.94,-0.524 0.24,-0.351 0.36,-0.683 0.36,-1 -1.8,-7.343 -3.8,-13.222 -5.98,-17.632 -2.19,-4.414 -5.75,-6.621 -10.67,-6.621 -3.51,0 -6.64,1.035 -9.37,3.105 -2.74,2.07 -4.42,4.82 -5.04,8.258 -6.79,-7.574 -13.6,-11.363 -20.39,-11.363 z m 0.11,4.101 c 3.83,0 7.52,1.426 11.08,4.277 3.55,2.848 6.62,6.188 9.2,10.02 0.08,0.152 0.12,0.391 0.12,0.703 l 8.55,34.688 c -0.62,3.672 -1.97,6.832 -4.04,9.488 -2.07,2.66 -4.87,3.992 -8.38,3.992 -3.52,0 -6.8,-1.449 -9.85,-4.344 -3.04,-2.89 -5.62,-6.328 -7.73,-10.312 -2.03,-4.141 -3.98,-9.879 -5.86,-17.219 -1.87,-7.348 -2.81,-13.051 -2.81,-17.117 0,-3.59 0.78,-6.852 2.34,-9.781 1.56,-2.93 4.03,-4.395 7.38,-4.395" /><path
         id="path160"
         style="fill:#000000;fill-opacity:1;fill-rule:nonzero;stroke:none"
         d="m 8132.14,770.48 c 0,1.958 0.43,4.028 1.29,6.211 l 12.65,33.872 c 1.41,3.902 2.11,7.07 2.11,9.496 0,3.125 -1.13,4.687 -3.4,4.687 -4.22,0 -7.65,-2.133 -10.31,-6.391 -2.66,-4.261 -4.65,-9.046 -5.98,-14.355 -0.15,-0.707 -0.59,-1.059 -1.29,-1.059 h -1.87 c -0.86,0 -1.29,0.508 -1.29,1.524 v 0.473 c 1.72,6.25 4.32,11.796 7.79,16.64 3.48,4.84 7.87,7.262 13.19,7.262 3.75,0 6.91,-1.231 9.49,-3.692 2.58,-2.46 3.87,-5.605 3.87,-9.433 0,-1.949 -0.43,-3.981 -1.29,-6.09 l -12.78,-33.871 c -1.4,-3.516 -2.11,-6.676 -2.11,-9.488 0,-3.125 1.22,-4.688 3.64,-4.688 4.06,0 7.48,2.207 10.25,6.617 2.78,4.414 4.71,9.16 5.8,14.243 0.24,0.542 0.63,0.816 1.17,0.816 h 2 c 0.39,0 0.72,-0.133 0.99,-0.406 0.27,-0.274 0.41,-0.571 0.41,-0.883 0,-0.156 -0.08,-0.313 -0.23,-0.465 -1.41,-5.941 -3.89,-11.43 -7.44,-16.465 -3.56,-5.039 -7.99,-7.558 -13.31,-7.558 -3.67,0 -6.81,1.269 -9.43,3.808 -2.61,2.535 -3.92,5.602 -3.92,9.195 z m 17.81,84.145 c 0,2.266 0.92,4.293 2.75,6.09 1.84,1.801 3.85,2.699 6.04,2.699 1.8,0 3.28,-0.566 4.45,-1.703 1.17,-1.129 1.76,-2.516 1.76,-4.152 0,-2.348 -0.94,-4.418 -2.81,-6.219 -1.88,-1.797 -3.95,-2.692 -6.21,-2.692 -1.72,0 -3.15,0.582 -4.29,1.754 -1.13,1.176 -1.69,2.582 -1.69,4.223" /><path
         id="path162"
         style="fill:#000000;fill-opacity:1;fill-rule:nonzero;stroke:none"
         d="m 8200.31,757.477 c -6.64,0 -11.88,2.5 -15.7,7.5 -3.83,5 -5.75,10.898 -5.75,17.691 0,6.723 1.74,13.695 5.21,20.918 3.48,7.23 8.19,13.246 14.13,18.047 5.94,4.805 12.3,7.207 19.1,7.207 3.12,0 5.91,-0.86 8.38,-2.574 2.46,-1.719 4.39,-4.024 5.8,-6.914 l 8.9,35.152 c 0.39,1.801 0.63,3.207 0.71,4.223 0,1.718 -3.4,2.582 -10.2,2.582 -1.09,0 -1.64,0.699 -1.64,2.105 0.08,0.234 0.2,0.684 0.36,1.344 0.15,0.664 0.39,1.176 0.7,1.527 0.31,0.352 0.7,0.528 1.17,0.528 l 21.21,1.753 c 1.33,0 2,-0.703 2,-2.105 l -22.74,-90.586 c -0.7,-1.723 -1.06,-4.223 -1.06,-7.5 0,-4.531 1.53,-6.797 4.57,-6.797 3.28,0 5.78,2.09 7.5,6.27 1.72,4.179 3.17,9.043 4.34,14.59 0.15,0.542 0.54,0.816 1.17,0.816 h 1.99 c 0.4,0 0.71,-0.176 0.94,-0.524 0.24,-0.351 0.35,-0.683 0.35,-1 -1.79,-7.343 -3.79,-13.222 -5.97,-17.632 -2.19,-4.414 -5.74,-6.621 -10.67,-6.621 -3.51,0 -6.64,1.035 -9.38,3.105 -2.73,2.07 -4.41,4.82 -5.03,8.258 -6.8,-7.574 -13.59,-11.363 -20.39,-11.363 z m 0.11,4.101 c 3.83,0 7.53,1.426 11.08,4.277 3.55,2.848 6.62,6.188 9.2,10.02 0.08,0.152 0.12,0.391 0.12,0.703 l 8.56,34.688 c -0.63,3.672 -1.98,6.832 -4.06,9.488 -2.07,2.66 -4.86,3.992 -8.37,3.992 -3.52,0 -6.8,-1.449 -9.84,-4.344 -3.06,-2.89 -5.63,-6.328 -7.73,-10.312 -2.04,-4.141 -4,-9.879 -5.87,-17.219 -1.88,-7.348 -2.81,-13.051 -2.81,-17.117 0,-3.59 0.78,-6.852 2.34,-9.781 1.57,-2.93 4.02,-4.395 7.38,-4.395" /><path
         id="path164"
         style="fill:#000000;fill-opacity:1;fill-rule:nonzero;stroke:none"
         d="m 8284.68,757.477 c -4.92,0 -9.31,1.171 -13.18,3.519 -3.87,2.34 -6.86,5.52 -8.97,9.547 -2.11,4.023 -3.16,8.574 -3.16,13.648 0,7.11 1.99,14.145 5.97,21.098 3.99,6.949 9.27,12.613 15.83,16.988 6.56,4.375 13.47,6.563 20.74,6.563 3.9,0 7.38,-0.664 10.43,-1.988 3.04,-1.329 5.68,-3.204 7.91,-5.625 2.23,-2.426 3.95,-5.258 5.15,-8.497 1.21,-3.242 1.82,-6.734 1.82,-10.484 0,-5.473 -1.15,-10.863 -3.46,-16.18 -2.3,-5.308 -5.47,-10.132 -9.49,-14.468 -4.02,-4.34 -8.61,-7.778 -13.77,-10.313 -5.16,-2.539 -10.43,-3.808 -15.82,-3.808 z m 0.35,4.101 c 4.69,0 8.97,1.602 12.83,4.801 3.87,3.207 7.04,7.23 9.5,12.074 2.46,4.84 4.37,9.957 5.74,15.356 1.36,5.386 2.05,10.23 2.05,14.527 0,4.609 -1.15,8.496 -3.45,11.66 -2.31,3.164 -5.69,4.75 -10.15,4.75 -6.17,0 -11.56,-2.621 -16.17,-7.855 -4.61,-5.235 -8.06,-11.504 -10.37,-18.809 -2.3,-7.305 -3.46,-14.004 -3.46,-20.102 0,-4.527 1.16,-8.394 3.46,-11.601 2.31,-3.199 5.65,-4.801 10.02,-4.801" /><path
         id="path166"
         style="fill:none;stroke:#000000;stroke-width:15;stroke-linecap:butt;stroke-linejoin:round;stroke-miterlimit:10;stroke-dasharray:none;stroke-opacity:1"
         d="M 7402.49,845.031 H 7702.4" /><path
         id="path168"
         style="fill:none;stroke:#262626;stroke-width:5.00250006;stroke-linecap:butt;stroke-linejoin:miter;stroke-miterlimit:10;stroke-dasharray:none;stroke-opacity:1"
         d="m 7372.5,697.5 h 1125 V 1530 h -1125 z" /></g></g></svg>