<?xml version="1.0" encoding="UTF-8" standalone="no"?>
<svg
   xmlns:dc="http://purl.org/dc/elements/1.1/"
   xmlns:cc="http://creativecommons.org/ns#"
   xmlns:rdf="http://www.w3.org/1999/02/22-rdf-syntax-ns#"
   xmlns:svg="http://www.w3.org/2000/svg"
   xmlns="http://www.w3.org/2000/svg"
   viewBox="0 0 1200 500"
   height="500"
   width="1200"
   xml:space="preserve"
   id="svg2"
   version="1.1"><metadata
     id="metadata8"><rdf:RDF><cc:Work
         rdf:about=""><dc:format>image/svg+xml</dc:format><dc:type
           rdf:resource="http://purl.org/dc/dcmitype/StillImage" /></cc:Work></rdf:RDF></metadata><defs
     id="defs6" /><g
     transform="matrix(1.3333333,0,0,-1.3333333,0,500)"
     id="g10"><g
       transform="scale(0.1)"
       id="g12"><path
         id="path14"
         style="fill:#ffffff;fill-opacity:1;fill-rule:nonzero;stroke:none"
         d="M 0,0 H 9000 V 3750 H 0 Z" /><path
         id="path16"
         style="fill:#ffffff;fill-opacity:1;fill-rule:nonzero;stroke:none"
         d="M 0,0 H 9000 V 3750 H 0 Z" /><path
         id="path18"
         style="fill:#ffffff;fill-opacity:1;fill-rule:nonzero;stroke:none"
         d="M 1395,600 H 8595 V 3412.5 H 1395 Z" /><path
         id="path20"
         style="fill:none;stroke:#262626;stroke-width:5.00250006;stroke-linecap:square;stroke-linejoin:round;stroke-miterlimit:10;stroke-dasharray:none;stroke-opacity:1"
         d="M 1395,600 H 8595" /><path
         id="path22"
         style="fill:none;stroke:#262626;stroke-width:5.00250006;stroke-linecap:square;stroke-linejoin:round;stroke-miterlimit:10;stroke-dasharray:none;stroke-opacity:1"
         d="M 1395,3412.5 H 8595" /><path
         id="path24"
         style="fill:none;stroke:#262626;stroke-width:5.00250006;stroke-linecap:square;stroke-linejoin:round;stroke-miterlimit:10;stroke-dasharray:none;stroke-opacity:1"
         d="m 1395,600 v 72" /><path
         id="path26"
         style="fill:none;stroke:#262626;stroke-width:5.00250006;stroke-linecap:square;stroke-linejoin:round;stroke-miterlimit:10;stroke-dasharray:none;stroke-opacity:1"
         d="m 2295,600 v 72" /><path
         id="path28"
         style="fill:none;stroke:#262626;stroke-width:5.00250006;stroke-linecap:square;stroke-linejoin:round;stroke-miterlimit:10;stroke-dasharray:none;stroke-opacity:1"
         d="m 3195,600 v 72" /><path
         id="path30"
         style="fill:none;stroke:#262626;stroke-width:5.00250006;stroke-linecap:square;stroke-linejoin:round;stroke-miterlimit:10;stroke-dasharray:none;stroke-opacity:1"
         d="m 4095,600 v 72" /><path
         id="path32"
         style="fill:none;stroke:#262626;stroke-width:5.00250006;stroke-linecap:square;stroke-linejoin:round;stroke-miterlimit:10;stroke-dasharray:none;stroke-opacity:1"
         d="m 4995,600 v 72" /><path
         id="path34"
         style="fill:none;stroke:#262626;stroke-width:5.00250006;stroke-linecap:square;stroke-linejoin:round;stroke-miterlimit:10;stroke-dasharray:none;stroke-opacity:1"
         d="m 5895,600 v 72" /><path
         id="path36"
         style="fill:none;stroke:#262626;stroke-width:5.00250006;stroke-linecap:square;stroke-linejoin:round;stroke-miterlimit:10;stroke-dasharray:none;stroke-opacity:1"
         d="m 6795,600 v 72" /><path
         id="path38"
         style="fill:none;stroke:#262626;stroke-width:5.00250006;stroke-linecap:square;stroke-linejoin:round;stroke-miterlimit:10;stroke-dasharray:none;stroke-opacity:1"
         d="m 7695,600 v 72" /><path
         id="path40"
         style="fill:none;stroke:#262626;stroke-width:5.00250006;stroke-linecap:square;stroke-linejoin:round;stroke-miterlimit:10;stroke-dasharray:none;stroke-opacity:1"
         d="m 8595,600 v 72" /><path
         id="path42"
         style="fill:none;stroke:#262626;stroke-width:5.00250006;stroke-linecap:square;stroke-linejoin:round;stroke-miterlimit:10;stroke-dasharray:none;stroke-opacity:1"
         d="m 1395,3412.5 v -72" /><path
         id="path44"
         style="fill:none;stroke:#262626;stroke-width:5.00250006;stroke-linecap:square;stroke-linejoin:round;stroke-miterlimit:10;stroke-dasharray:none;stroke-opacity:1"
         d="m 2295,3412.5 v -72" /><path
         id="path46"
         style="fill:none;stroke:#262626;stroke-width:5.00250006;stroke-linecap:square;stroke-linejoin:round;stroke-miterlimit:10;stroke-dasharray:none;stroke-opacity:1"
         d="m 3195,3412.5 v -72" /><path
         id="path48"
         style="fill:none;stroke:#262626;stroke-width:5.00250006;stroke-linecap:square;stroke-linejoin:round;stroke-miterlimit:10;stroke-dasharray:none;stroke-opacity:1"
         d="m 4095,3412.5 v -72" /><path
         id="path50"
         style="fill:none;stroke:#262626;stroke-width:5.00250006;stroke-linecap:square;stroke-linejoin:round;stroke-miterlimit:10;stroke-dasharray:none;stroke-opacity:1"
         d="m 4995,3412.5 v -72" /><path
         id="path52"
         style="fill:none;stroke:#262626;stroke-width:5.00250006;stroke-linecap:square;stroke-linejoin:round;stroke-miterlimit:10;stroke-dasharray:none;stroke-opacity:1"
         d="m 5895,3412.5 v -72" /><path
         id="path54"
         style="fill:none;stroke:#262626;stroke-width:5.00250006;stroke-linecap:square;stroke-linejoin:round;stroke-miterlimit:10;stroke-dasharray:none;stroke-opacity:1"
         d="m 6795,3412.5 v -72" /><path
         id="path56"
         style="fill:none;stroke:#262626;stroke-width:5.00250006;stroke-linecap:square;stroke-linejoin:round;stroke-miterlimit:10;stroke-dasharray:none;stroke-opacity:1"
         d="m 7695,3412.5 v -72" /><path
         id="path58"
         style="fill:none;stroke:#262626;stroke-width:5.00250006;stroke-linecap:square;stroke-linejoin:round;stroke-miterlimit:10;stroke-dasharray:none;stroke-opacity:1"
         d="m 8595,3412.5 v -72" /><g
         transform="scale(10)"
         id="g60"><text
           id="text64"
           style="font-variant:normal;font-weight:normal;font-size:20.00020027px;font-family:Helvetica;-inkscape-font-specification:Helvetica;writing-mode:lr-tb;fill:#262626;fill-opacity:1;fill-rule:nonzero;stroke:none"
           transform="matrix(1,0,0,-1,133.5,33)"><tspan
             id="tspan62"
             y="0"
             x="0 89.999702 174.37454 185.49466 264.37424 275.49435 354.37393 365.49405 444.37366 455.49374 534.37335 545.49347 624.37305 635.49316 714.37274 725.49286">0510152025303540</tspan></text>
<text
           id="text68"
           style="font-variant:normal;font-weight:normal;font-size:21.99970055px;font-family:Helvetica;-inkscape-font-specification:Helvetica;writing-mode:lr-tb;fill:#262626;fill-opacity:1;fill-rule:nonzero;stroke:none"
           transform="matrix(1,0,0,-1,449.625,5)"><tspan
             id="tspan66"
             y="0"
             x="0 13.441816 25.673651 43.999401 56.231232 68.463066 74.578979 81.904884 92.904732">Tempo (s)</tspan></text>
</g><path
         id="path70"
         style="fill:none;stroke:#262626;stroke-width:5.00250006;stroke-linecap:square;stroke-linejoin:round;stroke-miterlimit:10;stroke-dasharray:none;stroke-opacity:1"
         d="M 1395,600 V 3412.5" /><path
         id="path72"
         style="fill:none;stroke:#262626;stroke-width:5.00250006;stroke-linecap:square;stroke-linejoin:round;stroke-miterlimit:10;stroke-dasharray:none;stroke-opacity:1"
         d="M 8595,600 V 3412.5" /><path
         id="path74"
         style="fill:none;stroke:#262626;stroke-width:5.00250006;stroke-linecap:square;stroke-linejoin:round;stroke-miterlimit:10;stroke-dasharray:none;stroke-opacity:1"
         d="m 1395,936.563 h 72" /><path
         id="path76"
         style="fill:none;stroke:#262626;stroke-width:5.00250006;stroke-linecap:square;stroke-linejoin:round;stroke-miterlimit:10;stroke-dasharray:none;stroke-opacity:1"
         d="m 1395,1634.01 h 72" /><path
         id="path78"
         style="fill:none;stroke:#262626;stroke-width:5.00250006;stroke-linecap:square;stroke-linejoin:round;stroke-miterlimit:10;stroke-dasharray:none;stroke-opacity:1"
         d="m 1395,2331.46 h 72" /><path
         id="path80"
         style="fill:none;stroke:#262626;stroke-width:5.00250006;stroke-linecap:square;stroke-linejoin:round;stroke-miterlimit:10;stroke-dasharray:none;stroke-opacity:1"
         d="m 1395,3028.91 h 72" /><path
         id="path82"
         style="fill:none;stroke:#262626;stroke-width:5.00250006;stroke-linecap:square;stroke-linejoin:round;stroke-miterlimit:10;stroke-dasharray:none;stroke-opacity:1"
         d="m 8595,936.563 h -72" /><path
         id="path84"
         style="fill:none;stroke:#262626;stroke-width:5.00250006;stroke-linecap:square;stroke-linejoin:round;stroke-miterlimit:10;stroke-dasharray:none;stroke-opacity:1"
         d="m 8595,1634.01 h -72" /><path
         id="path86"
         style="fill:none;stroke:#262626;stroke-width:5.00250006;stroke-linecap:square;stroke-linejoin:round;stroke-miterlimit:10;stroke-dasharray:none;stroke-opacity:1"
         d="m 8595,2331.46 h -72" /><path
         id="path88"
         style="fill:none;stroke:#262626;stroke-width:5.00250006;stroke-linecap:square;stroke-linejoin:round;stroke-miterlimit:10;stroke-dasharray:none;stroke-opacity:1"
         d="m 8595,3028.91 h -72" /><g
         transform="scale(10)"
         id="g90"><text
           id="text100"
           style="font-variant:normal;font-weight:normal;font-size:20.00020027px;font-family:Helvetica;-inkscape-font-specification:Helvetica;writing-mode:lr-tb;fill:#262626;fill-opacity:1;fill-rule:nonzero;stroke:none"
           transform="matrix(1,0,0,-1,110.25,85.4063)"><tspan
             id="tspan92"
             y="0"
             x="0 11.120111">28</tspan><tspan
             id="tspan94"
             y="-69.744499"
             x="0 11.120111">30</tspan><tspan
             id="tspan96"
             y="-139.4894"
             x="0 11.120111">32</tspan><tspan
             id="tspan98"
             y="-209.2339"
             x="0 11.120111">34</tspan></text>
<text
           id="text104"
           style="font-variant:normal;font-weight:normal;font-size:21.99970055px;font-family:Helvetica;-inkscape-font-specification:Helvetica;writing-mode:lr-tb;fill:#262626;fill-opacity:1;fill-rule:nonzero;stroke:none"
           transform="matrix(0,1,1,0,102,147.375)"><tspan
             id="tspan102"
             y="0"
             x="0 14.6738 19.557734 25.673651 37.905483 45.231384 57.463215 63.579132 70.905029 81.904884 100.23064">Altura (cm)</tspan></text>
</g><g
         transform="scale(10)"
         id="g106"><text
           id="text110"
           style="font-variant:normal;font-weight:bold;font-size:21.99970055px;font-family:Helvetica;-inkscape-font-specification:Helvetica-Bold;writing-mode:lr-tb;fill:#000000;fill-opacity:1;fill-rule:nonzero;stroke:none"
           transform="matrix(1,0,0,-1,159,350.625)"><tspan
             id="tspan108"
             y="0"
             x="0 15.883783 28.115616 40.34745 53.789265 67.231087 79.462914 86.788818 99.020653 105.13657 117.3684 123.48431 143.04205 156.48387 169.92569 182.15752 195.59933 207.83116 220.063 226.17891 239.62073 251.85257 257.96848 271.41031 283.64212 292.20001 304.43185 323.98959 336.22141 343.5473 352.10519 365.54703 377.77884 383.89478 397.33658 410.77841 416.89432 436.45206 449.89386 463.33569 475.5675 481.68344 495.12524 501.24115 517.12494 533.00873 547.68256 559.91437 566.03027 585.58801 591.70392 603.93579 610.0517 629.60944 643.05121 649.16718 661.39899 674.84082">Resposta à mudança de parâmetros do modelo ARXsim simulado</tspan></text>
</g><path
         id="path112"
         style="fill:none;stroke:#0072bd;stroke-width:15;stroke-linecap:butt;stroke-linejoin:miter;stroke-miterlimit:10;stroke-dasharray:none;stroke-opacity:1"
         d="m 1395,1634.01 h 9 v 0 h 9 v 0 h 9 v -0.07 h 9 v -0.19 h 9 v -0.29 h 9 v -0.4 h 9 v -0.51 h 9 v -0.6 h 9 v -0.7 h 9 v -0.78 h 9 v -0.86 h 9 v -0.94 h 9 v -1.01 h 9 v -1.07 h 9 v -1.14 h 9 v -1.19 h 9 v -1.24 h 9 v -1.29 h 9 v -1.32 h 9 v -1.38 h 9 v -1.4 h 9 v -1.43 h 9 v -1.47 h 9 v -1.47 h 9 v -1.5 h 9 v -1.53 h 9 v -1.53 h 9 v -1.53 h 9 v -1.56 h 9 v -1.54 h 9 v -1.55 h 9 v -1.56 h 9 v -1.55 h 9 v -1.53 h 9 v -1.54 h 9 v -1.52 h 9 v -1.52 h 9 v -1.5 h 9 v -1.48 h 9 v -1.47 h 9 v -1.44 h 9 v -1.43 h 9 v -1.41 h 9 v -1.38 h 9 v -1.36 h 9 v -1.34 h 9 v -1.31 h 9 v -1.28 h 9 v -1.26 h 9 v -1.23 h 9 v -1.2 h 9 v -1.17 h 9 v -1.15 h 9 v -1.1 h 9 v -1.09 h 9 v -1.05 h 9 v -1.03 h 9 v -0.99 h 9 v -0.96 h 9 v -0.94 h 9 v -0.9 h 9 v -0.87 h 9 v -0.84 h 9 v -0.82 h 9 v -0.78 h 9 v -0.75 h 9 v -0.72 h 9 v -0.69 h 9 v -0.67 h 9 v -0.64 h 9 v -0.6 h 9 v -0.59 h 9 v -0.56 h 9 v -0.53 h 9 v -0.5 h 9 v -0.47 h 9 v -0.46 h 9 v -0.43 h 9 v -0.4 h 9 v -0.38 h 9 v -0.36 h 9 v -0.34 h 9 v -0.32 h 9 v -0.3 h 9 v -0.27 h 9 v -0.26 h 9 v -0.23 h 9 v -0.22 h 9 v -0.2 h 9 v -0.19 h 9 v -0.17 h 9 v -0.14 h 9 v -0.14 h 9 v -0.12 h 9 v -0.1 h 9 v -0.1 h 9 v -0.08 h 9 v -0.07 h 9 v -0.05 h 9 v -0.04 h 9 v 32.43 h 9 v 20.69 h 9 v -22.85 h 9 v -15.42 h 9 v 18.22 h 9 v 13.21 h 9 v -12.29 h 9 V 1574 h 9 v 11.42 h 9 v 8.92 h 9 v -6.06 h 9 v -4.08 h 9 v 7.63 h 9 v 6.41 h 9 v -2.38 h 9 v -1.4 h 9 v 5.5 h 9 v 4.94 h 9 v -0.23 h 9 v 0.24 h 9 v 4.3 h 9 v 4.06 h 9 v 1.02 h 9 v 1.22 h 9 v 3.6 h 9 v 3.51 h 9 v 1.71 h 9 v 1.78 h 9 v 3.18 h 9 v 3.13 h 9 v 2.07 h 9 v 2.08 h 9 v 2.87 h 9 v 2.86 h 9 v 2.21 h 9 v 2.19 h 9 v 2.65 h 9 v 2.61 h 9 v 2.23 h 9 v 2.2 h 9 v 2.43 h 9 v 2.41 h 9 v 2.16 h 9 v 2.12 h 9 v 2.24 h 9 v 2.21 h 9 v 2.04 h 9 v 1.99 h 9 v 2.05 h 9 v 2.01 h 9 v 1.89 h 9 v 1.84 h 9 v 1.85 h 9 v 1.82 h 9 v 1.72 h 9 v 1.67 h 9 v 1.66 h 9 v 1.62 h 9 v 1.55 h 9 v 1.5 h 9 v 1.47 h 9 v 1.43 h 9 v 1.38 h 9 v 1.32 h 9 v 1.3 h 9 v 1.24 h 9 v 1.2 h 9 v 1.15 h 9 v 1.13 h 9 v 1.08 h 9 v 1.03 h 9 v 0.99 h 9 v 0.96 h 9 v 0.92 h 9 v 0.88 h 9 v 0.84 h 9 v 0.81 h 9 v 0.76 h 9 v 0.74 h 9 v 0.7 h 9 v 0.67 h 9 v 0.63 h 9 v 0.61 h 9 v 0.57 h 9 v 0.54 h 9 v 0.51 h 9 v 0.49 h 9 v 0.45 h 9 v 0.43 h 9 v 0.4 h 9 v 0.38 h 9 v 0.35 h 9 v 0.33 h 9 v 0.3 h 9 v 0.29 h 9 v 0.26 h 9 v 0.24 h 9 v 0.23 h 9 v 0.2 h 9 v 0.18 h 9 v 0.16 h 9 v 0.15 h 9 v 0.14 h 9 v 0.11 h 9 v 0.11 h 9 v 0.08 h 9 v 0.07 h 9 v 0.06 h 9 v 0.06 h 9 v 0.02 h 9 v 0.03 h 9 v 0.01 h 9 v 0 h 9 v -0.01 h 9 v -0.01 h 9 v -0.02 h 9 v -0.04 h 9 v -0.04 h 9 v -0.05 h 9 v -0.05 h 9 v -0.06 h 9 v -0.07 h 9 v -0.07 h 9 v -0.08 h 9 v -0.09 h 9 v -0.08 h 9 v -0.1 h 9 v -0.09 h 9 v -0.11 h 9 v -0.09 h 9 v -0.11 h 9 v -0.11 h 9 v -0.1 h 9 v -0.12 h 9 v -0.11 h 9 v -0.12 h 9 v -0.11 h 9 v -0.12 h 9 v -0.12 h 9 v -0.12 h 9 v -0.11 h 9 v -0.12 h 9 V 1723 h 9 v -0.11 h 9 v -0.12 h 9 v -0.12 h 9 v -0.12 h 9 v -0.11 h 9 v -0.12 h 9 v -0.11 h 9 v -0.12 h 9 v -0.11 h 9 v -0.11 h 9 v -0.11 h 9 v -0.11 h 9 v -0.1 h 9 v -0.11 h 9 v -0.1 h 9 v -0.1 h 9 v -0.11 h 9 v -0.09 h 9 v -0.1 h 9 v -0.09 h 9 v -0.1 h 9 v -0.09 h 9 v -0.08 h 9 v -0.09 h 9 v -0.08 h 9 v -0.09 h 9 v -0.08 h 9 v -0.07 h 9 v -0.08 h 9 V 1720 h 9 v -0.08 h 9 v -0.06 h 9 v -0.07 h 9 v -0.07 h 9 v -0.07 h 9 v -0.06 h 9 v -0.06 h 9 v -0.06 h 9 v -0.05 h 9 v -0.05 h 9 v -0.05 h 9 v -0.06 h 9 v -0.04 h 9 v -0.06 h 9 v -0.04 h 9 v -0.04 h 9 v -0.04 h 9 V 1719 h 9 v -0.04 h 9 v -0.03 h 9 v -0.04 h 9 v -0.03 h 9 v -0.04 h 9 v -0.03 h 9 v -0.03 h 9 v -0.02 h 9 v -0.03 h 9 v -0.03 h 9 v -0.02 h 9 v -0.02 h 9 v -0.02 h 9 v -0.03 h 9 v -0.01 h 9 v -0.01 h 9 v -0.03 h 9 v -0.01 h 9 v -0.02 h 9 v -0.01 h 9 v -0.01 h 9 v -0.01 h 9 v -0.01 h 9 v -0.01 h 9 v -0.01 h 9 v 0 h 9 v -0.01 h 9 v -0.01 h 9 v -0.01 h 9 v -0.01 h 9 v 0 h 9 v 0 h 9 v 0 h 9 v -0.01 h 9 v 0 h 9 v 0 h 9 v 0 h 9 v 0 h 9 v 0 h 9 v 0 h 9 v 0 h 9 v 0 h 9 v 0 h 9 v 0 h 9 v 0 h 9 v 0.01 h 9 v 0 h 9 v 0 h 9 v 0 h 9 v 0 h 9 v 0.01 h 9 v 0 h 9 v 0.01 h 9 v 0 h 9 v 0.01 h 9 v 0 h 9 v 0.01 h 9 v 0 h 9 v 0 h 9 v 0.01 h 9 v 0 h 9 v 0.01 h 9 v 0.01 h 9 v 0 h 9 v 0 h 9 v 0.01 h 9 v 0 h 9 v 0.01 h 9 v 0 h 9 v 0 h 9 v 0.01 h 9 v 0.01 h 9 v 0 h 9 v 0.01 h 9 v 0.01 h 9 v 0 h 9 v 0 h 9 v 0 h 9 v 0.01 h 9 v 0.01 h 9 v 0 h 9 v 0.01 h 9 v 0 h 9 v 0 h 9 v 0.01 h 9 v 0 h 9 v 0.01 h 9 v 0 h 9 v 0 h 9 v 0 h 9 v 0.01 h 9 v 0 h 9 v 0.01 h 9 v 0 h 9 v 0.01 h 9 v 0 h 9 v 0.01 h 9 v 0 h 9 v 0 h 9 v 0 h 9 v 0 h 9 v 0.01 h 9 v 0 h 9 v 0 h 9 v 0.01 h 9 v 0 h 9 v 0 h 9 v 0.01 h 9 v 0 h 9 v 0 h 9 v 0 h 9 v 0 h 9 v 0 h 9 v 0 h 9 v 0.01 h 9 v 0 h 9 v 0 h 9 v 0 h 9 v 0 h 9 v 0.01 h 9 v 0 h 9 v 0 h 9 v 0 h 9 v 0 h 9 v 0 h 9 v 0 h 9 v 0 h 9 v 0 h 9 v 0 h 9 v 0 h 9 v 0 h 9 v 0 h 9 v 0.01 h 9 v 0 h 9 v 0 h 9 v 0 h 9 v 0 h 9 v 0 h 9 v 0 h 9 v 0 h 9 v 0 h 9 v 0 h 9 v 0 h 9 v 0 h 9 v 0 h 9 v 0 h 9 v 0 h 9 v 0 h 9 v 0 h 9 v 0 h 9 v 0.01 h 9 v 0 h 9 v 0 h 9 v 0 h 9 v 0 h 9 v 0 h 9 v 0 h 9 v 0 h 9 v 0 h 9 v 0 h 9 v 0 h 9 v 0 h 9 v 0 h 9 v -0.01 h 9 v 0 h 9 v 0 h 9 v 0 h 9 v 0 h 9 v 0 h 9 v 0 h 9 v 0 h 9 v 0 h 9 v 0 h 9 v 0 h 9 v 0 h 9 v 0 h 9 v 0 h 9 v 0 h 9 v 0 h 9 v 0 h 9 v 0 h 9 v 0 h 9 v 0 h 9 v 0 h 9 v 0 h 9 v 0 h 9 v 0 h 9 v 0 h 9 v 0 h 9 v 0 h 9 v 0 h 9 v 0 h 9 v 0 h 9 v 0 h 9 v 0 h 9 v 0 h 9 v 0 h 9 v 0 h 9 v 0 h 9 v 0 h 9 v 0 h 9 v 0 h 9 v -0.01 h 9 v 0 h 9 v 0 h 9 v 0 h 9 v 0 h 9 v 0 h 9 v 0 h 9 v 0 h 9 v 0 h 9 v 0 h 9 v 0 h 9 v 0 h 9 v 0 h 9 v 0 h 9 v 0 h 9 v 0 h 9 v 0 h 9 v 0 h 9 v 0 h 9 v 0 h 9 v 0 h 9 v 0 h 9 v 0 h 9 v 0 h 9 v 0 h 9 v 0 h 9 v 0 h 9 v 0 h 9 v 0 h 9 v 0 h 9 v 0 h 9 v 0 h 9 v 0 h 9 v 0 h 9 v 0 h 9 v 0 h 9 v 0 h 9 v 0 h 9 v 0 h 9 v 0 h 9 v 0 h 9 v 0 h 9 v 0 h 9 v 0 h 9 v 0 h 9 v 0 h 9 v 0 h 9 v 0 h 9 v 0 h 9 v 0 h 9 v 0 h 9 v 0 h 9 v 0 h 9 v 0 h 9 v 0 h 9 v 0 h 9 v 0 h 9 v 0 h 9 v 0 h 9 v 0 h 9 v 0 h 9 v 0 h 9 v 0 h 9 v 0 h 9 v 0 h 9 v 0 h 9 v 0 h 9 v 0 h 9 v 0 h 9 v 0 h 9 v 0 h 9 v 0 h 9 v 0 h 9 v 0 h 9 v 0 h 9 v 0 h 9 v 0 h 9 v 0 h 9 v 0 h 9 v 0 h 9 v 0 h 9 v 0 h 9 v 0 h 9 v 0 h 9 v 0 h 9 v 0 h 9 v 0 h 9 v 0 h 9 v 0 h 9 v 0 h 9 v 0 h 9 v 0 h 9 v 0 h 9 v 0 h 9 v 0 h 9 v 0 h 9 v 0 h 9 v 0 h 9 v 0 h 9 v 0 h 9 v 0 h 9 v 0 h 9 v 0 h 9 v 0 h 9 v 0 h 9 v 0 h 9 v 0 h 9 v 0 h 9 v 0 h 9 v 0 h 9 v 0 h 9 v 0 h 9 v 0 h 9 v 0 h 9 v 0 h 9 v 0 h 9 v 0 h 9 v 0 h 9 v 0 h 9 v 0 h 9 v 0 h 9 v 0 h 9 v 0 h 9 v 0 h 9 v 0 h 9 v 0 h 9 v 0 h 9 v 0 h 9 v 0 h 9 v 0 h 9 v 0 h 9 v 0 h 9 v 0 h 9 v 0 h 9 v 0 h 9 v 0 h 9 v 0 h 9 v 0 h 9 v 0 h 9 v 0 h 9 v 0 h 9 v 0 h 9 v 0 h 9 v 0 h 9 v 0 h 9 v 0 h 9 v 0 h 9 v 0 h 9 v 0 h 9 v 0 h 9 v 0 h 9 v 0 h 9 v 0 h 9 v 0 h 9 v 0 h 9 v 0 h 9 v 0 h 9 v 0 h 9 v 0 h 9 v 0 h 9 v 0 h 9 v 0 h 9 v 0 h 9 v 0 h 9 v 0 h 9 v 0 h 9 v 0 h 9 v 0 h 9 v 0 h 9 v 0 h 9 v 0 h 9 v 0 h 9 v 0 h 9 v 0 h 9 v 0 h 9 v 0 h 9 v 0 h 9 v 0 h 9 v 0 h 9 v 0 h 9 v 0 h 9 v 0 h 9 v 0 h 9 v 0 h 9 v 0 h 9 v 0 h 9 v 0 h 9 v 0 h 9 v 0 h 9 v 0 h 9 v 0 h 9 v 0 h 9 v 0 h 9 v 0 h 9 v 0 h 9 v 0 h 9 v 0 h 9 v 0 h 9 v 0 h 9 v 0 h 9 v 0 h 9 v 0 h 9 v 0 h 9 v 0 h 9 v 0 h 9 v 0 h 9 v 0 h 9 v 0 h 9 v 0 h 9 v 0 h 9 v 0 h 9 v 0 h 9 v 0 h 9 v 0 h 9 v 0 h 9 v 0 h 9 v 0 h 9 v 0 h 9 v 0 h 9 v 0 h 9 v 0 h 9 v 0 h 9 v 0 h 9 v 0 h 9 v 0 h 9 v 0 h 9 v 0 h 9 v 0 h 9 v 0 h 9 v 0 h 9 v 0 h 9 v 0 h 9 v 0 h 9 v 0 h 9 v 0 h 9 v 0 h 9 v 0 h 9 v 0 h 9 v 0 h 9 v 0 h 9 v 0 h 9 v 0 h 9 v 0 h 9 v 0 h 9 v 0 h 9 v 0 h 9 v 0 h 9 v 0 h 9 v 0 h 9 v 0 h 9 v 0 h 9 v 0 h 9 v 0 h 9 v 0 h 9 v 0 h 9 v 0 h 9 v 0 h 9 v 0 h 9 v 0 h 9 v 0 h 9 v 0 h 9 v 0 h 9 v 0 h 9 v 0 h 9 v 0 h 9 v 0 h 9 v 0 h 9 v 0 h 9 v 0 h 9 v 0 h 9 v 0 h 9 v 0 h 9 v 0 h 9 v 0 h 9 v 0 h 9 v 0 h 9 v 0 h 9 v 0 h 9 v 0 h 9 v 0 h 9 v 0 h 9 v 0 h 9 v 0 h 9 v 0 h 9 v 0 h 9 v 0 h 9 v 0 h 9 v 0 h 9 v 0 h 9 v 0 h 9 v 0 h 9 v 0 h 9 v 0 h 9 v 0 h 9 v 0 h 9 v 0 h 9 v 0 h 9 v 0 h 9 v 0 h 9 v 0 h 9 v 0 h 9 v 0 h 9 v 0 h 9 v 0 h 9 v 0 h 9 v 0 h 9 v 0" /><path
         id="path114"
         style="fill:none;stroke:#ff0000;stroke-width:15;stroke-linecap:butt;stroke-linejoin:miter;stroke-miterlimit:10;stroke-dasharray:none;stroke-opacity:1"
         d="m 1395,1634.01 h 9 v 0 h 9 v 0 h 9 v 0 h 9 v 0 h 9 v 0 h 9 v 0 h 9 v 0 h 9 v 0 h 9 v 0 h 9 v 0 h 9 v 0 h 9 v 0 h 9 v 0 h 9 v 0 h 9 v 0 h 9 v 0 h 9 v 0 h 9 v 0 h 9 v 0 h 9 v 0 h 9 v 0 h 9 v 0 h 9 v 0 h 9 v 0 h 9 v 0 h 9 v 0 h 9 v 0 h 9 v 0 h 9 v 0 h 9 v 0 h 9 v 0 h 9 v 0 h 9 v 0 h 9 v 0 h 9 v 0 h 9 v 0 h 9 v 0 h 9 v 0 h 9 v 0 h 9 v 0 h 9 v 0 h 9 v 0 h 9 v 0 h 9 v 0 h 9 v 0 h 9 v 0 h 9 v 0 h 9 v 0 h 9 v 0 h 9 v 0 h 9 v 0 h 9 v 0 h 9 v 0 h 9 v 0 h 9 v 0 h 9 v 0 h 9 v 0 h 9 v 0 h 9 v 0 h 9 v 0 h 9 v 0 h 9 v 0 h 9 v 0 h 9 v 0 h 9 v 0 h 9 v 0 h 9 v 0 h 9 v 0 h 9 v 0 h 9 v 0 h 9 v 0 h 9 v 0 h 9 v 0 h 9 v 0 h 9 v 0 h 9 v 0 h 9 v 0 h 9 v 0 h 9 v 0 h 9 v 0 h 9 v 0 h 9 v 0 h 9 v 0 h 9 v 0 h 9 v 0 h 9 v 0 h 9 v 0 h 9 v 0 h 9 v 0 h 9 v 0 h 9 v 0 h 9 v 0 h 9 v 0 h 9 v 0 h 9 v 0 h 9 v 0 h 9 v 0 h 9 v 0 h 9 v 0 h 9 v 1743.62 h 9 v 0 h 9 v 0 h 9 v 0 h 9 v 0 h 9 v 0 h 9 v 0 h 9 v 0 h 9 v 0 h 9 v 0 h 9 v 0 h 9 v 0 h 9 v 0 h 9 v 0 h 9 v 0 h 9 v 0 h 9 v 0 h 9 v 0 h 9 v 0 h 9 v 0 h 9 v 0 h 9 v 0 h 9 v 0 h 9 v 0 h 9 v 0 h 9 v 0 h 9 v 0 h 9 v 0 h 9 v 0 h 9 v 0 h 9 v 0 h 9 v 0 h 9 v 0 h 9 v 0 h 9 v 0 h 9 v 0 h 9 v 0 h 9 v 0 h 9 v 0 h 9 v 0 h 9 v 0 h 9 v 0 h 9 v 0 h 9 v 0 h 9 v 0 h 9 v 0 h 9 v 0 h 9 v 0 h 9 v 0 h 9 v 0 h 9 v 0 h 9 v 0 h 9 v 0 h 9 v 0 h 9 v 0 h 9 v 0 h 9 v 0 h 9 v 0 h 9 v 0 h 9 v 0 h 9 v 0 h 9 v 0 h 9 v 0 h 9 v 0 h 9 v 0 h 9 v 0 h 9 v 0 h 9 v 0 h 9 v 0 h 9 v 0 h 9 v 0 h 9 v 0 h 9 v 0 h 9 v 0 h 9 v 0 h 9 v 0 h 9 v 0 h 9 v 0 h 9 v 0 h 9 v 0 h 9 v 0 h 9 v 0 h 9 v 0 h 9 v 0 h 9 v 0 h 9 v 0 h 9 v 0 h 9 v 0 h 9 v 0 h 9 v 0 h 9 v 0 h 9 v 0 h 9 v 0 h 9 v 0 h 9 v 0 h 9 v 0 h 9 v 0 h 9 v 0 h 9 v 0 h 9 v 0 h 9 v 0 h 9 v 0 h 9 v 0 h 9 v 0 h 9 v 0 h 9 v 0 h 9 v 0 h 9 v 0 h 9 v 0 h 9 v 0 h 9 v 0 h 9 v 0 h 9 v 0 h 9 v 0 h 9 v 0 h 9 v 0 h 9 v 0 h 9 v 0 h 9 v 0 h 9 v 0 h 9 v 0 h 9 v 0 h 9 v 0 h 9 v 0 h 9 v 0 h 9 v 0 h 9 v 0 h 9 v 0 h 9 v 0 h 9 v 0 h 9 v 0 h 9 v 0 h 9 v 0 h 9 v 0 h 9 v 0 h 9 v 0 h 9 v 0 h 9 v 0 h 9 v 0 h 9 v 0 h 9 v 0 h 9 v 0 h 9 v 0 h 9 v 0 h 9 v 0 h 9 v 0 h 9 v 0 h 9 v 0 h 9 v 0 h 9 v 0 h 9 v 0 h 9 v 0 h 9 v 0 h 9 v 0 h 9 v 0 h 9 v 0 h 9 v 0 h 9 v 0 h 9 v 0 h 9 v 0 h 9 v 0 h 9 v 0 h 9 v 0 h 9 v 0 h 9 v 0 h 9 v 0 h 9 v 0 h 9 v 0 h 9 v 0 h 9 v 0 h 9 v 0 h 9 v 0 h 9 v 0 h 9 v 0 h 9 v 0 h 9 v 0 h 9 v 0 h 9 v 0 h 9 v 0 h 9 v 0 h 9 v 0 h 9 v 0 h 9 v 0 h 9 v 0 h 9 v 0 h 9 v 0 h 9 v 0 h 9 v 0 h 9 v 0 h 9 v 0 h 9 v 0 h 9 v 0 h 9 v 0 h 9 v 0 h 9 v 0 h 9 v 0 h 9 v 0 h 9 v 0 h 9 v 0 h 9 v 0 h 9 v 0 h 9 v 0 h 9 v 0 h 9 v 0 h 9 v 0 h 9 v 0 h 9 v 0 h 9 v 0 h 9 v 0 h 9 v 0 h 9 v 0 h 9 v 0 h 9 v 0 h 9 v 0 h 9 v 0 h 9 v 0 h 9 v 0 h 9 v 0 h 9 v 0 h 9 v 0 h 9 v 0 h 9 v 0 h 9 v 0 h 9 v 0 h 9 v 0 h 9 v 0 h 9 v 0 h 9 v 0 h 9 v 0 h 9 v 0 h 9 v 0 h 9 v 0 h 9 v 0 h 9 v 0 h 9 v 0 h 9 v 0 h 9 v 0 h 9 v 0 h 9 v 0 h 9 v 0 h 9 v 0 h 9 v 0 h 9 v 0 h 9 v 0 h 9 v 0 h 9 v 0 h 9 v 0 h 9 v 0 h 9 v 0 h 9 v 0 h 9 v 0 h 9 v 0 h 9 v 0 h 9 v 0 h 9 v 0 h 9 v 0 h 9 v 0 h 9 v 0 h 9 v 0 h 9 v 0 h 9 v 0 h 9 v 0 h 9 v 0 h 9 v 0 h 9 v 0 h 9 v 0 h 9 v 0 h 9 v 0 h 9 v 0 h 9 v 0 h 9 v 0 h 9 v 0 h 9 v 0 h 9 v 0 h 9 v 0 h 9 v 0 h 9 v 0 h 9 v 0 h 9 v 0 h 9 v 0 h 9 v 0 h 9 v 0 h 9 v 0 h 9 v 0 h 9 v 0 h 9 v 0 h 9 v 0 h 9 v 0 h 9 v 0 h 9 v 0 h 9 v 0 h 9 v 0 h 9 v 0 h 9 v 0 h 9 v 0 h 9 v 0 h 9 v 0 h 9 v 0 h 9 v 0 h 9 v 0 h 9 v 0 h 9 v 0 h 9 v 0 h 9 v 0 h 9 v 0 h 9 v 0 h 9 v 0 h 9 v 0 h 9 v 0 h 9 v 0 h 9 v 0 h 9 v 0 h 9 v 0 h 9 v 0 h 9 v 0 h 9 v 0 h 9 v 0 h 9 v 0 h 9 v 0 h 9 v 0 h 9 v 0 h 9 v 0 h 9 v 0 h 9 v 0 h 9 v 0 h 9 v 0 h 9 v 0 h 9 v 0 h 9 v 0 h 9 v 0 h 9 v 0 h 9 v 0 h 9 v 0 h 9 v 0 h 9 v 0 h 9 v 0 h 9 v 0 h 9 v 0 h 9 v 0 h 9 v 0 h 9 v 0 h 9 v 0 h 9 v 0 h 9 v 0 h 9 v 0 h 9 v 0 h 9 v 0 h 9 v 0 h 9 v 0 h 9 v 0 h 9 v 0 h 9 v 0 h 9 v 0 h 9 v 0 h 9 v 0 h 9 v 0 h 9 v 0 h 9 v 0 h 9 v 0 h 9 v 0 h 9 v 0 h 9 v 0 h 9 v 0 h 9 v 0 h 9 v 0 h 9 v 0 h 9 v 0 h 9 v 0 h 9 v 0 h 9 v 0 h 9 v 0 h 9 v 0 h 9 v 0 h 9 v 0 h 9 v 0 h 9 v 0 h 9 v 0 h 9 v 0 h 9 v 0 h 9 v 0 h 9 v 0 h 9 v 0 h 9 v 0 h 9 v 0 h 9 v 0 h 9 v 0 h 9 v 0 h 9 v 0 h 9 v 0 h 9 v 0 h 9 v 0 h 9 v 0 h 9 v 0 h 9 v 0 h 9 v 0 h 9 v 0 h 9 v 0 h 9 v 0 h 9 v 0 h 9 v 0 h 9 v 0 h 9 v 0 h 9 v 0 h 9 v 0 h 9 v 0 h 9 v 0 h 9 v 0 h 9 v 0 h 9 v 0 h 9 v 0 h 9 v 0 h 9 v 0 h 9 v 0 h 9 v 0 h 9 v 0 h 9 v 0 h 9 v 0 h 9 v 0 h 9 v 0 h 9 v 0 h 9 v 0 h 9 v 0 h 9 v 0 h 9 v 0 h 9 v 0 h 9 v 0 h 9 v 0 h 9 v 0 h 9 v 0 h 9 v 0 h 9 v 0 h 9 v 0 h 9 v 0 h 9 v 0 h 9 v 0 h 9 v 0 h 9 v 0 h 9 v 0 h 9 v 0 h 9 v 0 h 9 v 0 h 9 v 0 h 9 v 0 h 9 v 0 h 9 v 0 h 9 v 0 h 9 v 0 h 9 v 0 h 9 v 0 h 9 v 0 h 9 v 0 h 9 v 0 h 9 v 0 h 9 v 0 h 9 v 0 h 9 v 0 h 9 v 0 h 9 v 0 h 9 v 0 h 9 v 0 h 9 v 0 h 9 v 0 h 9 v 0 h 9 v 0 h 9 v 0 h 9 v 0 h 9 v 0 h 9 v 0 h 9 v 0 h 9 v 0 h 9 v 0 h 9 v 0 h 9 v 0 h 9 v 0 h 9 v 0 h 9 v 0 h 9 v 0 h 9 v 0 h 9 v 0 h 9 v 0 h 9 v 0 h 9 v 0 h 9 v 0 h 9 v 0 h 9 v 0 h 9 v 0 h 9 v 0 h 9 v 0 h 9 v 0 h 9 v 0 h 9 v 0 h 9 v 0 h 9 v 0 h 9 v 0 h 9 v 0 h 9 v 0 h 9 v 0 h 9 v 0 h 9 v 0 h 9 v 0 h 9 v 0 h 9 v 0 h 9 v 0 h 9 v 0 h 9 v 0 h 9 v 0 h 9 v 0 h 9 v 0 h 9 v 0 h 9 v 0 h 9 v 0 h 9 v 0 h 9 v 0 h 9 v 0 h 9 v 0 h 9 v 0 h 9 v 0 h 9 v 0 h 9 v 0 h 9 v 0 h 9 v 0 h 9 v 0 h 9 v 0 h 9 v 0 h 9 v 0 h 9 v 0 h 9 v 0 h 9 v 0 h 9 v 0 h 9 v 0 h 9 v 0 h 9 v 0 h 9 v 0 h 9 v 0 h 9 v 0 h 9 v 0 h 9 v 0 h 9 v 0 h 9 v 0 h 9 v 0 h 9 v 0 h 9 v 0 h 9 v 0 h 9 v 0 h 9 v 0 h 9 v 0 h 9 v 0 h 9 v 0 h 9 v 0 h 9 v 0 h 9 v 0 h 9 v 0 h 9 v 0 h 9 v 0 h 9 v 0 h 9 v 0 h 9 v 0 h 9 v 0 h 9 v 0 h 9 v 0 h 9 v 0 h 9 v 0 h 9 v 0 h 9 v 0 h 9 v 0 h 9 v 0 h 9 v 0 h 9 v 0 h 9 v 0 h 9 v 0 h 9 v 0 h 9 v 0 h 9 v 0 h 9 v 0 h 9 v 0 h 9 v 0 h 9 v 0 h 9 v 0 h 9 v 0 h 9 v 0 h 9 v 0 h 9 v 0 h 9 v 0 h 9 v 0 h 9 v 0 h 9 v 0 h 9 v 0 h 9 v 0 h 9 v 0 h 9 v 0 h 9 v 0 h 9 v 0 h 9 v 0 h 9 v 0 h 9 v 0 h 9 v 0 h 9 v 0 h 9 v 0 h 9 v 0 h 9 v 0 h 9 v 0 h 9 v 0 h 9 v 0 h 9 v 0 h 9 v 0 h 9 v 0 h 9 v 0 h 9 v 0 h 9 v 0 h 9 v 0 h 9 v 0 h 9 v 0 h 9 v 0 h 9 v 0 h 9 v 0 h 9 v 0 h 9 v 0 h 9 v 0 h 9 v 0 h 9 v 0 h 9 v 0 h 9 v 0 h 9 v 0 h 9 v 0 h 9 v 0 h 9 v 0 h 9 v 0 h 9 v 0 h 9 v 0 h 9 v 0 h 9 v 0 h 9 v 0 h 9 v 0 h 9 v 0 h 9 v 0 h 9 v 0 h 9 v 0 h 9 v 0 h 9 v 0 h 9 v 0 h 9 v 0 h 9 v 0 h 9 v 0 h 9 v 0 h 9 v 0 h 9 v 0 h 9 v 0 h 9 v 0 h 9 v 0 h 9 v 0 h 9 v 0 h 9 v 0 h 9 v 0 h 9 v 0 h 9 v 0 h 9 v 0 h 9 v 0 h 9 v 0 h 9 v 0 h 9 v 0 h 9 v 0 h 9 v 0 h 9 v 0 h 9 v 0 h 9 v 0 h 9 v 0 h 9 v 0 h 9 v 0 h 9 v 0 h 9 v 0 h 9 v 0 h 9 v 0 h 9 v 0 h 9 v 0 h 9 v 0 h 9 v 0 h 9 v 0 h 9 v 0 h 9 v 0 h 9 v 0 h 9 v 0 h 9 v 0 h 9 v 0 h 9 v 0 h 9 v 0 h 9 v 0 h 9 v 0 h 9 v 0 h 9 v 0 h 9 v 0 h 9 v 0 h 9 v 0 h 9 v 0 h 9 v 0 h 9 v 0 h 9 v 0 h 9 v 0 h 9 v 0 h 9 v 0 h 9 v 0 h 9 v 0" /><path
         id="path116"
         style="fill:none;stroke:#000000;stroke-width:15;stroke-linecap:butt;stroke-linejoin:round;stroke-miterlimit:10;stroke-dasharray:none;stroke-opacity:1"
         d="m 1395,1634.01 9,-0.73 9,-2.14 9,-3.47 9,-4.74 9,-5.95 9,-7.07 9,-8.14 9,-9.14 9,-10.09 9,-10.97 9,-11.78 9,-12.55 9,-13.24 9,-13.91 9,-14.49 9,-15.03 9,-15.54 9,-15.97 9,-16.38 9,-16.72 9,-17.03 9,-17.3 9,-17.53 9,-17.72 9,-17.86 9,-17.98 9,-18.05 9,-18.11 9,-18.12 9,-18.1 9,-18.06 9,-18 9,-17.9 9,-17.79 9,-17.64 9,-17.48 9,-17.3 9,-17.1 9,-16.89 9,-16.64 9,-16.41 9,-16.14 9,-15.86 9,-15.58 9,-15.276 9,-14.977 9,-14.656 9,-14.34 9,-14 9,-13.672 9,-13.328 9,-12.992 9,-12.637 9,-12.285 9,-11.934 9,-11.578 9,-11.226 9,-10.867 9,-10.516 9,-10.164 9,-9.809 9,-9.465 9,-9.113 9,-8.773 9,-8.434 9,-8.09 9,-7.761 9,-7.434 9,-7.109 9,-6.789 9,-6.481 9,-6.172 9,-5.871 9,-5.574 9,-5.285 9,-5.004 9,-4.727 9,-4.453 9,-4.191 9,-3.938 9,-3.691 9,-3.442 9,-3.211 9,-2.976 9,-2.762 9,-2.543 9,-2.34 9,-2.136 9,-1.942 9,-1.758 9,-1.582 9,-1.402 9,-1.238 9,-1.071 9,-0.929 9,-0.781 9,-0.637 9,-0.504 9,-0.375 9,-0.254 9,2.055 9,6.359 9,8.77 9,9.418 9,11.265 9,14.219 9,16.074 9,16.836 9,18.234 9,20.235 9,21.578 9,22.254 9,23.25 9,24.562 9,25.477 9,25.973 9,26.625 9,27.425 9,28 9,28.286 9,28.64 9,29.08 9,29.35 9,29.45 9,29.57 9,29.71 9,29.76 9,29.69 9,29.62 9,29.54 9,29.41 9,29.19 9,28.97 9,28.74 9,28.46 9,28.14 9,27.8 9,27.44 9,27.07 9,26.66 9,26.23 9,25.81 9,25.35 9,24.89 9,24.39 9,23.92 9,23.42 9,22.9 9,22.39 9,21.88 9,21.35 9,20.82 9,20.29 9,19.76 9,19.23 9,18.69 9,18.16 9,17.63 9,17.1 9,16.57 9,16.06 9,15.53 9,15.03 9,14.52 9,14 9,13.53 9,13.03 9,12.54 9,12.07 9,11.61 9,11.15 9,10.68 9,10.25 9,9.82 9,9.39 9,8.97 9,8.57 9,8.16 9,7.78 9,7.4 9,7.02 9,6.66 9,6.31 9,5.97 9,5.63 9,5.32 9,5 9,4.68 9,4.41 9,4.1 9,3.83 9,3.57 9,3.3 9,3.06 9,2.81 9,2.58 9,2.35 9,2.14 9,1.93 9,1.73 9,1.54 9,1.36 9,1.17 9,1.01 9,0.85 9,0.7 9,0.55 9,0.4 9,0.28 9,0.15 9,0.02 9,-0.08 9,-0.19 9,-0.3 9,-0.4 9,-0.48 9,-0.57 9,-0.64 9,-0.73 9,-0.79 9,-0.86 9,-0.92 9,-0.97 9,-1.03 9,-1.08 9,-1.11 9,-1.16 9,-1.2 9,-1.22 9,-1.26 9,-1.28 9,-1.3 9,-1.33 9,-1.34 9,-1.35 9,-1.36 9,-1.39 9,-1.38 9,-1.38 9,-1.39 9,-1.39 9,-1.38 9,-1.38 9,-1.38 9,-1.36 9,-1.37 9,-1.35 9,-1.33 9,-1.33 9,-1.31 9,-1.29 9,-1.29 9,-1.25 9,-1.25 9,-1.23 9,-1.21 9,-1.18 9,-1.16 9,-1.15 9,-1.12 9,-1.1 9,-1.08 9,-1.05 9,-1.03 9,-1.01 9,-0.98 9,-0.96 9,-0.94 9,-0.91 9,-0.89 9,-0.87 9,-0.84 9,-0.81 9,-0.79 9,-0.77 9,-0.74 9,-0.73 9,-0.7 9,-0.67 9,-0.66 9,-0.63 9,-0.61 9,-0.59 9,-0.56 9,-0.55 9,-0.52 9,-0.51 9,-0.48 9,-0.46 9,-0.44 9,-0.43 9,-0.4 9,-0.4 9,-0.37 9,-0.35 9,-0.34 9,-0.32 9,-0.31 9,-0.29 9,-0.27 9,-0.26 9,-0.24 9,-0.24 9,-0.22 9,-0.2 9,-0.18 9,-0.19 9,-0.16 9,-0.16 9,-0.14 9,-0.13 9,-0.13 9,-0.12 9,-0.09 9,-0.1 9,-0.08 9,-0.08 9,-0.07 9,-0.06 9,-0.06 9,-0.04 9,-0.04 9,-0.03 9,-0.03 9,-0.01 9,-0.02 9,-0.01 h 9 9 l 9,0.01 9,0.01 9,0.02 9,0.01 9,0.03 9,0.02 9,0.03 9,0.03 9,0.04 9,0.04 9,0.03 9,0.05 9,0.04 9,0.05 9,0.04 9,0.06 9,0.05 9,0.05 9,0.06 9,0.05 9,0.05 9,0.06 9,0.05 9,0.06 9,0.06 9,0.06 9,0.05 9,0.07 9,0.06 9,0.05 9,0.06 9,0.06 9,0.06 9,0.05 9,0.06 9,0.05 9,0.06 9,0.06 9,0.05 9,0.05 9,0.06 9,0.05 9,0.05 9,0.05 9,0.05 9,0.05 9,0.05 9,0.04 9,0.05 9,0.04 9,0.05 9,0.04 9,0.05 9,0.04 9,0.04 9,0.04 9,0.04 9,0.04 9,0.03 9,0.04 9,0.03 9,0.04 9,0.03 9,0.03 9,0.03 9,0.03 9,0.03 9,0.03 9,0.02 9,0.03 9,0.02 9,0.02 9,0.03 9,0.02 9,0.02 9,0.02 9,0.03 9,0.01 9,0.02 9,0.02 9,0.01 9,0.02 9,0.02 9,0.01 9,0.02 h 9 l 9,0.02 9,0.01 9,0.01 9,0.02 h 9 l 9,0.01 9,0.01 9,0.01 h 9 l 9,0.01 9,0.01 h 9 l 9,0.01 h 9 l 9,0.01 9,0.01 h 9 l 9,0.01 h 9 9 9 9 9 l 9,0.01 h 9 9 9 9 9 9 9 9 9 9 9 9 9 l 9,-0.01 h 9 9 9 9 9 9 9 9 l 9,-0.01 h 9 9 9 l 9,-0.01 h 9 9 l 9,-0.01 h 9 9 l 9,-0.01 h 9 9 9 9 9 l 9,-0.01 h 9 9 l 9,-0.01 h 9 9 9 9 9 9 l 9,-0.01 h 9 9 l 9,-0.01 h 9 9 9 l 9,-0.01 h 9 9 9 9 9 9 9 l 9,-0.01 h 9 9 9 9 l 9,-0.01 h 9 9 9 9 9 l 9,-0.01 h 9 9 9 9 9 9 l 9,-0.01 h 9 9 9 9 9 9 9 9 9 9 9 9 9 9 9 9 9 9 9 9 9 9 9 9 9 9 9 9 9 9 9 9 9 9 9 9 9 9 9 9 9 9 9 9 9 9 9 9 9 9 9 9 9 9 9 9 9 9 9 9 9 9 9 9 9 9 9 9 9 9 9 9 9 9 9 9 9 9 9 9 9 9 9 9 9 9 9 9 9 9 9 9 9 9 9 9 9 9 9 9 9 9 9 9 9 9 9 9 9 9 9 9 9 9 9 9 9 9 9 9 9 9 9 9 9 9 9 9 9 9 9 9 9 9 9 9 9 9 9 9 9 9 9 9 9 9 9 9 9 9 9 9 9 9 9 9 9 9 9 9 9 9 9 9 9 9 9 9 9 9 9 9 9 9 9 9 9 9 9 9 9 9 9 9 9 9 9 9 9 9 9 9 9 9 9 9 9 9 9 9 9 9 9 9 9 9 9 9 9 9 9 9 9 9 9 9 9 9 9 9 9 9 9 9 9 9 9 9 9 9 9 9 9 9 9 9 9 9 9 9 9 9 9 9 9 9 9 9 9 9 9 9 9 9 9 9 9 9 9 9 9 9 9 9 9 9 9 9 9 9 9 9 9 9 9 9 9 9 9" /><path
         id="path118"
         style="fill:#ffffff;fill-opacity:1;fill-rule:nonzero;stroke:none"
         d="M 1492.5,2482.5 H 2070 V 3315 h -577.5 z" /><path
         id="path120"
         style="fill:#000000;fill-opacity:1;fill-rule:nonzero;stroke:none"
         d="m 1866.01,3083.5 c 3.04,-5.24 8.36,-7.86 15.94,-7.86 6.87,0 12.81,2.43 17.81,7.27 5,4.84 9.04,10.68 12.13,17.52 3.08,6.84 5.49,13.81 7.21,20.92 -6.41,-6.09 -13.4,-9.14 -20.98,-9.14 -5.71,0 -10.57,0.99 -14.6,2.99 -4.02,1.99 -7.14,4.96 -9.37,8.9 -2.23,3.95 -3.34,8.69 -3.34,14.24 0,4.76 0.63,9.64 1.88,14.64 1.25,5 3.02,10.56 5.33,16.65 2.3,6.09 4.32,11.41 6.03,15.94 1.88,5.31 2.82,9.69 2.82,13.12 0,4.3 -1.57,6.45 -4.69,6.45 -5.78,0 -10.53,-2.95 -14.24,-8.85 -3.71,-5.9 -6.46,-12.52 -8.26,-19.87 -0.23,-0.85 -0.82,-1.28 -1.76,-1.28 h -2.57 c -1.18,0 -1.77,0.66 -1.77,1.99 v 0.58 c 2.35,8.68 5.92,16.36 10.73,23.04 4.8,6.68 10.88,10.02 18.23,10.02 5.15,0 9.52,-1.7 13.12,-5.11 3.59,-3.39 5.38,-7.71 5.38,-12.95 0,-2.65 -0.58,-5.46 -1.75,-8.43 -0.71,-1.8 -2.19,-5.67 -4.46,-11.61 -2.26,-5.93 -3.98,-10.85 -5.15,-14.76 -1.17,-3.91 -2.15,-7.74 -2.93,-11.49 -0.78,-3.75 -1.17,-7.5 -1.17,-11.25 0,-4.84 1.01,-8.92 3.05,-12.24 2.02,-3.32 5.26,-4.98 9.72,-4.98 8.99,0 17.07,5.51 24.26,16.53 l 16.41,66.91 c 0.54,1.95 1.69,3.61 3.45,4.98 1.76,1.36 3.66,2.05 5.69,2.05 1.79,0 3.36,-0.57 4.69,-1.7 1.32,-1.13 1.98,-2.59 1.98,-4.39 0,-0.86 -0.07,-1.45 -0.23,-1.76 l -21.56,-86.49 c -1.96,-7.5 -5.47,-14.64 -10.55,-21.44 -5.08,-6.8 -11.21,-12.27 -18.39,-16.41 -7.19,-4.14 -14.69,-6.21 -22.5,-6.21 -3.75,0 -7.47,0.74 -11.14,2.23 -3.67,1.48 -6.64,3.67 -8.91,6.56 -2.26,2.89 -3.39,6.29 -3.39,10.19 0,3.91 1.17,7.32 3.51,10.26 2.34,2.93 5.43,4.39 9.26,4.39 2.35,0 4.32,-0.72 5.92,-2.17 1.6,-1.44 2.4,-3.34 2.4,-5.68 0,-3.35 -1.23,-6.26 -3.69,-8.73 -2.46,-2.46 -5.37,-3.69 -8.73,-3.69 -0.16,0.08 -0.29,0.12 -0.42,0.12 -0.11,0 -0.25,0 -0.4,0" /><path
         id="path122"
         style="fill:#000000;fill-opacity:1;fill-rule:nonzero;stroke:none"
         d="m 1987.23,3079.91 c -5,0 -9.38,1.31 -13.13,3.93 -3.75,2.62 -6.62,6.13 -8.61,10.54 -1.99,4.42 -2.99,9.08 -2.99,14.01 0,7.5 1.89,14.55 5.68,21.15 3.79,6.6 8.91,11.87 15.36,15.82 6.44,3.94 13.34,5.92 20.68,5.92 4.53,0 8.48,-1.17 11.83,-3.51 3.36,-2.35 5.05,-5.71 5.05,-10.08 0,-6.02 -2.4,-10.49 -7.21,-13.42 -4.81,-2.93 -10.24,-4.75 -16.29,-5.45 -6.06,-0.7 -12.76,-1.05 -20.1,-1.05 h -0.46 c -1.73,-6.25 -2.59,-11.61 -2.59,-16.06 0,-4.69 1.1,-8.81 3.29,-12.36 2.18,-3.56 5.46,-5.33 9.84,-5.33 6.25,0 12.26,1.44 18.05,4.33 5.78,2.89 10.47,6.88 14.06,11.95 0.31,0.32 0.74,0.47 1.29,0.47 0.47,0 0.97,-0.29 1.52,-0.88 0.55,-0.58 0.82,-1.15 0.82,-1.7 0,-0.39 -0.07,-0.7 -0.23,-0.94 -3.91,-5.39 -9.11,-9.62 -15.59,-12.71 -6.48,-3.08 -13.24,-4.63 -20.27,-4.63 z m -9.26,41.96 c 6.1,0 11.74,0.27 16.94,0.82 5.19,0.54 9.88,1.95 14.06,4.21 4.18,2.27 6.27,5.83 6.27,10.67 0,1.95 -0.53,3.65 -1.58,5.09 -1.06,1.45 -2.45,2.56 -4.17,3.34 -1.72,0.79 -3.51,1.18 -5.39,1.18 -4.45,0 -8.45,-1.21 -12.01,-3.64 -3.55,-2.41 -6.48,-5.56 -8.79,-9.43 -2.3,-3.87 -4.08,-7.95 -5.33,-12.24" /><path
         id="path124"
         style="fill:none;stroke:#0072bd;stroke-width:15;stroke-linecap:butt;stroke-linejoin:round;stroke-miterlimit:10;stroke-dasharray:none;stroke-opacity:1"
         d="m 1522.73,3167.47 h 302.32" /><path
         id="path126"
         style="fill:#000000;fill-opacity:1;fill-rule:nonzero;stroke:none"
         d="m 1864.48,2849.7 c 0,0.86 0.08,1.48 0.24,1.87 l 16.29,64.93 c 1.02,3.98 1.53,7.5 1.53,10.55 0,6.25 -2.12,9.37 -6.34,9.37 -4.53,0 -7.89,-2.71 -10.07,-8.14 -2.19,-5.43 -4.34,-12.29 -6.45,-20.57 0,-0.39 -0.2,-0.71 -0.58,-0.94 -0.39,-0.23 -0.79,-0.35 -1.18,-0.35 h -2.57 c -0.47,0 -0.89,0.26 -1.23,0.76 -0.36,0.51 -0.54,1 -0.54,1.46 1.57,6.25 3.07,11.59 4.52,16 1.44,4.41 3.71,8.42 6.79,12.02 3.09,3.59 6.93,5.39 11.55,5.39 5,0 9.39,-1.45 13.18,-4.34 3.79,-2.89 6.15,-6.72 7.09,-11.49 3.67,4.85 7.85,8.69 12.54,11.55 4.69,2.85 9.85,4.28 15.47,4.28 4.61,0 8.67,-1.35 12.19,-4.05 3.51,-2.7 5.27,-6.35 5.27,-10.95 0,-3.68 -1.15,-6.88 -3.46,-9.62 -2.3,-2.73 -5.37,-4.1 -9.2,-4.1 -2.34,0 -4.31,0.74 -5.92,2.23 -1.6,1.48 -2.4,3.4 -2.4,5.74 0,3.13 1.18,5.96 3.52,8.5 2.34,2.54 5.04,3.81 8.08,3.81 -2.34,1.87 -5.19,2.81 -8.55,2.81 -6.17,0 -11.56,-2.21 -16.17,-6.62 -4.61,-4.41 -8.75,-10.02 -12.42,-16.82 l -15.59,-62.22 c -0.47,-2.04 -1.56,-3.76 -3.28,-5.16 -1.72,-1.41 -3.67,-2.11 -5.86,-2.11 -1.72,0 -3.22,0.57 -4.52,1.7 -1.28,1.13 -1.93,2.63 -1.93,4.51" /><path
         id="path128"
         style="fill:none;stroke:#ff0000;stroke-width:15;stroke-linecap:butt;stroke-linejoin:round;stroke-miterlimit:10;stroke-dasharray:none;stroke-opacity:1"
         d="m 1522.73,2898.75 h 302.32" /><path
         id="path130"
         style="fill:#000000;fill-opacity:1;fill-rule:nonzero;stroke:none"
         d="m 1866.01,2546.06 c 3.04,-5.23 8.36,-7.85 15.94,-7.85 6.87,0 12.81,2.42 17.81,7.27 5,4.84 9.04,10.68 12.13,17.52 3.08,6.83 5.49,13.8 7.21,20.91 -6.41,-6.09 -13.4,-9.14 -20.98,-9.14 -5.71,0 -10.57,1 -14.6,2.99 -4.02,1.99 -7.14,4.96 -9.37,8.91 -2.23,3.94 -3.34,8.69 -3.34,14.23 0,4.77 0.63,9.65 1.88,14.65 1.25,5 3.02,10.55 5.33,16.64 2.3,6.1 4.32,11.41 6.03,15.94 1.88,5.32 2.82,9.69 2.82,13.12 0,4.3 -1.57,6.45 -4.69,6.45 -5.78,0 -10.53,-2.95 -14.24,-8.84 -3.71,-5.91 -6.46,-12.53 -8.26,-19.87 -0.23,-0.86 -0.82,-1.29 -1.76,-1.29 h -2.57 c -1.18,0 -1.77,0.67 -1.77,1.99 v 0.59 c 2.35,8.67 5.92,16.35 10.73,23.03 4.8,6.68 10.88,10.02 18.23,10.02 5.15,0 9.52,-1.7 13.12,-5.1 3.59,-3.4 5.38,-7.72 5.38,-12.95 0,-2.66 -0.58,-5.47 -1.75,-8.44 -0.71,-1.8 -2.19,-5.66 -4.46,-11.6 -2.26,-5.94 -3.98,-10.86 -5.15,-14.76 -1.17,-3.91 -2.15,-7.74 -2.93,-11.49 -0.78,-3.75 -1.17,-7.5 -1.17,-11.25 0,-4.84 1.01,-8.92 3.05,-12.24 2.02,-3.32 5.26,-4.98 9.72,-4.98 8.99,0 17.07,5.5 24.26,16.52 l 16.41,66.91 c 0.54,1.95 1.69,3.61 3.45,4.98 1.76,1.37 3.66,2.05 5.69,2.05 1.79,0 3.36,-0.56 4.69,-1.69 1.32,-1.14 1.98,-2.6 1.98,-4.4 0,-0.86 -0.07,-1.44 -0.23,-1.76 l -21.56,-86.48 c -1.96,-7.5 -5.47,-14.65 -10.55,-21.45 -5.08,-6.8 -11.21,-12.27 -18.39,-16.41 -7.19,-4.14 -14.69,-6.2 -22.5,-6.2 -3.75,0 -7.47,0.74 -11.14,2.22 -3.67,1.49 -6.64,3.67 -8.91,6.57 -2.26,2.89 -3.39,6.28 -3.39,10.19 0,3.9 1.17,7.32 3.51,10.25 2.34,2.93 5.43,4.39 9.26,4.39 2.35,0 4.32,-0.72 5.92,-2.16 1.6,-1.45 2.4,-3.34 2.4,-5.69 0,-3.35 -1.23,-6.26 -3.69,-8.73 -2.46,-2.46 -5.37,-3.69 -8.73,-3.69 -0.16,0.08 -0.29,0.12 -0.42,0.12 -0.11,0 -0.25,0 -0.4,0" /><path
         id="path132"
         style="fill:none;stroke:#000000;stroke-width:15;stroke-linecap:butt;stroke-linejoin:round;stroke-miterlimit:10;stroke-dasharray:none;stroke-opacity:1"
         d="m 1522.73,2630.03 h 302.32" /><path
         id="path134"
         style="fill:none;stroke:#262626;stroke-width:5.00250006;stroke-linecap:butt;stroke-linejoin:miter;stroke-miterlimit:10;stroke-dasharray:none;stroke-opacity:1"
         d="M 1492.5,2482.5 H 2070 V 3315 h -577.5 z" /></g></g></svg>