<?xml version="1.0" encoding="UTF-8" standalone="no"?>
<svg
   xmlns:dc="http://purl.org/dc/elements/1.1/"
   xmlns:cc="http://creativecommons.org/ns#"
   xmlns:rdf="http://www.w3.org/1999/02/22-rdf-syntax-ns#"
   xmlns:svg="http://www.w3.org/2000/svg"
   xmlns="http://www.w3.org/2000/svg"
   viewBox="0 0 1200 500"
   height="500"
   width="1200"
   xml:space="preserve"
   id="svg2"
   version="1.1"><metadata
     id="metadata8"><rdf:RDF><cc:Work
         rdf:about=""><dc:format>image/svg+xml</dc:format><dc:type
           rdf:resource="http://purl.org/dc/dcmitype/StillImage" /></cc:Work></rdf:RDF></metadata><defs
     id="defs6" /><g
     transform="matrix(1.3333333,0,0,-1.3333333,0,500)"
     id="g10"><g
       transform="scale(0.1)"
       id="g12"><path
         id="path14"
         style="fill:#ffffff;fill-opacity:1;fill-rule:nonzero;stroke:none"
         d="M 0,0 H 9000 V 3750 H 0 Z" /><path
         id="path16"
         style="fill:#ffffff;fill-opacity:1;fill-rule:nonzero;stroke:none"
         d="M 0,0 H 9000 V 3750 H 0 Z" /><path
         id="path18"
         style="fill:#ffffff;fill-opacity:1;fill-rule:nonzero;stroke:none"
         d="M 1395,600 H 8595 V 3412.5 H 1395 Z" /><path
         id="path20"
         style="fill:none;stroke:#262626;stroke-width:5.00250006;stroke-linecap:square;stroke-linejoin:round;stroke-miterlimit:10;stroke-dasharray:none;stroke-opacity:1"
         d="M 1395,600 H 8595" /><path
         id="path22"
         style="fill:none;stroke:#262626;stroke-width:5.00250006;stroke-linecap:square;stroke-linejoin:round;stroke-miterlimit:10;stroke-dasharray:none;stroke-opacity:1"
         d="M 1395,3412.5 H 8595" /><path
         id="path24"
         style="fill:none;stroke:#262626;stroke-width:5.00250006;stroke-linecap:square;stroke-linejoin:round;stroke-miterlimit:10;stroke-dasharray:none;stroke-opacity:1"
         d="m 1395,600 v 72" /><path
         id="path26"
         style="fill:none;stroke:#262626;stroke-width:5.00250006;stroke-linecap:square;stroke-linejoin:round;stroke-miterlimit:10;stroke-dasharray:none;stroke-opacity:1"
         d="m 2295,600 v 72" /><path
         id="path28"
         style="fill:none;stroke:#262626;stroke-width:5.00250006;stroke-linecap:square;stroke-linejoin:round;stroke-miterlimit:10;stroke-dasharray:none;stroke-opacity:1"
         d="m 3195,600 v 72" /><path
         id="path30"
         style="fill:none;stroke:#262626;stroke-width:5.00250006;stroke-linecap:square;stroke-linejoin:round;stroke-miterlimit:10;stroke-dasharray:none;stroke-opacity:1"
         d="m 4095,600 v 72" /><path
         id="path32"
         style="fill:none;stroke:#262626;stroke-width:5.00250006;stroke-linecap:square;stroke-linejoin:round;stroke-miterlimit:10;stroke-dasharray:none;stroke-opacity:1"
         d="m 4995,600 v 72" /><path
         id="path34"
         style="fill:none;stroke:#262626;stroke-width:5.00250006;stroke-linecap:square;stroke-linejoin:round;stroke-miterlimit:10;stroke-dasharray:none;stroke-opacity:1"
         d="m 5895,600 v 72" /><path
         id="path36"
         style="fill:none;stroke:#262626;stroke-width:5.00250006;stroke-linecap:square;stroke-linejoin:round;stroke-miterlimit:10;stroke-dasharray:none;stroke-opacity:1"
         d="m 6795,600 v 72" /><path
         id="path38"
         style="fill:none;stroke:#262626;stroke-width:5.00250006;stroke-linecap:square;stroke-linejoin:round;stroke-miterlimit:10;stroke-dasharray:none;stroke-opacity:1"
         d="m 7695,600 v 72" /><path
         id="path40"
         style="fill:none;stroke:#262626;stroke-width:5.00250006;stroke-linecap:square;stroke-linejoin:round;stroke-miterlimit:10;stroke-dasharray:none;stroke-opacity:1"
         d="m 8595,600 v 72" /><path
         id="path42"
         style="fill:none;stroke:#262626;stroke-width:5.00250006;stroke-linecap:square;stroke-linejoin:round;stroke-miterlimit:10;stroke-dasharray:none;stroke-opacity:1"
         d="m 1395,3412.5 v -72" /><path
         id="path44"
         style="fill:none;stroke:#262626;stroke-width:5.00250006;stroke-linecap:square;stroke-linejoin:round;stroke-miterlimit:10;stroke-dasharray:none;stroke-opacity:1"
         d="m 2295,3412.5 v -72" /><path
         id="path46"
         style="fill:none;stroke:#262626;stroke-width:5.00250006;stroke-linecap:square;stroke-linejoin:round;stroke-miterlimit:10;stroke-dasharray:none;stroke-opacity:1"
         d="m 3195,3412.5 v -72" /><path
         id="path48"
         style="fill:none;stroke:#262626;stroke-width:5.00250006;stroke-linecap:square;stroke-linejoin:round;stroke-miterlimit:10;stroke-dasharray:none;stroke-opacity:1"
         d="m 4095,3412.5 v -72" /><path
         id="path50"
         style="fill:none;stroke:#262626;stroke-width:5.00250006;stroke-linecap:square;stroke-linejoin:round;stroke-miterlimit:10;stroke-dasharray:none;stroke-opacity:1"
         d="m 4995,3412.5 v -72" /><path
         id="path52"
         style="fill:none;stroke:#262626;stroke-width:5.00250006;stroke-linecap:square;stroke-linejoin:round;stroke-miterlimit:10;stroke-dasharray:none;stroke-opacity:1"
         d="m 5895,3412.5 v -72" /><path
         id="path54"
         style="fill:none;stroke:#262626;stroke-width:5.00250006;stroke-linecap:square;stroke-linejoin:round;stroke-miterlimit:10;stroke-dasharray:none;stroke-opacity:1"
         d="m 6795,3412.5 v -72" /><path
         id="path56"
         style="fill:none;stroke:#262626;stroke-width:5.00250006;stroke-linecap:square;stroke-linejoin:round;stroke-miterlimit:10;stroke-dasharray:none;stroke-opacity:1"
         d="m 7695,3412.5 v -72" /><path
         id="path58"
         style="fill:none;stroke:#262626;stroke-width:5.00250006;stroke-linecap:square;stroke-linejoin:round;stroke-miterlimit:10;stroke-dasharray:none;stroke-opacity:1"
         d="m 8595,3412.5 v -72" /><g
         transform="scale(10)"
         id="g60"><text
           id="text64"
           style="font-variant:normal;font-weight:normal;font-size:20.00020027px;font-family:Helvetica;-inkscape-font-specification:Helvetica;writing-mode:lr-tb;fill:#262626;fill-opacity:1;fill-rule:nonzero;stroke:none"
           transform="matrix(1,0,0,-1,133.5,33)"><tspan
             id="tspan62"
             y="0"
             x="0 89.999702 174.37454 185.49466 264.37424 275.49435 354.37393 365.49405 444.37366 455.49374 534.37335 545.49347 624.37305 635.49316 714.37274 725.49286">0510152025303540</tspan></text>
<text
           id="text68"
           style="font-variant:normal;font-weight:normal;font-size:21.99970055px;font-family:Helvetica;-inkscape-font-specification:Helvetica;writing-mode:lr-tb;fill:#262626;fill-opacity:1;fill-rule:nonzero;stroke:none"
           transform="matrix(1,0,0,-1,449.625,5)"><tspan
             id="tspan66"
             y="0"
             x="0 13.441816 25.673651 43.999401 56.231232 68.463066 74.578979 81.904884 92.904732">Tempo (s)</tspan></text>
</g><path
         id="path70"
         style="fill:none;stroke:#262626;stroke-width:5.00250006;stroke-linecap:square;stroke-linejoin:round;stroke-miterlimit:10;stroke-dasharray:none;stroke-opacity:1"
         d="M 1395,600 V 3412.5" /><path
         id="path72"
         style="fill:none;stroke:#262626;stroke-width:5.00250006;stroke-linecap:square;stroke-linejoin:round;stroke-miterlimit:10;stroke-dasharray:none;stroke-opacity:1"
         d="M 8595,600 V 3412.5" /><path
         id="path74"
         style="fill:none;stroke:#262626;stroke-width:5.00250006;stroke-linecap:square;stroke-linejoin:round;stroke-miterlimit:10;stroke-dasharray:none;stroke-opacity:1"
         d="m 1395,639.512 h 72" /><path
         id="path76"
         style="fill:none;stroke:#262626;stroke-width:5.00250006;stroke-linecap:square;stroke-linejoin:round;stroke-miterlimit:10;stroke-dasharray:none;stroke-opacity:1"
         d="m 1395,1418.46 h 72" /><path
         id="path78"
         style="fill:none;stroke:#262626;stroke-width:5.00250006;stroke-linecap:square;stroke-linejoin:round;stroke-miterlimit:10;stroke-dasharray:none;stroke-opacity:1"
         d="m 1395,2197.4 h 72" /><path
         id="path80"
         style="fill:none;stroke:#262626;stroke-width:5.00250006;stroke-linecap:square;stroke-linejoin:round;stroke-miterlimit:10;stroke-dasharray:none;stroke-opacity:1"
         d="m 1395,2976.35 h 72" /><path
         id="path82"
         style="fill:none;stroke:#262626;stroke-width:5.00250006;stroke-linecap:square;stroke-linejoin:round;stroke-miterlimit:10;stroke-dasharray:none;stroke-opacity:1"
         d="m 8595,639.512 h -72" /><path
         id="path84"
         style="fill:none;stroke:#262626;stroke-width:5.00250006;stroke-linecap:square;stroke-linejoin:round;stroke-miterlimit:10;stroke-dasharray:none;stroke-opacity:1"
         d="m 8595,1418.46 h -72" /><path
         id="path86"
         style="fill:none;stroke:#262626;stroke-width:5.00250006;stroke-linecap:square;stroke-linejoin:round;stroke-miterlimit:10;stroke-dasharray:none;stroke-opacity:1"
         d="m 8595,2197.4 h -72" /><path
         id="path88"
         style="fill:none;stroke:#262626;stroke-width:5.00250006;stroke-linecap:square;stroke-linejoin:round;stroke-miterlimit:10;stroke-dasharray:none;stroke-opacity:1"
         d="m 8595,2976.35 h -72" /><g
         transform="scale(10)"
         id="g90"><text
           id="text100"
           style="font-variant:normal;font-weight:normal;font-size:20.00020027px;font-family:Helvetica;-inkscape-font-specification:Helvetica;writing-mode:lr-tb;fill:#262626;fill-opacity:1;fill-rule:nonzero;stroke:none"
           transform="matrix(1,0,0,-1,110.25,55.7008)"><tspan
             id="tspan92"
             y="0"
             x="0 11.120111">30</tspan><tspan
             id="tspan94"
             y="-77.894897"
             x="0 11.120111">32</tspan><tspan
             id="tspan96"
             y="-155.78979"
             x="0 11.120111">34</tspan><tspan
             id="tspan98"
             y="-233.68469"
             x="0 11.120111">36</tspan></text>
<text
           id="text104"
           style="font-variant:normal;font-weight:normal;font-size:21.99970055px;font-family:Helvetica;-inkscape-font-specification:Helvetica;writing-mode:lr-tb;fill:#262626;fill-opacity:1;fill-rule:nonzero;stroke:none"
           transform="matrix(0,1,1,0,102,147.375)"><tspan
             id="tspan102"
             y="0"
             x="0 14.6738 19.557734 25.673651 37.905483 45.231384 57.463215 63.579132 70.905029 81.904884 100.23064">Altura (cm)</tspan></text>
</g><g
         transform="scale(10)"
         id="g106"><text
           id="text110"
           style="font-variant:normal;font-weight:bold;font-size:21.99970055px;font-family:Helvetica;-inkscape-font-specification:Helvetica-Bold;writing-mode:lr-tb;fill:#000000;fill-opacity:1;fill-rule:nonzero;stroke:none"
           transform="matrix(1,0,0,-1,180.375,350.625)"><tspan
             id="tspan108"
             y="0"
             x="0 15.883783 28.115616 40.34745 53.789265 67.231087 79.462914 86.788818 99.020653 105.13657 117.3684 123.48431 136.92613 149.15796 157.71585 165.04175 178.48357 187.04144 200.48326 212.7151 224.94693 237.17877 250.62057 256.73651 268.96832 281.20016 288.52606 300.7579 309.3158 322.7576 334.98944 341.10535 354.54718 367.98898 374.10489 393.66263 407.10446 420.54626 432.77811 438.89401 452.33585 458.45175 474.33554 490.21933 504.89313 517.12494 523.24084 542.79858 548.91449 561.14636 567.26227 586.82001 600.26184 606.37775 618.60956 632.05139">Resposta à perturbação externa do modelo ARXsim simulado</tspan></text>
</g><path
         id="path112"
         style="fill:none;stroke:#0072bd;stroke-width:15;stroke-linecap:butt;stroke-linejoin:miter;stroke-miterlimit:10;stroke-dasharray:none;stroke-opacity:1"
         d="m 1395,639.512 h 9 v 0 h 9 v 0 h 9 v 0 h 9 v 0 h 9 v 0 h 9 v 0 h 9 v 0 h 9 v -0.008 h 9 v 0 h 9 v 0 h 9 v 0 h 9 v 0 h 9 v 0 h 9 v 0 h 9 v 0 h 9 v 0 h 9 v 0 h 9 v 0 h 9 v 0 h 9 v -0.008 h 9 v 0 h 9 v 0 h 9 v 0 h 9 v 0 h 9 v 0 h 9 v 0 h 9 v 0 h 9 v 0 h 9 v -0.008 h 9 v 0 h 9 v 0 h 9 v 0 h 9 v 0 h 9 v 0 h 9 v 0 h 9 v 0 h 9 v -0.008 h 9 v 0 h 9 v 0 h 9 v 0 h 9 v 0 h 9 v 0 h 9 v 0 h 9 v 0 h 9 v 0 h 9 v 0 h 9 v -0.007 h 9 v 0 h 9 v 0 h 9 v 0 h 9 v 0 h 9 v 0 h 9 v 0 h 9 v 0 h 9 v 0 h 9 v 0 h 9 v 0 h 9 v 0 h 9 v -0.008 h 9 v 0 h 9 v 0 h 9 v 0 h 9 v 0 h 9 v 0 h 9 v 0 h 9 v 0 h 9 v 0 h 9 v 0 h 9 v 0 h 9 v 0 h 9 v 0 h 9 v 0 h 9 v 0 h 9 v 0 h 9 v 0 h 9 v 0 h 9 v 0 h 9 v 0 h 9 v 0 h 9 v 0 h 9 v -0.008 h 9 v 0 h 9 v 0 h 9 v 0 h 9 v 0 h 9 v 0 h 9 v 0 h 9 v 0 h 9 v 0 h 9 v 0 h 9 v 0 h 9 v 0 h 9 v 0 h 9 v 0 h 9 v 0 h 9 v 0 h 9 v 0 h 9 v 0 h 9 v 0 h 9 v 0 h 9 v 36.262 h 9 v 23.133 h 9 v -25.473 h 9 v -17.152 h 9 v 20.437 h 9 v 14.828 h 9 v -13.64 h 9 v -9.301 h 9 v 12.871 h 9 v 10.055 h 9 v -6.668 h 9 v -4.446 h 9 v 8.625 h 9 v 7.258 h 9 v -2.57 h 9 v -1.457 h 9 v 6.242 h 9 v 5.594 h 9 v -0.172 h 9 v 0.359 h 9 v 4.883 h 9 v 4.598 h 9 v 1.199 h 9 v 1.433 h 9 v 4.086 h 9 v 3.969 h 9 v 1.965 h 9 v 2.039 h 9 v 3.594 h 9 v 3.539 h 9 v 2.34 h 9 v 2.355 h 9 v 3.246 h 9 v 3.219 h 9 v 2.5 h 9 v 2.465 h 9 v 2.976 h 9 v 2.95 h 9 v 2.504 h 9 v 2.461 h 9 v 2.738 h 9 v 2.707 h 9 v 2.43 h 9 v 2.378 h 9 v 2.512 h 9 v 2.481 h 9 v 2.296 h 9 v 2.235 h 9 v 2.301 h 9 v 2.257 h 9 v 2.133 h 9 v 2.078 h 9 v 2.082 h 9 v 2.047 h 9 v 1.953 h 9 v 1.891 h 9 v 1.879 h 9 v 1.84 h 9 v 1.754 h 9 v 1.711 h 9 v 1.679 h 9 v 1.637 h 9 v 1.566 h 9 v 1.524 h 9 v 1.484 h 9 v 1.446 h 9 v 1.386 h 9 v 1.344 h 9 v 1.305 h 9 v 1.261 h 9 v 1.215 h 9 v 1.168 h 9 v 1.133 h 9 v 1.098 h 9 v 1.047 h 9 v 1.015 h 9 v 0.973 h 9 v 0.937 h 9 v 0.895 h 9 v 0.867 h 9 v 0.828 h 9 v 0.793 h 9 v 0.758 h 9 v 0.734 h 9 v 0.692 h 9 v 0.668 h 9 v 0.636 h 9 v 0.606 h 9 v 0.578 h 9 v 0.547 h 9 v 0.527 h 9 v 0.496 h 9 v 0.473 h 9 v 0.449 h 9 v 0.426 h 9 v 0.398 h 9 v 0.383 h 9 v 0.352 h 9 v 0.336 h 9 v 0.316 h 9 v 0.301 h 9 v 0.277 h 9 v 0.262 h 9 v 0.242 h 9 v 0.223 h 9 v 0.211 h 9 v 0.203 h 9 v 0.18 h 9 v 0.164 h 9 v 0.152 h 9 v 0.141 h 9 v 0.129 h 9 v 0.109 h 9 v 0.105 h 9 v 0.09 h 9 v 0.082 h 9 v 0.078 h 9 v 0.059 h 9 v 0.059 h 9 v 0.046 h 9 v 0.04 h 9 v 0.019 h 9 v 0.024 h 9 v 0.015 h 9 v 0.016 h 9 v 0 h 9 v -0.008 h 9 v -0.008 h 9 v -0.015 h 9 v -0.016 h 9 v -0.024 h 9 v -0.027 h 9 v -0.031 h 9 v -0.039 h 9 v -0.035 h 9 v -0.047 h 9 v -0.043 h 9 v -0.047 h 9 v -0.051 h 9 v -0.055 h 9 v -0.05 h 9 v -0.051 h 9 v -0.063 h 9 v -0.058 h 9 v -0.063 h 9 v -0.066 h 9 v -0.059 h 9 v -0.066 h 9 v -0.063 h 9 v -0.066 h 9 v -0.066 h 9 v -0.063 h 9 v -0.066 h 9 v -0.067 h 9 v -0.07 h 9 v -0.066 h 9 v -0.067 h 9 v -0.066 h 9 v -0.063 h 9 v -0.066 h 9 v -0.067 h 9 v -0.062 h 9 v -0.066 h 9 v -0.059 h 9 v -0.063 h 9 v -0.066 h 9 v -0.059 h 9 v -0.062 h 9 v -0.059 h 9 v -0.058 h 9 v -0.055 h 9 v -0.059 h 9 v -0.054 h 9 v -0.051 h 9 v -0.059 h 9 v -0.046 h 9 v -0.051 h 9 v -0.055 h 9 v -0.051 h 9 v -0.047 h 9 v -0.043 h 9 v -0.046 h 9 v -0.043 h 9 v -0.047 h 9 v -0.043 h 9 v -0.047 h 9 v -0.039 h 9 v -0.035 h 9 v -0.039 h 9 v -0.036 h 9 v -0.039 h 9 v -0.039 h 9 v -0.027 h 9 v -0.039 h 9 v -0.027 h 9 v -0.032 h 9 v -0.031 h 9 v -0.031 h 9 v -0.028 h 9 v -0.031 h 9 v -0.023 h 9 v 69.48 h 9 v -2.902 h 9 v -6.125 h 9 v 5.863 h 9 v 4.86 h 9 v -4.723 h 9 v -4.172 h 9 v 3.074 h 9 v 2.641 h 9 v -3 h 9 v -2.797 h 9 v 1.453 h 9 v 1.277 h 9 v -2.039 h 9 v -1.996 h 9 v 0.496 h 9 v 0.434 h 9 v -1.516 h 9 v -1.531 h 9 v -0.066 h 9 v -0.075 h 9 v -1.214 h 9 v -1.254 h 9 v -0.399 h 9 v -0.379 h 9 v -1.05 h 9 v -1.082 h 9 v -0.579 h 9 v -0.562 h 9 v -0.941 h 9 v -0.969 h 9 v -0.668 h 9 v -0.653 h 9 v -0.871 h 9 v -0.89 h 9 v -0.707 h 9 v -0.688 h 9 v -0.812 h 9 v -0.824 h 9 v -0.704 h 9 v -70.203 h 9 v 2.117 h 9 v 5.348 h 9 v -6.578 h 9 v -5.543 h 9 v 4.004 h 9 v 3.453 h 9 v -3.738 h 9 v -3.285 h 9 v 2.336 h 9 v 2.144 h 9 v -2.07 h 9 v -1.875 h 9 v 1.437 h 9 v 1.403 h 9 v -1.063 h 9 v -0.984 h 9 v 0.961 h 9 v 0.988 h 9 v -0.441 h 9 v -0.426 h 9 v 0.726 h 9 v 0.766 h 9 v -0.07 h 9 v -0.067 h 9 v 0.61 h 9 v 0.652 h 9 v 0.156 h 9 v 0.156 h 9 v 0.559 h 9 v 0.582 h 9 v 0.301 h 9 v 0.293 h 9 v 0.531 h 9 v 0.555 h 9 v 0.383 h 9 v 0.375 h 9 v 0.511 h 9 v 0.532 h 9 v 0.429 h 9 v 0.418 h 9 v 0.504 h 9 v 0.508 h 9 v 0.449 h 9 v 0.445 h 9 v 0.481 h 9 v 0.484 h 9 v 0.453 h 9 v 0.442 h 9 v 0.465 h 9 v 0.465 h 9 v 0.441 h 9 v 0.43 h 9 v 0.441 h 9 v 0.441 h 9 v 0.422 h 9 v 0.41 h 9 v 0.415 h 9 v 0.414 h 9 v 0.394 h 9 v 0.383 h 9 v 0.391 h 9 v 0.375 h 9 v 0.375 h 9 v 0.359 h 9 v 0.355 h 9 v 0.352 h 9 v 0.336 h 9 v 0.332 h 9 v 0.32 h 9 v 0.317 h 9 v 0.308 h 9 v 0.305 h 9 v 0.293 h 9 v 0.285 h 9 v 0.277 h 9 v 0.27 h 9 v 0.266 h 9 v 0.253 h 9 v 0.247 h 9 v 0.234 h 9 v 0.238 h 9 v 0.227 h 9 v 0.215 h 9 v 0.211 h 9 v 0.203 h 9 v 0.203 h 9 v 0.187 h 9 v 0.188 h 9 v 0.179 h 9 v 0.165 h 9 v 0.171 h 9 v 0.161 h 9 v 0.148 h 9 v 0.148 h 9 v 0.145 h 9 v 0.133 h 9 v 0.137 h 9 v 0.128 h 9 v 0.118 h 9 v 0.113 h 9 v 0.113 h 9 v 0.106 h 9 v 0.097 h 9 v 0.098 h 9 v 0.098 h 9 v 0.082 h 9 v 0.089 h 9 v 0.075 h 9 v 0.074 h 9 v 0.078 h 9 v 0.066 h 9 v 0.067 h 9 v 0.058 h 9 v 0.063 h 9 v 0.051 h 9 v 0.054 h 9 v 0.043 h 9 v 0.047 h 9 v 0.043 h 9 v 0.039 h 9 v 0.035 h 9 v 0.04 h 9 v 0.039 h 9 v 0.027 h 9 v 0.023 h 9 v 0.032 h 9 v 0.019 h 9 v 0.024 h 9 v 0.023 h 9 v 0.016 h 9 v 0.015 h 9 v 0.016 h 9 v 0.012 h 9 v 0.007 h 9 v 0.016 h 9 v 0.008 h 9 v 0.008 h 9 v 0.007 h 9 v 0.008 h 9 v 0 h 9 v 0.008 h 9 v 0 h 9 v 0 h 9 v 0 h 9 v 0 h 9 v 0 h 9 v -0.008 h 9 v 0 h 9 v 0 h 9 v -0.008 h 9 v -0.007 h 9 v 0 h 9 v -0.008 h 9 v -0.008 h 9 v -0.008 h 9 v -0.008 h 9 v -0.007 h 9 v -0.008 h 9 v -0.004 h 9 v -0.008 h 9 v -0.008 h 9 v -0.008 h 9 v -0.007 h 9 v -0.008 h 9 v -0.016 h 9 v -0.008 h 9 v -0.007 h 9 v -0.008 h 9 v -0.016 h 9 v -0.004 h 9 v -0.008 h 9 v -0.015 h 9 v -0.008 h 9 v -0.008 h 9 v -0.008 h 9 v -0.015 h 9 v -0.008 h 9 v -0.008 h 9 v -0.008 h 9 v -0.011 h 9 v -0.008 h 9 v -0.008 h 9 v -0.008 h 9 v -0.015 h 9 v -0.008 h 9 v -0.008 h 9 v -0.008 h 9 v -0.008 h 9 v -0.008 h 9 v -0.003 h 9 v -0.008 h 9 v -0.008 h 9 v -0.008 h 9 v -0.008 h 9 v -0.008 h 9 v -0.007 h 9 v -0.008 h 9 v -0.008 h 9 v -0.008 h 9 v -0.008 h 9 v -0.007 h 9 v -0.008 h 9 v -0.004 h 9 v 0 h 9 v -0.008 h 9 v -0.008 h 9 v -0.008 h 9 v 0 h 9 v -0.007 h 9 v -0.008 h 9 v 0 h 9 V 841.5 h 9 v -0.008 h 9 v 0 h 9 v -0.008 h 9 v 0 h 9 v -0.007 h 9 v 0 h 9 v -0.008 h 9 v 0 h 9 v -0.008 h 9 v 0 h 9 v -0.004 h 9 v 0 h 9 v -0.008 h 9 v 0 h 9 v 0 h 9 v -0.008 h 9 v 0 h 9 v -0.007 h 9 v 0 h 9 v 0 h 9 v 0 h 9 v -0.008 h 9 v 0 h 9 v 0 h 9 v -0.008 h 9 v 0 h 9 v 0 h 9 v 0 h 9 v 0 h 9 v 0 h 9 v -0.008 h 9 v 0 h 9 v 0 h 9 v 0 h 9 v 0 h 9 v -0.008 h 9 v 0 h 9 v 0 h 9 v 0 h 9 v 0 h 9 v 0 h 9 v 0 h 9 v 0 h 9 v 0 h 9 v 0 h 9 v 0 h 9 v 0 h 9 v -0.007 h 9 v 0 h 9 v 0 h 9 v 0 h 9 v 0 h 9 v 0 h 9 v 0 h 9 v 0 h 9 v 0 h 9 v 0 h 9 v 0 h 9 v 0 h 9 v 0 h 9 v 0 h 9 v 0 h 9 v 0 h 9 v 0 h 9 v 0 h 9 v 0 h 9 v 0 h 9 v 0 h 9 v 0 h 9 v 0 h 9 v 0 h 9 v 0 h 9 v 0 h 9 v 0 h 9 v 0 h 9 v 0 h 9 v 0 h 9 v 0 h 9 v 0 h 9 v 0 h 9 v 0 h 9 v 0 h 9 v 0 h 9 v 0 h 9 v 0 h 9 v 0 h 9 v 0.007 h 9 v 0 h 9 v 0 h 9 v 0 h 9 v 0 h 9 v 0 h 9 v 0 h 9 v 0 h 9 v 0 h 9 v 0 h 9 v 0 h 9 v 0 h 9 v 0 h 9 v 0 h 9 v 0 h 9 v 0 h 9 v 0 h 9 v 0 h 9 v 0 h 9 v 0 h 9 v 0 h 9 v 0 h 9 v 0 h 9 v 0 h 9 v 0 h 9 v 0 h 9 v 0 h 9 v 0 h 9 v 0 h 9 v 0 h 9 v 0 h 9 v 0 h 9 v 0 h 9 v 0 h 9 v 0 h 9 v 0 h 9 v 0 h 9 v 0 h 9 v 0 h 9 v 0 h 9 v 0 h 9 v 0 h 9 v 0 h 9 v 0 h 9 v 0 h 9 v 0 h 9 v 0 h 9 v 0 h 9 v 0 h 9 v 0 h 9 v 0 h 9 v 0 h 9 v 0 h 9 v 0 h 9 v 0 h 9 v 0 h 9 v 0 h 9 v 0 h 9 v 0 h 9 v 0.008 h 9 v 0 h 9 v 0 h 9 v 0 h 9 v 0 h 9 v 0 h 9 v 0 h 9 v 0 h 9 v 0 h 9 v 0 h 9 v 0 h 9 v 0 h 9 v 0 h 9 v 0 h 9 v 0 h 9 v 0 h 9 v 0 h 9 v 0 h 9 v 0 h 9 v 0 h 9 v 0 h 9 v 0 h 9 v 0 h 9 v 0 h 9 v 0 h 9 v 0 h 9 v 0 h 9 v 0 h 9 v 0 h 9 v 0 h 9 v 0 h 9 v 0 h 9 v 0 h 9 v 0 h 9 v 0 h 9 v 0 h 9 v 0 h 9 v 0 h 9 v 0 h 9 v 0 h 9 v 0 h 9 v 0 h 9 v 0 h 9 v 0 h 9 v 0 h 9 v 0 h 9 v 0 h 9 v 0 h 9 v 0 h 9 v 0 h 9 v 0 h 9 v 0 h 9 v 0 h 9 v 0 h 9 v 0 h 9 v 0 h 9 v 0 h 9 v 0 h 9 v 0 h 9 v 0 h 9 v 0 h 9 v 0 h 9 v 0 h 9 v 0 h 9 v 0 h 9 v 0 h 9 v 0 h 9 v 0 h 9 v 0 h 9 v 0 h 9 v 0 h 9 v 0 h 9 v 0 h 9 v 0 h 9 v 0 h 9 v 0 h 9 v 0 h 9 v 0 h 9 v 0 h 9 v 0 h 9 v 0 h 9 v 0 h 9 v 0 h 9 v 0 h 9 v 0 h 9 v 0 h 9 v 0 h 9 v 0 h 9 v 0 h 9 v 0 h 9 v 0 h 9 v 0 h 9 v 0 h 9 v 0 h 9 v 0 h 9 v 0 h 9 v 0 h 9 v 0 h 9 v 0 h 9 v 0 h 9 v 0" /><path
         id="path114"
         style="fill:none;stroke:#ff0000;stroke-width:15;stroke-linecap:butt;stroke-linejoin:miter;stroke-miterlimit:10;stroke-dasharray:none;stroke-opacity:1"
         d="m 1395,639.512 h 9 v 0 h 9 v 0 h 9 v 0 h 9 v 0 h 9 v 0 h 9 v 0 h 9 v 0 h 9 v 0 h 9 v 0 h 9 v 0 h 9 v 0 h 9 v 0 h 9 v 0 h 9 v 0 h 9 v 0 h 9 v 0 h 9 v 0 h 9 v 0 h 9 v 0 h 9 v 0 h 9 v 0 h 9 v 0 h 9 v 0 h 9 v 0 h 9 v 0 h 9 v 0 h 9 v 0 h 9 v 0 h 9 v 0 h 9 v 0 h 9 v 0 h 9 v 0 h 9 v 0 h 9 v 0 h 9 v 0 h 9 v 0 h 9 v 0 h 9 v 0 h 9 v 0 h 9 v 0 h 9 v 0 h 9 v 0 h 9 v 0 h 9 v 0 h 9 v 0 h 9 v 0 h 9 v 0 h 9 v 0 h 9 v 0 h 9 v 0 h 9 v 0 h 9 v 0 h 9 v 0 h 9 v 0 h 9 v 0 h 9 v 0 h 9 v 0 h 9 v 0 h 9 v 0 h 9 v 0 h 9 v 0 h 9 v 0 h 9 v 0 h 9 v 0 h 9 v 0 h 9 v 0 h 9 v 0 h 9 v 0 h 9 v 0 h 9 v 0 h 9 v 0 h 9 v 0 h 9 v 0 h 9 v 0 h 9 v 0 h 9 v 0 h 9 v 0 h 9 v 0 h 9 v 0 h 9 v 0 h 9 v 0 h 9 v 0 h 9 v 0 h 9 v 0 h 9 v 0 h 9 v 0 h 9 v 0 h 9 v 0 h 9 v 0 h 9 v 0 h 9 v 0 h 9 v 0 h 9 v 0 h 9 v 0 h 9 v 0 h 9 v 0 h 9 v 0 h 9 v 0 h 9 v 0 h 9 V 2586.88 h 9 v 0 h 9 v 0 h 9 v 0 h 9 v 0 h 9 v 0 h 9 v 0 h 9 v 0 h 9 v 0 h 9 v 0 h 9 v 0 h 9 v 0 h 9 v 0 h 9 v 0 h 9 v 0 h 9 v 0 h 9 v 0 h 9 v 0 h 9 v 0 h 9 v 0 h 9 v 0 h 9 v 0 h 9 v 0 h 9 v 0 h 9 v 0 h 9 v 0 h 9 v 0 h 9 v 0 h 9 v 0 h 9 v 0 h 9 v 0 h 9 v 0 h 9 v 0 h 9 v 0 h 9 v 0 h 9 v 0 h 9 v 0 h 9 v 0 h 9 v 0 h 9 v 0 h 9 v 0 h 9 v 0 h 9 v 0 h 9 v 0 h 9 v 0 h 9 v 0 h 9 v 0 h 9 v 0 h 9 v 0 h 9 v 0 h 9 v 0 h 9 v 0 h 9 v 0 h 9 v 0 h 9 v 0 h 9 v 0 h 9 v 0 h 9 v 0 h 9 v 0 h 9 v 0 h 9 v 0 h 9 v 0 h 9 v 0 h 9 v 0 h 9 v 0 h 9 v 0 h 9 v 0 h 9 v 0 h 9 v 0 h 9 v 0 h 9 v 0 h 9 v 0 h 9 v 0 h 9 v 0 h 9 v 0 h 9 v 0 h 9 v 0 h 9 v 0 h 9 v 0 h 9 v 0 h 9 v 0 h 9 v 0 h 9 v 0 h 9 v 0 h 9 v 0 h 9 v 0 h 9 v 0 h 9 v 0 h 9 v 0 h 9 v 0 h 9 v 0 h 9 v 0 h 9 v 0 h 9 v 0 h 9 v 0 h 9 v 0 h 9 v 0 h 9 v 0 h 9 v 0 h 9 v 0 h 9 v 0 h 9 v 0 h 9 v 0 h 9 v 0 h 9 v 0 h 9 v 0 h 9 v 0 h 9 v 0 h 9 v 0 h 9 v 0 h 9 v 0 h 9 v 0 h 9 v 0 h 9 v 0 h 9 v 0 h 9 v 0 h 9 v 0 h 9 v 0 h 9 v 0 h 9 v 0 h 9 v 0 h 9 v 0 h 9 v 0 h 9 v 0 h 9 v 0 h 9 v 0 h 9 v 0 h 9 v 0 h 9 v 0 h 9 v 0 h 9 v 0 h 9 v 0 h 9 v 0 h 9 v 0 h 9 v 0 h 9 v 0 h 9 v 0 h 9 v 0 h 9 v 0 h 9 v 0 h 9 v 0 h 9 v 0 h 9 v 0 h 9 v 0 h 9 v 0 h 9 v 0 h 9 v 0 h 9 v 0 h 9 v 0 h 9 v 0 h 9 v 0 h 9 v 0 h 9 v 0 h 9 v 0 h 9 v 0 h 9 v 0 h 9 v 0 h 9 v 0 h 9 v 0 h 9 v 0 h 9 v 0 h 9 v 0 h 9 v 0 h 9 v 0 h 9 v 0 h 9 v 0 h 9 v 0 h 9 v 0 h 9 v 0 h 9 v 0 h 9 v 0 h 9 v 0 h 9 v 0 h 9 v 0 h 9 v 0 h 9 v 0 h 9 v 0 h 9 v 0 h 9 v 0 h 9 v 0 h 9 v 0 h 9 v 0 h 9 v 0 h 9 v 0 h 9 v 0 h 9 v 0 h 9 v 0 h 9 v 0 h 9 v 0 h 9 v 0 h 9 v 0 h 9 v 0 h 9 v 0 h 9 v 0 h 9 v 0 h 9 v 0 h 9 v 0 h 9 v 0 h 9 v 0 h 9 v 0 h 9 v 0 h 9 v 0 h 9 v 0 h 9 v 0 h 9 v 0 h 9 v 0 h 9 v 0 h 9 v 0 h 9 v 0 h 9 v 0 h 9 v 0 h 9 v 0 h 9 v 0 h 9 v 0 h 9 v 0 h 9 v 0 h 9 v 0 h 9 v 0 h 9 v 0 h 9 v 0 h 9 v 0 h 9 v 0 h 9 v 0 h 9 v 0 h 9 v 0 h 9 v 0 h 9 v 0 h 9 v 0 h 9 v 0 h 9 v 0 h 9 v 0 h 9 v 0 h 9 v 0 h 9 v 0 h 9 v 0 h 9 v 0 h 9 v 0 h 9 v 0 h 9 v 0 h 9 v 0 h 9 v 0 h 9 v 0 h 9 v 0 h 9 v 0 h 9 v 0 h 9 v 0 h 9 v 0 h 9 v 0 h 9 v 0 h 9 v 0 h 9 v 0 h 9 v 0 h 9 v 0 h 9 v 0 h 9 v 0 h 9 v 0 h 9 v 0 h 9 v 0 h 9 v 0 h 9 v 0 h 9 v 0 h 9 v 0 h 9 v 0 h 9 v 0 h 9 v 0 h 9 v 0 h 9 v 0 h 9 v 0 h 9 v 0 h 9 v 0 h 9 v 0 h 9 v 0 h 9 v 0 h 9 v 0 h 9 v 0 h 9 v 0 h 9 v 0 h 9 v 0 h 9 v 0 h 9 v 0 h 9 v 0 h 9 v 0 h 9 v 0 h 9 v 0 h 9 v 0 h 9 v 0 h 9 v 0 h 9 v 0 h 9 v 0 h 9 v 0 h 9 v 0 h 9 v 0 h 9 v 0 h 9 v 0 h 9 v 0 h 9 v 0 h 9 v 0 h 9 v 0 h 9 v 0 h 9 v 0 h 9 v 0 h 9 v 0 h 9 v 0 h 9 v 0 h 9 v 0 h 9 v 0 h 9 v 0 h 9 v 0 h 9 v 0 h 9 v 0 h 9 v 0 h 9 v 0 h 9 v 0 h 9 v 0 h 9 v 0 h 9 v 0 h 9 v 0 h 9 v 0 h 9 v 0 h 9 v 0 h 9 v 0 h 9 v 0 h 9 v 0 h 9 v 0 h 9 v 0 h 9 v 0 h 9 v 0 h 9 v 0 h 9 v 0 h 9 v 0 h 9 v 0 h 9 v 0 h 9 v 0 h 9 v 0 h 9 v 0 h 9 v 0 h 9 v 0 h 9 v 0 h 9 v 0 h 9 v 0 h 9 v 0 h 9 v 0 h 9 v 0 h 9 v 0 h 9 v 0 h 9 v 0 h 9 v 0 h 9 v 0 h 9 v 0 h 9 v 0 h 9 v 0 h 9 v 0 h 9 v 0 h 9 v 0 h 9 v 0 h 9 v 0 h 9 v 0 h 9 v 0 h 9 v 0 h 9 v 0 h 9 v 0 h 9 v 0 h 9 v 0 h 9 v 0 h 9 v 0 h 9 v 0 h 9 v 0 h 9 v 0 h 9 v 0 h 9 v 0 h 9 v 0 h 9 v 0 h 9 v 0 h 9 v 0 h 9 v 0 h 9 v 0 h 9 v 0 h 9 v 0 h 9 v 0 h 9 v 0 h 9 v 0 h 9 v 0 h 9 v 0 h 9 v 0 h 9 v 0 h 9 v 0 h 9 v 0 h 9 v 0 h 9 v 0 h 9 v 0 h 9 v 0 h 9 v 0 h 9 v 0 h 9 v 0 h 9 v 0 h 9 v 0 h 9 v 0 h 9 v 0 h 9 v 0 h 9 v 0 h 9 v 0 h 9 v 0 h 9 v 0 h 9 v 0 h 9 v 0 h 9 v 0 h 9 v 0 h 9 v 0 h 9 v 0 h 9 v 0 h 9 v 0 h 9 v 0 h 9 v 0 h 9 v 0 h 9 v 0 h 9 v 0 h 9 v 0 h 9 v 0 h 9 v 0 h 9 v 0 h 9 v 0 h 9 v 0 h 9 v 0 h 9 v 0 h 9 v 0 h 9 v 0 h 9 v 0 h 9 v 0 h 9 v 0 h 9 v 0 h 9 v 0 h 9 v 0 h 9 v 0 h 9 v 0 h 9 v 0 h 9 v 0 h 9 v 0 h 9 v 0 h 9 v 0 h 9 v 0 h 9 v 0 h 9 v 0 h 9 v 0 h 9 v 0 h 9 v 0 h 9 v 0 h 9 v 0 h 9 v 0 h 9 v 0 h 9 v 0 h 9 v 0 h 9 v 0 h 9 v 0 h 9 v 0 h 9 v 0 h 9 v 0 h 9 v 0 h 9 v 0 h 9 v 0 h 9 v 0 h 9 v 0 h 9 v 0 h 9 v 0 h 9 v 0 h 9 v 0 h 9 v 0 h 9 v 0 h 9 v 0 h 9 v 0 h 9 v 0 h 9 v 0 h 9 v 0 h 9 v 0 h 9 v 0 h 9 v 0 h 9 v 0 h 9 v 0 h 9 v 0 h 9 v 0 h 9 v 0 h 9 v 0 h 9 v 0 h 9 v 0 h 9 v 0 h 9 v 0 h 9 v 0 h 9 v 0 h 9 v 0 h 9 v 0 h 9 v 0 h 9 v 0 h 9 v 0 h 9 v 0 h 9 v 0 h 9 v 0 h 9 v 0 h 9 v 0 h 9 v 0 h 9 v 0 h 9 v 0 h 9 v 0 h 9 v 0 h 9 v 0 h 9 v 0 h 9 v 0 h 9 v 0 h 9 v 0 h 9 v 0 h 9 v 0 h 9 v 0 h 9 v 0 h 9 v 0 h 9 v 0 h 9 v 0 h 9 v 0 h 9 v 0 h 9 v 0 h 9 v 0 h 9 v 0 h 9 v 0 h 9 v 0 h 9 v 0 h 9 v 0 h 9 v 0 h 9 v 0 h 9 v 0 h 9 v 0 h 9 v 0 h 9 v 0 h 9 v 0 h 9 v 0 h 9 v 0 h 9 v 0 h 9 v 0 h 9 v 0 h 9 v 0 h 9 v 0 h 9 v 0 h 9 v 0 h 9 v 0 h 9 v 0 h 9 v 0 h 9 v 0 h 9 v 0 h 9 v 0 h 9 v 0 h 9 v 0 h 9 v 0 h 9 v 0 h 9 v 0 h 9 v 0 h 9 v 0 h 9 v 0 h 9 v 0 h 9 v 0 h 9 v 0 h 9 v 0 h 9 v 0 h 9 v 0 h 9 v 0 h 9 v 0 h 9 v 0 h 9 v 0 h 9 v 0 h 9 v 0 h 9 v 0 h 9 v 0 h 9 v 0 h 9 v 0 h 9 v 0 h 9 v 0 h 9 v 0 h 9 v 0 h 9 v 0 h 9 v 0 h 9 v 0 h 9 v 0 h 9 v 0 h 9 v 0 h 9 v 0 h 9 v 0 h 9 v 0 h 9 v 0 h 9 v 0 h 9 v 0 h 9 v 0 h 9 v 0 h 9 v 0 h 9 v 0 h 9 v 0 h 9 v 0 h 9 v 0 h 9 v 0 h 9 v 0 h 9 v 0 h 9 v 0 h 9 v 0 h 9 v 0 h 9 v 0 h 9 v 0 h 9 v 0 h 9 v 0 h 9 v 0 h 9 v 0 h 9 v 0 h 9 v 0 h 9 v 0 h 9 v 0 h 9 v 0 h 9 v 0 h 9 v 0 h 9 v 0 h 9 v 0 h 9 v 0 h 9 v 0 h 9 v 0 h 9 v 0 h 9 v 0 h 9 v 0 h 9 v 0 h 9 v 0 h 9 v 0 h 9 v 0 h 9 v 0 h 9 v 0 h 9 v 0 h 9 v 0 h 9 v 0 h 9 v 0 h 9 v 0 h 9 v 0 h 9 v 0 h 9 v 0 h 9 v 0 h 9 v 0 h 9 v 0 h 9 v 0 h 9 v 0 h 9 v 0 h 9 v 0 h 9 v 0 h 9 v 0 h 9 v 0 h 9 v 0 h 9 v 0 h 9 v 0 h 9 v 0 h 9 v 0 h 9 v 0 h 9 v 0 h 9 v 0 h 9 v 0 h 9 v 0 h 9 v 0 h 9 v 0 h 9 v 0 h 9 v 0 h 9 v 0 h 9 v 0 h 9 v 0 h 9 v 0 h 9 v 0 h 9 v 0 h 9 v 0 h 9 v 0 h 9 v 0 h 9 v 0 h 9 v 0 h 9 v 0 h 9 v 0 h 9 v 0 h 9 v 0 h 9 v 0 h 9 v 0 h 9 v 0 h 9 v 0 h 9 v 0 h 9 v 0 h 9 v 0 h 9 v 0 h 9 v 0 h 9 v 0 h 9 v 0 h 9 v 0 h 9 v 0 h 9 v 0 h 9 v 0 h 9 v 0 h 9 v 0 h 9 v 0 h 9 v 0 h 9 v 0 h 9 v 0 h 9 v 0 h 9 v 0 h 9 v 0 h 9 v 0 h 9 v 0 h 9 v 0 h 9 v 0 h 9 v 0" /><path
         id="path116"
         style="fill:none;stroke:#000000;stroke-width:15;stroke-linecap:butt;stroke-linejoin:round;stroke-miterlimit:10;stroke-dasharray:none;stroke-opacity:1"
         d="m 1395,639.512 h 9 l 9,-0.008 h 18 l 9,-0.008 h 9 l 9,-0.008 9,-0.008 9,-0.007 h 9 l 9,-0.008 9,-0.008 9,-0.016 9,-0.007 9,-0.008 9,-0.004 9,-0.008 9,-0.008 9,-0.015 9,-0.008 9,-0.008 9,-0.008 9,-0.015 9,-0.008 9,-0.016 9,-0.004 9,-0.008 9,-0.015 9,-0.008 9,-0.008 9,-0.015 9,-0.008 9,-0.008 9,-0.016 9,-0.004 9,-0.007 9,-0.016 9,-0.008 9,-0.008 9,-0.007 9,-0.008 9,-0.016 9,-0.008 9,-0.008 9,-0.003 9,-0.008 9,-0.008 9,-0.008 9,-0.008 9,-0.008 9,-0.007 9,-0.008 9,-0.008 9,-0.008 9,-0.008 h 9 l 9,-0.007 9,-0.008 9,-0.004 h 9 l 9,-0.008 9,-0.008 h 9 l 9,-0.008 9,-0.007 h 9 l 9,-0.008 h 9 l 9,-0.008 h 9 l 9,-0.008 h 9 l 9,-0.008 h 9 9 l 9,-0.007 h 9 9 l 9,-0.008 h 9 9 l 9,-0.008 h 9 9 9 9 l 9,-0.004 h 9 9 9 9 9 9 l 9,-0.008 h 9 9 9 9 9 9 l 9,2.75 9,7.989 9,10.824 9,11.449 9,13.57 9,17.078 9,19.2 9,19.964 9,21.524 9,23.844 9,25.343 9,26.016 9,27.082 9,28.574 9,29.559 9,30.047 9,30.703 9,31.595 9,32.18 9,32.44 9,32.78 9,33.22 9,33.49 9,33.54 9,33.62 9,33.74 9,33.76 9,33.63 9,33.5 9,33.39 9,33.21 9,32.93 9,32.65 9,32.37 9,32.03 9,31.66 9,31.24 9,30.86 9,30.41 9,29.95 9,29.46 9,28.98 9,28.47 9,27.95 9,27.41 9,26.88 9,26.33 9,25.77 9,25.2 9,24.65 9,24.07 9,23.49 9,22.93 9,22.35 9,21.78 9,21.2 9,20.63 9,20.06 9,19.5 9,18.95 9,18.38 9,17.83 9,17.3 9,16.75 9,16.23 9,15.7 9,15.18 9,14.67 9,14.18 9,13.69 9,13.19 9,12.73 9,12.25 9,11.81 9,11.35 9,10.91 9,10.49 9,10.07 9,9.66 9,9.26 9,8.88 9,8.48 9,8.13 9,7.76 9,7.41 9,7.07 9,6.74 9,6.41 9,6.1 9,5.8 9,5.5 9,5.21 9,4.95 9,4.67 9,4.42 9,4.16 9,3.92 9,3.69 9,3.46 9,3.25 9,3.03 9,2.84 9,2.64 9,2.46 9,2.27 9,2.1 9,1.94 9,1.77 9,1.63 9,1.48 9,1.34 9,1.21 9,1.08 9,0.96 9,0.85 9,0.72 9,0.63 9,0.53 9,0.43 9,0.35 9,0.25 9,0.18 9,0.09 9,0.03 9,-0.03 9,-0.11 9,-0.17 9,-0.22 9,-0.28 9,-0.32 9,-0.37 9,-0.42 9,-0.45 9,-0.49 9,-0.52 9,-0.56 9,-0.59 9,-0.61 9,-0.63 9,-0.66 9,-0.69 9,-0.69 9,-0.71 9,-0.72 9,-0.74 9,-0.74 9,-0.76 9,-0.76 9,-0.77 9,-0.77 9,-0.78 9,-0.77 9,-0.78 9,-0.77 9,-0.78 9,-0.76 9,-0.78 9,-0.76 9,-0.75 9,-0.75 9,-0.75 9,-0.74 9,-0.72 9,-0.73 9,-0.71 9,-0.7 9,-0.68 9,-0.69 9,-0.67 9,-0.66 9,-0.64 9,-0.64 9,-0.62 9,-0.62 9,-0.59 9,-0.59 9,-0.57 9,-0.56 9,-0.55 9,-0.54 9,-0.53 9,-0.5 9,-0.5 9,-0.49 9,-0.47 9,-0.46 9,-0.45 9,-0.43 9,-0.42 9,-0.42 9,-0.39 9,-0.39 9,-0.38 9,-0.36 9,-0.35 9,-0.34 9,-0.34 9,-0.31 9,-0.31 9,778.65 9,-0.28 9,-0.28 9,-0.9 9,-2.17 9,-2.93 9,-3.13 9,-3.63 9,-4.5 9,-5.09 9,-5.3 9,-5.7 9,-6.29 9,-6.71 9,-6.91 9,-7.18 9,-7.59 9,-7.88 9,-8.02 9,-8.22 9,-8.45 9,-8.65 9,-8.73 9,-8.85 9,-8.98 9,-9.07 9,-9.12 9,-9.15 9,-9.21 9,-9.23 9,-9.21 9,-9.2 9,-9.2 9,-9.15 9,-9.11 9,-9.04 9,-8.98 9,-8.91 9,-8.82 9,-8.73 9,-787.58 9,-8.52 9,-8.41 9,-7.64 9,-6.2 9,-5.29 9,-4.93 9,-4.28 9,-3.25 9,-2.52 9,-2.13 9,-1.59 9,-0.83 9,-0.27 9,0.09 9,0.53 9,1.09 9,1.52 9,1.83 9,2.17 9,2.57 9,2.9 9,3.15 9,3.4 9,3.69 9,3.93 9,4.11 9,4.3 9,4.49 9,4.66 9,4.78 9,4.91 9,5.02 9,5.14 9,5.2 9,5.28 9,5.35 9,5.39 9,5.44 9,5.46 9,5.48 9,5.5 9,5.5 9,5.49 9,5.47 9,5.46 9,5.43 9,5.4 9,5.36 9,5.31 9,5.27 9,5.21 9,5.16 9,5.08 9,5.03 9,4.95 9,4.89 9,4.8 9,4.74 9,4.64 9,4.57 9,4.49 9,4.4 9,4.31 9,4.23 9,4.14 9,4.04 9,3.96 9,3.88 9,3.78 9,3.68 9,3.6 9,3.5 9,3.42 9,3.32 9,3.23 9,3.16 9,3.06 9,2.96 9,2.89 9,2.8 9,2.72 9,2.62 9,2.55 9,2.47 9,2.38 9,2.31 9,2.23 9,2.15 9,2.09 9,2 9,1.93 9,1.86 9,1.8 9,1.72 9,1.66 9,1.59 9,1.53 9,1.47 9,1.4 9,1.35 9,1.29 9,1.24 9,1.18 9,1.13 9,1.07 9,1.03 9,0.98 9,0.93 9,0.88 9,0.84 9,0.8 9,0.75 9,0.72 9,0.68 9,0.64 9,0.59 9,0.57 9,0.54 9,0.49 9,0.47 9,0.44 9,0.4 9,0.39 9,0.35 9,0.33 9,0.3 9,0.28 9,0.25 9,0.24 9,0.21 9,0.19 9,0.17 9,0.16 9,0.13 9,0.12 9,0.11 9,0.09 9,0.07 9,0.07 9,0.04 9,0.04 9,0.02 9,0.01 h 9 9 l 9,-0.02 9,-0.02 9,-0.04 9,-0.03 9,-0.06 9,-0.05 9,-0.06 9,-0.07 9,-0.07 9,-0.08 9,-0.08 9,-0.08 9,-0.09 9,-0.09 9,-0.1 9,-0.1 9,-0.1 9,-0.11 9,-0.1 9,-0.11 9,-0.11 9,-0.11 9,-0.11 9,-0.11 9,-0.11 9,-0.11 9,-0.11 9,-0.12 9,-0.11 9,-0.11 9,-0.11 9,-0.11 9,-0.12 9,-0.1 9,-0.11 9,-0.11 9,-0.1 9,-0.12 9,-0.09 9,-0.11 9,-0.1 9,-0.1 9,-0.1 9,-0.1 9,-0.09 9,-0.09 9,-0.09 9,-0.09 9,-0.09 9,-0.09 9,-0.09 9,-0.08 9,-0.08 9,-0.07 9,-0.09 9,-0.07 9,-0.07 9,-0.07 9,-0.07 9,-0.07 9,-0.07 9,-0.06 9,-0.07 9,-0.06 9,-0.05 9,-0.07 9,-0.05 9,-0.05 9,-0.05 9,-0.05 9,-0.06 9,-0.04 9,-0.05 9,-0.04 9,-0.05 9,-0.03 9,-0.05 9,-0.04 9,-0.03 9,-0.04 9,-0.03 9,-0.03 9,-0.03 9,-0.04 9,-0.02 9,-0.03 9,-0.03 9,-0.02 9,-0.03 9,-0.02 9,-0.02 9,-0.02 9,-0.03 9,-0.02 9,-0.02 9,-0.01 9,-0.01 9,-0.03 9,-0.01 9,-0.01 9,-0.02 9,-0.01 9,-0.01 9,-0.01 9,-0.01 9,-0.01 9,-0.01 9,-0.01 9,-0.01 9,-0.01 h 9 l 9,-0.01 9,-0.01 h 9 9 l 9,-0.01 h 9 l 9,-0.01 h 9 l 9,-0.01 h 9 9 9 9 9 9 9 9 9 9 9 9 9 9 9 9 9 9 9 9 9 9 9 l 9,0.01 h 9 9 9 l 9,0.01 h 9 9 9 l 9,0.01 h 9 9 9 9 9 l 9,0.01 h 9 9 9 l 9,0.01 h 9 9 9 9 9 l 9,0.01 h 9 9 9 l 9,0.01 h 9 9 9 l 9,0.01 h 9 9 9 l 9,0.01 h 9 9 9 9 9 9 9 9 9 l 9,0.01 h 9 9 9 9 l 9,0.01 h 9 9 9 9 9 9 l 9,0.01 h 9 9 9 9 9 9 9 9 9 9 9 9 9 9 9 9 9 9 9 9 9 l 9,0.01 h 9 9 9 9 9 9 9 9 9 9 9 9 9 9 9 9 9 9 9 9 9 9 9 9 9 9 9 9 9 9 9 9 9 9 9 9 9 9 9 9 9 9 9 9 9 9 9 9 9 9 9 9 9 9 9 9 9 9 9 9 9 9 9 9 9 9 9 9 9 9 9 9 9 9 9 9 9 9 9 9 9 9 9 9 9 9 9 9 9 9 9" /><path
         id="path118"
         style="fill:#ffffff;fill-opacity:1;fill-rule:nonzero;stroke:none"
         d="M 1492.5,2482.5 H 2070 V 3315 h -577.5 z" /><path
         id="path120"
         style="fill:#000000;fill-opacity:1;fill-rule:nonzero;stroke:none"
         d="m 1866.01,3083.5 c 3.04,-5.24 8.36,-7.86 15.94,-7.86 6.87,0 12.81,2.43 17.81,7.27 5,4.84 9.04,10.68 12.13,17.52 3.08,6.84 5.49,13.81 7.21,20.92 -6.41,-6.09 -13.4,-9.14 -20.98,-9.14 -5.71,0 -10.57,0.99 -14.6,2.99 -4.02,1.99 -7.14,4.96 -9.37,8.9 -2.23,3.95 -3.34,8.69 -3.34,14.24 0,4.76 0.63,9.64 1.88,14.64 1.25,5 3.02,10.56 5.33,16.65 2.3,6.09 4.32,11.41 6.03,15.94 1.88,5.31 2.82,9.69 2.82,13.12 0,4.3 -1.57,6.45 -4.69,6.45 -5.78,0 -10.53,-2.95 -14.24,-8.85 -3.71,-5.9 -6.46,-12.52 -8.26,-19.87 -0.23,-0.85 -0.82,-1.28 -1.76,-1.28 h -2.57 c -1.18,0 -1.77,0.66 -1.77,1.99 v 0.58 c 2.35,8.68 5.92,16.36 10.73,23.04 4.8,6.68 10.88,10.02 18.23,10.02 5.15,0 9.52,-1.7 13.12,-5.11 3.59,-3.39 5.38,-7.71 5.38,-12.95 0,-2.65 -0.58,-5.46 -1.75,-8.43 -0.71,-1.8 -2.19,-5.67 -4.46,-11.61 -2.26,-5.93 -3.98,-10.85 -5.15,-14.76 -1.17,-3.91 -2.15,-7.74 -2.93,-11.49 -0.78,-3.75 -1.17,-7.5 -1.17,-11.25 0,-4.84 1.01,-8.92 3.05,-12.24 2.02,-3.32 5.26,-4.98 9.72,-4.98 8.99,0 17.07,5.51 24.26,16.53 l 16.41,66.91 c 0.54,1.95 1.69,3.61 3.45,4.98 1.76,1.36 3.66,2.05 5.69,2.05 1.79,0 3.36,-0.57 4.69,-1.7 1.32,-1.13 1.98,-2.59 1.98,-4.39 0,-0.86 -0.07,-1.45 -0.23,-1.76 l -21.56,-86.49 c -1.96,-7.5 -5.47,-14.64 -10.55,-21.44 -5.08,-6.8 -11.21,-12.27 -18.39,-16.41 -7.19,-4.14 -14.69,-6.21 -22.5,-6.21 -3.75,0 -7.47,0.74 -11.14,2.23 -3.67,1.48 -6.64,3.67 -8.91,6.56 -2.26,2.89 -3.39,6.29 -3.39,10.19 0,3.91 1.17,7.32 3.51,10.26 2.34,2.93 5.43,4.39 9.26,4.39 2.35,0 4.32,-0.72 5.92,-2.17 1.6,-1.44 2.4,-3.34 2.4,-5.68 0,-3.35 -1.23,-6.26 -3.69,-8.73 -2.46,-2.46 -5.37,-3.69 -8.73,-3.69 -0.16,0.08 -0.29,0.12 -0.42,0.12 -0.11,0 -0.25,0 -0.4,0" /><path
         id="path122"
         style="fill:#000000;fill-opacity:1;fill-rule:nonzero;stroke:none"
         d="m 1987.23,3079.91 c -5,0 -9.38,1.31 -13.13,3.93 -3.75,2.62 -6.62,6.13 -8.61,10.54 -1.99,4.42 -2.99,9.08 -2.99,14.01 0,7.5 1.89,14.55 5.68,21.15 3.79,6.6 8.91,11.87 15.36,15.82 6.44,3.94 13.34,5.92 20.68,5.92 4.53,0 8.48,-1.17 11.83,-3.51 3.36,-2.35 5.05,-5.71 5.05,-10.08 0,-6.02 -2.4,-10.49 -7.21,-13.42 -4.81,-2.93 -10.24,-4.75 -16.29,-5.45 -6.06,-0.7 -12.76,-1.05 -20.1,-1.05 h -0.46 c -1.73,-6.25 -2.59,-11.61 -2.59,-16.06 0,-4.69 1.1,-8.81 3.29,-12.36 2.18,-3.56 5.46,-5.33 9.84,-5.33 6.25,0 12.26,1.44 18.05,4.33 5.78,2.89 10.47,6.88 14.06,11.95 0.31,0.32 0.74,0.47 1.29,0.47 0.47,0 0.97,-0.29 1.52,-0.88 0.55,-0.58 0.82,-1.15 0.82,-1.7 0,-0.39 -0.07,-0.7 -0.23,-0.94 -3.91,-5.39 -9.11,-9.62 -15.59,-12.71 -6.48,-3.08 -13.24,-4.63 -20.27,-4.63 z m -9.26,41.96 c 6.1,0 11.74,0.27 16.94,0.82 5.19,0.54 9.88,1.95 14.06,4.21 4.18,2.27 6.27,5.83 6.27,10.67 0,1.95 -0.53,3.65 -1.58,5.09 -1.06,1.45 -2.45,2.56 -4.17,3.34 -1.72,0.79 -3.51,1.18 -5.39,1.18 -4.45,0 -8.45,-1.21 -12.01,-3.64 -3.55,-2.41 -6.48,-5.56 -8.79,-9.43 -2.3,-3.87 -4.08,-7.95 -5.33,-12.24" /><path
         id="path124"
         style="fill:none;stroke:#0072bd;stroke-width:15;stroke-linecap:butt;stroke-linejoin:round;stroke-miterlimit:10;stroke-dasharray:none;stroke-opacity:1"
         d="m 1522.73,3167.47 h 302.32" /><path
         id="path126"
         style="fill:#000000;fill-opacity:1;fill-rule:nonzero;stroke:none"
         d="m 1864.48,2849.7 c 0,0.86 0.08,1.48 0.24,1.87 l 16.29,64.93 c 1.02,3.98 1.53,7.5 1.53,10.55 0,6.25 -2.12,9.37 -6.34,9.37 -4.53,0 -7.89,-2.71 -10.07,-8.14 -2.19,-5.43 -4.34,-12.29 -6.45,-20.57 0,-0.39 -0.2,-0.71 -0.58,-0.94 -0.39,-0.23 -0.79,-0.35 -1.18,-0.35 h -2.57 c -0.47,0 -0.89,0.26 -1.23,0.76 -0.36,0.51 -0.54,1 -0.54,1.46 1.57,6.25 3.07,11.59 4.52,16 1.44,4.41 3.71,8.42 6.79,12.02 3.09,3.59 6.93,5.39 11.55,5.39 5,0 9.39,-1.45 13.18,-4.34 3.79,-2.89 6.15,-6.72 7.09,-11.49 3.67,4.85 7.85,8.69 12.54,11.55 4.69,2.85 9.85,4.28 15.47,4.28 4.61,0 8.67,-1.35 12.19,-4.05 3.51,-2.7 5.27,-6.35 5.27,-10.95 0,-3.68 -1.15,-6.88 -3.46,-9.62 -2.3,-2.73 -5.37,-4.1 -9.2,-4.1 -2.34,0 -4.31,0.74 -5.92,2.23 -1.6,1.48 -2.4,3.4 -2.4,5.74 0,3.13 1.18,5.96 3.52,8.5 2.34,2.54 5.04,3.81 8.08,3.81 -2.34,1.87 -5.19,2.81 -8.55,2.81 -6.17,0 -11.56,-2.21 -16.17,-6.62 -4.61,-4.41 -8.75,-10.02 -12.42,-16.82 l -15.59,-62.22 c -0.47,-2.04 -1.56,-3.76 -3.28,-5.16 -1.72,-1.41 -3.67,-2.11 -5.86,-2.11 -1.72,0 -3.22,0.57 -4.52,1.7 -1.28,1.13 -1.93,2.63 -1.93,4.51" /><path
         id="path128"
         style="fill:none;stroke:#ff0000;stroke-width:15;stroke-linecap:butt;stroke-linejoin:round;stroke-miterlimit:10;stroke-dasharray:none;stroke-opacity:1"
         d="m 1522.73,2898.75 h 302.32" /><path
         id="path130"
         style="fill:#000000;fill-opacity:1;fill-rule:nonzero;stroke:none"
         d="m 1866.01,2546.06 c 3.04,-5.23 8.36,-7.85 15.94,-7.85 6.87,0 12.81,2.42 17.81,7.27 5,4.84 9.04,10.68 12.13,17.52 3.08,6.83 5.49,13.8 7.21,20.91 -6.41,-6.09 -13.4,-9.14 -20.98,-9.14 -5.71,0 -10.57,1 -14.6,2.99 -4.02,1.99 -7.14,4.96 -9.37,8.91 -2.23,3.94 -3.34,8.69 -3.34,14.23 0,4.77 0.63,9.65 1.88,14.65 1.25,5 3.02,10.55 5.33,16.64 2.3,6.1 4.32,11.41 6.03,15.94 1.88,5.32 2.82,9.69 2.82,13.12 0,4.3 -1.57,6.45 -4.69,6.45 -5.78,0 -10.53,-2.95 -14.24,-8.84 -3.71,-5.91 -6.46,-12.53 -8.26,-19.87 -0.23,-0.86 -0.82,-1.29 -1.76,-1.29 h -2.57 c -1.18,0 -1.77,0.67 -1.77,1.99 v 0.59 c 2.35,8.67 5.92,16.35 10.73,23.03 4.8,6.68 10.88,10.02 18.23,10.02 5.15,0 9.52,-1.7 13.12,-5.1 3.59,-3.4 5.38,-7.72 5.38,-12.95 0,-2.66 -0.58,-5.47 -1.75,-8.44 -0.71,-1.8 -2.19,-5.66 -4.46,-11.6 -2.26,-5.94 -3.98,-10.86 -5.15,-14.76 -1.17,-3.91 -2.15,-7.74 -2.93,-11.49 -0.78,-3.75 -1.17,-7.5 -1.17,-11.25 0,-4.84 1.01,-8.92 3.05,-12.24 2.02,-3.32 5.26,-4.98 9.72,-4.98 8.99,0 17.07,5.5 24.26,16.52 l 16.41,66.91 c 0.54,1.95 1.69,3.61 3.45,4.98 1.76,1.37 3.66,2.05 5.69,2.05 1.79,0 3.36,-0.56 4.69,-1.69 1.32,-1.14 1.98,-2.6 1.98,-4.4 0,-0.86 -0.07,-1.44 -0.23,-1.76 l -21.56,-86.48 c -1.96,-7.5 -5.47,-14.65 -10.55,-21.45 -5.08,-6.8 -11.21,-12.27 -18.39,-16.41 -7.19,-4.14 -14.69,-6.2 -22.5,-6.2 -3.75,0 -7.47,0.74 -11.14,2.22 -3.67,1.49 -6.64,3.67 -8.91,6.57 -2.26,2.89 -3.39,6.28 -3.39,10.19 0,3.9 1.17,7.32 3.51,10.25 2.34,2.93 5.43,4.39 9.26,4.39 2.35,0 4.32,-0.72 5.92,-2.16 1.6,-1.45 2.4,-3.34 2.4,-5.69 0,-3.35 -1.23,-6.26 -3.69,-8.73 -2.46,-2.46 -5.37,-3.69 -8.73,-3.69 -0.16,0.08 -0.29,0.12 -0.42,0.12 -0.11,0 -0.25,0 -0.4,0" /><path
         id="path132"
         style="fill:none;stroke:#000000;stroke-width:15;stroke-linecap:butt;stroke-linejoin:round;stroke-miterlimit:10;stroke-dasharray:none;stroke-opacity:1"
         d="m 1522.73,2630.03 h 302.32" /><path
         id="path134"
         style="fill:none;stroke:#262626;stroke-width:5.00250006;stroke-linecap:butt;stroke-linejoin:miter;stroke-miterlimit:10;stroke-dasharray:none;stroke-opacity:1"
         d="M 1492.5,2482.5 H 2070 V 3315 h -577.5 z" /></g></g></svg>