<?xml version="1.0" encoding="UTF-8" standalone="no"?>
<svg
   xmlns:dc="http://purl.org/dc/elements/1.1/"
   xmlns:cc="http://creativecommons.org/ns#"
   xmlns:rdf="http://www.w3.org/1999/02/22-rdf-syntax-ns#"
   xmlns:svg="http://www.w3.org/2000/svg"
   xmlns="http://www.w3.org/2000/svg"
   viewBox="0 0 1200 500"
   height="500"
   width="1200"
   xml:space="preserve"
   id="svg2"
   version="1.1"><metadata
     id="metadata8"><rdf:RDF><cc:Work
         rdf:about=""><dc:format>image/svg+xml</dc:format><dc:type
           rdf:resource="http://purl.org/dc/dcmitype/StillImage" /></cc:Work></rdf:RDF></metadata><defs
     id="defs6" /><g
     transform="matrix(1.3333333,0,0,-1.3333333,0,500)"
     id="g10"><g
       transform="scale(0.1)"
       id="g12"><path
         id="path14"
         style="fill:#ffffff;fill-opacity:1;fill-rule:nonzero;stroke:none"
         d="M 0,0 H 9000 V 3750 H 0 Z" /><path
         id="path16"
         style="fill:#ffffff;fill-opacity:1;fill-rule:nonzero;stroke:none"
         d="M 0,0 H 9000 V 3750 H 0 Z" /><path
         id="path18"
         style="fill:#ffffff;fill-opacity:1;fill-rule:nonzero;stroke:none"
         d="M 1395,600 H 8595 V 3412.5 H 1395 Z" /><path
         id="path20"
         style="fill:none;stroke:#262626;stroke-width:5.00250006;stroke-linecap:square;stroke-linejoin:round;stroke-miterlimit:10;stroke-dasharray:none;stroke-opacity:1"
         d="M 1395,600 H 8595" /><path
         id="path22"
         style="fill:none;stroke:#262626;stroke-width:5.00250006;stroke-linecap:square;stroke-linejoin:round;stroke-miterlimit:10;stroke-dasharray:none;stroke-opacity:1"
         d="M 1395,3412.5 H 8595" /><path
         id="path24"
         style="fill:none;stroke:#262626;stroke-width:5.00250006;stroke-linecap:square;stroke-linejoin:round;stroke-miterlimit:10;stroke-dasharray:none;stroke-opacity:1"
         d="m 1395,600 v 72" /><path
         id="path26"
         style="fill:none;stroke:#262626;stroke-width:5.00250006;stroke-linecap:square;stroke-linejoin:round;stroke-miterlimit:10;stroke-dasharray:none;stroke-opacity:1"
         d="m 2423.57,600 v 72" /><path
         id="path28"
         style="fill:none;stroke:#262626;stroke-width:5.00250006;stroke-linecap:square;stroke-linejoin:round;stroke-miterlimit:10;stroke-dasharray:none;stroke-opacity:1"
         d="m 3452.14,600 v 72" /><path
         id="path30"
         style="fill:none;stroke:#262626;stroke-width:5.00250006;stroke-linecap:square;stroke-linejoin:round;stroke-miterlimit:10;stroke-dasharray:none;stroke-opacity:1"
         d="m 4480.72,600 v 72" /><path
         id="path32"
         style="fill:none;stroke:#262626;stroke-width:5.00250006;stroke-linecap:square;stroke-linejoin:round;stroke-miterlimit:10;stroke-dasharray:none;stroke-opacity:1"
         d="m 5509.28,600 v 72" /><path
         id="path34"
         style="fill:none;stroke:#262626;stroke-width:5.00250006;stroke-linecap:square;stroke-linejoin:round;stroke-miterlimit:10;stroke-dasharray:none;stroke-opacity:1"
         d="m 6537.86,600 v 72" /><path
         id="path36"
         style="fill:none;stroke:#262626;stroke-width:5.00250006;stroke-linecap:square;stroke-linejoin:round;stroke-miterlimit:10;stroke-dasharray:none;stroke-opacity:1"
         d="m 7566.43,600 v 72" /><path
         id="path38"
         style="fill:none;stroke:#262626;stroke-width:5.00250006;stroke-linecap:square;stroke-linejoin:round;stroke-miterlimit:10;stroke-dasharray:none;stroke-opacity:1"
         d="m 8595,600 v 72" /><path
         id="path40"
         style="fill:none;stroke:#262626;stroke-width:5.00250006;stroke-linecap:square;stroke-linejoin:round;stroke-miterlimit:10;stroke-dasharray:none;stroke-opacity:1"
         d="m 1395,3412.5 v -72" /><path
         id="path42"
         style="fill:none;stroke:#262626;stroke-width:5.00250006;stroke-linecap:square;stroke-linejoin:round;stroke-miterlimit:10;stroke-dasharray:none;stroke-opacity:1"
         d="m 2423.57,3412.5 v -72" /><path
         id="path44"
         style="fill:none;stroke:#262626;stroke-width:5.00250006;stroke-linecap:square;stroke-linejoin:round;stroke-miterlimit:10;stroke-dasharray:none;stroke-opacity:1"
         d="m 3452.14,3412.5 v -72" /><path
         id="path46"
         style="fill:none;stroke:#262626;stroke-width:5.00250006;stroke-linecap:square;stroke-linejoin:round;stroke-miterlimit:10;stroke-dasharray:none;stroke-opacity:1"
         d="m 4480.72,3412.5 v -72" /><path
         id="path48"
         style="fill:none;stroke:#262626;stroke-width:5.00250006;stroke-linecap:square;stroke-linejoin:round;stroke-miterlimit:10;stroke-dasharray:none;stroke-opacity:1"
         d="m 5509.28,3412.5 v -72" /><path
         id="path50"
         style="fill:none;stroke:#262626;stroke-width:5.00250006;stroke-linecap:square;stroke-linejoin:round;stroke-miterlimit:10;stroke-dasharray:none;stroke-opacity:1"
         d="m 6537.86,3412.5 v -72" /><path
         id="path52"
         style="fill:none;stroke:#262626;stroke-width:5.00250006;stroke-linecap:square;stroke-linejoin:round;stroke-miterlimit:10;stroke-dasharray:none;stroke-opacity:1"
         d="m 7566.43,3412.5 v -72" /><path
         id="path54"
         style="fill:none;stroke:#262626;stroke-width:5.00250006;stroke-linecap:square;stroke-linejoin:round;stroke-miterlimit:10;stroke-dasharray:none;stroke-opacity:1"
         d="m 8595,3412.5 v -72" /><g
         transform="scale(10)"
         id="g56"><text
           id="text60"
           style="font-variant:normal;font-weight:normal;font-size:20.00020027px;font-family:Helvetica;-inkscape-font-specification:Helvetica;writing-mode:lr-tb;fill:#262626;fill-opacity:1;fill-rule:nonzero;stroke:none"
           transform="matrix(1,0,0,-1,133.5,33)"><tspan
             id="tspan58"
             y="0"
             x="0 97.231773 108.35188 200.089 211.20911 302.94583 314.06595 405.80264 416.92276 508.65948 519.7796 611.51672 622.63684 714.37354 725.49365">010203040506070</tspan></text>
<text
           id="text64"
           style="font-variant:normal;font-weight:normal;font-size:21.99970055px;font-family:Helvetica;-inkscape-font-specification:Helvetica;writing-mode:lr-tb;fill:#262626;fill-opacity:1;fill-rule:nonzero;stroke:none"
           transform="matrix(1,0,0,-1,449.625,5)"><tspan
             id="tspan62"
             y="0"
             x="0 13.441816 25.673651 43.999401 56.231232 68.463066 74.578979 81.904884 92.904732">Tempo (s)</tspan></text>
</g><path
         id="path66"
         style="fill:none;stroke:#262626;stroke-width:5.00250006;stroke-linecap:square;stroke-linejoin:round;stroke-miterlimit:10;stroke-dasharray:none;stroke-opacity:1"
         d="M 1395,600 V 3412.5" /><path
         id="path68"
         style="fill:none;stroke:#262626;stroke-width:5.00250006;stroke-linecap:square;stroke-linejoin:round;stroke-miterlimit:10;stroke-dasharray:none;stroke-opacity:1"
         d="M 8595,600 V 3412.5" /><path
         id="path70"
         style="fill:none;stroke:#262626;stroke-width:5.00250006;stroke-linecap:square;stroke-linejoin:round;stroke-miterlimit:10;stroke-dasharray:none;stroke-opacity:1"
         d="m 1395,648.195 h 72" /><path
         id="path72"
         style="fill:none;stroke:#262626;stroke-width:5.00250006;stroke-linecap:square;stroke-linejoin:round;stroke-miterlimit:10;stroke-dasharray:none;stroke-opacity:1"
         d="m 1395,1099.59 h 72" /><path
         id="path74"
         style="fill:none;stroke:#262626;stroke-width:5.00250006;stroke-linecap:square;stroke-linejoin:round;stroke-miterlimit:10;stroke-dasharray:none;stroke-opacity:1"
         d="m 1395,1550.98 h 72" /><path
         id="path76"
         style="fill:none;stroke:#262626;stroke-width:5.00250006;stroke-linecap:square;stroke-linejoin:round;stroke-miterlimit:10;stroke-dasharray:none;stroke-opacity:1"
         d="m 1395,2002.36 h 72" /><path
         id="path78"
         style="fill:none;stroke:#262626;stroke-width:5.00250006;stroke-linecap:square;stroke-linejoin:round;stroke-miterlimit:10;stroke-dasharray:none;stroke-opacity:1"
         d="m 1395,2453.75 h 72" /><path
         id="path80"
         style="fill:none;stroke:#262626;stroke-width:5.00250006;stroke-linecap:square;stroke-linejoin:round;stroke-miterlimit:10;stroke-dasharray:none;stroke-opacity:1"
         d="m 1395,2905.15 h 72" /><path
         id="path82"
         style="fill:none;stroke:#262626;stroke-width:5.00250006;stroke-linecap:square;stroke-linejoin:round;stroke-miterlimit:10;stroke-dasharray:none;stroke-opacity:1"
         d="m 1395,3356.54 h 72" /><path
         id="path84"
         style="fill:none;stroke:#262626;stroke-width:5.00250006;stroke-linecap:square;stroke-linejoin:round;stroke-miterlimit:10;stroke-dasharray:none;stroke-opacity:1"
         d="m 8595,648.195 h -72" /><path
         id="path86"
         style="fill:none;stroke:#262626;stroke-width:5.00250006;stroke-linecap:square;stroke-linejoin:round;stroke-miterlimit:10;stroke-dasharray:none;stroke-opacity:1"
         d="m 8595,1099.59 h -72" /><path
         id="path88"
         style="fill:none;stroke:#262626;stroke-width:5.00250006;stroke-linecap:square;stroke-linejoin:round;stroke-miterlimit:10;stroke-dasharray:none;stroke-opacity:1"
         d="m 8595,1550.98 h -72" /><path
         id="path90"
         style="fill:none;stroke:#262626;stroke-width:5.00250006;stroke-linecap:square;stroke-linejoin:round;stroke-miterlimit:10;stroke-dasharray:none;stroke-opacity:1"
         d="m 8595,2002.36 h -72" /><path
         id="path92"
         style="fill:none;stroke:#262626;stroke-width:5.00250006;stroke-linecap:square;stroke-linejoin:round;stroke-miterlimit:10;stroke-dasharray:none;stroke-opacity:1"
         d="m 8595,2453.75 h -72" /><path
         id="path94"
         style="fill:none;stroke:#262626;stroke-width:5.00250006;stroke-linecap:square;stroke-linejoin:round;stroke-miterlimit:10;stroke-dasharray:none;stroke-opacity:1"
         d="m 8595,2905.15 h -72" /><path
         id="path96"
         style="fill:none;stroke:#262626;stroke-width:5.00250006;stroke-linecap:square;stroke-linejoin:round;stroke-miterlimit:10;stroke-dasharray:none;stroke-opacity:1"
         d="m 8595,3356.54 h -72" /><g
         transform="scale(10)"
         id="g98"><text
           id="text114"
           style="font-variant:normal;font-weight:normal;font-size:20.00020027px;font-family:Helvetica;-inkscape-font-specification:Helvetica;writing-mode:lr-tb;fill:#262626;fill-opacity:1;fill-rule:nonzero;stroke:none"
           transform="matrix(1,0,0,-1,110.25,56.5699)"><tspan
             id="tspan100"
             y="0"
             x="0 11.120111">30</tspan><tspan
             id="tspan102"
             y="-45.138699"
             x="0 11.120111">31</tspan><tspan
             id="tspan104"
             y="-90.277802"
             x="0 11.120111">32</tspan><tspan
             id="tspan106"
             y="-135.4169"
             x="0 11.120111">33</tspan><tspan
             id="tspan108"
             y="-180.5556"
             x="0 11.120111">34</tspan><tspan
             id="tspan110"
             y="-225.6947"
             x="0 11.120111">35</tspan><tspan
             id="tspan112"
             y="-270.8334"
             x="0 11.120111">36</tspan></text>
<text
           id="text118"
           style="font-variant:normal;font-weight:normal;font-size:21.99970055px;font-family:Helvetica;-inkscape-font-specification:Helvetica;writing-mode:lr-tb;fill:#262626;fill-opacity:1;fill-rule:nonzero;stroke:none"
           transform="matrix(0,1,1,0,102,147.375)"><tspan
             id="tspan116"
             y="0"
             x="0 14.6738 19.557734 25.673651 37.905483 45.231384 57.463215 63.579132 70.905029 81.904884 100.23064">Altura (cm)</tspan></text>
</g><g
         transform="scale(10)"
         id="g120"><text
           id="text124"
           style="font-variant:normal;font-weight:bold;font-size:21.99970055px;font-family:Helvetica;-inkscape-font-specification:Helvetica-Bold;writing-mode:lr-tb;fill:#000000;fill-opacity:1;fill-rule:nonzero;stroke:none"
           transform="matrix(1,0,0,-1,249.75,350.625)"><tspan
             id="tspan122"
             y="0"
             x="0 15.883783 28.115616 40.34745 53.789265 67.231087 79.462914 86.788818 99.020653 105.13657 117.3684 130.81021 136.92613 150.36795 162.59978 176.0416 184.59949 196.83131 210.27313 216.38905 229.83087 243.27269 249.3886 256.71451 268.94632 277.50421 283.62012 297.06195 303.17786 316.61969 330.06149 336.17743 355.73514 369.17697 382.61877 394.85062 400.96652 414.40836 420.52426 436.40805 452.29184 466.96564 479.19748 485.31339">Resposta ao degrau unitário do modelo ARXsim</tspan></text>
</g><path
         id="path126"
         style="fill:none;stroke:#0072bd;stroke-width:20.00250053;stroke-linecap:butt;stroke-linejoin:miter;stroke-miterlimit:10;stroke-dasharray:none;stroke-opacity:1"
         d="m 1395,631.648 h 5.14 v -9.082 h 5.14 v 28.321 h 5.15 v 25.554 h 5.14 v 9.059 h 5.15 v 9.871 h 5.14 v 16.965 h 5.14 v 16.613 h 5.14 v 13.387 h 5.14 v 13.371 h 5.15 v 14.664 h 5.14 v 14.57 h 5.15 v 13.891 h 5.14 v 13.809 h 5.14 v 13.98 h 5.14 v 13.91 h 5.14 v 13.727 h 5.15 v 13.637 h 5.14 v 13.601 h 5.15 v 13.531 h 5.14 v 13.434 h 5.14 v 13.348 h 5.14 v 13.293 h 5.14 v 13.207 h 5.15 v 13.132 h 5.14 v 13.055 h 5.15 v 12.977 h 5.14 v 12.907 h 5.14 v 12.83 h 5.14 v 12.76 h 5.14 v 12.68 h 5.15 v 12.62 h 5.14 v 12.54 h 5.15 v 12.46 h 5.14 v 12.4 h 5.14 v 12.32 h 5.14 v 12.26 h 5.14 v 12.18 h 5.15 v 12.12 h 5.14 v 12.04 h 5.15 v 11.97 h 5.14 v 11.9 h 5.14 v 11.85 h 5.14 v 11.76 h 5.14 v 11.7 h 5.15 v 11.64 h 5.14 v 11.56 h 5.15 v 11.51 h 5.14 v 11.43 h 5.14 v 11.37 h 5.14 v 11.3 h 5.14 v 11.24 h 5.15 V 1300 h 5.14 v 11.11 h 5.15 v 11.04 h 5.14 v 10.98 h 5.14 v 10.92 h 5.14 v 10.86 h 5.14 v 10.8 h 5.15 v 10.73 h 5.14 v 10.66 h 5.15 v 10.61 h 5.14 v 10.55 h 5.14 v 10.49 h 5.14 v 10.43 h 5.14 v 10.36 h 5.15 v 10.32 h 5.14 v 10.24 h 5.15 v 10.19 h 5.14 v 10.13 h 5.14 v 10.07 h 5.14 v 10.02 h 5.14 v 9.95 h 5.15 v 9.9 h 5.14 v 9.85 h 5.15 v 9.78 h 5.14 v 9.74 h 5.14 v 9.67 h 5.14 v 9.62 h 5.14 v 9.56 h 5.15 v 9.51 h 5.14 v 9.46 h 5.15 v 9.39 h 5.14 v 9.35 h 5.14 v 9.29 h 5.14 v 9.24 h 5.14 v 9.18 h 5.15 v 9.14 h 5.14 v 9.08 h 5.15 v 9.02 h 5.14 v 8.98 h 5.14 v 8.92 h 5.14 v 8.88 h 5.14 v 8.82 h 5.15 v 8.77 h 5.14 v 8.71 h 5.15 v 8.68 h 5.14 v 8.62 h 5.14 v 8.57 h 5.14 v 8.52 h 5.14 v 8.48 h 5.15 v 8.42 h 5.14 v 8.38 h 5.15 v 8.32 h 5.14 v 8.28 h 5.14 v 8.24 h 5.14 v 8.18 h 5.14 v 8.14 h 5.15 v 8.09 h 5.14 v 8.04 h 5.15 v 8 h 5.14 v 7.95 h 5.14 v 7.91 h 5.14 v 7.86 h 5.14 v 7.82 h 5.15 v 7.77 h 5.14 v 7.73 h 5.15 v 7.68 h 5.14 v 7.64 h 5.14 v 7.59 h 5.14 v 7.55 h 5.14 v 7.51 h 5.15 v 7.46 h 5.14 v 7.42 h 5.15 v 7.38 h 5.14 v 7.33 h 5.14 v 7.3 h 5.14 v 7.25 h 5.14 v 7.21 h 5.15 v 7.17 h 5.14 v 7.12 h 5.15 v 7.09 h 5.14 v 7.05 h 5.14 v 7 h 5.14 v 6.97 h 5.14 v 6.92 h 5.15 v 6.88 h 5.14 v 6.85 h 5.15 v 6.81 h 5.14 v 6.77 h 5.14 v 6.73 h 5.14 v 6.68 h 5.14 v 6.66 h 5.15 v 6.61 h 5.14 v 6.57 h 5.15 v 6.53 h 5.14 v 6.51 h 5.14 v 6.46 h 5.14 v 6.42 h 5.14 v 6.39 h 5.15 v 6.35 h 5.14 v 6.32 h 5.15 v 6.28 h 5.14 v 6.24 h 5.14 v 6.21 h 5.14 v 6.17 h 5.14 v 6.14 h 5.15 v 6.09 h 5.14 v 6.07 h 5.15 v 6.03 h 5.14 v 5.99 h 5.14 v 5.96 h 5.14 v 5.93 h 5.14 v 5.89 h 5.15 v 5.86 h 5.14 v 5.83 h 5.15 v 5.79 h 5.14 v 5.76 h 5.14 v 5.72 h 5.14 v 5.7 h 5.14 v 5.65 h 5.15 v 5.63 h 5.14 v 5.6 h 5.15 v 5.55 h 5.14 v 5.54 h 5.14 v 5.5 h 5.14 v 5.46 h 5.14 v 5.44 h 5.15 v 5.4 h 5.14 v 5.38 h 5.15 v 5.34 h 5.14 v 5.31 h 5.14 v 5.29 h 5.14 v 5.25 h 5.14 v 5.22 h 5.15 v 5.19 h 5.14 v 5.16 h 5.15 v 5.13 h 5.14 v 5.1 h 5.14 v 5.08 h 5.14 v 5.03 h 5.14 v 5.02 h 5.15 v 4.98 h 5.14 v 4.96 h 5.15 v 4.93 h 5.14 v 4.9 h 5.14 v 4.87 h 5.14 v 4.84 h 5.14 v 4.82 h 5.15 v 4.79 h 5.14 v 4.76 h 5.15 v 4.74 h 5.14 v 4.7 h 5.14 v 4.68 h 5.14 v 4.65 h 5.14 v 4.63 h 5.15 v 4.59 h 5.14 v 4.58 h 5.15 v 4.54 h 5.14 v 4.53 h 5.14 v 4.49 h 5.14 v 4.47 h 5.14 v 4.44 h 5.15 v 4.42 h 5.14 v 4.39 h 5.15 v 4.37 h 5.14 v 4.34 h 5.14 v 4.31 h 5.14 v 4.29 h 5.14 v 4.27 h 5.15 v 4.25 h 5.14 v 4.21 h 5.15 v 4.2 h 5.14 v 4.16 h 5.14 v 4.15 h 5.14 v 4.12 h 5.14 v 4.1 h 5.15 v 4.07 h 5.14 v 4.05 h 5.15 v 4.04 h 5.14 v 3.99 h 5.14 v 4 h 5.14 v 3.95 h 5.14 v 3.93 h 5.15 v 3.92 h 5.14 v 3.89 h 5.15 v 3.87 h 5.14 v 3.84 h 5.14 v 3.83 h 5.14 v 3.8 h 5.14 v 3.78 h 5.15 v 3.76 h 5.14 v 3.74 h 5.15 v 3.71 h 5.14 v 3.7 h 5.14 v 3.67 h 5.14 v 3.65 h 5.14 v 3.63 h 5.15 v 3.62 h 5.14 v 3.58 h 5.15 v 3.57 h 5.14 v 3.55 h 5.14 v 3.53 h 5.14 v 3.5 h 5.14 v 3.49 h 5.15 v 3.46 h 5.14 v 3.46 h 5.15 v 3.42 h 5.14 v 3.42 h 5.14 v 3.38 h 5.14 v 3.37 h 5.14 v 3.35 h 5.15 v 3.33 h 5.14 v 3.31 h 5.15 v 3.29 h 5.14 v 3.28 h 5.14 v 3.25 h 5.14 v 3.23 h 5.14 v 3.22 h 5.15 v 3.19 h 5.14 v 3.19 h 5.15 v 3.16 h 5.14 v 3.14 h 5.14 v 3.13 h 5.14 v 3.11 h 5.14 v 3.09 h 5.15 v 3.07 h 5.14 v 3.05 h 5.15 v 3.04 h 5.14 v 3.02 h 5.14 v 3 h 5.14 v 2.99 h 5.14 v 2.96 h 5.15 v 2.96 h 5.14 v 2.93 h 5.15 v 2.91 h 5.14 v 2.9 h 5.14 v 2.89 h 5.14 v 2.86 h 5.14 v 2.85 h 5.15 v 2.84 h 5.14 v 2.82 h 5.15 v 2.8 h 5.14 v 2.78 h 5.14 v 2.77 h 5.14 v 2.76 h 5.14 v 2.73 h 5.15 v 2.72 h 5.14 v 2.71 h 5.15 v 2.69 h 5.14 v 2.68 h 5.14 v 2.65 h 5.14 v 2.65 h 5.14 v 2.62 h 5.15 v 2.62 h 5.14 v 2.6 h 5.15 v 2.58 h 5.14 v 2.57 h 5.14 v 2.55 h 5.14 v 2.55 h 5.14 v 2.52 h 5.15 v 2.51 h 5.14 v 2.5 h 5.15 v 2.48 h 5.14 v 2.47 h 5.14 v 2.45 h 5.14 v 2.44 h 5.14 v 2.43 h 5.15 v 2.4 h 5.14 v 2.41 h 5.15 v 2.38 h 5.14 v 2.37 h 5.14 v 2.36 h 5.14 v 2.34 h 5.14 v 2.33 h 5.15 v 2.31 h 5.14 v 2.31 h 5.15 v 2.28 h 5.14 v 2.28 h 5.14 v 2.26 h 5.14 v 2.25 h 5.14 v 2.25 h 5.15 v 2.21 h 5.14 v 2.22 h 5.15 v 2.19 h 5.14 v 2.2 h 5.14 v 2.17 h 5.14 v 2.16 h 5.14 v 2.15 h 5.15 v 2.13 h 5.14 v 2.12 h 5.15 v 2.12 h 5.14 v 2.1 h 5.14 v 2.08 h 5.14 v 2.08 h 5.14 v 2.07 h 5.15 v 2.05 h 5.14 v 2.04 h 5.15 v 2.03 h 5.14 v 2.01 h 5.14 v 2.01 h 5.14 v 1.99 h 5.14 v 1.99 h 5.15 v 1.96 h 5.14 v 1.97 h 5.15 v 1.94 h 5.14 v 1.94 h 5.14 v 1.92 h 5.14 v 1.92 h 5.14 v 1.9 h 5.15 v 1.9 h 5.14 v 1.88 h 5.15 v 1.87 h 5.14 v 1.86 h 5.14 v 1.85 h 5.14 v 1.84 h 5.14 v 1.83 h 5.15 v 1.81 h 5.14 v 1.81 h 5.15 v 1.8 h 5.14 v 1.79 h 5.14 v 1.77 h 5.14 v 1.77 h 5.14 v 1.76 h 5.15 v 1.75 h 5.14 v 1.73 h 5.15 v 1.72 h 5.14 v 1.72 h 5.14 v 1.7 h 5.14 v 1.7 h 5.14 v 1.69 h 5.15 v 1.67 h 5.14 v 1.67 h 5.15 v 1.67 h 5.14 v 1.64 h 5.14 v 1.64 h 5.14 v 1.63 h 5.14 v 1.62 h 5.15 v 1.61 h 5.14 v 1.6 h 5.15 v 1.6 h 5.14 v 1.58 h 5.14 v 1.56 h 5.14 v 1.57 h 5.14 v 1.56 h 5.15 v 1.55 h 5.14 v 1.53 h 5.15 v 1.54 h 5.14 v 1.52 h 5.14 v 1.5 h 5.14 v 1.51 h 5.14 v 1.49 h 5.15 v 1.49 h 5.14 v 1.48 h 5.15 v 1.47 h 5.14 v 1.45 h 5.14 v 1.46 h 5.14 v 1.45 h 5.14 v 1.43 h 5.15 v 1.42 h 5.14 v 1.42 h 5.15 v 1.41 h 5.14 v 1.41 h 5.14 v 1.39 h 5.14 v 1.38 h 5.14 v 1.39 h 5.15 v 1.37 h 5.14 v 1.36 h 5.15 v 1.35 h 5.14 v 1.35 h 5.14 v 1.34 h 5.14 v 1.33 h 5.14 v 1.32 h 5.15 v 1.32 h 5.14 v 1.32 h 5.15 v 1.29 h 5.14 v 1.3 h 5.14 v 1.28 h 5.14 v 1.29 h 5.14 v 1.26 h 5.15 v 1.27 h 5.14 v 1.25 h 5.15 v 1.25 h 5.14 v 1.25 h 5.14 v 1.23 h 5.14 v 1.23 h 5.14 v 1.22 h 5.15 v 1.22 h 5.14 v 1.21 h 5.15 v 1.2 h 5.14 v 1.19 h 5.14 v 1.18 h 5.14 v 1.19 h 5.14 v 1.17 h 5.15 v 1.17 h 5.14 v 1.15 h 5.15 v 1.16 h 5.14 v 1.14 h 5.14 v 1.15 h 5.14 v 1.13 h 5.14 v 1.12 h 5.15 v 1.12 h 5.14 v 1.12 h 5.15 v 1.1 h 5.14 v 1.1 h 5.14 v 1.1 h 5.14 v 1.08 h 5.14 v 1.09 h 5.15 v 1.07 h 5.14 v 1.08 h 5.15 v 1.06 h 5.14 v 1.05 h 5.14 v 1.06 h 5.14 v 1.04 h 5.14 v 1.05 h 5.15 v 1.02 h 5.14 v 1.03 h 5.15 v 1.03 h 5.14 v 1.01 h 5.14 v 1.01 h 5.14 v 1 h 5.14 v 1.01 h 5.15 v 0.98 h 5.14 v 0.99 h 5.15 v 0.98 h 5.14 v 0.98 h 5.14 v 0.96 h 5.14 v 0.97 h 5.14 v 0.96 h 5.15 v 0.95 h 5.14 v 0.95 h 5.15 v 0.94 h 5.14 v 0.94 h 5.14 v 0.93 h 5.14 v 0.93 h 5.14 v 0.91 h 5.15 v 0.93 h 5.14 v 0.91 h 5.15 v 0.9 h 5.14 v 0.89 h 5.14 v 0.91 h 5.14 v 0.89 h 5.14 v 0.88 h 5.15 v 0.88 h 5.14 v 0.87 h 5.15 v 0.87 h 5.14 v 0.86 h 5.14 v 0.87 h 5.14 v 0.85 h 5.14 v 0.85 h 5.15 v 0.84 h 5.14 v 0.84 h 5.15 v 0.84 h 5.14 v 0.83 h 5.14 v 0.83 h 5.14 v 0.81 h 5.14 v 0.82 h 5.15 v 0.81 h 5.14 v 0.8 h 5.15 v 0.81 h 5.14 v 0.8 h 5.14 v 0.79 h 5.14 v 0.78 h 5.14 v 0.79 h 5.15 v 0.78 h 5.14 v 0.77 h 5.15 v 0.77 h 5.14 v 0.77 h 5.14 v 0.76 h 5.14 v 0.76 h 5.14 v 0.75 h 5.15 v 0.75 h 5.14 v 0.75 h 5.15 v 0.73 h 5.14 v 0.73 h 5.14 v 0.74 h 5.14 v 0.73 h 5.14 v 0.72 h 5.15 v 0.72 h 5.14 v 0.71 h 5.15 v 0.71 h 5.14 v 0.71 h 5.14 v 0.7 h 5.14 v 0.7 h 5.14 v 0.69 h 5.15 v 0.69 h 5.14 v 0.69 h 5.15 v 0.68 h 5.14 v 0.68 h 5.14 v 0.67 h 5.14 v 0.67 h 5.14 v 0.67 h 5.15 v 0.66 h 5.14 v 0.66 h 5.15 v 0.66 h 5.14 v 0.65 h 5.14 v 0.65 h 5.14 v 0.64 h 5.14 v 0.64 h 5.15 v 0.64 h 5.14 v 0.63 h 5.15 v 0.63 h 5.14 v 0.63 h 5.14 v 0.62 h 5.14 v 0.62 h 5.14 v 0.62 h 5.15 v 0.6 h 5.14 v 0.61 h 5.15 v 0.61 h 5.14 v 0.6 h 5.14 v 0.6 h 5.14 v 0.59 h 5.14 v 0.59 h 5.15 v 0.59 h 5.14 v 0.58 h 5.15 v 0.58 h 5.14 v 0.58 h 5.14 v 0.57 h 5.14 v 0.57 h 5.14 v 0.58 h 5.15 v 0.56 h 5.14 v 0.55 h 5.15 v 0.56 h 5.14 v 0.56 h 5.14 v 0.55 h 5.14 v 0.55 h 5.14 v 0.54 h 5.15 v 0.54 h 5.14 v 0.54 h 5.15 v 0.54 h 5.14 v 0.54 h 5.14 v 0.52 h 5.14 v 0.53 h 5.14 v 0.52 h 5.15 v 0.52 h 5.14 v 0.52 h 5.15 v 0.51 h 5.14 v 0.51 h 5.14 v 0.51 h 5.14 v 0.5 h 5.14 v 0.51 h 5.15 v 0.5 h 5.14 v 0.49 h 5.15 v 0.5 h 5.14 v 0.5 h 5.14 v 0.48 h 5.14 v 0.49 h 5.14 v 0.48 h 5.15 v 0.48 h 5.14 v 0.48 h 5.15 v 0.47 h 5.14 v 0.48 h 5.14 v 0.46 h 5.14 v 0.47 h 5.14 v 0.46 h 5.15 v 0.47 h 5.14 v 0.45 h 5.15 v 0.46 h 5.14 v 0.45 h 5.14 v 0.45 h 5.14 v 0.45 h 5.14 v 0.44 h 5.15 v 0.44 h 5.14 v 0.45 h 5.15 v 0.43 h 5.14 v 0.44 h 5.14 v 0.43 h 5.14 v 0.44 h 5.14 v 0.42 h 5.15 v 0.43 h 5.14 v 0.42 h 5.15 v 0.42 h 5.14 v 0.42 h 5.14 v 0.42 h 5.14 v 0.41 h 5.14 v 0.41 h 5.15 v 0.41 h 5.14 v 0.4 h 5.15 v 0.4 h 5.14 v 0.41 h 5.14 v 0.4 h 5.14 v 0.39 h 5.14 v 0.39 h 5.15 v 0.4 h 5.14 v 0.39 h 5.15 v 0.39 h 5.14 v 0.39 h 5.14 v 0.38 h 5.14 v 0.38 h 5.14 v 0.38 h 5.15 v 0.38 h 5.14 v 0.37 h 5.15 v 0.37 h 5.14 v 0.38 h 5.14 v 0.36 h 5.14 v 0.36 h 5.14 v 0.37 h 5.15 v 0.36 h 5.14 v 0.36 h 5.15 v 0.36 h 5.14 v 0.35 h 5.14 v 0.36 h 5.14 v 0.35 h 5.14 v 0.35 h 5.15 v 0.35 h 5.14 v 0.34 h 5.15 v 0.34 h 5.14 v 0.35 h 5.14 v 0.34 h 5.14 v 0.33 h 5.14 v 0.34 h 5.15 v 0.33 h 5.14 v 0.34 h 5.15 v 0.33 h 5.14 v 0.32 h 5.14 v 0.33 h 5.14 v 0.33 h 5.14 v 0.32 h 5.15 v 0.32 h 5.14 v 0.31 h 5.15 v 0.33 h 5.14 v 0.31 h 5.14 v 0.31 h 5.14 v 0.32 h 5.14 v 0.3 h 5.15 v 0.31 h 5.14 v 0.31 h 5.15 v 0.31 h 5.14 v 0.3 h 5.14 v 0.3 h 5.14 v 0.29 h 5.14 v 0.3 h 5.15 v 0.3 h 5.14 v 0.29 h 5.15 v 0.29 h 5.14 v 0.3 h 5.14 v 0.29 h 5.14 v 0.28 h 5.14 v 0.29 h 5.15 v 0.28 h 5.14 v 0.29 h 5.15 v 0.27 h 5.14 v 0.28 h 5.14 v 0.28 h 5.14 v 0.28 h 5.14 v 0.28 h 5.15 v 0.27 h 5.14 v 0.27 h 5.15 v 0.27 h 5.14 v 0.27 h 5.14 v 0.26 h 5.14 v 0.27 h 5.14 v 0.26 h 5.15 v 0.26 h 5.14 v 0.27 h 5.15 v 0.25 h 5.14 v 0.26 h 5.14 v 0.26 h 5.14 v 0.25 h 5.14 v 0.25 h 5.15 v 0.26 h 5.14 v 0.24 h 5.15 v 0.26 h 5.14 v 0.24 h 5.14 v 0.24 h 5.14 v 0.25 h 5.14 v 0.24 h 5.15 v 0.25 h 5.14 v 0.23 h 5.15 v 0.24 h 5.14 v 0.24 h 5.14 v 0.24 h 5.14 v 0.24 h 5.14 v 0.23 h 5.15 v 0.23 h 5.14 v 0.23 h 5.15 v 0.24 h 5.14 v 0.22 h 5.14 v 0.23 h 5.14 v 0.22 h 5.14 v 0.22 h 5.15 v 0.23 h 5.14 v 0.22 h 5.15 v 0.22 h 5.14 v 0.22 h 5.14 v 0.22 h 5.14 v 0.22 h 5.14 v 0.21 h 5.15 v 0.21 h 5.14 v 0.22 h 5.15 v 0.21 h 5.14 v 0.21 h 5.14 v 0.21 h 5.14 v 0.21 h 5.14 v 0.2 h 5.15 v 0.21 h 5.14 v 0.21 h 5.15 v 0.2 h 5.14 v 0.2 h 5.14 v 0.2 h 5.14 v 0.2 h 5.14 v 0.2 h 5.15 v 0.2 h 5.14 v 0.19 h 5.15 v 0.2 h 5.14 v 0.19 h 5.14 v 0.19 h 5.14 v 0.2 h 5.14 v 0.19 h 5.15 v 0.18 h 5.14 v 0.2 h 5.15 v 0.19 h 5.14 v 0.18 h 5.14 v 0.18 h 5.14 v 0.19 h 5.14 v 0.18 h 5.15 v 0.18 h 5.14 v 0.19 h 5.15 v 0.18 h 5.14 v 0.17 h 5.14 v 0.18 h 5.14 v 0.18 h 5.14 v 0.17 h 5.15 v 0.18 h 5.14 v 0.18 h 5.15 v 0.17 h 5.14 v 0.17 h 5.14 v 0.18 h 5.14 v 0.16 h 5.14 v 0.17 h 5.15 v 0.17 h 5.14 v 0.17 h 5.15 v 0.17 h 5.14 v 0.16 h 5.14 v 0.16 h 5.14 v 0.17 h 5.14 v 0.16 h 5.15 v 0.16 h 5.14 v 0.16 h 5.15 v 0.16 h 5.14 v 0.16 h 5.14 v 0.16 h 5.14 v 0.16 h 5.14 v 0.15 h 5.15 v 0.15 h 5.14 v 0.16 h 5.15 v 0.15 h 5.14 v 0.15 h 5.14 v 0.15 h 5.14 v 0.16 h 5.14 v 0.15 h 5.15 v 0.14 h 5.14 v 0.15 h 5.15 v 0.15 h 5.14 v 0.14 h 5.14 v 0.16 h 5.14 v 0.14 h 5.14 v 0.14 h 5.15 v 0.14 h 5.14 v 0.15 h 5.15 v 0.14 h 5.14 v 0.14 h 5.14 v 0.14 h 5.14 v 0.14 h 5.14 v 0.14 h 5.15 v 0.14 h 5.14 v 0.13 h 5.15 v 0.14 h 5.14 v 0.13 h 5.14 v 0.14 h 5.14 v 0.13 h 5.14 v 0.13 h 5.15 v 0.13 h 5.14 v 0.14 h 5.15 v 0.13 h 5.14 v 0.12 h 5.14 v 0.14 h 5.14 v 0.13 h 5.14 v 0.12 h 5.15 v 0.13 h 5.14 v 0.12 h 5.15 v 0.13 h 5.14 v 0.12 h 5.14 v 0.13 h 5.14 v 0.12 h 5.14 v 0.12 h 5.15 v 0.12 h 5.14 v 0.12 h 5.15 v 0.12 h 5.14 v 0.12 h 5.14 v 0.12 h 5.14 v 0.12 h 5.14 v 0.12 h 5.15 v 0.12 h 5.14 v 0.12 h 5.15 v 0.11 h 5.14 v 0.11 h 5.14 v 0.12 h 5.14 v 0.11 h 5.14 v 0.12 h 5.15 v 0.11 h 5.14 v 0.11 h 5.15 v 0.11 h 5.14 v 0.11 h 5.14 v 0.11 h 5.14 v 0.11 h 5.14 v 0.11 h 5.15 v 0.1 h 5.14 v 0.11 h 5.15 v 0.11 h 5.14 v 0.11 h 5.14 v 0.1 h 5.14 v 0.11 h 5.14 v 0.1 h 5.15 v 0.1 h 5.14 v 0.1 h 5.15 v 0.11 h 5.14 v 0.09 h 5.14 v 0.11 h 5.14 v 0.11 h 5.14 v 0.09 h 5.15 v 0.1 h 5.14 v 0.1 h 5.15 v 0.1 h 5.14 v 0.09 h 5.14 v 0.1 h 5.14 v 0.1 h 5.14 v 0.1 h 5.15 v 0.09 h 5.14 v 0.09 h 5.15 v 0.1 h 5.14 v 0.1 h 5.14 v 0.09 h 5.14 v 0.1 h 5.14 v 0.09 h 5.15 v 0.09 h 5.14 v 0.09 h 5.15 v 0.09 h 5.14 v 0.09 h 5.14 v 0.09 h 5.14 v 0.09 h 5.14 v 0.09 h 5.15 v 0.09 h 5.14 v 0.08 h 5.15 v 0.09 h 5.14 v 0.09 h 5.14 v 0.08 h 5.14 v 0.09 h 5.14 v 0.08 h 5.15 v 0.08 h 5.14 v 0.09 h 5.15 v 0.09 h 5.14 v 0.08 h 5.14 v 0.08 h 5.14 v 0.09 h 5.14 v 0.07 h 5.15 v 0.08 h 5.14 v 0.08 h 5.15 v 0.09 h 5.14 v 0.08 h 5.14 v 0.08 h 5.14 v 0.08 h 5.14 v 0.07 h 5.15 v 0.08 h 5.14 v 0.08 h 5.15 v 0.08 h 5.14 v 0.07 h 5.14 v 0.07 h 5.14 v 0.09 h 5.14 v 0.07 h 5.15 v 0.08 h 5.14 v 0.07 h 5.15 v 0.07 h 5.14 v 0.07 h 5.14 v 0.08 h 5.14 v 0.08 h 5.14 v 0.07 h 5.15 v 0.07 h 5.14 v 0.07 h 5.15 v 0.07 h 5.14 v 0.08 h 5.14 v 0.06 h 5.14 v 0.07 h 5.14 v 0.08 h 5.15 v 0.06 h 5.14 v 0.07 h 5.15 v 0.07 h 5.14 v 0.07 h 5.14 v 0.06 h 5.14 v 0.07 h 5.14 v 0.07 h 5.15 v 0.07 h 5.14 v 0.06 h 5.15 v 0.07 h 5.14 v 0.06 h 5.14 v 0.07 h 5.14 v 0.06 h 5.14 v 0.07 h 5.15 v 0.06 h 5.14 v 0.06 h 5.15 v 0.07 h 5.14 v 0.06 h 5.14 v 0.06 h 5.14 v 0.06 h 5.14 v 0.07 h 5.15 v 0.06 h 5.14 v 0.06 h 5.15 v 0.06 h 5.14 v 0.06 h 5.14 v 0.06 h 5.14 v 0.06 h 5.14 v 0.06 h 5.15 v 0.06 h 5.14 v 0.05 h 5.15 v 0.06 h 5.14 v 0.06 h 5.14 v 0.06 h 5.14 v 0.05 h 5.14 v 0.06 h 5.15 v 0.06 h 5.14 v 0.06 h 5.15 v 0.05 h 5.14 v 0.06 h 5.14 v 0.05 h 5.14 v 0.06 h 5.14 v 0.05 h 5.15 v 0.05 h 5.14 v 0.06 h 5.15 v 0.05 h 5.14 v 0.05 h 5.14 v 0.06 h 5.14 v 0.06 h 5.14 v 0.05 h 5.15 v 0.05 h 5.14 v 0.05 h 5.15 v 0.05 h 5.14 v 0.05 h 5.14 v 0.05 h 5.14 v 0.06 h 5.14 v 0.04 h 5.15 v 0.05 h 5.14 v 0.05 h 5.15 v 0.05 h 5.14 v 0.05 h 5.14 v 0.06 h 5.14 v 0.04 h 5.14 v 0.05 h 5.15 v 0.05 h 5.14 v 0.04 h 5.15 v 0.05 h 5.14 v 0.05 h 5.14 v 0.05 h 5.14 v 0.04 h 5.14 v 0.05 h 5.15 v 0.05 h 5.14 v 0.04 h 5.15 v 0.05 h 5.14 v 0.04 h 5.14 v 0.05 h 5.14 v 0.04 h 5.14 v 0.05 h 5.15 v 0.04 h 5.14 v 0.05 h 5.15 v 0.04 h 5.14 v 0.04 h 5.14 v 0.04 h 5.14 v 0.05 h 5.14 v 0.04 h 5.15 v 0.04 h 5.14 v 0.05 h 5.15 v 0.04 h 5.14 v 0.04 h 5.14 v 0.04 h 5.14 v 0.04 h 5.14 v 0.05 h 5.15 v 0.04 h 5.14 v 0.04 h 5.15 v 0.04 h 5.14 v 0.04 h 5.14 v 0.04 h 5.14 v 0.04 h 5.14 v 0.03 h 5.15 v 0.05 h 5.14 v 0.04 h 5.15 v 0.04 h 5.14 v 0.03 h 5.14 v 0.04 h 5.14 v 0.04 h 5.14 v 0.03 h 5.15 v 0.04 h 5.14 v 0.04 h 5.15 v 0.04 h 5.14 v 0.04 h 5.14 v 0.03 h 5.14 v 0.04 h 5.14 v 0.04 h 5.15 v 0.03 h 5.14 v 0.04 h 5.15 v 0.03 h 5.14 v 0.04 h 5.14 v 0.04 h 5.14 v 0.03 h 5.14 v 0.04 h 5.15 v 0.03 h 5.14 v 0.04 h 5.15 v 0.03 h 5.14 v 0.04 h 5.14 v 0.03 h 5.14 v 0.04 h 5.14 v 0.02 h 5.15 v 0.04 h 5.14 v 0.03 h 5.15 v 0.04 h 5.14 v 0.03 h 5.14 v 0.03 h 5.14 v 0.04 h 5.14 v 0.03 h 5.15 v 0.03 h 5.14 v 0.03 h 5.15 v 0.04 h 5.14 v 0.03 h 5.14 v 0.02 h 5.14 v 0.04 h 5.14 v 0.03 h 5.15 v 0.03 h 5.14 v 0.03 h 5.15 v 0.03 h 5.14 v 0.03 h 5.14 v 0.03 h 5.14 v 0.03 h 5.14 v 0.03 h 5.15 v 0.03 h 5.14 v 0.03 h 5.15 v 0.03 h 5.14 v 0.02 h 5.14 v 0.04 h 5.14 v 0.02 h 5.14 v 0.03 h 5.15 v 0.04 h 5.14 v 0.02 h 5.15 v 0.03 h 5.14 v 0.03 h 5.14 v 0.03 h 5.14 v 0.02 h 5.14 v 0.03 h 5.15 v 0.03 h 5.14 v 0.02 h 5.15 v 0.03 h 5.14 v 0.03 h 5.14 v 0.03 h 5.14 v 0.02 h 5.14 v 0.03 h 5.15 v 0.03 h 5.14 v 0.02 h 5.15 v 0.03 h 5.14 v 0.02 h 5.14 v 0.03 h 5.14 v 0.02 h 5.14 v 0.03 h 5.15 v 0.03 h 5.14 v 0.02 h 5.15 v 0.02 h 5.14 v 0.03 h 5.14 v 0.03 h 5.14 v 0.02 h 5.14 v 0.02 h 5.15 v 0.03 h 5.14 v 0.02 h 5.15 v 0.02 h 5.14 v 0.03 h 5.14 v 0.02 h 5.14 v 0.03 h 5.14 v 0.02 h 5.15 v 0.02 h 5.14 v 0.03 h 5.15 v 0.02 h 5.14 v 0.02 h 5.14 v 0.02 h 5.14 v 0.03 h 5.14 v 0.02 h 5.15 v 0.02 h 5.14 v 0.02 h 5.15 v 0.03 h 5.14 v 0.02 h 5.14 v 0.02 h 5.14 v 0.02 h 5.14 v 0.03 h 5.15 v 0.01 h 5.14 v 0.03 h 5.15 v 0.02 h 5.14 v 0.02 h 5.14 v 0.02 h 5.14 v 0.02 h 5.14 v 0.02 h 5.15 v 0.02 h 5.14 v 0.02 h 5.15 v 0.02 h 5.14 v 0.02 h 5.14 v 0.02 h 5.14 v 0.03 h 5.14 v 0.01 h 5.15 v 0.03 h 5.14 v 0.02 h 5.15 v 0.01 h 5.14 v 0.02 h 5.14 v 0.02 h 5.14 v 0.02 h 5.14 v 0.02 h 5.15 v 0.02 h 5.14 v 0.01 h 5.15 v 0.03 h 5.14 v 0.02 h 5.14 v 0.02 h 5.14 v 0.01 h 5.14 v 0.02 h 5.15 v 0.02 h 5.14 v 0.02 h 5.15 v 0.02 h 5.14 v 0.01 h 5.14 v 0.02 h 5.14 v 0.02 h 5.14 v 0.02 h 5.15 v 0.02 h 5.14 v 0.01 h 5.15 v 0.02 h 5.14 v 0.02 h 5.14 v 0.01 h 5.14 v 0.02 h 5.14 v 0.02 h 5.15 v 0.01 h 5.14 v 0.02 h 5.15 v 0.02 h 5.14 v 0.02 h 5.14 v 0.01 h 5.14 v 0.02 h 5.14 v 0.01 h 5.15 v 0.02 h 5.14 v 0.01 h 5.15 v 0.02 h 5.14 v 0.02 h 5.14 v 0.01 h 5.14 v 0.02 h 5.14 v 0.01 h 5.15 v 0.02 h 5.14 v 0.02 h 5.15 v 0.01 h 5.14 v 0.01 h 5.14 v 0.02 h 5.14 v 0.01 h 5.14 v 0.02 h 5.15 v 0.02 h 5.14 v 0.01 h 5.15 v 0.02 h 5.14 v 0.01 h 5.14 v 0.01 h 5.14 v 0.02 h 5.14 v 0.02 h 5.15 v 0.01 h 5.14 v 0.02 h 5.15 v 0.01 h 5.14 v 0.01 h 5.14 v 0.01 h 5.14 v 0.02 h 5.14 v 0.01 h 5.15 v 0.02 h 5.14 v 0.01 h 5.15 v 0.02 h 5.14 v 0 h 5.14 v 0.02 h 5.14 v 0.02 h 5.14 v 0.01 h 5.15 v 0.02 h 5.14 v 0 h 5.15 v 0.02 h 5.14 v 0.01 h 5.14 v 0.01 h 5.14 v 0.02 h 5.14 v 0.01 h 5.15 v 0.01 h 5.14 v 0.01 h 5.15 v 0.02 h 5.14 v 0.01 h 5.14 v 0.01 h 5.14 v 0.02 h 5.14 v 0.01 h 5.15 v 0.01 h 5.14 v 0.01 h 5.15 v 0.01 h 5.14 v 0.01 h 5.14 v 0.02 h 5.14 v 0.01 h 5.14 v 0.01 h 5.15 v 0.01 h 5.14 v 0.02 h 5.15 v 0 h 5.14 v 0.02 h 5.14 v 0 h 5.14 v 0.02 h 5.14 v 0.01 h 5.15 v 0.01 h 5.14 v 0.01 h 5.15 v 0.02 h 5.14 v 0 h 5.14 v 0.02 h 5.14 v 0 h 5.14 v 0.02 h 5.15 v 0.01 h 5.14 v 0.01 h 5.15 v 0.01 h 5.14 v 0.01 h 5.14 v 0.01 h 5.14 v 0.01 h 5.14 v 0.02 h 5.15 v 0 h 5.14 v 0.02 h 5.15 v 0 h 5.14 v 0.01 h 5.14 v 0.01 h 5.14 v 0.02 h 5.14 v 0 h 5.15 v 0.02 h 5.14 v 0.01 h 5.15 v 0 h 5.14 v 0.02 h 5.14 v 0 h 5.14 v 0.01 h 5.14 v 0.01 h 5.15 v 0.02 h 5.14 v 0 h 5.15 v 0.01 h 5.14 v 0.01 h 5.14 v 0.01 h 5.14 v 0.01 h 5.14 v 0.01 h 5.15 v 0.01 h 5.14 v 0.01 h 5.15 v 0.01 h 5.14 v 0.01 h 5.14 v 0 h 5.14 v 0.02 h 5.14 v 0.01 h 5.15 v 0 h 5.14 v 0.01 h 5.15 v 0.01 h 5.14 v 0 h 5.14 v 0.01 h 5.14 v 0.02 h 5.14 v 0.01 h 5.15 v 0 h 5.14 v 0.01 h 5.15 v 0.01 h 5.14 v 0.01 h 5.14 v 0 h 5.14 v 0.01 h 5.14 v 0.01 h 5.15 v 0.01 h 5.14 v 0.01 h 5.15 v 0.01 h 5.14 v 0.01 h 5.14 v 0 h 5.14 v 0.01 h 5.14 v 0.01 h 5.15 v 0.01 h 5.14 v 0 h 5.15 v 0.01 h 5.14 v 0.01 h 5.14 v 0 h 5.14 v 0.01 h 5.14 v 0.01 h 5.15 v 0.01 h 5.14 v 0 h 5.15 v 0.01 h 5.14 v 0.01 h 5.14 v 0.01 h 5.14 v 0.01 h 5.15 v 0 h 5.14 v 0.01 h 5.14 v 0.01 h 5.15 v 0 h 5.14 v 0.01 h 5.14 v 0.01 h 5.14 v 0.01 h 5.14 v 0 h 5.15 v 0.01 h 5.14 v 0.01 h 5.15 v 0 h 5.14 v 0.01 h 5.14 v 0.01 h 5.14 v 0 h 5.14 v 0.01 h 5.15 v 0.01 h 5.14 v 0 h 5.15 v 0.01 h 5.14 v 0.01 h 5.14 v 0.01 h 5.14 v 0 h 5.14 v 0 h 5.15 v 0.01 h 5.14 v 0.01 h 5.15 v 0.01 h 5.14 v 0.01 h 5.14 v 0 h 5.14 v 0 h 5.14 v 0.01 h 5.15 v 0.01 h 5.14 v 0.01 h 5.15 v 0 h 5.14 v 0 h 5.14 v 0.01 h 5.14 v 0.01 h 5.15 v 0 h 5.14 v 0.01 h 5.14 v 0 h 5.15 v 0.01 h 5.14 v 0.01 h 5.14 v 0.01 h 5.14 v 0 h 5.14 v 0 h 5.15 v 0.01 h 5.14 v 0.01 h 5.15 v 0 h 5.14 v 0.01 h 5.14 v 0 h 5.14 v 0.01 h 5.14 v 0 h 5.15 v 0.01 h 5.14 v 0 h 5.15 v 0 h 5.14 v 0.01 h 5.14 v 0.01 h 5.14 v 0.01 h 5.14 v 0 h 5.15 v 0.01 h 5.14 v 0 h 5.15 v 0.01 h 5.14 v 0 h 5.14 v 0.01 h 5.14 v 0 h 5.14 v 0.01 h 5.15 v 0 h 5.14 v 0 h 5.15 v 0.01 h 5.14 v 0.01 h 5.14 v 0 h 5.14 v 0 h 5.15 v 0.01 h 5.14 v 0 h 5.14 v 0.01 h 5.15 v 0.01 h 5.14 v 0 h 5.14 v 0.01" /><path
         id="path128"
         style="fill:none;stroke:#000000;stroke-width:5.00250006;stroke-linecap:butt;stroke-linejoin:bevel;stroke-miterlimit:10;stroke-dasharray:7.5, 22.5;stroke-dashoffset:0;stroke-opacity:1"
         d="M 1395,3231.95 H 8595" /></g></g></svg>