<?xml version="1.0" encoding="UTF-8" standalone="no"?>
<svg
   xmlns:dc="http://purl.org/dc/elements/1.1/"
   xmlns:cc="http://creativecommons.org/ns#"
   xmlns:rdf="http://www.w3.org/1999/02/22-rdf-syntax-ns#"
   xmlns:svg="http://www.w3.org/2000/svg"
   xmlns="http://www.w3.org/2000/svg"
   viewBox="0 0 1200 500"
   height="500"
   width="1200"
   xml:space="preserve"
   id="svg2"
   version="1.1"><metadata
     id="metadata8"><rdf:RDF><cc:Work
         rdf:about=""><dc:format>image/svg+xml</dc:format><dc:type
           rdf:resource="http://purl.org/dc/dcmitype/StillImage" /></cc:Work></rdf:RDF></metadata><defs
     id="defs6" /><g
     transform="matrix(1.3333333,0,0,-1.3333333,0,500)"
     id="g10"><g
       transform="scale(0.1)"
       id="g12"><path
         id="path14"
         style="fill:#ffffff;fill-opacity:1;fill-rule:nonzero;stroke:none"
         d="M 0,0 H 9000 V 3750 H 0 Z" /><path
         id="path16"
         style="fill:#ffffff;fill-opacity:1;fill-rule:nonzero;stroke:none"
         d="M 0,0 H 9000 V 3750 H 0 Z" /><path
         id="path18"
         style="fill:#ffffff;fill-opacity:1;fill-rule:nonzero;stroke:none"
         d="M 720,600 H 8820 V 3337.5 H 720 Z" /><path
         id="path20"
         style="fill:none;stroke:#262626;stroke-width:5.00250006;stroke-linecap:square;stroke-linejoin:round;stroke-miterlimit:10;stroke-dasharray:none;stroke-opacity:1"
         d="M 720,600 H 8820" /><path
         id="path22"
         style="fill:none;stroke:#262626;stroke-width:5.00250006;stroke-linecap:square;stroke-linejoin:round;stroke-miterlimit:10;stroke-dasharray:none;stroke-opacity:1"
         d="M 720,3337.5 H 8820" /><path
         id="path24"
         style="fill:none;stroke:#262626;stroke-width:5.00250006;stroke-linecap:square;stroke-linejoin:round;stroke-miterlimit:10;stroke-dasharray:none;stroke-opacity:1"
         d="m 720,600 v 81" /><path
         id="path26"
         style="fill:none;stroke:#262626;stroke-width:5.00250006;stroke-linecap:square;stroke-linejoin:round;stroke-miterlimit:10;stroke-dasharray:none;stroke-opacity:1"
         d="m 1540.25,600 v 81" /><path
         id="path28"
         style="fill:none;stroke:#262626;stroke-width:5.00250006;stroke-linecap:square;stroke-linejoin:round;stroke-miterlimit:10;stroke-dasharray:none;stroke-opacity:1"
         d="m 2360.5,600 v 81" /><path
         id="path30"
         style="fill:none;stroke:#262626;stroke-width:5.00250006;stroke-linecap:square;stroke-linejoin:round;stroke-miterlimit:10;stroke-dasharray:none;stroke-opacity:1"
         d="m 3180.76,600 v 81" /><path
         id="path32"
         style="fill:none;stroke:#262626;stroke-width:5.00250006;stroke-linecap:square;stroke-linejoin:round;stroke-miterlimit:10;stroke-dasharray:none;stroke-opacity:1"
         d="m 4001.01,600 v 81" /><path
         id="path34"
         style="fill:none;stroke:#262626;stroke-width:5.00250006;stroke-linecap:square;stroke-linejoin:round;stroke-miterlimit:10;stroke-dasharray:none;stroke-opacity:1"
         d="m 4821.26,600 v 81" /><path
         id="path36"
         style="fill:none;stroke:#262626;stroke-width:5.00250006;stroke-linecap:square;stroke-linejoin:round;stroke-miterlimit:10;stroke-dasharray:none;stroke-opacity:1"
         d="m 5641.52,600 v 81" /><path
         id="path38"
         style="fill:none;stroke:#262626;stroke-width:5.00250006;stroke-linecap:square;stroke-linejoin:round;stroke-miterlimit:10;stroke-dasharray:none;stroke-opacity:1"
         d="m 6461.77,600 v 81" /><path
         id="path40"
         style="fill:none;stroke:#262626;stroke-width:5.00250006;stroke-linecap:square;stroke-linejoin:round;stroke-miterlimit:10;stroke-dasharray:none;stroke-opacity:1"
         d="m 7282.03,600 v 81" /><path
         id="path42"
         style="fill:none;stroke:#262626;stroke-width:5.00250006;stroke-linecap:square;stroke-linejoin:round;stroke-miterlimit:10;stroke-dasharray:none;stroke-opacity:1"
         d="m 8102.28,600 v 81" /><path
         id="path44"
         style="fill:none;stroke:#262626;stroke-width:5.00250006;stroke-linecap:square;stroke-linejoin:round;stroke-miterlimit:10;stroke-dasharray:none;stroke-opacity:1"
         d="m 720,3337.5 v -81" /><path
         id="path46"
         style="fill:none;stroke:#262626;stroke-width:5.00250006;stroke-linecap:square;stroke-linejoin:round;stroke-miterlimit:10;stroke-dasharray:none;stroke-opacity:1"
         d="m 1540.25,3337.5 v -81" /><path
         id="path48"
         style="fill:none;stroke:#262626;stroke-width:5.00250006;stroke-linecap:square;stroke-linejoin:round;stroke-miterlimit:10;stroke-dasharray:none;stroke-opacity:1"
         d="m 2360.5,3337.5 v -81" /><path
         id="path50"
         style="fill:none;stroke:#262626;stroke-width:5.00250006;stroke-linecap:square;stroke-linejoin:round;stroke-miterlimit:10;stroke-dasharray:none;stroke-opacity:1"
         d="m 3180.76,3337.5 v -81" /><path
         id="path52"
         style="fill:none;stroke:#262626;stroke-width:5.00250006;stroke-linecap:square;stroke-linejoin:round;stroke-miterlimit:10;stroke-dasharray:none;stroke-opacity:1"
         d="m 4001.01,3337.5 v -81" /><path
         id="path54"
         style="fill:none;stroke:#262626;stroke-width:5.00250006;stroke-linecap:square;stroke-linejoin:round;stroke-miterlimit:10;stroke-dasharray:none;stroke-opacity:1"
         d="m 4821.26,3337.5 v -81" /><path
         id="path56"
         style="fill:none;stroke:#262626;stroke-width:5.00250006;stroke-linecap:square;stroke-linejoin:round;stroke-miterlimit:10;stroke-dasharray:none;stroke-opacity:1"
         d="m 5641.52,3337.5 v -81" /><path
         id="path58"
         style="fill:none;stroke:#262626;stroke-width:5.00250006;stroke-linecap:square;stroke-linejoin:round;stroke-miterlimit:10;stroke-dasharray:none;stroke-opacity:1"
         d="m 6461.77,3337.5 v -81" /><path
         id="path60"
         style="fill:none;stroke:#262626;stroke-width:5.00250006;stroke-linecap:square;stroke-linejoin:round;stroke-miterlimit:10;stroke-dasharray:none;stroke-opacity:1"
         d="m 7282.03,3337.5 v -81" /><path
         id="path62"
         style="fill:none;stroke:#262626;stroke-width:5.00250006;stroke-linecap:square;stroke-linejoin:round;stroke-miterlimit:10;stroke-dasharray:none;stroke-opacity:1"
         d="m 8102.28,3337.5 v -81" /><g
         transform="scale(10)"
         id="g64"><text
           id="text68"
           style="font-variant:normal;font-weight:normal;font-size:20.00020027px;font-family:Helvetica;-inkscape-font-specification:Helvetica;writing-mode:lr-tb;fill:#262626;fill-opacity:1;fill-rule:nonzero;stroke:none"
           transform="matrix(1,0,0,-1,66,33)"><tspan
             id="tspan66"
             y="0"
             x="0 76.400162 87.520279 158.42538 169.5455 240.45021 251.57031 322.47543 333.59555 404.50064 415.62076 486.52588 497.64597 568.55109 579.6712 650.57629 661.69641 732.60114 743.72125">0102030405060708090</tspan></text>
<text
           id="text72"
           style="font-variant:normal;font-weight:normal;font-size:21.99970055px;font-family:Helvetica;-inkscape-font-specification:Helvetica;writing-mode:lr-tb;fill:#262626;fill-opacity:1;fill-rule:nonzero;stroke:none"
           transform="matrix(1,0,0,-1,427.125,5)"><tspan
             id="tspan70"
             y="0"
             x="0 13.441816 25.673651 43.999401 56.231232 68.463066 74.578979 81.904884 92.904732">Tempo (s)</tspan></text>
</g><path
         id="path74"
         style="fill:none;stroke:#262626;stroke-width:5.00250006;stroke-linecap:square;stroke-linejoin:round;stroke-miterlimit:10;stroke-dasharray:none;stroke-opacity:1"
         d="M 720,600 V 3337.5" /><path
         id="path76"
         style="fill:none;stroke:#262626;stroke-width:5.00250006;stroke-linecap:square;stroke-linejoin:round;stroke-miterlimit:10;stroke-dasharray:none;stroke-opacity:1"
         d="M 8820,600 V 3337.5" /><path
         id="path78"
         style="fill:none;stroke:#262626;stroke-width:5.00250006;stroke-linecap:square;stroke-linejoin:round;stroke-miterlimit:10;stroke-dasharray:none;stroke-opacity:1"
         d="m 720,725.559 h 81" /><path
         id="path80"
         style="fill:none;stroke:#262626;stroke-width:5.00250006;stroke-linecap:square;stroke-linejoin:round;stroke-miterlimit:10;stroke-dasharray:none;stroke-opacity:1"
         d="m 720,1289.55 h 81" /><path
         id="path82"
         style="fill:none;stroke:#262626;stroke-width:5.00250006;stroke-linecap:square;stroke-linejoin:round;stroke-miterlimit:10;stroke-dasharray:none;stroke-opacity:1"
         d="m 720,1853.54 h 81" /><path
         id="path84"
         style="fill:none;stroke:#262626;stroke-width:5.00250006;stroke-linecap:square;stroke-linejoin:round;stroke-miterlimit:10;stroke-dasharray:none;stroke-opacity:1"
         d="m 720,2417.54 h 81" /><path
         id="path86"
         style="fill:none;stroke:#262626;stroke-width:5.00250006;stroke-linecap:square;stroke-linejoin:round;stroke-miterlimit:10;stroke-dasharray:none;stroke-opacity:1"
         d="m 720,2981.52 h 81" /><path
         id="path88"
         style="fill:none;stroke:#262626;stroke-width:5.00250006;stroke-linecap:square;stroke-linejoin:round;stroke-miterlimit:10;stroke-dasharray:none;stroke-opacity:1"
         d="m 8820,725.559 h -81" /><path
         id="path90"
         style="fill:none;stroke:#262626;stroke-width:5.00250006;stroke-linecap:square;stroke-linejoin:round;stroke-miterlimit:10;stroke-dasharray:none;stroke-opacity:1"
         d="m 8820,1289.55 h -81" /><path
         id="path92"
         style="fill:none;stroke:#262626;stroke-width:5.00250006;stroke-linecap:square;stroke-linejoin:round;stroke-miterlimit:10;stroke-dasharray:none;stroke-opacity:1"
         d="m 8820,1853.54 h -81" /><path
         id="path94"
         style="fill:none;stroke:#262626;stroke-width:5.00250006;stroke-linecap:square;stroke-linejoin:round;stroke-miterlimit:10;stroke-dasharray:none;stroke-opacity:1"
         d="m 8820,2417.54 h -81" /><path
         id="path96"
         style="fill:none;stroke:#262626;stroke-width:5.00250006;stroke-linecap:square;stroke-linejoin:round;stroke-miterlimit:10;stroke-dasharray:none;stroke-opacity:1"
         d="m 8820,2981.52 h -81" /><g
         transform="scale(10)"
         id="g98"><text
           id="text110"
           style="font-variant:normal;font-weight:normal;font-size:20.00020027px;font-family:Helvetica;-inkscape-font-specification:Helvetica;writing-mode:lr-tb;fill:#262626;fill-opacity:1;fill-rule:nonzero;stroke:none"
           transform="matrix(1,0,0,-1,42.75,64.3059)"><tspan
             id="tspan100"
             y="0"
             x="0 11.120111">10</tspan><tspan
             id="tspan102"
             y="-56.3992"
             x="0 11.120111">20</tspan><tspan
             id="tspan104"
             y="-112.7984"
             x="0 11.120111">30</tspan><tspan
             id="tspan106"
             y="-169.1972"
             x="0 11.120111">40</tspan><tspan
             id="tspan108"
             y="-225.59641"
             x="0 11.120111">50</tspan></text>
<text
           id="text114"
           style="font-variant:normal;font-weight:normal;font-size:21.99970055px;font-family:Helvetica;-inkscape-font-specification:Helvetica;writing-mode:lr-tb;fill:#262626;fill-opacity:1;fill-rule:nonzero;stroke:none"
           transform="matrix(0,1,1,0,34.5,143.625)"><tspan
             id="tspan112"
             y="0"
             x="0 14.6738 19.557734 25.673651 37.905483 45.231384 57.463215 63.579132 70.905029 81.904884 100.23064">Altura (cm)</tspan></text>
</g><path
         id="path116"
         style="fill:#000000;fill-opacity:1;fill-rule:nonzero;stroke:none"
         d="m 3608.21,3457.95 v 7.62 c 14.92,0 22.39,2.31 22.39,6.91 v 119.53 c 0,4.61 -7.47,6.92 -22.39,6.92 v 7.62 h 68.2 c 8.21,0 16.79,-1.47 25.73,-4.4 8.95,-2.93 16.43,-7.4 22.44,-13.42 6.01,-6.02 9.02,-13.2 9.02,-21.56 0,-6.09 -1.81,-11.54 -5.44,-16.35 -3.64,-4.8 -8.31,-8.81 -14.01,-12.01 -5.7,-3.2 -11.52,-5.51 -17.46,-6.92 6.48,-2.26 12.17,-5.87 17.05,-10.84 4.88,-4.96 7.83,-10.64 8.85,-17.04 l 3.05,-19.34 c 1.4,-8.67 2.88,-15.16 4.45,-19.45 1.56,-4.3 5,-6.45 10.31,-6.45 4.53,0 7.91,2.11 10.14,6.33 2.22,4.22 3.34,8.83 3.34,13.83 0,0.47 0.23,0.9 0.7,1.29 0.47,0.39 0.94,0.58 1.41,0.58 h 1.99 c 1.4,0 2.11,-0.98 2.11,-2.93 0,-3.91 -0.77,-7.75 -2.29,-11.54 -1.52,-3.79 -3.77,-6.94 -6.74,-9.44 -2.96,-2.5 -6.44,-3.75 -10.42,-3.75 -10.47,0 -19.48,2.6 -27.02,7.8 -7.54,5.2 -11.31,12.83 -11.31,22.91 v 19.33 c 0,7.27 -2.52,13.48 -7.56,18.64 -5.03,5.16 -11.18,7.73 -18.45,7.73 h -26.14 v -57.07 c 0,-4.6 7.47,-6.91 22.39,-6.91 v -7.62 z m 41.95,77.23 h 23.21 c 12.03,0 21.19,2.42 27.48,7.27 6.29,4.84 9.44,13.08 9.44,24.72 0,11.48 -3.11,19.65 -9.32,24.49 -6.22,4.84 -15.42,7.27 -27.6,7.27 h -12.19 c -2.65,0 -4.7,-0.12 -6.15,-0.36 -1.44,-0.23 -2.62,-0.86 -3.51,-1.87 -0.91,-1.02 -1.36,-2.58 -1.36,-4.69 v -56.83" /><path
         id="path118"
         style="fill:#000000;fill-opacity:1;fill-rule:nonzero;stroke:none"
         d="m 3817.03,3455.49 c -8.83,0 -16.93,2.33 -24.31,6.97 -7.39,4.65 -13.19,10.84 -17.4,18.58 -4.22,7.73 -6.33,15.93 -6.33,24.6 0,8.52 1.91,16.59 5.73,24.2 3.83,7.62 9.21,13.79 16.12,18.52 6.92,4.73 14.63,7.09 23.15,7.09 6.64,0 12.42,-1.11 17.34,-3.34 4.92,-2.23 8.99,-5.33 12.19,-9.31 3.2,-3.99 5.6,-8.66 7.2,-14.01 1.61,-5.35 2.41,-11.27 2.41,-17.75 0,-1.88 -0.74,-2.82 -2.23,-2.82 h -62.93 v -2.34 c 0,-12.03 2.42,-22.36 7.27,-30.99 4.84,-8.64 12.77,-12.96 23.79,-12.96 4.45,0 8.57,0.98 12.36,2.93 3.79,1.96 7.07,4.71 9.84,8.27 2.77,3.55 4.67,7.36 5.68,11.42 0.16,0.47 0.44,0.9 0.83,1.29 0.39,0.39 0.82,0.59 1.29,0.59 h 1.87 c 1.49,0 2.23,-0.94 2.23,-2.82 -2.04,-8.2 -6.45,-14.94 -13.25,-20.21 -6.79,-5.27 -14.41,-7.91 -22.85,-7.91 z m -28.83,58.12 h 49.58 c 0,5.48 -0.76,11 -2.29,16.59 -1.53,5.58 -4.06,10.23 -7.62,13.94 -3.55,3.71 -8.18,5.57 -13.88,5.57 -8.21,0 -14.56,-3.85 -19.04,-11.55 -4.5,-7.69 -6.75,-15.87 -6.75,-24.55" /><path
         id="path120"
         style="fill:#000000;fill-opacity:1;fill-rule:nonzero;stroke:none"
         d="m 3867.93,3457.36 v 35.4 c 0,1.17 0.63,1.75 1.88,1.75 h 2.69 c 0.79,0 1.34,-0.58 1.64,-1.75 4.07,-21.02 13.83,-31.53 29.3,-31.53 6.88,0 12.64,1.57 17.29,4.69 4.65,3.13 6.97,7.93 6.97,14.41 0,4.69 -1.82,8.67 -5.45,11.96 -3.63,3.28 -7.91,5.54 -12.83,6.79 l -14.53,2.81 c -4.93,1.1 -9.38,2.74 -13.36,4.93 -3.98,2.18 -7.24,5.09 -9.78,8.73 -2.55,3.63 -3.82,7.87 -3.82,12.71 0,6.41 1.68,11.64 5.04,15.71 3.37,4.06 7.72,6.99 13.07,8.79 5.35,1.79 11.15,2.69 17.4,2.69 7.42,0 13.91,-1.99 19.45,-5.98 l 6.33,5.39 c 0,0.39 0.36,0.59 1.06,0.59 h 1.52 c 0.47,0 0.88,-0.2 1.24,-0.59 0.34,-0.38 0.52,-0.77 0.52,-1.16 v -28.48 c 0,-1.41 -0.59,-2.11 -1.76,-2.11 h -2.58 c -1.33,0 -1.99,0.7 -1.99,2.11 0,7.57 -2.11,13.65 -6.32,18.22 -4.22,4.57 -10.12,6.86 -17.7,6.86 -6.49,0 -12.11,-1.19 -16.88,-3.58 -4.76,-2.38 -7.15,-6.51 -7.15,-12.36 0,-4.06 1.73,-7.39 5.16,-9.97 3.44,-2.57 7.46,-4.45 12.07,-5.62 l 14.65,-2.7 c 5,-1.16 9.65,-3.1 13.94,-5.79 4.3,-2.7 7.7,-6.1 10.2,-10.2 2.5,-4.1 3.75,-8.73 3.75,-13.88 0,-5.24 -0.9,-9.79 -2.7,-13.66 -1.79,-3.87 -4.31,-7.07 -7.55,-9.61 -3.25,-2.54 -7.06,-4.41 -11.43,-5.63 -4.38,-1.21 -8.98,-1.81 -13.83,-1.81 -9.06,0 -16.79,3.05 -23.2,9.14 l -7.97,-8.56 c 0,-0.39 -0.39,-0.58 -1.17,-0.58 h -1.29 c -1.25,0 -1.88,0.62 -1.88,1.87" /><path
         id="path122"
         style="fill:#000000;fill-opacity:1;fill-rule:nonzero;stroke:none"
         d="m 3953.07,3415.76 v 7.62 c 4.93,0 8.99,0.41 12.19,1.23 3.2,0.82 4.8,2.72 4.8,5.69 v 104.88 c 0,3.98 -1.4,6.46 -4.21,7.44 -2.82,0.97 -7.08,1.46 -12.78,1.46 v 7.62 l 32.23,2.35 v -13.48 c 3.91,4.38 8.49,7.72 13.77,10.02 5.27,2.3 10.91,3.46 16.93,3.46 8.52,0 16.21,-2.33 23.09,-6.98 6.87,-4.65 12.24,-10.74 16.11,-18.28 3.87,-7.54 5.8,-15.49 5.8,-23.84 0,-8.84 -2.15,-17.04 -6.44,-24.62 -4.3,-7.58 -10.14,-13.61 -17.52,-18.1 -7.39,-4.5 -15.53,-6.74 -24.44,-6.74 -10.54,0 -19.45,4.3 -26.71,12.89 v -38.08 c 0,-2.97 1.62,-4.87 4.86,-5.69 3.24,-0.82 7.29,-1.23 12.13,-1.23 v -7.62 z m 32.82,63.29 c 2.57,-5.16 6.13,-9.42 10.66,-12.78 4.53,-3.36 9.49,-5.04 14.88,-5.04 5,0 9.43,1.35 13.3,4.05 3.87,2.69 7.11,6.31 9.73,10.83 2.62,4.53 4.53,9.3 5.74,14.3 1.21,5 1.82,9.84 1.82,14.54 0,5.78 -1.04,12.05 -3.11,18.8 -2.07,6.76 -5.25,12.46 -9.55,17.11 -4.29,4.65 -9.49,6.97 -15.59,6.97 -5.85,0 -11.24,-1.5 -16.17,-4.51 -4.92,-3.01 -8.82,-7.09 -11.71,-12.25 v -52.02" /><path
         id="path124"
         style="fill:#000000;fill-opacity:1;fill-rule:nonzero;stroke:none"
         d="m 4130.16,3455.49 c -8.68,0 -16.75,2.21 -24.21,6.62 -7.45,4.42 -13.33,10.35 -17.63,17.82 -4.3,7.46 -6.45,15.56 -6.45,24.31 0,6.64 1.17,13.05 3.52,19.22 2.34,6.17 5.74,11.68 10.19,16.52 4.46,4.84 9.62,8.63 15.47,11.37 5.86,2.73 12.23,4.1 19.11,4.1 8.9,0 17.03,-2.36 24.37,-7.09 7.35,-4.73 13.15,-11.04 17.4,-18.93 4.26,-7.89 6.39,-16.29 6.39,-25.19 0,-8.67 -2.16,-16.76 -6.5,-24.26 -4.34,-7.5 -10.2,-13.45 -17.58,-17.87 -7.38,-4.41 -15.41,-6.62 -24.08,-6.62 z m 0,6.44 c 11.64,0 19.39,4.2 23.25,12.6 3.88,8.4 5.81,19.13 5.81,32.17 0,7.26 -0.39,13.3 -1.17,18.1 -0.78,4.81 -2.46,9.16 -5.04,13.07 -1.64,2.34 -3.71,4.43 -6.21,6.27 -2.5,1.84 -5.16,3.22 -7.97,4.16 -2.81,0.94 -5.7,1.41 -8.67,1.41 -4.53,0 -8.83,-1.04 -12.89,-3.11 -4.07,-2.07 -7.46,-4.98 -10.2,-8.73 -2.66,-4.14 -4.36,-8.67 -5.1,-13.59 -0.74,-4.92 -1.11,-10.78 -1.11,-17.58 0,-8.13 0.71,-15.43 2.11,-21.91 1.41,-6.49 4.26,-11.92 8.55,-16.29 4.3,-4.38 10.51,-6.57 18.64,-6.57" /><path
         id="path126"
         style="fill:#000000;fill-opacity:1;fill-rule:nonzero;stroke:none"
         d="m 4193.04,3457.36 v 35.4 c 0,1.17 0.63,1.75 1.88,1.75 h 2.7 c 0.78,0 1.33,-0.58 1.63,-1.75 4.07,-21.02 13.84,-31.53 29.31,-31.53 6.87,0 12.63,1.57 17.28,4.69 4.65,3.13 6.97,7.93 6.97,14.41 0,4.69 -1.81,8.67 -5.45,11.96 -3.63,3.28 -7.91,5.54 -12.82,6.79 l -14.54,2.81 c -4.92,1.1 -9.37,2.74 -13.36,4.93 -3.98,2.18 -7.25,5.09 -9.78,8.73 -2.54,3.63 -3.82,7.87 -3.82,12.71 0,6.41 1.69,11.64 5.05,15.71 3.36,4.06 7.71,6.99 13.06,8.79 5.35,1.79 11.16,2.69 17.41,2.69 7.42,0 13.9,-1.99 19.44,-5.98 l 6.34,5.39 c 0,0.39 0.35,0.59 1.05,0.59 h 1.52 c 0.47,0 0.88,-0.2 1.23,-0.59 0.36,-0.38 0.53,-0.77 0.53,-1.16 v -28.48 c 0,-1.41 -0.58,-2.11 -1.76,-2.11 h -2.57 c -1.33,0 -1.99,0.7 -1.99,2.11 0,7.57 -2.11,13.65 -6.33,18.22 -4.22,4.57 -10.12,6.86 -17.7,6.86 -6.48,0 -12.11,-1.19 -16.88,-3.58 -4.76,-2.38 -7.15,-6.51 -7.15,-12.36 0,-4.06 1.73,-7.39 5.16,-9.97 3.44,-2.57 7.46,-4.45 12.07,-5.62 l 14.65,-2.7 c 5,-1.16 9.65,-3.1 13.95,-5.79 4.29,-2.7 7.69,-6.1 10.19,-10.2 2.5,-4.1 3.75,-8.73 3.75,-13.88 0,-5.24 -0.9,-9.79 -2.69,-13.66 -1.8,-3.87 -4.32,-7.07 -7.56,-9.61 -3.24,-2.54 -7.06,-4.41 -11.43,-5.63 -4.38,-1.21 -8.98,-1.81 -13.82,-1.81 -9.07,0 -16.8,3.05 -23.21,9.14 l -7.97,-8.56 c 0,-0.39 -0.39,-0.58 -1.17,-0.58 h -1.29 c -1.25,0 -1.88,0.62 -1.88,1.87" /><path
         id="path128"
         style="fill:#000000;fill-opacity:1;fill-rule:nonzero;stroke:none"
         d="m 4294.71,3484.08 v 60 h -18.05 v 5.63 c 9.53,0 16.52,4.43 20.98,13.3 4.45,8.87 6.68,18.45 6.68,28.77 h 6.2 v -40.08 h 30.71 v -7.62 h -30.71 v -59.53 c 0,-6.01 1.02,-11.28 3.06,-15.82 2.03,-4.53 5.66,-6.8 10.9,-6.8 5,0 8.59,2.39 10.77,7.15 2.19,4.77 3.29,9.93 3.29,15.47 v 12.77 h 6.21 v -13.24 c 0,-4.53 -0.82,-9 -2.46,-13.42 -1.64,-4.41 -4.11,-8.04 -7.39,-10.89 -3.28,-2.86 -7.26,-4.28 -11.95,-4.28 -8.67,0 -15.55,2.6 -20.62,7.79 -5.08,5.2 -7.62,12.13 -7.62,20.8" /><path
         id="path130"
         style="fill:#000000;fill-opacity:1;fill-rule:nonzero;stroke:none"
         d="m 4366.79,3479.28 c 0,8.67 3.4,15.7 10.19,21.09 6.8,5.39 14.96,9.2 24.5,11.43 9.53,2.22 18.59,3.34 27.18,3.34 v 9.02 c 0,4.14 -0.91,8.18 -2.75,12.13 -1.84,3.94 -4.5,7.17 -7.97,9.67 -3.48,2.5 -7.32,3.75 -11.54,3.75 -9.61,0 -16.92,-2.15 -21.92,-6.45 2.74,0 5,-1.05 6.8,-3.16 1.8,-2.11 2.7,-4.53 2.7,-7.27 0,-2.89 -1.02,-5.37 -3.05,-7.44 -2.04,-2.07 -4.45,-3.1 -7.27,-3.1 -2.96,0 -5.46,1.03 -7.5,3.1 -2.03,2.07 -3.05,4.55 -3.05,7.44 0,7.66 3.46,13.35 10.37,17.06 6.92,3.7 14.56,5.56 22.92,5.56 5.93,0 11.87,-1.25 17.81,-3.75 5.93,-2.5 10.8,-6.09 14.59,-10.78 3.79,-4.69 5.68,-10.16 5.68,-16.41 v -48.98 c 0,-2.82 0.61,-5.41 1.82,-7.79 1.21,-2.39 3.06,-3.58 5.56,-3.58 2.43,0 4.23,1.21 5.39,3.64 1.18,2.42 1.76,5 1.76,7.73 v 13.94 h 6.33 v -13.94 c 0,-3.21 -0.84,-6.27 -2.52,-9.2 -1.68,-2.93 -3.96,-5.28 -6.86,-7.03 -2.89,-1.76 -5.97,-2.64 -9.25,-2.64 -4.3,0 -7.97,1.64 -11.02,4.92 -3.04,3.28 -4.76,7.19 -5.15,11.72 -2.66,-5.39 -6.61,-9.71 -11.84,-12.95 -5.23,-3.24 -10.86,-4.86 -16.88,-4.86 -5.46,0 -10.87,0.82 -16.23,2.46 -5.35,1.64 -9.82,4.22 -13.41,7.73 -3.59,3.52 -5.39,8.05 -5.39,13.6 z m 17.69,0 c 0,-5.08 1.88,-9.36 5.63,-12.83 3.75,-3.48 8.16,-5.22 13.24,-5.22 4.69,0 8.94,1.18 12.78,3.52 3.82,2.34 6.87,5.52 9.13,9.55 2.27,4.02 3.4,8.26 3.4,12.71 v 22.62 c -6.64,0 -13.4,-1.07 -20.28,-3.22 -6.87,-2.15 -12.57,-5.53 -17.1,-10.14 -4.53,-4.61 -6.8,-10.27 -6.8,-16.99" /><path
         id="path132"
         style="fill:#000000;fill-opacity:1;fill-rule:nonzero;stroke:none"
         d="m 4550.12,3479.28 c 0,8.67 3.4,15.7 10.19,21.09 6.8,5.39 14.97,9.2 24.5,11.43 9.53,2.22 18.59,3.34 27.19,3.34 v 9.02 c 0,4.14 -0.92,8.18 -2.76,12.13 -1.83,3.94 -4.49,7.17 -7.97,9.67 -3.48,2.5 -7.32,3.75 -11.54,3.75 -9.61,0 -16.92,-2.15 -21.92,-6.45 2.74,0 5.01,-1.05 6.8,-3.16 1.8,-2.11 2.7,-4.53 2.7,-7.27 0,-2.89 -1.02,-5.37 -3.05,-7.44 -2.03,-2.07 -4.45,-3.1 -7.26,-3.1 -2.98,0 -5.48,1.03 -7.5,3.1 -2.04,2.07 -3.05,4.55 -3.05,7.44 0,7.66 3.46,13.35 10.37,17.06 6.91,3.7 14.55,5.56 22.91,5.56 5.94,0 11.88,-1.25 17.81,-3.75 5.94,-2.5 10.8,-6.09 14.59,-10.78 3.79,-4.69 5.68,-10.16 5.68,-16.41 v -48.98 c 0,-2.82 0.61,-5.41 1.82,-7.79 1.21,-2.39 3.07,-3.58 5.57,-3.58 2.42,0 4.22,1.21 5.39,3.64 1.17,2.42 1.76,5 1.76,7.73 v 13.94 h 6.33 v -13.94 c 0,-3.21 -0.84,-6.27 -2.52,-9.2 -1.68,-2.93 -3.97,-5.28 -6.86,-7.03 -2.89,-1.76 -5.98,-2.64 -9.26,-2.64 -4.29,0 -7.97,1.64 -11.01,4.92 -3.05,3.28 -4.77,7.19 -5.16,11.72 -2.66,-5.39 -6.6,-9.71 -11.83,-12.95 -5.24,-3.24 -10.86,-4.86 -16.88,-4.86 -5.47,0 -10.88,0.82 -16.23,2.46 -5.35,1.64 -9.82,4.22 -13.42,7.73 -3.59,3.52 -5.39,8.05 -5.39,13.6 z m 17.69,0 c 0,-5.08 1.88,-9.36 5.63,-12.83 3.75,-3.48 8.16,-5.22 13.24,-5.22 4.69,0 8.95,1.18 12.77,3.52 3.84,2.34 6.88,5.52 9.15,9.55 2.26,4.02 3.4,8.26 3.4,12.71 v 22.62 c -6.64,0 -13.4,-1.07 -20.28,-3.22 -6.87,-2.15 -12.58,-5.53 -17.11,-10.14 -4.53,-4.61 -6.8,-10.27 -6.8,-16.99" /><path
         id="path134"
         style="fill:#000000;fill-opacity:1;fill-rule:nonzero;stroke:none"
         d="m 4705.83,3455.49 c -8.68,0 -16.74,2.21 -24.2,6.62 -7.47,4.42 -13.34,10.35 -17.65,17.82 -4.29,7.46 -6.44,15.56 -6.44,24.31 0,6.64 1.17,13.05 3.52,19.22 2.35,6.17 5.74,11.68 10.19,16.52 4.46,4.84 9.61,8.63 15.48,11.37 5.86,2.73 12.22,4.1 19.1,4.1 8.9,0 17.03,-2.36 24.37,-7.09 7.34,-4.73 13.14,-11.04 17.4,-18.93 4.26,-7.89 6.38,-16.29 6.38,-25.19 0,-8.67 -2.16,-16.76 -6.5,-24.26 -4.33,-7.5 -10.19,-13.45 -17.58,-17.87 -7.38,-4.41 -15.4,-6.62 -24.07,-6.62 z m 0,6.44 c 11.64,0 19.39,4.2 23.26,12.6 3.86,8.4 5.8,19.13 5.8,32.17 0,7.26 -0.39,13.3 -1.18,18.1 -0.78,4.81 -2.46,9.16 -5.04,13.07 -1.64,2.34 -3.71,4.43 -6.21,6.27 -2.5,1.84 -5.15,3.22 -7.96,4.16 -2.82,0.94 -5.71,1.41 -8.67,1.41 -4.54,0 -8.83,-1.04 -12.9,-3.11 -4.06,-2.07 -7.46,-4.98 -10.2,-8.73 -2.65,-4.14 -4.35,-8.67 -5.09,-13.59 -0.74,-4.92 -1.12,-10.78 -1.12,-17.58 0,-8.13 0.71,-15.43 2.12,-21.91 1.4,-6.49 4.25,-11.92 8.55,-16.29 4.3,-4.38 10.51,-6.57 18.64,-6.57" /><path
         id="path136"
         style="fill:#000000;fill-opacity:1;fill-rule:nonzero;stroke:none"
         d="m 4842.05,3457.36 v 35.4 c 0,1.17 0.63,1.75 1.88,1.75 h 2.69 c 0.78,0 1.33,-0.58 1.64,-1.75 4.06,-21.02 13.83,-31.53 29.29,-31.53 6.88,0 12.64,1.57 17.29,4.69 4.65,3.13 6.98,7.93 6.98,14.41 0,4.69 -1.82,8.67 -5.46,11.96 -3.63,3.28 -7.91,5.54 -12.83,6.79 l -14.53,2.81 c -4.92,1.1 -9.37,2.74 -13.36,4.93 -3.98,2.18 -7.25,5.09 -9.78,8.73 -2.54,3.63 -3.81,7.87 -3.81,12.71 0,6.41 1.68,11.64 5.04,15.71 3.36,4.06 7.71,6.99 13.07,8.79 5.34,1.79 11.14,2.69 17.39,2.69 7.43,0 13.91,-1.99 19.46,-5.98 l 6.33,5.39 c 0,0.39 0.35,0.59 1.05,0.59 h 1.52 c 0.47,0 0.88,-0.2 1.23,-0.59 0.36,-0.38 0.54,-0.77 0.54,-1.16 v -28.48 c 0,-1.41 -0.59,-2.11 -1.77,-2.11 h -2.57 c -1.33,0 -2,0.7 -2,2.11 0,7.57 -2.11,13.65 -6.32,18.22 -4.22,4.57 -10.12,6.86 -17.7,6.86 -6.48,0 -12.11,-1.19 -16.87,-3.58 -4.77,-2.38 -7.15,-6.51 -7.15,-12.36 0,-4.06 1.72,-7.39 5.15,-9.97 3.44,-2.57 7.47,-4.45 12.08,-5.62 l 14.65,-2.7 c 5,-1.16 9.64,-3.1 13.94,-5.79 4.3,-2.7 7.7,-6.1 10.2,-10.2 2.5,-4.1 3.75,-8.73 3.75,-13.88 0,-5.24 -0.9,-9.79 -2.7,-13.66 -1.8,-3.87 -4.32,-7.07 -7.56,-9.61 -3.24,-2.54 -7.05,-4.41 -11.43,-5.63 -4.37,-1.21 -8.98,-1.81 -13.83,-1.81 -9.05,0 -16.79,3.05 -23.2,9.14 l -7.97,-8.56 c 0,-0.39 -0.38,-0.58 -1.17,-0.58 h -1.28 c -1.25,0 -1.88,0.62 -1.88,1.87" /><path
         id="path138"
         style="fill:#000000;fill-opacity:1;fill-rule:nonzero;stroke:none"
         d="m 4928.24,3457.95 v 7.62 c 5,0 9.08,0.39 12.25,1.17 3.16,0.78 4.74,2.69 4.74,5.74 v 59.41 c 0,5.55 -1.07,8.97 -3.22,10.26 -2.15,1.29 -6.43,1.93 -12.83,1.93 v 7.62 l 31.41,2.35 v -81.57 c 0,-3.05 1.36,-4.96 4.09,-5.74 2.74,-0.78 6.41,-1.17 11.02,-1.17 v -7.62 z m 9.26,133.48 c 0,3.2 1.21,6.02 3.63,8.43 2.42,2.43 5.16,3.64 8.21,3.64 2.1,0 4.11,-0.55 6.03,-1.64 1.91,-1.09 3.4,-2.6 4.45,-4.52 1.06,-1.91 1.59,-3.88 1.59,-5.91 0,-3.13 -1.21,-5.88 -3.64,-8.27 -2.42,-2.38 -5.23,-3.57 -8.43,-3.57 -3.05,0 -5.79,1.19 -8.21,3.57 -2.42,2.39 -3.63,5.14 -3.63,8.27" /><path
         id="path140"
         style="fill:#000000;fill-opacity:1;fill-rule:nonzero;stroke:none"
         d="m 4989.12,3457.95 v 7.62 c 5,0 9.08,0.39 12.24,1.17 3.17,0.78 4.75,2.69 4.75,5.74 v 59.41 c 0,3.91 -0.59,6.72 -1.76,8.44 -1.17,1.72 -2.85,2.78 -5.04,3.17 -2.18,0.39 -5.58,0.58 -10.19,0.58 v 7.62 l 31.52,2.35 v -21.22 c 2.97,6.25 7.31,11.35 13,15.3 5.71,3.94 11.92,5.92 18.64,5.92 10,0 17.54,-2.41 22.61,-7.21 5.09,-4.8 7.63,-12.17 7.63,-22.09 v -52.27 c 0,-3.05 1.58,-4.96 4.74,-5.74 3.17,-0.78 7.25,-1.17 12.25,-1.17 v -7.62 h -49.81 v 7.62 c 4.92,0 8.98,0.39 12.19,1.17 3.2,0.78 4.81,2.69 4.81,5.74 v 51.68 c 0,7.03 -1.04,12.83 -3.11,17.41 -2.07,4.57 -6.27,6.85 -12.6,6.85 -8.44,0 -15.37,-3.36 -20.79,-10.08 -5.43,-6.72 -8.15,-14.38 -8.15,-22.97 v -42.89 c 0,-3.05 1.6,-4.96 4.8,-5.74 3.2,-0.78 7.23,-1.17 12.08,-1.17 v -7.62 h -49.81" /><path
         id="path142"
         style="fill:#000000;fill-opacity:1;fill-rule:nonzero;stroke:none"
         d="m 5113.57,3479.28 c 0,8.67 3.39,15.7 10.2,21.09 6.79,5.39 14.95,9.2 24.48,11.43 9.53,2.22 18.59,3.34 27.19,3.34 v 9.02 c 0,4.14 -0.92,8.18 -2.75,12.13 -1.84,3.94 -4.49,7.17 -7.98,9.67 -3.47,2.5 -7.32,3.75 -11.54,3.75 -9.6,0 -16.9,-2.15 -21.9,-6.45 2.73,0 4.99,-1.05 6.79,-3.16 1.8,-2.11 2.69,-4.53 2.69,-7.27 0,-2.89 -1.01,-5.37 -3.04,-7.44 -2.03,-2.07 -4.46,-3.1 -7.27,-3.1 -2.97,0 -5.47,1.03 -7.5,3.1 -2.03,2.07 -3.05,4.55 -3.05,7.44 0,7.66 3.46,13.35 10.38,17.06 6.91,3.7 14.55,5.56 22.9,5.56 5.94,0 11.88,-1.25 17.81,-3.75 5.95,-2.5 10.81,-6.09 14.6,-10.78 3.79,-4.69 5.69,-10.16 5.69,-16.41 v -48.98 c 0,-2.82 0.6,-5.41 1.81,-7.79 1.21,-2.39 3.06,-3.58 5.56,-3.58 2.43,0 4.22,1.21 5.4,3.64 1.17,2.42 1.75,5 1.75,7.73 v 13.94 h 6.33 v -13.94 c 0,-3.21 -0.84,-6.27 -2.52,-9.2 -1.68,-2.93 -3.96,-5.28 -6.85,-7.03 -2.89,-1.76 -5.98,-2.64 -9.27,-2.64 -4.29,0 -7.96,1.64 -11,4.92 -3.05,3.28 -4.78,7.19 -5.16,11.72 -2.66,-5.39 -6.61,-9.71 -11.84,-12.95 -5.23,-3.24 -10.86,-4.86 -16.87,-4.86 -5.48,0 -10.88,0.82 -16.23,2.46 -5.36,1.64 -9.83,4.22 -13.42,7.73 -3.6,3.52 -5.39,8.05 -5.39,13.6 z m 17.7,0 c 0,-5.08 1.87,-9.36 5.62,-12.83 3.75,-3.48 8.16,-5.22 13.24,-5.22 4.69,0 8.94,1.18 12.77,3.52 3.83,2.34 6.88,5.52 9.14,9.55 2.27,4.02 3.4,8.26 3.4,12.71 v 22.62 c -6.64,0 -13.4,-1.07 -20.27,-3.22 -6.88,-2.15 -12.58,-5.53 -17.11,-10.14 -4.53,-4.61 -6.79,-10.27 -6.79,-16.99" /><path
         id="path144"
         style="fill:#000000;fill-opacity:1;fill-rule:nonzero;stroke:none"
         d="m 5221.57,3457.95 v 7.62 c 5,0 9.09,0.39 12.25,1.17 3.16,0.78 4.75,2.69 4.75,5.74 v 114.14 c 0,3.91 -0.59,6.74 -1.76,8.5 -1.17,1.76 -2.85,2.83 -5.04,3.22 -2.19,0.39 -5.59,0.59 -10.2,0.59 v 7.62 l 32.35,2.34 v -136.41 c 0,-3.05 1.58,-4.96 4.75,-5.74 3.16,-0.78 7.2,-1.17 12.12,-1.17 v -7.62 h -49.22" /><path
         id="path146"
         style="fill:#000000;fill-opacity:1;fill-rule:nonzero;stroke:none"
         d="m 5356.6,3457.95 v 7.62 c 14.93,0 22.39,2.31 22.39,6.91 v 119.53 c 0,4.61 -7.46,6.92 -22.39,6.92 v 7.62 h 77.35 c 7.97,0 15.92,-1.64 23.85,-4.93 7.93,-3.28 14.45,-8.03 19.57,-14.23 5.11,-6.21 7.67,-13.46 7.67,-21.75 0,-8.04 -2.58,-15.11 -7.73,-21.21 -5.16,-6.09 -11.66,-10.72 -19.51,-13.88 -7.85,-3.16 -15.8,-4.75 -23.85,-4.75 h -34.81 v -53.32 c 0,-4.6 7.47,-6.91 22.39,-6.91 v -7.62 z m 41.96,74.3 h 29.53 c 7.97,0 14.43,1.15 19.4,3.45 4.96,2.31 8.59,5.88 10.89,10.73 2.31,4.84 3.46,11.25 3.46,19.21 0,11.8 -2.59,20.3 -7.79,25.5 -5.2,5.19 -13.85,7.79 -25.96,7.79 h -18.52 c -2.65,0 -4.7,-0.12 -6.14,-0.36 -1.45,-0.23 -2.63,-0.86 -3.52,-1.87 -0.9,-1.02 -1.35,-2.58 -1.35,-4.69 v -59.76" /><path
         id="path148"
         style="fill:#000000;fill-opacity:1;fill-rule:nonzero;stroke:none"
         d="m 5506.32,3457.95 v 7.62 c 14.93,0 22.39,2.31 22.39,6.91 v 119.53 c 0,4.61 -7.46,6.92 -22.39,6.92 v 7.62 h 68.21 c 8.2,0 16.78,-1.47 25.72,-4.4 8.95,-2.93 16.43,-7.4 22.45,-13.42 6.01,-6.02 9.02,-13.2 9.02,-21.56 0,-6.09 -1.82,-11.54 -5.45,-16.35 -3.63,-4.8 -8.3,-8.81 -14.01,-12.01 -5.7,-3.2 -11.52,-5.51 -17.46,-6.92 6.49,-2.26 12.17,-5.87 17.06,-10.84 4.88,-4.96 7.82,-10.64 8.84,-17.04 l 3.05,-19.34 c 1.41,-8.67 2.89,-15.16 4.45,-19.45 1.57,-4.3 5,-6.45 10.31,-6.45 4.54,0 7.92,2.11 10.14,6.33 2.23,4.22 3.34,8.83 3.34,13.83 0,0.47 0.24,0.9 0.71,1.29 0.46,0.39 0.93,0.58 1.4,0.58 h 1.99 c 1.41,0 2.11,-0.98 2.11,-2.93 0,-3.91 -0.76,-7.75 -2.28,-11.54 -1.53,-3.79 -3.77,-6.94 -6.74,-9.44 -2.97,-2.5 -6.45,-3.75 -10.43,-3.75 -10.47,0 -19.47,2.6 -27.01,7.8 -7.54,5.2 -11.31,12.83 -11.31,22.91 v 19.33 c 0,7.27 -2.52,13.48 -7.56,18.64 -5.04,5.16 -11.19,7.73 -18.46,7.73 h -26.13 v -57.07 c 0,-4.6 7.46,-6.91 22.38,-6.91 v -7.62 z m 41.96,77.23 h 23.2 c 12.04,0 21.2,2.42 27.48,7.27 6.29,4.84 9.44,13.08 9.44,24.72 0,11.48 -3.11,19.65 -9.31,24.49 -6.22,4.84 -15.42,7.27 -27.61,7.27 h -12.18 c -2.66,0 -4.71,-0.12 -6.15,-0.36 -1.45,-0.23 -2.63,-0.86 -3.52,-1.87 -0.9,-1.02 -1.35,-2.58 -1.35,-4.69 v -56.83" /><path
         id="path150"
         style="fill:#000000;fill-opacity:1;fill-rule:nonzero;stroke:none"
         d="m 5668.39,3457.95 v 7.62 c 15,0 22.5,2.31 22.5,6.91 v 119.53 c 0,4.61 -7.5,6.92 -22.5,6.92 v 7.62 h 80.04 c 7.34,0 14.76,-1.45 22.26,-4.34 7.5,-2.89 13.72,-7.15 18.64,-12.78 4.92,-5.62 7.38,-12.26 7.38,-19.92 0,-8.83 -3.63,-16.23 -10.9,-22.21 -7.26,-5.97 -15.74,-9.89 -25.43,-11.77 6.33,0 12.82,-1.72 19.46,-5.16 6.64,-3.44 12.09,-8.06 16.34,-13.88 4.26,-5.82 6.39,-11.97 6.39,-18.46 0,-7.97 -2.34,-15 -7.03,-21.1 -4.69,-6.09 -10.81,-10.77 -18.34,-14.06 -7.54,-3.28 -15.1,-4.92 -22.68,-4.92 z m 41.36,14.53 c 0,-3.12 0.88,-5.05 2.64,-5.8 1.76,-0.74 4.55,-1.11 8.38,-1.11 h 27.66 c 5.62,0 10.87,1.48 15.76,4.45 4.88,2.97 8.73,6.95 11.54,11.95 2.82,5 4.22,10.35 4.22,16.06 0,5.47 -1.17,10.84 -3.51,16.11 -2.35,5.27 -5.69,9.61 -10.02,13.01 -4.34,3.4 -9.32,5.1 -14.94,5.1 h -41.73 z m 0,65.51 h 32.59 c 4.37,0 8.49,0.8 12.36,2.4 3.87,1.61 7.34,3.91 10.43,6.91 3.08,3.02 5.46,6.41 7.14,10.2 1.68,3.79 2.52,7.79 2.52,12.01 0,3.83 -0.62,7.47 -1.87,10.9 -1.25,3.44 -3.08,6.59 -5.51,9.43 -2.42,2.86 -5.25,5.08 -8.49,6.69 -3.25,1.6 -6.74,2.4 -10.49,2.4 h -27.66 c -2.58,0 -4.59,-0.12 -6.04,-0.36 -1.44,-0.23 -2.63,-0.86 -3.57,-1.87 -0.93,-1.02 -1.41,-2.58 -1.41,-4.69 v -54.02" /><path
         id="path152"
         style="fill:#000000;fill-opacity:1;fill-rule:nonzero;stroke:none"
         d="m 5829.03,3454.91 v 50.73 c 0,1.1 0.66,1.65 1.99,1.65 h 2.57 c 0.48,0 0.89,-0.18 1.23,-0.53 0.36,-0.35 0.54,-0.72 0.54,-1.12 0,-14.21 4.39,-25.25 13.18,-33.1 8.79,-7.85 20.33,-11.78 34.63,-11.78 5.08,0 9.74,1.47 14,4.4 4.26,2.93 7.56,6.73 9.9,11.42 2.35,4.69 3.52,9.58 3.52,14.65 0,4.38 -0.88,8.64 -2.64,12.78 -1.75,4.14 -4.29,7.73 -7.61,10.78 -3.32,3.05 -7.09,5.08 -11.31,6.09 l -28.25,6.8 c -9.29,2.5 -16.91,7.59 -22.84,15.29 -5.94,7.69 -8.91,16.31 -8.91,25.84 0,7.5 1.91,14.55 5.74,21.15 3.83,6.61 8.98,11.82 15.47,15.65 6.48,3.82 13.47,5.74 20.97,5.74 14.54,0 26.06,-4.92 34.57,-14.77 l 9.03,14.06 c 0.39,0.47 0.86,0.71 1.4,0.71 h 1.53 c 0.39,0 0.78,-0.18 1.17,-0.53 0.39,-0.35 0.59,-0.8 0.59,-1.35 v -50.39 c 0,-1.33 -0.59,-1.99 -1.76,-1.99 h -2.58 c -1.33,0 -1.99,0.66 -1.99,1.99 0,3.67 -0.63,7.7 -1.88,12.08 -1.25,4.37 -2.97,8.59 -5.16,12.65 -2.18,4.06 -4.56,7.35 -7.14,9.85 -6.95,7.11 -16.21,10.66 -27.78,10.66 -4.92,0 -9.46,-1.27 -13.64,-3.81 -4.19,-2.54 -7.53,-5.96 -10.03,-10.25 -2.5,-4.3 -3.75,-8.83 -3.75,-13.6 0,-6.25 1.94,-11.89 5.8,-16.93 3.87,-5.04 8.93,-8.38 15.18,-10.02 l 28.24,-6.91 c 4.69,-1.1 9.1,-3.13 13.24,-6.1 4.14,-2.97 7.58,-6.39 10.32,-10.25 2.73,-3.87 4.88,-8.21 6.44,-13.01 1.56,-4.8 2.35,-9.74 2.35,-14.83 0,-7.81 -1.8,-15.21 -5.4,-22.2 -3.59,-6.99 -8.67,-12.62 -15.23,-16.88 -6.56,-4.26 -13.75,-6.39 -21.56,-6.39 -4.76,0 -9.67,0.53 -14.71,1.59 -5.04,1.05 -9.69,2.69 -13.95,4.92 -4.25,2.23 -8.1,5.06 -11.54,8.49 l -9.13,-14.29 c -0.39,-0.47 -0.94,-0.71 -1.65,-0.71 h -1.17 c -1.33,0 -1.99,0.59 -1.99,1.77" /><path
         id="path154"
         style="fill:none;stroke:#000000;stroke-width:20.00250053;stroke-linecap:butt;stroke-linejoin:round;stroke-miterlimit:10;stroke-dasharray:none;stroke-opacity:1"
         d="m 720,1803.84 4.102,138.85 4.101,99.4 4.106,105.48 4.093,97.73 4.102,112.48 4.105,103.03 4.102,103.76 4.102,135.54 4.101,46.69 4.098,15.11 4.101,36.83 4.102,76.52 4.101,-41 4.106,-50.1 4.101,28.94 h 4.094 l 4.102,-28.94 4.105,-7.36 4.102,-37.64 4.101,-139.11 4.102,-62.86 h 4.098 l 4.101,-56.81 4.102,-90.75 h 4.101 l 4.106,51.28 4.101,-10.09 4.094,-73.04 4.102,-43.78 4.105,11.09 4.102,11 h 4.101 4.102 l 4.097,43.02 4.102,51.71 4.102,49.56 4.101,75.13 4.106,-55.88 4.101,-58.72 4.094,-20.25 4.101,-20.6 4.106,-63.97 4.101,-126.59 4.102,-181.18 4.102,-224.48 4.097,-226.16 4.102,-241.32 4.101,-182.01 4.102,-202.241 4.105,-167.054 4.102,-58.957 4.094,58.957 4.101,57.277 4.106,82.914 4.101,105.284 4.102,147.61 4.101,114.45 4.098,43.77 4.102,42.71 4.101,41.66 4.102,-41.66 4.105,-42.71 4.102,21.49 4.094,-21.49 4.105,-43.77 4.102,-44.91 4.101,-46.06 4.102,-95.81 4.103,-49.85 h 4.1 4.1 4.1 4.1 4.11 l 4.1,74.27 4.09,24.12 h 4.11 l 4.1,23.79 4.1,46.66 4.1,195.93 4.11,156.95 4.09,176.83 4.1,128.09 4.1,264.97 4.11,220.92 4.1,168.7 4.1,186.52 4.1,151.55 4.1,64.69 4.1,60.5 4.1,115.13 4.11,59.46 4.1,-19.36 4.1,-29.89 4.1,5.05 4.1,-5.05 4.1,-63.15 4.11,-116.46 4.1,-104.97 4.1,-109.74 4.1,-149.02 4.1,-235.47 4.1,-212.15 4.1,-134.48 4.11,-349.53 4.1,-271.75 4.09,-298.02 4.1,-267.152 4.11,-87.8 h 4.1 4.1 l 4.1,144.261 4.1,108.254 4.1,127.197 4.1,48.54 4.11,160.26 4.1,85.41 4.1,20.71 4.1,80.34 4.1,19.5 4.1,-79.39 4.11,-41.16 4.1,-42.17 4.1,-65.26 4.1,-114.45 4.1,-47.91 4.1,-74.27 h 4.1 4.11 l 4.1,-25.43 4.09,25.43 4.1,74.27 4.11,-74.27 4.1,49.85 4.1,48.54 h 4.1 l 4.1,23.79 4.1,69.54 h 4.1 l 4.11,110.17 4.1,181.98 4.1,197.87 4.1,144.9 4.1,239.37 4.1,180.83 4.11,167.84 4.1,205.31 4.1,185.83 4.1,120.94 4.1,85.37 4.1,97.32 4.1,14.39 4.11,-43.92 4.1,-20.3 h 4.09 l 4.11,-26.06 4.1,-60.26 4.1,-101.9 4.1,-100.11 4.11,-103.54 4.1,-159.14 4.09,-206.79 4.1,-235.81 4.11,-239.37 4.1,-286.31 4.1,-326.01 4.1,-318.171 4.1,-196.312 4.1,-121.461 4.1,-31.516 4.11,93.141 4.1,117.937 4.1,111.348 4.1,105.284 4.1,99.7 4.1,140.05 4.11,108.79 4.1,41.66 4.1,20.45 4.1,20.2 4.1,-82.31 4.1,-42.71 4.1,-88.68 4.11,-69.54 4.1,-97.09 4.09,-25.09 h 4.1 4.11 4.1 l 4.1,-51.21 4.1,-52.641 4.1,78.421 4.1,99.7 4.1,24.12 h 4.11 4.1 4.1 l 4.1,47.27 4.1,46.06 4.1,-69.54 4.11,-23.79 4.1,23.79 4.1,-23.79 h 4.1 4.1 l 4.1,-48.54 4.1,-49.85 4.11,49.85 4.1,48.54 4.09,70.45 h 4.1 l 4.11,22.88 4.1,-46.06 4.1,23.18 4.1,45.48 4.1,-68.66 4.1,-23.48 4.1,46.66 h 4.11 l 4.1,-46.66 4.1,46.66 4.1,-46.66 h 4.1 l 4.1,46.66 4.11,22.88 h 4.1 4.1 4.1 l 4.1,-22.88 h 4.1 l 4.1,-23.18 4.11,-23.48 4.1,23.48 4.09,68.66 4.11,-22.6 h 4.1 l 4.1,-22.88 4.1,-46.66 4.1,-23.79 4.11,47.27 4.09,-23.48 h 4.1 l 4.11,46.66 4.1,-23.18 4.1,-23.48 4.1,-23.79 4.1,23.79 4.1,-23.79 4.1,23.79 4.11,46.66 4.1,22.88 4.1,-46.06 4.1,46.06 4.1,-46.06 4.1,-23.48 h 4.11 l 4.1,23.48 4.1,-23.48 4.1,-23.79 4.1,93.33 4.1,-69.54 4.1,-47.91 4.11,94.57 h 4.1 l 4.09,-46.66 4.1,46.66 4.11,22.88 h 4.1 4.1 l 4.1,66.93 4.1,-66.93 4.1,-22.88 h 4.1 l 4.11,22.88 4.1,-46.06 4.1,46.06 4.1,22.6 4.1,-22.6 4.1,22.6 4.11,108.79 4.1,160.76 4.1,231.3 4.1,171.56 4.1,192.14 4.1,244.28 4.1,229.64 4.11,122.72 4.1,150.46 4.09,158.6 4.1,129.71 4.11,64.67 4.1,34.72 4.1,37.27 4.1,8.04 4.1,-49.57 4.1,-80.83 4.1,-48.66 4.11,-57.01 4.1,-114.24 4.1,-180.47 4.1,-158.21 4.1,-126.32 4.1,-242.63 4.11,-299.68 4.1,-253.78 4.1,-262.36 4.1,-360.13 4.1,-238.718 4.1,-176.953 4.1,-62.559 4.11,152.977 4.1,58.101 4.09,111.348 4.11,130.714 4.1,122.18 4.1,114.45 4.1,107.43 4.11,81.33 4.09,19.72 h 4.1 l 4.1,-39.69 4.11,-20.2 4.1,-83.33 4.1,-87.57 4.1,-92.14 4.1,-23.79 4.1,-73.3 4.1,-25.09 h 4.11 4.1 4.1 4.1 l 4.1,74.27 4.1,24.12 4.11,-24.12 4.1,71.39 4.1,46.06 h 4.1 4.1 4.1 4.1 l 4.11,-22.88 h 4.1 l 4.09,-46.66 4.1,-23.79 4.11,47.27 4.1,-47.27 h 4.1 4.1 l 4.1,47.27 4.1,23.18 4.1,22.88 4.11,-93.33 4.1,70.45 4.1,-46.66 h 4.1 l 4.1,46.66 4.1,22.88 h 4.11 l 4.1,110.17 4.1,162.72 4.1,148.02 4.1,244.36 4.1,247.25 4.1,153.8 4.11,204.57 4.1,250.81 4.09,151.62 4.1,102.57 4.11,107.27 4.1,90.64 4.1,22.25 4.1,17.36 4.1,-4.3 4.1,-21.88 4.1,-17.96 4.11,-46.71 4.1,-158.15 4.1,-143.54 4.1,-91.75 4.1,-176.75 4.1,-274.96 4.11,-164.89 4.1,-202.88 4.1,-236.6 4.1,-200.15 4.1,-318.95 4.1,-303.624 4.1,-232.617 4.11,-31.043 4.1,-31.516 4.09,123.278 4.11,171.898 4.1,132.534 4.1,99.7 4.1,71.39 4.11,112.99 4.1,21.75 4.09,21.49 h 4.1 4.11 l 4.1,-21.49 4.1,-21.75 4.1,-89.81 4.1,-46.66 4.1,-97.09 h 4.1 l 4.11,-25.09 h 4.1 l 4.1,49.85 4.1,48.54 4.1,23.79 4.1,-23.79 h 4.11 l 4.1,23.79 4.1,114.45 4.1,43.77 4.1,-21.75 4.1,85.41 4.1,81.33 4.11,96.33 4.1,160.02 4.09,113.89 4.1,295.98 4.11,252.49 4.1,146.33 4.1,129.56 4.1,179.02 4.1,84.98 4.1,12.43 4.1,71.19 4.11,65.95 4.1,41.32 4.1,-5.05 4.1,-79.68 4.1,-63.39 4.1,-18.09 4.11,-89.37 4.1,-83.78 4.1,-37.1 4.1,-62.27 4.1,-100.81 4.1,-63.39 4.1,-47.53 4.11,-90.75 4.1,-75.63 4.09,-57 4.1,68.09 4.11,43.4 4.1,10.62 4.1,20.95 4.1,50.83 4.1,19.75 4.1,-9.83 4.1,57.76 4.11,63.88 4.1,-54.54 4.1,36.66 4.1,78.3 4.1,-96.48 4.1,-146.33 4.11,-86.06 4.1,-92.45 4.1,-138.94 4.1,-184.76 4.1,-264.99 4.1,-232.84 4.1,-221.88 4.11,-252.894 4.1,-199.148 4.09,-91.762 4.11,61.625 4.1,89.094 4.1,85.304 4.1,185.601 4.11,168.84 h 4.1 l 4.09,22.88 4.1,66.93 4.11,85.41 h 4.1 l 4.1,20.71 4.1,-62.88 4.1,-21.49 4.1,-88.68 4.1,-69.54 4.11,-23.79 4.1,-98.39 4.1,-25.43 4.1,25.43 4.1,74.27 4.1,-24.42 4.11,-49.85 4.1,74.27 4.1,47.91 4.1,46.66 4.1,22.88 4.1,66.93 4.1,-22.02 4.11,-44.91 4.1,-22.88 h 4.09 l 4.1,67.79 4.11,43.77 4.1,-43.77 4.1,-90.97 h 4.1 l 4.1,-23.48 4.1,-122.18 h 4.1 4.11 4.1 l 4.1,74.27 4.1,24.12 h 4.1 l 4.1,-24.12 4.11,-74.27 4.1,74.27 4.1,24.12 4.1,138.24 4.1,266.28 4.1,178.83 4.1,175.25 4.11,209.02 4.1,214.12 4.09,191.82 4.1,211.25 4.11,129.39 4.1,137.74 4.1,104.15 4.1,74.1 4.1,4.71 4.1,13.97 4.1,-9.29 4.11,-28.52 4.1,4.83 4.1,-44.45 4.1,-85.26 4.1,-119.53 4.1,-151.62 4.11,-213.87 4.1,-197.73 4.1,-210.21 4.1,-280.39 4.1,-252.5 4.1,-300.07 4.1,-258.65 4.11,-242.062 4.1,-179.562 4.09,-31.516 4.11,93.141 4.1,174.398 4.1,134.391 4.1,125.48 4.1,140.05 4.1,66.08 4.1,21.49 4.1,42.17 4.11,61.36 4.1,78.45 4.1,146.33 4.1,117.68 4.1,153.48 4.1,138.54 4.1,89.22 4.11,161.9 4.1,217.59 4.1,94.97 4.1,94.84 4.1,147.29 4.1,44.51 4.11,-25.18 4.1,25.18 4.1,18.45 4.1,-37.27 4.1,-12.75 4.1,-26.05 4.1,-54.3 4.11,-21.16 4.1,-89.39 4.09,-159.14 4.1,-74.52 4.11,-39.16 4.1,-40.49 4.1,-10.34 4.1,-20.95 4.1,31.29 4.1,-52.62 4.1,-77.67 4.11,-23.11 4.1,68.09 4.1,64.54 h 4.1 l 4.1,41.19 4.1,49.56 4.11,19.25 h 4.1 l 4.1,55.88 4.1,70.44 4.1,-98.04 4.1,-18.77 4.1,116.81 4.11,-52.41 4.1,-102.9 4.09,75.75 4.1,-37.25 4.11,-9.51 4.1,126.32 4.1,-25.9 4.1,-72.14 4.1,36.66 4.1,-36.66 4.1,-77.02 4.11,29.49 h 4.1 l 4.1,-9.74 4.1,28.99 4.1,-28.99 4.1,-9.83 4.11,-19.9 4.1,-61.8 4.1,-122.11 4.1,-135.03 4.1,-179.28 4.1,-155.12 4.1,-286.5 4.11,-276.27 4.1,-194.27 4.1,-160.171 4.1,-114.562 4.1,-29.699 h 4.1 l 4.1,116.234 4.11,162.418 4.1,101.06 4.09,48.54 4.1,115.93 4.11,129.74 4.1,81.33 4.1,77.52 4.1,91.95 4.1,153.02 4.1,153.48 4.1,202.88 4.11,208.29 4.1,213.96 4.1,133.45 4.1,68.26 4.1,91.1 4.1,77.12 4.11,42.2 4.1,5.87 4.1,40.08 h 4.1 l 4.1,-40.08 4.1,-29.75 4.1,-49.7 4.11,-66.03 4.1,-93.06 4.09,-110.67 4.1,-161.19 4.11,-209.94 4.1,-197.5 4.1,-200.01 4.1,-286.31 4.1,-281.68 4.1,-258.65 4.1,-242.062 4.11,-87.8 h 4.1 4.1 l 4.1,87.8 4.1,138.211 4.1,78.421 4.11,123.82 4.1,182.01 4.1,63.66 4.1,81.33 4.1,19.72 4.1,38.76 4.1,128.76 4.11,102.54 4.1,171.56 4.09,166.29 4.1,227.11 4.11,210.3 4.1,121.39 4.1,71.38 4.1,88.09 4.1,67.89 4.1,13.02 4.1,12.84 4.11,18.95 4.1,-12.59 h 4.1 l 4.1,-19.2 4.1,-46.38 4.1,-55.83 4.11,-51.57 4.1,-70.32 4.1,-92.76 4.1,-91.67 4.1,18.94 4.1,-28.52 4.1,-143.07 4.11,-89.98 4.1,57 4.1,43.78 4.1,10.71 4.1,-32.4 4.1,10.89 4.1,42.65 4.11,-31.85 4.1,-21.69 4.09,114.8 4.1,86.3 4.11,54.11 h 4.1 l 4.1,-72.73 4.1,-47.93 4.1,9.74 4.1,-90.75 4.1,-216.93 4.11,-186.55 4.1,-134.56 4.1,-183 4.1,-268.57 4.1,-269.79 4.1,-287.898 4.11,-146.371 h 4.1 l 4.1,30.137 4.1,144.261 4.1,134.391 4.1,25.78 4.1,99.7 4.11,71.39 4.1,46.06 4.09,131.39 4.1,160.76 4.11,180.89 4.1,66.85 4.1,226.83 4.1,265.71 4.1,-34.81 4.1,144.33 4.1,253.24 4.11,80.84 4.1,96.49 4.1,113.48 4.1,49.04 4.1,5.95 4.1,5.91 4.11,-29.95 4.1,-12.25 4.1,-12.43 4.1,-51.39 4.1,-33.59 4.1,-41.87 4.1,-51.19 4.11,-153.16 4.1,-90.18 4.09,-18.94 h 4.1 l 4.11,9.51 4.1,-78.32 4.1,-73.04 4.1,21.33 4.1,-54.02 h 4.1 l 4.1,74.97 h 4.11 l 4.1,40.85 4.1,68.23 4.1,28.05 h 4.1 l 4.1,36.35 4.11,52.41 4.1,-34.65 4.1,-35.79 4.1,-9.12 4.1,-105.48 4.1,-138.11 4.1,-206.94 4.11,-228.68 4.1,-270.89 4.09,-217.22 4.11,-224.72 4.1,-202.241 4.1,-226.011 4.1,-91.762 4.11,61.625 4.1,30.137 4.09,144.261 4.1,160.171 4.11,123.82 4.1,138.24 4.1,86.48 4.1,41.66 4.1,40.65 4.1,78.45 h 4.1 l 4.11,-139.81 4.1,-107.43 4.1,-22.31 4.1,-22.6 4.1,-69.54 4.1,-72.33 4.11,-24.76 4.1,-50.52 4.1,-51.917 4.1,51.917 4.1,99.7 4.1,-49.18 4.1,24.76 4.11,118.99 4.1,22.88 h 4.09 l 4.1,22.6 h 4.11 l 4.1,-92.14 h 4.1 l 4.1,46.66 h 4.1 l 4.1,-46.66 4.1,46.66 4.11,-46.66 4.1,-23.79 h 4.1 4.1 4.1 l 4.1,47.27 4.11,23.18 4.1,-46.66 4.1,-23.79 h 4.1 l 4.1,23.79 4.1,-23.79 h 4.1 4.11 4.1 l 4.09,23.79 4.1,23.48 4.11,-47.27 h 4.1 4.1 4.1 4.1 4.1 l 4.1,-24.12 4.11,24.12 h 4.1 4.1 4.1 l 4.1,70.45 h 4.1 l 4.11,22.88 h 4.1 4.1 l 4.1,-93.33 h 4.1 4.1 l 4.1,-24.12 4.11,47.91 4.1,69.54 h 4.1 l 4.1,-22.88 4.1,-70.45 h 4.1 4.1 4.11 4.1 4.09 l 4.1,-24.12 4.11,24.12 h 4.1 4.1 4.1 l 4.1,47.27 4.1,156.23 4.1,143.22 4.11,253.44 4.1,202.81 4.1,138.54 4.1,229.23 4.1,193.48 4.1,181.54 4.11,161.67 4.1,126.89 4.1,106.13 4.1,99.13 4.1,27.55 4.1,-22.89 4.1,-4.66 4.11,-43.15 4.1,-50.74 4.09,-31.95 4.1,-50.24 4.11,-109.69 4.1,-131.36 4.1,-92.74 4.1,-66.67 4.1,-108.25 4.1,-119.51 4.1,-75.63 4.11,11.09 4.1,-56.48 4.1,-121.04 4.1,25.13 4.1,36.8 4.1,-12.15 4.11,94.15 4.1,98.13 4.1,20.77 4.1,50.41 4.1,57.76 4.1,72.73 4.1,43.14 4.11,-69.87 4.1,-55.43 4.09,-9.51 4.11,-48.74 4.1,-148.09 4.1,-193.82 4.1,-181.08 4.1,-190.2 4.1,-316.97 4.1,-290.5 4.1,-204.984 4.11,-140.191 4.1,-58.957 h 4.1 l 4.1,87.8 4.1,28.434 4.1,136.281 4.11,127.197 4.1,118.99 4.1,89.81 4.1,64.46 4.1,41.66 h 4.1 l 4.1,-62.88 4.11,21.22 4.1,-64.46 4.1,-136.47 4.1,46.66 4.1,22.88 4.1,-69.54 4.1,-147.61 h 4.11 l 4.1,25.43 h 4.09 4.1 4.11 l 4.1,74.27 4.1,24.12 h 4.1 4.1 l 4.1,47.27 4.1,156.23 4.11,162.72 4.1,217.13 4.1,219.62 4.1,252.18 4.1,221.32 4.1,68.81 4.11,168.15 4.1,173.43 4.1,111.17 4.1,59.71 4.1,66.78 4.1,76.81 4.1,42.91 4.11,-42.91 4.1,-24.84 4.09,-62.75 4.1,-121.91 4.11,-77.63 4.1,-48.35 4.1,-81.04 4.1,-130.41 4.1,-80.84 4.1,-47.53 4.1,-80.32 4.11,-31.57 4.1,10.62 h 4.1 l 4.1,-99 4.1,-34.81 4.1,34.81 4.11,88.38 4.1,21.14 4.1,-31.85 4.1,42.28 4.1,60.75 4.1,76.38 4.1,36.35 4.11,8.91 4.1,17.6 4.09,-35.48 4.11,-18.18 4.1,-66.01 4.1,-155.29 4.1,-216.11 4.1,-241.8 4.1,-234.32 4.1,-253.79 4.1,-224.72 4.11,-229.104 4.1,-140.191 4.1,-58.957 h 4.1 l 4.1,58.957 4.1,112.941 4.11,132.534 4.1,123.82 4.1,115.93 4.1,66.08 4.1,84.37 4.1,119.1 4.1,146.33 4.11,84.97 4.1,215.02 4.09,259.15 4.11,185.52 4.1,195.13 4.1,89.95 4.1,82.84 4.1,115.87 4.1,91.68 h 4.1 l 4.1,11.56 4.11,44.79 4.1,-33.38 4.1,-64.63 4.1,-30.95 4.1,-32.01 4.1,-88.57 4.1,-97.2 4.11,-73.03 4.1,-152.82 4.1,-164.96 4.1,-190.26 4.1,-221.88 4.1,-226.79 4.11,-265.43 4.1,-266.38 4.1,-202.241 4.1,-138.211 4.1,-58.101 4.1,58.101 h 4.1 l 4.11,111.348 4.1,155.804 4.09,120.57 4.1,23.18 4.11,22.88 4.1,66.93 4.1,126.57 4.1,98.65 4.1,74.85 4.1,172.89 4.1,155.12 4.11,204.88 4.1,177.52 4.1,155.29 4.1,154.06 4.1,142.36 4.1,78.17 4.11,72.39 4.1,73.09 4.1,23.12 4.1,5.69 h 4.1 l 4.1,-17.17 4.1,-53.57 4.11,-69.96 4.1,-47.35 4.09,-35.26 4.1,-121.89 4.11,-203.68 4.1,-177.58 4.1,-130.1 4.11,-259.75 4.09,-280.09 4.1,-340.27 4.1,-313.977 4.11,-164.715 4.1,-148.519 4.1,-62.559 4.1,31.516 4.1,91.762 4.1,171.898 4.11,106.754 4.1,76.3 4.1,97.09 4.1,114.45 4.1,107.43 4.1,20.71 h 4.1 l 4.11,-20.71 4.1,-85.41 4.09,-66.93 h 4.11 l 4.1,-117.45 4.1,-74.27 4.1,-25.43 4.11,-78.421 h 4.09 l 4.1,52.641 4.1,25.78 4.11,-78.421 4.1,103.851 4.1,74.27 4.1,94.57 4.1,45.48 4.1,66.08 h 4.1 l 4.11,21.49 4.1,143.22 4.1,131.79 4.1,138.27 4.1,171.56 4.1,204.88 4.11,242.06 4.1,210.42 4.1,107.98 4.1,90.71 4.1,122.26 4.1,119.53 4.1,69.91 4.11,64.6 h 4.1 l 4.09,-14.47 4.1,23.97 4.11,-43.67 4.1,-140.42 4.1,-85.84 4.1,-73.4 4.1,-86.83 4.1,-78.43 4.1,-93.5 4.11,-63.88 4.1,-57.76 4.1,-71.18 4.1,-64.54 h 4.1 l 4.1,-44.98 4.11,33.89 4.1,54.49 4.1,21.14 4.1,71.18 4.1,9.83 4.1,-29.73 4.1,132.63 4.11,52.41 4.1,-34.65 h 4.09 l 4.1,17.45 4.11,50.79 4.1,16.41 4.1,-16.41 4.1,-8.3 h 4.1 l 4.1,-25.29 4.1,16.92 4.11,8.37 4.1,-33.85 4.1,-71 4.1,-9.2 4.1,88.76 4.1,-25.9 4.11,-44.54 4.1,18.03 4.1,8.91 4.1,-82.82 4.1,9.51 4.1,55.43 4.1,-36.66 4.11,-87 4.1,-93.93 4.09,-44.18 4.11,-155.23 4.1,-190.25 4.1,-253.78 4.1,-222.19 4.11,-256.55 4.1,-246.187 4.09,-193.558 4.1,-58.957 4.11,-60.719 4.1,30.582 4.1,117.937 4.1,56.461 4.1,134.391 4.1,125.48 4.1,117.45 4.11,66.93 4.1,21.75 h 4.1 l 4.1,-21.75 4.1,-44.33 h 4.1 l 4.11,-45.48 4.1,-46.66 4.1,-23.79 h 4.1 l 4.1,-123.82 4.1,-78.421 h 4.1 l 4.11,-26.863 4.1,26.863 4.09,52.641 4.1,25.78 4.11,50.52 4.1,73.3 4.1,-73.3 4.1,-25.09 4.1,122.18 4.1,114.45 4.1,148.59 4.11,262.36 4.1,194.31 4.1,211.13 4.1,259.51 4.1,222.81 4.1,147.86 4.11,122.62 4.1,120.94 4.1,74.44 4.1,83.71 4.1,62.35 4.1,-9.29 4.1,-18.89 4.11,-29.2 4.1,-35.4 4.09,-58.79 4.1,-105.47 4.11,-51.04 4.1,-82.04 4.1,-66.3 4.1,-79.02 4.1,-121.39 4.1,-66.01 4.1,-49.56 4.11,-41.19 4.1,-53.54 4.1,21.69 4.1,-21.69 4.1,-33.29 4.1,76.31 4.11,61.8 4.1,-20.25 4.1,-62.88 4.1,52.62 4.1,40.49 h 4.1 l 4.1,104.62 4.11,87.36 4.1,-16.92 4.1,-70.44 4.1,53.24 4.1,34.12 4.1,-51.57 h 4.1 l 4.11,34.65 4.1,-8.56 4.09,25.48 4.1,16.67 4.11,-86 4.1,-64.4 4.1,-9.51 4.1,-9.58 h 4.1 4.1 4.1 4.11 l 4.1,37.86 4.1,-18.77 4.1,-28.76 4.1,9.67 4.1,28.52 4.11,-18.94 4.1,18.94 4.1,46 h 4.1 l 4.1,-46 4.1,-18.94 h 4.1 l 4.11,9.51 4.1,46.37 4.09,53.24 4.1,-80.84 4.11,-37.86 4.1,65.46 4.1,-18.32 4.1,-47.14 h 4.1 l 4.1,9.58 4.1,-9.58 4.11,-39.16 4.1,-82.4 4.1,-171.14 4.1,-182.95 4.1,-194.47 4.1,-261.06 4.11,-266.28 4.1,-186.78 4.1,-207.814 4.1,-112.941 4.1,-58.957 h 4.1 l 4.1,87.8 4.11,216.632 4.1,99.7 4.09,94.57 4.11,89.81 4.1,64.46 4.1,41.66 4.1,119.1 4.1,128.76 4.1,167.26 4.1,192.47 4.1,169.03 4.11,202.71 4.1,164.51 4.1,143.46 4.1,90.71 4.1,109.42 4.1,56.47 4.11,35.82 4.1,51.2 4.1,21.84 4.1,-21.84 4.1,-33.8 4.1,-23.27 4.1,-54.63 4.11,-38.28 4.1,-88.57 4.1,-66.3 4.1,-62.74 4.1,-110.52 4.1,-73.91 4.1,-19.25 4.11,-19.57 4.1,-113.83 4.09,-55.48 4.1,87.61 4.11,31.29 4.1,-74.31 4.1,-11 4.1,11 4.1,43.02 4.1,71.78 4.1,95.5 4.11,27.15 4.1,17.76 4.1,17.45 4.1,8.64 4.1,-34.94 4.1,-82.82 4.11,-89.23 4.1,-52.62 4.09,-185.08 4.11,-274.85 4.1,-247.03 4.1,-250.8 4.1,-245.67 4.11,-229.104 4.1,-140.191 4.09,-119.676 4.1,30.582 4.11,30.137 4.1,116.234 4.1,162.418 4.1,125.48 4.1,162.36 4.1,65.26 4.1,42.17 4.11,139.81 4.1,146.33 4.1,117.68 4.1,153.48 4.1,240.03 4.1,181.76 4.11,120.52 4.1,176.32 4.1,158.31 4.1,86.74 4.1,55.73 4.1,41.12 4.1,11.41 4.11,22.39 4.1,-11.12 4.09,-28.44 4.11,-41.39 4.1,-69.03 4.1,-53.55 4.1,-35.02 4.1,-129.04 4.11,-213.42 4.09,-202.03 4.1,-199.37 4.11,-217.65 4.1,-236.91 4.1,-300.07 4.1,-284.08 4.1,-216.632 4.1,-87.8 4.11,-60.719 h 4.1 l 4.1,119.676 4.1,112.941 4.1,106.754 4.1,101.06 4.1,164.47 4.11,129.74 h 4.1 l 4.09,-42.17 4.11,-21.49 h 4.1 l 4.1,-43.77 4.1,-44.91 4.1,-93.33 h 4.1 l 4.1,-73.3 4.1,-25.09 4.11,-77.347 4.1,26.137 4.1,25.78 h 4.1 l 4.1,-25.78 h 4.1 l 4.1,125.48 4.11,-24.42 4.1,-49.85 4.1,49.85 4.1,118.99 4.1,45.48 4.1,-68.66 4.11,23.18 h 4.1 l 4.1,-46.66 4.1,-72.33 4.1,-75.28 4.1,50.52 h 4.1 l 4.11,-25.09 4.1,74.27 4.09,24.12 h 4.1 4.11 4.1 4.1 4.1 l 4.1,-24.12 4.1,24.12 h 4.1 l 4.11,-73.3 4.1,49.18 4.1,24.12 4.1,-24.12 4.1,24.12 h 4.1 4.11 4.1 l 4.1,-48.54 4.1,-24.76 4.1,49.18 4.1,-74.27 4.1,49.85 4.11,48.54 4.1,70.45 4.09,45.48 4.1,66.08 4.11,-66.08 4.1,-22.6 4.1,44.91 4.11,86.48 4.09,41.66 4.1,175.56 4.1,158.22 4.11,158.44 4.1,156.29 4.1,266.85 4.1,289.86 4.1,158.21 4.1,97.77 4.11,112.65 4.1,94.94 4.1,71.05 4.1,33.36 4.1,-23.69 4.1,-4.83 4.1,-19.57 4.11,24.4 4.1,-64.99 4.09,-104.8 4.11,-60.5 4.1,-78.17 4.1,-161.67 4.1,-200.48 4.11,-174.54 4.09,-255.85 4.1,-281.67 4.1,-286.5 4.11,-322.93 4.1,-252.894 4.1,-140.191 4.1,-89.094 h 4.1 l 4.1,30.137 4.1,252.515 4.11,151.617 4.1,94.57 4.1,89.81 4.1,126.57 4.1,40.17 4.1,39.22 4.11,94.11 4.1,139.83 4.1,97.08 4.1,162.81 4.1,230.9 4.1,79.79 4.1,125.8 4.11,241.22 4.1,106.63 4.09,96.4 4.1,111.15 4.11,34.24 4.1,38.34 4.1,46.92 4.1,-5.08 4.1,-36.5 4.1,-10.72 4.1,-27.38 4.11,-69.38 4.1,-24.35 4.1,-132.18 4.1,-246.66 4.1,-183.91 4.1,-121.02 4.11,-212.88 4.1,-369.57 4.1,-286.14 4.1,-221.88 4.1,-280.144 4.1,-232.617 4.1,-62.559 h 4.11 l 4.1,123.278 4.09,199.148 4.1,180.564 4.11,48.54 4.1,115.93 4.1,108.79 4.1,41.66 4.1,20.45 4.1,79.39 4.1,148.02 4.11,151.34 4.1,137.39 4.1,177.51 4.1,212.15 4.1,162.16 4.1,150.4 4.11,117.26 4.1,98.46 4.1,64.69 4.1,12.43 4.1,36.29 4.1,29.18 h 4.1 l 4.11,-35.13 4.1,-18.09 4.09,-62.96 4.11,-33.12 4.1,-48.35 4.1,-128.09 4.1,-221.47 4.11,-156.64 4.1,-166.43 4.09,-264.97 4.1,-286.31 4.11,-238.44 4.1,-276.8 4.1,-238.718 4.1,-176.953 4.1,30.582 h 4.1 l 4.1,89.094 4.11,193.558 4.1,127.197 4.1,72.33 4.1,46.66 4.1,89.81 4.1,85.41 4.11,61.36 4.1,78.45 4.1,146.33 4.1,117.68 4.1,138.85 4.1,192.14 4.1,167.97 4.11,148.09 4.1,183.55 4.09,127.47 4.1,99.87 4.11,108.92 4.1,80.95 4.1,-45.36 4.1,-29.56 4.1,35.36 4.1,-5.8 4.1,-66.34 4.11,-31.79 4.1,-53.19 4.1,-93.06 4.1,-69.8 4.1,-92.06 4.1,-110 4.11,-29.24 h 4.1 l 4.1,-19.9 4.1,-51.28 4.1,10.43 4.1,-10.43 4.1,-42.65 4.11,-44.18 4.1,65.69 4.09,62.33 4.1,-41.19 h 4.11 l 4.1,100.42 4.1,9.58 4.1,-9.58 4.1,127.34 4.1,17.05 4.1,-125.3 4.11,99.61 4.1,25.69 4.1,-8.49 4.1,41.83 4.1,16.28 4.1,-16.28 4.11,8.17 h 4.1 l 4.1,-16.41 4.1,16.41 4.1,-58.56 4.1,-108.25 4.1,-9.51 4.11,28.28 4.1,-28.28 h 4.1 4.1 4.1 4.1 4.1 l 4.11,-28.99 4.1,66.55 4.09,18.32 4.1,-55.88 4.11,-28.99 4.1,28.99 4.1,28.28 4.1,-18.77 4.1,9.43 4.1,90.18 4.1,17.2 4.11,-34.65 4.1,-8.85 4.1,-45.26 4.1,-76.38 h 4.1 l 4.1,19.57 4.11,9.67 4.1,9.58 4.1,9.51 4.1,9.43 4.1,-47.93 4.1,9.74 4.1,47.53 4.11,36.66 4.1,35.48 4.09,17.34 4.1,-34.94 h 4.11 l 4.1,-54.54 4.1,-57.27 4.1,-9.83 4.1,29.24 4.1,-59.23 4.1,10.09 4.11,39.47 4.1,9.67 4.1,-59.23 4.1,-41.19 4.1,-10.52 4.1,-54.02 4.11,-115.59 4.1,-113.64 4.1,-138.54 4.1,-186.19 4.1,-270.06 4.1,-230.79 4.1,-291.667 4.11,-164.715 4.1,-58.101 4.09,-29.699 4.11,29.699 4.1,114.562 4.1,81.75 4.1,78.421 4.1,147.61 4.1,114.45 4.1,43.77 4.1,21.49 4.11,181.98 4.1,146.33 4.1,101.41 4.1,184.24 4.1,213.27 4.1,183.41 4.11,240.26 4.1,138.05 4.1,73.4 4.1,94.41 4.1,103.24 4.1,11.41 h 4.1 l 4.11,33.38 4.1,-5.48 4.1,-16.63 4.1,-40.08 4.1,-54.27 4.1,-91.21 4.1,-100.59 4.11,-103.14 4.1,-114.05 4.09,-168.7 4.1,-246.52 4.11,-239.37 4.1,-267.92 4.1,-300.07 4.1,-335.997 4.1,-136.281 4.1,-176.953 4.1,-62.559 4.11,123.278 4.1,116.234 4.1,55.664 4.1,132.534 4.1,147.61 4.1,114.45 4.11,107.43 4.1,101.05 4.1,57.8 4.1,18.81 4.1,-96.33 4.1,-123.5 h 4.1 l 4.11,-87.57 4.1,-164.47 4.09,-49.85 h 4.11 l 4.1,-25.43 4.1,-51.917 4.1,26.137 4.1,125.48 h 4.1 l 4.1,24.12 4.1,70.45 4.11,22.88 4.1,88.68 4.1,-43.77 4.1,-22.31 4.1,66.08 4.1,84.37 4.11,60.62 4.1,256.35 4.1,219.62 4.1,227.76 4.1,172.7 4.1,141.85 4.1,231.84 4.11,170.2 4.1,62.96 4.09,53.22 4.1,82.19 4.11,84.5 4.1,27.87 4.1,-51.84 h 4.1 l 4.1,-29.73 4.1,-130.39 4.1,-73.09 4.11,-25.69 4.1,-110.19 4.1,-254.29 4.1,-212.1 4.1,-152.39 4.1,-305.52 4.11,-289.5 4.1,-263.07 4.1,-284.08 4.1,-188.198 4.1,-86.535 h 4.1 4.1 l 4.11,58.101 4.1,164.715 4.09,151.617 4.11,94.57 4.1,133.05 4.1,62.88 4.1,80.34 4.1,57.8 4.1,73.99 4.1,138.27 4.1,64.72 4.11,178.55 4.1,145.8 4.1,131.3 4.1,179.14 4.1,163.8 4.1,104.72 4.1,129.39 4.11,102.15 4.1,29.75 4.1,67.64 4.1,52.62 4.1,-25.91 4.1,5.24 4.11,-15.83 4.1,-49.3 4.1,-34.46 4.1,-60.5 4.1,-141.21 4.1,-198.69 4.1,-189.65 4.11,-200.9 4.1,-209.15 4.09,-180.42 4.11,-318.86 4.1,-346.72 4.1,-256.354 4.1,-202.035 4.1,-61.625 4.1,31.043 4.1,30.582 4.1,117.937 4.11,138.211 4.1,153.701 4.1,118.99 4.1,45.48 4.1,129.74 4.1,20.71 4.11,-62.88 4.1,-21.49 h 4.1 4.1 l 4.1,-134.74 4.1,-47.27 h 4.1 4.11 l 4.1,-24.12 4.09,-125.48 4.11,-26.137 4.1,26.137 4.1,25.78 4.1,-51.917 4.11,51.917 4.09,99.7 4.1,-24.42 4.1,24.42 4.11,71.39 4.1,46.06 4.1,-69.54 4.1,-23.79 4.1,70.45 4.1,-23.18 4.11,-95.81 4.1,-49.85 4.1,74.27 4.1,24.12 h 4.1 l 4.1,-24.12 4.1,71.39 4.11,23.18 4.1,-46.66 4.1,46.66 4.1,67.79 4.1,-44.91 h 4.1 l 4.1,66.93 4.11,21.75 h 4.09 l 4.1,104.82 4.11,173.5 4.1,123.02 4.1,175.25 4.1,209.02 4.1,180.83 4.1,261.77 4.1,212.23 4.1,105.13 4.11,106.74 4.1,68.49 4.1,88.68 4.1,48.09 h 4.1 l 4.1,-28.52 4.11,-34.57 4.1,34.57 4.1,-44.7 4.1,-126.13 4.1,-112.65 4.1,-83.19 4.1,-59.58 4.11,-79.62 4.1,-131.63 4.09,-87 4.1,-20.25 4.11,-62.88 4.1,-21.69 4.1,32.4 h 4.1 l 4.1,10.62 4.1,-10.62 4.1,52.17 4.11,30.23 4.1,-20.07 4.1,59.23 4.1,56.34 4.1,44.91 4.1,68.24 4.11,32.57 4.1,-92.06 4.1,-53.66 4.1,-56.34 4.1,-132.27 4.1,-197.58 4.1,-247.25 4.11,-244.36 4.1,-207.21 4.09,-259.76 4.11,-276.374 4.1,-169.449 h 4.1 4.1 4.1 l 4.1,142.199 4.1,106.754 4.1,125.48 4.11,47.91 4.1,114.45 4.1,43.77 4.1,164.71 4.1,219.65 4.1,146.46 4.11,104.63 4.1,261.66 4.1,197.35 4.1,59.23 4.1,127.34 4.1,181.35 4.1,122.26 4.11,67.67 4.1,90.2 4.09,41.84 4.11,-36.5 4.1,-21.57 4.1,16.23" /></g></g></svg>