<?xml version="1.0" encoding="UTF-8" standalone="no"?>
<svg
   xmlns:dc="http://purl.org/dc/elements/1.1/"
   xmlns:cc="http://creativecommons.org/ns#"
   xmlns:rdf="http://www.w3.org/1999/02/22-rdf-syntax-ns#"
   xmlns:svg="http://www.w3.org/2000/svg"
   xmlns="http://www.w3.org/2000/svg"
   viewBox="0 0 1200 450.66666"
   height="450.66666"
   width="1200"
   xml:space="preserve"
   id="svg2"
   version="1.1"><metadata
     id="metadata8"><rdf:RDF><cc:Work
         rdf:about=""><dc:format>image/svg+xml</dc:format><dc:type
           rdf:resource="http://purl.org/dc/dcmitype/StillImage" /></cc:Work></rdf:RDF></metadata><defs
     id="defs6"><clipPath
       id="clipPath20"
       clipPathUnits="userSpaceOnUse"><path
         id="path18"
         d="M 0,3375 H 9000 V 0 H 0 Z" /></clipPath></defs><g
     transform="matrix(1.3333333,0,0,-1.3333333,0,450.66667)"
     id="g10"><g
       transform="scale(0.1)"
       id="g12"><g
         id="g14"><g
           clip-path="url(#clipPath20)"
           id="g16"><path
             id="path22"
             style="fill:#ffffff;fill-opacity:1;fill-rule:nonzero;stroke:none"
             d="M 0,0 H 9000 V 3375 H 0 Z" /></g></g><path
         id="path24"
         style="fill:#ffffff;fill-opacity:1;fill-rule:nonzero;stroke:none"
         d="M 0,0 H 9000 V 3375 H 0 Z" /><path
         id="path26"
         style="fill:#ffffff;fill-opacity:1;fill-rule:nonzero;stroke:none"
         d="M 720,540 H 8820 V 3007.5 H 720 Z" /><path
         id="path28"
         style="fill:none;stroke:#262626;stroke-width:5.00250006;stroke-linecap:square;stroke-linejoin:round;stroke-miterlimit:10;stroke-dasharray:none;stroke-opacity:1"
         d="M 720,540 H 8820" /><path
         id="path30"
         style="fill:none;stroke:#262626;stroke-width:5.00250006;stroke-linecap:square;stroke-linejoin:round;stroke-miterlimit:10;stroke-dasharray:none;stroke-opacity:1"
         d="M 720,3007.5 H 8820" /><path
         id="path32"
         style="fill:none;stroke:#262626;stroke-width:5.00250006;stroke-linecap:square;stroke-linejoin:round;stroke-miterlimit:10;stroke-dasharray:none;stroke-opacity:1"
         d="m 720,540 v 81" /><path
         id="path34"
         style="fill:none;stroke:#262626;stroke-width:5.00250006;stroke-linecap:square;stroke-linejoin:round;stroke-miterlimit:10;stroke-dasharray:none;stroke-opacity:1"
         d="m 1540.25,540 v 81" /><path
         id="path36"
         style="fill:none;stroke:#262626;stroke-width:5.00250006;stroke-linecap:square;stroke-linejoin:round;stroke-miterlimit:10;stroke-dasharray:none;stroke-opacity:1"
         d="m 2360.5,540 v 81" /><path
         id="path38"
         style="fill:none;stroke:#262626;stroke-width:5.00250006;stroke-linecap:square;stroke-linejoin:round;stroke-miterlimit:10;stroke-dasharray:none;stroke-opacity:1"
         d="m 3180.76,540 v 81" /><path
         id="path40"
         style="fill:none;stroke:#262626;stroke-width:5.00250006;stroke-linecap:square;stroke-linejoin:round;stroke-miterlimit:10;stroke-dasharray:none;stroke-opacity:1"
         d="m 4001.01,540 v 81" /><path
         id="path42"
         style="fill:none;stroke:#262626;stroke-width:5.00250006;stroke-linecap:square;stroke-linejoin:round;stroke-miterlimit:10;stroke-dasharray:none;stroke-opacity:1"
         d="m 4821.26,540 v 81" /><path
         id="path44"
         style="fill:none;stroke:#262626;stroke-width:5.00250006;stroke-linecap:square;stroke-linejoin:round;stroke-miterlimit:10;stroke-dasharray:none;stroke-opacity:1"
         d="m 5641.52,540 v 81" /><path
         id="path46"
         style="fill:none;stroke:#262626;stroke-width:5.00250006;stroke-linecap:square;stroke-linejoin:round;stroke-miterlimit:10;stroke-dasharray:none;stroke-opacity:1"
         d="m 6461.77,540 v 81" /><path
         id="path48"
         style="fill:none;stroke:#262626;stroke-width:5.00250006;stroke-linecap:square;stroke-linejoin:round;stroke-miterlimit:10;stroke-dasharray:none;stroke-opacity:1"
         d="m 7282.03,540 v 81" /><path
         id="path50"
         style="fill:none;stroke:#262626;stroke-width:5.00250006;stroke-linecap:square;stroke-linejoin:round;stroke-miterlimit:10;stroke-dasharray:none;stroke-opacity:1"
         d="m 8102.28,540 v 81" /><path
         id="path52"
         style="fill:none;stroke:#262626;stroke-width:5.00250006;stroke-linecap:square;stroke-linejoin:round;stroke-miterlimit:10;stroke-dasharray:none;stroke-opacity:1"
         d="m 720,3007.5 v -81" /><path
         id="path54"
         style="fill:none;stroke:#262626;stroke-width:5.00250006;stroke-linecap:square;stroke-linejoin:round;stroke-miterlimit:10;stroke-dasharray:none;stroke-opacity:1"
         d="m 1540.25,3007.5 v -81" /><path
         id="path56"
         style="fill:none;stroke:#262626;stroke-width:5.00250006;stroke-linecap:square;stroke-linejoin:round;stroke-miterlimit:10;stroke-dasharray:none;stroke-opacity:1"
         d="m 2360.5,3007.5 v -81" /><path
         id="path58"
         style="fill:none;stroke:#262626;stroke-width:5.00250006;stroke-linecap:square;stroke-linejoin:round;stroke-miterlimit:10;stroke-dasharray:none;stroke-opacity:1"
         d="m 3180.76,3007.5 v -81" /><path
         id="path60"
         style="fill:none;stroke:#262626;stroke-width:5.00250006;stroke-linecap:square;stroke-linejoin:round;stroke-miterlimit:10;stroke-dasharray:none;stroke-opacity:1"
         d="m 4001.01,3007.5 v -81" /><path
         id="path62"
         style="fill:none;stroke:#262626;stroke-width:5.00250006;stroke-linecap:square;stroke-linejoin:round;stroke-miterlimit:10;stroke-dasharray:none;stroke-opacity:1"
         d="m 4821.26,3007.5 v -81" /><path
         id="path64"
         style="fill:none;stroke:#262626;stroke-width:5.00250006;stroke-linecap:square;stroke-linejoin:round;stroke-miterlimit:10;stroke-dasharray:none;stroke-opacity:1"
         d="m 5641.52,3007.5 v -81" /><path
         id="path66"
         style="fill:none;stroke:#262626;stroke-width:5.00250006;stroke-linecap:square;stroke-linejoin:round;stroke-miterlimit:10;stroke-dasharray:none;stroke-opacity:1"
         d="m 6461.77,3007.5 v -81" /><path
         id="path68"
         style="fill:none;stroke:#262626;stroke-width:5.00250006;stroke-linecap:square;stroke-linejoin:round;stroke-miterlimit:10;stroke-dasharray:none;stroke-opacity:1"
         d="m 7282.03,3007.5 v -81" /><path
         id="path70"
         style="fill:none;stroke:#262626;stroke-width:5.00250006;stroke-linecap:square;stroke-linejoin:round;stroke-miterlimit:10;stroke-dasharray:none;stroke-opacity:1"
         d="m 8102.28,3007.5 v -81" /><g
         transform="scale(10)"
         id="g72"><text
           id="text76"
           style="font-variant:normal;font-weight:normal;font-size:20.00020027px;font-family:Helvetica;-inkscape-font-specification:Helvetica;writing-mode:lr-tb;fill:#262626;fill-opacity:1;fill-rule:nonzero;stroke:none"
           transform="matrix(1,0,0,-1,66,27)"><tspan
             id="tspan74"
             y="0"
             x="0 76.400162 87.520279 158.42538 169.5455 240.45021 251.57031 322.47543 333.59555 404.50064 415.62076 486.52588 497.64597 568.55109 579.6712 650.57629 661.69641 732.60114 743.72125">0102030405060708090</tspan></text>
<text
           id="text80"
           style="font-variant:normal;font-weight:normal;font-size:21.99970055px;font-family:Helvetica;-inkscape-font-specification:Helvetica;writing-mode:lr-tb;fill:#262626;fill-opacity:1;fill-rule:nonzero;stroke:none"
           transform="matrix(1,0,0,-1,427.125,-1)"><tspan
             id="tspan78"
             y="0"
             x="0 13.441816 25.673651 43.999401 56.231232 68.463066 74.578979 81.904884 92.904732">Tempo (s)</tspan></text>
</g><path
         id="path82"
         style="fill:none;stroke:#262626;stroke-width:5.00250006;stroke-linecap:square;stroke-linejoin:round;stroke-miterlimit:10;stroke-dasharray:none;stroke-opacity:1"
         d="M 720,540 V 3007.5" /><path
         id="path84"
         style="fill:none;stroke:#262626;stroke-width:5.00250006;stroke-linecap:square;stroke-linejoin:round;stroke-miterlimit:10;stroke-dasharray:none;stroke-opacity:1"
         d="M 8820,540 V 3007.5" /><path
         id="path86"
         style="fill:none;stroke:#262626;stroke-width:5.00250006;stroke-linecap:square;stroke-linejoin:round;stroke-miterlimit:10;stroke-dasharray:none;stroke-opacity:1"
         d="m 720,757.656 h 81" /><path
         id="path88"
         style="fill:none;stroke:#262626;stroke-width:5.00250006;stroke-linecap:square;stroke-linejoin:round;stroke-miterlimit:10;stroke-dasharray:none;stroke-opacity:1"
         d="m 720,1663.64 h 81" /><path
         id="path90"
         style="fill:none;stroke:#262626;stroke-width:5.00250006;stroke-linecap:square;stroke-linejoin:round;stroke-miterlimit:10;stroke-dasharray:none;stroke-opacity:1"
         d="m 720,2569.62 h 81" /><path
         id="path92"
         style="fill:none;stroke:#262626;stroke-width:5.00250006;stroke-linecap:square;stroke-linejoin:round;stroke-miterlimit:10;stroke-dasharray:none;stroke-opacity:1"
         d="m 8820,757.656 h -81" /><path
         id="path94"
         style="fill:none;stroke:#262626;stroke-width:5.00250006;stroke-linecap:square;stroke-linejoin:round;stroke-miterlimit:10;stroke-dasharray:none;stroke-opacity:1"
         d="m 8820,1663.64 h -81" /><path
         id="path96"
         style="fill:none;stroke:#262626;stroke-width:5.00250006;stroke-linecap:square;stroke-linejoin:round;stroke-miterlimit:10;stroke-dasharray:none;stroke-opacity:1"
         d="m 8820,2569.62 h -81" /><g
         transform="scale(10)"
         id="g98"><text
           id="text106"
           style="font-variant:normal;font-weight:normal;font-size:20.00020027px;font-family:Helvetica;-inkscape-font-specification:Helvetica;writing-mode:lr-tb;fill:#262626;fill-opacity:1;fill-rule:nonzero;stroke:none"
           transform="matrix(1,0,0,-1,42.75,67.5156)"><tspan
             id="tspan100"
             y="0"
             x="0 11.120111">25</tspan><tspan
             id="tspan102"
             y="-90.598"
             x="0 11.120111">30</tspan><tspan
             id="tspan104"
             y="-181.196"
             x="0 11.120111">35</tspan></text>
<text
           id="text110"
           style="font-variant:normal;font-weight:normal;font-size:21.99970055px;font-family:Helvetica;-inkscape-font-specification:Helvetica;writing-mode:lr-tb;fill:#262626;fill-opacity:1;fill-rule:nonzero;stroke:none"
           transform="matrix(0,1,1,0,34.5,124.125)"><tspan
             id="tspan108"
             y="0"
             x="0 14.6738 19.557734 25.673651 37.905483 45.231384 57.463215 63.579132 70.905029 81.904884 100.23064">Altura (cm)</tspan></text>
</g><path
         id="path112"
         style="fill:#000000;fill-opacity:1;fill-rule:nonzero;stroke:none"
         d="m 2950.35,3127.95 v 7.62 c 14.92,0 22.38,2.31 22.38,6.91 v 119.53 c 0,4.61 -7.46,6.92 -22.38,6.92 v 7.62 h 68.2 c 8.21,0 16.78,-1.47 25.73,-4.4 8.94,-2.93 16.42,-7.4 22.44,-13.42 6.01,-6.02 9.02,-13.2 9.02,-21.56 0,-6.09 -1.81,-11.54 -5.45,-16.35 -3.63,-4.8 -8.3,-8.81 -14,-12.01 -5.7,-3.2 -11.52,-5.51 -17.47,-6.92 6.49,-2.26 12.18,-5.87 17.06,-10.84 4.88,-4.96 7.83,-10.64 8.84,-17.04 l 3.05,-19.34 c 1.41,-8.67 2.89,-15.16 4.45,-19.45 1.57,-4.3 5.01,-6.45 10.32,-6.45 4.53,0 7.91,2.11 10.14,6.33 2.22,4.22 3.33,8.83 3.33,13.83 0,0.47 0.24,0.9 0.71,1.29 0.47,0.39 0.94,0.58 1.41,0.58 h 1.98 c 1.41,0 2.11,-0.98 2.11,-2.93 0,-3.91 -0.76,-7.75 -2.28,-11.54 -1.52,-3.79 -3.77,-6.94 -6.74,-9.44 -2.97,-2.5 -6.44,-3.75 -10.43,-3.75 -10.47,0 -19.47,2.6 -27.01,7.8 -7.54,5.2 -11.31,12.83 -11.31,22.91 v 19.33 c 0,7.27 -2.52,13.48 -7.56,18.64 -5.03,5.16 -11.19,7.73 -18.45,7.73 h -26.14 v -57.07 c 0,-4.6 7.47,-6.91 22.39,-6.91 v -7.62 z m 41.95,77.23 h 23.21 c 12.03,0 21.19,2.42 27.48,7.27 6.29,4.84 9.43,13.08 9.43,24.72 0,11.48 -3.1,19.65 -9.31,24.49 -6.22,4.84 -15.42,7.27 -27.6,7.27 h -12.19 c -2.66,0 -4.71,-0.12 -6.15,-0.36 -1.45,-0.23 -2.62,-0.86 -3.52,-1.87 -0.9,-1.02 -1.35,-2.58 -1.35,-4.69 v -56.83" /><path
         id="path114"
         style="fill:#000000;fill-opacity:1;fill-rule:nonzero;stroke:none"
         d="m 3159.17,3125.49 c -8.83,0 -16.94,2.33 -24.31,6.97 -7.39,4.65 -13.19,10.84 -17.41,18.58 -4.22,7.73 -6.32,15.93 -6.32,24.6 0,8.52 1.91,16.59 5.73,24.2 3.83,7.62 9.21,13.79 16.12,18.52 6.91,4.73 14.63,7.09 23.15,7.09 6.64,0 12.41,-1.11 17.33,-3.34 4.93,-2.23 8.99,-5.33 12.19,-9.31 3.21,-3.99 5.61,-8.66 7.21,-14.01 1.6,-5.35 2.41,-11.27 2.41,-17.75 0,-1.88 -0.75,-2.82 -2.23,-2.82 h -62.93 v -2.34 c 0,-12.03 2.42,-22.36 7.27,-30.99 4.84,-8.64 12.77,-12.96 23.78,-12.96 4.45,0 8.57,0.98 12.36,2.93 3.8,1.96 7.08,4.71 9.85,8.27 2.77,3.55 4.67,7.36 5.68,11.42 0.16,0.47 0.43,0.9 0.83,1.29 0.39,0.39 0.82,0.59 1.28,0.59 h 1.88 c 1.48,0 2.23,-0.94 2.23,-2.82 -2.04,-8.2 -6.45,-14.94 -13.25,-20.21 -6.79,-5.27 -14.41,-7.91 -22.85,-7.91 z m -28.83,58.12 h 49.57 c 0,5.48 -0.76,11 -2.28,16.59 -1.53,5.58 -4.07,10.23 -7.62,13.94 -3.56,3.71 -8.19,5.56 -13.88,5.56 -8.21,0 -14.56,-3.84 -19.05,-11.54 -4.49,-7.69 -6.74,-15.87 -6.74,-24.55" /><path
         id="path116"
         style="fill:#000000;fill-opacity:1;fill-rule:nonzero;stroke:none"
         d="m 3210.07,3127.36 v 35.4 c 0,1.17 0.63,1.75 1.88,1.75 h 2.69 c 0.79,0 1.33,-0.58 1.64,-1.75 4.07,-21.02 13.83,-31.53 29.3,-31.53 6.87,0 12.63,1.57 17.28,4.69 4.66,3.13 6.98,7.93 6.98,14.41 0,4.69 -1.82,8.67 -5.45,11.96 -3.63,3.28 -7.91,5.54 -12.84,6.79 l -14.52,2.81 c -4.93,1.1 -9.38,2.74 -13.36,4.93 -3.99,2.18 -7.25,5.09 -9.79,8.73 -2.54,3.63 -3.81,7.87 -3.81,12.71 0,6.41 1.68,11.64 5.04,15.71 3.36,4.06 7.72,6.99 13.07,8.79 5.35,1.79 11.15,2.69 17.4,2.69 7.42,0 13.91,-1.99 19.45,-5.98 l 6.33,5.39 c 0,0.39 0.35,0.59 1.06,0.59 h 1.52 c 0.47,0 0.88,-0.2 1.23,-0.59 0.35,-0.38 0.53,-0.77 0.53,-1.16 v -28.48 c 0,-1.41 -0.59,-2.11 -1.76,-2.11 h -2.58 c -1.33,0 -1.99,0.7 -1.99,2.11 0,7.57 -2.11,13.65 -6.33,18.22 -4.22,4.57 -10.11,6.86 -17.7,6.86 -6.48,0 -12.11,-1.19 -16.87,-3.58 -4.77,-2.38 -7.15,-6.51 -7.15,-12.36 0,-4.07 1.72,-7.39 5.16,-9.97 3.44,-2.57 7.46,-4.45 12.07,-5.62 l 14.65,-2.7 c 5,-1.16 9.64,-3.1 13.94,-5.79 4.3,-2.7 7.7,-6.1 10.2,-10.2 2.5,-4.1 3.75,-8.73 3.75,-13.88 0,-5.24 -0.9,-9.79 -2.7,-13.66 -1.8,-3.87 -4.31,-7.07 -7.55,-9.61 -3.25,-2.54 -7.06,-4.41 -11.43,-5.63 -4.38,-1.21 -8.99,-1.81 -13.83,-1.81 -9.06,0 -16.79,3.05 -23.2,9.14 l -7.97,-8.56 c 0,-0.39 -0.39,-0.58 -1.17,-0.58 h -1.29 c -1.25,0 -1.88,0.62 -1.88,1.87" /><path
         id="path118"
         style="fill:#000000;fill-opacity:1;fill-rule:nonzero;stroke:none"
         d="m 3295.21,3085.76 v 7.62 c 4.92,0 8.99,0.41 12.19,1.23 3.2,0.82 4.8,2.72 4.8,5.69 v 104.88 c 0,3.98 -1.41,6.46 -4.22,7.44 -2.81,0.97 -7.07,1.46 -12.77,1.46 v 7.62 l 32.23,2.35 v -13.48 c 3.9,4.38 8.49,7.72 13.76,10.02 5.28,2.3 10.92,3.46 16.94,3.46 8.51,0 16.21,-2.33 23.08,-6.98 6.88,-4.65 12.25,-10.74 16.12,-18.28 3.86,-7.54 5.8,-15.49 5.8,-23.84 0,-8.84 -2.15,-17.04 -6.44,-24.62 -4.3,-7.58 -10.14,-13.61 -17.52,-18.1 -7.39,-4.5 -15.54,-6.74 -24.44,-6.74 -10.54,0 -19.45,4.3 -26.72,12.89 v -38.08 c 0,-2.97 1.62,-4.87 4.86,-5.69 3.25,-0.82 7.29,-1.23 12.13,-1.23 v -7.62 z m 32.81,63.29 c 2.58,-5.16 6.14,-9.42 10.67,-12.78 4.53,-3.36 9.49,-5.04 14.88,-5.04 5,0 9.43,1.35 13.3,4.05 3.87,2.69 7.11,6.31 9.72,10.83 2.62,4.53 4.54,9.3 5.75,14.3 1.21,5 1.82,9.84 1.82,14.54 0,5.78 -1.04,12.05 -3.11,18.8 -2.07,6.76 -5.25,12.46 -9.55,17.11 -4.3,4.65 -9.5,6.97 -15.59,6.97 -5.86,0 -11.25,-1.5 -16.17,-4.51 -4.92,-3.01 -8.83,-7.09 -11.72,-12.25 v -52.02" /><path
         id="path120"
         style="fill:#000000;fill-opacity:1;fill-rule:nonzero;stroke:none"
         d="m 3472.29,3125.49 c -8.67,0 -16.74,2.21 -24.2,6.62 -7.46,4.42 -13.34,10.35 -17.63,17.82 -4.3,7.46 -6.45,15.56 -6.45,24.31 0,6.64 1.17,13.05 3.52,19.21 2.34,6.18 5.74,11.69 10.19,16.53 4.46,4.84 9.61,8.63 15.47,11.37 5.86,2.73 12.23,4.1 19.1,4.1 8.91,0 17.03,-2.36 24.38,-7.09 7.35,-4.73 13.15,-11.04 17.4,-18.93 4.26,-7.89 6.39,-16.29 6.39,-25.19 0,-8.67 -2.17,-16.76 -6.5,-24.26 -4.34,-7.5 -10.2,-13.45 -17.58,-17.87 -7.39,-4.41 -15.42,-6.62 -24.09,-6.62 z m 0,6.44 c 11.64,0 19.4,4.2 23.26,12.6 3.87,8.4 5.81,19.13 5.81,32.17 0,7.26 -0.39,13.3 -1.17,18.1 -0.79,4.81 -2.47,9.16 -5.04,13.07 -1.64,2.34 -3.71,4.43 -6.21,6.27 -2.5,1.84 -5.16,3.22 -7.98,4.16 -2.8,0.94 -5.69,1.4 -8.67,1.4 -4.52,0 -8.82,-1.03 -12.89,-3.1 -4.06,-2.07 -7.45,-4.98 -10.19,-8.73 -2.66,-4.14 -4.36,-8.67 -5.1,-13.59 -0.74,-4.92 -1.11,-10.78 -1.11,-17.58 0,-8.13 0.7,-15.43 2.11,-21.91 1.4,-6.49 4.25,-11.92 8.55,-16.29 4.3,-4.38 10.51,-6.57 18.63,-6.57" /><path
         id="path122"
         style="fill:#000000;fill-opacity:1;fill-rule:nonzero;stroke:none"
         d="m 3535.18,3127.36 v 35.4 c 0,1.17 0.63,1.75 1.88,1.75 h 2.7 c 0.78,0 1.32,-0.58 1.63,-1.75 4.07,-21.02 13.84,-31.53 29.31,-31.53 6.87,0 12.63,1.57 17.27,4.69 4.66,3.13 6.98,7.93 6.98,14.41 0,4.69 -1.82,8.67 -5.45,11.96 -3.63,3.28 -7.91,5.54 -12.83,6.79 l -14.53,2.81 c -4.92,1.1 -9.37,2.74 -13.36,4.93 -3.99,2.18 -7.25,5.09 -9.79,8.73 -2.54,3.63 -3.81,7.87 -3.81,12.71 0,6.41 1.68,11.64 5.04,15.71 3.36,4.06 7.72,6.99 13.07,8.79 5.35,1.79 11.16,2.69 17.41,2.69 7.41,0 13.9,-1.99 19.44,-5.98 l 6.33,5.39 c 0,0.39 0.35,0.59 1.06,0.59 h 1.52 c 0.47,0 0.88,-0.2 1.23,-0.59 0.35,-0.38 0.53,-0.77 0.53,-1.16 v -28.48 c 0,-1.41 -0.59,-2.11 -1.76,-2.11 h -2.58 c -1.32,0 -1.99,0.7 -1.99,2.11 0,7.57 -2.1,13.65 -6.32,18.22 -4.23,4.57 -10.12,6.86 -17.71,6.86 -6.48,0 -12.1,-1.19 -16.87,-3.58 -4.76,-2.38 -7.15,-6.51 -7.15,-12.36 0,-4.07 1.72,-7.39 5.16,-9.97 3.44,-2.57 7.46,-4.45 12.07,-5.62 l 14.65,-2.7 c 5,-1.16 9.65,-3.1 13.95,-5.79 4.29,-2.7 7.69,-6.1 10.19,-10.2 2.5,-4.1 3.75,-8.73 3.75,-13.88 0,-5.24 -0.9,-9.79 -2.69,-13.66 -1.8,-3.87 -4.32,-7.07 -7.56,-9.61 -3.25,-2.54 -7.06,-4.41 -11.43,-5.63 -4.38,-1.21 -8.98,-1.81 -13.82,-1.81 -9.07,0 -16.81,3.05 -23.21,9.14 l -7.97,-8.56 c 0,-0.39 -0.39,-0.58 -1.17,-0.58 h -1.29 c -1.25,0 -1.88,0.62 -1.88,1.87" /><path
         id="path124"
         style="fill:#000000;fill-opacity:1;fill-rule:nonzero;stroke:none"
         d="m 3636.84,3154.08 v 60 h -18.04 v 5.62 c 9.53,0 16.52,4.44 20.98,13.31 4.45,8.87 6.67,18.45 6.67,28.77 h 6.21 v -40.08 h 30.71 v -7.62 h -30.71 v -59.53 c 0,-6.01 1.02,-11.28 3.05,-15.82 2.04,-4.53 5.67,-6.8 10.9,-6.8 5,0 8.59,2.39 10.78,7.15 2.19,4.77 3.29,9.93 3.29,15.47 v 12.77 h 6.2 v -13.24 c 0,-4.53 -0.81,-9 -2.45,-13.42 -1.64,-4.41 -4.11,-8.04 -7.39,-10.89 -3.28,-2.86 -7.27,-4.28 -11.95,-4.28 -8.68,0 -15.55,2.6 -20.63,7.79 -5.08,5.2 -7.62,12.13 -7.62,20.8" /><path
         id="path126"
         style="fill:#000000;fill-opacity:1;fill-rule:nonzero;stroke:none"
         d="m 3708.93,3149.28 c 0,8.67 3.39,15.7 10.19,21.09 6.79,5.39 14.96,9.2 24.49,11.43 9.53,2.22 18.6,3.34 27.19,3.34 v 9.02 c 0,4.14 -0.92,8.18 -2.76,12.13 -1.83,3.94 -4.49,7.16 -7.96,9.66 -3.48,2.5 -7.33,3.75 -11.54,3.75 -9.61,0 -16.92,-2.14 -21.92,-6.44 2.74,0 5,-1.05 6.79,-3.16 1.8,-2.11 2.7,-4.53 2.7,-7.27 0,-2.89 -1.01,-5.37 -3.05,-7.44 -2.03,-2.07 -4.45,-3.1 -7.26,-3.1 -2.97,0 -5.47,1.03 -7.5,3.1 -2.03,2.07 -3.05,4.55 -3.05,7.44 0,7.66 3.46,13.35 10.37,17.06 6.92,3.7 14.56,5.56 22.92,5.56 5.93,0 11.87,-1.25 17.81,-3.75 5.93,-2.5 10.79,-6.09 14.58,-10.78 3.79,-4.69 5.69,-10.16 5.69,-16.41 v -48.98 c 0,-2.82 0.6,-5.41 1.81,-7.79 1.21,-2.39 3.07,-3.58 5.57,-3.58 2.43,0 4.22,1.21 5.39,3.64 1.17,2.42 1.76,4.99 1.76,7.73 v 13.94 h 6.33 v -13.94 c 0,-3.21 -0.84,-6.27 -2.52,-9.2 -1.68,-2.93 -3.97,-5.28 -6.86,-7.03 -2.89,-1.76 -5.97,-2.64 -9.25,-2.64 -4.3,0 -7.97,1.64 -11.02,4.92 -3.04,3.28 -4.76,7.19 -5.15,11.72 -2.66,-5.39 -6.61,-9.71 -11.84,-12.95 -5.23,-3.24 -10.86,-4.86 -16.88,-4.86 -5.46,0 -10.87,0.82 -16.23,2.46 -5.35,1.64 -9.82,4.22 -13.42,7.73 -3.59,3.52 -5.38,8.05 -5.38,13.6 z m 17.69,0 c 0,-5.08 1.88,-9.36 5.63,-12.83 3.75,-3.48 8.16,-5.22 13.24,-5.22 4.69,0 8.94,1.18 12.77,3.52 3.83,2.34 6.87,5.52 9.14,9.55 2.27,4.02 3.4,8.26 3.4,12.71 v 22.62 c -6.64,0 -13.4,-1.07 -20.28,-3.22 -6.87,-2.15 -12.57,-5.53 -17.11,-10.14 -4.53,-4.61 -6.79,-10.27 -6.79,-16.99" /><path
         id="path128"
         style="fill:#000000;fill-opacity:1;fill-rule:nonzero;stroke:none"
         d="m 3892.26,3149.28 c 0,8.67 3.4,15.7 10.19,21.09 6.8,5.39 14.96,9.2 24.5,11.43 9.52,2.22 18.59,3.34 27.18,3.34 v 9.02 c 0,4.14 -0.92,8.18 -2.75,12.13 -1.84,3.94 -4.49,7.16 -7.97,9.66 -3.48,2.5 -7.32,3.75 -11.55,3.75 -9.61,0 -16.91,-2.14 -21.91,-6.44 2.73,0 5,-1.05 6.8,-3.16 1.8,-2.11 2.7,-4.53 2.7,-7.27 0,-2.89 -1.02,-5.37 -3.05,-7.44 -2.03,-2.07 -4.45,-3.1 -7.27,-3.1 -2.97,0 -5.47,1.03 -7.5,3.1 -2.03,2.07 -3.04,4.55 -3.04,7.44 0,7.66 3.45,13.35 10.37,17.06 6.91,3.7 14.54,5.56 22.9,5.56 5.94,0 11.88,-1.25 17.82,-3.75 5.94,-2.5 10.8,-6.09 14.59,-10.78 3.79,-4.69 5.68,-10.16 5.68,-16.41 v -48.98 c 0,-2.82 0.61,-5.41 1.82,-7.79 1.21,-2.39 3.07,-3.58 5.57,-3.58 2.42,0 4.21,1.21 5.39,3.64 1.17,2.42 1.75,4.99 1.75,7.73 v 13.94 h 6.34 v -13.94 c 0,-3.21 -0.85,-6.27 -2.53,-9.2 -1.68,-2.93 -3.96,-5.28 -6.85,-7.03 -2.89,-1.76 -5.98,-2.64 -9.26,-2.64 -4.3,0 -7.97,1.64 -11.01,4.92 -3.05,3.28 -4.77,7.19 -5.16,11.72 -2.66,-5.39 -6.6,-9.71 -11.84,-12.95 -5.23,-3.24 -10.86,-4.86 -16.87,-4.86 -5.47,0 -10.88,0.82 -16.23,2.46 -5.35,1.64 -9.82,4.22 -13.42,7.73 -3.6,3.52 -5.39,8.05 -5.39,13.6 z m 17.69,0 c 0,-5.08 1.87,-9.36 5.62,-12.83 3.75,-3.48 8.17,-5.22 13.25,-5.22 4.69,0 8.95,1.18 12.77,3.52 3.83,2.34 6.88,5.52 9.14,9.55 2.27,4.02 3.4,8.26 3.4,12.71 v 22.62 c -6.64,0 -13.4,-1.07 -20.27,-3.22 -6.88,-2.15 -12.58,-5.53 -17.11,-10.14 -4.53,-4.61 -6.8,-10.27 -6.8,-16.99" /><path
         id="path130"
         style="fill:#000000;fill-opacity:1;fill-rule:nonzero;stroke:none"
         d="m 4047.96,3125.49 c -8.67,0 -16.74,2.21 -24.2,6.62 -7.46,4.42 -13.34,10.35 -17.64,17.82 -4.29,7.46 -6.44,15.56 -6.44,24.31 0,6.64 1.17,13.05 3.52,19.21 2.34,6.18 5.74,11.69 10.19,16.53 4.45,4.84 9.61,8.63 15.47,11.37 5.86,2.73 12.23,4.1 19.1,4.1 8.91,0 17.04,-2.36 24.38,-7.09 7.34,-4.73 13.14,-11.04 17.4,-18.93 4.26,-7.89 6.38,-16.29 6.38,-25.19 0,-8.67 -2.17,-16.76 -6.5,-24.26 -4.33,-7.5 -10.19,-13.45 -17.58,-17.87 -7.38,-4.41 -15.41,-6.62 -24.08,-6.62 z m 0,6.44 c 11.65,0 19.4,4.2 23.26,12.6 3.87,8.4 5.81,19.13 5.81,32.17 0,7.26 -0.4,13.3 -1.18,18.1 -0.78,4.81 -2.46,9.16 -5.04,13.07 -1.64,2.34 -3.71,4.43 -6.21,6.27 -2.5,1.84 -5.15,3.22 -7.97,4.16 -2.81,0.94 -5.7,1.4 -8.67,1.4 -4.53,0 -8.83,-1.03 -12.89,-3.1 -4.06,-2.07 -7.46,-4.98 -10.2,-8.73 -2.65,-4.14 -4.35,-8.67 -5.09,-13.59 -0.74,-4.92 -1.12,-10.78 -1.12,-17.58 0,-8.13 0.71,-15.43 2.12,-21.91 1.4,-6.49 4.25,-11.92 8.55,-16.29 4.3,-4.38 10.51,-6.57 18.63,-6.57" /><path
         id="path132"
         style="fill:#000000;fill-opacity:1;fill-rule:nonzero;stroke:none"
         d="m 4184.19,3127.36 v 35.4 c 0,1.17 0.62,1.75 1.87,1.75 h 2.69 c 0.79,0 1.33,-0.58 1.65,-1.75 4.06,-21.02 13.82,-31.53 29.29,-31.53 6.88,0 12.64,1.57 17.29,4.69 4.65,3.13 6.97,7.93 6.97,14.41 0,4.69 -1.81,8.67 -5.45,11.96 -3.63,3.28 -7.91,5.54 -12.83,6.79 l -14.53,2.81 c -4.92,1.1 -9.38,2.74 -13.36,4.93 -3.99,2.18 -7.25,5.09 -9.78,8.73 -2.54,3.63 -3.81,7.87 -3.81,12.71 0,6.41 1.68,11.64 5.04,15.71 3.36,4.06 7.71,6.99 13.06,8.79 5.35,1.79 11.15,2.69 17.4,2.69 7.43,0 13.91,-1.99 19.46,-5.98 l 6.33,5.39 c 0,0.39 0.35,0.59 1.05,0.59 h 1.52 c 0.47,0 0.88,-0.2 1.23,-0.59 0.35,-0.38 0.53,-0.77 0.53,-1.16 v -28.48 c 0,-1.41 -0.58,-2.11 -1.76,-2.11 h -2.57 c -1.33,0 -2,0.7 -2,2.11 0,7.57 -2.11,13.65 -6.33,18.22 -4.21,4.57 -10.11,6.86 -17.69,6.86 -6.48,0 -12.11,-1.19 -16.87,-3.58 -4.77,-2.38 -7.15,-6.51 -7.15,-12.36 0,-4.07 1.72,-7.39 5.15,-9.97 3.44,-2.57 7.46,-4.45 12.07,-5.62 l 14.65,-2.7 c 5,-1.16 9.65,-3.1 13.94,-5.79 4.3,-2.7 7.7,-6.1 10.2,-10.2 2.5,-4.1 3.75,-8.73 3.75,-13.88 0,-5.24 -0.9,-9.79 -2.7,-13.66 -1.79,-3.87 -4.31,-7.07 -7.55,-9.61 -3.25,-2.54 -7.05,-4.41 -11.43,-5.63 -4.37,-1.21 -8.98,-1.81 -13.83,-1.81 -9.06,0 -16.79,3.05 -23.2,9.14 l -7.97,-8.56 c 0,-0.39 -0.39,-0.58 -1.17,-0.58 h -1.29 c -1.25,0 -1.87,0.62 -1.87,1.87" /><path
         id="path134"
         style="fill:#000000;fill-opacity:1;fill-rule:nonzero;stroke:none"
         d="m 4270.38,3127.95 v 7.62 c 5,0 9.08,0.39 12.25,1.17 3.16,0.78 4.74,2.69 4.74,5.74 v 59.41 c 0,5.55 -1.07,8.97 -3.22,10.26 -2.15,1.29 -6.43,1.93 -12.83,1.93 v 7.62 l 31.41,2.35 v -81.57 c 0,-3.05 1.36,-4.96 4.09,-5.74 2.73,-0.78 6.41,-1.17 11.02,-1.17 v -7.62 z m 9.25,133.48 c 0,3.2 1.21,6.02 3.64,8.43 2.42,2.43 5.16,3.64 8.21,3.64 2.1,0 4.11,-0.55 6.02,-1.64 1.92,-1.09 3.41,-2.6 4.46,-4.52 1.06,-1.91 1.58,-3.88 1.58,-5.91 0,-3.13 -1.21,-5.88 -3.63,-8.27 -2.42,-2.38 -5.23,-3.57 -8.43,-3.57 -3.05,0 -5.79,1.19 -8.21,3.57 -2.43,2.39 -3.64,5.14 -3.64,8.27" /><path
         id="path136"
         style="fill:#000000;fill-opacity:1;fill-rule:nonzero;stroke:none"
         d="m 4331.25,3127.95 v 7.62 c 5,0 9.09,0.39 12.25,1.17 3.17,0.78 4.75,2.69 4.75,5.74 v 59.41 c 0,3.91 -0.59,6.72 -1.76,8.44 -1.17,1.72 -2.85,2.78 -5.04,3.17 -2.19,0.39 -5.59,0.58 -10.2,0.58 v 7.62 l 31.53,2.35 v -21.22 c 2.97,6.25 7.3,11.35 13,15.3 5.71,3.94 11.92,5.92 18.64,5.92 10,0 17.54,-2.41 22.61,-7.21 5.08,-4.8 7.62,-12.17 7.62,-22.09 v -52.27 c 0,-3.05 1.58,-4.96 4.75,-5.74 3.17,-0.78 7.25,-1.17 12.25,-1.17 v -7.62 h -49.81 v 7.62 c 4.92,0 8.98,0.39 12.19,1.17 3.2,0.78 4.81,2.69 4.81,5.74 v 51.68 c 0,7.03 -1.04,12.83 -3.11,17.41 -2.07,4.57 -6.27,6.85 -12.6,6.85 -8.44,0 -15.38,-3.36 -20.81,-10.08 -5.42,-6.72 -8.13,-14.38 -8.13,-22.97 v -42.89 c 0,-3.05 1.6,-4.96 4.8,-5.74 3.2,-0.78 7.23,-1.17 12.07,-1.17 v -7.62 h -49.81" /><path
         id="path138"
         style="fill:#000000;fill-opacity:1;fill-rule:nonzero;stroke:none"
         d="m 4455.7,3149.28 c 0,8.67 3.4,15.7 10.2,21.09 6.8,5.39 14.96,9.2 24.49,11.43 9.53,2.22 18.59,3.34 27.19,3.34 v 9.02 c 0,4.14 -0.92,8.18 -2.76,12.13 -1.83,3.94 -4.49,7.16 -7.97,9.66 -3.47,2.5 -7.32,3.75 -11.54,3.75 -9.61,0 -16.91,-2.14 -21.91,-6.44 2.73,0 5,-1.05 6.8,-3.16 1.79,-2.11 2.69,-4.53 2.69,-7.27 0,-2.89 -1.01,-5.37 -3.05,-7.44 -2.02,-2.07 -4.45,-3.1 -7.26,-3.1 -2.97,0 -5.47,1.03 -7.5,3.1 -2.03,2.07 -3.05,4.55 -3.05,7.44 0,7.66 3.46,13.35 10.38,17.06 6.91,3.7 14.54,5.56 22.9,5.56 5.94,0 11.88,-1.25 17.81,-3.75 5.94,-2.5 10.81,-6.09 14.6,-10.78 3.79,-4.69 5.68,-10.16 5.68,-16.41 v -48.98 c 0,-2.82 0.61,-5.41 1.82,-7.79 1.21,-2.39 3.06,-3.58 5.56,-3.58 2.42,0 4.22,1.21 5.4,3.64 1.16,2.42 1.75,4.99 1.75,7.73 v 13.94 h 6.33 v -13.94 c 0,-3.21 -0.84,-6.27 -2.52,-9.2 -1.68,-2.93 -3.97,-5.28 -6.86,-7.03 -2.88,-1.76 -5.97,-2.64 -9.26,-2.64 -4.29,0 -7.96,1.64 -11.01,4.92 -3.05,3.28 -4.77,7.19 -5.16,11.72 -2.65,-5.39 -6.6,-9.71 -11.83,-12.95 -5.24,-3.24 -10.86,-4.86 -16.88,-4.86 -5.47,0 -10.88,0.82 -16.23,2.46 -5.35,1.64 -9.82,4.22 -13.42,7.73 -3.59,3.52 -5.39,8.05 -5.39,13.6 z m 17.7,0 c 0,-5.08 1.88,-9.36 5.63,-12.83 3.75,-3.48 8.16,-5.22 13.24,-5.22 4.68,0 8.94,1.18 12.77,3.52 3.83,2.34 6.87,5.52 9.14,9.55 2.27,4.02 3.4,8.26 3.4,12.71 v 22.62 c -6.64,0 -13.4,-1.07 -20.28,-3.22 -6.87,-2.15 -12.57,-5.53 -17.1,-10.14 -4.53,-4.61 -6.8,-10.27 -6.8,-16.99" /><path
         id="path140"
         style="fill:#000000;fill-opacity:1;fill-rule:nonzero;stroke:none"
         d="m 4563.71,3127.95 v 7.62 c 5,0 9.08,0.39 12.25,1.17 3.16,0.78 4.74,2.69 4.74,5.74 v 114.14 c 0,3.91 -0.58,6.74 -1.76,8.5 -1.17,1.76 -2.85,2.83 -5.03,3.22 -2.19,0.39 -5.59,0.59 -10.2,0.59 v 7.62 l 32.35,2.34 v -136.41 c 0,-3.05 1.58,-4.96 4.74,-5.74 3.16,-0.78 7.21,-1.17 12.13,-1.17 v -7.62 h -49.22" /><path
         id="path142"
         style="fill:#000000;fill-opacity:1;fill-rule:nonzero;stroke:none"
         d="m 4698.74,3127.95 v 7.62 c 14.92,0 22.39,2.31 22.39,6.91 v 119.53 c 0,4.61 -7.47,6.92 -22.39,6.92 v 7.62 h 77.35 c 7.97,0 15.91,-1.64 23.84,-4.93 7.93,-3.28 14.45,-8.03 19.57,-14.23 5.12,-6.21 7.68,-13.46 7.68,-21.75 0,-8.04 -2.58,-15.11 -7.73,-21.21 -5.16,-6.09 -11.66,-10.72 -19.52,-13.88 -7.85,-3.16 -15.8,-4.75 -23.84,-4.75 h -34.81 v -53.32 c 0,-4.6 7.46,-6.91 22.39,-6.91 v -7.62 z m 41.96,74.3 h 29.53 c 7.97,0 14.43,1.15 19.39,3.45 4.96,2.31 8.6,5.88 10.9,10.73 2.31,4.84 3.46,11.25 3.46,19.21 0,11.8 -2.6,20.3 -7.8,25.5 -5.2,5.19 -13.84,7.79 -25.95,7.79 h -18.52 c -2.65,0 -4.71,-0.12 -6.16,-0.36 -1.44,-0.23 -2.61,-0.86 -3.51,-1.87 -0.9,-1.02 -1.34,-2.58 -1.34,-4.69 v -59.76" /><path
         id="path144"
         style="fill:#000000;fill-opacity:1;fill-rule:nonzero;stroke:none"
         d="m 4848.46,3127.95 v 7.62 c 14.93,0 22.39,2.31 22.39,6.91 v 119.53 c 0,4.61 -7.46,6.92 -22.39,6.92 v 7.62 h 68.21 c 8.2,0 16.78,-1.47 25.72,-4.4 8.95,-2.93 16.43,-7.4 22.44,-13.42 6.02,-6.02 9.03,-13.2 9.03,-21.56 0,-6.09 -1.82,-11.54 -5.46,-16.35 -3.63,-4.8 -8.29,-8.81 -14,-12.01 -5.7,-3.2 -11.52,-5.51 -17.46,-6.92 6.49,-2.26 12.17,-5.87 17.06,-10.84 4.88,-4.96 7.82,-10.64 8.84,-17.04 l 3.05,-19.34 c 1.4,-8.67 2.89,-15.16 4.45,-19.45 1.56,-4.3 5,-6.45 10.31,-6.45 4.53,0 7.92,2.11 10.14,6.33 2.23,4.22 3.34,8.83 3.34,13.83 0,0.47 0.23,0.9 0.7,1.29 0.47,0.39 0.94,0.58 1.4,0.58 h 2 c 1.4,0 2.11,-0.98 2.11,-2.93 0,-3.91 -0.76,-7.75 -2.28,-11.54 -1.53,-3.79 -3.77,-6.94 -6.74,-9.44 -2.98,-2.5 -6.45,-3.75 -10.43,-3.75 -10.47,0 -19.48,2.6 -27.01,7.8 -7.54,5.2 -11.31,12.83 -11.31,22.91 v 19.33 c 0,7.27 -2.53,13.48 -7.57,18.64 -5.03,5.16 -11.18,7.73 -18.45,7.73 h -26.13 v -57.07 c 0,-4.6 7.46,-6.91 22.38,-6.91 v -7.62 z m 41.96,77.23 h 23.2 c 12.03,0 21.19,2.42 27.48,7.27 6.29,4.84 9.44,13.08 9.44,24.72 0,11.48 -3.11,19.65 -9.33,24.49 -6.21,4.84 -15.4,7.27 -27.59,7.27 h -12.19 c -2.65,0 -4.7,-0.12 -6.15,-0.36 -1.45,-0.23 -2.62,-0.86 -3.51,-1.87 -0.9,-1.02 -1.35,-2.58 -1.35,-4.69 v -56.83" /><path
         id="path146"
         style="fill:#000000;fill-opacity:1;fill-rule:nonzero;stroke:none"
         d="m 5010.53,3127.95 v 7.62 c 15,0 22.5,2.31 22.5,6.91 v 119.53 c 0,4.61 -7.5,6.92 -22.5,6.92 v 7.62 h 80.03 c 7.35,0 14.77,-1.45 22.27,-4.35 7.5,-2.88 13.71,-7.14 18.64,-12.77 4.92,-5.62 7.38,-12.26 7.38,-19.92 0,-8.83 -3.64,-16.23 -10.9,-22.21 -7.27,-5.97 -15.74,-9.89 -25.43,-11.77 6.33,0 12.81,-1.72 19.45,-5.16 6.64,-3.44 12.09,-8.06 16.35,-13.88 4.26,-5.82 6.38,-11.97 6.38,-18.46 0,-7.97 -2.34,-15 -7.02,-21.1 -4.69,-6.09 -10.81,-10.77 -18.35,-14.06 -7.53,-3.28 -15.09,-4.92 -22.67,-4.92 z m 41.36,14.53 c 0,-3.12 0.88,-5.05 2.64,-5.8 1.76,-0.74 4.55,-1.11 8.38,-1.11 h 27.65 c 5.63,0 10.88,1.48 15.77,4.45 4.88,2.97 8.73,6.95 11.54,11.95 2.81,5 4.22,10.35 4.22,16.06 0,5.47 -1.17,10.84 -3.52,16.11 -2.34,5.27 -5.68,9.61 -10.02,13.01 -4.33,3.4 -9.31,5.1 -14.94,5.1 h -41.72 z m 0,65.51 h 32.58 c 4.38,0 8.5,0.8 12.36,2.4 3.87,1.61 7.35,3.91 10.44,6.91 3.08,3.02 5.46,6.41 7.14,10.2 1.68,3.79 2.52,7.79 2.52,12.01 0,3.83 -0.62,7.47 -1.87,10.9 -1.25,3.44 -3.09,6.59 -5.51,9.43 -2.42,2.86 -5.26,5.08 -8.5,6.69 -3.24,1.6 -6.74,2.4 -10.49,2.4 h -27.65 c -2.58,0 -4.59,-0.12 -6.04,-0.36 -1.44,-0.23 -2.63,-0.86 -3.57,-1.87 -0.94,-1.02 -1.41,-2.58 -1.41,-4.69 v -54.02" /><path
         id="path148"
         style="fill:#000000;fill-opacity:1;fill-rule:nonzero;stroke:none"
         d="m 5171.16,3124.91 v 50.73 c 0,1.1 0.67,1.65 2,1.65 h 2.57 c 0.47,0 0.88,-0.18 1.23,-0.53 0.36,-0.35 0.54,-0.72 0.54,-1.12 0,-14.21 4.39,-25.25 13.18,-33.1 8.78,-7.85 20.33,-11.78 34.63,-11.78 5.07,0 9.74,1.47 14,4.4 4.26,2.93 7.56,6.73 9.9,11.42 2.34,4.69 3.52,9.58 3.52,14.65 0,4.38 -0.88,8.64 -2.64,12.78 -1.76,4.14 -4.3,7.73 -7.61,10.78 -3.32,3.05 -7.1,5.08 -11.32,6.09 l -28.24,6.8 c -9.29,2.5 -16.91,7.59 -22.85,15.29 -5.94,7.69 -8.91,16.31 -8.91,25.84 0,7.5 1.92,14.55 5.75,21.15 3.82,6.61 8.98,11.82 15.47,15.65 6.48,3.82 13.47,5.74 20.97,5.74 14.53,0 26.06,-4.92 34.57,-14.77 l 9.03,14.06 c 0.39,0.47 0.86,0.71 1.4,0.71 h 1.53 c 0.39,0 0.78,-0.18 1.16,-0.53 0.4,-0.35 0.6,-0.8 0.6,-1.35 v -50.39 c 0,-1.33 -0.59,-1.99 -1.76,-1.99 h -2.59 c -1.32,0 -1.98,0.66 -1.98,1.99 0,3.67 -0.63,7.7 -1.88,12.08 -1.25,4.37 -2.97,8.59 -5.16,12.65 -2.18,4.06 -4.57,7.35 -7.14,9.85 -6.95,7.11 -16.21,10.66 -27.78,10.66 -4.92,0 -9.47,-1.27 -13.65,-3.81 -4.18,-2.54 -7.52,-5.96 -10.02,-10.25 -2.5,-4.3 -3.75,-8.83 -3.75,-13.6 0,-6.25 1.93,-11.89 5.8,-16.93 3.87,-5.04 8.93,-8.38 15.18,-10.03 l 28.24,-6.9 c 4.69,-1.1 9.1,-3.13 13.24,-6.1 4.14,-2.97 7.58,-6.39 10.31,-10.25 2.74,-3.87 4.89,-8.21 6.45,-13.01 1.56,-4.8 2.35,-9.74 2.35,-14.83 0,-7.81 -1.8,-15.21 -5.4,-22.2 -3.59,-6.99 -8.67,-12.62 -15.23,-16.88 -6.57,-4.26 -13.75,-6.39 -21.56,-6.39 -4.77,0 -9.67,0.53 -14.71,1.59 -5.04,1.05 -9.69,2.69 -13.95,4.92 -4.26,2.23 -8.1,5.06 -11.54,8.49 l -9.14,-14.29 c -0.39,-0.47 -0.93,-0.71 -1.64,-0.71 h -1.17 c -1.33,0 -2,0.59 -2,1.77" /><path
         id="path150"
         style="fill:#000000;fill-opacity:1;fill-rule:nonzero;stroke:none"
         d="m 5407.62,3125.49 c -8.59,0 -16.42,2.33 -23.5,6.97 -7.07,4.65 -12.56,10.76 -16.46,18.34 -3.91,7.58 -5.86,15.63 -5.86,24.15 0,8.75 2.13,16.89 6.38,24.43 4.26,7.53 10.09,13.53 17.47,17.98 7.38,4.46 15.48,6.69 24.31,6.69 5.31,0 10.33,-1.12 15.06,-3.35 4.73,-2.22 8.85,-5.33 12.36,-9.31 v 45.23 c 0,3.91 -0.58,6.74 -1.75,8.5 -1.18,1.76 -2.84,2.83 -4.98,3.22 -2.15,0.39 -5.53,0.59 -10.14,0.59 v 7.62 l 32.11,2.34 v -131.13 c 0,-3.83 0.58,-6.62 1.76,-8.38 1.17,-1.76 2.85,-2.84 5.04,-3.22 2.19,-0.39 5.54,-0.59 10.07,-0.59 v -7.62 l -32.81,-2.46 v 13.71 c -3.75,-4.29 -8.2,-7.66 -13.36,-10.08 -5.15,-2.42 -10.39,-3.63 -15.7,-3.63 z m -22.15,21.33 c 2.42,-4.69 5.71,-8.46 9.85,-11.31 4.14,-2.85 8.67,-4.28 13.59,-4.28 6.01,0 11.54,1.74 16.58,5.22 5.04,3.47 8.77,7.98 11.19,13.53 v 52.15 c -1.64,3.13 -3.75,5.96 -6.32,8.5 -2.58,2.53 -5.5,4.47 -8.74,5.8 -3.24,1.33 -6.66,1.99 -10.25,1.99 -7.58,0 -13.67,-2.15 -18.28,-6.45 -4.61,-4.29 -7.83,-9.76 -9.67,-16.4 -1.83,-6.64 -2.75,-13.59 -2.75,-20.87 0,-5.85 0.29,-10.93 0.88,-15.23 0.58,-4.29 1.89,-8.51 3.92,-12.65" /><path
         id="path152"
         style="fill:#000000;fill-opacity:1;fill-rule:nonzero;stroke:none"
         d="m 5531.13,3125.49 c -8.67,0 -16.74,2.21 -24.2,6.62 -7.46,4.42 -13.34,10.35 -17.64,17.82 -4.29,7.46 -6.44,15.56 -6.44,24.31 0,6.64 1.17,13.05 3.52,19.21 2.34,6.18 5.74,11.69 10.19,16.53 4.46,4.84 9.61,8.63 15.47,11.37 5.86,2.73 12.22,4.1 19.1,4.1 8.91,0 17.03,-2.36 24.37,-7.09 7.35,-4.73 13.15,-11.04 17.41,-18.93 4.25,-7.89 6.38,-16.29 6.38,-25.19 0,-8.67 -2.16,-16.76 -6.5,-24.26 -4.34,-7.5 -10.2,-13.45 -17.58,-17.87 -7.38,-4.41 -15.41,-6.62 -24.08,-6.62 z m 0,6.44 c 11.64,0 19.4,4.2 23.26,12.6 3.87,8.4 5.8,19.13 5.8,32.17 0,7.26 -0.39,13.3 -1.17,18.1 -0.78,4.81 -2.46,9.16 -5.04,13.07 -1.64,2.34 -3.71,4.43 -6.21,6.27 -2.5,1.84 -5.16,3.22 -7.97,4.16 -2.81,0.94 -5.7,1.4 -8.67,1.4 -4.53,0 -8.83,-1.03 -12.89,-3.1 -4.06,-2.07 -7.46,-4.98 -10.2,-8.73 -2.65,-4.14 -4.35,-8.67 -5.09,-13.59 -0.75,-4.92 -1.12,-10.78 -1.12,-17.58 0,-8.13 0.71,-15.43 2.11,-21.91 1.41,-6.49 4.26,-11.92 8.56,-16.29 4.29,-4.38 10.5,-6.57 18.63,-6.57" /><path
         id="path154"
         style="fill:#000000;fill-opacity:1;fill-rule:nonzero;stroke:none"
         d="m 5667.36,3127.36 v 35.4 c 0,1.17 0.62,1.75 1.87,1.75 h 2.7 c 0.77,0 1.32,-0.58 1.64,-1.75 4.06,-21.02 13.82,-31.53 29.29,-31.53 6.88,0 12.64,1.57 17.29,4.69 4.64,3.13 6.97,7.93 6.97,14.41 0,4.69 -1.82,8.67 -5.45,11.96 -3.63,3.28 -7.91,5.54 -12.83,6.79 l -14.54,2.81 c -4.92,1.1 -9.37,2.74 -13.35,4.93 -3.99,2.18 -7.25,5.09 -9.78,8.73 -2.54,3.63 -3.81,7.87 -3.81,12.71 0,6.41 1.68,11.64 5.04,15.71 3.35,4.06 7.71,6.99 13.06,8.79 5.35,1.79 11.15,2.69 17.4,2.69 7.42,0 13.91,-1.99 19.46,-5.98 l 6.33,5.39 c 0,0.39 0.35,0.59 1.05,0.59 h 1.52 c 0.47,0 0.88,-0.2 1.23,-0.59 0.35,-0.38 0.53,-0.77 0.53,-1.16 v -28.48 c 0,-1.41 -0.59,-2.11 -1.76,-2.11 h -2.57 c -1.33,0 -2,0.7 -2,2.11 0,7.57 -2.11,13.65 -6.33,18.22 -4.22,4.57 -10.12,6.86 -17.69,6.86 -6.49,0 -12.11,-1.19 -16.88,-3.58 -4.76,-2.38 -7.14,-6.51 -7.14,-12.36 0,-4.07 1.71,-7.39 5.15,-9.97 3.44,-2.57 7.47,-4.45 12.08,-5.62 l 14.64,-2.7 c 5,-1.16 9.65,-3.1 13.95,-5.79 4.29,-2.7 7.69,-6.1 10.19,-10.2 2.5,-4.1 3.75,-8.73 3.75,-13.88 0,-5.24 -0.9,-9.79 -2.69,-13.66 -1.8,-3.87 -4.32,-7.07 -7.57,-9.61 -3.23,-2.54 -7.04,-4.41 -11.42,-5.63 -4.37,-1.21 -8.98,-1.81 -13.83,-1.81 -9.06,0 -16.79,3.05 -23.2,9.14 l -7.97,-8.56 c 0,-0.39 -0.39,-0.58 -1.17,-0.58 h -1.29 c -1.25,0 -1.87,0.62 -1.87,1.87" /><path
         id="path156"
         style="fill:#000000;fill-opacity:1;fill-rule:nonzero;stroke:none"
         d="m 5753.55,3127.95 v 7.62 c 5,0 9.08,0.39 12.24,1.17 3.17,0.78 4.75,2.69 4.75,5.74 v 59.41 c 0,5.55 -1.07,8.97 -3.22,10.26 -2.15,1.29 -6.43,1.93 -12.84,1.93 v 7.62 l 31.41,2.35 v -81.57 c 0,-3.05 1.36,-4.96 4.1,-5.74 2.73,-0.78 6.41,-1.17 11.02,-1.17 v -7.62 z m 9.25,133.48 c 0,3.2 1.22,6.02 3.64,8.43 2.42,2.43 5.15,3.64 8.2,3.64 2.11,0 4.12,-0.55 6.04,-1.64 1.91,-1.09 3.39,-2.6 4.45,-4.52 1.05,-1.91 1.58,-3.88 1.58,-5.91 0,-3.13 -1.21,-5.88 -3.64,-8.27 -2.41,-2.38 -5.23,-3.57 -8.43,-3.57 -3.05,0 -5.78,1.19 -8.2,3.57 -2.42,2.39 -3.64,5.14 -3.64,8.27" /><path
         id="path158"
         style="fill:#000000;fill-opacity:1;fill-rule:nonzero;stroke:none"
         d="m 5814.43,3127.95 v 7.62 c 5,0 9.08,0.39 12.24,1.17 3.16,0.78 4.74,2.69 4.74,5.74 v 59.41 c 0,3.91 -0.58,6.72 -1.75,8.44 -1.17,1.72 -2.85,2.78 -5.04,3.17 -2.19,0.39 -5.58,0.58 -10.19,0.58 v 7.62 l 31.52,2.35 v -21.22 c 2.97,6.25 7.3,11.35 13,15.3 5.71,3.94 11.92,5.92 18.64,5.92 16.64,0 26.45,-6.8 29.41,-20.39 2.89,6.09 7.13,11.01 12.72,14.76 5.58,3.75 11.69,5.63 18.33,5.63 6.57,0 12.12,-1.06 16.65,-3.17 4.53,-2.11 7.93,-5.35 10.19,-9.72 2.27,-4.38 3.4,-9.85 3.4,-16.41 v -52.27 c 0,-3.05 1.6,-4.96 4.8,-5.74 3.21,-0.78 7.27,-1.17 12.19,-1.17 v -7.62 h -49.8 v 7.62 c 4.92,0 8.98,0.39 12.18,1.17 3.21,0.78 4.81,2.69 4.81,5.74 v 51.68 c 0,7.27 -1.04,13.13 -3.11,17.58 -2.07,4.46 -6.3,6.68 -12.71,6.68 -8.36,0 -15.25,-3.36 -20.68,-10.08 -5.43,-6.72 -8.15,-14.38 -8.15,-22.97 v -42.89 c 0,-3.05 1.59,-4.96 4.75,-5.74 3.16,-0.78 7.25,-1.17 12.25,-1.17 v -7.62 h -49.81 v 7.62 c 4.92,0 8.98,0.39 12.19,1.17 3.2,0.78 4.8,2.69 4.8,5.74 v 51.68 c 0,7.03 -1.03,12.83 -3.1,17.41 -2.08,4.57 -6.27,6.85 -12.6,6.85 -8.44,0 -15.37,-3.36 -20.8,-10.08 -5.43,-6.72 -8.15,-14.38 -8.15,-22.97 v -42.89 c 0,-3.05 1.6,-4.96 4.81,-5.74 3.2,-0.78 7.22,-1.17 12.07,-1.17 v -7.62 h -49.8" /><path
         id="path160"
         style="fill:#000000;fill-opacity:1;fill-rule:nonzero;stroke:none"
         d="m 6008.64,3153.85 v 48.04 c 0,3.91 -0.59,6.72 -1.76,8.44 -1.17,1.72 -2.85,2.78 -5.04,3.17 -2.19,0.39 -5.59,0.58 -10.19,0.58 v 7.62 l 32.92,2.35 v -70.2 c 0,-5.63 0.41,-10.02 1.23,-13.19 0.83,-3.16 2.56,-5.52 5.22,-7.09 2.66,-1.55 6.88,-2.34 12.66,-2.34 7.81,0 14.02,3.27 18.63,9.79 4.61,6.52 6.91,13.92 6.91,22.2 v 38.67 c 0,3.91 -0.6,6.72 -1.81,8.44 -1.21,1.72 -2.89,2.78 -5.04,3.17 -2.15,0.39 -5.53,0.58 -10.14,0.58 v 7.62 l 32.82,2.35 v -76.29 c 0,-3.83 0.58,-6.62 1.75,-8.38 1.17,-1.76 2.85,-2.84 5.04,-3.22 2.19,-0.39 5.59,-0.59 10.2,-0.59 v -7.62 l -32.23,-2.46 v 18.4 c -2.66,-5.47 -6.39,-9.91 -11.19,-13.3 -4.81,-3.4 -10.14,-5.1 -16,-5.1 -10.39,0 -18.65,2.21 -24.78,6.62 -6.14,4.42 -9.2,11.66 -9.2,21.74" /><path
         id="path162"
         style="fill:#000000;fill-opacity:1;fill-rule:nonzero;stroke:none"
         d="m 6114.1,3127.95 v 7.62 c 5,0 9.08,0.39 12.25,1.17 3.17,0.78 4.75,2.69 4.75,5.74 v 114.14 c 0,3.91 -0.59,6.74 -1.76,8.5 -1.18,1.76 -2.85,2.83 -5.04,3.22 -2.19,0.39 -5.59,0.59 -10.2,0.59 v 7.62 l 32.35,2.34 v -136.41 c 0,-3.05 1.58,-4.96 4.74,-5.74 3.17,-0.78 7.21,-1.17 12.13,-1.17 v -7.62 h -49.22" /><path
         id="path164"
         style="fill:#000000;fill-opacity:1;fill-rule:nonzero;stroke:none"
         d="m 6177.21,3149.28 c 0,8.67 3.4,15.7 10.19,21.09 6.8,5.39 14.96,9.2 24.49,11.43 9.54,2.22 18.6,3.34 27.19,3.34 v 9.02 c 0,4.14 -0.92,8.18 -2.75,12.13 -1.83,3.94 -4.49,7.16 -7.97,9.66 -3.48,2.5 -7.32,3.75 -11.54,3.75 -9.62,0 -16.92,-2.14 -21.92,-6.44 2.73,0 5,-1.05 6.8,-3.16 1.8,-2.11 2.69,-4.53 2.69,-7.27 0,-2.89 -1.01,-5.37 -3.04,-7.44 -2.03,-2.07 -4.46,-3.1 -7.27,-3.1 -2.97,0 -5.47,1.03 -7.5,3.1 -2.03,2.07 -3.04,4.55 -3.04,7.44 0,7.66 3.46,13.35 10.37,17.06 6.91,3.7 14.54,5.56 22.91,5.56 5.93,0 11.87,-1.25 17.81,-3.75 5.94,-2.5 10.8,-6.09 14.59,-10.78 3.79,-4.69 5.68,-10.16 5.68,-16.41 v -48.98 c 0,-2.82 0.61,-5.41 1.82,-7.79 1.21,-2.39 3.07,-3.58 5.57,-3.58 2.42,0 4.21,1.21 5.38,3.64 1.18,2.42 1.76,4.99 1.76,7.73 v 13.94 h 6.34 v -13.94 c 0,-3.21 -0.84,-6.27 -2.52,-9.2 -1.68,-2.93 -3.97,-5.28 -6.86,-7.03 -2.89,-1.76 -5.98,-2.64 -9.26,-2.64 -4.3,0 -7.97,1.64 -11.02,4.92 -3.04,3.28 -4.76,7.19 -5.15,11.72 -2.66,-5.39 -6.6,-9.71 -11.84,-12.95 -5.23,-3.24 -10.86,-4.86 -16.87,-4.86 -5.47,0 -10.88,0.82 -16.23,2.46 -5.36,1.64 -9.83,4.22 -13.42,7.73 -3.6,3.52 -5.39,8.05 -5.39,13.6 z m 17.69,0 c 0,-5.08 1.87,-9.36 5.62,-12.83 3.75,-3.48 8.17,-5.22 13.25,-5.22 4.68,0 8.94,1.18 12.77,3.52 3.83,2.34 6.88,5.52 9.14,9.55 2.27,4.02 3.4,8.26 3.4,12.71 v 22.62 c -6.64,0 -13.4,-1.07 -20.27,-3.22 -6.88,-2.15 -12.58,-5.53 -17.11,-10.14 -4.53,-4.61 -6.8,-10.27 -6.8,-16.99" /><path
         id="path166"
         style="fill:#000000;fill-opacity:1;fill-rule:nonzero;stroke:none"
         d="m 6331.63,3125.49 c -8.6,0 -16.43,2.33 -23.5,6.97 -7.07,4.65 -12.56,10.76 -16.47,18.34 -3.91,7.58 -5.86,15.63 -5.86,24.15 0,8.75 2.13,16.89 6.39,24.43 4.26,7.53 10.08,13.53 17.46,17.98 7.38,4.46 15.48,6.69 24.31,6.69 5.32,0 10.34,-1.12 15.06,-3.35 4.73,-2.22 8.85,-5.33 12.36,-9.31 v 45.23 c 0,3.91 -0.58,6.74 -1.75,8.5 -1.17,1.76 -2.83,2.83 -4.98,3.22 -2.15,0.39 -5.53,0.59 -10.14,0.59 v 7.62 l 32.12,2.34 v -131.13 c 0,-3.83 0.58,-6.62 1.75,-8.38 1.17,-1.76 2.85,-2.84 5.04,-3.22 2.19,-0.39 5.54,-0.59 10.08,-0.59 v -7.62 l -32.81,-2.46 v 13.71 c -3.75,-4.29 -8.21,-7.66 -13.37,-10.08 -5.15,-2.42 -10.39,-3.63 -15.69,-3.63 z m -22.16,21.33 c 2.42,-4.69 5.71,-8.46 9.85,-11.31 4.14,-2.85 8.67,-4.28 13.59,-4.28 6.02,0 11.54,1.74 16.58,5.22 5.04,3.47 8.77,7.98 11.2,13.53 v 52.15 c -1.65,3.13 -3.76,5.96 -6.33,8.5 -2.58,2.53 -5.49,4.47 -8.73,5.8 -3.25,1.33 -6.67,1.99 -10.25,1.99 -7.59,0 -13.68,-2.15 -18.29,-6.45 -4.61,-4.29 -7.83,-9.76 -9.67,-16.4 -1.83,-6.64 -2.75,-13.59 -2.75,-20.87 0,-5.85 0.29,-10.93 0.88,-15.23 0.58,-4.29 1.89,-8.51 3.92,-12.65" /><path
         id="path168"
         style="fill:#000000;fill-opacity:1;fill-rule:nonzero;stroke:none"
         d="m 6455.13,3125.49 c -8.67,0 -16.74,2.21 -24.2,6.62 -7.46,4.42 -13.34,10.35 -17.63,17.82 -4.3,7.46 -6.45,15.56 -6.45,24.31 0,6.64 1.17,13.05 3.52,19.21 2.34,6.18 5.74,11.69 10.19,16.53 4.46,4.84 9.61,8.63 15.47,11.37 5.86,2.73 12.23,4.1 19.1,4.1 8.91,0 17.03,-2.36 24.38,-7.09 7.34,-4.73 13.14,-11.04 17.4,-18.93 4.26,-7.89 6.39,-16.29 6.39,-25.19 0,-8.67 -2.17,-16.76 -6.51,-24.26 -4.34,-7.5 -10.19,-13.45 -17.57,-17.87 -7.39,-4.41 -15.42,-6.62 -24.09,-6.62 z m 0,6.44 c 11.64,0 19.4,4.2 23.26,12.6 3.87,8.4 5.81,19.13 5.81,32.17 0,7.26 -0.4,13.3 -1.18,18.1 -0.78,4.81 -2.46,9.16 -5.03,13.07 -1.65,2.34 -3.72,4.43 -6.22,6.27 -2.5,1.84 -5.16,3.22 -7.97,4.16 -2.81,0.94 -5.7,1.4 -8.67,1.4 -4.53,0 -8.83,-1.03 -12.89,-3.1 -4.06,-2.07 -7.46,-4.98 -10.19,-8.73 -2.66,-4.14 -4.36,-8.67 -5.1,-13.59 -0.75,-4.92 -1.12,-10.78 -1.12,-17.58 0,-8.13 0.71,-15.43 2.12,-21.91 1.4,-6.49 4.25,-11.92 8.55,-16.29 4.3,-4.38 10.51,-6.57 18.63,-6.57" /><path
         id="path170"
         style="fill:#000000;fill-opacity:1;fill-rule:nonzero;stroke:none"
         d="m 6516.38,3127.95 v 7.62 c 4.92,0 8.99,0.39 12.19,1.17 3.2,0.78 4.81,2.69 4.81,5.74 v 59.41 c 0,3.91 -0.59,6.72 -1.76,8.44 -1.17,1.72 -2.85,2.78 -5.04,3.17 -2.19,0.39 -5.59,0.58 -10.2,0.58 v 7.62 l 31.18,2.35 v -21.22 c 2.26,6.33 5.56,11.45 9.9,15.35 4.33,3.91 9.59,5.87 15.76,5.87 4.3,0 8.14,-1.27 11.55,-3.81 3.39,-2.54 5.09,-5.92 5.09,-10.14 0,-2.58 -0.94,-4.84 -2.82,-6.8 -1.87,-1.95 -4.18,-2.93 -6.91,-2.93 -2.73,0 -5.05,0.96 -6.97,2.87 -1.91,1.92 -2.87,4.2 -2.87,6.86 0,3.9 1.41,6.68 4.21,8.32 h -1.28 c -5.86,0 -10.64,-2.13 -14.35,-6.39 -3.72,-4.26 -6.35,-9.53 -7.92,-15.82 -1.56,-6.28 -2.34,-12.28 -2.34,-17.99 v -35.74 c 0,-4.6 7.03,-6.91 21.09,-6.91 v -7.62 h -53.32" /><path
         id="path172"
         style="fill:none;stroke:#000000;stroke-width:20.00250053;stroke-linecap:butt;stroke-linejoin:round;stroke-miterlimit:10;stroke-dasharray:none;stroke-opacity:1"
         d="m 720,1692.52 4.102,-0.5 4.101,162.99 4.106,-2.48 4.093,-266.3 4.102,-4.27 4.105,168.61 4.102,-5.78 4.102,-94.75 4.101,-7.18 4.098,-55.13 4.101,-8.37 4.102,-51.99 4.101,-9.39 4.106,75.87 4.101,-10.28 4.094,24.9 4.102,-11.1 4.105,-37.81 4.102,-11.84 4.101,8.84 4.102,-12.46 4.098,-13.91 4.101,-13.01 4.102,-64.72 4.101,-13.46 4.106,99.14 4.101,-13.83 4.094,-157.49 4.102,-14.18 4.105,-144.41 4.102,-14.35 4.101,32.31 4.102,-14.41 4.097,257.75 4.102,-14.52 4.102,-196.32 4.101,-13.53 4.106,-54.21 4.101,-9.12 4.094,2.72 4.101,-5.24 4.106,3.97 4.101,-1.89 4.102,20.97 4.102,1.01 4.097,1.6 4.102,3.51 4.101,27.12 4.102,5.65 4.105,144.76 4.102,7.43 4.094,-106.71 4.101,8.86 4.106,107.25 4.101,10.18 4.102,-30.56 4.101,11.21 4.098,-23.49 4.102,12.14 4.101,-62.16 4.102,13 4.105,23.66 4.102,13.78 4.094,32.32 4.105,14.42 4.102,-68.37 4.101,14.95 4.102,291.21 4.103,15.37 4.1,-78.43 4.1,15.46 4.1,-119.49 4.1,15.62 4.11,-8.52 4.1,15.88 4.09,82.9 4.11,15.15 4.1,86.79 4.1,11.72 4.1,-72.87 4.11,8.58 4.09,-75.35 4.1,5.78 4.1,34.87 4.11,3.28 4.1,73.8 4.1,1 4.1,96.41 4.1,-1.11 4.1,-100.32 4.1,-3.02 4.11,74.85 4.1,-4.7 4.1,-122.56 4.1,-6.23 4.1,33.31 4.1,-6.44 4.11,8.42 4.1,-3.66 4.1,-146.51 4.1,-1.19 4.1,-51.19 4.1,1.15 4.1,218.65 4.11,3.16 4.1,-40.86 4.09,4.7 4.1,112.38 4.11,6.04 4.1,-93.18 4.1,7.14 4.1,-19.26 4.1,8.17 4.1,-2.53 4.1,9.1 4.11,105.7 4.1,9.88 4.1,-2 4.1,10.46 4.1,39.73 4.1,10.93 4.11,100.08 4.1,11.27 4.1,-97.84 4.1,11.49 4.1,-176.45 4.1,11.84 4.1,161.59 4.11,12.21 4.1,123.05 4.09,12.37 4.1,-189.97 4.11,12.44 4.1,91.33 4.1,12.62 4.1,-106.81 4.1,11.81 4.1,161.98 4.1,8.54 4.11,-62.46 4.1,5.52 4.1,-82.94 4.1,2.85 4.1,173.13 4.1,0.43 4.11,126.46 4.1,-1.84 4.1,-123.28 4.1,-3.91 4.1,-71.23 4.1,-5.7 4.1,258.22 4.11,-7.32 4.1,-312.87 4.09,-8.81 4.11,134.96 4.1,-9.02 4.1,-35.79 4.1,-6.38 4.11,-5.86 4.1,-4.05 4.09,-58 4.1,-1.98 4.11,-117.23 4.1,-0.07 4.1,165.47 4.1,1.63 4.1,-33.8 4.1,3 4.1,-129 4.11,4.25 4.1,346.99 4.1,5.37 4.1,-94.01 4.1,6.06 4.1,-117.37 4.11,6.78 4.1,-88.68 4.1,7.53 4.1,50.4 4.1,8.25 4.1,33.99 4.1,8.81 4.11,33.16 4.1,9.27 4.09,-59.22 4.1,9.63 4.11,7.34 4.1,10 4.1,40.97 4.1,10.3 4.1,-21.14 4.1,10.51 4.1,177.77 4.11,10.67 4.1,-157.36 4.1,10.69 4.1,135.3 4.1,10.79 4.1,134.64 4.11,10.73 4.1,-240.76 4.1,10.62 4.1,128.13 4.1,10.66 4.1,-80.07 4.1,10.61 4.11,40.99 4.1,10.6 4.09,-81.17 4.1,10.58 4.11,264.25 4.1,10.53 4.1,-124.26 4.1,10.33 4.1,-7.9 4.1,10.22 4.1,21.34 4.11,10.12 4.1,-2.79 4.1,10 4.1,-63.33 4.1,9.91 4.1,85.77 4.11,9.84 4.1,104.81 4.1,9.68 4.1,96.99 4.1,9.43 4.1,-157.95 4.1,9.18 4.11,-192.52 4.1,9.11 4.09,320.83 4.11,9.08 4.1,-116.99 4.1,8.87 4.1,128.87 4.1,8.72 4.11,-23.47 4.09,8.49 4.1,-80.31 4.11,8.31 4.1,-47.72 4.1,8.21 4.1,187.1 4.1,8.1 4.1,-169.88 4.1,7.92 4.11,22.39 4.1,7.86 4.1,139.76 4.1,7.75 4.1,-41.71 4.1,7.56 4.11,-152.27 4.1,7.45 4.1,121.1 4.1,7.43 4.1,10.64 4.1,7.31 4.1,7.46 4.11,7.19 4.1,47.7 4.09,7.06 4.1,-135.89 4.11,6.94 4.1,85.45 4.1,6.9 4.1,-71.49 4.1,6.81 4.1,181.4 4.1,6.74 4.11,41.67 4.1,6.54 4.1,-106.36 4.1,5.56 4.1,49.96 4.1,2.45 4.11,26.81 4.1,-0.39 4.1,-18.82 4.1,-2.97 4.1,4.38 4.1,-5.28 4.1,-70.71 4.11,-7.35 4.1,42.27 4.09,-9.19 4.1,-147.27 4.11,-10.82 4.1,131.85 4.1,-12.24 4.1,46.11 4.1,-13.57 4.1,-128.29 4.1,-13.8 4.11,2.62 4.1,-11.3 4.1,146.89 4.1,-9.16 4.1,-182.24 4.1,-7.34 4.11,24.23 4.1,-5.62 4.1,41.8 4.1,-4.14 4.1,-135.33 4.1,-2.82 4.1,91.3 4.11,-1.6 4.1,69.24 4.09,-0.61 4.11,-58.83 4.1,0.24 4.1,-16.94 4.1,1.03 4.11,-146.45 4.09,1.77 4.1,41.93 4.1,2.5 4.11,-71.89 4.1,3.15 4.1,88.44 4.1,3.74 4.1,111.15 4.1,4.16 4.1,-27.44 4.11,4.47 4.1,-68.67 4.1,4.76 4.1,279.53 4.1,5 4.1,-238.66 4.11,5.08 4.1,58.64 4.1,5.28 4.1,-0.09 4.1,5.42 4.1,19.53 4.1,5.54 4.11,61.93 4.1,5.6 4.09,-249.1 4.1,5.67 4.11,65.18 4.1,5.89 4.1,-6.47 4.1,6.03 4.1,174.55 4.1,6.11 4.1,-26.46 4.11,6.07 4.1,5.72 4.1,6.04 4.1,12.67 4.1,5.2 4.1,89.52 4.11,2.11 4.1,-120.95 4.1,-0.7 4.1,-103.98 4.1,-3.18 4.1,42.74 4.1,-5.38 4.11,-14.07 4.1,-7.38 4.09,-24.12 4.1,-9.15 4.11,105.11 4.1,-10.74 4.1,-144.61 4.1,-12.18 4.1,91.94 4.1,-13.42 4.1,118.06 4.11,-13.63 4.1,-223.62 4.1,-11.19 4.1,60.19 4.1,-8.9 4.1,-57.58 4.11,-6.93 4.1,-18.05 4.1,-5.14 4.1,203.44 4.1,-3.62 4.1,-172.28 4.1,-2.39 4.11,-47.58 4.1,-1.17 4.09,5.09 4.11,-0.05 4.1,32.27 4.1,0.91 4.1,79.01 4.11,1.71 4.1,-83.79 4.09,2.38 4.1,163.44 4.11,2.99 4.1,-108.38 4.1,3.42 4.1,48.86 4.1,3.88 4.1,-119.98 4.1,4.26 4.11,62.58 4.1,4.67 4.1,72.34 4.1,4.96 4.1,-88.78 4.1,5.2 4.11,9.05 4.1,5.44 4.1,61.13 4.1,4.83 4.1,7.66 4.1,1.84 4.1,-101.54 4.11,-0.84 4.1,119.89 4.09,-3.25 4.1,85.57 4.11,-5.46 4.1,24.94 4.1,-7.46 4.1,-279.53 4.1,-9.24 4.1,250.92 4.1,-10.76 4.11,-4.84 4.1,-12.2 4.1,-112.65 4.1,-13.47 4.1,-116.14 4.1,-14.54 4.11,106.07 4.1,-15.45 4.1,-55.38 4.1,-16.29 4.1,-126.26 4.1,-16.99 4.1,48.31 4.11,-17.56 4.1,-19.38 4.09,-18.07 4.1,72.22 4.11,-18.52 4.1,-66.92 4.1,-18.93 4.1,-103.15 4.1,-19.23 4.1,149.5 4.1,-19.48 4.11,-17.66 4.1,-18.7 4.1,-104.93 4.1,-15.06 4.1,25.35 4.1,-11.8 4.11,-28.76 4.1,-8.99 4.1,-27.76 4.1,-6.48 4.1,-153.85 4.1,-4.23 4.1,232.21 4.11,-2.2 4.1,-179.04 4.09,-0.55 4.11,60.25 4.1,1.02 4.1,81.41 4.1,2.31 4.11,45.39 4.1,3.37 4.09,-213.35 4.1,4.31 4.11,89.47 4.1,5.28 4.1,-78.07 4.1,6.09 4.1,225.04 4.1,6.79 4.1,-112.67 4.11,7.26 4.1,-28.47 4.1,7.74 4.1,-113.69 4.1,8.22 4.1,77.77 4.11,8.71 4.1,70.34 4.1,9.05 4.1,179.71 4.1,9.23 4.1,-126.92 4.1,9.28 4.11,-7.01 4.1,9.4 4.09,53.54 4.1,9.5 4.11,-20.21 4.1,9.53 4.1,32.97 4.1,9.58 4.1,52.66 4.1,9.56 4.1,-39.41 4.11,9.5 4.1,57.75 4.1,9.46 4.1,-55.73 4.1,9.39 4.1,-26.33 4.11,8.52 4.1,141.91 4.1,5.3 4.1,-56.95 4.1,2.35 4.1,-92.54 4.1,-0.29 4.11,-5.38 4.1,-2.63 4.09,221.18 4.1,-4.76 4.11,-132.39 4.1,-6.74 4.1,-233.75 4.1,-8.42 4.1,165.34 4.1,-9.87 4.1,98.11 4.11,-11.22 4.1,-66.15 4.1,-11.48 4.1,-92.44 4.1,-8.9 4.1,62.74 4.11,-6.59 4.1,-200.04 4.1,-4.55 4.1,230.5 4.1,-2.67 4.1,20.27 4.1,-1.23 4.11,-134.34 4.1,0.07 4.09,74.46 4.11,1.29 4.1,117.47 4.1,2.27 4.1,-170.57 4.1,3.09 4.1,99.89 4.1,3.02 4.1,-50.9 4.11,0.37 4.1,9.29 4.1,-2.01 4.1,194.99 4.1,-4.18 4.1,-101.67 4.1,-6.18 4.11,-192.42 4.1,-7.91 4.1,-25.73 4.1,-9.37 4.1,-37.86 4.1,-10.66 4.11,139.38 4.1,-11.81 4.1,82.76 4.1,-12.89 4.1,-199.3 4.1,-13.86 4.1,5.05 4.11,-14.62 4.1,87.58 4.09,-15.31 4.1,-28.94 4.11,-15.94 4.1,3.06 4.1,-16.49 4.1,-41.68 4.1,-16.96 4.1,-74.73 4.1,-17.33 4.11,-38.97 4.1,-17.61 4.1,-35.91 4.1,-17.81 4.1,30.19 4.1,-17.98 4.11,-84.29 4.1,-18.11 4.1,51.07 4.1,-18.17 4.1,-69.23 4.1,-18.24 4.1,-53.88 4.11,-18.23 4.1,93.41 4.09,-18.19 4.1,20.84 4.11,-18.22 4.1,102.63 4.1,-18.24 4.1,-113.12 4.1,-18.29 4.1,-216.2 4.1,-18.21 4.11,141.83 4.1,-18.03 4.1,-230.93 4.1,-16.67 4.1,125.07 4.1,-11.99 4.11,-0.93 4.1,-8.08 4.1,19.42 4.1,-4.71 4.1,30.2 4.1,-1.8 4.1,-1.33 4.11,0.68 4.1,-71.33 4.1,2.88 4.1,84.44 4.1,4.84 4.1,-58.61 4.1,6.47 4.11,-31.2 4.1,7.97 4.09,39.71 4.1,8.28 4.11,-130.8 4.1,5.67 4.1,222.74 4.1,3.34 4.1,-59.51 4.1,1.12 4.1,99.04 4.11,-0.85 4.1,-113.01 4.1,-2.66 4.1,-197.58 4.1,-4.16 4.1,271.8 4.11,-5.45 4.1,-82.05 4.1,-6.74 4.1,109.14 4.1,-7.86 4.1,-88.71 4.1,-7.77 4.11,-134.45 4.1,-4.43 4.09,7.16 4.1,-1.39 4.11,118.31 4.1,1.21 4.1,39.63 4.1,3.32 4.1,-76.91 4.1,5.15 4.1,5.03 4.11,6.81 4.1,2.77 4.1,8.25 4.1,-45.05 4.1,9.52 4.1,168.29 4.11,10.61 4.1,-118.29 4.1,10.43 4.1,-17.89 4.1,7.57 4.1,-20.23 4.1,4.99 4.11,183.25 4.1,2.64 4.09,-126.99 4.1,0.46 4.11,-16.64 4.1,-1.44 4.1,22.17 4.1,-3.13 4.1,-39.79 4.1,-4.65 4.1,37.92 4.11,-5.98 4.1,-22 4.1,-7.19 4.1,-16.98 4.1,-8.24 4.1,20.25 4.11,-9.18 4.1,78.76 4.1,-10.02 4.1,-227.93 4.1,-10.75 4.1,145.32 4.1,-11.3 4.11,-127.53 4.1,-11.83 4.1,-193.36 4.1,-12.18 4.1,259.06 4.1,-12.41 4.1,67.78 4.11,-12.78 4.1,3.65 4.09,-13.15 4.1,-21.67 4.11,-12.28 4.1,-51.43 4.1,-8.15 4.1,-136.88 4.1,-4.47 4.1,185.34 4.1,-1.17 4.11,-176.43 4.1,1.54 4.1,71.29 4.1,4.07 4.1,27.59 4.1,6.17 4.11,-79.77 4.1,7.99 4.1,59.78 4.1,9.65 4.1,-45.14 4.1,11.02 4.1,275.52 4.11,11.2 4.1,-247.33 4.09,8.29 4.1,81.44 4.11,5.77 4.1,-26.48 4.1,3.46 4.1,9.53 4.1,1.38 4.1,6.93 4.1,-0.49 4.11,42.22 4.1,-2.17 4.1,51.8 4.1,-3.7 4.1,-241.6 4.1,-5.05 4.11,175.34 4.1,-6.16 4.1,-1.49 4.1,-7.24 4.1,-79.2 4.1,-8.17 4.1,-128.62 4.11,-8.93 4.1,322.03 4.09,-9.57 4.1,-218.52 4.11,-10.3 4.1,103.22 4.1,-10.81 4.1,-85.54 4.1,-11.31 4.1,61.41 4.1,-11.7 4.11,-102.93 4.1,-12.06 4.1,7.08 4.1,-12.29 4.1,23.19 4.1,-11.28 4.11,-4.55 4.1,-6.99 4.1,16.94 4.1,-3.27 4.1,-118.7 4.1,-0.03 4.1,108.41 4.11,2.89 4.1,-59.29 4.09,5.31 4.11,-109.61 4.1,7.531 4.1,139.649 4.1,9.54 4.11,86.92 4.1,11.07 4.09,-5.3 4.1,12.29 4.11,-6.58 4.1,13.36 4.1,24.29 4.1,14.27 4.1,-20.02 4.1,15.03 4.1,109.1 4.11,15.66 4.1,19.18 4.1,16.07 4.1,-137 4.1,16.44 4.1,4.96 4.11,16.88 4.1,38.47 4.1,17.24 4.1,17.14 4.1,17.47 4.1,-64.66 4.1,17.66 4.11,122.98 4.1,17.83 4.09,55.65 4.1,17.81 4.11,5.17 4.1,17.72 4.1,134.82 4.1,17.55 4.1,-108.12 4.1,17.31 4.1,17.16 4.11,17.17 4.1,35.85 4.1,16.99 4.1,-65.96 4.1,16.8 4.1,122.48 4.11,16.63 4.1,89.41 4.1,16.34 4.1,-23.29 4.1,15.99 4.1,43.54 4.1,15.65 4.11,-86.64 4.1,15.34 4.09,-88.53 4.1,15.14 4.11,-31.11 4.1,15.03 4.1,198.49 4.1,14.87 4.1,27.91 4.1,14.57 4.1,-71.39 4.11,14.27 4.1,65.07 4.1,14.02 4.1,-82.43 4.1,13.75 4.1,49.62 4.11,13.56 4.1,167.16 4.1,13.3 4.1,-34.63 4.1,12.92 4.1,-130.96 4.1,12.65 4.11,116.83 4.1,12.45 4.1,-184.21 4.1,12.23 4.1,211.78 4.1,12.1 4.1,20.54 4.11,11.82 4.1,-105.64 4.09,11.56 4.1,-41.02 4.11,11.41 4.1,241.44 4.1,10.42 4.1,38.58 4.1,6.99 4.1,-129.48 4.1,3.88 4.11,-30.03 4.1,1.12 4.1,-62.37 4.1,-1.36 4.1,143.27 4.1,-3.59 4.11,-73.51 4.1,-5.62 4.1,-92.17 4.1,-7.42 4.1,69.59 4.1,-9 4.1,84.4 4.11,-10.43 4.1,-88.32 4.09,-11.73 4.1,26.26 4.11,-12.85 4.1,-98.78 4.1,-13.85 4.1,16.77 4.1,-14.68 4.1,93.89 4.1,-15.44 4.11,-96 4.1,-16.13 4.1,42.6 4.1,-16.69 4.1,-13.77 4.1,-17.2 4.11,-65.65 4.1,-17.65 4.1,43.71 4.1,-17.98 4.1,-51.69 4.1,-17.22 4.1,-130.11 4.11,-13.49 4.1,158.77 4.09,-10.16 4.11,-147.8 4.1,-7.37 4.1,-119.13 4.1,-4.74 4.1,212.82 4.1,-2.42 4.1,-117.7 4.1,-0.54 4.11,189.41 4.1,1.15 4.1,-243.48 4.1,2.53 4.1,-35.48 4.1,3.96 4.11,98.92 4.1,5.22 4.1,15.44 4.1,6.22 4.1,62.27 4.1,7.06 4.1,71.07 4.11,7.71 4.1,17.88 4.1,8.21 4.1,-143.93 4.1,8.68 4.1,71.37 4.1,9.17 4.11,-37.78 4.1,9.55 4.09,147.94 4.1,9.86 4.11,27.33 4.1,10.01 4.1,-46.74 4.1,9.24 4.1,-155.06 4.1,6.09 4.1,113.15 4.11,3.3 4.1,95.65 4.1,0.72 4.1,-70.36 4.1,-1.65 4.1,-16.88 4.11,-3.73 4.1,12.23 4.1,-5.6 4.1,87.56 4.1,-7.3 4.1,-93.14 4.1,-8.82 4.11,-148.39 4.1,-10.11 4.09,-35.86 4.1,-11.21 4.11,111.77 4.1,-12.17 4.1,88.18 4.1,-13.08 4.1,-51.19 4.1,-13.91 4.1,-50.12 4.11,-14.61 4.1,-99.36 4.1,-15.19 4.1,113.18 4.1,-15.67 4.1,-116.19 4.11,-16.1 4.1,-43.87 4.1,-16.43 4.1,53.84 4.1,-16.67 4.1,-64.93 4.1,-15.77 4.11,19.7 4.1,-11.82 4.09,113.63 4.11,-8.43 4.1,-176.03 4.1,-5.55 4.1,-56.52 4.1,-2.82 4.1,54.52 4.1,-0.4 4.1,75.19 4.11,1.61 4.1,148.32 4.1,3.24 4.1,-98.13 4.1,4.56 4.1,-53.85 4.11,5.83 4.1,49.03 4.1,6.01 4.1,32.84 4.1,3.36 4.1,-25.52 4.1,0.97 4.11,-110.76 4.1,-1.14 4.09,207.32 4.11,-3.04 4.1,-233.05 4.1,-4.79 4.1,78.85 4.1,-6.26 4.1,-112.96 4.1,-7.58 4.1,133.52 4.11,-8.72 4.1,-54.22 4.1,-9.78 4.1,-16.52 4.1,-9.61 4.1,100.88 4.1,-6.39 4.11,-170.33 4.1,-3.64 4.1,227.94 4.1,-1.14 4.1,-76.7 4.1,0.83 4.11,-63.3 4.1,2.65 4.1,-56.87 4.1,4.33 4.1,127.81 4.1,5.79 4.1,-39.07 4.11,6.97 4.1,-34.46 4.09,8.04 4.1,144.08 4.11,8 4.1,-27.62 4.1,5.15 4.1,-120.29 4.1,2.62 4.1,150.71 4.1,0.36 4.11,-143.79 4.1,-1.73 4.1,-106.29 4.1,-3.51 4.1,99.03 4.1,-5.05 4.11,54.34 4.1,-6.5 4.1,-38.76 4.1,-7.81 4.1,-70.93 4.1,-8.94 4.1,-74.84 4.11,-8.77 4.1,169.21 4.09,-5.5 4.1,-71.58 4.11,-2.81 4.1,-1.44 4.1,-0.4 4.11,-105.39 4.09,1.74 4.1,215.46 4.1,3.65 4.11,-95.58 4.1,5.12 4.1,128.97 4.1,6.47 4.1,-176.07 4.1,7.55 4.11,159.48 4.1,8.62 4.1,-136.18 4.1,9.44 4.1,-78.08 4.1,10.31 4.1,151.34 4.11,11.09 4.1,11.65 4.09,11.6 4.11,70.33 4.1,12.02 4.1,-13.43 4.1,12.31 4.11,92.61 4.09,12.53 4.1,-75.89 4.1,12.64 4.11,-4.19 4.1,12.81 4.1,-126.58 4.1,12.98 4.1,114.36 4.1,12.3 4.1,60.42 4.11,8.99 4.1,24.74 4.1,5.96 4.1,-139.88 4.1,3.23 4.1,213.1 4.11,0.79 4.1,-17.98 4.1,-1.49 4.1,-164.08 4.1,-3.51 4.1,-72.62 4.1,-5.24 4.11,188.69 4.1,-6.78 4.09,-45.57 4.1,-8.22 4.11,-11.9 4.1,-9.49 4.1,-115.09 4.1,-10.59 4.1,276.41 4.1,-11.55 4.1,-249.1 4.11,-12.5 4.1,55.2 4.1,-13.21 4.1,-93.03 4.1,-13.86 4.1,-129.74 4.11,-14.34 4.1,120.03 4.1,-14.71 4.1,74.58 4.1,-15.11 4.1,-124.02 4.1,-15.48 4.11,8.69 4.1,-15.72 4.09,10.15 4.1,-15.93 4.11,76.6 4.1,-16.13 4.1,-60.57 4.1,-16.32 4.1,14.15 4.1,-16.44 4.1,-19.73 4.11,-16.55 4.1,-114.65 4.1,-16.59 4.1,153.15 4.1,-16.57 4.1,-85.55 4.11,-16.62 4.1,-203.41 4.1,-16.56 4.1,182.95 4.1,-15.21 4.1,-184.28 4.1,-10.72 4.11,186.86 4.1,-6.7 4.09,-82.14 4.11,-3.39 4.1,1.15 4.1,-0.43 4.1,30.13 4.11,2.13 4.1,40.77 4.09,4.3 4.1,-111.23 4.11,6.18 4.1,-26.48 4.1,7.98 4.1,184.25 4.1,9.47 4.1,-40.13 4.1,10.59 4.11,-197.48 4.1,11.67 4.1,162.48 4.1,12.76 4.1,1.11 4.1,13.52 4.11,-53.03 4.1,14.19 4.1,41.87 4.1,14.8 4.1,123.23 4.1,15.23 4.1,133.16 4.11,15.42 4.1,-72.41 4.09,15.46 4.1,-120.92 4.11,15.59 4.1,45.83 4.1,14.87 4.1,5.87 4.1,11.49 4.1,38.59 4.1,8.41 4.11,-9.45 4.1,5.61 4.1,-33.25 4.1,3.08 4.1,34.14 4.1,0.82 4.11,-28.66 4.1,-1.23 4.1,149.95 4.1,-3.08 4.1,-58.27 4.1,-4.79 4.1,8.07 4.11,-6.31 4.1,-81.38 4.09,-7.63 4.1,-21.19 4.11,-8.77 4.1,71.38 4.1,-9.78 4.1,-178.01 4.1,-10.68 4.1,246.07 4.1,-11.42 4.11,-52.75 4.1,-12.2 4.1,28.23 4.1,-12.84 4.1,-147.74 4.1,-13.41 4.11,37.94 4.1,-13.81 4.1,-201.45 4.1,-14.15 4.1,13.71 4.1,-14.32 4.1,73.91 4.11,-14.48 4.1,-95.45 4.1,-14.64 4.1,28.96 4.1,-14.71 4.1,46.5 4.1,-14.79 4.11,-28.71 4.1,-14.88 4.09,-47.57 4.1,-14.89 4.11,-143.75 4.1,-14.84 4.1,98.94 4.1,-14.71 4.1,-68.15 4.1,-14.63 4.1,87 4.11,-14.52 4.1,-82.38 4.1,-14.45 4.1,131.94 4.1,-14.34 4.1,-105.29 4.11,-14.3 4.1,43.01 4.1,-14.2 4.1,-52.154 4.1,-14.102 4.1,16.563 4.1,-13.973 4.11,-168.406 4.1,-13.809 4.09,147.555 4.1,-13.566 4.11,-91.801 4.1,-13.426 4.1,-87.949 4.1,-11.875 4.1,116.519 4.1,-6.793 4.1,-128.804 4.11,-2.528 4.1,199.633 4.1,1.254 4.1,-187.793 4.1,4.32 4.1,154.469 4.11,7.164 4.1,57.953 4.1,9.391 4.1,-49.856 4.1,11.258 4.1,-181.785 4.1,13.02 4.11,96.773 4.1,14.731 4.09,183.547 4.11,14.96 4.1,-42.21 4.1,11.96 4.1,81.42 4.1,9.26 4.1,-56.48 4.1,6.78 4.1,35.37 4.11,4.55 4.1,-25.7 4.1,2.53 4.1,-80.195 4.1,0.758 4.1,72.397 4.11,-0.8 4.1,-20.44 4.1,-2.23 4.1,104.73 4.1,-3.52 4.1,-64.61 4.1,-4.71 4.11,-161.532 4.1,-5.691 4.1,181.773 4.1,-6.51 4.1,-94.634 4.1,-7.313 4.1,7.043 4.11,-7.957 4.1,-25.289 4.09,-8.535 4.1,46.492 4.11,-9.023 4.1,-29.945 4.1,-9.481 4.1,-119.582 4.1,-9.816 4.1,-41.008 4.1,-10.024 4.11,80.844 4.1,-8.894 4.1,91.769 4.1,-4.461 4.1,16.328 4.1,-0.773 4.11,-125.738 4.1,2.476 4.09,36.531 4.11,5.422 4.1,69.719 4.1,7.899 4.1,-88.5 4.11,9.992 4.1,16.109 4.09,11.91 4.1,33.114 4.11,13.519 4.1,-0.922 4.1,14.879 4.1,25.516 4.1,14.984 4.1,71.319 4.1,12.01 4.11,-49.49 4.1,9.27 4.1,44.14 4.1,6.83 4.1,24.8 4.1,4.59 4.11,-239.352 4.1,2.606 4.1,194.796 4.1,0.94 4.1,21.42 4.1,-0.68 4.1,138.85 4.11,-2.18 4.1,-121.75 4.09,-3.58 4.11,-97.3 4.1,-3.53 4.1,-49.557 4.1,-0.074 4.1,214.321 4.11,2.89 4.09,-127.27 4.1,5.26 4.11,-162.146 4.1,7.527 4.1,227.549 4.1,9.61 4.1,-68.6 4.1,11.16 4.11,174.45 4.1,12.5 4.1,-104.9 4.1,13.51 4.1,-39.24 4.1,14.51 4.1,-85.23 4.11,15.43 4.1,141.27 4.09,16.26 4.11,-81.67 4.1,16.86 4.1,10.43 4.1,17.43 4.1,264.46 4.1,17.81 4.1,-103.38 4.1,17.87 4.11,-50.72 4.1,18.02 4.1,115.52 4.1,18.15 4.1,-24.05 4.1,18.14 4.1,117.28 4.11,18.08 4.1,-231.39 4.1,17.96 4.1,245.84 4.1,17.98 4.1,20.36 4.11,17.75 4.1,-35.59 4.1,17.5 4.1,-8.45 4.1,17.29 4.1,-24.39 4.1,17.11 4.11,44.83 4.1,16.93 4.09,90.09 4.1,16.69 4.11,-46.31 4.1,16.39 4.1,-44.77 4.1,16.16 4.1,57.69 4.1,15.96 4.1,96.28 4.11,15.68 4.1,21.81 4.1,15.33 4.1,-144.38 4.1,15.02 4.1,100.5 4.11,14.83 4.1,56.57 4.1,14.53 4.1,23.23 4.1,14.22 4.1,-44.04 4.1,13.91 4.11,164.7 4.1,13.62 4.09,-151.45 4.1,13.25 4.11,33.7 4.1,12.18 4.1,50.03 4.11,8.73 4.09,42.97 4.1,5.57 4.1,-86.21 4.11,2.71 4.1,60.77 4.1,0.15 4.1,-95.4 4.1,-2.18 4.1,76.58 4.11,-4.24 4.1,76.22 4.1,-6.13 4.1,-34.51 4.1,-7.83 4.1,-60.51 4.1,-9.34 4.11,169.26 4.1,-9.71 4.09,-221.62 4.11,-7.31 4.1,-42.19 4.1,-5.01 4.1,72.92 4.11,-2.99 4.09,-60.64 4.1,-1.27 4.1,18.07 4.11,0.3 4.1,94.79 4.1,1.61 4.1,-221.62 4.1,2.76 4.1,244 4.1,3.87 4.11,-331.92 4.1,4.76 4.1,203.27 4.1,4.83 4.1,196.68 4.1,2.09 4.11,-146.75 4.1,-0.44 4.1,-59.95 4.1,-2.65 4.1,131.5 4.1,-4.63 4.1,-48.22 4.11,-6.46 4.1,-21.81 4.09,-8.06 4.1,-1.17 4.11,-9.49 4.1,-1.63 4.1,-10.76 4.1,69.35 4.1,-11.88 4.1,-85.59 4.1,-11.87 4.11,256.57 4.1,-9.02 4.1,-249.8 4.1,-6.67 4.1,48.53 4.1,-4.41 4.11,-208.27 4.1,-2.42 4.1,104.42 4.1,-0.53 4.1,-44.21 4.1,1.06 4.1,38.21 4.11,2.46 4.1,-50.29 4.09,3.69 4.1,-17.46 4.11,4.79 4.1,182.82 4.1,4.82 4.1,-4.41 4.1,2.09 4.1,-92.36 4.1,-0.35 4.11,6.9 4.1,-2.51 4.1,48.85 4.1,-4.46 4.1,-22.28 4.1,-6.24 4.11,-100.02 4.1,-7.78 4.1,-161.66 4.1,-9.1 4.1,164.19 4.1,-10.22 4.1,-97.71 4.11,-11.26 4.1,47.03 4.09,-11.09 4.11,356.86 4.1,-8.09 4.1,-403.48 4.1,-5.68 4.11,-38.82 4.1,-3.18 4.09,112.55 4.1,-1.01 4.11,-154.58 4.1,0.84 4.1,78.56 4.1,2.58 4.1,113.89 4.1,3.98 4.1,-2.95 4.11,5.1 4.1,49.67 4.1,6.07 4.1,-211.32 4.1,5.98 4.1,272.17 4.11,3.31 4.1,-66.63 4.1,0.79 4.1,120.63 4.1,-1.48 4.1,-237.65 4.1,-3.52 4.11,4.13 4.1,-5.25 4.09,-58.9 4.1,-6.79 4.11,103.7 4.1,-8.14 4.1,-187.11 4.1,-9.38 4.1,208.32 4.1,-10.4 4.1,-86.97 4.11,-11.41 4.1,-1.61 4.1,-12.25 4.1,11.08 4.1,-12.98 4.1,40.53 4.11,-13.64 4.1,-209.66 4.1,-14.2 4.1,148.75 4.1,-14.61 4.1,-23.71 4.1,-15.02 4.11,-82.43 4.1,-15.36 4.09,12.34 4.1,-15.6 4.11,-97.26 4.1,-15.8 4.1,104.09 4.1,-15.93 4.1,-113.24 4.1,-16.06 4.1,53.1 4.11,-16.1 4.1,-96.04 4.1,-16.14 4.1,71.13 4.1,-16.13 4.1,-132.4 4.11,-16.11 4.1,76.35 4.1,-16.02 4.1,107.31 4.1,-15.99 4.1,-67.82 4.1,-16.01 4.11,-24.23 4.1,-15.96 4.1,-74.54 4.1,-15.87 4.1,106.59 4.1,-15.76 4.1,-32.93 4.11,-15.7 4.1,1.23 4.09,-15.62 4.1,-125.43 4.11,-15.5 4.1,61.75 4.1,-15.31 4.1,34.45 4.1,-15.18 4.1,-148.421 4.1,-15.043 4.11,-54.57 4.1,-14.782 4.1,133.696 4.1,-14.53 4.1,-62.716 4.1,-14.383 4.11,-35.348 4.1,-14.176 4.1,-130.379 4.1,-13.929 4.1,58.125 4.1,-13.598 4.1,91.231 4.11,-13.364 4.1,-128.574 4.09,-13.191 4.1,46.461 4.11,-12.922 4.1,-28.321 4.1,-12.703 4.1,44.856 4.1,-12.485 4.1,-177.632 4.1,-12.278 4.11,168.953 4.1,-10.656 4.1,-59.633 4.1,-5.672 4.1,-27.718 4.1,-1.266 4.11,8.594 4.1,2.57 4.1,-90.937 4.1,5.918 4.1,79.628 4.1,8.903 4.1,-28.934 4.11,11.375 4.1,99.348 4.09,13.492 4.11,-61.695 4.1,15.215 4.1,157.953 4.1,16.699 4.1,-65.969 4.1,16.742 4.1,3.868 4.1,13.75 4.11,-64.036 4.1,11.047 4.1,182.285 4.1,8.606 4.1,-5.063 4.1,6.278 4.11,-91.989 4.1,4.208 4.1,36.796 4.1,2.391 4.1,152.335 4.1,0.71 4.1,-188.139 4.11,-0.847 4.1,-31.266 4.1,-2.109 4.1,1.847 4.1,-2.004 4.1,169.498 4.1,1.41 4.11,-118.333 4.1,4.199 4.09,10.441 4.1,6.766 4.11,21.293 4.1,8.961 4.1,7.613 4.1,10.832 4.1,-174.398 4.1,12.515 4.1,45.43 4.11,14.172 4.1,111.609 4.1,15.5 4.1,66.73 4.1,16.46 4.1,-38.26 4.11,17.22 4.1,-18.09 4.1,17.92 4.1,-47.04 4.1,18.54 4.1,167.51 4.1,19.05 4.11,199.35 4.1,19.2 4.09,-175.14 4.11,19.18 4.1,-95.56 4.1,19.35 4.1,121.53 4.1,19.52 4.1,13.19 4.1,19.52 4.1,62.1 4.11,19.45 4.1,91.76 4.1,18.37 4.1,-72.2 4.1,14.7 4.1,40.78 4.11,11.39 4.1,-44.74 4.1,8.37 4.1,-18.92 4.1,5.64 4.1,-18.79 4.1,3.2 4.11,185.85 4.1,0.97 4.09,-43.15 4.1,-1.1 4.11,-137.25 4.1,-2.92 4.1,-46.31 4.1,-4.47 4.1,232.52 4.1,-4.82 4.1,-249.92 4.11,-2.21 4.1,86.22 4.1,0.31 4.1,-3.04 4.1,2.41 4.1,83.12 4.11,4.21 4.1,24.54 4.1,5.69 4.1,-17.82 4.1,6.96 4.1,-123.33 4.1,8.13 4.11,149.29 4.1,9.21 4.09,-117.86 4.11,10.05 4.1,70.48 4.1,9.9 4.1,133.94 4.1,6.95 4.1,-64.41 4.1,4.22 4.1,-131.93 4.11,1.8 4.1,130.41 4.1,-0.33 4.1,9.78 4.1,-2.29 4.1,-132.1 4.1,-4.06 4.11,59.52 4.1,-5.56 4.1,77.91 4.1,-6.96 4.1,13.38 4.1,-8.24 4.11,-125 4.1,-8.26 4.1,87.62 4.1,-5.18 4.1,44.27 4.1,-2.61 4.1,-322.67 4.11,-0.28 4.1,123.01 4.09,2.03 4.11,66.18 4.1,3.9 4.1,-83.94 4.1,5.49 4.1,6.7 4.1,6.95 4.1,25.2 4.1,8.2 4.11,105.82 4.1,9.23 4.1,-54.08 4.1,10.03 4.1,12.78 4.1,10.77 4.11,57.32 4.1,11.39 4.1,214.42 4.1,11.8 4.1,-82.7 4.1,11.97 4.1,-106.86 4.11,12.21 4.1,90.21 4.09,12.5 4.11,41.78 4.1,12.62 4.1,-51.01 4.1,12.69 4.11,-108.01 4.09,12.84 4.1,301.49 4.1,12.95 4.11,-223.85 4.1,12.84 4.1,76.62 4.1,12.89 4.1,26.47 4.1,12.85 4.11,14.75 4.1,12.77 4.1,-93.3 4.1,12.71 4.1,102.7 4.1,12.69 4.1,27.52 4.11,12.55 4.1,-93.82 4.1,12.44 4.1,79.51 4.1,12.37 4.1,49.78 4.1,11.37 4.11,-68.16 4.09,7.98 4.1,-25.02 4.11,4.95 4.1,52.54 4.1,2.21 4.1,57.47 4.1,-0.29 4.1,-135.32 4.1,-2.56 4.1,21.2 4.11,-4.53 4.1,-17.06 4.1,-6.31 4.1,182.07 4.1,-7.92 4.1,-77.23 4.11,-9.41 4.1,23.7 4.1,-10.72 4.1,23.85 4.1,-11.89 4.1,-211.37 4.1,-12.91 4.11,48.4 4.1,-13.71 4.09,97.52 4.1,-14.47 4.11,-121.22 4.1,-15.16 4.1,208.91 4.1,-15.73 4.1,-266.74 4.1,-16.28 4.1,-166.02 4.11,-16.61 4.1,145.16 4.1,-16.82 4.1,245.98 4.1,-16.07 4.1,-109.95 4.11,-12.5 4.1,-176.62 4.1,-9.23 4.1,222.18 4.1,-6.28 4.1,-147.86 4.1,-3.88 4.11,3.93 4.1,-1.65 4.09,-34.79 4.11,0.33 4.1,91.91 4.1,2.05 4.1,-123.66 4.1,3.5 4.1,-45.19 4.1,4.9 4.1,64.02 4.11,5.19 4.1,-51.42 4.1,2.63 4.1,81.36 4.1,0.34 4.1,42.77 4.11,-1.77 4.1,-110.47 4.1,-3.66 4.1,-119.36 4.1,-5.28 4.1,422.69 4.1,-6.74 4.11,-326.53 4.1,-8.18 4.09,-12.18 4.11,-9.3 4.1,-88.48 4.1,-10.29 0.97,58.42" /></g></g></svg>