<?xml version="1.0" encoding="UTF-8" standalone="no"?>
<svg
   xmlns:dc="http://purl.org/dc/elements/1.1/"
   xmlns:cc="http://creativecommons.org/ns#"
   xmlns:rdf="http://www.w3.org/1999/02/22-rdf-syntax-ns#"
   xmlns:svg="http://www.w3.org/2000/svg"
   xmlns="http://www.w3.org/2000/svg"
   viewBox="0 0 1200 500"
   height="500"
   width="1200"
   xml:space="preserve"
   id="svg2"
   version="1.1"><metadata
     id="metadata8"><rdf:RDF><cc:Work
         rdf:about=""><dc:format>image/svg+xml</dc:format><dc:type
           rdf:resource="http://purl.org/dc/dcmitype/StillImage" /></cc:Work></rdf:RDF></metadata><defs
     id="defs6" /><g
     transform="matrix(1.3333333,0,0,-1.3333333,0,500)"
     id="g10"><g
       transform="scale(0.1)"
       id="g12"><path
         id="path14"
         style="fill:#ffffff;fill-opacity:1;fill-rule:nonzero;stroke:none"
         d="M 0,0 H 9000 V 3750 H 0 Z" /><path
         id="path16"
         style="fill:#ffffff;fill-opacity:1;fill-rule:nonzero;stroke:none"
         d="M 0,0 H 9000 V 3750 H 0 Z" /><path
         id="path18"
         style="fill:#ffffff;fill-opacity:1;fill-rule:nonzero;stroke:none"
         d="M 1395,600 H 8595 V 3412.5 H 1395 Z" /><path
         id="path20"
         style="fill:none;stroke:#262626;stroke-width:5.00250006;stroke-linecap:square;stroke-linejoin:round;stroke-miterlimit:10;stroke-dasharray:none;stroke-opacity:1"
         d="M 1395,600 H 8595" /><path
         id="path22"
         style="fill:none;stroke:#262626;stroke-width:5.00250006;stroke-linecap:square;stroke-linejoin:round;stroke-miterlimit:10;stroke-dasharray:none;stroke-opacity:1"
         d="M 1395,3412.5 H 8595" /><path
         id="path24"
         style="fill:none;stroke:#262626;stroke-width:5.00250006;stroke-linecap:square;stroke-linejoin:round;stroke-miterlimit:10;stroke-dasharray:none;stroke-opacity:1"
         d="m 1395,600 v 72" /><path
         id="path26"
         style="fill:none;stroke:#262626;stroke-width:5.00250006;stroke-linecap:square;stroke-linejoin:round;stroke-miterlimit:10;stroke-dasharray:none;stroke-opacity:1"
         d="m 2297.26,600 v 72" /><path
         id="path28"
         style="fill:none;stroke:#262626;stroke-width:5.00250006;stroke-linecap:square;stroke-linejoin:round;stroke-miterlimit:10;stroke-dasharray:none;stroke-opacity:1"
         d="m 3199.52,600 v 72" /><path
         id="path30"
         style="fill:none;stroke:#262626;stroke-width:5.00250006;stroke-linecap:square;stroke-linejoin:round;stroke-miterlimit:10;stroke-dasharray:none;stroke-opacity:1"
         d="m 4101.77,600 v 72" /><path
         id="path32"
         style="fill:none;stroke:#262626;stroke-width:5.00250006;stroke-linecap:square;stroke-linejoin:round;stroke-miterlimit:10;stroke-dasharray:none;stroke-opacity:1"
         d="m 5004.02,600 v 72" /><path
         id="path34"
         style="fill:none;stroke:#262626;stroke-width:5.00250006;stroke-linecap:square;stroke-linejoin:round;stroke-miterlimit:10;stroke-dasharray:none;stroke-opacity:1"
         d="m 5906.28,600 v 72" /><path
         id="path36"
         style="fill:none;stroke:#262626;stroke-width:5.00250006;stroke-linecap:square;stroke-linejoin:round;stroke-miterlimit:10;stroke-dasharray:none;stroke-opacity:1"
         d="m 6808.54,600 v 72" /><path
         id="path38"
         style="fill:none;stroke:#262626;stroke-width:5.00250006;stroke-linecap:square;stroke-linejoin:round;stroke-miterlimit:10;stroke-dasharray:none;stroke-opacity:1"
         d="m 7710.79,600 v 72" /><path
         id="path40"
         style="fill:none;stroke:#262626;stroke-width:5.00250006;stroke-linecap:square;stroke-linejoin:round;stroke-miterlimit:10;stroke-dasharray:none;stroke-opacity:1"
         d="m 1395,3412.5 v -72" /><path
         id="path42"
         style="fill:none;stroke:#262626;stroke-width:5.00250006;stroke-linecap:square;stroke-linejoin:round;stroke-miterlimit:10;stroke-dasharray:none;stroke-opacity:1"
         d="m 2297.26,3412.5 v -72" /><path
         id="path44"
         style="fill:none;stroke:#262626;stroke-width:5.00250006;stroke-linecap:square;stroke-linejoin:round;stroke-miterlimit:10;stroke-dasharray:none;stroke-opacity:1"
         d="m 3199.52,3412.5 v -72" /><path
         id="path46"
         style="fill:none;stroke:#262626;stroke-width:5.00250006;stroke-linecap:square;stroke-linejoin:round;stroke-miterlimit:10;stroke-dasharray:none;stroke-opacity:1"
         d="m 4101.77,3412.5 v -72" /><path
         id="path48"
         style="fill:none;stroke:#262626;stroke-width:5.00250006;stroke-linecap:square;stroke-linejoin:round;stroke-miterlimit:10;stroke-dasharray:none;stroke-opacity:1"
         d="m 5004.02,3412.5 v -72" /><path
         id="path50"
         style="fill:none;stroke:#262626;stroke-width:5.00250006;stroke-linecap:square;stroke-linejoin:round;stroke-miterlimit:10;stroke-dasharray:none;stroke-opacity:1"
         d="m 5906.28,3412.5 v -72" /><path
         id="path52"
         style="fill:none;stroke:#262626;stroke-width:5.00250006;stroke-linecap:square;stroke-linejoin:round;stroke-miterlimit:10;stroke-dasharray:none;stroke-opacity:1"
         d="m 6808.54,3412.5 v -72" /><path
         id="path54"
         style="fill:none;stroke:#262626;stroke-width:5.00250006;stroke-linecap:square;stroke-linejoin:round;stroke-miterlimit:10;stroke-dasharray:none;stroke-opacity:1"
         d="m 7710.79,3412.5 v -72" /><g
         transform="scale(10)"
         id="g56"><text
           id="text60"
           style="font-variant:normal;font-weight:normal;font-size:20.00020027px;font-family:Helvetica;-inkscape-font-specification:Helvetica;writing-mode:lr-tb;fill:#262626;fill-opacity:1;fill-rule:nonzero;stroke:none"
           transform="matrix(1,0,0,-1,133.5,33)"><tspan
             id="tspan58"
             y="0"
             x="0 90.225105 174.82574 185.94586 265.05084 276.17096 355.27637 366.39645 445.50146 456.62155 535.72693 546.84705 625.95209 637.07214">05101520253035</tspan></text>
<text
           id="text64"
           style="font-variant:normal;font-weight:normal;font-size:21.99970055px;font-family:Helvetica;-inkscape-font-specification:Helvetica;writing-mode:lr-tb;fill:#262626;fill-opacity:1;fill-rule:nonzero;stroke:none"
           transform="matrix(1,0,0,-1,449.625,5)"><tspan
             id="tspan62"
             y="0"
             x="0 13.441816 25.673651 43.999401 56.231232 68.463066 74.578979 81.904884 92.904732">Tempo (s)</tspan></text>
</g><path
         id="path66"
         style="fill:none;stroke:#262626;stroke-width:5.00250006;stroke-linecap:square;stroke-linejoin:round;stroke-miterlimit:10;stroke-dasharray:none;stroke-opacity:1"
         d="M 1395,600 V 3412.5" /><path
         id="path68"
         style="fill:none;stroke:#262626;stroke-width:5.00250006;stroke-linecap:square;stroke-linejoin:round;stroke-miterlimit:10;stroke-dasharray:none;stroke-opacity:1"
         d="M 8595,600 V 3412.5" /><path
         id="path70"
         style="fill:none;stroke:#262626;stroke-width:5.00250006;stroke-linecap:square;stroke-linejoin:round;stroke-miterlimit:10;stroke-dasharray:none;stroke-opacity:1"
         d="m 1395,925.547 h 72" /><path
         id="path72"
         style="fill:none;stroke:#262626;stroke-width:5.00250006;stroke-linecap:square;stroke-linejoin:round;stroke-miterlimit:10;stroke-dasharray:none;stroke-opacity:1"
         d="m 1395,1295.39 h 72" /><path
         id="path74"
         style="fill:none;stroke:#262626;stroke-width:5.00250006;stroke-linecap:square;stroke-linejoin:round;stroke-miterlimit:10;stroke-dasharray:none;stroke-opacity:1"
         d="m 1395,1665.24 h 72" /><path
         id="path76"
         style="fill:none;stroke:#262626;stroke-width:5.00250006;stroke-linecap:square;stroke-linejoin:round;stroke-miterlimit:10;stroke-dasharray:none;stroke-opacity:1"
         d="m 1395,2035.09 h 72" /><path
         id="path78"
         style="fill:none;stroke:#262626;stroke-width:5.00250006;stroke-linecap:square;stroke-linejoin:round;stroke-miterlimit:10;stroke-dasharray:none;stroke-opacity:1"
         d="m 1395,2404.94 h 72" /><path
         id="path80"
         style="fill:none;stroke:#262626;stroke-width:5.00250006;stroke-linecap:square;stroke-linejoin:round;stroke-miterlimit:10;stroke-dasharray:none;stroke-opacity:1"
         d="m 1395,2774.79 h 72" /><path
         id="path82"
         style="fill:none;stroke:#262626;stroke-width:5.00250006;stroke-linecap:square;stroke-linejoin:round;stroke-miterlimit:10;stroke-dasharray:none;stroke-opacity:1"
         d="m 1395,3144.64 h 72" /><path
         id="path84"
         style="fill:none;stroke:#262626;stroke-width:5.00250006;stroke-linecap:square;stroke-linejoin:round;stroke-miterlimit:10;stroke-dasharray:none;stroke-opacity:1"
         d="m 8595,925.547 h -72" /><path
         id="path86"
         style="fill:none;stroke:#262626;stroke-width:5.00250006;stroke-linecap:square;stroke-linejoin:round;stroke-miterlimit:10;stroke-dasharray:none;stroke-opacity:1"
         d="m 8595,1295.39 h -72" /><path
         id="path88"
         style="fill:none;stroke:#262626;stroke-width:5.00250006;stroke-linecap:square;stroke-linejoin:round;stroke-miterlimit:10;stroke-dasharray:none;stroke-opacity:1"
         d="m 8595,1665.24 h -72" /><path
         id="path90"
         style="fill:none;stroke:#262626;stroke-width:5.00250006;stroke-linecap:square;stroke-linejoin:round;stroke-miterlimit:10;stroke-dasharray:none;stroke-opacity:1"
         d="m 8595,2035.09 h -72" /><path
         id="path92"
         style="fill:none;stroke:#262626;stroke-width:5.00250006;stroke-linecap:square;stroke-linejoin:round;stroke-miterlimit:10;stroke-dasharray:none;stroke-opacity:1"
         d="m 8595,2404.94 h -72" /><path
         id="path94"
         style="fill:none;stroke:#262626;stroke-width:5.00250006;stroke-linecap:square;stroke-linejoin:round;stroke-miterlimit:10;stroke-dasharray:none;stroke-opacity:1"
         d="m 8595,2774.79 h -72" /><path
         id="path96"
         style="fill:none;stroke:#262626;stroke-width:5.00250006;stroke-linecap:square;stroke-linejoin:round;stroke-miterlimit:10;stroke-dasharray:none;stroke-opacity:1"
         d="m 8595,3144.64 h -72" /><g
         transform="scale(10)"
         id="g98"><text
           id="text114"
           style="font-variant:normal;font-weight:normal;font-size:20.00020027px;font-family:Helvetica;-inkscape-font-specification:Helvetica;writing-mode:lr-tb;fill:#262626;fill-opacity:1;fill-rule:nonzero;stroke:none"
           transform="matrix(1,0,0,-1,110.25,84.3043)"><tspan
             id="tspan100"
             y="0"
             x="0 11.120111">30</tspan><tspan
             id="tspan102"
             y="-36.985199"
             x="0 11.120111">32</tspan><tspan
             id="tspan104"
             y="-73.970001"
             x="0 11.120111">34</tspan><tspan
             id="tspan106"
             y="-110.9552"
             x="0 11.120111">36</tspan><tspan
             id="tspan108"
             y="-147.94"
             x="0 11.120111">38</tspan><tspan
             id="tspan110"
             y="-184.9252"
             x="0 11.120111">40</tspan><tspan
             id="tspan112"
             y="-221.91"
             x="0 11.120111">42</tspan></text>
<text
           id="text118"
           style="font-variant:normal;font-weight:normal;font-size:21.99970055px;font-family:Helvetica;-inkscape-font-specification:Helvetica;writing-mode:lr-tb;fill:#262626;fill-opacity:1;fill-rule:nonzero;stroke:none"
           transform="matrix(0,1,1,0,102,147.375)"><tspan
             id="tspan116"
             y="0"
             x="0 14.6738 19.557734 25.673651 37.905483 45.231384 57.463215 63.579132 70.905029 81.904884 100.23064">Altura (cm)</tspan></text>
</g><g
         transform="scale(10)"
         id="g120"><text
           id="text124"
           style="font-variant:normal;font-weight:bold;font-size:21.99970055px;font-family:Helvetica;-inkscape-font-specification:Helvetica-Bold;writing-mode:lr-tb;fill:#000000;fill-opacity:1;fill-rule:nonzero;stroke:none"
           transform="matrix(1,0,0,-1,298.125,350.625)"><tspan
             id="tspan122"
             y="0"
             x="0 15.883783 28.115616 40.34745 53.789265 67.231087 79.462914 86.788818 99.020653 105.13657 117.3684 123.48431 135.71616 147.94798 160.17981 172.41165 185.85347 198.0853 206.64319 212.75909 224.99094 231.10684 244.54866 257.99048 264.10638 283.66412 297.10596 310.54776 322.7796 328.89551 342.33734 348.45325 364.33704 380.22083 394.89462">Resposta à escadaria do modelo ARX1</tspan></text>
</g><path
         id="path126"
         style="fill:none;stroke:#0072bd;stroke-width:9.99750042;stroke-linecap:butt;stroke-linejoin:miter;stroke-miterlimit:10;stroke-dasharray:none;stroke-opacity:1"
         d="m 1395,993.906 h 9.02 v -19.011 h 9.03 v -8.227 h 9.02 v 153.302 h 9.02 V 924.613 h 9.02 V 949.5 h 9.03 v 17.488 h 9.02 v 3.723 h 9.02 v -1.313 h 9.02 v -79.367 h 9.03 v 99.496 h 9.02 v -12.261 h 9.02 V 731.648 h 9.02 v 63.961 h 9.03 v 187.895 h 9.02 v -41.82 h 9.02 v -23.071 h 9.02 v -3.359 h 9.03 v 2.445 h 9.02 v 79.817 h 9.02 v -99.481 h 9.02 V 670.816 h 9.03 v 314.7 h 9.02 v -35.868 h 9.02 v -267.14 h 9.02 v 220.5 h 9.03 v 143.072 h 9.02 V 908.648 h 9.02 v -1.937 h 9.02 v 86.902 h 9.03 v -95.465 h 9.02 v 12.801 h 9.02 v 86.422 h 9.02 v -20.113 h 9.03 V 810.082 h 9.02 V 692.137 h 9.02 v 304.14 h 9.02 v 32.743 h 9.03 V 659.504 h 9.02 v 72.848 h 9.02 v 40.101 h 9.02 v 166.27 h 9.03 v -48.871 h 9.02 v 56.695 h 9.02 v -23.731 h 9.02 v 71.645 h 9.03 v -20.594 h 9.02 V 729.238 h 9.02 v -14.812 h 9.02 v 52.269 h 9.03 v 12.024 h 9.02 v -3.512 h 9.02 V 931.98 h 9.02 v -45.699 h 9.02 V 787.32 h 9.03 v -59.379 h 9.02 v 34.93 h 9.02 v 172.223 h 9.02 v 111.816 h 9.03 V 664.082 h 9.02 v 67.273 h 9.02 v 357.385 h 9.02 v -81.63 h 9.03 V 807.996 h 9.02 v 117.445 h 9.02 v 79.949 h 9.02 v -26.964 h 9.04 V 809.234 h 9.02 v 121.727 h 9.02 v 76.749 h 9.02 v -29.179 h 9.03 V 808.883 h 9.02 V 691.371 h 9.02 v 225.805 h 9.02 V 814.172 h 9.03 v 1.406 h 9.02 v 4.09 h 9.02 v 160.379 h 9.02 v 111.313 h 9.03 v -62.58 h 9.02 v -97.264 h 9.02 v 176.924 h 9.02 v -29.25 h 9.03 v -92.803 h 9.02 V 927.93 h 9.02 v 32.402 h 9.02 v 88.338 h 9.02 v -99.307 h 9.03 v -68.074 h 9.02 v 107.684 h 9.02 v -10.45 h 9.02 V 732.316 h 9.03 v 63.383 h 9.02 v 28.977 h 9.02 v 161.101 h 9.02 v 183.833 h 9.03 v 64.82 h 9.02 v 2.88 h 9.02 v -111.54 h 9.02 V 991.461 h 9.03 v -21.215 h 9.02 v 42.714 h 9.02 V 867.051 h 9.02 V 748.5 h 9.03 v 296.68 h 9.02 v -46.504 h 9.02 v -29.953 h 9.02 V 805.941 h 9.03 V 691.719 h 9.02 v 226.125 h 9.02 v 133.436 h 9.02 v 12.6 h 9.03 v 106.23 h 9.02 v 23.25 h 9.02 v -186.09 h 9.02 V 888.523 h 9.03 v 63.887 h 9.02 v 99.43 h 9.02 V 795.113 h 9.02 V 686.297 h 9.03 v 230.93 h 9.02 v 134.713 h 9.02 V 750.129 h 9.02 v 120.859 h 9.03 v 163.232 h 9.02 v -47.368 h 9.02 V 728.324 h 9.02 V 1029.3 h 9.03 v -34.417 h 9.02 V 891.609 h 9.02 v 16.125 h 9.03 v 243.086 h 9.02 v 13.55 h 9.02 v -49.81 h 9.02 v -87.26 h 9.03 v 100.02 h 9.02 v -8.43 h 9.02 v -7.52 h 9.02 v -2 h 9.03 v 0.39 h 9.02 v 75.43 h 9.02 v -20.66 h 9.02 V 928.41 h 9.03 v -14.722 h 9.02 V 646.281 h 9.02 v 260.364 h 9.02 v 69.234 h 9.03 v 189.391 h 9.02 v -6.04 h 9.02 v -49.52 h 9.02 v 66.85 h 9.03 v -90.88 h 9.02 V 948.922 h 9.02 v -182.75 h 9.02 V 609.246 h 9.03 v 257.91 h 9.02 v 141.134 h 9.02 V 781.941 h 9.02 v 17.332 h 9.03 v 177.235 h 9.02 v -38.664 h 9.02 v -19.785 h 9.02 v -2.391 h 9.03 v 234.222 h 9.02 v 12.68 h 9.02 V 1038.2 h 9.02 v 10.15 h 9.03 v -63.983 h 9.02 V 854.211 h 9.02 V 827.34 h 9.02 V 707.25 h 9.03 v 53.566 h 9.02 v 255.864 h 9.02 V 789.652 h 9.02 v -68.953 h 9.03 v 38.446 h 9.02 v 254.445 h 9.02 V 788.527 h 9.02 v 171.602 h 9.03 v -27.938 h 9.02 V 1150.2 h 9.02 v -142.52 h 9.02 v -82.239 h 9.03 v 259.539 h 9.02 V 983.094 h 9.02 v -61.328 h 9.02 V 640.547 h 9.02 v 101.625 h 9.03 v 38.055 h 9.02 v -0.09 h 9.02 v -6.61 h 9.02 v 157.442 h 9.03 V 806.316 h 9.02 v -77.375 h 9.02 v 31.11 h 9.02 v 13.117 h 9.03 v 0.645 h 9.02 v 315.557 h 9.02 v 64.49 h 9.02 v 69.5 h 9.04 v -61.78 h 9.02 v -131.49 h 9.02 v -15.19 h 9.02 V 825.531 h 9.03 v 231.739 h 9.02 v 134.91 h 9.02 v 87.42 h 9.02 v 81.04 h 9.03 v -132.91 h 9.02 v 294.74 h 9.02 v 344.39 h 9.02 v -211.84 h 9.03 v 34 h 9.02 v 379.64 h 9.02 v 18.55 h 9.02 v -141.1 h 9.03 v 62.35 h 9.02 v 57.56 h 9.02 v -18.51 h 9.02 v -130.96 h 9.02 v -28.49 h 9.03 v -29.79 h 9.02 v 89.87 h 9.02 v -74.89 h 9.02 v 257.64 h 9.03 v -64.09 h 9.02 v -152.6 h 9.02 v -30.55 h 9.02 v -26.99 h 9.03 v 154.17 h 9.02 v 94.8 h 9.02 v -51.53 h 9.02 v -17.78 h 9.03 V 2098 h 9.02 v -13.53 h 9.02 v -66.83 h 9.02 v 16.57 h 9.03 v 8.18 h 9.02 v -122.7 h 9.02 v -29.31 h 9.02 v 217.94 h 9.03 v -43.46 h 9.02 v -24.06 h 9.02 v -3.54 h 9.02 v 2.54 h 9.03 v -184.5 h 9.02 v -11.1 h 9.02 v 165.82 h 9.02 v 97.39 h 9.03 v -52.36 h 9.02 v -18.6 h 9.02 v 0.52 h 9.02 v 64.37 h 9.03 V 1838.7 h 9.02 v 124.16 h 9.02 v 135.25 h 9.02 v -162.77 h 9.03 v -47.4 h 9.02 v 216.57 h 9.02 v -40.97 h 9.02 v -84.2 h 9.03 v -110.98 h 9.02 v 169.23 h 9.02 v -142.32 h 9.03 v -43.42 h 9.02 v 154.78 h 9.02 v 36.4 h 9.02 v -33.11 h 9.03 v -198.33 h 9.02 v 179.21 h 9.02 v -10.16 h 9.02 v -138.89 h 9.03 v 156.77 h 9.02 v 104.05 h 9.02 v -47.75 h 9.02 v -141.23 h 9.03 v 96.61 h 9.02 v 0.72 h 9.02 v -67.26 h 9.02 v -111.18 h 9.03 v 168.18 h 9.02 v 42.98 h 9.02 v -32.41 h 9.02 v -73.21 h 9.03 v -108.18 h 9.02 v 232.67 h 9.02 v 25.72 h 9.02 V 1862.1 h 9.03 v 164.88 h 9.02 v -135.5 h 9.02 v -39.53 h 9.02 v -34.46 h 9.03 v 278.62 h 9.02 v -188.08 h 9.02 v 65.51 h 9.02 v 56 h 9.03 v -82.18 h 9.02 v -116.4 h 9.02 v 42.42 h 9.02 v 204.93 h 9.03 V 1901.7 h 9.02 v 72.01 h 9.02 v 57 h 9.02 v -82.84 h 9.03 v -116.88 h 9.02 v 168.26 h 9.02 v -18.08 h 9.02 v -140.64 h 9.03 v 157.34 h 9.02 v 43.11 h 9.02 v -92.58 h 9.02 v -118.93 h 9.03 v 231.07 h 9.02 v -96.73 h 9.02 v -130.66 h 9.02 v 164.33 h 9.03 v 44.59 h 9.02 v -219.04 h 9.02 v -22.36 h 9.02 v 230.64 h 9.02 v 20.39 h 9.03 v -166.82 h 9.02 v -40.23 h 9.02 v -29.36 h 9.02 v 218.99 h 9.03 v -108.5 h 9.02 v -70.53 h 9.02 v 147.66 h 9.02 v 37.84 h 9.03 v -155.99 h 9.02 v -38.28 h 9.02 v 159.5 h 9.02 v -87.07 h 9.04 v -61.93 h 9.02 v 21.98 h 9.02 v 197.42 h 9.02 v -176.53 h 9.03 v -52.59 h 9.02 v 156.47 h 9.02 v -23.32 h 9.02 v -141 h 9.03 v 32.14 h 9.02 v 204.47 h 9.02 v -50.3 h 9.02 v -149.31 h 9.03 v 156.87 h 9.02 v -16.62 h 9.02 v -137.02 h 9.02 v -31.35 h 9.03 v 159.4 h 9.02 v -88.31 h 9.02 v -62.48 h 9.02 v 209.96 h 9.02 v 18.69 h 9.03 v -225.43 h 9.02 v 166.42 h 9.02 v -10.16 h 9.02 v -135.72 h 9.03 v -95.73 h 9.02 v 240.59 h 9.02 v -161.79 h 9.02 v 137.13 h 9.03 v 37.48 h 9.02 v -29.58 h 9.02 v -196.9 h 9.02 v 116.59 h 9.03 v 131.81 h 9.02 v 21.29 h 9.02 v -35.87 h 9.02 v -195.32 h 9.03 v 53.83 h 9.02 v 211.17 h 9.02 v -49.66 h 9.02 v -212 h 9.03 v 111.23 h 9.02 v 192.48 h 9.02 v -116.52 h 9.02 v -132.2 h 9.03 v 163.17 h 9.02 v 45.32 h 9.02 v -277.24 h 9.02 v 120.75 h 9.03 v 136.21 h 9.02 v -224.4 h 9.02 v 157.75 h 9.02 v -76.39 h 9.03 v -56.77 h 9.02 V 2044 h 9.02 v 96.44 h 9.02 v -233.42 h 9.03 v -28.41 h 9.02 v 226.5 h 9.02 v -101.19 h 9.02 v -131.48 h 9.03 v 224.29 h 9.02 v -34.09 h 9.02 v -144.46 h 9.03 v 154.28 h 9.02 v -17.58 h 9.02 v -136.06 h 9.02 v -30.24 h 9.03 v 2.67 h 9.02 v 167.72 h 9.02 v 95.89 h 9.02 v 7.55 h 9.03 v 24.62 h 9.02 v 212.44 h 9.02 v 45 h 9.02 v -58.17 h 9.03 v 209.65 h 9.02 v 416.53 h 9.02 v -154.86 h 9.02 v -159.91 h 9.03 v 28.83 h 9.02 v 175.32 h 9.02 v 209.15 h 9.02 V 2826.4 h 9.03 v -78.39 h 9.02 v 52.03 h 9.02 v 119.94 h 9.02 v 21.57 h 9.03 v -129.11 h 9.02 v -81.99 h 9.02 v 193.12 h 9.02 v -77.31 h 9.03 v -55.17 h 9.02 V 2908 h 9.02 v 78.87 h 9.02 v 201.46 h 9.03 v 150.2 h 9.02 V 3062.2 h 9.02 v 24.17 h 9.02 v 72.25 h 9.03 v -5.3 h 9.02 v -53.04 h 9.02 v -83.29 h 9.02 v -161.08 h 9.03 v 65.77 h 9.02 v -176.33 h 9.02 v 3.84 h 9.02 v 135.37 h 9.03 v 77.26 h 9.02 v -43.19 h 9.02 v -15.2 h 9.02 v -49.2 h 9.03 v 212.93 h 9.02 v 142.47 h 9.02 v -217.77 h 9.02 v -33.93 h 9.03 v 31.94 h 9.02 v -134.72 h 9.02 v -9.01 h 9.02 v 128.33 h 9.02 v -70.69 h 9.03 v -0.48 h 9.02 v 101.24 h 9.02 v 22.69 h 9.02 v -171.7 h 9.03 v 132.15 h 9.02 v -57.25 h 9.02 v -94.39 h 9.02 v 178.52 h 9.03 v 67.99 h 9.02 v -189.51 h 9.02 v 74.64 h 9.02 v 148.98 h 9.04 v -186.13 h 9.02 v 21.03 h 9.02 v 15.86 h 9.02 v -194.27 h 9.03 v 3.42 h 9.02 v 285.2 h 9.02 v -209.72 h 9.02 v 8.15 h 9.03 v 161.18 h 9.02 v -184.19 h 9.02 v 23.17 h 9.02 v 114.79 h 9.03 v -73.51 h 9.02 v -49.13 h 9.02 v 165.71 h 9.02 v -82.2 h 9.03 v -102.68 h 9.02 v 179.01 h 9.02 v -75.71 h 9.02 V 2734 h 9.02 v 257.96 h 9.03 v -29.62 h 9.02 v -221.82 h 9.02 v 151.05 h 9.02 v -2.46 h 9.03 v -109.75 h 9.02 v 74.77 h 9.02 v 97.7 h 9.02 v -132.31 h 9.03 v 13.9 h 9.02 v 209.19 h 9.02 v -200.06 h 9.02 v -84.04 h 9.03 v 388.51 h 9.02 v -127.57 h 9.02 v -274.52 h 9.02 v 363.39 h 9.03 v -47.14 h 9.02 v -226.04 h 9.02 v 97.11 h 9.02 v 109.59 h 9.03 v -175.92 h 9.02 v 25.88 h 9.02 v 162.46 h 9.02 v -135.25 h 9.03 v -191.63 h 9.02 v 165.65 h 9.02 v -0.98 h 9.02 v -162.56 h 9.03 v 37.3 h 9.02 v 169.52 h 9.02 v -191.99 h 9.02 v -29.78 h 9.03 v 183.01 h 9.02 v -237.56 h 9.02 v -67.28 h 9.02 v 360.54 h 9.03 V 2730.2 h 9.02 v -314.13 h 9.02 v 367.25 h 9.02 v 21.31 h 9.03 v -471.67 h 9.02 v 321.99 h 9.02 v -61.78 h 9.03 v -114.04 h 9.02 v 297.29 h 9.02 v 42.86 h 9.02 v -111.96 h 9.03 v -106.88 h 9.02 v 195.27 h 9.02 v -78.3 h 9.02 v -108.28 h 9.03 v 136.99 h 9.02 v 37.08 h 9.02 v -182.84 h 9.02 v 139.7 h 9.03 v 93.28 h 9.02 v -38.51 h 9.02 v -66.6 h 9.02 v 65.37 h 9.03 v -161.17 h 9.02 v 142.76 h 9.02 v -115.53 h 9.02 v -195.98 h 9.03 v 229.87 h 9.02 v 139.08 h 9.02 v -166.66 h 9.02 v -48.28 h 9.03 v 183.67 h 9.02 v -136.63 h 9.02 v -42.21 h 9.02 v 181.27 h 9.03 v -86.49 h 9.02 v -56.85 h 9.02 v 275.11 h 9.02 v -113.32 h 9.03 v -382.17 h 9.02 v 316.89 h 9.02 v -10.67 h 9.02 v -21.49 h 9.03 v 196.74 h 9.02 v -158.4 h 9.02 v -256.53 h 9.02 v 345.6 h 9.03 v 262.54 h 9.02 v -112.82 h 9.02 V 2860.6 h 9.02 v 26.94 h 9.03 v 165.69 h 9.02 v -85.1 h 9.02 v -203.49 h 9.02 v 7.91 h 9.03 v -10.57 h 9.02 v -81.01 h 9.02 V 2500.6 h 9.02 v -39.96 h 9.03 v 270.52 h 9.02 v 5.28 h 9.02 v -97.12 h 9.02 v 211.2 h 9.02 v 1.66 h 9.03 v -190 h 9.02 v 138.58 h 9.02 v -7.42 h 9.02 v -8.77 h 9.03 v -2.74 h 9.02 v 0.26 h 9.02 v 0.59 h 9.02 v 0.23 h 9.03 v 0 h 9.02 v -0.03 h 9.02 v 101.48 h 9.02 v -78.76 h 9.04 v -49.13 h 9.02 v 219.3 h 9.02 v -113.13 h 9.02 v -358.08 h 9.03 v 27.37 h 9.02 v 213.66 h 9.02 v -186.26 h 9.02 v -193.56 h 9.03 V 2217.2 h 9.02 v -198.31 h 9.02 V 1762.2 h 9.02 v -385.86 h 9.03 v -21.19 h 9.02 v -25.44 h 9.02 v -157.32 h 9.02 V 863.699 h 9.03 v -111.59 h 9.02 v 27.606 h 9.02 v -32.102 h 9.02 v 25.586 h 9.02 v 2.774 h 9.03 v -3.141 h 9.02 v 392.898 h 9.02 v 42.07 h 9.02 v -14.74 h 9.03 v -116.75 h 9.02 v 92.57 h 9.02 v -6.05 h 9.02 v -5.29 h 9.03 v -76.29 h 9.02 V 950.176 h 9.02 v -25.598 h 9.02 v -37.652 h 9.03 V 678.309 h 9.02 v 73.148 h 9.02 v 26.512 h 9.02 v -82.012 h 9.03 v 99.418 h 9.02 v -14.969 h 9.02 v -90.918 h 9.02 v 262.961 h 9.03 v 22.321 h 9.02 v 28.3 h 9.02 v -34.218 h 9.02 v -6.536 h 9.03 v 2.911 h 9.02 v -75.653 h 9.02 V 672.512 h 9.02 v 75.824 h 9.03 v 29.203 h 9.02 v 239.711 h 9.02 v -71.469 h 9.02 V 755.918 h 9.03 v -38.445 h 9.02 v 46.011 h 9.02 v 13.239 h 9.02 v 237.537 h 9.03 v 162.19 h 9.02 v -18.71 h 9.02 v 24.27 h 9.02 v -27.21 h 9.03 v 216.95 h 9.02 v -57.99 h 9.02 v -170.47 h 9.03 V 804.148 h 9.02 v 126.489 h 9.02 v 48.496 h 9.02 v 0.398 h 9.03 v -8.183 h 9.02 v -3.825 h 9.02 V 730.32 h 9.02 v -95.843 h 9.03 v 236.101 h 9.02 V 1005.5 h 9.02 v 11.45 h 9.02 V 812.836 h 9.03 v 113.129 h 9.02 v 78.825 h 9.02 V 899.949 h 9.02 v -69.054 h 9.03 V 700.98 h 9.02 v 56.348 h 9.02 v 100.078 h 9.02 v -103.91 h 9.03 v 8.992 h 9.02 v 88.223 h 9.02 v 293.649 h 9.02 v 54.69 h 9.03 v 141.22 h 9.02 v -303.62 h 9.02 v 115.15 h 9.02 V 934.754 h 9.03 v -15.957 h 9.02 V 807.984 h 9.02 v -26.058 h 9.02 v -42.938 h 9.03 v 29.875 h 9.02 v 6.614 h 9.02 v -2.129 h 9.02 v -83.657 h 9.03 v 22.067 h 9.02 v 91.449 h 9.02 v 217.473 h 9.02 V 784.172 h 9.03 V 956.91 h 9.02 v 52.67 h 9.02 v -34.662 h 9.02 V 646.449 h 9.03 v 89.25 h 9.02 v 40.543 h 9.02 v -78.359 h 9.02 v 98.676 h 9.03 v -97.493 h 9.02 v 12.985 h 9.02 v 8.129 h 9.02 v 1.484 h 9.03 v -0.726 h 9.02 v -0.586 h 9.02 v 81.398 h 9.02 v 137.82 h 9.02 v 102.68 h 9.03 V 821.633 h 9.02 V 686.211 h 9.02 v 305.355 h 9.02 V 949.77 h 9.03 V 841.973 h 9.02 V 697.469 h 9.03 v 56.332 h 9.01 v -59.61 h 9.04 v 104.551 h 9.02 v -98.031 h 9.01 v 93.262 h 9.02 v -15.039 h 9.03 v -8.332 h 9.03 v 238.188 h 9.02 V 784.352 h 9.02 v 174.687 h 9.03 v 51.491 h 9.01 V 896.871 h 9.03 v -68.383 h 9.02 v -47.414 h 9.03 v -46.015 h 9.02 v 192.609 h 9.02 V 730.777 h 9.02 v -58.035 h 9.03 v 38.594 h 9.02 v 94.598 h 9.02 v -23.348 h 9.02 v -12.375 h 9.03 v -83.188 h 9.02 v 105.598 h 9.02 v -11.937 h 9.02 v 230.366 h 9.02 v 9.46 h 9.03 V 813.512 h 9.02 v 190.268 h 9.02 v -99.077 h 9.02 V 753.449 h 9.03 v 50.641 h 9.02 v -59.871 h 9.03 v -58.328 h 9.01 V 796.59 h 9.03 v -13.899 h 9.02 v -92.359 h 9.02 v 101.652 h 9.02 V 779.82 h 9.03 v -8.468 h 9.02 v -83.325 h 9.02 V 953.34 h 9.02 v 100.2 h 9.03 v -72.044 h 9.02 v -22.098 h 9.02 V 1039 h 9.02 v -93.91 h 9.03 v -64.094 h 9.02 V 752.715 h 9.02 v -25.531 h 9.03 v 41.312 h 9.02 v 8.848 h 9.02 v -3.074 h 9.02 v -2.938 h 9.02 v -0.812 h 9.03 v 0.128 h 9.02 v 0.204 h 9.02 v 317.598 h 9.02 v -88.29 h 9.03 v -38.226 h 9.02 v -2.286 h 9.02 v 5.551 h 9.02 v 2.938 h 9.03 v -77.731 h 9.02 v 99.512 h 9.02 V 740.512 h 9.03 v 56.976 h 9.02 v -54.066 h 9.02 v 24.789 h 9.02 v 86.855 h 9.03 v -23.863 h 9.02 v 147.32 h 9.02 v -45.269" /><path
         id="path128"
         style="fill:none;stroke:#ff0000;stroke-width:9.99750042;stroke-linecap:butt;stroke-linejoin:miter;stroke-miterlimit:10;stroke-dasharray:none;stroke-opacity:1"
         d="m 1395,925.547 h 9.02 9.03 9.02 9.02 9.02 9.03 9.02 9.02 9.02 9.03 9.02 9.02 9.02 9.03 9.02 9.02 9.02 9.03 9.02 9.02 9.02 9.03 9.02 9.02 9.02 9.03 9.02 9.02 9.02 9.03 9.02 9.02 9.02 9.03 9.02 9.02 9.02 9.03 9.02 9.02 9.02 9.03 9.02 9.02 9.02 9.03 9.02 9.02 9.02 9.03 9.02 9.02 9.02 9.02 9.03 9.02 9.02 9.02 9.03 9.02 9.02 9.02 9.03 9.02 9.02 9.02 9.04 9.02 9.02 9.02 9.03 9.02 9.02 9.02 9.03 9.02 9.02 9.02 9.03 9.02 9.02 9.02 9.03 9.02 9.02 9.02 9.02 9.03 9.02 9.02 9.02 9.03 9.02 9.02 9.02 9.03 9.02 9.02 9.02 9.03 9.02 9.02 9.02 9.03 9.02 9.02 9.02 9.03 9.02 9.02 9.02 9.03 9.02 9.02 9.02 9.03 9.02 9.02 9.02 9.03 9.02 9.02 9.02 9.03 9.02 9.02 9.02 9.03 9.02 9.02 9.03 9.02 9.02 9.02 9.03 9.02 9.02 9.02 9.03 9.02 9.02 9.02 9.03 9.02 9.02 9.02 9.03 9.02 9.02 9.02 9.03 9.02 9.02 9.02 9.03 9.02 9.02 9.02 9.03 9.02 9.02 9.02 9.03 9.02 9.02 9.02 9.03 9.02 9.02 9.02 9.03 9.02 9.02 9.02 9.03 9.02 9.02 9.02 9.03 9.02 9.02 9.02 9.03 9.02 9.02 9.02 9.02 9.03 9.02 9.02 9.02 9.03 9.02 9.02 9.02 9.03 9.02 9.02 9.02 v 924.623 h 9.04 9.02 9.02 9.02 9.03 9.02 9.02 9.02 9.03 9.02 9.02 9.02 9.03 9.02 9.02 9.02 9.03 9.02 9.02 9.02 9.02 9.03 9.02 9.02 9.02 9.03 9.02 9.02 9.02 9.03 9.02 9.02 9.02 9.03 9.02 9.02 9.02 9.03 9.02 9.02 9.02 9.03 9.02 9.02 9.02 9.03 9.02 9.02 9.02 9.03 9.02 9.02 9.02 9.03 9.02 9.02 9.02 9.03 9.02 9.02 9.02 9.03 9.02 9.02 9.03 9.02 9.02 9.02 9.03 9.02 9.02 9.02 9.03 9.02 9.02 9.02 9.03 9.02 9.02 9.02 9.03 9.02 9.02 9.02 9.03 9.02 9.02 9.02 9.03 9.02 9.02 9.02 9.03 9.02 9.02 9.02 9.03 9.02 9.02 9.02 9.03 9.02 9.02 9.02 9.03 9.02 9.02 9.02 9.03 9.02 9.02 9.02 9.03 9.02 9.02 9.02 9.03 9.02 9.02 9.02 9.02 9.03 9.02 9.02 9.02 9.03 9.02 9.02 9.02 9.03 9.02 9.02 9.02 9.04 9.02 9.02 9.02 9.03 9.02 9.02 9.02 9.03 9.02 9.02 9.02 9.03 9.02 9.02 9.02 9.03 9.02 9.02 9.02 9.02 9.03 9.02 9.02 9.02 9.03 9.02 9.02 9.02 9.03 9.02 9.02 9.02 9.03 9.02 9.02 9.02 9.03 9.02 9.02 9.02 9.03 9.02 9.02 9.02 9.03 9.02 9.02 9.02 9.03 9.02 9.02 9.02 9.03 9.02 9.02 9.02 9.03 9.02 9.02 9.02 9.03 9.02 9.02 9.03 9.02 9.02 v 924.62 h 9.02 9.03 9.02 9.02 9.02 9.03 9.02 9.02 9.02 9.03 9.02 9.02 9.02 9.03 9.02 9.02 9.02 9.03 9.02 9.02 9.02 9.03 9.02 9.02 9.02 9.03 9.02 9.02 9.02 9.03 9.02 9.02 9.02 9.03 9.02 9.02 9.02 9.03 9.02 9.02 9.02 9.03 9.02 9.02 9.02 9.03 9.02 9.02 9.02 9.03 9.02 9.02 9.02 9.02 9.03 9.02 9.02 9.02 9.03 9.02 9.02 9.02 9.03 9.02 9.02 9.02 9.04 9.02 9.02 9.02 9.03 9.02 9.02 9.02 9.03 9.02 9.02 9.02 9.03 9.02 9.02 9.02 9.03 9.02 9.02 9.02 9.02 9.03 9.02 9.02 9.02 9.03 9.02 9.02 9.02 9.03 9.02 9.02 9.02 9.03 9.02 9.02 9.02 9.03 9.02 9.02 9.02 9.03 9.02 9.02 9.02 9.03 9.02 9.02 9.02 9.03 9.02 9.02 9.02 9.03 9.02 9.02 9.02 9.03 9.02 9.02 9.02 9.03 9.02 9.02 9.03 9.02 9.02 9.02 9.03 9.02 9.02 9.02 9.03 9.02 9.02 9.02 9.03 9.02 9.02 9.02 9.03 9.02 9.02 9.02 9.03 9.02 9.02 9.02 9.03 9.02 9.02 9.02 9.03 9.02 9.02 9.02 9.03 9.02 9.02 9.02 9.03 9.02 9.02 9.02 9.03 9.02 9.02 9.02 9.03 9.02 9.02 9.02 9.03 9.02 9.02 9.02 9.03 9.02 9.02 9.02 9.02 9.03 9.02 9.02 9.02 9.03 9.02 9.02 9.02 9.03 9.02 9.02 9.02 9.04 V 925.547 h 9.02 9.02 9.02 9.03 9.02 9.02 9.02 9.03 9.02 9.02 9.02 9.03 9.02 9.02 9.02 9.03 9.02 9.02 9.02 9.02 9.03 9.02 9.02 9.02 9.03 9.02 9.02 9.02 9.03 9.02 9.02 9.02 9.03 9.02 9.02 9.02 9.03 9.02 9.02 9.02 9.03 9.02 9.02 9.02 9.03 9.02 9.02 9.02 9.03 9.02 9.02 9.02 9.03 9.02 9.02 9.02 9.03 9.02 9.02 9.02 9.03 9.02 9.02 9.03 9.02 9.02 9.02 9.03 9.02 9.02 9.02 9.03 9.02 9.02 9.02 9.03 9.02 9.02 9.02 9.03 9.02 9.02 9.02 9.03 9.02 9.02 9.02 9.03 9.02 9.02 9.02 9.03 9.02 9.02 9.02 9.03 9.02 9.02 9.02 9.03 9.02 9.02 9.02 9.03 9.02 9.02 9.02 9.03 9.02 9.02 9.02 9.03 9.02 9.02 9.02 9.03 9.02 9.02 9.02 9.02 9.03 9.02 9.02 9.02 9.03 9.02 9.03 9.01 9.04 9.02 9.01 9.02 9.03 9.03 9.02 9.02 9.03 9.01 9.03 9.02 9.03 9.02 9.02 9.02 9.03 9.02 9.02 9.02 9.03 9.02 9.02 9.02 9.02 9.03 9.02 9.02 9.02 9.03 9.02 9.03 9.01 9.03 9.02 9.02 9.02 9.03 9.02 9.02 9.02 9.03 9.02 9.02 9.02 9.03 9.02 9.02 9.03 9.02 9.02 9.02 9.02 9.03 9.02 9.02 9.02 9.03 9.02 9.02 9.02 9.03 9.02 9.02 9.03 9.02 9.02 9.02 9.03 9.02 9.02 v 0" /><path
         id="path130"
         style="fill:none;stroke:#000000;stroke-width:9.99750042;stroke-linecap:butt;stroke-linejoin:miter;stroke-miterlimit:10;stroke-dasharray:none;stroke-opacity:1"
         d="m 1395,970.254 h 9.02 9.03 9.02 v 100.586 h 9.02 V 970.254 h 9.02 9.03 9.02 9.02 9.02 v -51.09 h 9.03 v 51.09 h 9.02 9.02 V 815.332 h 9.02 9.03 v 103.832 h 9.02 9.02 9.02 9.03 9.02 v 51.09 h 9.02 v -51.09 h 9.02 V 762.578 h 9.03 v 156.586 h 9.02 9.02 V 762.578 h 9.02 v 104.945 h 9.03 v 102.731 h 9.02 v -51.09 h 9.02 9.02 v 51.09 h 9.03 v -51.09 h 9.02 9.02 v 51.09 h 9.02 9.03 V 867.523 h 9.02 V 762.578 h 9.02 v 156.586 h 9.02 v 51.09 h 9.03 V 762.578 h 9.02 9.02 9.02 v 104.945 h 9.03 9.02 v 51.641 h 9.02 9.02 v 51.09 h 9.03 9.02 V 815.332 h 9.02 v -52.754 h 9.02 9.03 9.02 9.02 v 104.945 h 9.02 9.02 v -52.191 h 9.03 v -52.754 h 9.02 9.02 v 104.945 h 9.02 v 102.731 h 9.03 V 762.578 h 9.02 9.02 v 207.676 h 9.02 9.03 V 867.523 h 9.02 v 51.641 h 9.02 v 51.09 h 9.02 9.04 V 867.523 h 9.02 v 51.641 h 9.02 v 51.09 h 9.02 9.03 V 867.523 h 9.02 V 762.578 h 9.02 v 104.945 h 9.02 v -52.191 h 9.03 9.02 9.02 v 103.832 h 9.02 v 101.646 h 9.03 9.02 v -50.556 h 9.02 v 100.586 h 9.02 9.03 v -50.03 h 9.02 v -50.556 h 9.02 9.02 v 50.556 h 9.02 v -50.556 h 9.03 v -51.09 h 9.02 v 51.09 h 9.02 9.02 V 815.332 h 9.03 9.02 9.02 v 103.832 h 9.02 v 151.676 h 9.03 v 98.5 h 9.02 v 48.49 h 9.02 v -48.49 h 9.02 v -98.5 h 9.03 v -50.03 h 9.02 9.02 V 919.164 h 9.02 V 815.332 h 9.03 v 154.922 h 9.02 9.02 9.02 V 867.523 h 9.03 V 762.578 h 9.02 v 104.945 h 9.02 v 102.731 h 9.02 v 50.556 h 9.03 v 99.53 h 9.02 v 49 h 9.02 v -98.5 h 9.02 V 970.254 h 9.03 9.02 v 50.556 h 9.02 V 867.523 h 9.02 V 762.578 h 9.03 v 104.945 h 9.02 v 102.731 h 9.02 V 815.332 h 9.02 v 52.191 h 9.03 v 102.731 h 9.02 9.02 V 815.332 h 9.02 v 154.922 h 9.03 9.02 v -51.09 h 9.02 9.03 v 151.676 h 9.02 v 49.5 h 9.02 9.02 v -49.5 h 9.03 v 49.5 h 9.02 9.02 9.02 9.03 9.02 v 49 h 9.02 9.02 v -148.53 h 9.03 v -50.556 h 9.02 V 762.578 h 9.02 v 104.945 h 9.02 v 51.641 h 9.03 v 151.676 h 9.02 v 49.5 h 9.02 9.02 v 49 h 9.03 v -49 h 9.02 v -99.53 h 9.02 V 867.523 h 9.02 V 709.246 h 9.03 v 106.086 h 9.02 v 103.832 h 9.02 V 815.332 h 9.02 9.03 v 103.832 h 9.02 9.02 9.02 9.03 v 151.676 h 9.02 v 49.5 h 9.02 v -49.5 h 9.02 9.03 v -50.03 h 9.02 V 919.164 h 9.02 v -51.641 h 9.02 V 762.578 h 9.03 9.02 v 156.586 h 9.02 V 815.332 h 9.02 v -52.754 h 9.03 9.02 v 156.586 h 9.02 V 815.332 h 9.02 v 103.832 h 9.03 9.02 v 151.676 h 9.02 v -50.03 h 9.02 v -50.556 h 9.03 v 150.086 h 9.02 v -99.53 h 9.02 v -50.556 h 9.02 V 762.578 h 9.02 9.03 9.02 9.02 9.02 v 104.945 h 9.03 v -52.191 h 9.02 v -52.754 h 9.02 9.02 9.03 9.02 v 207.676 h 9.02 v 100.586 h 9.02 v 98.5 h 9.04 9.02 v -98.5 h 9.02 v -50.03 h 9.02 V 867.523 h 9.03 v 102.731 h 9.02 v 100.586 h 9.02 v 98.5 h 9.02 v 96.49 h 9.03 v -48 h 9.02 v 189.08 h 9.02 v 269.74 h 9.02 v -43.85 h 9.03 v 43.85 h 9.02 v 254.37 h 9.02 v 81.6 h 9.02 v -40.61 h 9.03 v 40.61 h 9.02 v 40.22 h 9.02 9.02 v -80.83 h 9.02 v -40.99 h 9.03 v -41.38 h 9.02 v 41.38 h 9.02 v -41.38 h 9.02 v 163.2 h 9.03 9.02 v -80.83 h 9.02 v -40.99 h 9.02 v -41.38 h 9.03 v 82.37 h 9.02 v 80.83 h 9.02 9.02 9.03 v 39.85 h 9.02 9.02 v -39.85 h 9.02 9.03 9.02 v -80.83 h 9.02 v -40.99 h 9.02 v 121.82 h 9.03 9.02 9.02 9.02 9.03 v -121.82 h 9.02 v -41.38 h 9.02 v 82.37 h 9.02 v 80.83 h 9.03 9.02 9.02 9.02 v 39.85 h 9.03 v -161.67 h 9.02 v 40.99 h 9.02 v 80.83 h 9.02 v -80.83 h 9.03 v -40.99 h 9.02 v 121.82 h 9.02 9.02 v -40.22 h 9.03 v -81.6 h 9.02 v 81.6 h 9.02 v -81.6 h 9.03 v -41.38 h 9.02 v 82.37 h 9.02 v 40.61 h 9.02 9.03 v -122.98 h 9.02 v 82.37 h 9.02 9.02 v -82.37 h 9.03 v 82.37 h 9.02 v 80.83 h 9.02 9.02 v -80.83 h 9.03 v 40.61 h 9.02 9.02 v -40.61 h 9.02 v -82.37 h 9.03 v 82.37 h 9.02 v 40.61 h 9.02 9.02 v -40.61 h 9.03 v -82.37 h 9.02 v 122.98 h 9.02 v 40.22 h 9.02 v -121.82 h 9.03 v 81.6 h 9.02 v -81.6 h 9.02 v -41.38 h 9.02 v -41.78 h 9.03 v 164.76 h 9.02 v -81.6 h 9.02 v 40.99 h 9.02 v 40.61 h 9.03 v -40.61 h 9.02 v -82.37 h 9.02 9.02 v 122.98 h 9.03 v -81.6 h 9.02 v 40.99 h 9.02 v 40.61 h 9.02 v -40.61 h 9.03 v -82.37 h 9.02 v 82.37 h 9.02 9.02 v -82.37 h 9.03 v 82.37 h 9.02 v 40.61 h 9.02 v -40.61 h 9.02 v -82.37 h 9.03 v 122.98 h 9.02 v -40.61 h 9.02 v -82.37 h 9.02 v 82.37 h 9.03 v 40.61 h 9.02 v -122.98 h 9.02 v -41.78 h 9.02 v 124.15 h 9.02 v 40.61 h 9.03 v -81.6 h 9.02 v -41.38 h 9.02 v -41.78 h 9.02 v 124.15 h 9.03 v -40.99 h 9.02 v -41.38 h 9.02 v 82.37 h 9.02 v 40.61 h 9.03 v -81.6 h 9.02 v -41.38 h 9.02 v 82.37 h 9.02 v -40.99 h 9.04 v -41.38 h 9.02 9.02 v 122.98 h 9.02 v -81.6 h 9.03 v -41.38 h 9.02 v 82.37 h 9.02 9.02 v -82.37 h 9.03 9.02 v 122.98 h 9.02 9.02 v -81.6 h 9.03 v 81.6 h 9.02 9.02 v -81.6 h 9.02 v -41.38 h 9.03 v 82.37 h 9.02 v -40.99 h 9.02 v -41.38 h 9.02 v 122.98 h 9.02 v 40.22 h 9.03 v -121.82 h 9.02 v 81.6 h 9.02 9.02 v -81.6 h 9.03 v -83.16 h 9.02 v 124.15 h 9.02 v -82.37 h 9.02 v 82.37 h 9.03 v 40.61 h 9.02 9.02 v -122.98 h 9.02 v 41.38 h 9.03 v 81.6 h 9.02 v 40.22 h 9.02 9.02 v -121.82 h 9.03 9.02 v 121.82 h 9.02 9.02 v -121.82 h 9.03 v 40.99 h 9.02 v 120.68 h 9.02 v -39.85 h 9.02 v -80.83 h 9.03 v 80.83 h 9.02 v 39.85 h 9.02 v -161.67 h 9.02 v 40.99 h 9.03 v 80.83 h 9.02 v -121.82 h 9.02 v 81.6 h 9.02 v -40.61 h 9.03 v -40.99 h 9.02 v 81.6 h 9.02 v 80.07 h 9.02 v -120.68 h 9.03 v -40.99 h 9.02 v 121.82 h 9.02 v -40.22 h 9.02 v -81.6 h 9.03 v 121.82 h 9.02 9.02 v -80.83 h 9.03 v 80.83 h 9.02 9.02 v -80.83 h 9.02 v -40.99 h 9.03 v -41.38 h 9.02 v 82.37 h 9.02 v 80.83 h 9.02 v 39.85 h 9.03 v 39.49 h 9.02 v 154.32 h 9.02 v 75.08 h 9.02 9.03 v 146.15 h 9.02 v 310.64 h 9.02 9.02 v -66.96 h 9.03 9.02 v 100.02 h 9.02 v 161.12 h 9.02 v -128.36 h 9.03 v -65.82 h 9.02 9.02 v 65.82 h 9.02 v 32.5 h 9.03 v -65.26 h 9.02 v -66.39 h 9.02 v 99.15 h 9.02 v -32.76 h 9.03 v -33.06 h 9.02 v 65.82 h 9.02 v 64.72 h 9.02 v 157.16 h 9.03 v 150.83 h 9.02 v -120.17 h 9.02 9.02 v 30.41 h 9.03 9.02 v -30.41 h 9.02 v -61.58 h 9.02 v -126.24 h 9.03 9.02 v -130.54 h 9.02 v -33.33 h 9.02 v 66.39 h 9.03 v 65.26 h 9.02 9.02 9.02 v -32.5 h 9.03 v 128.36 h 9.02 v 124.18 h 9.02 v -92.75 h 9.02 v -31.43 h 9.03 9.02 v -95.86 h 9.02 v -32.5 h 9.02 v 64.72 h 9.02 v -32.22 h 9.03 9.02 v 64.17 h 9.02 v 31.69 h 9.02 v -95.86 h 9.03 v 64.17 h 9.02 v -31.95 h 9.02 v -64.72 h 9.02 v 96.67 h 9.03 v 63.12 h 9.02 v -95.07 h 9.02 v 31.95 h 9.02 v 94.29 h 9.04 v -94.29 h 9.02 9.02 9.02 v -129.43 h 9.03 v -33.06 h 9.02 v 162.49 h 9.02 v -96.67 h 9.02 9.03 v 96.67 h 9.02 v -96.67 h 9.02 9.02 v 64.72 h 9.03 v -32.22 h 9.02 v -32.5 h 9.02 v 96.67 h 9.02 v -31.95 h 9.03 v -64.72 h 9.02 v 96.67 h 9.02 v -31.95 h 9.02 v -130.54 h 9.02 v 130.54 h 9.03 9.02 v -130.54 h 9.02 v 65.82 h 9.02 9.03 v -65.82 h 9.02 v 33.06 h 9.02 v 65.26 h 9.02 v -65.26 h 9.03 9.02 v 129.43 h 9.02 v -96.67 h 9.02 v -65.82 h 9.03 v 225.61 h 9.02 v -31.43 h 9.02 v -161.12 h 9.02 v 192.55 h 9.03 9.02 v -127.29 h 9.02 v 32.22 h 9.02 v 63.64 h 9.03 v -95.86 h 9.02 9.02 v 95.86 h 9.02 v -63.64 h 9.03 v -130.54 h 9.02 v 65.82 h 9.02 9.02 v -99.15 h 9.03 9.02 v 99.15 h 9.02 v -99.15 h 9.02 v -33.63 h 9.03 v 100.02 h 9.02 V 2717.5 h 9.02 v -68.7 h 9.02 v 202.63 h 9.03 v -100.02 h 9.02 v -207.94 h 9.02 v 174.03 h 9.02 v 33.91 h 9.03 v -279.73 h 9.02 V 2614 h 9.02 v -35.11 h 9.03 v -71.16 h 9.02 v 175.57 h 9.02 v 68.11 h 9.02 v -33.91 h 9.03 v -68.7 h 9.02 v 102.61 h 9.02 v -33.91 h 9.02 v -68.7 h 9.03 v 68.7 h 9.02 v 33.91 h 9.02 V 2648.8 h 9.02 v 68.7 h 9.03 v 67.54 h 9.02 9.02 v -33.63 h 9.02 v 33.63 h 9.03 V 2683.3 h 9.02 v 68.11 h 9.02 v -68.11 h 9.02 v -139.83 h 9.03 v 105.33 h 9.02 v 102.61 h 9.02 v -68.11 h 9.02 v -34.5 h 9.03 v 102.61 h 9.02 v -68.11 h 9.02 v -34.5 h 9.02 v 102.61 h 9.03 v -33.91 h 9.02 v -34.2 h 9.02 v 168.13 h 9.02 v -33.06 h 9.03 v -239.48 h 9.02 v 138.61 h 9.02 9.02 9.03 v 133.93 h 9.02 v -66.39 h 9.02 V 2614 h 9.02 v 171.04 h 9.03 v 195.82 h 9.02 9.02 v -64.17 h 9.02 9.03 v 95.86 h 9.02 v -31.69 h 9.02 v -129.43 h 9.02 v -33.06 h 9.03 v -33.33 h 9.02 v -67.54 h 9.02 v -138.61 h 9.02 v -71.16 h 9.03 v 141.07 h 9.02 v 34.5 h 9.02 v -34.5 h 9.02 v 136.24 h 9.02 v 33.33 h 9.03 V 2717.5 h 9.02 v 67.54 h 9.02 9.02 9.03 9.02 9.02 9.02 9.03 9.02 9.02 v 66.39 h 9.02 v -33.06 h 9.04 v -33.33 h 9.02 v 131.65 h 9.02 9.02 V 2717.5 h 9.03 v -34.2 h 9.02 v 101.74 h 9.02 V 2683.3 h 9.02 v -139.83 h 9.03 v -144.86 h 9.02 v -188.56 h 9.02 v -238.04 h 9.02 V 1632.8 h 9.03 v -134.18 h 9.02 v -91.71 h 9.02 v -141.08 h 9.02 v -245.02 h 9.03 V 867.523 h 9.02 v -52.191 h 9.02 v -52.754 h 9.02 9.02 9.03 9.02 v 258.232 h 9.02 v 99.53 h 9.02 v 49 h 9.03 v -49 h 9.02 v 49 h 9.02 9.02 9.03 v -49 h 9.02 v -99.53 h 9.02 v -50.556 h 9.02 v -51.09 h 9.03 V 762.578 h 9.02 9.02 9.02 v -53.332 h 9.03 v 53.332 h 9.02 9.02 v -53.332 h 9.02 v 158.277 h 9.03 v 51.641 h 9.02 v 51.09 h 9.02 9.02 9.03 9.02 v -51.09 h 9.02 V 762.578 h 9.02 9.03 9.02 v 156.586 h 9.02 9.02 V 815.332 h 9.03 v -52.754 h 9.02 9.02 9.02 v 156.586 h 9.03 v 151.676 h 9.02 v 49.5 h 9.02 v 49 h 9.02 9.03 v 143.98 h 9.02 9.02 v -95.49 h 9.03 V 970.254 h 9.02 9.02 9.02 9.03 9.02 9.02 V 815.332 h 9.02 V 709.246 h 9.03 v 106.086 h 9.02 v 103.832 h 9.02 v 51.09 h 9.02 V 867.523 h 9.03 v 51.641 h 9.02 v 51.09 h 9.02 v -51.09 h 9.02 v -51.641 h 9.03 V 762.578 h 9.02 9.02 v 52.754 h 9.02 v -52.754 h 9.03 9.02 v 52.754 h 9.02 v 205.478 h 9.02 v 99.53 h 9.03 v 145.49 h 9.02 v -145.49 h 9.02 v 49 h 9.02 v -148.53 h 9.03 v -50.556 h 9.02 V 867.523 h 9.02 v -52.191 h 9.02 v -52.754 h 9.03 9.02 9.02 9.02 v -53.332 h 9.03 9.02 v 53.332 h 9.02 v 156.586 h 9.02 V 815.332 h 9.03 v 103.832 h 9.02 v 51.09 h 9.02 9.02 V 762.578 h 9.03 9.02 9.02 v -53.332 h 9.02 v 53.332 h 9.03 v -53.332 h 9.02 9.02 9.02 9.03 9.02 9.02 v 53.332 h 9.02 v 104.945 h 9.02 v 102.731 h 9.03 V 867.523 h 9.02 V 762.578 h 9.02 v 156.586 h 9.02 9.03 v -51.641 h 9.02 V 762.578 h 9.03 9.01 v -53.332 h 9.04 v 53.332 h 9.02 v -53.332 h 9.01 v 53.332 h 9.02 9.03 9.03 v 156.586 h 9.02 V 815.332 h 9.02 v 103.832 h 9.03 v 51.09 h 9.01 v -51.09 h 9.03 v -51.641 h 9.02 v -52.191 h 9.03 v -52.754 h 9.02 v 104.945 h 9.02 V 762.578 h 9.02 v -53.332 h 9.03 9.02 v 53.332 h 9.02 9.02 9.03 v -53.332 h 9.02 v 53.332 h 9.02 9.02 v 156.586 h 9.02 v 51.09 h 9.03 V 867.523 h 9.02 v 102.731 h 9.02 v -51.09 h 9.02 V 815.332 h 9.03 9.02 v -52.754 h 9.03 v -53.332 h 9.01 v 53.332 h 9.03 9.02 v -53.332 h 9.02 v 53.332 h 9.02 9.03 9.02 v -53.332 h 9.02 v 158.277 h 9.02 v 102.731 h 9.03 9.02 9.02 v 50.556 h 9.02 v -50.556 h 9.03 v -51.09 h 9.02 V 815.332 h 9.02 v -52.754 h 9.03 9.02 9.02 9.02 9.02 9.03 9.02 9.02 v 207.676 h 9.02 9.03 9.02 9.02 9.02 9.03 v -51.09 h 9.02 v 51.09 h 9.02 V 815.332 h 9.03 9.02 v -52.754 h 9.02 9.02 v 52.754 h 9.03 9.02 v 103.832 h 9.02 v 0" /><path
         id="path132"
         style="fill:#ffffff;fill-opacity:1;fill-rule:nonzero;stroke:none"
         d="m 1492.5,2482.5 h 1125 V 3315 h -1125 z" /><path
         id="path134"
         style="fill:#000000;fill-opacity:1;fill-rule:nonzero;stroke:none"
         d="m 1863.18,3083.5 c 3.04,-5.24 8.36,-7.86 15.94,-7.86 6.87,0 12.81,2.43 17.81,7.27 5,4.84 9.04,10.68 12.12,17.52 3.09,6.84 5.49,13.81 7.21,20.92 -6.41,-6.09 -13.4,-9.14 -20.97,-9.14 -5.71,0 -10.58,0.99 -14.6,2.99 -4.02,1.99 -7.14,4.96 -9.37,8.9 -2.23,3.95 -3.34,8.69 -3.34,14.24 0,4.76 0.62,9.64 1.87,14.64 1.25,5 3.03,10.56 5.34,16.65 2.3,6.09 4.31,11.41 6.03,15.94 1.88,5.31 2.82,9.69 2.82,13.12 0,4.3 -1.57,6.45 -4.69,6.45 -5.78,0 -10.53,-2.95 -14.24,-8.85 -3.72,-5.9 -6.47,-12.52 -8.26,-19.87 -0.24,-0.85 -0.82,-1.28 -1.76,-1.28 h -2.58 c -1.17,0 -1.76,0.66 -1.76,1.99 v 0.58 c 2.35,8.68 5.92,16.36 10.73,23.04 4.8,6.68 10.88,10.02 18.22,10.02 5.16,0 9.53,-1.7 13.12,-5.11 3.59,-3.39 5.39,-7.71 5.39,-12.95 0,-2.65 -0.58,-5.46 -1.75,-8.43 -0.71,-1.8 -2.19,-5.67 -4.46,-11.61 -2.27,-5.93 -3.98,-10.85 -5.15,-14.76 -1.18,-3.91 -2.15,-7.74 -2.94,-11.49 -0.77,-3.75 -1.16,-7.5 -1.16,-11.25 0,-4.84 1.01,-8.92 3.04,-12.24 2.03,-3.32 5.27,-4.98 9.73,-4.98 8.98,0 17.07,5.51 24.25,16.53 l 16.41,66.91 c 0.55,1.95 1.7,3.61 3.46,4.98 1.75,1.36 3.65,2.05 5.68,2.05 1.8,0 3.36,-0.57 4.69,-1.7 1.33,-1.13 1.99,-2.59 1.99,-4.39 0,-0.86 -0.08,-1.45 -0.23,-1.76 l -21.56,-86.49 c -1.96,-7.5 -5.48,-14.64 -10.55,-21.44 -5.08,-6.8 -11.21,-12.27 -18.4,-16.41 -7.19,-4.14 -14.69,-6.21 -22.5,-6.21 -3.75,0 -7.46,0.74 -11.13,2.23 -3.67,1.48 -6.64,3.67 -8.91,6.56 -2.26,2.89 -3.4,6.29 -3.4,10.19 0,3.91 1.18,7.32 3.52,10.26 2.34,2.93 5.43,4.39 9.26,4.39 2.34,0 4.31,-0.72 5.92,-2.17 1.6,-1.44 2.39,-3.34 2.39,-5.68 0,-3.35 -1.22,-6.26 -3.68,-8.73 -2.46,-2.46 -5.37,-3.69 -8.73,-3.69 -0.16,0.08 -0.3,0.12 -0.42,0.12 -0.11,0 -0.25,0 -0.4,0" /><path
         id="path136"
         style="fill:#000000;fill-opacity:1;fill-rule:nonzero;stroke:none"
         d="m 1984.39,3079.91 c -5,0 -9.37,1.31 -13.12,3.93 -3.75,2.62 -6.62,6.13 -8.61,10.54 -2,4.42 -3,9.08 -3,14.01 0,7.5 1.9,14.55 5.69,21.15 3.79,6.6 8.91,11.87 15.35,15.82 6.45,3.94 13.34,5.92 20.69,5.92 4.53,0 8.47,-1.17 11.83,-3.51 3.36,-2.35 5.04,-5.71 5.04,-10.08 0,-6.02 -2.4,-10.49 -7.21,-13.42 -4.8,-2.93 -10.23,-4.75 -16.28,-5.45 -6.06,-0.7 -12.76,-1.05 -20.11,-1.05 h -0.46 c -1.72,-6.25 -2.58,-11.61 -2.58,-16.06 0,-4.69 1.09,-8.81 3.29,-12.36 2.18,-3.56 5.46,-5.33 9.84,-5.33 6.25,0 12.26,1.44 18.04,4.33 5.78,2.89 10.47,6.88 14.06,11.95 0.32,0.32 0.75,0.47 1.29,0.47 0.47,0 0.98,-0.29 1.52,-0.88 0.55,-0.58 0.83,-1.15 0.83,-1.7 0,-0.39 -0.08,-0.7 -0.23,-0.94 -3.91,-5.39 -9.11,-9.62 -15.6,-12.71 -6.47,-3.08 -13.23,-4.63 -20.27,-4.63 z m -9.25,41.96 c 6.09,0 11.74,0.27 16.93,0.82 5.2,0.54 9.89,1.95 14.07,4.21 4.18,2.27 6.27,5.83 6.27,10.67 0,1.95 -0.53,3.65 -1.59,5.09 -1.05,1.45 -2.44,2.56 -4.16,3.34 -1.72,0.79 -3.52,1.18 -5.39,1.18 -4.45,0 -8.45,-1.21 -12.01,-3.64 -3.55,-2.41 -6.48,-5.56 -8.79,-9.43 -2.31,-3.87 -4.08,-7.95 -5.33,-12.24" /><path
         id="path138"
         style="fill:#000000;fill-opacity:1;fill-rule:nonzero;stroke:none"
         d="m 2038.18,3091.28 c 2.8,-4.84 8.47,-7.26 16.98,-7.26 3.68,0 7.18,0.64 10.5,1.93 3.32,1.28 6.07,3.18 8.25,5.68 2.19,2.5 3.29,5.55 3.29,9.14 0,2.74 -0.98,4.96 -2.93,6.68 -1.96,1.72 -4.34,2.89 -7.15,3.51 l -8.56,1.65 c -3.83,1.01 -7.01,2.85 -9.55,5.51 -2.54,2.65 -3.81,5.89 -3.81,9.72 0,4.61 1.27,8.71 3.81,12.3 2.54,3.6 5.88,6.36 10.03,8.27 4.13,1.91 8.47,2.87 13,2.87 4.76,0 9.02,-1.14 12.77,-3.4 3.75,-2.27 5.63,-5.67 5.63,-10.19 0,-2.35 -0.69,-4.46 -2.05,-6.33 -1.37,-1.88 -3.26,-2.82 -5.69,-2.82 -1.32,0 -2.5,0.45 -3.51,1.35 -1.02,0.9 -1.53,2.06 -1.53,3.46 0,1.25 0.36,2.44 1.06,3.57 0.7,1.13 1.62,2.06 2.75,2.76 1.14,0.7 2.33,1.05 3.58,1.05 -0.94,2.27 -2.68,3.91 -5.22,4.92 -2.54,1.02 -5.26,1.53 -8.14,1.53 -2.66,0 -5.31,-0.53 -7.97,-1.58 -2.65,-1.06 -4.81,-2.64 -6.45,-4.75 -1.64,-2.11 -2.46,-4.57 -2.46,-7.39 0,-1.87 0.67,-3.53 1.99,-4.98 1.34,-1.44 2.98,-2.48 4.93,-3.1 l 9.14,-1.75 c 2.97,-0.63 5.67,-1.73 8.08,-3.29 2.43,-1.56 4.34,-3.54 5.75,-5.92 1.4,-2.38 2.1,-5.13 2.1,-8.26 0,-3.9 -1.09,-7.75 -3.28,-11.54 -2.18,-3.79 -4.84,-6.82 -7.97,-9.08 -5.62,-3.75 -12.45,-5.63 -20.5,-5.63 -5.62,0 -10.76,1.29 -15.41,3.87 -4.65,2.58 -6.98,6.41 -6.98,11.49 0,2.8 0.82,5.28 2.47,7.44 1.63,2.15 3.9,3.22 6.8,3.22 1.71,0 3.14,-0.53 4.27,-1.58 1.13,-1.06 1.69,-2.4 1.69,-4.05 0,-2.42 -0.89,-4.53 -2.69,-6.32 -1.79,-1.8 -3.9,-2.7 -6.32,-2.7 h -0.7" /><path
         id="path140"
         style="fill:#000000;fill-opacity:1;fill-rule:nonzero;stroke:none"
         d="m 2106.38,3094.44 c 0,1.57 0.15,3.01 0.47,4.34 l 11.36,45.24 h -16.52 c -1.02,0 -1.53,0.7 -1.53,2.11 0.39,2.26 1.06,3.39 2,3.39 h 17.46 l 6.33,25.78 c 0.39,1.33 1.21,2.48 2.46,3.46 1.25,0.97 2.62,1.47 4.1,1.47 1.4,0 2.56,-0.39 3.46,-1.18 0.89,-0.78 1.34,-1.84 1.34,-3.16 0,-0.32 -0.02,-0.57 -0.05,-0.76 -0.04,-0.2 -0.1,-0.37 -0.18,-0.53 l -6.33,-25.08 h 16.29 c 1.09,0 1.64,-0.66 1.64,-1.99 -0.08,-0.32 -0.2,-0.76 -0.35,-1.35 -0.16,-0.58 -0.37,-1.09 -0.65,-1.52 -0.27,-0.43 -0.64,-0.64 -1.11,-0.64 h -17.11 l -11.36,-45.48 c -0.78,-2.97 -1.17,-5.54 -1.17,-7.73 0,-4.53 1.56,-6.79 4.68,-6.79 4.61,0 8.69,2.16 12.24,6.5 3.56,4.33 6.28,9.12 8.15,14.36 0.39,0.54 0.82,0.81 1.29,0.81 h 1.87 c 0.39,0 0.73,-0.14 1,-0.4 0.28,-0.28 0.41,-0.58 0.41,-0.89 0,-0.23 -0.03,-0.38 -0.12,-0.46 -2.34,-6.41 -5.72,-12.01 -10.13,-16.82 -4.41,-4.8 -9.47,-7.21 -15.18,-7.21 -4.14,0 -7.64,1.35 -10.48,4.05 -2.86,2.69 -4.28,6.18 -4.28,10.48" /><path
         id="path142"
         style="fill:#000000;fill-opacity:1;fill-rule:nonzero;stroke:none"
         d="m 2164.57,3092.92 c 0,1.96 0.43,4.03 1.29,6.21 l 12.65,33.87 c 1.41,3.9 2.12,7.07 2.12,9.49 0,3.13 -1.14,4.69 -3.41,4.69 -4.22,0 -7.65,-2.13 -10.31,-6.39 -2.66,-4.26 -4.65,-9.04 -5.97,-14.35 -0.16,-0.71 -0.59,-1.06 -1.3,-1.06 h -1.87 c -0.86,0 -1.29,0.51 -1.29,1.52 v 0.48 c 1.72,6.25 4.32,11.79 7.79,16.64 3.48,4.84 7.87,7.26 13.19,7.26 3.75,0 6.91,-1.23 9.49,-3.69 2.58,-2.46 3.87,-5.61 3.87,-9.44 0,-1.95 -0.43,-3.98 -1.29,-6.09 l -12.78,-33.87 c -1.4,-3.51 -2.11,-6.68 -2.11,-9.49 0,-3.12 1.22,-4.68 3.64,-4.68 4.06,0 7.48,2.2 10.25,6.61 2.77,4.42 4.71,9.16 5.8,14.25 0.24,0.54 0.63,0.81 1.17,0.81 h 2 c 0.39,0 0.72,-0.14 0.99,-0.4 0.27,-0.28 0.41,-0.58 0.41,-0.89 0,-0.15 -0.08,-0.31 -0.23,-0.46 -1.41,-5.94 -3.88,-11.43 -7.44,-16.47 -3.56,-5.04 -7.99,-7.56 -13.31,-7.56 -3.67,0 -6.81,1.27 -9.43,3.81 -2.61,2.54 -3.92,5.6 -3.92,9.2 z m 17.81,84.14 c 0,2.26 0.92,4.3 2.75,6.09 1.83,1.8 3.85,2.7 6.04,2.7 1.79,0 3.28,-0.56 4.46,-1.7 1.16,-1.13 1.75,-2.52 1.75,-4.16 0,-2.34 -0.94,-4.42 -2.81,-6.21 -1.88,-1.8 -3.95,-2.7 -6.21,-2.7 -1.72,0 -3.15,0.59 -4.29,1.76 -1.13,1.17 -1.69,2.58 -1.69,4.22" /><path
         id="path144"
         style="fill:#000000;fill-opacity:1;fill-rule:nonzero;stroke:none"
         d="m 2217.5,3084.37 c 0,0.62 0.04,1.09 0.12,1.4 l 11.72,47 c 0.78,2.89 1.17,5.43 1.17,7.61 0,4.53 -1.52,6.8 -4.57,6.8 -3.28,0 -5.72,-1.95 -7.32,-5.86 -1.61,-3.91 -3.15,-8.87 -4.63,-14.88 0,-0.32 -0.16,-0.57 -0.47,-0.77 -0.31,-0.19 -0.58,-0.29 -0.82,-0.29 h -1.88 c -0.31,0 -0.61,0.19 -0.88,0.58 -0.27,0.4 -0.4,0.75 -0.4,1.06 1.17,4.61 2.26,8.5 3.27,11.66 1.02,3.17 2.66,6.06 4.93,8.67 2.26,2.62 5.04,3.93 8.32,3.93 3.98,0 7.48,-1.25 10.48,-3.75 3.01,-2.5 4.52,-5.67 4.52,-9.49 3.12,4.14 6.8,7.38 11.01,9.73 4.22,2.34 8.67,3.51 13.36,3.51 5,0 9.3,-1.27 12.89,-3.81 3.59,-2.54 5.39,-6.15 5.39,-10.84 3.29,4.61 7.09,8.2 11.43,10.78 4.34,2.58 9.04,3.87 14.12,3.87 5.47,0 9.84,-1.49 13.13,-4.45 3.28,-2.97 4.92,-7.15 4.92,-12.54 0,-4.3 -0.96,-9.5 -2.87,-15.59 -1.92,-6.09 -4.28,-12.93 -7.09,-20.51 -1.56,-3.59 -2.35,-6.75 -2.35,-9.49 0,-3.12 1.25,-4.68 3.75,-4.68 4.07,0 7.46,2.2 10.2,6.61 2.74,4.42 4.65,9.16 5.74,14.25 0.31,0.54 0.78,0.81 1.41,0.81 h 1.75 c 0.47,0 0.85,-0.14 1.12,-0.4 0.27,-0.28 0.41,-0.58 0.41,-0.89 0,-0.15 -0.04,-0.31 -0.12,-0.46 -1.48,-5.94 -4,-11.43 -7.56,-16.47 -3.55,-5.04 -7.99,-7.56 -13.3,-7.56 -3.75,0 -6.92,1.27 -9.49,3.81 -2.58,2.54 -3.87,5.6 -3.87,9.2 0,1.87 0.43,3.94 1.29,6.21 2.97,7.89 5.43,14.94 7.38,21.16 1.95,6.21 2.93,11.66 2.93,16.34 0,2.97 -0.58,5.47 -1.75,7.5 -1.18,2.03 -3.13,3.05 -5.87,3.05 -5.78,0 -10.76,-1.76 -14.94,-5.28 -4.18,-3.51 -7.83,-8.16 -10.95,-13.94 -0.16,-1.01 -0.31,-1.8 -0.47,-2.34 l -10.08,-40.43 c -0.39,-1.49 -1.21,-2.74 -2.46,-3.75 -1.25,-1.02 -2.66,-1.53 -4.22,-1.53 -1.25,0 -2.35,0.41 -3.28,1.23 -0.94,0.82 -1.41,1.9 -1.41,3.23 0,0.62 0.04,1.09 0.12,1.4 l 10.08,40.08 c 1.09,4.29 1.64,7.89 1.64,10.78 0,2.97 -0.6,5.47 -1.82,7.5 -1.21,2.03 -3.22,3.05 -6.03,3.05 -3.91,0 -7.47,-0.84 -10.66,-2.52 -3.21,-1.68 -6.02,-3.93 -8.44,-6.74 -2.43,-2.81 -4.65,-6.13 -6.69,-9.96 l -10.66,-42.77 c -0.31,-1.49 -1.11,-2.74 -2.4,-3.75 -1.29,-1.02 -2.68,-1.53 -4.16,-1.53 -1.33,0 -2.44,0.41 -3.34,1.23 -0.9,0.82 -1.35,1.9 -1.35,3.23" /><path
         id="path146"
         style="fill:#000000;fill-opacity:1;fill-rule:nonzero;stroke:none"
         d="m 2367.95,3079.91 c -6.64,0 -11.88,2.5 -15.7,7.5 -3.83,5 -5.74,10.9 -5.74,17.7 0,6.71 1.74,13.69 5.21,20.91 3.48,7.23 8.18,13.25 14.12,18.05 5.94,4.81 12.3,7.21 19.11,7.21 3.12,0 5.91,-0.84 8.37,-2.52 2.47,-1.68 4.39,-4 5.8,-6.97 1.18,4.22 3.48,6.33 6.92,6.33 1.33,0 2.44,-0.39 3.34,-1.18 0.9,-0.78 1.34,-1.83 1.34,-3.16 0,-0.32 0,-0.55 0,-0.7 0,-0.16 -0.03,-0.36 -0.11,-0.59 l -11.02,-43.95 c -0.7,-3.12 -1.05,-5.7 -1.05,-7.73 0,-4.53 1.52,-6.79 4.57,-6.79 3.28,0 5.78,2.09 7.5,6.27 1.71,4.17 3.16,9.04 4.34,14.59 0.15,0.54 0.54,0.81 1.17,0.81 h 1.99 c 0.39,0 0.7,-0.17 0.94,-0.53 0.23,-0.34 0.34,-0.68 0.34,-0.99 -1.79,-7.35 -3.78,-13.22 -5.97,-17.63 -2.19,-4.42 -5.74,-6.63 -10.66,-6.63 -3.52,0 -6.64,1.04 -9.38,3.11 -2.73,2.07 -4.41,4.82 -5.04,8.26 -6.8,-7.58 -13.59,-11.37 -20.39,-11.37 z m 0.12,4.11 c 3.82,0 7.52,1.42 11.07,4.27 3.56,2.85 6.62,6.19 9.2,10.02 0.08,0.15 0.12,0.31 0.12,0.47 l 8.43,34.22 0.12,0.46 c -0.62,3.75 -1.97,6.98 -4.04,9.67 -2.07,2.7 -4.86,4.05 -8.38,4.05 -3.51,0 -6.79,-1.45 -9.84,-4.34 -3.05,-2.89 -5.62,-6.33 -7.74,-10.31 -2.03,-4.14 -3.98,-9.89 -5.85,-17.23 -1.88,-7.34 -2.82,-13.04 -2.82,-17.11 0,-3.59 0.79,-6.85 2.34,-9.78 1.57,-2.93 4.03,-4.39 7.39,-4.39" /><path
         id="path148"
         style="fill:#000000;fill-opacity:1;fill-rule:nonzero;stroke:none"
         d="m 2449.36,3079.91 c -6.65,0 -11.88,2.5 -15.71,7.5 -3.83,5 -5.74,10.9 -5.74,17.7 0,6.71 1.73,13.69 5.22,20.91 3.47,7.23 8.17,13.25 14.11,18.05 5.94,4.81 12.31,7.21 19.1,7.21 3.13,0 5.92,-0.86 8.39,-2.58 2.46,-1.72 4.39,-4.02 5.8,-6.91 l 8.9,35.15 c 0.39,1.8 0.63,3.21 0.7,4.22 0,1.72 -3.4,2.58 -10.19,2.58 -1.09,0 -1.64,0.71 -1.64,2.11 0.08,0.24 0.2,0.69 0.35,1.35 0.15,0.66 0.39,1.17 0.71,1.52 0.3,0.35 0.69,0.53 1.17,0.53 l 21.2,1.75 c 1.34,0 2,-0.7 2,-2.11 l -22.74,-90.58 c -0.7,-1.72 -1.05,-4.22 -1.05,-7.5 0,-4.53 1.52,-6.79 4.57,-6.79 3.28,0 5.78,2.09 7.5,6.27 1.72,4.17 3.16,9.04 4.33,14.59 0.16,0.54 0.55,0.81 1.18,0.81 h 1.99 c 0.39,0 0.7,-0.17 0.94,-0.53 0.23,-0.34 0.35,-0.68 0.35,-0.99 -1.8,-7.35 -3.79,-13.22 -5.98,-17.63 -2.18,-4.42 -5.74,-6.63 -10.66,-6.63 -3.52,0 -6.64,1.04 -9.38,3.11 -2.73,2.07 -4.41,4.82 -5.04,8.26 -6.79,-7.58 -13.59,-11.37 -20.38,-11.37 z m 0.11,4.11 c 3.83,0 7.52,1.42 11.08,4.27 3.55,2.85 6.61,6.19 9.19,10.02 0.08,0.15 0.12,0.39 0.12,0.71 l 8.56,34.68 c -0.63,3.68 -1.97,6.84 -4.04,9.49 -2.08,2.66 -4.87,3.99 -8.39,3.99 -3.51,0 -6.79,-1.45 -9.84,-4.34 -3.04,-2.89 -5.62,-6.33 -7.73,-10.31 -2.04,-4.14 -3.99,-9.89 -5.87,-17.23 -1.87,-7.34 -2.81,-13.04 -2.81,-17.11 0,-3.59 0.78,-6.85 2.35,-9.78 1.56,-2.93 4.02,-4.39 7.38,-4.39" /><path
         id="path150"
         style="fill:#000000;fill-opacity:1;fill-rule:nonzero;stroke:none"
         d="m 2533.73,3079.91 c -4.93,0 -9.32,1.18 -13.18,3.52 -3.87,2.34 -6.86,5.52 -8.98,9.55 -2.1,4.02 -3.15,8.57 -3.15,13.65 0,7.11 1.99,14.14 5.97,21.1 3.99,6.95 9.26,12.61 15.82,16.98 6.56,4.38 13.48,6.57 20.74,6.57 3.91,0 7.39,-0.67 10.43,-1.99 3.05,-1.33 5.69,-3.21 7.92,-5.63 2.22,-2.42 3.94,-5.25 5.15,-8.5 1.21,-3.23 1.81,-6.73 1.81,-10.48 0,-5.47 -1.15,-10.86 -3.45,-16.18 -2.3,-5.3 -5.47,-10.13 -9.49,-14.46 -4.03,-4.34 -8.62,-7.78 -13.77,-10.32 -5.16,-2.54 -10.43,-3.81 -15.82,-3.81 z m 0.34,4.11 c 4.7,0 8.97,1.6 12.84,4.8 3.87,3.2 7.03,7.23 9.49,12.07 2.46,4.84 4.38,9.96 5.75,15.35 1.36,5.39 2.05,10.24 2.05,14.53 0,4.61 -1.16,8.5 -3.46,11.66 -2.31,3.17 -5.69,4.75 -10.13,4.75 -6.18,0 -11.57,-2.62 -16.18,-7.85 -4.61,-5.24 -8.07,-11.51 -10.37,-18.81 -2.3,-7.31 -3.45,-14.01 -3.45,-20.1 0,-4.53 1.15,-8.4 3.45,-11.6 2.3,-3.2 5.64,-4.8 10.01,-4.8" /><path
         id="path152"
         style="fill:none;stroke:#0072bd;stroke-width:9.99750042;stroke-linecap:butt;stroke-linejoin:round;stroke-miterlimit:10;stroke-dasharray:none;stroke-opacity:1"
         d="M 1522.49,3167.47 H 1822.4" /><path
         id="path154"
         style="fill:#000000;fill-opacity:1;fill-rule:nonzero;stroke:none"
         d="m 1861.65,2849.7 c 0,0.86 0.08,1.48 0.24,1.87 l 16.29,64.93 c 1.01,3.98 1.52,7.5 1.52,10.55 0,6.25 -2.11,9.37 -6.33,9.37 -4.53,0 -7.89,-2.71 -10.08,-8.14 -2.18,-5.43 -4.33,-12.29 -6.44,-20.57 0,-0.39 -0.2,-0.71 -0.59,-0.94 -0.38,-0.23 -0.78,-0.35 -1.17,-0.35 h -2.58 c -0.47,0 -0.88,0.26 -1.22,0.76 -0.36,0.51 -0.54,1 -0.54,1.46 1.57,6.25 3.07,11.59 4.52,16 1.44,4.41 3.71,8.42 6.79,12.02 3.08,3.59 6.93,5.39 11.54,5.39 5,0 9.4,-1.45 13.19,-4.34 3.79,-2.89 6.15,-6.72 7.09,-11.49 3.67,4.85 7.85,8.69 12.53,11.55 4.7,2.85 9.85,4.28 15.48,4.28 4.61,0 8.67,-1.35 12.18,-4.05 3.52,-2.7 5.28,-6.35 5.28,-10.95 0,-3.68 -1.15,-6.88 -3.46,-9.62 -2.3,-2.73 -5.37,-4.1 -9.2,-4.1 -2.34,0 -4.31,0.74 -5.92,2.23 -1.6,1.48 -2.4,3.4 -2.4,5.74 0,3.13 1.17,5.96 3.52,8.5 2.34,2.54 5.03,3.81 8.08,3.81 -2.34,1.87 -5.19,2.81 -8.56,2.81 -6.16,0 -11.55,-2.21 -16.16,-6.62 -4.61,-4.41 -8.75,-10.02 -12.43,-16.82 l -15.58,-62.22 c -0.47,-2.04 -1.56,-3.76 -3.28,-5.16 -1.73,-1.41 -3.67,-2.11 -5.86,-2.11 -1.72,0 -3.22,0.57 -4.52,1.7 -1.29,1.13 -1.93,2.63 -1.93,4.51" /><path
         id="path156"
         style="fill:none;stroke:#ff0000;stroke-width:9.99750042;stroke-linecap:butt;stroke-linejoin:round;stroke-miterlimit:10;stroke-dasharray:none;stroke-opacity:1"
         d="M 1522.49,2898.75 H 1822.4" /><path
         id="path158"
         style="fill:#000000;fill-opacity:1;fill-rule:nonzero;stroke:none"
         d="m 1863.18,2546.06 c 3.04,-5.23 8.36,-7.85 15.94,-7.85 6.87,0 12.81,2.42 17.81,7.27 5,4.84 9.04,10.68 12.12,17.52 3.09,6.83 5.49,13.8 7.21,20.91 -6.41,-6.09 -13.4,-9.14 -20.97,-9.14 -5.71,0 -10.58,1 -14.6,2.99 -4.02,1.99 -7.14,4.96 -9.37,8.91 -2.23,3.94 -3.34,8.69 -3.34,14.23 0,4.77 0.62,9.65 1.87,14.65 1.25,5 3.03,10.55 5.34,16.64 2.3,6.1 4.31,11.41 6.03,15.94 1.88,5.32 2.82,9.69 2.82,13.12 0,4.3 -1.57,6.45 -4.69,6.45 -5.78,0 -10.53,-2.95 -14.24,-8.84 -3.72,-5.91 -6.47,-12.53 -8.26,-19.87 -0.24,-0.86 -0.82,-1.29 -1.76,-1.29 h -2.58 c -1.17,0 -1.76,0.67 -1.76,1.99 v 0.59 c 2.35,8.67 5.92,16.35 10.73,23.03 4.8,6.68 10.88,10.02 18.22,10.02 5.16,0 9.53,-1.7 13.12,-5.1 3.59,-3.4 5.39,-7.72 5.39,-12.95 0,-2.66 -0.58,-5.47 -1.75,-8.44 -0.71,-1.8 -2.19,-5.66 -4.46,-11.6 -2.27,-5.94 -3.98,-10.86 -5.15,-14.76 -1.18,-3.91 -2.15,-7.74 -2.94,-11.49 -0.77,-3.75 -1.16,-7.5 -1.16,-11.25 0,-4.84 1.01,-8.92 3.04,-12.24 2.03,-3.32 5.27,-4.98 9.73,-4.98 8.98,0 17.07,5.5 24.25,16.52 l 16.41,66.91 c 0.55,1.95 1.7,3.61 3.46,4.98 1.75,1.37 3.65,2.05 5.68,2.05 1.8,0 3.36,-0.56 4.69,-1.69 1.33,-1.14 1.99,-2.6 1.99,-4.4 0,-0.86 -0.08,-1.44 -0.23,-1.76 l -21.56,-86.48 c -1.96,-7.5 -5.48,-14.65 -10.55,-21.45 -5.08,-6.8 -11.21,-12.27 -18.4,-16.41 -7.19,-4.14 -14.69,-6.2 -22.5,-6.2 -3.75,0 -7.46,0.74 -11.13,2.22 -3.67,1.49 -6.64,3.67 -8.91,6.57 -2.26,2.89 -3.4,6.28 -3.4,10.19 0,3.9 1.18,7.32 3.52,10.25 2.34,2.93 5.43,4.39 9.26,4.39 2.34,0 4.31,-0.72 5.92,-2.16 1.6,-1.45 2.39,-3.34 2.39,-5.69 0,-3.35 -1.22,-6.26 -3.68,-8.73 -2.46,-2.46 -5.37,-3.69 -8.73,-3.69 -0.16,0.08 -0.3,0.12 -0.42,0.12 -0.11,0 -0.25,0 -0.4,0" /><path
         id="path160"
         style="fill:#000000;fill-opacity:1;fill-rule:nonzero;stroke:none"
         d="m 1964.95,2546.93 c 0,0.62 0.03,1.09 0.11,1.41 l 11.72,46.99 c 0.78,2.89 1.17,5.43 1.17,7.61 0,4.54 -1.52,6.8 -4.57,6.8 -3.28,0 -5.72,-1.95 -7.33,-5.86 -1.59,-3.91 -3.14,-8.86 -4.62,-14.88 0,-0.32 -0.16,-0.57 -0.47,-0.77 -0.32,-0.19 -0.58,-0.29 -0.82,-0.29 h -1.88 c -0.31,0 -0.6,0.2 -0.87,0.59 -0.28,0.39 -0.42,0.74 -0.42,1.06 1.17,4.61 2.27,8.49 3.29,11.66 1.01,3.16 2.65,6.05 4.92,8.67 2.26,2.61 5.03,3.92 8.32,3.92 3.98,0 7.48,-1.25 10.49,-3.75 3,-2.5 4.51,-5.66 4.51,-9.49 3.12,4.14 6.79,7.38 11.01,9.73 4.22,2.34 8.68,3.51 13.36,3.51 5,0 9.3,-1.27 12.89,-3.8 3.6,-2.54 5.4,-6.16 5.4,-10.85 3.28,4.61 7.08,8.21 11.42,10.79 4.33,2.57 9.04,3.86 14.12,3.86 5.47,0 9.85,-1.48 13.12,-4.45 3.29,-2.97 4.93,-7.15 4.93,-12.54 0,-4.3 -0.96,-9.49 -2.87,-15.58 -1.92,-6.1 -4.28,-12.93 -7.09,-20.52 -1.56,-3.59 -2.34,-6.75 -2.34,-9.48 0,-3.13 1.25,-4.69 3.75,-4.69 4.06,0 7.45,2.21 10.19,6.62 2.74,4.41 4.65,9.16 5.74,14.24 0.32,0.54 0.78,0.81 1.41,0.81 h 1.75 c 0.47,0 0.84,-0.13 1.12,-0.4 0.27,-0.28 0.41,-0.57 0.41,-0.89 0,-0.15 -0.04,-0.31 -0.12,-0.46 -1.49,-5.94 -4,-11.43 -7.56,-16.46 -3.55,-5.04 -7.99,-7.56 -13.3,-7.56 -3.75,0 -6.91,1.27 -9.49,3.81 -2.58,2.53 -3.87,5.6 -3.87,9.19 0,1.88 0.43,3.95 1.29,6.21 2.97,7.89 5.43,14.94 7.39,21.16 1.95,6.21 2.92,11.66 2.92,16.34 0,2.97 -0.58,5.47 -1.76,7.5 -1.16,2.04 -3.12,3.05 -5.85,3.05 -5.79,0 -10.77,-1.76 -14.94,-5.28 -4.18,-3.51 -7.83,-8.16 -10.96,-13.94 -0.16,-1.01 -0.32,-1.79 -0.47,-2.34 l -10.08,-40.43 c -0.39,-1.48 -1.21,-2.73 -2.46,-3.75 -1.25,-1.02 -2.66,-1.52 -4.22,-1.52 -1.25,0 -2.34,0.41 -3.28,1.23 -0.93,0.82 -1.4,1.89 -1.4,3.22 0,0.62 0.03,1.09 0.11,1.41 l 10.08,40.07 c 1.09,4.3 1.64,7.89 1.64,10.78 0,2.97 -0.6,5.47 -1.81,7.5 -1.22,2.04 -3.23,3.05 -6.04,3.05 -3.91,0 -7.46,-0.84 -10.67,-2.52 -3.2,-1.68 -6.01,-3.92 -8.43,-6.74 -2.42,-2.81 -4.65,-6.13 -6.69,-9.96 l -10.65,-42.77 c -0.32,-1.48 -1.12,-2.73 -2.41,-3.75 -1.29,-1.02 -2.68,-1.52 -4.16,-1.52 -1.33,0 -2.44,0.41 -3.34,1.23 -0.9,0.82 -1.34,1.89 -1.34,3.22" /><path
         id="path162"
         style="fill:#000000;fill-opacity:1;fill-rule:nonzero;stroke:none"
         d="m 2119.61,2542.48 c -5,0 -9.38,1.31 -13.13,3.92 -3.75,2.62 -6.62,6.14 -8.61,10.55 -1.99,4.41 -2.99,9.08 -2.99,14 0,7.5 1.9,14.55 5.69,21.16 3.79,6.59 8.91,11.87 15.35,15.81 6.45,3.95 13.34,5.92 20.68,5.92 4.53,0 8.48,-1.17 11.84,-3.51 3.36,-2.35 5.03,-5.7 5.03,-10.08 0,-6.02 -2.4,-10.49 -7.2,-13.42 -4.8,-2.93 -10.23,-4.74 -16.29,-5.45 -6.05,-0.7 -12.75,-1.05 -20.1,-1.05 h -0.47 c -1.71,-6.25 -2.57,-11.6 -2.57,-16.06 0,-4.68 1.09,-8.81 3.28,-12.36 2.18,-3.55 5.47,-5.33 9.84,-5.33 6.25,0 12.27,1.44 18.05,4.33 5.78,2.89 10.47,6.88 14.06,11.96 0.31,0.31 0.74,0.47 1.29,0.47 0.47,0 0.98,-0.3 1.52,-0.88 0.55,-0.59 0.82,-1.16 0.82,-1.71 0,-0.39 -0.07,-0.7 -0.23,-0.93 -3.91,-5.39 -9.1,-9.63 -15.59,-12.71 -6.48,-3.09 -13.24,-4.63 -20.27,-4.63 z m -9.26,41.95 c 6.09,0 11.74,0.27 16.94,0.82 5.19,0.54 9.87,1.95 14.06,4.21 4.18,2.27 6.27,5.83 6.27,10.67 0,1.96 -0.53,3.66 -1.58,5.1 -1.06,1.45 -2.45,2.56 -4.16,3.34 -1.72,0.78 -3.52,1.17 -5.4,1.17 -4.45,0 -8.45,-1.21 -12.01,-3.63 -3.56,-2.42 -6.49,-5.57 -8.79,-9.44 -2.3,-3.87 -4.08,-7.94 -5.33,-12.24" /><path
         id="path164"
         style="fill:#000000;fill-opacity:1;fill-rule:nonzero;stroke:none"
         d="m 2187.1,2542.48 c -6.64,0 -11.88,2.5 -15.71,7.5 -3.82,5 -5.74,10.9 -5.74,17.69 0,6.72 1.74,13.69 5.22,20.92 3.47,7.23 8.18,13.24 14.12,18.04 5.93,4.81 12.3,7.21 19.1,7.21 3.12,0 5.92,-0.86 8.38,-2.57 2.46,-1.72 4.39,-4.03 5.8,-6.92 l 8.91,35.15 c 0.39,1.8 0.62,3.21 0.7,4.23 0,1.72 -3.4,2.57 -10.2,2.57 -1.09,0 -1.63,0.71 -1.63,2.11 0.07,0.24 0.18,0.69 0.34,1.35 0.16,0.66 0.4,1.17 0.71,1.53 0.31,0.35 0.7,0.52 1.17,0.52 l 21.21,1.76 c 1.33,0 1.99,-0.71 1.99,-2.11 l -22.73,-90.58 c -0.7,-1.73 -1.06,-4.23 -1.06,-7.5 0,-4.54 1.53,-6.8 4.57,-6.8 3.29,0 5.79,2.09 7.5,6.27 1.72,4.18 3.16,9.04 4.34,14.59 0.16,0.54 0.55,0.81 1.17,0.81 h 1.99 c 0.39,0 0.71,-0.17 0.94,-0.52 0.24,-0.35 0.36,-0.68 0.36,-1 -1.8,-7.34 -3.8,-13.22 -5.98,-17.63 -2.19,-4.42 -5.75,-6.62 -10.67,-6.62 -3.51,0 -6.64,1.03 -9.37,3.1 -2.74,2.07 -4.42,4.82 -5.04,8.26 -6.8,-7.57 -13.6,-11.36 -20.39,-11.36 z m 0.11,4.1 c 3.83,0 7.52,1.42 11.08,4.28 3.55,2.84 6.62,6.18 9.2,10.02 0.08,0.15 0.12,0.39 0.12,0.7 l 8.55,34.69 c -0.62,3.67 -1.97,6.83 -4.04,9.48 -2.07,2.66 -4.87,3.99 -8.38,3.99 -3.52,0 -6.8,-1.44 -9.85,-4.34 -3.04,-2.89 -5.62,-6.33 -7.73,-10.31 -2.03,-4.14 -3.98,-9.88 -5.86,-17.22 -1.87,-7.35 -2.81,-13.05 -2.81,-17.12 0,-3.59 0.78,-6.85 2.34,-9.78 1.56,-2.93 4.03,-4.39 7.38,-4.39" /><path
         id="path166"
         style="fill:#000000;fill-opacity:1;fill-rule:nonzero;stroke:none"
         d="m 2252.14,2555.48 c 0,1.96 0.43,4.03 1.29,6.21 l 12.65,33.87 c 1.41,3.9 2.11,7.07 2.11,9.49 0,3.13 -1.13,4.69 -3.4,4.69 -4.22,0 -7.65,-2.13 -10.31,-6.38 -2.66,-4.27 -4.65,-9.05 -5.98,-14.36 -0.15,-0.71 -0.59,-1.06 -1.29,-1.06 h -1.87 c -0.86,0 -1.29,0.51 -1.29,1.52 v 0.48 c 1.72,6.25 4.32,11.79 7.79,16.64 3.48,4.84 7.87,7.26 13.19,7.26 3.75,0 6.91,-1.23 9.49,-3.69 2.58,-2.46 3.87,-5.61 3.87,-9.44 0,-1.94 -0.43,-3.98 -1.29,-6.08 l -12.78,-33.88 c -1.4,-3.51 -2.11,-6.67 -2.11,-9.48 0,-3.13 1.22,-4.69 3.64,-4.69 4.06,0 7.48,2.21 10.25,6.62 2.78,4.41 4.71,9.16 5.8,14.24 0.24,0.54 0.63,0.81 1.17,0.81 h 2 c 0.39,0 0.72,-0.13 0.99,-0.4 0.27,-0.28 0.41,-0.57 0.41,-0.89 0,-0.15 -0.08,-0.31 -0.23,-0.46 -1.41,-5.94 -3.89,-11.43 -7.44,-16.46 -3.56,-5.04 -7.99,-7.56 -13.31,-7.56 -3.67,0 -6.81,1.27 -9.43,3.81 -2.62,2.53 -3.92,5.6 -3.92,9.19 z m 17.81,84.15 c 0,2.26 0.92,4.29 2.75,6.08 1.84,1.81 3.85,2.7 6.04,2.7 1.8,0 3.28,-0.56 4.45,-1.7 1.17,-1.13 1.76,-2.51 1.76,-4.16 0,-2.34 -0.94,-4.41 -2.81,-6.21 -1.88,-1.8 -3.95,-2.69 -6.21,-2.69 -1.72,0 -3.15,0.58 -4.29,1.75 -1.13,1.18 -1.69,2.58 -1.69,4.23" /><path
         id="path168"
         style="fill:#000000;fill-opacity:1;fill-rule:nonzero;stroke:none"
         d="m 2320.31,2542.48 c -6.65,0 -11.88,2.5 -15.7,7.5 -3.83,5 -5.75,10.9 -5.75,17.69 0,6.72 1.74,13.69 5.21,20.92 3.48,7.23 8.19,13.24 14.13,18.04 5.94,4.81 12.3,7.21 19.1,7.21 3.12,0 5.91,-0.86 8.38,-2.57 2.46,-1.72 4.39,-4.03 5.8,-6.92 l 8.9,35.15 c 0.39,1.8 0.63,3.21 0.71,4.23 0,1.72 -3.4,2.57 -10.2,2.57 -1.09,0 -1.64,0.71 -1.64,2.11 0.08,0.24 0.2,0.69 0.36,1.35 0.15,0.66 0.39,1.17 0.7,1.53 0.31,0.35 0.7,0.52 1.17,0.52 l 21.21,1.76 c 1.33,0 2,-0.71 2,-2.11 l -22.74,-90.58 c -0.7,-1.73 -1.06,-4.23 -1.06,-7.5 0,-4.54 1.53,-6.8 4.57,-6.8 3.28,0 5.78,2.09 7.5,6.27 1.72,4.18 3.17,9.04 4.34,14.59 0.15,0.54 0.54,0.81 1.17,0.81 h 1.99 c 0.39,0 0.7,-0.17 0.94,-0.52 0.24,-0.35 0.35,-0.68 0.35,-1 -1.79,-7.34 -3.79,-13.22 -5.97,-17.63 -2.19,-4.42 -5.74,-6.62 -10.67,-6.62 -3.51,0 -6.64,1.03 -9.38,3.1 -2.73,2.07 -4.41,4.82 -5.03,8.26 -6.8,-7.57 -13.59,-11.36 -20.39,-11.36 z m 0.11,4.1 c 3.83,0 7.53,1.42 11.08,4.28 3.55,2.84 6.62,6.18 9.2,10.02 0.08,0.15 0.12,0.39 0.12,0.7 l 8.56,34.69 c -0.63,3.67 -1.98,6.83 -4.06,9.48 -2.07,2.66 -4.86,3.99 -8.37,3.99 -3.52,0 -6.8,-1.44 -9.84,-4.34 -3.06,-2.89 -5.63,-6.33 -7.73,-10.31 -2.04,-4.14 -4,-9.88 -5.87,-17.22 -1.88,-7.35 -2.81,-13.05 -2.81,-17.12 0,-3.59 0.78,-6.85 2.34,-9.78 1.56,-2.93 4.02,-4.39 7.38,-4.39" /><path
         id="path170"
         style="fill:#000000;fill-opacity:1;fill-rule:nonzero;stroke:none"
         d="m 2404.68,2542.48 c -4.92,0 -9.31,1.17 -13.18,3.51 -3.87,2.35 -6.86,5.53 -8.97,9.55 -2.11,4.03 -3.16,8.58 -3.16,13.65 0,7.11 1.99,14.15 5.97,21.1 3.99,6.95 9.26,12.61 15.83,16.99 6.56,4.37 13.47,6.56 20.74,6.56 3.9,0 7.38,-0.66 10.43,-1.99 3.04,-1.33 5.68,-3.2 7.91,-5.62 2.23,-2.43 3.95,-5.26 5.15,-8.5 1.21,-3.24 1.82,-6.74 1.82,-10.49 0,-5.47 -1.15,-10.86 -3.46,-16.17 -2.3,-5.31 -5.47,-10.14 -9.49,-14.47 -4.02,-4.34 -8.61,-7.78 -13.77,-10.31 -5.16,-2.54 -10.43,-3.81 -15.82,-3.81 z m 0.35,4.1 c 4.69,0 8.97,1.6 12.83,4.8 3.87,3.21 7.04,7.23 9.5,12.07 2.46,4.84 4.37,9.96 5.74,15.35 1.36,5.4 2.05,10.24 2.05,14.54 0,4.61 -1.15,8.49 -3.46,11.66 -2.3,3.16 -5.68,4.74 -10.14,4.74 -6.17,0 -11.56,-2.61 -16.17,-7.85 -4.61,-5.23 -8.06,-11.5 -10.37,-18.81 -2.3,-7.3 -3.46,-14 -3.46,-20.1 0,-4.53 1.16,-8.39 3.46,-11.6 2.31,-3.2 5.65,-4.8 10.02,-4.8" /><path
         id="path172"
         style="fill:none;stroke:#000000;stroke-width:9.99750042;stroke-linecap:butt;stroke-linejoin:round;stroke-miterlimit:10;stroke-dasharray:none;stroke-opacity:1"
         d="M 1522.49,2630.03 H 1822.4" /><path
         id="path174"
         style="fill:none;stroke:#262626;stroke-width:5.00250006;stroke-linecap:butt;stroke-linejoin:miter;stroke-miterlimit:10;stroke-dasharray:none;stroke-opacity:1"
         d="m 1492.5,2482.5 h 1125 V 3315 h -1125 z" /></g></g></svg>