<?xml version="1.0" encoding="UTF-8" standalone="no"?>
<svg
   xmlns:dc="http://purl.org/dc/elements/1.1/"
   xmlns:cc="http://creativecommons.org/ns#"
   xmlns:rdf="http://www.w3.org/1999/02/22-rdf-syntax-ns#"
   xmlns:svg="http://www.w3.org/2000/svg"
   xmlns="http://www.w3.org/2000/svg"
   viewBox="0 0 1200 500"
   height="500"
   width="1200"
   xml:space="preserve"
   id="svg2"
   version="1.1"><metadata
     id="metadata8"><rdf:RDF><cc:Work
         rdf:about=""><dc:format>image/svg+xml</dc:format><dc:type
           rdf:resource="http://purl.org/dc/dcmitype/StillImage" /></cc:Work></rdf:RDF></metadata><defs
     id="defs6" /><g
     transform="matrix(1.3333333,0,0,-1.3333333,0,500)"
     id="g10"><g
       transform="scale(0.1)"
       id="g12"><path
         id="path14"
         style="fill:#ffffff;fill-opacity:1;fill-rule:nonzero;stroke:none"
         d="M 0,0 H 9000 V 3750 H 0 Z" /><path
         id="path16"
         style="fill:#ffffff;fill-opacity:1;fill-rule:nonzero;stroke:none"
         d="M 0,0 H 9000 V 3750 H 0 Z" /><path
         id="path18"
         style="fill:#ffffff;fill-opacity:1;fill-rule:nonzero;stroke:none"
         d="M 1395,600 H 8595 V 3412.5 H 1395 Z" /><path
         id="path20"
         style="fill:none;stroke:#262626;stroke-width:5.00250006;stroke-linecap:square;stroke-linejoin:round;stroke-miterlimit:10;stroke-dasharray:none;stroke-opacity:1"
         d="M 1395,600 H 8595" /><path
         id="path22"
         style="fill:none;stroke:#262626;stroke-width:5.00250006;stroke-linecap:square;stroke-linejoin:round;stroke-miterlimit:10;stroke-dasharray:none;stroke-opacity:1"
         d="M 1395,3412.5 H 8595" /><path
         id="path24"
         style="fill:none;stroke:#262626;stroke-width:5.00250006;stroke-linecap:square;stroke-linejoin:round;stroke-miterlimit:10;stroke-dasharray:none;stroke-opacity:1"
         d="m 1395,600 v 72" /><path
         id="path26"
         style="fill:none;stroke:#262626;stroke-width:5.00250006;stroke-linecap:square;stroke-linejoin:round;stroke-miterlimit:10;stroke-dasharray:none;stroke-opacity:1"
         d="m 2297.26,600 v 72" /><path
         id="path28"
         style="fill:none;stroke:#262626;stroke-width:5.00250006;stroke-linecap:square;stroke-linejoin:round;stroke-miterlimit:10;stroke-dasharray:none;stroke-opacity:1"
         d="m 3199.52,600 v 72" /><path
         id="path30"
         style="fill:none;stroke:#262626;stroke-width:5.00250006;stroke-linecap:square;stroke-linejoin:round;stroke-miterlimit:10;stroke-dasharray:none;stroke-opacity:1"
         d="m 4101.77,600 v 72" /><path
         id="path32"
         style="fill:none;stroke:#262626;stroke-width:5.00250006;stroke-linecap:square;stroke-linejoin:round;stroke-miterlimit:10;stroke-dasharray:none;stroke-opacity:1"
         d="m 5004.02,600 v 72" /><path
         id="path34"
         style="fill:none;stroke:#262626;stroke-width:5.00250006;stroke-linecap:square;stroke-linejoin:round;stroke-miterlimit:10;stroke-dasharray:none;stroke-opacity:1"
         d="m 5906.28,600 v 72" /><path
         id="path36"
         style="fill:none;stroke:#262626;stroke-width:5.00250006;stroke-linecap:square;stroke-linejoin:round;stroke-miterlimit:10;stroke-dasharray:none;stroke-opacity:1"
         d="m 6808.54,600 v 72" /><path
         id="path38"
         style="fill:none;stroke:#262626;stroke-width:5.00250006;stroke-linecap:square;stroke-linejoin:round;stroke-miterlimit:10;stroke-dasharray:none;stroke-opacity:1"
         d="m 7710.79,600 v 72" /><path
         id="path40"
         style="fill:none;stroke:#262626;stroke-width:5.00250006;stroke-linecap:square;stroke-linejoin:round;stroke-miterlimit:10;stroke-dasharray:none;stroke-opacity:1"
         d="m 1395,3412.5 v -72" /><path
         id="path42"
         style="fill:none;stroke:#262626;stroke-width:5.00250006;stroke-linecap:square;stroke-linejoin:round;stroke-miterlimit:10;stroke-dasharray:none;stroke-opacity:1"
         d="m 2297.26,3412.5 v -72" /><path
         id="path44"
         style="fill:none;stroke:#262626;stroke-width:5.00250006;stroke-linecap:square;stroke-linejoin:round;stroke-miterlimit:10;stroke-dasharray:none;stroke-opacity:1"
         d="m 3199.52,3412.5 v -72" /><path
         id="path46"
         style="fill:none;stroke:#262626;stroke-width:5.00250006;stroke-linecap:square;stroke-linejoin:round;stroke-miterlimit:10;stroke-dasharray:none;stroke-opacity:1"
         d="m 4101.77,3412.5 v -72" /><path
         id="path48"
         style="fill:none;stroke:#262626;stroke-width:5.00250006;stroke-linecap:square;stroke-linejoin:round;stroke-miterlimit:10;stroke-dasharray:none;stroke-opacity:1"
         d="m 5004.02,3412.5 v -72" /><path
         id="path50"
         style="fill:none;stroke:#262626;stroke-width:5.00250006;stroke-linecap:square;stroke-linejoin:round;stroke-miterlimit:10;stroke-dasharray:none;stroke-opacity:1"
         d="m 5906.28,3412.5 v -72" /><path
         id="path52"
         style="fill:none;stroke:#262626;stroke-width:5.00250006;stroke-linecap:square;stroke-linejoin:round;stroke-miterlimit:10;stroke-dasharray:none;stroke-opacity:1"
         d="m 6808.54,3412.5 v -72" /><path
         id="path54"
         style="fill:none;stroke:#262626;stroke-width:5.00250006;stroke-linecap:square;stroke-linejoin:round;stroke-miterlimit:10;stroke-dasharray:none;stroke-opacity:1"
         d="m 7710.79,3412.5 v -72" /><g
         transform="scale(10)"
         id="g56"><text
           id="text60"
           style="font-variant:normal;font-weight:normal;font-size:20.00020027px;font-family:Helvetica;-inkscape-font-specification:Helvetica;writing-mode:lr-tb;fill:#262626;fill-opacity:1;fill-rule:nonzero;stroke:none"
           transform="matrix(1,0,0,-1,133.5,33)"><tspan
             id="tspan58"
             y="0"
             x="0 90.225105 174.82574 185.94586 265.05084 276.17096 355.27637 366.39645 445.50146 456.62155 535.72693 546.84705 625.95209 637.07214">05101520253035</tspan></text>
<text
           id="text64"
           style="font-variant:normal;font-weight:normal;font-size:21.99970055px;font-family:Helvetica;-inkscape-font-specification:Helvetica;writing-mode:lr-tb;fill:#262626;fill-opacity:1;fill-rule:nonzero;stroke:none"
           transform="matrix(1,0,0,-1,449.625,5)"><tspan
             id="tspan62"
             y="0"
             x="0 13.441816 25.673651 43.999401 56.231232 68.463066 74.578979 81.904884 92.904732">Tempo (s)</tspan></text>
</g><path
         id="path66"
         style="fill:none;stroke:#262626;stroke-width:5.00250006;stroke-linecap:square;stroke-linejoin:round;stroke-miterlimit:10;stroke-dasharray:none;stroke-opacity:1"
         d="M 1395,600 V 3412.5" /><path
         id="path68"
         style="fill:none;stroke:#262626;stroke-width:5.00250006;stroke-linecap:square;stroke-linejoin:round;stroke-miterlimit:10;stroke-dasharray:none;stroke-opacity:1"
         d="M 8595,600 V 3412.5" /><path
         id="path70"
         style="fill:none;stroke:#262626;stroke-width:5.00250006;stroke-linecap:square;stroke-linejoin:round;stroke-miterlimit:10;stroke-dasharray:none;stroke-opacity:1"
         d="m 1395,1069.91 h 72" /><path
         id="path72"
         style="fill:none;stroke:#262626;stroke-width:5.00250006;stroke-linecap:square;stroke-linejoin:round;stroke-miterlimit:10;stroke-dasharray:none;stroke-opacity:1"
         d="m 1395,1965.14 h 72" /><path
         id="path74"
         style="fill:none;stroke:#262626;stroke-width:5.00250006;stroke-linecap:square;stroke-linejoin:round;stroke-miterlimit:10;stroke-dasharray:none;stroke-opacity:1"
         d="m 1395,2860.37 h 72" /><path
         id="path76"
         style="fill:none;stroke:#262626;stroke-width:5.00250006;stroke-linecap:square;stroke-linejoin:round;stroke-miterlimit:10;stroke-dasharray:none;stroke-opacity:1"
         d="m 8595,1069.91 h -72" /><path
         id="path78"
         style="fill:none;stroke:#262626;stroke-width:5.00250006;stroke-linecap:square;stroke-linejoin:round;stroke-miterlimit:10;stroke-dasharray:none;stroke-opacity:1"
         d="m 8595,1965.14 h -72" /><path
         id="path80"
         style="fill:none;stroke:#262626;stroke-width:5.00250006;stroke-linecap:square;stroke-linejoin:round;stroke-miterlimit:10;stroke-dasharray:none;stroke-opacity:1"
         d="m 8595,2860.37 h -72" /><g
         transform="scale(10)"
         id="g82"><text
           id="text90"
           style="font-variant:normal;font-weight:normal;font-size:20.00020027px;font-family:Helvetica;-inkscape-font-specification:Helvetica;writing-mode:lr-tb;fill:#262626;fill-opacity:1;fill-rule:nonzero;stroke:none"
           transform="matrix(1,0,0,-1,110.25,98.7402)"><tspan
             id="tspan84"
             y="0"
             x="0 11.120111">30</tspan><tspan
             id="tspan86"
             y="-89.523399"
             x="0 11.120111">35</tspan><tspan
             id="tspan88"
             y="-179.0464"
             x="0 11.120111">40</tspan></text>
<text
           id="text94"
           style="font-variant:normal;font-weight:normal;font-size:21.99970055px;font-family:Helvetica;-inkscape-font-specification:Helvetica;writing-mode:lr-tb;fill:#262626;fill-opacity:1;fill-rule:nonzero;stroke:none"
           transform="matrix(0,1,1,0,102,147.375)"><tspan
             id="tspan92"
             y="0"
             x="0 14.6738 19.557734 25.673651 37.905483 45.231384 57.463215 63.579132 70.905029 81.904884 100.23064">Altura (cm)</tspan></text>
</g><g
         transform="scale(10)"
         id="g96"><text
           id="text100"
           style="font-variant:normal;font-weight:bold;font-size:21.99970055px;font-family:Helvetica;-inkscape-font-specification:Helvetica-Bold;writing-mode:lr-tb;fill:#000000;fill-opacity:1;fill-rule:nonzero;stroke:none"
           transform="matrix(1,0,0,-1,298.125,350.625)"><tspan
             id="tspan98"
             y="0"
             x="0 15.883783 28.115616 40.34745 53.789265 67.231087 79.462914 86.788818 99.020653 105.13657 117.3684 123.48431 135.71616 147.94798 160.17981 172.41165 185.85347 198.0853 206.64319 212.75909 224.99094 231.10684 244.54866 257.99048 264.10638 283.66412 297.10596 310.54776 322.7796 328.89551 342.33734 348.45325 364.33704 380.22083 394.89462">Resposta à escadaria do modelo ARX2</tspan></text>
</g><path
         id="path102"
         style="fill:none;stroke:#0072bd;stroke-width:9.99750042;stroke-linecap:butt;stroke-linejoin:miter;stroke-miterlimit:10;stroke-dasharray:none;stroke-opacity:1"
         d="m 1395,781.801 h 9.02 v 105.586 h 9.03 v -89.028 h 9.02 v 23.438 h 9.02 V 713.34 h 9.02 v 62.281 h 9.03 v 89.113 h 9.02 v 112.059 h 9.02 v -14.656 h 9.02 v 17.64 h 9.03 v -51.586 h 9.02 v -20.617 h 9.02 v -78.636 h 9.02 v 53.093 h 9.03 v 2.84 h 9.02 v -111.23 h 9.02 v 185.496 h 9.02 V 775.891 h 9.03 v 169.777 h 9.02 v -20.137 h 9.02 v -29.843 h 9.02 v 9.839 h 9.03 v -31.402 h 9.02 v 1.344 h 9.02 v 2.429 h 9.02 v 16.868 h 9.03 v 6.757 h 9.02 v -1.652 h 9.02 v -10.777 h 9.02 v -8.114 h 9.03 v 70.403 h 9.02 v -90.121 h 9.02 v -88.86 h 9.02 v -63.515 h 9.03 V 633.66 h 9.02 v 188.738 h 9.02 v -107.41 h 9.02 v 41.305 h 9.03 v 171.785 h 9.02 v -33.867 h 9.02 v 23.309 h 9.02 v 42.488 h 9.03 v 177.882 h 9.02 V 936.801 h 9.02 v -38.383 h 9.02 v 17.52 h 9.03 v -33.907 h 9.02 v 55.168 h 9.02 v -50.015 h 9.02 v 112.054 h 9.03 v -73.754 h 9.02 v 19.215 h 9.02 v -106.34 h 9.02 v 42.637 h 9.02 v -16.5 h 9.03 v 40.274 h 9.02 V 687.898 h 9.02 v 5.883 h 9.02 v 13.641 h 9.03 V 865.23 h 9.02 v 144.88 h 9.02 v 6.98 h 9.02 v -14.76 h 9.03 V 842.641 h 9.02 v 54.57 h 9.02 V 784.363 h 9.02 V 912.57 h 9.04 v 3.938 h 9.02 v 105.662 h 9.02 v -75.842 h 9.02 v -81.953 h 9.03 v 51.234 h 9.02 V 671.301 h 9.02 v 0.926 h 9.02 v 217.32 h 9.03 v 91.777 h 9.02 v 37.126 h 9.02 v -22.458 h 9.02 v 68.148 h 9.03 v -30.55 h 9.02 V 846.887 h 9.02 v 99.758 h 9.02 v 93.185 h 9.03 v 145.89 h 9.02 v -156.26 h 9.02 v -88.733 h 9.02 v 141.083 h 9.02 V 980.211 h 9.03 v -19.977 h 9.02 v -23.32 h 9.02 v 6.902 h 9.02 v -24.668 h 9.03 v 2.063 h 9.02 v -67.996 h 9.02 v 39.816 h 9.02 v 54.078 h 9.03 v -75.558 h 9.02 v 112.953 h 9.02 v -69.953 h 9.02 V 1018.9 h 9.03 v 83.2 h 9.02 v 53.58 h 9.02 V 1078 h 9.02 V 947.07 h 9.03 v -7.59 h 9.02 v 108.38 h 9.02 V 918.871 h 9.02 v 61.68 h 9.03 V 722.879 h 9.02 v 212.812 h 9.02 V 863.34 h 9.02 V 750.555 h 9.03 v 4.98 h 9.02 v -28.058 h 9.02 v 2.027 h 9.02 V 955.98 h 9.03 v 10.165 h 9.02 v 48.165 h 9.02 v -54.497 h 9.02 v -44.469 h 9.03 v -33.989 h 9.02 v 21.016 h 9.02 v -31.492 h 9.02 v 128.187 h 9.03 V 946.32 h 9.02 v 16.223 h 9.02 V 842.121 h 9.02 v 97.043 h 9.03 v -45.777 h 9.02 v 71.465 h 9.02 v -9.059 h 9.03 v 3.531 h 9.02 v -32.847 h 9.02 v -11.68 h 9.02 v -0.309 h 9.03 v 18.992 h 9.02 v 14.856 h 9.02 v 3 h 9.02 v -82.535 h 9.03 v -132 h 9.02 v 169.851 h 9.02 v 3.145 h 9.02 V 774.434 h 9.03 v -74.563 h 9.02 v -37.223 h 9.02 v 121.981 h 9.02 v 131.594 h 9.03 v 37.613 h 9.02 v 93.064 h 9.02 v -97.017 h 9.02 v -35.496 h 9.03 v -117.66 h 9.02 v 131.691 h 9.02 v -4.043 h 9.02 v 82.005 h 9.03 V 904.449 h 9.02 v 66.688 h 9.02 v -97.574 h 9.02 v -26.879 h 9.03 v 101.652 h 9.02 v -5.91 h 9.02 v -29.457 h 9.02 v 63.008 h 9.03 v -70.098 h 9.02 v 21.082 h 9.02 v -81.254 h 9.02 v 52.199 h 9.03 v -18.312 h 9.02 v 95.691 h 9.02 v -36.914 h 9.02 v -50.047 h 9.03 v 271.636 h 9.02 v -126.3 h 9.02 v 105.52 h 9.02 v 127.89 h 9.03 v -2.27 h 9.02 v -197.39 h 9.02 v 45.83 h 9.02 v -78.4 h 9.03 v -6.56 h 9.02 v 114.92 h 9.02 V 927.367 h 9.02 v 238.213 h 9.03 V 934.125 h 9.02 v -27.016 h 9.02 v -20.984 h 9.02 v 159.185 h 9.02 v -86.794 h 9.03 v 21.48 h 9.02 v -47.699 h 9.02 v -28.613 h 9.02 v -81.676 h 9.03 v 51.906 h 9.02 v 78.481 h 9.02 v 11.46 h 9.02 v 12.141 h 9.03 v -39.441 h 9.02 v -97.817 h 9.02 v 86.965 h 9.02 v -97.816 h 9.04 v 24.535 h 9.02 v 70.137 h 9.02 v 45.078 h 9.02 v 6.937 h 9.03 v -49.636 h 9.02 v 164.702 h 9.02 v 68.13 h 9.02 v 87.24 h 9.03 v 53.02 h 9.02 v 97.3 h 9.02 v 186.85 h 9.02 v 166.84 h 9.03 v -39.88 h 9.02 v 192.97 h 9.02 v -27.7 h 9.02 v 164.5 h 9.03 v -27.73 h 9.02 v 196.45 h 9.02 v -91.55 h 9.02 v -14.46 h 9.02 v -271.67 h 9.03 v -45.65 h 9.02 v -129.48 h 9.02 v -64.37 h 9.02 v -27.49 h 9.03 v 50.32 h 9.02 v 108.45 h 9.02 v 19.13 h 9.02 v -3.56 h 9.03 v 325.61 h 9.02 v 126 h 9.02 v -104.82 h 9.02 v -198.42 h 9.03 v 19.86 h 9.02 v 17.24 h 9.02 v 59.85 h 9.02 v 89.35 h 9.03 v 14.83 h 9.02 v -211.97 h 9.02 v -65.17 h 9.02 v 51.43 h 9.03 v 129.83 h 9.02 v -96.85 h 9.02 v 57.08 h 9.02 v 20.94 h 9.03 v -137.86 h 9.02 v -25.96 h 9.02 v 345.89 h 9.02 v -134.4 h 9.03 v 157.72 h 9.02 v -126.03 h 9.02 v 192.16 h 9.02 v -143.54 h 9.03 v -110.62 h 9.02 v -172.82 h 9.02 v 164.46 h 9.02 v 94.75 h 9.03 v -62.23 h 9.02 v 69.11 h 9.02 v -86.14 h 9.02 v -19.06 h 9.03 v -81.21 h 9.02 v -56.62 h 9.02 V 1722.4 h 9.03 v -172.04 h 9.02 v 238.56 h 9.02 v -100.4 h 9.02 v 67.27 h 9.03 v -24.77 h 9.02 v 103.05 h 9.02 v 210.43 h 9.02 v -66.74 h 9.03 v 121.48 h 9.02 v -206.82 h 9.02 v -14.52 h 9.02 v 55.15 h 9.03 v 60.32 h 9.02 v 58.26 h 9.02 v 19.87 h 9.02 v -36.86 h 9.03 v -51.8 h 9.02 v -195.59 h 9.02 v 21.23 h 9.02 v 8.52 h 9.03 v 66.41 h 9.02 v -213.3 h 9.02 v 196.57 h 9.02 v -41.52 h 9.03 V 1693.1 h 9.02 v 70.1 h 9.02 v 188.23 h 9.02 v 122.78 h 9.03 v -52.46 h 9.02 v 7.07 h 9.02 v -94.6 h 9.02 v 38.08 h 9.03 v -296.16 h 9.02 v 176.32 h 9.02 v 98.49 h 9.02 v 27.74 h 9.03 v -34.38 h 9.02 v 80.7 h 9.02 v -47.28 h 9.02 v -99.43 h 9.03 v -180.74 h 9.02 v -228.6 h 9.02 v 15.96 h 9.02 v 1.46 h 9.03 v 84.94 h 9.02 v 159.46 h 9.02 v 310.24 h 9.02 v 84.07 h 9.03 v 109.98 h 9.02 v -283.32 h 9.02 v -185.32 h 9.02 v 97.9 h 9.03 v 204.65 h 9.02 v -92.53 h 9.02 v 93.8 h 9.02 v 102.68 h 9.02 v -88.75 h 9.03 v -164.13 h 9.02 v -114.56 h 9.02 v -7.19 h 9.02 v -74.5 h 9.03 v -149.93 h 9.02 v 311.03 h 9.02 v 85.32 h 9.02 v -78.55 h 9.03 v 146.85 h 9.02 v -86.1 h 9.02 v 5.22 h 9.02 v -132.66 h 9.04 v 128.61 h 9.02 v 15.93 h 9.02 v 44.57 h 9.02 v -11.34 h 9.03 v -25.77 h 9.02 v -32.69 h 9.02 v -4.36 h 9.02 v 17.82 h 9.03 v 81.34 h 9.02 v -65.81 h 9.02 v 193.01 h 9.02 v -62.22 h 9.03 v 34.86 h 9.02 v -147.14 h 9.02 v -12.37 h 9.02 v -22.27 h 9.03 v -192.9 h 9.02 v 53.8 h 9.02 v -148.2 h 9.02 v 25.65 h 9.02 v 47.66 h 9.03 v 124.67 h 9.02 v -134.86 h 9.02 v 239.3 h 9.02 v 126.25 h 9.03 v 77.94 h 9.02 v -178.6 h 9.02 v 90.03 h 9.02 v -16.34 h 9.03 v -91.12 h 9.02 v 23.31 h 9.02 v 3.65 h 9.02 v -159.85 h 9.03 v -177.22 h 9.02 v -93.57 h 9.02 v 81.44 h 9.02 v 25.96 h 9.03 v 150.46 h 9.02 v 205.14 h 9.02 v 231.32 h 9.02 V 2141.3 h 9.03 v -157.48 h 9.02 v -42.28 h 9.02 v -35.47 h 9.02 v 78.8 h 9.03 v 65.61 h 9.02 v 31.48 h 9.02 v 69.93 h 9.02 v -153.98 h 9.03 v 18.36 h 9.02 v -37.16 h 9.02 v -222.19 h 9.02 v -46.37 h 9.03 v -184.99 h 9.02 v 138.43 h 9.02 v -39.29 h 9.02 v 97.76 h 9.03 v 43.13 h 9.02 v 205.08 h 9.02 v 273.73 h 9.02 v -47.97 h 9.03 v 30.7 h 9.02 v -257.57 h 9.02 v -26.67 h 9.03 v -41.23 h 9.02 v 29.39 h 9.02 v 28.47 h 9.02 v 146.71 h 9.03 v -248.78 h 9.02 v -170.8 h 9.02 v 48.85 h 9.02 v 285.7 h 9.03 v 37.9 h 9.02 v 29.47 h 9.02 v 177.56 h 9.02 v 69.79 h 9.03 v -22.88 h 9.02 v 76.15 h 9.02 v 144.2 h 9.02 v 313.06 h 9.03 v 130.68 h 9.02 v -222.21 h 9.02 v -230.05 h 9.02 v 172.99 h 9.03 v -20.48 h 9.02 v 31.01 h 9.02 v 54.69 h 9.02 v 108.39 h 9.03 v 16.22 h 9.02 v 119.29 h 9.02 v 24.98 h 9.02 v -107.3 h 9.03 v 215.91 h 9.02 v 200.31 h 9.02 v -333.36 h 9.02 v 64.72 h 9.03 v -187.13 h 9.02 v -119.86 h 9.02 v -64.76 h 9.02 v 37.24 h 9.03 v 44.25 h 9.02 v -72.82 h 9.02 v 64.9 h 9.02 V 2741 h 9.03 v -39.96 h 9.02 v -21.55 h 9.02 v 113.83 h 9.02 v -75.76 h 9.03 V 2728 h 9.02 v -33.45 h 9.02 v 175.03 h 9.02 v -22.59 h 9.03 v 60.06 h 9.02 v -32.55 h 9.02 v 114.17 h 9.02 v -38.06 h 9.03 v 30.02 h 9.02 v 31.47 h 9.02 v -186.63 h 9.02 v 21.49 h 9.02 v -53.12 h 9.03 V 2558.3 h 9.02 v 123.47 h 9.02 v 129.19 h 9.02 V 2776 h 9.03 v 15.83 h 9.02 v 176.22 h 9.02 v 8.74 h 9.02 v -34.9 h 9.03 v 54.17 h 9.02 v -1.59 h 9.02 v -42.6 h 9.02 v 16.52 h 9.04 V 2731.3 h 9.02 v 2.11 h 9.02 v -34.96 h 9.02 v 3.39 h 9.03 v 51.4 h 9.02 v 9.62 h 9.02 v -5.52 h 9.02 v 107.76 h 9.03 v -113.32 h 9.02 v 15.06 h 9.02 v -22.52 h 9.02 v 59.8 h 9.03 v -103.27 h 9.02 v 59.52 h 9.02 v 91.46 h 9.02 v 16.83 h 9.03 v 16.54 h 9.02 v -16.95 h 9.02 v 66.82 h 9.02 v 125.55 h 9.02 v -73.3 h 9.03 v -29.78 h 9.02 v -161.03 h 9.02 v 19.78 h 9.02 v -167.2 h 9.03 v 72.75 h 9.02 v 141.65 h 9.02 v 39.91 h 9.02 v -124.46 h 9.03 v 46.95 h 9.02 v -16.32 h 9.02 v -269.11 h 9.02 v 286.6 h 9.03 v 112.54 h 9.02 v 5.08 h 9.02 v -68.71 h 9.02 v 77.93 h 9.03 v -37.04 h 9.02 v -152.07 h 9.02 v 54.5 h 9.02 v 32.44 h 9.03 v 19.04 h 9.02 v -128.91 h 9.02 v -15.11 h 9.02 v -45.49 h 9.03 v 159.3 h 9.02 v 24.77 h 9.02 v -77.37 h 9.02 v 17.23 h 9.03 v 51.54 h 9.02 v 40.83 h 9.02 v -24.19 h 9.02 v 2.07 h 9.03 v 164.47 h 9.02 v -176.13 h 9.02 v 34.63 h 9.02 v -106.44 h 9.03 v -48.76 h 9.02 v -17.2 h 9.02 v -12.62 h 9.02 v -108 h 9.03 v 237.2 h 9.02 v 157.91 h 9.02 v -279.59 h 9.03 v 301.54 h 9.02 v 30.48 h 9.02 v -73.97 h 9.02 v -80.58 h 9.03 v 44.2 h 9.02 v 37.31 h 9.02 v -163.21 h 9.02 v 97.72 h 9.03 v 24 h 9.02 v -171.63 h 9.02 v 29.74 h 9.02 v 172.51 h 9.03 v -93.14 h 9.02 v -80.67 h 9.02 v 184.32 h 9.02 v 8.25 h 9.03 v 29.13 h 9.02 v 1.58 h 9.02 v -15.92 h 9.02 v -23.28 h 9.03 v -52.15 h 9.02 v -152.55 h 9.02 v -22.02 h 9.02 v 3.34 h 9.03 v 119.39 h 9.02 v 40.12 h 9.02 v 17.94 h 9.02 v -78.04 h 9.03 v 19.5 h 9.02 v -51.75 h 9.02 v 176.55 h 9.02 v -205.01 h 9.03 v 41.19 h 9.02 v 11.05 h 9.02 v -121.46 h 9.02 v 153.75 h 9.03 v -5.16 h 9.02 v 100.71 h 9.02 v -83.86 h 9.02 v -37.14 h 9.03 v -136.96 h 9.02 v 32.78 h 9.02 v 138.07 h 9.02 v -71.52 h 9.03 v 44.47 h 9.02 v 71.17 h 9.02 v 51.27 h 9.02 v 15.61 h 9.03 v -120.99 h 9.02 v 2.7 h 9.02 v -37.34 h 9.02 v -72.15 h 9.03 v 139.79 h 9.02 v -37.66 h 9.02 v 55.71 h 9.02 v -40.63 h 9.02 v -11.94 h 9.03 v -25.23 h 9.02 v 143.42 h 9.02 v 11.7 h 9.02 v -43.72 h 9.03 v -87.68 h 9.02 v -26.77 h 9.02 v -29.64 h 9.02 v 40.27 h 9.03 v 39.05 h 9.02 v -19.91 h 9.02 v -45.82 h 9.02 v 59.52 h 9.04 v -192.08 h 9.02 v 54.57 h 9.02 v 63.86 h 9.02 v 96.99 h 9.03 v -224.56 h 9.02 v 109.82 h 9.02 v -231.38 h 9.02 v -120.35 h 9.03 v -60.77 h 9.02 v 95.44 h 9.02 V 2341 h 9.02 v -266.35 h 9.03 v -230.24 h 9.02 v -287.24 h 9.02 v -373.65 h 9.02 V 877.688 h 9.03 v -85.11 h 9.02 V 681.074 h 9.02 v 58.156 h 9.02 v 237.149 h 9.02 v -66.117 h 9.03 v 45.515 h 9.02 v 186.763 h 9.02 v -121.12 h 9.02 v 473.24 h 9.03 v -64.08 h 9.02 v 100.09 h 9.02 v -47.18 h 9.02 v -70.92 h 9.03 v -94.98 h 9.02 v -280.5 h 9.02 V 915.809 h 9.02 v -85.133 h 9.03 v -71.953 h 9.02 v -65.004 h 9.02 v 204.429 h 9.02 V 608.957 h 9.03 v 295.16 h 9.02 v -40.019 h 9.02 v 58.312 h 9.02 v 52.641 h 9.03 v 37.999 h 9.02 v 174.47 h 9.02 v -79.39 h 9.02 v 246.38 h 9.03 v -67.42 h 9.02 v -158.32 h 9.02 v -51.56 h 9.02 V 967.5 h 9.03 v -80.543 h 9.02 v -58.508 h 9.02 v 141.446 h 9.02 v -31.407 h 9.03 v -29.961 h 9.02 v 257.453 h 9.02 v -139.31 h 9.02 v 160.93 h 9.03 v -162.48 h 9.02 v 63.84 h 9.02 v -67.75 h 9.02 v 307.64 h 9.03 v -97.69 h 9.02 v 108.77 h 9.02 v -31.57 h 9.03 v -109.48 h 9.02 v -66.87 h 9.02 v -119.94 h 9.02 v 81.85 h 9.03 V 824.664 h 9.02 v 154.07 h 9.02 v -103.73 h 9.02 v 67.965 h 9.03 V 919.98 h 9.02 v 168.13 h 9.02 v 2.14 h 9.02 v 17.11 h 9.03 v -35.78 h 9.02 v -24.63 h 9.02 v -12.74 h 9.02 v 152.75 h 9.03 v -26.32 h 9.02 v -11.92 h 9.02 v -95.68 h 9.02 v 115.85 h 9.03 v -76.94 h 9.02 V 903.051 h 9.02 v 229.899 h 9.02 V 875.781 h 9.03 v 288.269 h 9.02 v -75.78 h 9.02 v -57.84 h 9.02 v 67.33 h 9.03 v 128.72 h 9.02 V 1052.9 h 9.02 v 173.67 h 9.02 v -105.43 h 9.03 v -13.61 h 9.02 v -18.99 h 9.02 v 0.36 h 9.02 V 896.484 h 9.03 v 91.7 h 9.02 v 146.906 h 9.02 v -15.96 h 9.02 v 58.64 h 9.03 v 147.31 h 9.02 v -168.6 h 9.02 v 119.4 h 9.02 v -92.97 h 9.03 V 979.426 h 9.02 v 152.284 h 9.02 v -81.59 h 9.02 V 935.281 h 9.03 v -14.25 h 9.02 v 44.985 h 9.02 v -85.743 h 9.02 v 69.055 h 9.03 V 926.16 h 9.02 v 21.727 h 9.02 v -19.133 h 9.02 v -1.168 h 9.02 v 63.391 h 9.03 V 902.25 h 9.02 v 53.445 h 9.02 v 30.481 h 9.02 v -77.738 h 9.03 v 177.572 h 9.02 v 52.73 h 9.03 V 1151 h 9.01 v -143.61 h 9.04 v 147.81 h 9.02 v -116.34 h 9.01 v -49.317 h 9.02 v 171.587 h 9.03 V 964.426 h 9.03 v 41.764 h 9.02 v 69.6 h 9.02 v -34.44 h 9.03 v -91.1 h 9.01 v 245.21 h 9.03 v -116.74 h 9.02 v 88.61 h 9.03 v -67.11 h 9.02 V 971.746 h 9.02 v 293.864 h 9.02 v -188.9 h 9.03 v 163.67 h 9.02 v -157.9 h 9.02 v 112.66 h 9.02 v -167.32 h 9.03 v 15.32 h 9.02 v 60.77 h 9.02 V 975.906 h 9.02 v 152.684 h 9.02 v -87.36 h 9.03 v 45.33 h 9.02 v 27.76 h 9.02 v -9.05 h 9.02 v 14.22 h 9.03 v 191.39 h 9.02 v -10.61 h 9.03 v -34.16 h 9.01 v -152.97 h 9.03 v -64.84 h 9.02 v -14.14 h 9.02 v 43.7 h 9.02 v 126.92 h 9.03 V 932.387 h 9.02 v 28.176 h 9.02 v 12.332 h 9.02 v -84.602 h 9.03 v 32.566 h 9.02 V 882 h 9.02 v 31.852 h 9.02 v 32.175 h 9.03 v 181.243 h 9.02 v 6.05 h 9.02 v 33.36 h 9.03 v -39.53 h 9.02 v 35.06 h 9.02 v -116.19 h 9.02 v 60.72 h 9.02 v -82.77 h 9.03 v -2.24 h 9.02 v 64.51 h 9.02 v -29.65 h 9.02 V 872.422 h 9.03 v 198.358 h 9.02 v -45.47 h 9.02 V 895.762 h 9.02 v 204.428 h 9.03 v 152.72 h 9.02 v 39.93 h 9.02 v -190.36 h 9.03 v 25.04 h 9.02 V 948.734 h 9.02 v 72.496 h 9.02 v 80.23 h 9.03 v 59.08 h 9.02 v 21.09 h 9.02 v -114.69" /><path
         id="path104"
         style="fill:none;stroke:#ff0000;stroke-width:9.99750042;stroke-linecap:butt;stroke-linejoin:miter;stroke-miterlimit:10;stroke-dasharray:none;stroke-opacity:1"
         d="m 1395,1069.91 h 9.02 9.03 9.02 9.02 9.02 9.03 9.02 9.02 9.02 9.03 9.02 9.02 9.02 9.03 9.02 9.02 9.02 9.03 9.02 9.02 9.02 9.03 9.02 9.02 9.02 9.03 9.02 9.02 9.02 9.03 9.02 9.02 9.02 9.03 9.02 9.02 9.02 9.03 9.02 9.02 9.02 9.03 9.02 9.02 9.02 9.03 9.02 9.02 9.02 9.03 9.02 9.02 9.02 9.02 9.03 9.02 9.02 9.02 9.03 9.02 9.02 9.02 9.03 9.02 9.02 9.02 9.04 9.02 9.02 9.02 9.03 9.02 9.02 9.02 9.03 9.02 9.02 9.02 9.03 9.02 9.02 9.02 9.03 9.02 9.02 9.02 9.02 9.03 9.02 9.02 9.02 9.03 9.02 9.02 9.02 9.03 9.02 9.02 9.02 9.03 9.02 9.02 9.02 9.03 9.02 9.02 9.02 9.03 9.02 9.02 9.02 9.03 9.02 9.02 9.02 9.03 9.02 9.02 9.02 9.03 9.02 9.02 9.02 9.03 9.02 9.02 9.02 9.03 9.02 9.02 9.03 9.02 9.02 9.02 9.03 9.02 9.02 9.02 9.03 9.02 9.02 9.02 9.03 9.02 9.02 9.02 9.03 9.02 9.02 9.02 9.03 9.02 9.02 9.02 9.03 9.02 9.02 9.02 9.03 9.02 9.02 9.02 9.03 9.02 9.02 9.02 9.03 9.02 9.02 9.02 9.03 9.02 9.02 9.02 9.03 9.02 9.02 9.02 9.03 9.02 9.02 9.02 9.03 9.02 9.02 9.02 9.02 9.03 9.02 9.02 9.02 9.03 9.02 9.02 9.02 9.03 9.02 9.02 9.02 v 895.23 h 9.04 9.02 9.02 9.02 9.03 9.02 9.02 9.02 9.03 9.02 9.02 9.02 9.03 9.02 9.02 9.02 9.03 9.02 9.02 9.02 9.02 9.03 9.02 9.02 9.02 9.03 9.02 9.02 9.02 9.03 9.02 9.02 9.02 9.03 9.02 9.02 9.02 9.03 9.02 9.02 9.02 9.03 9.02 9.02 9.02 9.03 9.02 9.02 9.02 9.03 9.02 9.02 9.02 9.03 9.02 9.02 9.02 9.03 9.02 9.02 9.02 9.03 9.02 9.02 9.03 9.02 9.02 9.02 9.03 9.02 9.02 9.02 9.03 9.02 9.02 9.02 9.03 9.02 9.02 9.02 9.03 9.02 9.02 9.02 9.03 9.02 9.02 9.02 9.03 9.02 9.02 9.02 9.03 9.02 9.02 9.02 9.03 9.02 9.02 9.02 9.03 9.02 9.02 9.02 9.03 9.02 9.02 9.02 9.03 9.02 9.02 9.02 9.03 9.02 9.02 9.02 9.03 9.02 9.02 9.02 9.02 9.03 9.02 9.02 9.02 9.03 9.02 9.02 9.02 9.03 9.02 9.02 9.02 9.04 9.02 9.02 9.02 9.03 9.02 9.02 9.02 9.03 9.02 9.02 9.02 9.03 9.02 9.02 9.02 9.03 9.02 9.02 9.02 9.02 9.03 9.02 9.02 9.02 9.03 9.02 9.02 9.02 9.03 9.02 9.02 9.02 9.03 9.02 9.02 9.02 9.03 9.02 9.02 9.02 9.03 9.02 9.02 9.02 9.03 9.02 9.02 9.02 9.03 9.02 9.02 9.02 9.03 9.02 9.02 9.02 9.03 9.02 9.02 9.02 9.03 9.02 9.02 9.03 9.02 9.02 v 895.23 h 9.02 9.03 9.02 9.02 9.02 9.03 9.02 9.02 9.02 9.03 9.02 9.02 9.02 9.03 9.02 9.02 9.02 9.03 9.02 9.02 9.02 9.03 9.02 9.02 9.02 9.03 9.02 9.02 9.02 9.03 9.02 9.02 9.02 9.03 9.02 9.02 9.02 9.03 9.02 9.02 9.02 9.03 9.02 9.02 9.02 9.03 9.02 9.02 9.02 9.03 9.02 9.02 9.02 9.02 9.03 9.02 9.02 9.02 9.03 9.02 9.02 9.02 9.03 9.02 9.02 9.02 9.04 9.02 9.02 9.02 9.03 9.02 9.02 9.02 9.03 9.02 9.02 9.02 9.03 9.02 9.02 9.02 9.03 9.02 9.02 9.02 9.02 9.03 9.02 9.02 9.02 9.03 9.02 9.02 9.02 9.03 9.02 9.02 9.02 9.03 9.02 9.02 9.02 9.03 9.02 9.02 9.02 9.03 9.02 9.02 9.02 9.03 9.02 9.02 9.02 9.03 9.02 9.02 9.02 9.03 9.02 9.02 9.02 9.03 9.02 9.02 9.02 9.03 9.02 9.02 9.03 9.02 9.02 9.02 9.03 9.02 9.02 9.02 9.03 9.02 9.02 9.02 9.03 9.02 9.02 9.02 9.03 9.02 9.02 9.02 9.03 9.02 9.02 9.02 9.03 9.02 9.02 9.02 9.03 9.02 9.02 9.02 9.03 9.02 9.02 9.02 9.03 9.02 9.02 9.02 9.03 9.02 9.02 9.02 9.03 9.02 9.02 9.02 9.03 9.02 9.02 9.02 9.03 9.02 9.02 9.02 9.02 9.03 9.02 9.02 9.02 9.03 9.02 9.02 9.02 9.03 9.02 9.02 9.02 9.04 V 1069.91 h 9.02 9.02 9.02 9.03 9.02 9.02 9.02 9.03 9.02 9.02 9.02 9.03 9.02 9.02 9.02 9.03 9.02 9.02 9.02 9.02 9.03 9.02 9.02 9.02 9.03 9.02 9.02 9.02 9.03 9.02 9.02 9.02 9.03 9.02 9.02 9.02 9.03 9.02 9.02 9.02 9.03 9.02 9.02 9.02 9.03 9.02 9.02 9.02 9.03 9.02 9.02 9.02 9.03 9.02 9.02 9.02 9.03 9.02 9.02 9.02 9.03 9.02 9.02 9.03 9.02 9.02 9.02 9.03 9.02 9.02 9.02 9.03 9.02 9.02 9.02 9.03 9.02 9.02 9.02 9.03 9.02 9.02 9.02 9.03 9.02 9.02 9.02 9.03 9.02 9.02 9.02 9.03 9.02 9.02 9.02 9.03 9.02 9.02 9.02 9.03 9.02 9.02 9.02 9.03 9.02 9.02 9.02 9.03 9.02 9.02 9.02 9.03 9.02 9.02 9.02 9.03 9.02 9.02 9.02 9.02 9.03 9.02 9.02 9.02 9.03 9.02 9.03 9.01 9.04 9.02 9.01 9.02 9.03 9.03 9.02 9.02 9.03 9.01 9.03 9.02 9.03 9.02 9.02 9.02 9.03 9.02 9.02 9.02 9.03 9.02 9.02 9.02 9.02 9.03 9.02 9.02 9.02 9.03 9.02 9.03 9.01 9.03 9.02 9.02 9.02 9.03 9.02 9.02 9.02 9.03 9.02 9.02 9.02 9.03 9.02 9.02 9.03 9.02 9.02 9.02 9.02 9.03 9.02 9.02 9.02 9.03 9.02 9.02 9.02 9.03 9.02 9.02 9.03 9.02 9.02 9.02 9.03 9.02 9.02 v 0" /><path
         id="path106"
         style="fill:none;stroke:#000000;stroke-width:9.99750042;stroke-linecap:butt;stroke-linejoin:miter;stroke-miterlimit:10;stroke-dasharray:none;stroke-opacity:1"
         d="m 1395,860.484 h 9.02 9.03 9.02 v -52.195 h 9.02 V 702.18 h 9.02 9.03 v 106.109 h 9.02 v 103.832 h 9.02 9.02 9.03 9.02 9.02 v -51.637 h 9.02 9.03 9.02 V 755.527 h 9.02 v 104.957 h 9.02 v -52.195 h 9.03 v 52.195 h 9.02 v 51.637 h 9.02 v -51.637 h 9.02 9.03 9.02 9.02 9.02 9.03 9.02 9.02 9.02 9.03 v 51.637 h 9.02 v -51.637 h 9.02 V 755.527 h 9.02 V 702.18 h 9.03 v -53.942 h 9.02 v 107.289 h 9.02 V 702.18 h 9.02 v -53.942 h 9.03 v 160.051 h 9.02 v 52.195 h 9.02 9.02 v 51.637 h 9.03 v 151.609 h 9.02 V 963.195 h 9.02 V 860.484 h 9.02 v 51.637 h 9.03 9.02 9.02 v -51.637 h 9.02 v 51.637 h 9.03 9.02 9.02 v -51.637 h 9.02 9.02 9.03 9.02 V 702.18 h 9.02 v -53.942 h 9.02 v 53.942 h 9.03 v 106.109 h 9.02 v 103.832 h 9.02 9.02 9.03 v -51.637 h 9.02 v 51.637 h 9.02 v -51.637 h 9.02 9.04 9.02 v 51.637 h 9.02 9.02 v -51.637 h 9.03 v 51.637 h 9.02 V 755.527 h 9.02 V 648.238 h 9.02 v 160.051 h 9.03 v 103.832 h 9.02 9.02 9.02 v 101.609 h 9.03 v 50 h 9.02 V 912.121 h 9.02 9.02 v 101.609 h 9.03 v 99.47 h 9.02 v -99.47 h 9.02 V 912.121 h 9.02 v 151.609 h 9.02 9.03 V 963.195 h 9.02 v -51.074 h 9.02 9.02 9.03 9.02 v -51.637 h 9.02 9.02 v 51.637 h 9.03 v -51.637 h 9.02 v 51.637 h 9.02 9.02 v 51.074 h 9.03 v 100.535 h 9.02 v 49.47 h 9.02 v -49.47 h 9.02 V 963.195 h 9.03 9.02 v 100.535 h 9.02 V 963.195 h 9.02 v -51.074 h 9.03 V 755.527 h 9.02 v 104.957 h 9.02 v 51.637 h 9.02 V 755.527 h 9.03 V 702.18 h 9.02 9.02 9.02 v 158.304 h 9.03 v 51.637 h 9.02 9.02 9.02 9.03 9.02 9.02 v -51.637 h 9.02 v 51.637 h 9.03 9.02 9.02 v -51.637 h 9.02 v 51.637 h 9.03 9.02 9.02 9.03 9.02 9.02 9.02 9.03 9.02 9.02 9.02 v -51.637 h 9.03 V 755.527 h 9.02 v 104.957 h 9.02 v 51.637 h 9.02 V 755.527 h 9.03 V 648.238 h 9.02 9.02 v 107.289 h 9.02 v 104.957 h 9.03 9.02 v 51.637 h 9.02 9.02 9.03 v -51.637 h 9.02 v 51.637 h 9.02 9.02 9.03 v -51.637 h 9.02 v 51.637 h 9.02 9.02 v -51.637 h 9.03 v 51.637 h 9.02 9.02 v -51.637 h 9.02 v 51.637 h 9.03 9.02 9.02 v -51.637 h 9.02 9.03 9.02 v 51.637 h 9.02 9.02 v -51.637 h 9.03 v 203.246 h 9.02 9.02 9.02 v 146.85 h 9.03 v 47.93 h 9.02 V 1113.2 h 9.02 9.02 9.03 v -49.47 h 9.02 v 49.47 h 9.02 V 963.195 h 9.02 v 100.535 h 9.03 v -50 h 9.02 V 912.121 h 9.02 9.02 v 101.609 h 9.02 v -50.535 h 9.03 v -51.074 h 9.02 9.02 9.02 v -51.637 h 9.03 9.02 v 51.637 h 9.02 9.02 9.03 9.02 v -51.637 h 9.02 v 51.637 h 9.02 v -51.637 h 9.04 v -52.195 h 9.02 v 52.195 h 9.02 v 51.637 h 9.02 9.03 v -51.637 h 9.02 v 102.711 h 9.02 v 100.535 h 9.02 v 49.47 h 9.03 v 48.94 h 9.02 v 96.37 h 9.02 v 186.85 h 9.02 v 179.4 h 9.03 9.02 v 129.92 h 9.02 v 84.5 h 9.02 v 123.72 h 9.03 v 40.46 h 9.02 v 119.07 h 9.02 9.02 v -39.33 h 9.02 v -161.05 h 9.03 v -82.87 h 9.02 v -84.5 h 9.02 v -129.92 h 9.02 v -88.8 h 9.03 9.02 v 88.8 h 9.02 v 43.74 h 9.02 9.03 v 253.55 h 9.02 v 200.38 h 9.02 v -79.01 h 9.02 v -162.6 h 9.03 v 41.23 h 9.02 v 81.31 h 9.02 9.02 9.03 9.02 v -122.54 h 9.02 v -41.64 h 9.02 v 82.87 h 9.03 v 81.31 h 9.02 v -122.54 h 9.02 v -41.64 h 9.02 v 82.87 h 9.03 v -41.23 h 9.02 v -41.64 h 9.02 v 243.92 h 9.02 v -39.68 h 9.03 9.02 9.02 v 156.53 h 9.02 9.03 v -156.53 h 9.02 v -162.6 h 9.02 v 82.08 h 9.02 v 120.2 h 9.03 v -79.74 h 9.02 9.02 9.02 9.03 v -40.46 h 9.02 v -82.08 h 9.02 v -126.14 h 9.03 v -174.09 h 9.02 v 131.21 h 9.02 9.02 v -43.3 h 9.03 9.02 v 86.18 h 9.02 v 208.22 h 9.02 9.03 v 40.46 h 9.02 v -81.31 h 9.02 v -41.23 h 9.02 v 82.08 h 9.03 v 40.46 h 9.02 9.02 9.02 9.03 9.02 v -122.54 h 9.02 v -41.64 h 9.02 9.03 9.02 V 1668.5 h 9.02 v 86.18 h 9.02 v 84.5 h 9.03 V 1711.8 h 9.02 9.02 v 169.02 h 9.02 v 122.54 h 9.03 v -40.46 h 9.02 9.02 9.02 v 40.46 h 9.03 v -206.22 h 9.02 9.02 v 124.91 h 9.02 9.03 v -41.23 h 9.02 v 82.08 h 9.02 v 40.46 h 9.02 v -81.31 h 9.03 v -167.37 h 9.02 v -218.72 h 9.02 v -45.07 h 9.02 9.03 9.02 v 89.7 h 9.02 v 258.59 h 9.02 v 164.18 h 9.03 v 119.07 h 9.02 v -119.07 h 9.02 v -164.18 h 9.02 v 82.87 h 9.03 v 161.05 h 9.02 v -120.2 h 9.02 v -40.85 h 9.02 v 161.05 h 9.02 v 39.33 h 9.03 v -119.07 h 9.02 v -122.54 h 9.02 v -41.64 h 9.02 v -84.5 h 9.03 v -174.09 h 9.02 v 174.09 h 9.02 v 167.37 h 9.02 v -82.87 h 9.03 v 82.87 h 9.02 v 40.85 h 9.02 9.02 v -82.08 h 9.04 v 41.23 h 9.02 v 40.85 h 9.02 9.02 9.03 9.02 9.02 9.02 9.03 v 40.46 h 9.02 v -40.46 h 9.02 v 120.2 h 9.02 v 39.33 h 9.03 9.02 v -79.01 h 9.02 v -40.06 h 9.02 9.03 v -164.18 h 9.02 v -42.04 h 9.02 v -85.34 h 9.02 v -43.3 h 9.02 v 43.3 h 9.03 v 85.34 h 9.02 v -85.34 h 9.02 v 127.38 h 9.02 v 204.24 h 9.03 v 79.01 h 9.02 v -119.07 h 9.02 v 40.06 h 9.02 v 79.01 h 9.03 v -79.01 h 9.02 v -40.06 h 9.02 9.02 v -122.54 h 9.03 V 1711.8 h 9.02 v -87.04 h 9.02 v 43.74 h 9.02 9.03 v 43.3 h 9.02 v 169.02 h 9.02 v 241.61 h 9.02 9.03 v -119.07 h 9.02 9.02 9.02 9.03 9.02 9.02 v 79.74 h 9.02 v -39.68 h 9.03 9.02 9.02 v -204.24 h 9.02 V 1711.8 h 9.03 v -131.21 h 9.02 v 44.17 h 9.02 9.02 9.03 v 43.74 h 9.02 v 170.68 h 9.02 v 283.25 h 9.02 v 38.93 h 9.03 9.02 v -117.94 h 9.02 v -40.06 h 9.03 9.02 v -40.46 h 9.02 v -40.85 h 9.02 v 81.31 h 9.03 v -122.54 h 9.02 V 1711.8 h 9.02 v 42.88 h 9.02 v 208.22 h 9.03 9.02 v -82.08 h 9.02 v 162.6 h 9.02 v 194.76 h 9.03 v 37.87 h 9.02 v 37.53 h 9.02 v 110.53 h 9.02 v 246.58 h 9.03 v 167.04 h 9.02 v -133.04 h 9.02 v -173.01 h 9.02 v 173.01 h 9.03 v 67.1 h 9.02 v -101.1 h 9.02 v -34.29 h 9.02 v 101.98 h 9.03 v 99.35 h 9.02 v 128.56 h 9.02 v 62.66 h 9.02 v -94.39 h 9.03 v 125.33 h 9.02 v 238.53 h 9.02 v -207.84 h 9.02 v -61.63 h 9.03 v -31.19 h 9.02 v -127.47 h 9.02 v -98.5 h 9.02 v -33.41 h 9.03 9.02 v -67.69 h 9.02 v 34 h 9.02 v 33.69 h 9.03 v -33.69 h 9.02 v -34 h 9.02 v 67.69 h 9.02 v -33.69 h 9.03 v -34 h 9.02 9.02 v 134.21 h 9.02 v 32.83 h 9.03 9.02 9.02 v 96.83 h 9.02 v 31.73 h 9.03 9.02 v 31.47 h 9.02 v -127.47 h 9.02 v -32.56 h 9.02 9.03 V 2636.4 h 9.02 9.02 v 135.39 h 9.02 v -33.41 h 9.03 v -33.69 h 9.02 v 165.6 h 9.02 v 96 h 9.02 v -31.73 h 9.03 v 31.73 h 9.02 v 31.47 h 9.02 v -31.47 h 9.02 9.04 V 2804.9 h 9.02 v -66.52 h 9.02 9.02 v -33.69 h 9.03 9.02 9.02 9.02 v 100.21 h 9.03 v -33.11 h 9.02 v -33.41 h 9.02 9.02 v 33.41 h 9.03 v -67.1 h 9.02 9.02 v 100.21 h 9.02 v 32.83 h 9.03 9.02 9.02 v 64.83 h 9.02 v 126.39 h 9.02 v -31.19 h 9.03 v -63.2 h 9.02 v -96.83 h 9.02 9.02 v -99.35 h 9.03 v -33.69 h 9.02 v 100.21 h 9.02 v 32.83 h 9.02 v -99.35 h 9.03 v 33.41 h 9.02 v 65.94 h 9.02 V 2636.4 h 9.02 v 101.98 h 9.03 v 164.18 h 9.02 v -32.27 h 9.02 v -65.39 h 9.02 v 97.66 h 9.03 v 63.73 h 9.02 v -128.56 h 9.02 v -32.83 h 9.02 v 32.83 h 9.03 9.02 v -99.35 h 9.02 v -33.69 h 9.02 9.03 v 100.21 h 9.02 v 32.83 h 9.02 v -99.35 h 9.02 9.03 v 99.35 h 9.02 v 64.83 h 9.02 v -32.27 h 9.02 v -32.56 h 9.03 v 128.56 h 9.02 v -63.73 h 9.02 v -32.27 h 9.02 v -32.56 h 9.03 v -65.94 h 9.02 v -33.41 h 9.02 v -33.69 h 9.02 V 2601.8 h 9.03 v 136.58 h 9.02 v 196.18 h 9.02 v -196.18 h 9.03 v 131.91 h 9.02 v 189.6 h 9.02 v -62.13 h 9.02 v -95.2 h 9.03 v 32 h 9.02 v 63.2 h 9.02 v -127.47 h 9.02 9.03 v 64.27 h 9.02 V 2804.9 h 9.02 v -33.11 h 9.02 v 162.77 h 9.03 v -32 h 9.02 v -130.77 h 9.02 v 130.77 h 9.02 v 95.2 h 9.03 9.02 9.02 9.02 9.03 v -31.47 h 9.02 v -128.56 h 9.02 v -65.94 h 9.02 9.03 v 65.94 h 9.02 v 32.56 h 9.02 9.02 v -32.56 h 9.03 v 32.56 h 9.02 9.02 v 96 h 9.02 v -128.56 h 9.03 v -65.94 h 9.02 v 65.94 h 9.02 v -65.94 h 9.02 v 65.94 h 9.03 v 32.56 h 9.02 v 32.27 h 9.02 v -32.27 h 9.02 v -32.56 h 9.03 v -65.94 h 9.02 9.02 v 98.5 h 9.02 v -65.39 h 9.03 v -33.11 h 9.02 v 98.5 h 9.02 v 96 h 9.02 v 31.47 h 9.03 v -95.2 h 9.02 v -32.27 h 9.02 9.02 v -65.39 h 9.03 v 65.39 h 9.02 9.02 9.02 9.02 9.03 9.02 v 96 h 9.02 v 31.47 h 9.02 v -63.2 h 9.03 v -64.27 h 9.02 9.02 9.02 9.03 9.02 v -32.56 h 9.02 v -32.83 h 9.02 v 65.39 h 9.04 v -98.5 h 9.02 v -33.41 h 9.02 v 66.52 h 9.02 v 65.39 h 9.03 v -131.91 h 9.02 v 66.52 h 9.02 v -33.11 h 9.02 V 2636.4 h 9.03 v -69.5 h 9.02 v 34.9 h 9.02 v -105.66 h 9.02 v -257.96 h 9.03 v -194.76 h 9.02 v -204.24 h 9.02 v -348.29 h 9.02 V 1113.2 h 9.03 V 912.121 h 9.02 V 755.527 h 9.02 V 702.18 h 9.02 v 158.304 h 9.02 9.03 9.02 v 203.246 h 9.02 9.02 v 289.16 h 9.03 v 92.47 h 9.02 9.02 v 45.53 h 9.02 9.03 v -45.53 h 9.02 v -234.78 h 9.02 v -196.85 h 9.02 V 912.121 h 9.03 V 808.289 h 9.02 V 702.18 h 9.02 v 106.109 h 9.02 V 648.238 h 9.03 v 107.289 h 9.02 v 104.957 h 9.02 9.02 v 51.637 h 9.03 v 51.074 h 9.02 V 1113.2 h 9.02 9.02 v 145.31 h 9.03 v 47.44 h 9.02 v -143.81 h 9.02 v -48.94 h 9.02 v -49.47 h 9.03 V 963.195 h 9.02 V 860.484 h 9.02 v 51.637 h 9.02 9.03 v -51.637 h 9.02 v 203.246 h 9.02 9.02 v 49.47 h 9.03 v -49.47 h 9.02 9.02 9.02 v 194.78 h 9.03 9.02 9.02 v 47.44 h 9.03 v -47.44 h 9.02 v -47.93 h 9.02 v -97.38 h 9.02 9.03 V 912.121 h 9.02 9.02 9.02 9.03 9.02 v 101.609 h 9.02 v 50 h 9.02 9.03 9.02 9.02 9.02 v 98.41 h 9.03 9.02 v -48.94 h 9.02 v -49.47 h 9.02 v 98.41 h 9.03 9.02 V 963.195 h 9.02 v 100.535 h 9.02 V 963.195 h 9.03 v 100.535 h 9.02 v 49.47 h 9.02 v -99.47 h 9.02 v 50 h 9.03 v 146.85 h 9.02 v -97.38 h 9.02 v 48.94 h 9.02 9.03 v -48.94 h 9.02 9.02 9.02 V 963.195 h 9.03 9.02 V 1113.2 h 9.02 9.02 9.03 v 145.31 h 9.02 v -47.93 h 9.02 v 47.93 h 9.02 9.03 v -194.78 h 9.02 v 49.47 h 9.02 9.02 V 963.195 h 9.03 v -51.074 h 9.02 v 51.074 h 9.02 v -51.074 h 9.02 9.03 9.02 9.02 9.02 9.02 v 51.074 h 9.03 v -51.074 h 9.02 9.02 v 51.074 h 9.02 v -51.074 h 9.03 v 101.609 h 9.02 v 99.47 h 9.03 9.01 v -99.47 h 9.04 v 99.47 h 9.02 9.01 v -99.47 h 9.02 v 99.47 h 9.03 v -99.47 h 9.03 v -50.535 h 9.02 v 100.535 h 9.02 9.03 V 963.195 h 9.01 V 1113.2 h 9.03 9.02 9.03 9.02 v -99.47 h 9.02 v 196.85 h 9.02 v -48.44 h 9.03 9.02 v -48.94 h 9.02 v 48.94 h 9.02 v -48.94 h 9.03 v -49.47 h 9.02 v 49.47 h 9.02 v -99.47 h 9.02 v 50 h 9.02 9.03 9.02 v 49.47 h 9.02 9.02 9.03 v 145.31 h 9.02 v 47.44 h 9.03 v -47.44 h 9.01 v -96.37 h 9.03 v -48.94 h 9.02 9.02 9.02 v 48.94 h 9.03 V 963.195 h 9.02 v -51.074 h 9.02 v 101.609 h 9.02 v -50.535 h 9.03 v -51.074 h 9.02 v -51.637 h 9.02 9.02 v 51.637 h 9.03 v 151.609 h 9.02 v 49.47 h 9.02 9.03 9.02 v 48.94 h 9.02 v -48.94 h 9.02 9.02 v -49.47 h 9.03 v -50 h 9.02 v 50 h 9.02 9.02 V 912.121 h 9.03 v 101.609 h 9.02 v 50 h 9.02 V 912.121 h 9.02 v 101.609 h 9.03 v 196.85 h 9.02 v 47.93 h 9.02 V 1113.2 h 9.03 9.02 v -49.47 h 9.02 9.02 v 49.47 h 9.03 9.02 9.02 v -49.47" /><path
         id="path108"
         style="fill:#ffffff;fill-opacity:1;fill-rule:nonzero;stroke:none"
         d="m 1492.5,2482.5 h 1125 V 3315 h -1125 z" /><path
         id="path110"
         style="fill:#000000;fill-opacity:1;fill-rule:nonzero;stroke:none"
         d="m 1863.18,3083.5 c 3.04,-5.24 8.36,-7.86 15.94,-7.86 6.87,0 12.81,2.43 17.81,7.27 5,4.84 9.04,10.68 12.12,17.52 3.09,6.84 5.49,13.81 7.21,20.92 -6.41,-6.09 -13.4,-9.14 -20.97,-9.14 -5.71,0 -10.58,0.99 -14.6,2.99 -4.02,1.99 -7.14,4.96 -9.37,8.9 -2.23,3.95 -3.34,8.69 -3.34,14.24 0,4.76 0.62,9.64 1.87,14.64 1.25,5 3.03,10.56 5.34,16.65 2.3,6.09 4.31,11.41 6.03,15.94 1.88,5.31 2.82,9.69 2.82,13.12 0,4.3 -1.57,6.45 -4.69,6.45 -5.78,0 -10.53,-2.95 -14.24,-8.85 -3.72,-5.9 -6.47,-12.52 -8.26,-19.87 -0.24,-0.85 -0.82,-1.28 -1.76,-1.28 h -2.58 c -1.17,0 -1.76,0.66 -1.76,1.99 v 0.58 c 2.35,8.68 5.92,16.36 10.73,23.04 4.8,6.68 10.88,10.02 18.22,10.02 5.16,0 9.53,-1.7 13.12,-5.11 3.59,-3.39 5.39,-7.71 5.39,-12.95 0,-2.65 -0.58,-5.46 -1.75,-8.43 -0.71,-1.8 -2.19,-5.67 -4.46,-11.61 -2.27,-5.93 -3.98,-10.85 -5.15,-14.76 -1.18,-3.91 -2.15,-7.74 -2.94,-11.49 -0.77,-3.75 -1.16,-7.5 -1.16,-11.25 0,-4.84 1.01,-8.92 3.04,-12.24 2.03,-3.32 5.27,-4.98 9.73,-4.98 8.98,0 17.07,5.51 24.25,16.53 l 16.41,66.91 c 0.55,1.95 1.7,3.61 3.46,4.98 1.75,1.36 3.65,2.05 5.68,2.05 1.8,0 3.36,-0.57 4.69,-1.7 1.33,-1.13 1.99,-2.59 1.99,-4.39 0,-0.86 -0.08,-1.45 -0.23,-1.76 l -21.56,-86.49 c -1.96,-7.5 -5.48,-14.64 -10.55,-21.44 -5.08,-6.8 -11.21,-12.27 -18.4,-16.41 -7.19,-4.14 -14.69,-6.21 -22.5,-6.21 -3.75,0 -7.46,0.74 -11.13,2.23 -3.67,1.48 -6.64,3.67 -8.91,6.56 -2.26,2.89 -3.4,6.29 -3.4,10.19 0,3.91 1.18,7.32 3.52,10.26 2.34,2.93 5.43,4.39 9.26,4.39 2.34,0 4.31,-0.72 5.92,-2.17 1.6,-1.44 2.39,-3.34 2.39,-5.68 0,-3.35 -1.22,-6.26 -3.68,-8.73 -2.46,-2.46 -5.37,-3.69 -8.73,-3.69 -0.16,0.08 -0.3,0.12 -0.42,0.12 -0.11,0 -0.25,0 -0.4,0" /><path
         id="path112"
         style="fill:#000000;fill-opacity:1;fill-rule:nonzero;stroke:none"
         d="m 1984.39,3079.91 c -5,0 -9.37,1.31 -13.12,3.93 -3.75,2.62 -6.62,6.13 -8.61,10.54 -2,4.42 -3,9.08 -3,14.01 0,7.5 1.9,14.55 5.69,21.15 3.79,6.6 8.91,11.87 15.35,15.82 6.45,3.94 13.34,5.92 20.69,5.92 4.53,0 8.47,-1.17 11.83,-3.51 3.36,-2.35 5.04,-5.71 5.04,-10.08 0,-6.02 -2.4,-10.49 -7.21,-13.42 -4.8,-2.93 -10.23,-4.75 -16.28,-5.45 -6.06,-0.7 -12.76,-1.05 -20.11,-1.05 h -0.46 c -1.72,-6.25 -2.58,-11.61 -2.58,-16.06 0,-4.69 1.09,-8.81 3.29,-12.36 2.18,-3.56 5.46,-5.33 9.84,-5.33 6.25,0 12.26,1.44 18.04,4.33 5.78,2.89 10.47,6.88 14.06,11.95 0.32,0.32 0.75,0.47 1.29,0.47 0.47,0 0.98,-0.29 1.52,-0.88 0.55,-0.58 0.83,-1.15 0.83,-1.7 0,-0.39 -0.08,-0.7 -0.23,-0.94 -3.91,-5.39 -9.11,-9.62 -15.6,-12.71 -6.47,-3.08 -13.23,-4.63 -20.27,-4.63 z m -9.25,41.96 c 6.09,0 11.74,0.27 16.93,0.82 5.2,0.54 9.89,1.95 14.07,4.21 4.18,2.27 6.27,5.83 6.27,10.67 0,1.95 -0.53,3.65 -1.59,5.09 -1.05,1.45 -2.44,2.56 -4.16,3.34 -1.72,0.79 -3.52,1.18 -5.39,1.18 -4.45,0 -8.45,-1.21 -12.01,-3.64 -3.55,-2.41 -6.48,-5.56 -8.79,-9.43 -2.31,-3.87 -4.08,-7.95 -5.33,-12.24" /><path
         id="path114"
         style="fill:#000000;fill-opacity:1;fill-rule:nonzero;stroke:none"
         d="m 2038.18,3091.28 c 2.8,-4.84 8.47,-7.26 16.98,-7.26 3.68,0 7.18,0.64 10.5,1.93 3.32,1.28 6.07,3.18 8.25,5.68 2.19,2.5 3.29,5.55 3.29,9.14 0,2.74 -0.98,4.96 -2.93,6.68 -1.96,1.72 -4.34,2.89 -7.15,3.51 l -8.56,1.65 c -3.83,1.01 -7.01,2.85 -9.55,5.51 -2.54,2.65 -3.81,5.89 -3.81,9.72 0,4.61 1.27,8.71 3.81,12.3 2.54,3.6 5.88,6.36 10.03,8.27 4.13,1.91 8.47,2.87 13,2.87 4.76,0 9.02,-1.14 12.77,-3.4 3.75,-2.27 5.63,-5.67 5.63,-10.19 0,-2.35 -0.69,-4.46 -2.05,-6.33 -1.37,-1.88 -3.26,-2.82 -5.69,-2.82 -1.32,0 -2.5,0.45 -3.51,1.35 -1.02,0.9 -1.53,2.06 -1.53,3.46 0,1.25 0.36,2.44 1.06,3.57 0.7,1.13 1.62,2.06 2.75,2.76 1.14,0.7 2.33,1.05 3.58,1.05 -0.94,2.27 -2.68,3.91 -5.22,4.92 -2.54,1.02 -5.26,1.53 -8.14,1.53 -2.66,0 -5.31,-0.53 -7.97,-1.58 -2.65,-1.06 -4.81,-2.64 -6.45,-4.75 -1.64,-2.11 -2.46,-4.57 -2.46,-7.39 0,-1.87 0.67,-3.53 1.99,-4.98 1.34,-1.44 2.98,-2.48 4.93,-3.1 l 9.14,-1.75 c 2.97,-0.63 5.67,-1.73 8.08,-3.29 2.43,-1.56 4.34,-3.54 5.75,-5.92 1.4,-2.38 2.1,-5.13 2.1,-8.26 0,-3.9 -1.09,-7.75 -3.28,-11.54 -2.18,-3.79 -4.84,-6.82 -7.97,-9.08 -5.62,-3.75 -12.45,-5.63 -20.5,-5.63 -5.62,0 -10.76,1.29 -15.41,3.87 -4.65,2.58 -6.98,6.41 -6.98,11.49 0,2.8 0.82,5.28 2.47,7.44 1.63,2.15 3.9,3.22 6.8,3.22 1.71,0 3.14,-0.53 4.27,-1.58 1.13,-1.06 1.69,-2.4 1.69,-4.05 0,-2.42 -0.89,-4.53 -2.69,-6.32 -1.79,-1.8 -3.9,-2.7 -6.32,-2.7 h -0.7" /><path
         id="path116"
         style="fill:#000000;fill-opacity:1;fill-rule:nonzero;stroke:none"
         d="m 2106.38,3094.44 c 0,1.57 0.15,3.01 0.47,4.34 l 11.36,45.24 h -16.52 c -1.02,0 -1.53,0.7 -1.53,2.11 0.39,2.26 1.06,3.39 2,3.39 h 17.46 l 6.33,25.78 c 0.39,1.33 1.21,2.48 2.46,3.46 1.25,0.97 2.62,1.47 4.1,1.47 1.4,0 2.56,-0.39 3.46,-1.18 0.89,-0.78 1.34,-1.84 1.34,-3.16 0,-0.32 -0.02,-0.57 -0.05,-0.76 -0.04,-0.2 -0.1,-0.37 -0.18,-0.53 l -6.33,-25.08 h 16.29 c 1.09,0 1.64,-0.66 1.64,-1.99 -0.08,-0.32 -0.2,-0.76 -0.35,-1.35 -0.16,-0.58 -0.37,-1.09 -0.65,-1.52 -0.27,-0.43 -0.64,-0.64 -1.11,-0.64 h -17.11 l -11.36,-45.48 c -0.78,-2.97 -1.17,-5.54 -1.17,-7.73 0,-4.53 1.56,-6.79 4.68,-6.79 4.61,0 8.69,2.16 12.24,6.5 3.56,4.33 6.28,9.12 8.15,14.36 0.39,0.54 0.82,0.81 1.29,0.81 h 1.87 c 0.39,0 0.73,-0.14 1,-0.4 0.28,-0.28 0.41,-0.58 0.41,-0.89 0,-0.23 -0.03,-0.38 -0.12,-0.46 -2.34,-6.41 -5.72,-12.01 -10.13,-16.82 -4.41,-4.8 -9.47,-7.21 -15.18,-7.21 -4.14,0 -7.64,1.35 -10.48,4.05 -2.86,2.69 -4.28,6.18 -4.28,10.48" /><path
         id="path118"
         style="fill:#000000;fill-opacity:1;fill-rule:nonzero;stroke:none"
         d="m 2164.57,3092.92 c 0,1.96 0.43,4.03 1.29,6.21 l 12.65,33.87 c 1.41,3.9 2.12,7.07 2.12,9.49 0,3.13 -1.14,4.69 -3.41,4.69 -4.22,0 -7.65,-2.13 -10.31,-6.39 -2.66,-4.26 -4.65,-9.04 -5.97,-14.35 -0.16,-0.71 -0.59,-1.06 -1.3,-1.06 h -1.87 c -0.86,0 -1.29,0.51 -1.29,1.52 v 0.48 c 1.72,6.25 4.32,11.79 7.79,16.64 3.48,4.84 7.87,7.26 13.19,7.26 3.75,0 6.91,-1.23 9.49,-3.69 2.58,-2.46 3.87,-5.61 3.87,-9.44 0,-1.95 -0.43,-3.98 -1.29,-6.09 l -12.78,-33.87 c -1.4,-3.51 -2.11,-6.68 -2.11,-9.49 0,-3.12 1.22,-4.68 3.64,-4.68 4.06,0 7.48,2.2 10.25,6.61 2.77,4.42 4.71,9.16 5.8,14.25 0.24,0.54 0.63,0.81 1.17,0.81 h 2 c 0.39,0 0.72,-0.14 0.99,-0.4 0.27,-0.28 0.41,-0.58 0.41,-0.89 0,-0.15 -0.08,-0.31 -0.23,-0.46 -1.41,-5.94 -3.88,-11.43 -7.44,-16.47 -3.56,-5.04 -7.99,-7.56 -13.31,-7.56 -3.67,0 -6.81,1.27 -9.43,3.81 -2.61,2.54 -3.92,5.6 -3.92,9.2 z m 17.81,84.14 c 0,2.26 0.92,4.3 2.75,6.09 1.83,1.8 3.85,2.7 6.04,2.7 1.79,0 3.28,-0.56 4.46,-1.7 1.16,-1.13 1.75,-2.52 1.75,-4.16 0,-2.34 -0.94,-4.42 -2.81,-6.21 -1.88,-1.8 -3.95,-2.7 -6.21,-2.7 -1.72,0 -3.15,0.59 -4.29,1.76 -1.13,1.17 -1.69,2.58 -1.69,4.22" /><path
         id="path120"
         style="fill:#000000;fill-opacity:1;fill-rule:nonzero;stroke:none"
         d="m 2217.5,3084.37 c 0,0.62 0.04,1.09 0.12,1.4 l 11.72,47 c 0.78,2.89 1.17,5.43 1.17,7.61 0,4.53 -1.52,6.8 -4.57,6.8 -3.28,0 -5.72,-1.95 -7.32,-5.86 -1.61,-3.91 -3.15,-8.87 -4.63,-14.88 0,-0.32 -0.16,-0.57 -0.47,-0.77 -0.31,-0.19 -0.58,-0.29 -0.82,-0.29 h -1.88 c -0.31,0 -0.61,0.19 -0.88,0.58 -0.27,0.4 -0.4,0.75 -0.4,1.06 1.17,4.61 2.26,8.5 3.27,11.66 1.02,3.17 2.66,6.06 4.93,8.67 2.26,2.62 5.04,3.93 8.32,3.93 3.98,0 7.48,-1.25 10.48,-3.75 3.01,-2.5 4.52,-5.67 4.52,-9.49 3.12,4.14 6.8,7.38 11.01,9.73 4.22,2.34 8.67,3.51 13.36,3.51 5,0 9.3,-1.27 12.89,-3.81 3.59,-2.54 5.39,-6.15 5.39,-10.84 3.29,4.61 7.09,8.2 11.43,10.78 4.34,2.58 9.04,3.87 14.12,3.87 5.47,0 9.84,-1.49 13.13,-4.45 3.28,-2.97 4.92,-7.15 4.92,-12.54 0,-4.3 -0.96,-9.5 -2.87,-15.59 -1.92,-6.09 -4.28,-12.93 -7.09,-20.51 -1.56,-3.59 -2.35,-6.75 -2.35,-9.49 0,-3.12 1.25,-4.68 3.75,-4.68 4.07,0 7.46,2.2 10.2,6.61 2.74,4.42 4.65,9.16 5.74,14.25 0.31,0.54 0.78,0.81 1.41,0.81 h 1.75 c 0.47,0 0.85,-0.14 1.12,-0.4 0.27,-0.28 0.41,-0.58 0.41,-0.89 0,-0.15 -0.04,-0.31 -0.12,-0.46 -1.48,-5.94 -4,-11.43 -7.56,-16.47 -3.55,-5.04 -7.99,-7.56 -13.3,-7.56 -3.75,0 -6.92,1.27 -9.49,3.81 -2.58,2.54 -3.87,5.6 -3.87,9.2 0,1.87 0.43,3.94 1.29,6.21 2.97,7.89 5.43,14.94 7.38,21.16 1.95,6.21 2.93,11.66 2.93,16.34 0,2.97 -0.58,5.47 -1.75,7.5 -1.18,2.03 -3.13,3.05 -5.87,3.05 -5.78,0 -10.76,-1.76 -14.94,-5.28 -4.18,-3.51 -7.83,-8.16 -10.95,-13.94 -0.16,-1.01 -0.31,-1.8 -0.47,-2.34 l -10.08,-40.43 c -0.39,-1.49 -1.21,-2.74 -2.46,-3.75 -1.25,-1.02 -2.66,-1.53 -4.22,-1.53 -1.25,0 -2.35,0.41 -3.28,1.23 -0.94,0.82 -1.41,1.9 -1.41,3.23 0,0.62 0.04,1.09 0.12,1.4 l 10.08,40.08 c 1.09,4.29 1.64,7.89 1.64,10.78 0,2.97 -0.6,5.47 -1.82,7.5 -1.21,2.03 -3.22,3.05 -6.03,3.05 -3.91,0 -7.47,-0.84 -10.66,-2.52 -3.21,-1.68 -6.02,-3.93 -8.44,-6.74 -2.43,-2.81 -4.65,-6.13 -6.69,-9.96 l -10.66,-42.77 c -0.31,-1.49 -1.11,-2.74 -2.4,-3.75 -1.29,-1.02 -2.68,-1.53 -4.16,-1.53 -1.33,0 -2.44,0.41 -3.34,1.23 -0.9,0.82 -1.35,1.9 -1.35,3.23" /><path
         id="path122"
         style="fill:#000000;fill-opacity:1;fill-rule:nonzero;stroke:none"
         d="m 2367.95,3079.91 c -6.64,0 -11.88,2.5 -15.7,7.5 -3.83,5 -5.74,10.9 -5.74,17.7 0,6.71 1.74,13.69 5.21,20.91 3.48,7.23 8.18,13.25 14.12,18.05 5.94,4.81 12.3,7.21 19.11,7.21 3.12,0 5.91,-0.84 8.37,-2.52 2.47,-1.68 4.39,-4 5.8,-6.97 1.18,4.22 3.48,6.33 6.92,6.33 1.33,0 2.44,-0.39 3.34,-1.18 0.9,-0.78 1.34,-1.83 1.34,-3.16 0,-0.32 0,-0.55 0,-0.7 0,-0.16 -0.03,-0.36 -0.11,-0.59 l -11.02,-43.95 c -0.7,-3.12 -1.05,-5.7 -1.05,-7.73 0,-4.53 1.52,-6.79 4.57,-6.79 3.28,0 5.78,2.09 7.5,6.27 1.71,4.17 3.16,9.04 4.34,14.59 0.15,0.54 0.54,0.81 1.17,0.81 h 1.99 c 0.39,0 0.7,-0.17 0.94,-0.53 0.23,-0.34 0.34,-0.68 0.34,-0.99 -1.79,-7.35 -3.78,-13.22 -5.97,-17.63 -2.19,-4.42 -5.74,-6.63 -10.66,-6.63 -3.52,0 -6.64,1.04 -9.38,3.11 -2.73,2.07 -4.41,4.82 -5.04,8.26 -6.8,-7.58 -13.59,-11.37 -20.39,-11.37 z m 0.12,4.11 c 3.82,0 7.52,1.42 11.07,4.27 3.56,2.85 6.62,6.19 9.2,10.02 0.08,0.15 0.12,0.31 0.12,0.47 l 8.43,34.22 0.12,0.46 c -0.62,3.75 -1.97,6.98 -4.04,9.67 -2.07,2.7 -4.86,4.05 -8.38,4.05 -3.51,0 -6.79,-1.45 -9.84,-4.34 -3.05,-2.89 -5.62,-6.33 -7.74,-10.31 -2.03,-4.14 -3.98,-9.89 -5.85,-17.23 -1.88,-7.34 -2.82,-13.04 -2.82,-17.11 0,-3.59 0.79,-6.85 2.34,-9.78 1.57,-2.93 4.03,-4.39 7.39,-4.39" /><path
         id="path124"
         style="fill:#000000;fill-opacity:1;fill-rule:nonzero;stroke:none"
         d="m 2449.36,3079.91 c -6.65,0 -11.88,2.5 -15.71,7.5 -3.83,5 -5.74,10.9 -5.74,17.7 0,6.71 1.73,13.69 5.22,20.91 3.47,7.23 8.17,13.25 14.11,18.05 5.94,4.81 12.31,7.21 19.1,7.21 3.13,0 5.92,-0.86 8.39,-2.58 2.46,-1.72 4.39,-4.02 5.8,-6.91 l 8.9,35.15 c 0.39,1.8 0.63,3.21 0.7,4.22 0,1.72 -3.4,2.58 -10.19,2.58 -1.09,0 -1.64,0.71 -1.64,2.11 0.08,0.24 0.2,0.69 0.35,1.35 0.15,0.66 0.39,1.17 0.71,1.52 0.3,0.35 0.69,0.53 1.17,0.53 l 21.2,1.75 c 1.34,0 2,-0.7 2,-2.11 l -22.74,-90.58 c -0.7,-1.72 -1.05,-4.22 -1.05,-7.5 0,-4.53 1.52,-6.79 4.57,-6.79 3.28,0 5.78,2.09 7.5,6.27 1.72,4.17 3.16,9.04 4.33,14.59 0.16,0.54 0.55,0.81 1.18,0.81 h 1.99 c 0.39,0 0.7,-0.17 0.94,-0.53 0.23,-0.34 0.35,-0.68 0.35,-0.99 -1.8,-7.35 -3.79,-13.22 -5.98,-17.63 -2.18,-4.42 -5.74,-6.63 -10.66,-6.63 -3.52,0 -6.64,1.04 -9.38,3.11 -2.73,2.07 -4.41,4.82 -5.04,8.26 -6.79,-7.58 -13.59,-11.37 -20.38,-11.37 z m 0.11,4.11 c 3.83,0 7.52,1.42 11.08,4.27 3.55,2.85 6.61,6.19 9.19,10.02 0.08,0.15 0.12,0.39 0.12,0.71 l 8.56,34.68 c -0.63,3.68 -1.97,6.84 -4.04,9.49 -2.08,2.66 -4.87,3.99 -8.39,3.99 -3.51,0 -6.79,-1.45 -9.84,-4.34 -3.04,-2.89 -5.62,-6.33 -7.73,-10.31 -2.04,-4.14 -3.99,-9.89 -5.87,-17.23 -1.87,-7.34 -2.81,-13.04 -2.81,-17.11 0,-3.59 0.78,-6.85 2.35,-9.78 1.56,-2.93 4.02,-4.39 7.38,-4.39" /><path
         id="path126"
         style="fill:#000000;fill-opacity:1;fill-rule:nonzero;stroke:none"
         d="m 2533.73,3079.91 c -4.93,0 -9.32,1.18 -13.18,3.52 -3.87,2.34 -6.86,5.52 -8.98,9.55 -2.1,4.02 -3.15,8.57 -3.15,13.65 0,7.11 1.99,14.14 5.97,21.1 3.99,6.95 9.26,12.61 15.82,16.98 6.56,4.38 13.48,6.57 20.74,6.57 3.91,0 7.39,-0.67 10.43,-1.99 3.05,-1.33 5.69,-3.21 7.92,-5.63 2.22,-2.42 3.94,-5.25 5.15,-8.5 1.21,-3.23 1.81,-6.73 1.81,-10.48 0,-5.47 -1.15,-10.86 -3.45,-16.18 -2.3,-5.3 -5.47,-10.13 -9.49,-14.46 -4.03,-4.34 -8.62,-7.78 -13.77,-10.32 -5.16,-2.54 -10.43,-3.81 -15.82,-3.81 z m 0.34,4.11 c 4.7,0 8.97,1.6 12.84,4.8 3.87,3.2 7.03,7.23 9.49,12.07 2.46,4.84 4.38,9.96 5.75,15.35 1.36,5.39 2.05,10.24 2.05,14.53 0,4.61 -1.16,8.5 -3.46,11.66 -2.31,3.17 -5.69,4.75 -10.13,4.75 -6.18,0 -11.57,-2.62 -16.18,-7.85 -4.61,-5.24 -8.07,-11.51 -10.37,-18.81 -2.3,-7.31 -3.45,-14.01 -3.45,-20.1 0,-4.53 1.15,-8.4 3.45,-11.6 2.3,-3.2 5.64,-4.8 10.01,-4.8" /><path
         id="path128"
         style="fill:none;stroke:#0072bd;stroke-width:9.99750042;stroke-linecap:butt;stroke-linejoin:round;stroke-miterlimit:10;stroke-dasharray:none;stroke-opacity:1"
         d="M 1522.49,3167.47 H 1822.4" /><path
         id="path130"
         style="fill:#000000;fill-opacity:1;fill-rule:nonzero;stroke:none"
         d="m 1861.65,2849.7 c 0,0.86 0.08,1.48 0.24,1.87 l 16.29,64.93 c 1.01,3.98 1.52,7.5 1.52,10.55 0,6.25 -2.11,9.37 -6.33,9.37 -4.53,0 -7.89,-2.71 -10.08,-8.14 -2.18,-5.43 -4.33,-12.29 -6.44,-20.57 0,-0.39 -0.2,-0.71 -0.59,-0.94 -0.38,-0.23 -0.78,-0.35 -1.17,-0.35 h -2.58 c -0.47,0 -0.88,0.26 -1.22,0.76 -0.36,0.51 -0.54,1 -0.54,1.46 1.57,6.25 3.07,11.59 4.52,16 1.44,4.41 3.71,8.42 6.79,12.02 3.08,3.59 6.93,5.39 11.54,5.39 5,0 9.4,-1.45 13.19,-4.34 3.79,-2.89 6.15,-6.72 7.09,-11.49 3.67,4.85 7.85,8.69 12.53,11.55 4.7,2.85 9.85,4.28 15.48,4.28 4.61,0 8.67,-1.35 12.18,-4.05 3.52,-2.7 5.28,-6.35 5.28,-10.95 0,-3.68 -1.15,-6.88 -3.46,-9.62 -2.3,-2.73 -5.37,-4.1 -9.2,-4.1 -2.34,0 -4.31,0.74 -5.92,2.23 -1.6,1.48 -2.4,3.4 -2.4,5.74 0,3.13 1.17,5.96 3.52,8.5 2.34,2.54 5.03,3.81 8.08,3.81 -2.34,1.87 -5.19,2.81 -8.56,2.81 -6.16,0 -11.55,-2.21 -16.16,-6.62 -4.61,-4.41 -8.75,-10.02 -12.43,-16.82 l -15.58,-62.22 c -0.47,-2.04 -1.56,-3.76 -3.28,-5.16 -1.73,-1.41 -3.67,-2.11 -5.86,-2.11 -1.72,0 -3.22,0.57 -4.52,1.7 -1.29,1.13 -1.93,2.63 -1.93,4.51" /><path
         id="path132"
         style="fill:none;stroke:#ff0000;stroke-width:9.99750042;stroke-linecap:butt;stroke-linejoin:round;stroke-miterlimit:10;stroke-dasharray:none;stroke-opacity:1"
         d="M 1522.49,2898.75 H 1822.4" /><path
         id="path134"
         style="fill:#000000;fill-opacity:1;fill-rule:nonzero;stroke:none"
         d="m 1863.18,2546.06 c 3.04,-5.23 8.36,-7.85 15.94,-7.85 6.87,0 12.81,2.42 17.81,7.27 5,4.84 9.04,10.68 12.12,17.52 3.09,6.83 5.49,13.8 7.21,20.91 -6.41,-6.09 -13.4,-9.14 -20.97,-9.14 -5.71,0 -10.58,1 -14.6,2.99 -4.02,1.99 -7.14,4.96 -9.37,8.91 -2.23,3.94 -3.34,8.69 -3.34,14.23 0,4.77 0.62,9.65 1.87,14.65 1.25,5 3.03,10.55 5.34,16.64 2.3,6.1 4.31,11.41 6.03,15.94 1.88,5.32 2.82,9.69 2.82,13.12 0,4.3 -1.57,6.45 -4.69,6.45 -5.78,0 -10.53,-2.95 -14.24,-8.84 -3.72,-5.91 -6.47,-12.53 -8.26,-19.87 -0.24,-0.86 -0.82,-1.29 -1.76,-1.29 h -2.58 c -1.17,0 -1.76,0.67 -1.76,1.99 v 0.59 c 2.35,8.67 5.92,16.35 10.73,23.03 4.8,6.68 10.88,10.02 18.22,10.02 5.16,0 9.53,-1.7 13.12,-5.1 3.59,-3.4 5.39,-7.72 5.39,-12.95 0,-2.66 -0.58,-5.47 -1.75,-8.44 -0.71,-1.8 -2.19,-5.66 -4.46,-11.6 -2.27,-5.94 -3.98,-10.86 -5.15,-14.76 -1.18,-3.91 -2.15,-7.74 -2.94,-11.49 -0.77,-3.75 -1.16,-7.5 -1.16,-11.25 0,-4.84 1.01,-8.92 3.04,-12.24 2.03,-3.32 5.27,-4.98 9.73,-4.98 8.98,0 17.07,5.5 24.25,16.52 l 16.41,66.91 c 0.55,1.95 1.7,3.61 3.46,4.98 1.75,1.37 3.65,2.05 5.68,2.05 1.8,0 3.36,-0.56 4.69,-1.69 1.33,-1.14 1.99,-2.6 1.99,-4.4 0,-0.86 -0.08,-1.44 -0.23,-1.76 l -21.56,-86.48 c -1.96,-7.5 -5.48,-14.65 -10.55,-21.45 -5.08,-6.8 -11.21,-12.27 -18.4,-16.41 -7.19,-4.14 -14.69,-6.2 -22.5,-6.2 -3.75,0 -7.46,0.74 -11.13,2.22 -3.67,1.49 -6.64,3.67 -8.91,6.57 -2.26,2.89 -3.4,6.28 -3.4,10.19 0,3.9 1.18,7.32 3.52,10.25 2.34,2.93 5.43,4.39 9.26,4.39 2.34,0 4.31,-0.72 5.92,-2.16 1.6,-1.45 2.39,-3.34 2.39,-5.69 0,-3.35 -1.22,-6.26 -3.68,-8.73 -2.46,-2.46 -5.37,-3.69 -8.73,-3.69 -0.16,0.08 -0.3,0.12 -0.42,0.12 -0.11,0 -0.25,0 -0.4,0" /><path
         id="path136"
         style="fill:#000000;fill-opacity:1;fill-rule:nonzero;stroke:none"
         d="m 1964.95,2546.93 c 0,0.62 0.03,1.09 0.11,1.41 l 11.72,46.99 c 0.78,2.89 1.17,5.43 1.17,7.61 0,4.54 -1.52,6.8 -4.57,6.8 -3.28,0 -5.72,-1.95 -7.33,-5.86 -1.59,-3.91 -3.14,-8.86 -4.62,-14.88 0,-0.32 -0.16,-0.57 -0.47,-0.77 -0.32,-0.19 -0.58,-0.29 -0.82,-0.29 h -1.88 c -0.31,0 -0.6,0.2 -0.87,0.59 -0.28,0.39 -0.42,0.74 -0.42,1.06 1.17,4.61 2.27,8.49 3.29,11.66 1.01,3.16 2.65,6.05 4.92,8.67 2.26,2.61 5.03,3.92 8.32,3.92 3.98,0 7.48,-1.25 10.49,-3.75 3,-2.5 4.51,-5.66 4.51,-9.49 3.12,4.14 6.79,7.38 11.01,9.73 4.22,2.34 8.68,3.51 13.36,3.51 5,0 9.3,-1.27 12.89,-3.8 3.6,-2.54 5.4,-6.16 5.4,-10.85 3.28,4.61 7.08,8.21 11.42,10.79 4.33,2.57 9.04,3.86 14.12,3.86 5.47,0 9.85,-1.48 13.12,-4.45 3.29,-2.97 4.93,-7.15 4.93,-12.54 0,-4.3 -0.96,-9.49 -2.87,-15.58 -1.92,-6.1 -4.28,-12.93 -7.09,-20.52 -1.56,-3.59 -2.34,-6.75 -2.34,-9.48 0,-3.13 1.25,-4.69 3.75,-4.69 4.06,0 7.45,2.21 10.19,6.62 2.74,4.41 4.65,9.16 5.74,14.24 0.32,0.54 0.78,0.81 1.41,0.81 h 1.75 c 0.47,0 0.84,-0.13 1.12,-0.4 0.27,-0.28 0.41,-0.57 0.41,-0.89 0,-0.15 -0.04,-0.31 -0.12,-0.46 -1.49,-5.94 -4,-11.43 -7.56,-16.46 -3.55,-5.04 -7.99,-7.56 -13.3,-7.56 -3.75,0 -6.91,1.27 -9.49,3.81 -2.58,2.53 -3.87,5.6 -3.87,9.19 0,1.88 0.43,3.95 1.29,6.21 2.97,7.89 5.43,14.94 7.39,21.16 1.95,6.21 2.92,11.66 2.92,16.34 0,2.97 -0.58,5.47 -1.76,7.5 -1.16,2.04 -3.12,3.05 -5.85,3.05 -5.79,0 -10.77,-1.76 -14.94,-5.28 -4.18,-3.51 -7.83,-8.16 -10.96,-13.94 -0.16,-1.01 -0.32,-1.79 -0.47,-2.34 l -10.08,-40.43 c -0.39,-1.48 -1.21,-2.73 -2.46,-3.75 -1.25,-1.02 -2.66,-1.52 -4.22,-1.52 -1.25,0 -2.34,0.41 -3.28,1.23 -0.93,0.82 -1.4,1.89 -1.4,3.22 0,0.62 0.03,1.09 0.11,1.41 l 10.08,40.07 c 1.09,4.3 1.64,7.89 1.64,10.78 0,2.97 -0.6,5.47 -1.81,7.5 -1.22,2.04 -3.23,3.05 -6.04,3.05 -3.91,0 -7.46,-0.84 -10.67,-2.52 -3.2,-1.68 -6.01,-3.92 -8.43,-6.74 -2.42,-2.81 -4.65,-6.13 -6.69,-9.96 l -10.65,-42.77 c -0.32,-1.48 -1.12,-2.73 -2.41,-3.75 -1.29,-1.02 -2.68,-1.52 -4.16,-1.52 -1.33,0 -2.44,0.41 -3.34,1.23 -0.9,0.82 -1.34,1.89 -1.34,3.22" /><path
         id="path138"
         style="fill:#000000;fill-opacity:1;fill-rule:nonzero;stroke:none"
         d="m 2119.61,2542.48 c -5,0 -9.38,1.31 -13.13,3.92 -3.75,2.62 -6.62,6.14 -8.61,10.55 -1.99,4.41 -2.99,9.08 -2.99,14 0,7.5 1.9,14.55 5.69,21.16 3.79,6.59 8.91,11.87 15.35,15.81 6.45,3.95 13.34,5.92 20.68,5.92 4.53,0 8.48,-1.17 11.84,-3.51 3.36,-2.35 5.03,-5.7 5.03,-10.08 0,-6.02 -2.4,-10.49 -7.2,-13.42 -4.8,-2.93 -10.23,-4.74 -16.29,-5.45 -6.05,-0.7 -12.75,-1.05 -20.1,-1.05 h -0.47 c -1.71,-6.25 -2.57,-11.6 -2.57,-16.06 0,-4.68 1.09,-8.81 3.28,-12.36 2.18,-3.55 5.47,-5.33 9.84,-5.33 6.25,0 12.27,1.44 18.05,4.33 5.78,2.89 10.47,6.88 14.06,11.96 0.31,0.31 0.74,0.47 1.29,0.47 0.47,0 0.98,-0.3 1.52,-0.88 0.55,-0.59 0.82,-1.16 0.82,-1.71 0,-0.39 -0.07,-0.7 -0.23,-0.93 -3.91,-5.39 -9.1,-9.63 -15.59,-12.71 -6.48,-3.09 -13.24,-4.63 -20.27,-4.63 z m -9.26,41.95 c 6.09,0 11.74,0.27 16.94,0.82 5.19,0.54 9.87,1.95 14.06,4.21 4.18,2.27 6.27,5.83 6.27,10.67 0,1.96 -0.53,3.66 -1.58,5.1 -1.06,1.45 -2.45,2.56 -4.16,3.34 -1.72,0.78 -3.52,1.17 -5.4,1.17 -4.45,0 -8.45,-1.21 -12.01,-3.63 -3.56,-2.42 -6.49,-5.57 -8.79,-9.44 -2.3,-3.87 -4.08,-7.94 -5.33,-12.24" /><path
         id="path140"
         style="fill:#000000;fill-opacity:1;fill-rule:nonzero;stroke:none"
         d="m 2187.1,2542.48 c -6.64,0 -11.88,2.5 -15.71,7.5 -3.82,5 -5.74,10.9 -5.74,17.69 0,6.72 1.74,13.69 5.22,20.92 3.47,7.23 8.18,13.24 14.12,18.04 5.93,4.81 12.3,7.21 19.1,7.21 3.12,0 5.92,-0.86 8.38,-2.57 2.46,-1.72 4.39,-4.03 5.8,-6.92 l 8.91,35.15 c 0.39,1.8 0.62,3.21 0.7,4.23 0,1.72 -3.4,2.57 -10.2,2.57 -1.09,0 -1.63,0.71 -1.63,2.11 0.07,0.24 0.18,0.69 0.34,1.35 0.16,0.66 0.4,1.17 0.71,1.53 0.31,0.35 0.7,0.52 1.17,0.52 l 21.21,1.76 c 1.33,0 1.99,-0.71 1.99,-2.11 l -22.73,-90.58 c -0.7,-1.73 -1.06,-4.23 -1.06,-7.5 0,-4.54 1.53,-6.8 4.57,-6.8 3.29,0 5.79,2.09 7.5,6.27 1.72,4.18 3.16,9.04 4.34,14.59 0.16,0.54 0.55,0.81 1.17,0.81 h 1.99 c 0.39,0 0.71,-0.17 0.94,-0.52 0.24,-0.35 0.36,-0.68 0.36,-1 -1.8,-7.34 -3.8,-13.22 -5.98,-17.63 -2.19,-4.42 -5.75,-6.62 -10.67,-6.62 -3.51,0 -6.64,1.03 -9.37,3.1 -2.74,2.07 -4.42,4.82 -5.04,8.26 -6.8,-7.57 -13.6,-11.36 -20.39,-11.36 z m 0.11,4.1 c 3.83,0 7.52,1.42 11.08,4.28 3.55,2.84 6.62,6.18 9.2,10.02 0.08,0.15 0.12,0.39 0.12,0.7 l 8.55,34.69 c -0.62,3.67 -1.97,6.83 -4.04,9.48 -2.07,2.66 -4.87,3.99 -8.38,3.99 -3.52,0 -6.8,-1.44 -9.85,-4.34 -3.04,-2.89 -5.62,-6.33 -7.73,-10.31 -2.03,-4.14 -3.98,-9.88 -5.86,-17.22 -1.87,-7.35 -2.81,-13.05 -2.81,-17.12 0,-3.59 0.78,-6.85 2.34,-9.78 1.56,-2.93 4.03,-4.39 7.38,-4.39" /><path
         id="path142"
         style="fill:#000000;fill-opacity:1;fill-rule:nonzero;stroke:none"
         d="m 2252.14,2555.48 c 0,1.96 0.43,4.03 1.29,6.21 l 12.65,33.87 c 1.41,3.9 2.11,7.07 2.11,9.49 0,3.13 -1.13,4.69 -3.4,4.69 -4.22,0 -7.65,-2.13 -10.31,-6.38 -2.66,-4.27 -4.65,-9.05 -5.98,-14.36 -0.15,-0.71 -0.59,-1.06 -1.29,-1.06 h -1.87 c -0.86,0 -1.29,0.51 -1.29,1.52 v 0.48 c 1.72,6.25 4.32,11.79 7.79,16.64 3.48,4.84 7.87,7.26 13.19,7.26 3.75,0 6.91,-1.23 9.49,-3.69 2.58,-2.46 3.87,-5.61 3.87,-9.44 0,-1.94 -0.43,-3.98 -1.29,-6.08 l -12.78,-33.88 c -1.4,-3.51 -2.11,-6.67 -2.11,-9.48 0,-3.13 1.22,-4.69 3.64,-4.69 4.06,0 7.48,2.21 10.25,6.62 2.78,4.41 4.71,9.16 5.8,14.24 0.24,0.54 0.63,0.81 1.17,0.81 h 2 c 0.39,0 0.72,-0.13 0.99,-0.4 0.27,-0.28 0.41,-0.57 0.41,-0.89 0,-0.15 -0.08,-0.31 -0.23,-0.46 -1.41,-5.94 -3.89,-11.43 -7.44,-16.46 -3.56,-5.04 -7.99,-7.56 -13.31,-7.56 -3.67,0 -6.81,1.27 -9.43,3.81 -2.62,2.53 -3.92,5.6 -3.92,9.19 z m 17.81,84.15 c 0,2.26 0.92,4.29 2.75,6.08 1.84,1.81 3.85,2.7 6.04,2.7 1.8,0 3.28,-0.56 4.45,-1.7 1.17,-1.13 1.76,-2.51 1.76,-4.16 0,-2.34 -0.94,-4.41 -2.81,-6.21 -1.88,-1.8 -3.95,-2.69 -6.21,-2.69 -1.72,0 -3.15,0.58 -4.29,1.75 -1.13,1.18 -1.69,2.58 -1.69,4.23" /><path
         id="path144"
         style="fill:#000000;fill-opacity:1;fill-rule:nonzero;stroke:none"
         d="m 2320.31,2542.48 c -6.65,0 -11.88,2.5 -15.7,7.5 -3.83,5 -5.75,10.9 -5.75,17.69 0,6.72 1.74,13.69 5.21,20.92 3.48,7.23 8.19,13.24 14.13,18.04 5.94,4.81 12.3,7.21 19.1,7.21 3.12,0 5.91,-0.86 8.38,-2.57 2.46,-1.72 4.39,-4.03 5.8,-6.92 l 8.9,35.15 c 0.39,1.8 0.63,3.21 0.71,4.23 0,1.72 -3.4,2.57 -10.2,2.57 -1.09,0 -1.64,0.71 -1.64,2.11 0.08,0.24 0.2,0.69 0.36,1.35 0.15,0.66 0.39,1.17 0.7,1.53 0.31,0.35 0.7,0.52 1.17,0.52 l 21.21,1.76 c 1.33,0 2,-0.71 2,-2.11 l -22.74,-90.58 c -0.7,-1.73 -1.06,-4.23 -1.06,-7.5 0,-4.54 1.53,-6.8 4.57,-6.8 3.28,0 5.78,2.09 7.5,6.27 1.72,4.18 3.17,9.04 4.34,14.59 0.15,0.54 0.54,0.81 1.17,0.81 h 1.99 c 0.39,0 0.7,-0.17 0.94,-0.52 0.24,-0.35 0.35,-0.68 0.35,-1 -1.79,-7.34 -3.79,-13.22 -5.97,-17.63 -2.19,-4.42 -5.74,-6.62 -10.67,-6.62 -3.51,0 -6.64,1.03 -9.38,3.1 -2.73,2.07 -4.41,4.82 -5.03,8.26 -6.8,-7.57 -13.59,-11.36 -20.39,-11.36 z m 0.11,4.1 c 3.83,0 7.53,1.42 11.08,4.28 3.55,2.84 6.62,6.18 9.2,10.02 0.08,0.15 0.12,0.39 0.12,0.7 l 8.56,34.69 c -0.63,3.67 -1.98,6.83 -4.06,9.48 -2.07,2.66 -4.86,3.99 -8.37,3.99 -3.52,0 -6.8,-1.44 -9.84,-4.34 -3.06,-2.89 -5.63,-6.33 -7.73,-10.31 -2.04,-4.14 -4,-9.88 -5.87,-17.22 -1.88,-7.35 -2.81,-13.05 -2.81,-17.12 0,-3.59 0.78,-6.85 2.34,-9.78 1.56,-2.93 4.02,-4.39 7.38,-4.39" /><path
         id="path146"
         style="fill:#000000;fill-opacity:1;fill-rule:nonzero;stroke:none"
         d="m 2404.68,2542.48 c -4.92,0 -9.31,1.17 -13.18,3.51 -3.87,2.35 -6.86,5.53 -8.97,9.55 -2.11,4.03 -3.16,8.58 -3.16,13.65 0,7.11 1.99,14.15 5.97,21.1 3.99,6.95 9.26,12.61 15.83,16.99 6.56,4.37 13.47,6.56 20.74,6.56 3.9,0 7.38,-0.66 10.43,-1.99 3.04,-1.33 5.68,-3.2 7.91,-5.62 2.23,-2.43 3.95,-5.26 5.15,-8.5 1.21,-3.24 1.82,-6.74 1.82,-10.49 0,-5.47 -1.15,-10.86 -3.46,-16.17 -2.3,-5.31 -5.47,-10.14 -9.49,-14.47 -4.02,-4.34 -8.61,-7.78 -13.77,-10.31 -5.16,-2.54 -10.43,-3.81 -15.82,-3.81 z m 0.35,4.1 c 4.69,0 8.97,1.6 12.83,4.8 3.87,3.21 7.04,7.23 9.5,12.07 2.46,4.84 4.37,9.96 5.74,15.35 1.36,5.4 2.05,10.24 2.05,14.54 0,4.61 -1.15,8.49 -3.46,11.66 -2.3,3.16 -5.68,4.74 -10.14,4.74 -6.17,0 -11.56,-2.61 -16.17,-7.85 -4.61,-5.23 -8.06,-11.5 -10.37,-18.81 -2.3,-7.3 -3.46,-14 -3.46,-20.1 0,-4.53 1.16,-8.39 3.46,-11.6 2.31,-3.2 5.65,-4.8 10.02,-4.8" /><path
         id="path148"
         style="fill:none;stroke:#000000;stroke-width:9.99750042;stroke-linecap:butt;stroke-linejoin:round;stroke-miterlimit:10;stroke-dasharray:none;stroke-opacity:1"
         d="M 1522.49,2630.03 H 1822.4" /><path
         id="path150"
         style="fill:none;stroke:#262626;stroke-width:5.00250006;stroke-linecap:butt;stroke-linejoin:miter;stroke-miterlimit:10;stroke-dasharray:none;stroke-opacity:1"
         d="m 1492.5,2482.5 h 1125 V 3315 h -1125 z" /></g></g></svg>