<?xml version="1.0" encoding="UTF-8" standalone="no"?>
<svg
   xmlns:dc="http://purl.org/dc/elements/1.1/"
   xmlns:cc="http://creativecommons.org/ns#"
   xmlns:rdf="http://www.w3.org/1999/02/22-rdf-syntax-ns#"
   xmlns:svg="http://www.w3.org/2000/svg"
   xmlns="http://www.w3.org/2000/svg"
   viewBox="0 0 1200 500"
   height="500"
   width="1200"
   xml:space="preserve"
   id="svg2"
   version="1.1"><metadata
     id="metadata8"><rdf:RDF><cc:Work
         rdf:about=""><dc:format>image/svg+xml</dc:format><dc:type
           rdf:resource="http://purl.org/dc/dcmitype/StillImage" /></cc:Work></rdf:RDF></metadata><defs
     id="defs6" /><g
     transform="matrix(1.3333333,0,0,-1.3333333,0,500)"
     id="g10"><g
       transform="scale(0.1)"
       id="g12"><path
         id="path14"
         style="fill:#ffffff;fill-opacity:1;fill-rule:nonzero;stroke:none"
         d="M 0,0 H 9000 V 3750 H 0 Z" /><path
         id="path16"
         style="fill:#ffffff;fill-opacity:1;fill-rule:nonzero;stroke:none"
         d="M 0,0 H 9000 V 3750 H 0 Z" /><path
         id="path18"
         style="fill:#ffffff;fill-opacity:1;fill-rule:nonzero;stroke:none"
         d="M 1395,600 H 8595 V 3412.5 H 1395 Z" /><path
         id="path20"
         style="fill:none;stroke:#262626;stroke-width:5.00250006;stroke-linecap:square;stroke-linejoin:round;stroke-miterlimit:10;stroke-dasharray:none;stroke-opacity:1"
         d="M 1395,600 H 8595" /><path
         id="path22"
         style="fill:none;stroke:#262626;stroke-width:5.00250006;stroke-linecap:square;stroke-linejoin:round;stroke-miterlimit:10;stroke-dasharray:none;stroke-opacity:1"
         d="M 1395,3412.5 H 8595" /><path
         id="path24"
         style="fill:none;stroke:#262626;stroke-width:5.00250006;stroke-linecap:square;stroke-linejoin:round;stroke-miterlimit:10;stroke-dasharray:none;stroke-opacity:1"
         d="m 1395,600 v 72" /><path
         id="path26"
         style="fill:none;stroke:#262626;stroke-width:5.00250006;stroke-linecap:square;stroke-linejoin:round;stroke-miterlimit:10;stroke-dasharray:none;stroke-opacity:1"
         d="m 2295,600 v 72" /><path
         id="path28"
         style="fill:none;stroke:#262626;stroke-width:5.00250006;stroke-linecap:square;stroke-linejoin:round;stroke-miterlimit:10;stroke-dasharray:none;stroke-opacity:1"
         d="m 3195,600 v 72" /><path
         id="path30"
         style="fill:none;stroke:#262626;stroke-width:5.00250006;stroke-linecap:square;stroke-linejoin:round;stroke-miterlimit:10;stroke-dasharray:none;stroke-opacity:1"
         d="m 4095,600 v 72" /><path
         id="path32"
         style="fill:none;stroke:#262626;stroke-width:5.00250006;stroke-linecap:square;stroke-linejoin:round;stroke-miterlimit:10;stroke-dasharray:none;stroke-opacity:1"
         d="m 4995,600 v 72" /><path
         id="path34"
         style="fill:none;stroke:#262626;stroke-width:5.00250006;stroke-linecap:square;stroke-linejoin:round;stroke-miterlimit:10;stroke-dasharray:none;stroke-opacity:1"
         d="m 5895,600 v 72" /><path
         id="path36"
         style="fill:none;stroke:#262626;stroke-width:5.00250006;stroke-linecap:square;stroke-linejoin:round;stroke-miterlimit:10;stroke-dasharray:none;stroke-opacity:1"
         d="m 6795,600 v 72" /><path
         id="path38"
         style="fill:none;stroke:#262626;stroke-width:5.00250006;stroke-linecap:square;stroke-linejoin:round;stroke-miterlimit:10;stroke-dasharray:none;stroke-opacity:1"
         d="m 7695,600 v 72" /><path
         id="path40"
         style="fill:none;stroke:#262626;stroke-width:5.00250006;stroke-linecap:square;stroke-linejoin:round;stroke-miterlimit:10;stroke-dasharray:none;stroke-opacity:1"
         d="m 8595,600 v 72" /><path
         id="path42"
         style="fill:none;stroke:#262626;stroke-width:5.00250006;stroke-linecap:square;stroke-linejoin:round;stroke-miterlimit:10;stroke-dasharray:none;stroke-opacity:1"
         d="m 1395,3412.5 v -72" /><path
         id="path44"
         style="fill:none;stroke:#262626;stroke-width:5.00250006;stroke-linecap:square;stroke-linejoin:round;stroke-miterlimit:10;stroke-dasharray:none;stroke-opacity:1"
         d="m 2295,3412.5 v -72" /><path
         id="path46"
         style="fill:none;stroke:#262626;stroke-width:5.00250006;stroke-linecap:square;stroke-linejoin:round;stroke-miterlimit:10;stroke-dasharray:none;stroke-opacity:1"
         d="m 3195,3412.5 v -72" /><path
         id="path48"
         style="fill:none;stroke:#262626;stroke-width:5.00250006;stroke-linecap:square;stroke-linejoin:round;stroke-miterlimit:10;stroke-dasharray:none;stroke-opacity:1"
         d="m 4095,3412.5 v -72" /><path
         id="path50"
         style="fill:none;stroke:#262626;stroke-width:5.00250006;stroke-linecap:square;stroke-linejoin:round;stroke-miterlimit:10;stroke-dasharray:none;stroke-opacity:1"
         d="m 4995,3412.5 v -72" /><path
         id="path52"
         style="fill:none;stroke:#262626;stroke-width:5.00250006;stroke-linecap:square;stroke-linejoin:round;stroke-miterlimit:10;stroke-dasharray:none;stroke-opacity:1"
         d="m 5895,3412.5 v -72" /><path
         id="path54"
         style="fill:none;stroke:#262626;stroke-width:5.00250006;stroke-linecap:square;stroke-linejoin:round;stroke-miterlimit:10;stroke-dasharray:none;stroke-opacity:1"
         d="m 6795,3412.5 v -72" /><path
         id="path56"
         style="fill:none;stroke:#262626;stroke-width:5.00250006;stroke-linecap:square;stroke-linejoin:round;stroke-miterlimit:10;stroke-dasharray:none;stroke-opacity:1"
         d="m 7695,3412.5 v -72" /><path
         id="path58"
         style="fill:none;stroke:#262626;stroke-width:5.00250006;stroke-linecap:square;stroke-linejoin:round;stroke-miterlimit:10;stroke-dasharray:none;stroke-opacity:1"
         d="m 8595,3412.5 v -72" /><g
         transform="scale(10)"
         id="g60"><text
           id="text64"
           style="font-variant:normal;font-weight:normal;font-size:20.00020027px;font-family:Helvetica;-inkscape-font-specification:Helvetica;writing-mode:lr-tb;fill:#262626;fill-opacity:1;fill-rule:nonzero;stroke:none"
           transform="matrix(1,0,0,-1,133.5,33)"><tspan
             id="tspan62"
             y="0"
             x="0 89.999702 174.37454 185.49466 264.37424 275.49435 354.37393 365.49405 444.37366 455.49374 534.37335 545.49347 624.37305 635.49316 714.37274 725.49286">0510152025303540</tspan></text>
<text
           id="text68"
           style="font-variant:normal;font-weight:normal;font-size:21.99970055px;font-family:Helvetica;-inkscape-font-specification:Helvetica;writing-mode:lr-tb;fill:#262626;fill-opacity:1;fill-rule:nonzero;stroke:none"
           transform="matrix(1,0,0,-1,449.625,5)"><tspan
             id="tspan66"
             y="0"
             x="0 13.441816 25.673651 43.999401 56.231232 68.463066 74.578979 81.904884 92.904732">Tempo (s)</tspan></text>
</g><path
         id="path70"
         style="fill:none;stroke:#262626;stroke-width:5.00250006;stroke-linecap:square;stroke-linejoin:round;stroke-miterlimit:10;stroke-dasharray:none;stroke-opacity:1"
         d="M 1395,600 V 3412.5" /><path
         id="path72"
         style="fill:none;stroke:#262626;stroke-width:5.00250006;stroke-linecap:square;stroke-linejoin:round;stroke-miterlimit:10;stroke-dasharray:none;stroke-opacity:1"
         d="M 8595,600 V 3412.5" /><path
         id="path74"
         style="fill:none;stroke:#262626;stroke-width:5.00250006;stroke-linecap:square;stroke-linejoin:round;stroke-miterlimit:10;stroke-dasharray:none;stroke-opacity:1"
         d="m 1395,710.641 h 72" /><path
         id="path76"
         style="fill:none;stroke:#262626;stroke-width:5.00250006;stroke-linecap:square;stroke-linejoin:round;stroke-miterlimit:10;stroke-dasharray:none;stroke-opacity:1"
         d="m 1395,1241.43 h 72" /><path
         id="path78"
         style="fill:none;stroke:#262626;stroke-width:5.00250006;stroke-linecap:square;stroke-linejoin:round;stroke-miterlimit:10;stroke-dasharray:none;stroke-opacity:1"
         d="m 1395,1772.23 h 72" /><path
         id="path80"
         style="fill:none;stroke:#262626;stroke-width:5.00250006;stroke-linecap:square;stroke-linejoin:round;stroke-miterlimit:10;stroke-dasharray:none;stroke-opacity:1"
         d="m 1395,2303.02 h 72" /><path
         id="path82"
         style="fill:none;stroke:#262626;stroke-width:5.00250006;stroke-linecap:square;stroke-linejoin:round;stroke-miterlimit:10;stroke-dasharray:none;stroke-opacity:1"
         d="m 1395,2833.82 h 72" /><path
         id="path84"
         style="fill:none;stroke:#262626;stroke-width:5.00250006;stroke-linecap:square;stroke-linejoin:round;stroke-miterlimit:10;stroke-dasharray:none;stroke-opacity:1"
         d="m 1395,3364.61 h 72" /><path
         id="path86"
         style="fill:none;stroke:#262626;stroke-width:5.00250006;stroke-linecap:square;stroke-linejoin:round;stroke-miterlimit:10;stroke-dasharray:none;stroke-opacity:1"
         d="m 8595,710.641 h -72" /><path
         id="path88"
         style="fill:none;stroke:#262626;stroke-width:5.00250006;stroke-linecap:square;stroke-linejoin:round;stroke-miterlimit:10;stroke-dasharray:none;stroke-opacity:1"
         d="m 8595,1241.43 h -72" /><path
         id="path90"
         style="fill:none;stroke:#262626;stroke-width:5.00250006;stroke-linecap:square;stroke-linejoin:round;stroke-miterlimit:10;stroke-dasharray:none;stroke-opacity:1"
         d="m 8595,1772.23 h -72" /><path
         id="path92"
         style="fill:none;stroke:#262626;stroke-width:5.00250006;stroke-linecap:square;stroke-linejoin:round;stroke-miterlimit:10;stroke-dasharray:none;stroke-opacity:1"
         d="m 8595,2303.02 h -72" /><path
         id="path94"
         style="fill:none;stroke:#262626;stroke-width:5.00250006;stroke-linecap:square;stroke-linejoin:round;stroke-miterlimit:10;stroke-dasharray:none;stroke-opacity:1"
         d="m 8595,2833.82 h -72" /><path
         id="path96"
         style="fill:none;stroke:#262626;stroke-width:5.00250006;stroke-linecap:square;stroke-linejoin:round;stroke-miterlimit:10;stroke-dasharray:none;stroke-opacity:1"
         d="m 8595,3364.61 h -72" /><g
         transform="scale(10)"
         id="g98"><text
           id="text112"
           style="font-variant:normal;font-weight:normal;font-size:20.00020027px;font-family:Helvetica;-inkscape-font-specification:Helvetica;writing-mode:lr-tb;fill:#262626;fill-opacity:1;fill-rule:nonzero;stroke:none"
           transform="matrix(1,0,0,-1,110.25,62.8141)"><tspan
             id="tspan100"
             y="0"
             x="0 11.120111">30</tspan><tspan
             id="tspan102"
             y="-53.0793"
             x="0 11.120111">32</tspan><tspan
             id="tspan104"
             y="-106.1586"
             x="0 11.120111">34</tspan><tspan
             id="tspan106"
             y="-159.2379"
             x="0 11.120111">36</tspan><tspan
             id="tspan108"
             y="-212.3172"
             x="0 11.120111">38</tspan><tspan
             id="tspan110"
             y="-265.39651"
             x="0 11.120111">40</tspan></text>
<text
           id="text116"
           style="font-variant:normal;font-weight:normal;font-size:21.99970055px;font-family:Helvetica;-inkscape-font-specification:Helvetica;writing-mode:lr-tb;fill:#262626;fill-opacity:1;fill-rule:nonzero;stroke:none"
           transform="matrix(0,1,1,0,102,147.375)"><tspan
             id="tspan114"
             y="0"
             x="0 14.6738 19.557734 25.673651 37.905483 45.231384 57.463215 63.579132 70.905029 81.904884 100.23064">Altura (cm)</tspan></text>
</g><g
         transform="scale(10)"
         id="g118"><text
           id="text122"
           style="font-variant:normal;font-weight:bold;font-size:21.99970055px;font-family:Helvetica;-inkscape-font-specification:Helvetica-Bold;writing-mode:lr-tb;fill:#000000;fill-opacity:1;fill-rule:nonzero;stroke:none"
           transform="matrix(1,0,0,-1,234.75,350.625)"><tspan
             id="tspan120"
             y="0"
             x="0 15.883783 28.115616 40.34745 53.789265 67.231087 79.462914 86.788818 99.020653 105.13657 117.3684 123.48431 135.71616 147.94798 160.17981 172.41165 185.85347 198.0853 206.64319 212.75909 224.99094 231.10684 244.54866 257.99048 264.10638 283.66412 297.10596 310.54776 322.7796 328.89551 342.33734 348.45325 364.33704 380.22083 394.89462 407.12643 413.24237 432.80011 438.91602 451.14786 457.26376 476.8215 490.26331 496.37924 508.61105 522.05286">Resposta à escadaria do modelo ARXsim simulado</tspan></text>
</g><path
         id="path124"
         style="fill:none;stroke:#0072bd;stroke-width:15;stroke-linecap:butt;stroke-linejoin:miter;stroke-miterlimit:10;stroke-dasharray:none;stroke-opacity:1"
         d="m 1395,710.641 h 9 v 0 h 9 v 0 h 9 v 0 h 9 v 0 h 9 v 0 h 9 v 0 h 9 v 0 h 9 v 0 h 9 v 0 h 9 v 0 h 9 v 0 h 9 v 0 h 9 v 0 h 9 v -0.008 h 9 v 0 h 9 v 0 h 9 v 0 h 9 v 0 h 9 v 0 h 9 v 0 h 9 v 0 h 9 v 0 h 9 v 0 h 9 v 0 h 9 v 0 h 9 v 0 h 9 v 0 h 9 v -0.008 h 9 v 0 h 9 v 0 h 9 v 0 h 9 v 0 h 9 v 0 h 9 v 0 h 9 v 0 h 9 v 0 h 9 v 0 h 9 v 0 h 9 v 0 h 9 v 0 h 9 v -0.008 h 9 v 0 h 9 v 0 h 9 v 0 h 9 v 0 h 9 v 0 h 9 v 0 h 9 v 0 h 9 v 0 h 9 v 0 h 9 v 0 h 9 v 0 h 9 v 0 h 9 v 0 h 9 v 0 h 9 v 0 h 9 v 0 h 9 v -0.008 h 9 v 0 h 9 v 0 h 9 v 0 h 9 v 0 h 9 v 0 h 9 v 0 h 9 v 0 h 9 v 0 h 9 v 0 h 9 v 0 h 9 v 0 h 9 v 0 h 9 v 0 h 9 v 0 h 9 v 0 h 9 v 0 h 9 v 0 h 9 v 0 h 9 v 0 h 9 v 0 h 9 v 0 h 9 v 0 h 9 v 0 h 9 v 0 h 9 v 0 h 9 v 0 h 9 v 0 h 9 v 0 h 9 v 0 h 9 v 0 h 9 v 0 h 9 v 0 h 9 v 0 h 9 v 0 h 9 v 0 h 9 v 0 h 9 v 0 h 9 v 0 h 9 v 0 h 9 v 0 h 9 v 0 h 9 v 0 h 9 v 24.707 h 9 v 15.758 h 9 v -17.355 h 9 v -11.688 h 9 v 13.93 h 9 v 10.102 h 9 v -9.293 h 9 v -6.336 h 9 v 8.765 h 9 v 6.856 h 9 v -4.543 h 9 v -3.032 h 9 v 5.872 h 9 v 4.949 h 9 v -1.754 h 9 v -0.988 h 9 v 4.25 h 9 v 3.82 h 9 v -0.121 h 9 v 0.238 h 9 v 3.332 h 9 v 3.133 h 9 v 0.82 h 9 v 0.973 h 9 v 2.793 h 9 v 2.699 h 9 v 1.336 h 9 v 1.395 h 9 v 2.445 h 9 v 2.406 h 9 v 1.598 h 9 v 1.605 h 9 v 2.211 h 9 v 2.192 h 9 v 1.703 h 9 v 1.687 h 9 v 2.024 h 9 v 2.011 h 9 v 1.707 h 9 v 1.672 h 9 v 1.871 h 9 v 1.844 h 9 v 1.656 h 9 v 1.621 h 9 v 1.711 h 9 v 1.688 h 9 v 1.566 h 9 v 1.524 h 9 v 1.566 h 9 v 1.547 h 9 v 1.445 h 9 v 1.418 h 9 v 1.418 h 9 v 1.395 h 9 v 1.328 h 9 v 1.289 h 9 v 1.281 h 9 v 1.254 h 9 v 1.199 h 9 v 1.164 h 9 v 1.141 h 9 v 1.117 h 9 v 1.071 h 9 v 1.035 h 9 v 1.011 h 9 v 0.985 h 9 v 0.945 h 9 v 0.914 h 9 v 0.895 h 9 v 0.851 h 9 v 0.836 h 9 v 0.793 h 9 v 0.774 h 9 v 0.742 h 9 v 0.719 h 9 v 0.691 h 9 v 0.66 h 9 v 0.637 h 9 v 0.617 h 9 v 0.582 h 9 v 0.57 h 9 v 0.539 h 9 v 0.52 h 9 v 0.496 h 9 v 0.473 h 9 v 0.457 h 9 v 0.433 h 9 v 0.414 h 9 v 0.387 h 9 v 0.379 h 9 v 0.359 h 9 v 0.336 h 9 v 0.325 h 9 v 0.304 h 9 v 0.285 h 9 v 0.278 h 9 v 0.258 h 9 v 0.238 h 9 v 0.234 h 9 v 0.215 h 9 v 0.203 h 9 v 0.188 h 9 v 0.179 h 9 v 0.164 h 9 v 0.161 h 9 v 0.14 h 9 v 0.129 h 9 v 0.129 h 9 v 0.109 h 9 v 0.106 h 9 v 0.09 h 9 v 0.09 h 9 v 0.074 h 9 v 0.078 h 9 v 0.059 h 9 v 0.058 h 9 v 0.047 h 9 v 0.043 h 9 v 0.039 h 9 v 0.031 h 9 v 0.028 h 9 v 0.015 h 9 v 0.016 h 9 v 0.015 h 9 v 0 h 9 v 0.008 h 9 v -0.008 h 9 v -0.007 h 9 v -0.008 h 9 v -0.016 h 9 v -0.015 h 9 v -0.012 h 9 v -0.024 h 9 v -0.023 h 9 v -0.031 h 9 v -0.028 h 9 v -0.031 h 9 v -0.031 h 9 v -0.035 h 9 v -0.031 h 9 v -0.04 h 9 v -0.035 h 9 v -0.047 h 9 v -0.035 h 9 v -0.047 h 9 v -0.035 h 9 v -0.047 h 9 v -0.043 h 9 v -0.046 h 9 v -0.047 h 9 v -0.043 h 9 v -0.047 h 9 v -0.043 h 9 v -0.047 h 9 v -0.043 h 9 v -0.047 h 9 v -0.043 h 9 v -0.047 h 9 v -0.043 h 9 v -0.047 h 9 v -0.043 h 9 v -0.039 h 9 v -0.043 h 9 v -0.046 h 9 v -0.043 h 9 v -0.039 h 9 v -0.043 h 9 v -0.04 h 9 v -0.046 h 9 v -0.036 h 9 v -0.039 h 9 v -0.035 h 9 v -0.039 h 9 v -0.039 h 9 v -0.035 h 9 v -0.039 h 9 v -0.035 h 9 v -0.032 h 9 v -0.039 h 9 v -0.027 h 9 v -0.031 h 9 v -0.031 h 9 v -0.036 h 9 v -0.031 h 9 v -0.023 h 9 v -0.028 h 9 v -0.031 h 9 v -0.023 h 9 v -0.032 h 9 v -0.019 h 9 v -0.031 h 9 v -0.024 h 9 v -0.023 h 9 v -0.02 h 9 v -0.023 h 9 v -0.024 h 9 v -0.015 h 9 v -0.02 h 9 v -0.023 h 9 v -0.016 h 9 v 24.692 h 9 v 15.742 h 9 v -17.41 h 9 v -11.782 h 9 v 13.793 h 9 v 9.981 h 9 v -9.449 h 9 v -6.532 h 9 v 8.559 h 9 v 6.652 h 9 v -4.769 h 9 v -3.278 h 9 v 5.618 h 9 v 4.687 h 9 v -2.019 h 9 v -1.274 h 9 v 3.961 h 9 v 3.539 h 9 v -0.414 h 9 v -0.043 h 9 v 3.027 h 9 v 2.844 h 9 v 0.524 h 9 v 0.691 h 9 v 2.496 h 9 v 2.426 h 9 v 1.055 h 9 v 1.117 h 9 v 2.176 h 9 v 2.144 h 9 v 1.344 h 9 v 1.351 h 9 v 1.973 h 9 v 1.949 h 9 v 1.477 h 9 v 1.461 h 9 v 1.816 h 9 v 1.809 h 9 v 1.515 h 9 v 1.493 h 9 v 1.695 h 9 v 1.68 h 9 v 1.492 h 9 v 1.476 h 9 v 1.575 h 9 v 1.562 h 9 v 1.445 h 9 v 1.418 h 9 v 1.461 h 9 v 1.457 h 9 v 1.364 h 9 v 1.343 h 9 v 1.356 h 9 v 1.344 h 9 v 1.281 h 9 v 1.254 h 9 v 1.254 h 9 v 1.238 h 9 v 1.183 h 9 v 1.157 h 9 v 1.152 h 9 v 1.125 h 9 v 1.09 h 9 v 1.062 h 9 v 1.051 h 9 v 1.02 h 9 v 1 h 9 v 0.965 h 9 v 0.945 h 9 v 0.93 h 9 v 0.894 h 9 v 0.875 h 9 v 0.856 h 9 v 0.832 h 9 v 0.804 h 9 v 0.785 h 9 v 0.766 h 9 v 0.742 h 9 v 0.723 h 9 v 0.703 h 9 v 0.676 h 9 v 0.668 h 9 v 0.637 h 9 v 0.621 h 9 v 0.601 h 9 v 0.586 h 9 v 0.563 h 9 v 0.546 h 9 v 0.532 h 9 v 0.511 h 9 v 0.497 h 9 v 0.476 h 9 v 0.465 h 9 v 0.453 h 9 v 0.426 h 9 v 0.422 h 9 v 0.402 h 9 v 0.383 h 9 v 0.375 h 9 v 0.367 h 9 v 0.348 h 9 v 0.336 h 9 v 0.324 h 9 v 0.305 h 9 v 0.3 h 9 v 0.286 h 9 v 0.277 h 9 v 0.262 h 9 v 0.257 h 9 v 0.246 h 9 v 0.231 h 9 v 0.227 h 9 v 0.21 h 9 v 0.211 h 9 v 0.192 h 9 v 0.187 h 9 v 0.184 h 9 v 0.172 h 9 v 0.164 h 9 v 0.156 h 9 v 0.152 h 9 v 0.141 h 9 v 0.137 h 9 v 0.125 h 9 v 0.129 h 9 v 0.113 h 9 v 0.113 h 9 v 0.102 h 9 v 0.097 h 9 v 0.098 h 9 v 0.09 h 9 v 0.086 h 9 v 0.082 h 9 v 0.074 h 9 v 0.067 h 9 v 0.066 h 9 v 0.062 h 9 v 0.059 h 9 v 0.055 h 9 v 0.051 h 9 v 0.05 h 9 v 0.039 h 9 v 0.047 h 9 v 0.035 h 9 v 0.039 h 9 v 0.028 h 9 v 0.031 h 9 v 0.031 h 9 v 0.024 h 9 v 0.019 h 9 v 0.024 h 9 v 0.015 h 9 v 0.016 h 9 v 0.016 h 9 v 0.011 h 9 v 0.008 h 9 v 0.016 h 9 v 0.008 h 9 v 0.007 h 9 v 0 h 9 v 0.008 h 9 v 0 h 9 v 0 h 9 v 0 h 9 v 0 h 9 v 0 h 9 v -0.008 h 9 v 0 h 9 v -0.007 h 9 v -0.008 h 9 v 0 h 9 v -0.008 h 9 v -0.008 h 9 v -0.008 h 9 v -0.004 h 9 v -0.015 h 9 v -0.008 h 9 v -0.008 h 9 v -0.015 h 9 v -0.008 h 9 v -0.008 h 9 v -0.016 h 9 v -0.008 h 9 v -0.011 h 9 v -0.016 h 9 v -0.008 h 9 v -0.015 h 9 v -0.008 h 9 v -0.016 h 9 v -0.015 h 9 v -0.008 h 9 v -0.012 h 9 v -0.016 h 9 v -0.007 h 9 V 987 h 9 v -0.016 h 9 v -0.007 h 9 v -0.016 h 9 v -0.012 h 9 v -0.008 h 9 v -49.433 h 9 v -31.539 h 9 v 34.793 h 9 v 23.582 h 9 V 936.75 h 9 v -19.949 h 9 v 18.906 h 9 v 13.043 h 9 v -17.168 h 9 v -13.344 h 9 v 9.473 h 9 v 6.453 h 9 v -11.371 h 9 v -9.523 h 9 v 3.859 h 9 v 2.332 h 9 v -8.172 h 9 v -7.328 h 9 v 0.523 h 9 v -0.23 h 9 v -6.422 h 9 v -6.051 h 9 v -1.449 h 9 v -1.801 h 9 v -5.437 h 9 v -5.293 h 9 v -2.59 h 9 v -2.727 h 9 v -4.863 h 9 v -4.805 h 9 v -3.211 h 9 v -3.246 h 9 v -4.48 h 9 v -4.453 h 9 v -3.496 h 9 v -3.489 h 9 v -4.183 h 9 v -4.164 h 9 v -3.574 h 9 v -3.536 h 9 v -3.921 h 9 v -3.887 h 9 v -3.516 h 9 v -3.465 h 9 v -3.652 h 9 v -3.621 h 9 v -3.371 h 9 v -3.297 h 9 v -3.391 h 9 v -3.34 h 9 v -3.164 h 9 v -3.089 h 9 v -3.106 h 9 v -3.051 h 9 v -2.918 h 9 v -2.843 h 9 v -2.829 h 9 v -2.757 h 9 v -2.657 h 9 v -2.578 h 9 v -2.543 h 9 v -2.476 h 9 v -2.375 h 9 v -2.313 h 9 v -2.258 h 9 v -2.195 h 9 v -2.109 h 9 v -2.039 h 9 v -1.981 h 9 v -1.918 h 9 v -1.847 h 9 v -1.778 h 9 v -1.722 h 9 v -1.661 h 9 v -1.589 h 9 v -1.528 h 9 v -1.48 h 9 v -1.41 h 9 v -1.356 h 9 v -1.297 h 9 v -1.246 h 9 v -1.183 h 9 v -1.141 h 9 v -1.082 h 9 v -1.035 h 9 v -0.981 h 9 v -0.929 h 9 v -0.887 h 9 v -0.848 h 9 v -0.793 h 9 v -0.758 h 9 v -0.707 h 9 v -0.671 h 9 v -0.633 h 9 v -0.59 h 9 v -0.559 h 9 v -0.523 h 9 v -0.488 h 9 v -0.45 h 9 v -0.418 h 9 v -0.39 h 9 v -0.36 h 9 v -0.332 h 9 v -0.3 h 9 v -0.278 h 9 v -0.246 h 9 v -0.234 h 9 v -0.199 h 9 v -0.184 h 9 v -0.156 h 9 v -0.133 h 9 v -0.121 h 9 v -0.106 h 9 v -0.082 h 9 v -0.066 h 9 V 703.5 h 9 v -0.039 h 9 v -0.02 h 9 v -0.007 h 9 v 0.007 h 9 v 0.016 h 9 v 0.027 h 9 v 0.039 h 9 v 0.043 h 9 v 0.063 h 9 v 0.066 h 9 v 0.067 h 9 v 0.082 h 9 v 0.09 h 9 v 0.097 h 9 v 0.098 h 9 v 0.105 h 9 v 0.114 h 9 v 0.113 h 9 v 0.121 h 9 v 0.117 h 9 v 0.129 h 9 v 0.125 h 9 v 0.129 h 9 v 0.129 h 9 v 0.133 h 9 v 0.136 h 9 v 0.133 h 9 v 0.137 h 9 v 0.137 h 9 v 0.14 h 9 v 0.137 h 9 v 0.133 h 9 v 0.137 h 9 v 0.132 h 9 v 0.137 h 9 v 0.133 h 9 v 0.129 h 9 v 0.137 h 9 v 0.125 h 9 v 0.128 h 9 v 0.122 h 9 v 0.125 h 9 v 0.121 h 9 v 0.121 h 9 v 0.117 h 9 v 0.113 h 9 v 0.114 h 9 v 0.113 h 9 v 0.105 h 9 v 0.106 h 9 v 0.101 h 9 v 0.098 h 9 v 0.098 h 9 v 0.097 h 9 v 0.09 h 9 v 0.09 h 9 v 0.09 h 9 v 0.086 h 9 v 0.082 h 9 v 0.082 h 9 v 0.074 h 9 v 0.074 h 9 v 0.074 h 9 v 0.071 h 9 v 0.066 h 9 v 0.059 h 9 v 0.07 h 9 v 0.059 h 9 v 0.05 h 9 v 0.063 h 9 v 0.051 h 9 v 0.047 h 9 v 0.05 h 9 v 0.047 h 9 v 0.043 h 9 v 0.039 h 9 v 0.043 h 9 v 0.039 h 9 v 0.039 h 9 v 0.028 h 9 v 0.039 h 9 v 0.027 h 9 v 0.031 h 9 v 0.024 h 9 v 0.031 h 9 v 0.02 h 9 v 0.023 h 9 v 0.023 h 9 v 0.016 h 9 v 0.024 h 9 v 0.011 h 9 v 0.016 h 9 v 0.016 h 9 v 0.015 h 9 v 0.016 h 9 v 0.008 h 9 v 0.007 h 9 v 0.012 h 9 v 0.008 h 9 v 0.008 h 9 v 0.008 h 9 v 0 h 9 v 0.007 h 9 v 0.008 h 9 v 0 h 9 v 0 h 9 v 0.008 h 9 v 0 h 9 v 0 h 9 v 0 h 9 v 0 h 9 v 0 h 9 v -0.008 h 9 v 0 h 9 v 0 h 9 v 0 h 9 v -0.008 h 9 v 0 h 9 v -0.007 h 9 v 0 h 9 v -0.008 h 9 v 0 h 9 v -0.008 h 9 v -0.008 h 9 v 0 h 9 v -0.008 h 9 v -0.004 h 9 v 0 h 9 v -0.007 h 9 v -0.008 h 9 v -0.008 h 9 v 0 h 9 v -0.008 h 9 v -0.008 h 9 v -0.007 h 9 v -0.008 h 9 v 0 h 9 v -0.008 h 9 v -0.008 h 9 v -0.008 h 9 v 0 h 9 v -0.008 h 9 v -0.003 h 9 v -0.008 h 9 v 0 h 9 v -0.008 h 9 v -0.008 h 9 v -0.008 h 9 v 0 h 9 v -0.008 h 9 v -0.007 h 9 v 0 h 9 v -0.008 h 9 v -0.008 h 9 v 0 h 9 v -0.008 h 9 v 0 h 9 v -0.008 h 9 v -0.007 h 9 v 0 h 9 v -0.008 h 9 v 0 h 9 v -0.004 h 9 v 0 h 9 v -0.008 h 9 v 0 h 9 v -0.008 h 9 v 0 h 9 v -0.008 h 9 v 0 h 9 v 0 h 9 v -0.007 h 9 v 0 h 9 v 0 h 9 v -0.008 h 9 v 0 h 9 v 0 h 9 v -0.008 h 9 v 0 h 9 v 0 h 9 v 0 h 9 v -0.008 h 9 v 0 h 9 v 0" /><path
         id="path126"
         style="fill:none;stroke:#ff0000;stroke-width:15;stroke-linecap:butt;stroke-linejoin:miter;stroke-miterlimit:10;stroke-dasharray:none;stroke-opacity:1"
         d="m 1395,710.641 h 9 v 0 h 9 v 0 h 9 v 0 h 9 v 0 h 9 v 0 h 9 v 0 h 9 v 0 h 9 v 0 h 9 v 0 h 9 v 0 h 9 v 0 h 9 v 0 h 9 v 0 h 9 v 0 h 9 v 0 h 9 v 0 h 9 v 0 h 9 v 0 h 9 v 0 h 9 v 0 h 9 v 0 h 9 v 0 h 9 v 0 h 9 v 0 h 9 v 0 h 9 v 0 h 9 v 0 h 9 v 0 h 9 v 0 h 9 v 0 h 9 v 0 h 9 v 0 h 9 v 0 h 9 v 0 h 9 v 0 h 9 v 0 h 9 v 0 h 9 v 0 h 9 v 0 h 9 v 0 h 9 v 0 h 9 v 0 h 9 v 0 h 9 v 0 h 9 v 0 h 9 v 0 h 9 v 0 h 9 v 0 h 9 v 0 h 9 v 0 h 9 v 0 h 9 v 0 h 9 v 0 h 9 v 0 h 9 v 0 h 9 v 0 h 9 v 0 h 9 v 0 h 9 v 0 h 9 v 0 h 9 v 0 h 9 v 0 h 9 v 0 h 9 v 0 h 9 v 0 h 9 v 0 h 9 v 0 h 9 v 0 h 9 v 0 h 9 v 0 h 9 v 0 h 9 v 0 h 9 v 0 h 9 v 0 h 9 v 0 h 9 v 0 h 9 v 0 h 9 v 0 h 9 v 0 h 9 v 0 h 9 v 0 h 9 v 0 h 9 v 0 h 9 v 0 h 9 v 0 h 9 v 0 h 9 v 0 h 9 v 0 h 9 v 0 h 9 v 0 h 9 v 0 h 9 v 0 h 9 v 0 h 9 v 0 h 9 v 0 h 9 v 0 h 9 v 0 h 9 v 0 h 9 v 0 h 9 V 2037.62 h 9 v 0 h 9 v 0 h 9 v 0 h 9 v 0 h 9 v 0 h 9 v 0 h 9 v 0 h 9 v 0 h 9 v 0 h 9 v 0 h 9 v 0 h 9 v 0 h 9 v 0 h 9 v 0 h 9 v 0 h 9 v 0 h 9 v 0 h 9 v 0 h 9 v 0 h 9 v 0 h 9 v 0 h 9 v 0 h 9 v 0 h 9 v 0 h 9 v 0 h 9 v 0 h 9 v 0 h 9 v 0 h 9 v 0 h 9 v 0 h 9 v 0 h 9 v 0 h 9 v 0 h 9 v 0 h 9 v 0 h 9 v 0 h 9 v 0 h 9 v 0 h 9 v 0 h 9 v 0 h 9 v 0 h 9 v 0 h 9 v 0 h 9 v 0 h 9 v 0 h 9 v 0 h 9 v 0 h 9 v 0 h 9 v 0 h 9 v 0 h 9 v 0 h 9 v 0 h 9 v 0 h 9 v 0 h 9 v 0 h 9 v 0 h 9 v 0 h 9 v 0 h 9 v 0 h 9 v 0 h 9 v 0 h 9 v 0 h 9 v 0 h 9 v 0 h 9 v 0 h 9 v 0 h 9 v 0 h 9 v 0 h 9 v 0 h 9 v 0 h 9 v 0 h 9 v 0 h 9 v 0 h 9 v 0 h 9 v 0 h 9 v 0 h 9 v 0 h 9 v 0 h 9 v 0 h 9 v 0 h 9 v 0 h 9 v 0 h 9 v 0 h 9 v 0 h 9 v 0 h 9 v 0 h 9 v 0 h 9 v 0 h 9 v 0 h 9 v 0 h 9 v 0 h 9 v 0 h 9 v 0 h 9 v 0 h 9 v 0 h 9 v 0 h 9 v 0 h 9 v 0 h 9 v 0 h 9 v 0 h 9 v 0 h 9 v 0 h 9 v 0 h 9 v 0 h 9 v 0 h 9 v 0 h 9 v 0 h 9 v 0 h 9 v 0 h 9 v 0 h 9 v 0 h 9 v 0 h 9 v 0 h 9 v 0 h 9 v 0 h 9 v 0 h 9 v 0 h 9 v 0 h 9 v 0 h 9 v 0 h 9 v 0 h 9 v 0 h 9 v 0 h 9 v 0 h 9 v 0 h 9 v 0 h 9 v 0 h 9 v 0 h 9 v 0 h 9 v 0 h 9 v 0 h 9 v 0 h 9 v 0 h 9 v 0 h 9 v 0 h 9 v 0 h 9 v 0 h 9 v 0 h 9 v 0 h 9 v 0 h 9 v 0 h 9 v 0 h 9 v 0 h 9 v 0 h 9 v 0 h 9 v 0 h 9 v 0 h 9 v 0 h 9 v 0 h 9 v 0 h 9 v 0 h 9 v 0 h 9 v 0 h 9 v 0 h 9 v 0 h 9 v 0 h 9 v 0 h 9 v 0 h 9 v 0 h 9 v 0 h 9 v 0 h 9 v 0 h 9 v 0 h 9 v 0 h 9 v 0 h 9 v 0 h 9 v 0 h 9 v 0 h 9 v 0 h 9 v 0 h 9 v 0 h 9 v 0 h 9 v 0 h 9 v 0 h 9 v 0 h 9 v 0 h 9 v 0 h 9 v 0 h 9 v 0 h 9 v 0 h 9 v 0 h 9 v 0 h 9 v 0 h 9 v 0 h 9 v 0 h 9 v 0 h 9 v 0 h 9 v 0 h 9 v 0 h 9 v 0 h 9 v 0 h 9 v 0 h 9 v 0 h 9 v 0 h 9 v 0 h 9 v 0 h 9 v 0 h 9 v 0 h 9 v 0 h 9 v 1326.99 h 9 v 0 h 9 v 0 h 9 v 0 h 9 v 0 h 9 v 0 h 9 v 0 h 9 v 0 h 9 v 0 h 9 v 0 h 9 v 0 h 9 v 0 h 9 v 0 h 9 v 0 h 9 v 0 h 9 v 0 h 9 v 0 h 9 v 0 h 9 v 0 h 9 v 0 h 9 v 0 h 9 v 0 h 9 v 0 h 9 v 0 h 9 v 0 h 9 v 0 h 9 v 0 h 9 v 0 h 9 v 0 h 9 v 0 h 9 v 0 h 9 v 0 h 9 v 0 h 9 v 0 h 9 v 0 h 9 v 0 h 9 v 0 h 9 v 0 h 9 v 0 h 9 v 0 h 9 v 0 h 9 v 0 h 9 v 0 h 9 v 0 h 9 v 0 h 9 v 0 h 9 v 0 h 9 v 0 h 9 v 0 h 9 v 0 h 9 v 0 h 9 v 0 h 9 v 0 h 9 v 0 h 9 v 0 h 9 v 0 h 9 v 0 h 9 v 0 h 9 v 0 h 9 v 0 h 9 v 0 h 9 v 0 h 9 v 0 h 9 v 0 h 9 v 0 h 9 v 0 h 9 v 0 h 9 v 0 h 9 v 0 h 9 v 0 h 9 v 0 h 9 v 0 h 9 v 0 h 9 v 0 h 9 v 0 h 9 v 0 h 9 v 0 h 9 v 0 h 9 v 0 h 9 v 0 h 9 v 0 h 9 v 0 h 9 v 0 h 9 v 0 h 9 v 0 h 9 v 0 h 9 v 0 h 9 v 0 h 9 v 0 h 9 v 0 h 9 v 0 h 9 v 0 h 9 v 0 h 9 v 0 h 9 v 0 h 9 v 0 h 9 v 0 h 9 v 0 h 9 v 0 h 9 v 0 h 9 v 0 h 9 v 0 h 9 v 0 h 9 v 0 h 9 v 0 h 9 v 0 h 9 v 0 h 9 v 0 h 9 v 0 h 9 v 0 h 9 v 0 h 9 v 0 h 9 v 0 h 9 v 0 h 9 v 0 h 9 v 0 h 9 v 0 h 9 v 0 h 9 v 0 h 9 v 0 h 9 v 0 h 9 v 0 h 9 v 0 h 9 v 0 h 9 v 0 h 9 v 0 h 9 v 0 h 9 v 0 h 9 v 0 h 9 v 0 h 9 v 0 h 9 v 0 h 9 v 0 h 9 v 0 h 9 v 0 h 9 v 0 h 9 v 0 h 9 v 0 h 9 v 0 h 9 v 0 h 9 v 0 h 9 v 0 h 9 v 0 h 9 v 0 h 9 v 0 h 9 v 0 h 9 v 0 h 9 v 0 h 9 v 0 h 9 v 0 h 9 v 0 h 9 v 0 h 9 v 0 h 9 v 0 h 9 v 0 h 9 v 0 h 9 v 0 h 9 v 0 h 9 v 0 h 9 v 0 h 9 v 0 h 9 v 0 h 9 v 0 h 9 v 0 h 9 v 0 h 9 v 0 h 9 v 0 h 9 v 0 h 9 v 0 h 9 v 0 h 9 v 0 h 9 v 0 h 9 v 0 h 9 v 0 h 9 v 0 h 9 v 0 h 9 v 0 h 9 v 0 h 9 v 0 h 9 v 0 h 9 v 0 h 9 v 0 h 9 v 0 h 9 v 0 h 9 v 0 h 9 v 0 h 9 v 0 h 9 v 0 h 9 v 0 h 9 v 0 h 9 v 0 h 9 v 0 h 9 v 0 h 9 v 0 h 9 v 0 h 9 v 0 h 9 v 0 h 9 v 0 h 9 v 0 h 9 v 0 h 9 V 710.641 h 9 v 0 h 9 v 0 h 9 v 0 h 9 v 0 h 9 v 0 h 9 v 0 h 9 v 0 h 9 v 0 h 9 v 0 h 9 v 0 h 9 v 0 h 9 v 0 h 9 v 0 h 9 v 0 h 9 v 0 h 9 v 0 h 9 v 0 h 9 v 0 h 9 v 0 h 9 v 0 h 9 v 0 h 9 v 0 h 9 v 0 h 9 v 0 h 9 v 0 h 9 v 0 h 9 v 0 h 9 v 0 h 9 v 0 h 9 v 0 h 9 v 0 h 9 v 0 h 9 v 0 h 9 v 0 h 9 v 0 h 9 v 0 h 9 v 0 h 9 v 0 h 9 v 0 h 9 v 0 h 9 v 0 h 9 v 0 h 9 v 0 h 9 v 0 h 9 v 0 h 9 v 0 h 9 v 0 h 9 v 0 h 9 v 0 h 9 v 0 h 9 v 0 h 9 v 0 h 9 v 0 h 9 v 0 h 9 v 0 h 9 v 0 h 9 v 0 h 9 v 0 h 9 v 0 h 9 v 0 h 9 v 0 h 9 v 0 h 9 v 0 h 9 v 0 h 9 v 0 h 9 v 0 h 9 v 0 h 9 v 0 h 9 v 0 h 9 v 0 h 9 v 0 h 9 v 0 h 9 v 0 h 9 v 0 h 9 v 0 h 9 v 0 h 9 v 0 h 9 v 0 h 9 v 0 h 9 v 0 h 9 v 0 h 9 v 0 h 9 v 0 h 9 v 0 h 9 v 0 h 9 v 0 h 9 v 0 h 9 v 0 h 9 v 0 h 9 v 0 h 9 v 0 h 9 v 0 h 9 v 0 h 9 v 0 h 9 v 0 h 9 v 0 h 9 v 0 h 9 v 0 h 9 v 0 h 9 v 0 h 9 v 0 h 9 v 0 h 9 v 0 h 9 v 0 h 9 v 0 h 9 v 0 h 9 v 0 h 9 v 0 h 9 v 0 h 9 v 0 h 9 v 0 h 9 v 0 h 9 v 0 h 9 v 0 h 9 v 0 h 9 v 0 h 9 v 0 h 9 v 0 h 9 v 0 h 9 v 0 h 9 v 0 h 9 v 0 h 9 v 0 h 9 v 0 h 9 v 0 h 9 v 0 h 9 v 0 h 9 v 0 h 9 v 0 h 9 v 0 h 9 v 0 h 9 v 0 h 9 v 0 h 9 v 0 h 9 v 0 h 9 v 0 h 9 v 0 h 9 v 0 h 9 v 0 h 9 v 0 h 9 v 0 h 9 v 0 h 9 v 0 h 9 v 0 h 9 v 0 h 9 v 0 h 9 v 0 h 9 v 0 h 9 v 0 h 9 v 0 h 9 v 0 h 9 v 0 h 9 v 0 h 9 v 0 h 9 v 0 h 9 v 0 h 9 v 0 h 9 v 0 h 9 v 0 h 9 v 0 h 9 v 0 h 9 v 0 h 9 v 0 h 9 v 0 h 9 v 0 h 9 v 0 h 9 v 0 h 9 v 0 h 9 v 0 h 9 v 0 h 9 v 0 h 9 v 0 h 9 v 0 h 9 v 0 h 9 v 0 h 9 v 0 h 9 v 0 h 9 v 0 h 9 v 0 h 9 v 0 h 9 v 0 h 9 v 0 h 9 v 0 h 9 v 0 h 9 v 0 h 9 v 0 h 9 v 0 h 9 v 0 h 9 v 0 h 9 v 0 h 9 v 0 h 9 v 0 h 9 v 0 h 9 v 0 h 9 v 0 h 9 v 0 h 9 v 0 h 9 v 0 h 9 v 0 h 9 v 0 h 9 v 0 h 9 v 0 h 9 v 0 h 9 v 0 h 9 v 0 h 9 v 0 h 9 v 0 h 9 v 0 h 9 v 0 h 9 v 0 h 9 v 0 h 9 v 0 h 9 v 0 h 9 v 0 h 9 v 0 h 9 v 0 h 9 v 0 h 9 v 0 h 9 v 0 h 9 v 0 h 9 v 0 h 9 v 0 h 9 v 0 h 9 v 0 h 9 v 0 h 9 v 0 h 9 v 0 h 9 v 0 h 9 v 0 h 9 v 0 h 9 v 0 h 9 v 0 h 9 v 0 h 9 v 0 h 9 v 0 h 9 v 0 h 9 v 0 h 9 v 0 h 9 v 0 h 9 v 0 h 9 v 0 h 9 v 0 h 9 v 0 h 9 v 0 h 9 v 0 h 9 v 0 h 9 v 0 h 9 v 0 h 9 v 0 h 9 v 0 h 9 v 0 h 9 v 0 h 9 v 0 h 9 v 0 h 9 v 0 h 9 v 0 h 9 v 0 h 9 v 0 h 9 v 0 h 9 v 0 h 9 v 0 h 9 v 0 h 9 v 0 h 9 v 0 h 9 v 0 h 9 v 0 h 9 v 0 h 9 v 0 h 9 v 0 h 9 v 0 h 9 v 0 h 9 v 0 h 9 v 0 h 9 v 0 h 9 v 0 h 9 v 0 h 9 v 0 h 9 v 0 h 9 v 0 h 9 v 0 h 9 v 0 h 9 v 0 h 9 v 0 h 9 v 0 h 9 v 0 h 9 v 0 h 9 v 0 h 9 v 0 h 9 v 0 h 9 v 0 h 9 v 0 h 9 v 0 h 9 v 0 h 9 v 0 h 9 v 0 h 9 v 0 h 9 v 0 h 9 v 0 h 9 v 0 h 9 v 0" /><path
         id="path128"
         style="fill:none;stroke:#000000;stroke-width:15;stroke-linecap:butt;stroke-linejoin:round;stroke-miterlimit:10;stroke-dasharray:none;stroke-opacity:1"
         d="m 1395,710.641 h 27 l 9,-0.008 h 18 l 9,-0.008 h 9 l 9,-0.008 9,-0.008 h 9 l 9,-0.007 9,-0.008 h 9 l 9,-0.008 9,-0.008 9,-0.004 9,-0.008 9,-0.007 h 9 l 9,-0.008 9,-0.008 9,-0.008 9,-0.008 9,-0.007 9,-0.008 9,-0.008 9,-0.008 9,-0.008 9,-0.004 h 9 l 9,-0.007 9,-0.008 9,-0.008 9,-0.008 9,-0.008 9,-0.007 9,-0.008 h 9 l 9,-0.008 9,-0.008 9,-0.008 9,-0.008 h 9 l 9,-0.003 9,-0.008 9,-0.008 h 9 l 9,-0.008 9,-0.008 h 9 l 9,-0.008 9,-0.007 h 9 l 9,-0.008 h 9 l 9,-0.008 h 9 l 9,-0.008 h 9 l 9,-0.008 h 9 l 9,-0.007 h 9 l 9,-0.008 h 9 9 l 9,-0.004 h 9 9 l 9,-0.008 h 9 9 l 9,-0.008 h 9 9 9 l 9,-0.008 h 9 9 9 9 9 l 9,-0.007 h 9 9 9 9 9 9 9 l 9,-0.008 h 9 9 9 9 9 9 9 9 l 9,1.875 9,5.445 9,7.371 9,7.801 9,9.246 9,11.641 9,13.082 9,13.605 9,14.668 9,16.246 9,17.274 9,17.722 9,18.457 9,19.469 9,20.145 9,20.468 9,20.934 9,21.523 9,21.93 9,22.1 9,22.34 9,22.64 9,22.82 9,22.85 9,22.91 9,23 9,23 9,22.91 9,22.83 9,22.76 9,22.62 9,22.44 9,22.25 9,22.05 9,21.84 9,21.57 9,21.29 9,21.02 9,20.73 9,20.4 9,20.08 9,19.75 9,19.4 9,19.05 9,18.67 9,18.32 9,17.95 9,17.55 9,17.18 9,16.79 9,16.41 9,16.01 9,15.61 9,15.24 9,14.83 9,14.45 9,14.06 9,13.67 9,13.29 9,12.91 9,12.52 9,12.16 9,11.78 9,11.42 9,11.05 9,10.71 9,10.34 9,10 9,9.66 9,9.32 9,9 9,8.67 9,8.35 9,8.04 9,7.73 9,7.45 9,7.14 9,6.86 9,6.59 9,6.31 9,6.04 9,5.79 9,5.53 9,5.29 9,5.05 9,4.82 9,4.59 9,4.37 9,4.15 9,3.96 9,3.75 9,3.55 9,3.37 9,3.18 9,3.01 9,2.84 9,2.67 9,2.51 9,2.36 9,2.22 9,2.07 9,1.92 9,1.81 9,1.67 9,1.55 9,1.43 9,1.31 9,1.22 9,1.11 9,1.01 9,0.91 9,0.82 9,0.74 9,0.65 9,0.58 9,0.5 9,0.42 9,0.36 9,0.29 9,0.24 9,0.18 9,0.12 9,0.07 9,0.01 9,-0.02 9,-0.08 9,-0.11 9,-0.15 9,-0.19 9,-0.22 9,-0.25 9,-0.28 9,-0.31 9,-0.34 9,-0.35 9,-0.38 9,-0.4 9,-0.42 9,-0.44 9,-0.45 9,-0.45 9,-0.48 9,-0.48 9,-0.5 9,-0.5 9,-0.51 9,-0.51 9,-0.52 9,-0.53 9,-0.52 9,-0.53 9,-0.53 9,-0.52 9,-0.53 9,-0.53 9,-0.52 9,-0.53 9,-0.52 9,-0.52 9,-0.5 9,-0.52 9,-0.5 9,-0.49 9,-0.49 9,-0.49 9,-0.48 9,-0.46 9,-0.47 9,-0.46 9,-0.45 9,-0.44 9,-0.43 9,-0.42 9,-0.42 9,-0.41 9,-0.39 9,-0.4 9,-0.38 9,-0.37 9,-0.37 9,-0.36 9,-0.34 9,-0.34 9,-0.33 9,-0.33 9,-0.31 9,-0.31 9,-0.29 9,-0.29 9,-0.28 9,-0.27 9,-0.27 9,-0.26 9,-0.24 9,-0.24 9,-0.24 9,-0.21 9,-0.23 9,-0.2 9,-0.2 9,1.33 9,4.27 9,5.87 9,6.24 9,7.46 9,9.44 9,10.66 9,11.14 9,12.03 9,13.38 9,14.26 9,14.68 9,15.33 9,16.2 9,16.82 9,17.13 9,17.56 9,18.11 9,18.5 9,18.69 9,18.95 9,19.26 9,19.46 9,19.55 9,19.65 9,19.79 9,19.85 9,19.84 9,19.84 9,19.82 9,19.8 9,19.68 9,19.6 9,19.49 9,19.38 9,19.21 9,19.04 9,18.87 9,18.68 9,18.47 9,18.26 9,18.03 9,17.79 9,17.56 9,17.3 9,17.05 9,16.77 9,16.51 9,16.23 9,15.95 9,15.68 9,15.38 9,15.1 9,14.8 9,14.52 9,14.22 9,13.93 9,13.63 9,13.36 9,13.05 9,12.75 9,12.47 9,12.18 9,11.89 9,11.6 9,11.33 9,11.04 9,10.77 9,10.49 9,10.22 9,9.95 9,9.68 9,9.42 9,9.17 9,8.91 9,8.66 9,8.42 9,8.17 9,7.93 9,7.7 9,7.47 9,7.24 9,7.02 9,6.81 9,6.59 9,6.38 9,6.17 9,5.98 9,5.79 9,5.59 9,5.4 9,5.22 9,5.04 9,4.87 9,4.69 9,4.53 9,4.37 9,4.21 9,4.06 9,3.91 9,3.75 9,3.63 9,3.48 9,3.34 9,3.22 9,3.08 9,2.97 9,2.85 9,2.73 9,2.61 9,2.51 9,2.4 9,2.29 9,2.2 9,2.1 9,2.01 9,1.91 9,1.83 9,1.74 9,1.67 9,1.58 9,1.51 9,1.43 9,1.36 9,1.29 9,1.23 9,1.15 9,1.11 9,1.04 9,0.98 9,0.92 9,0.88 9,0.82 9,0.78 9,0.72 9,0.68 9,0.64 9,0.6 9,0.55 9,0.52 9,0.48 9,0.44 9,0.42 9,0.38 9,0.34 9,0.32 9,0.29 9,0.26 9,0.24 9,0.21 9,0.2 9,0.16 9,0.15 9,0.12 9,0.11 9,0.09 9,0.07 9,0.06 9,0.04 9,0.03 9,0.01 h 9 l 9,-0.01 9,-0.03 9,-0.03 9,-0.05 9,-0.05 9,-0.06 9,-0.08 9,-0.08 9,-0.09 9,-0.09 9,-0.09 9,-0.11 9,-0.11 9,-0.11 9,-0.12 9,-0.13 9,-0.13 9,-0.13 9,-0.13 9,-0.13 9,-0.14 9,-0.14 9,-0.15 9,-0.14 9,-0.14 9,-0.14 9,-0.15 9,-0.15 9,-0.14 9,-0.15 9,-0.15 9,-0.14 9,-0.15 9,-0.14 9,-0.15 9,-0.14 9,-0.15 9,-0.13 9,-2.97 9,-8.53 9,-11.65 9,-12.36 9,-14.85 9,-19.14 9,-21.79 9,-22.79 9,-24.85 9,-27.99 9,-30.11 9,-31.1 9,-32.7 9,-34.95 9,-36.53 9,-37.35 9,-38.52 9,-40.04 9,-41.14 9,-41.73 9,-42.48 9,-43.44 9,-44.1 9,-44.44 9,-44.83 9,-45.33 9,-45.62 9,-45.71 9,-45.79 9,-45.92 9,-45.93 9,-45.76 9,-45.6 9,-45.45 9,-45.19 9,-44.86 9,-44.47 9,-44.1 9,-43.66 9,-43.14 9,-42.62 9,-42.07 9,-41.49 9,-40.85 9,-40.2 9,-39.54 9,-38.85 9,-38.12 9,-37.4 9,-36.65 9,-35.89 9,-35.11 9,-34.33 9,-33.53 9,-32.74 9,-31.93 9,-31.12 9,-30.31 9,-29.5 9,-28.68 9,-27.87 9,-27.06 9,-26.25 9,-25.45 9,-24.66 9,-23.86 9,-23.08 9,-22.32 9,-21.54 9,-20.782 9,-20.039 9,-19.304 9,-18.578 9,-17.864 9,-17.16 9,-16.476 9,-15.805 9,-15.133 9,-14.492 9,-13.852 9,-13.238 9,-12.621 9,-12.039 9,-11.453 9,-10.887 9,-10.352 9,-9.804 9,-9.289 9,-8.793 9,-8.293 9,-7.817 9,-7.363 9,-6.914 9,-6.48 9,-6.063 9,-5.66 9,-5.274 9,-4.89 9,-4.539 9,-4.184 9,-3.847 9,-3.524 9,-3.219 9,-2.918 9,-2.64 9,-2.36 9,-2.101 9,-1.852 9,-1.613 9,-1.387 9,-1.172 9,-0.964 9,-0.774 9,-0.586 9,-0.414 9,-0.246 9,-0.082 9,0.059 9,0.195 9,0.332 9,0.449 9,0.57 9,0.668 9,0.77 9,0.871 9,0.953 9,1.028 9,1.101 9,1.172 9,1.23 9,1.289 9,1.336 9,1.379 9,1.426 9,1.453 9,1.485 9,1.515 9,1.539 9,1.551 9,1.57 9,1.575 9,1.589 9,1.59 9,1.598 9,1.59 9,1.59 9,1.582 9,1.574 9,1.566 9,1.547 9,1.539 9,1.52 9,1.5 9,1.488 9,1.461 9,1.434 9,1.418 9,1.394 9,1.363 9,1.344 9,1.313 9,1.281 9,1.262 9,1.222 9,1.199 9,1.168 9,1.141 9,1.109 9,1.082 9,1.051 9,1.02 9,0.988 9,0.953 9,0.93 9,0.898 9,0.871 9,0.84 9,0.813 9,0.777 9,0.75 9,0.727 9,0.699 9,0.668 9,0.644 9,0.618 9,0.582 9,0.562 9,0.543 9,0.516 9,0.488 9,0.473 9,0.441 9,0.422 9,0.402 9,0.375 9,0.36 9,0.339 9,0.321 9,0.301 9,0.285 9,0.261 9,0.25 9,0.231 9,0.211 9,0.203 9,0.18 9,0.172 9,0.156 9,0.144 9,0.125 9,0.121 9,0.106 9,0.098 9,0.082 9,0.074 9,0.07 9,0.051 9,0.047 9,0.035 9,0.031 9,0.024 9,0.011 9,0.008 h 9 l 9,-0.008 9,-0.004 9,-0.023 9,-0.023 9,-0.024 9,-0.027 9,-0.039 9,-0.039 9,-0.036 9,-0.046 9,-0.051 9,-0.055 9,-0.051 9,-0.054 9,-0.059 9,-0.059 9,-0.062 9,-0.066 9,-0.059 9,-0.066 9,-0.071 9,-0.066 9,-0.059 9,-0.078 9,-0.066 9,-0.067 9,-0.066 9,-0.07 9,-0.067 9,-0.066 9,-0.071 9,-0.066 9,-0.066 9,-0.059 9,-0.07 9,-0.067 9,-0.058 9,-0.063 9,-0.058 9,-0.067 9,-0.054 9,-0.059 9,-0.063 9,-0.05 9,-0.059 9,-0.055 9,-0.05 9,-0.047 9,-0.051 9,-0.055 9,-0.043 9,-0.047 9,-0.043 9,-0.046 9,-0.036 9,-0.046 9,-0.036 9,-0.039 9,-0.039 9,-0.035 9,-0.031 9,-0.039 9,-0.028 9,-0.031 9,-0.031 9,-0.027 9,-0.032 9,-0.023 9,-0.02 9,-0.023 9,-0.031 9,-0.016 9,-0.019 9,-0.024 9,-0.016 9,-0.023" /><path
         id="path130"
         style="fill:#ffffff;fill-opacity:1;fill-rule:nonzero;stroke:none"
         d="M 1492.5,2482.5 H 2070 V 3315 h -577.5 z" /><path
         id="path132"
         style="fill:#000000;fill-opacity:1;fill-rule:nonzero;stroke:none"
         d="m 1866.01,3083.5 c 3.04,-5.24 8.36,-7.86 15.94,-7.86 6.87,0 12.81,2.43 17.81,7.27 5,4.84 9.04,10.68 12.13,17.52 3.08,6.84 5.49,13.81 7.21,20.92 -6.41,-6.09 -13.4,-9.14 -20.98,-9.14 -5.71,0 -10.57,0.99 -14.6,2.99 -4.02,1.99 -7.14,4.96 -9.37,8.9 -2.23,3.95 -3.34,8.69 -3.34,14.24 0,4.76 0.63,9.64 1.88,14.64 1.25,5 3.02,10.56 5.33,16.65 2.3,6.09 4.32,11.41 6.03,15.94 1.88,5.31 2.82,9.69 2.82,13.12 0,4.3 -1.57,6.45 -4.69,6.45 -5.78,0 -10.53,-2.95 -14.24,-8.85 -3.71,-5.9 -6.46,-12.52 -8.26,-19.87 -0.23,-0.85 -0.82,-1.28 -1.76,-1.28 h -2.57 c -1.18,0 -1.77,0.66 -1.77,1.99 v 0.58 c 2.35,8.68 5.92,16.36 10.73,23.04 4.8,6.68 10.88,10.02 18.23,10.02 5.15,0 9.52,-1.7 13.12,-5.11 3.59,-3.39 5.38,-7.71 5.38,-12.95 0,-2.65 -0.58,-5.46 -1.75,-8.43 -0.71,-1.8 -2.19,-5.67 -4.46,-11.61 -2.26,-5.93 -3.98,-10.85 -5.15,-14.76 -1.17,-3.91 -2.15,-7.74 -2.93,-11.49 -0.78,-3.75 -1.17,-7.5 -1.17,-11.25 0,-4.84 1.01,-8.92 3.05,-12.24 2.02,-3.32 5.26,-4.98 9.72,-4.98 8.99,0 17.07,5.51 24.26,16.53 l 16.41,66.91 c 0.54,1.95 1.69,3.61 3.45,4.98 1.76,1.36 3.66,2.05 5.69,2.05 1.79,0 3.36,-0.57 4.69,-1.7 1.32,-1.13 1.98,-2.59 1.98,-4.39 0,-0.86 -0.07,-1.45 -0.23,-1.76 l -21.56,-86.49 c -1.96,-7.5 -5.47,-14.64 -10.55,-21.44 -5.08,-6.8 -11.21,-12.27 -18.39,-16.41 -7.19,-4.14 -14.69,-6.21 -22.5,-6.21 -3.75,0 -7.47,0.74 -11.14,2.23 -3.67,1.48 -6.64,3.67 -8.91,6.56 -2.26,2.89 -3.39,6.29 -3.39,10.19 0,3.91 1.17,7.32 3.51,10.26 2.34,2.93 5.43,4.39 9.26,4.39 2.35,0 4.32,-0.72 5.92,-2.17 1.6,-1.44 2.4,-3.34 2.4,-5.68 0,-3.35 -1.23,-6.26 -3.69,-8.73 -2.46,-2.46 -5.37,-3.69 -8.73,-3.69 -0.16,0.08 -0.29,0.12 -0.42,0.12 -0.11,0 -0.25,0 -0.4,0" /><path
         id="path134"
         style="fill:#000000;fill-opacity:1;fill-rule:nonzero;stroke:none"
         d="m 1987.23,3079.91 c -5,0 -9.38,1.31 -13.13,3.93 -3.75,2.62 -6.62,6.13 -8.61,10.54 -1.99,4.42 -2.99,9.08 -2.99,14.01 0,7.5 1.89,14.55 5.68,21.15 3.79,6.6 8.91,11.87 15.36,15.82 6.44,3.94 13.34,5.92 20.68,5.92 4.53,0 8.48,-1.17 11.83,-3.51 3.36,-2.35 5.05,-5.71 5.05,-10.08 0,-6.02 -2.4,-10.49 -7.21,-13.42 -4.81,-2.93 -10.24,-4.75 -16.29,-5.45 -6.06,-0.7 -12.76,-1.05 -20.1,-1.05 h -0.46 c -1.73,-6.25 -2.59,-11.61 -2.59,-16.06 0,-4.69 1.1,-8.81 3.29,-12.36 2.18,-3.56 5.46,-5.33 9.84,-5.33 6.25,0 12.26,1.44 18.05,4.33 5.78,2.89 10.47,6.88 14.06,11.95 0.31,0.32 0.74,0.47 1.29,0.47 0.47,0 0.97,-0.29 1.52,-0.88 0.55,-0.58 0.82,-1.15 0.82,-1.7 0,-0.39 -0.07,-0.7 -0.23,-0.94 -3.91,-5.39 -9.11,-9.62 -15.59,-12.71 -6.48,-3.08 -13.24,-4.63 -20.27,-4.63 z m -9.26,41.96 c 6.1,0 11.74,0.27 16.94,0.82 5.19,0.54 9.88,1.95 14.06,4.21 4.18,2.27 6.27,5.83 6.27,10.67 0,1.95 -0.53,3.65 -1.58,5.09 -1.06,1.45 -2.45,2.56 -4.17,3.34 -1.72,0.79 -3.51,1.18 -5.39,1.18 -4.45,0 -8.45,-1.21 -12.01,-3.64 -3.55,-2.41 -6.48,-5.56 -8.79,-9.43 -2.3,-3.87 -4.08,-7.95 -5.33,-12.24" /><path
         id="path136"
         style="fill:none;stroke:#0072bd;stroke-width:15;stroke-linecap:butt;stroke-linejoin:round;stroke-miterlimit:10;stroke-dasharray:none;stroke-opacity:1"
         d="m 1522.73,3167.47 h 302.32" /><path
         id="path138"
         style="fill:#000000;fill-opacity:1;fill-rule:nonzero;stroke:none"
         d="m 1864.48,2849.7 c 0,0.86 0.08,1.48 0.24,1.87 l 16.29,64.93 c 1.02,3.98 1.53,7.5 1.53,10.55 0,6.25 -2.12,9.37 -6.34,9.37 -4.53,0 -7.89,-2.71 -10.07,-8.14 -2.19,-5.43 -4.34,-12.29 -6.45,-20.57 0,-0.39 -0.2,-0.71 -0.58,-0.94 -0.39,-0.23 -0.79,-0.35 -1.18,-0.35 h -2.57 c -0.47,0 -0.89,0.26 -1.23,0.76 -0.36,0.51 -0.54,1 -0.54,1.46 1.57,6.25 3.07,11.59 4.52,16 1.44,4.41 3.71,8.42 6.79,12.02 3.09,3.59 6.93,5.39 11.55,5.39 5,0 9.39,-1.45 13.18,-4.34 3.79,-2.89 6.15,-6.72 7.09,-11.49 3.67,4.85 7.85,8.69 12.54,11.55 4.69,2.85 9.85,4.28 15.47,4.28 4.61,0 8.67,-1.35 12.19,-4.05 3.51,-2.7 5.27,-6.35 5.27,-10.95 0,-3.68 -1.15,-6.88 -3.46,-9.62 -2.3,-2.73 -5.37,-4.1 -9.2,-4.1 -2.34,0 -4.31,0.74 -5.92,2.23 -1.6,1.48 -2.4,3.4 -2.4,5.74 0,3.13 1.18,5.96 3.52,8.5 2.34,2.54 5.04,3.81 8.08,3.81 -2.34,1.87 -5.19,2.81 -8.55,2.81 -6.17,0 -11.56,-2.21 -16.17,-6.62 -4.61,-4.41 -8.75,-10.02 -12.42,-16.82 l -15.59,-62.22 c -0.47,-2.04 -1.56,-3.76 -3.28,-5.16 -1.72,-1.41 -3.67,-2.11 -5.86,-2.11 -1.72,0 -3.22,0.57 -4.52,1.7 -1.28,1.13 -1.93,2.63 -1.93,4.51" /><path
         id="path140"
         style="fill:none;stroke:#ff0000;stroke-width:15;stroke-linecap:butt;stroke-linejoin:round;stroke-miterlimit:10;stroke-dasharray:none;stroke-opacity:1"
         d="m 1522.73,2898.75 h 302.32" /><path
         id="path142"
         style="fill:#000000;fill-opacity:1;fill-rule:nonzero;stroke:none"
         d="m 1866.01,2546.06 c 3.04,-5.23 8.36,-7.85 15.94,-7.85 6.87,0 12.81,2.42 17.81,7.27 5,4.84 9.04,10.68 12.13,17.52 3.08,6.83 5.49,13.8 7.21,20.91 -6.41,-6.09 -13.4,-9.14 -20.98,-9.14 -5.71,0 -10.57,1 -14.6,2.99 -4.02,1.99 -7.14,4.96 -9.37,8.91 -2.23,3.94 -3.34,8.69 -3.34,14.23 0,4.77 0.63,9.65 1.88,14.65 1.25,5 3.02,10.55 5.33,16.64 2.3,6.1 4.32,11.41 6.03,15.94 1.88,5.32 2.82,9.69 2.82,13.12 0,4.3 -1.57,6.45 -4.69,6.45 -5.78,0 -10.53,-2.95 -14.24,-8.84 -3.71,-5.91 -6.46,-12.53 -8.26,-19.87 -0.23,-0.86 -0.82,-1.29 -1.76,-1.29 h -2.57 c -1.18,0 -1.77,0.67 -1.77,1.99 v 0.59 c 2.35,8.67 5.92,16.35 10.73,23.03 4.8,6.68 10.88,10.02 18.23,10.02 5.15,0 9.52,-1.7 13.12,-5.1 3.59,-3.4 5.38,-7.72 5.38,-12.95 0,-2.66 -0.58,-5.47 -1.75,-8.44 -0.71,-1.8 -2.19,-5.66 -4.46,-11.6 -2.26,-5.94 -3.98,-10.86 -5.15,-14.76 -1.17,-3.91 -2.15,-7.74 -2.93,-11.49 -0.78,-3.75 -1.17,-7.5 -1.17,-11.25 0,-4.84 1.01,-8.92 3.05,-12.24 2.02,-3.32 5.26,-4.98 9.72,-4.98 8.99,0 17.07,5.5 24.26,16.52 l 16.41,66.91 c 0.54,1.95 1.69,3.61 3.45,4.98 1.76,1.37 3.66,2.05 5.69,2.05 1.79,0 3.36,-0.56 4.69,-1.69 1.32,-1.14 1.98,-2.6 1.98,-4.4 0,-0.86 -0.07,-1.44 -0.23,-1.76 l -21.56,-86.48 c -1.96,-7.5 -5.47,-14.65 -10.55,-21.45 -5.08,-6.8 -11.21,-12.27 -18.39,-16.41 -7.19,-4.14 -14.69,-6.2 -22.5,-6.2 -3.75,0 -7.47,0.74 -11.14,2.22 -3.67,1.49 -6.64,3.67 -8.91,6.57 -2.26,2.89 -3.39,6.28 -3.39,10.19 0,3.9 1.17,7.32 3.51,10.25 2.34,2.93 5.43,4.39 9.26,4.39 2.35,0 4.32,-0.72 5.92,-2.16 1.6,-1.45 2.4,-3.34 2.4,-5.69 0,-3.35 -1.23,-6.26 -3.69,-8.73 -2.46,-2.46 -5.37,-3.69 -8.73,-3.69 -0.16,0.08 -0.29,0.12 -0.42,0.12 -0.11,0 -0.25,0 -0.4,0" /><path
         id="path144"
         style="fill:none;stroke:#000000;stroke-width:15;stroke-linecap:butt;stroke-linejoin:round;stroke-miterlimit:10;stroke-dasharray:none;stroke-opacity:1"
         d="m 1522.73,2630.03 h 302.32" /><path
         id="path146"
         style="fill:none;stroke:#262626;stroke-width:5.00250006;stroke-linecap:butt;stroke-linejoin:miter;stroke-miterlimit:10;stroke-dasharray:none;stroke-opacity:1"
         d="M 1492.5,2482.5 H 2070 V 3315 h -577.5 z" /></g></g></svg>