<?xml version="1.0" encoding="UTF-8" standalone="no"?>
<svg
   xmlns:dc="http://purl.org/dc/elements/1.1/"
   xmlns:cc="http://creativecommons.org/ns#"
   xmlns:rdf="http://www.w3.org/1999/02/22-rdf-syntax-ns#"
   xmlns:svg="http://www.w3.org/2000/svg"
   xmlns="http://www.w3.org/2000/svg"
   viewBox="0 0 1200 500"
   height="500"
   width="1200"
   xml:space="preserve"
   id="svg2"
   version="1.1"><metadata
     id="metadata8"><rdf:RDF><cc:Work
         rdf:about=""><dc:format>image/svg+xml</dc:format><dc:type
           rdf:resource="http://purl.org/dc/dcmitype/StillImage" /></cc:Work></rdf:RDF></metadata><defs
     id="defs6" /><g
     transform="matrix(1.3333333,0,0,-1.3333333,0,500)"
     id="g10"><g
       transform="scale(0.1)"
       id="g12"><path
         id="path14"
         style="fill:#ffffff;fill-opacity:1;fill-rule:nonzero;stroke:none"
         d="M 0,0 H 9000 V 3750 H 0 Z" /><path
         id="path16"
         style="fill:#ffffff;fill-opacity:1;fill-rule:nonzero;stroke:none"
         d="M 0,0 H 9000 V 3750 H 0 Z" /><path
         id="path18"
         style="fill:#ffffff;fill-opacity:1;fill-rule:nonzero;stroke:none"
         d="M 1395,600 H 8595 V 3412.5 H 1395 Z" /><path
         id="path20"
         style="fill:none;stroke:#262626;stroke-width:5.00250006;stroke-linecap:square;stroke-linejoin:round;stroke-miterlimit:10;stroke-dasharray:none;stroke-opacity:1"
         d="M 1395,600 H 8595" /><path
         id="path22"
         style="fill:none;stroke:#262626;stroke-width:5.00250006;stroke-linecap:square;stroke-linejoin:round;stroke-miterlimit:10;stroke-dasharray:none;stroke-opacity:1"
         d="M 1395,3412.5 H 8595" /><path
         id="path24"
         style="fill:none;stroke:#262626;stroke-width:5.00250006;stroke-linecap:square;stroke-linejoin:round;stroke-miterlimit:10;stroke-dasharray:none;stroke-opacity:1"
         d="m 1395,600 v 72" /><path
         id="path26"
         style="fill:none;stroke:#262626;stroke-width:5.00250006;stroke-linecap:square;stroke-linejoin:round;stroke-miterlimit:10;stroke-dasharray:none;stroke-opacity:1"
         d="m 2297.26,600 v 72" /><path
         id="path28"
         style="fill:none;stroke:#262626;stroke-width:5.00250006;stroke-linecap:square;stroke-linejoin:round;stroke-miterlimit:10;stroke-dasharray:none;stroke-opacity:1"
         d="m 3199.52,600 v 72" /><path
         id="path30"
         style="fill:none;stroke:#262626;stroke-width:5.00250006;stroke-linecap:square;stroke-linejoin:round;stroke-miterlimit:10;stroke-dasharray:none;stroke-opacity:1"
         d="m 4101.77,600 v 72" /><path
         id="path32"
         style="fill:none;stroke:#262626;stroke-width:5.00250006;stroke-linecap:square;stroke-linejoin:round;stroke-miterlimit:10;stroke-dasharray:none;stroke-opacity:1"
         d="m 5004.02,600 v 72" /><path
         id="path34"
         style="fill:none;stroke:#262626;stroke-width:5.00250006;stroke-linecap:square;stroke-linejoin:round;stroke-miterlimit:10;stroke-dasharray:none;stroke-opacity:1"
         d="m 5906.28,600 v 72" /><path
         id="path36"
         style="fill:none;stroke:#262626;stroke-width:5.00250006;stroke-linecap:square;stroke-linejoin:round;stroke-miterlimit:10;stroke-dasharray:none;stroke-opacity:1"
         d="m 6808.54,600 v 72" /><path
         id="path38"
         style="fill:none;stroke:#262626;stroke-width:5.00250006;stroke-linecap:square;stroke-linejoin:round;stroke-miterlimit:10;stroke-dasharray:none;stroke-opacity:1"
         d="m 7710.79,600 v 72" /><path
         id="path40"
         style="fill:none;stroke:#262626;stroke-width:5.00250006;stroke-linecap:square;stroke-linejoin:round;stroke-miterlimit:10;stroke-dasharray:none;stroke-opacity:1"
         d="m 1395,3412.5 v -72" /><path
         id="path42"
         style="fill:none;stroke:#262626;stroke-width:5.00250006;stroke-linecap:square;stroke-linejoin:round;stroke-miterlimit:10;stroke-dasharray:none;stroke-opacity:1"
         d="m 2297.26,3412.5 v -72" /><path
         id="path44"
         style="fill:none;stroke:#262626;stroke-width:5.00250006;stroke-linecap:square;stroke-linejoin:round;stroke-miterlimit:10;stroke-dasharray:none;stroke-opacity:1"
         d="m 3199.52,3412.5 v -72" /><path
         id="path46"
         style="fill:none;stroke:#262626;stroke-width:5.00250006;stroke-linecap:square;stroke-linejoin:round;stroke-miterlimit:10;stroke-dasharray:none;stroke-opacity:1"
         d="m 4101.77,3412.5 v -72" /><path
         id="path48"
         style="fill:none;stroke:#262626;stroke-width:5.00250006;stroke-linecap:square;stroke-linejoin:round;stroke-miterlimit:10;stroke-dasharray:none;stroke-opacity:1"
         d="m 5004.02,3412.5 v -72" /><path
         id="path50"
         style="fill:none;stroke:#262626;stroke-width:5.00250006;stroke-linecap:square;stroke-linejoin:round;stroke-miterlimit:10;stroke-dasharray:none;stroke-opacity:1"
         d="m 5906.28,3412.5 v -72" /><path
         id="path52"
         style="fill:none;stroke:#262626;stroke-width:5.00250006;stroke-linecap:square;stroke-linejoin:round;stroke-miterlimit:10;stroke-dasharray:none;stroke-opacity:1"
         d="m 6808.54,3412.5 v -72" /><path
         id="path54"
         style="fill:none;stroke:#262626;stroke-width:5.00250006;stroke-linecap:square;stroke-linejoin:round;stroke-miterlimit:10;stroke-dasharray:none;stroke-opacity:1"
         d="m 7710.79,3412.5 v -72" /><g
         transform="scale(10)"
         id="g56"><text
           id="text60"
           style="font-variant:normal;font-weight:normal;font-size:20.00020027px;font-family:Helvetica;-inkscape-font-specification:Helvetica;writing-mode:lr-tb;fill:#262626;fill-opacity:1;fill-rule:nonzero;stroke:none"
           transform="matrix(1,0,0,-1,133.5,33)"><tspan
             id="tspan58"
             y="0"
             x="0 90.225105 174.82574 185.94586 265.05084 276.17096 355.27637 366.39645 445.50146 456.62155 535.72693 546.84705 625.95209 637.07214">05101520253035</tspan></text>
<text
           id="text64"
           style="font-variant:normal;font-weight:normal;font-size:21.99970055px;font-family:Helvetica;-inkscape-font-specification:Helvetica;writing-mode:lr-tb;fill:#262626;fill-opacity:1;fill-rule:nonzero;stroke:none"
           transform="matrix(1,0,0,-1,449.625,5)"><tspan
             id="tspan62"
             y="0"
             x="0 13.441816 25.673651 43.999401 56.231232 68.463066 74.578979 81.904884 92.904732">Tempo (s)</tspan></text>
</g><path
         id="path66"
         style="fill:none;stroke:#262626;stroke-width:5.00250006;stroke-linecap:square;stroke-linejoin:round;stroke-miterlimit:10;stroke-dasharray:none;stroke-opacity:1"
         d="M 1395,600 V 3412.5" /><path
         id="path68"
         style="fill:none;stroke:#262626;stroke-width:5.00250006;stroke-linecap:square;stroke-linejoin:round;stroke-miterlimit:10;stroke-dasharray:none;stroke-opacity:1"
         d="M 8595,600 V 3412.5" /><path
         id="path70"
         style="fill:none;stroke:#262626;stroke-width:5.00250006;stroke-linecap:square;stroke-linejoin:round;stroke-miterlimit:10;stroke-dasharray:none;stroke-opacity:1"
         d="m 1395,985.832 h 72" /><path
         id="path72"
         style="fill:none;stroke:#262626;stroke-width:5.00250006;stroke-linecap:square;stroke-linejoin:round;stroke-miterlimit:10;stroke-dasharray:none;stroke-opacity:1"
         d="m 1395,1815.95 h 72" /><path
         id="path74"
         style="fill:none;stroke:#262626;stroke-width:5.00250006;stroke-linecap:square;stroke-linejoin:round;stroke-miterlimit:10;stroke-dasharray:none;stroke-opacity:1"
         d="m 1395,2646.05 h 72" /><path
         id="path76"
         style="fill:none;stroke:#262626;stroke-width:5.00250006;stroke-linecap:square;stroke-linejoin:round;stroke-miterlimit:10;stroke-dasharray:none;stroke-opacity:1"
         d="m 8595,985.832 h -72" /><path
         id="path78"
         style="fill:none;stroke:#262626;stroke-width:5.00250006;stroke-linecap:square;stroke-linejoin:round;stroke-miterlimit:10;stroke-dasharray:none;stroke-opacity:1"
         d="m 8595,1815.95 h -72" /><path
         id="path80"
         style="fill:none;stroke:#262626;stroke-width:5.00250006;stroke-linecap:square;stroke-linejoin:round;stroke-miterlimit:10;stroke-dasharray:none;stroke-opacity:1"
         d="m 8595,2646.05 h -72" /><g
         transform="scale(10)"
         id="g82"><text
           id="text90"
           style="font-variant:normal;font-weight:normal;font-size:20.00020027px;font-family:Helvetica;-inkscape-font-specification:Helvetica;writing-mode:lr-tb;fill:#262626;fill-opacity:1;fill-rule:nonzero;stroke:none"
           transform="matrix(1,0,0,-1,110.25,90.3328)"><tspan
             id="tspan84"
             y="0"
             x="0 11.120111">30</tspan><tspan
             id="tspan86"
             y="-83.011299"
             x="0 11.120111">35</tspan><tspan
             id="tspan88"
             y="-166.0226"
             x="0 11.120111">40</tspan></text>
<text
           id="text94"
           style="font-variant:normal;font-weight:normal;font-size:21.99970055px;font-family:Helvetica;-inkscape-font-specification:Helvetica;writing-mode:lr-tb;fill:#262626;fill-opacity:1;fill-rule:nonzero;stroke:none"
           transform="matrix(0,1,1,0,102,147.375)"><tspan
             id="tspan92"
             y="0"
             x="0 14.6738 19.557734 25.673651 37.905483 45.231384 57.463215 63.579132 70.905029 81.904884 100.23064">Altura (cm)</tspan></text>
</g><g
         transform="scale(10)"
         id="g96"><text
           id="text100"
           style="font-variant:normal;font-weight:bold;font-size:21.99970055px;font-family:Helvetica;-inkscape-font-specification:Helvetica-Bold;writing-mode:lr-tb;fill:#000000;fill-opacity:1;fill-rule:nonzero;stroke:none"
           transform="matrix(1,0,0,-1,305.25,350.625)"><tspan
             id="tspan98"
             y="0"
             x="0 15.883783 28.115616 40.34745 53.789265 67.231087 79.462914 86.788818 99.020653 105.13657 117.3684 130.81021 136.92613 150.36795 162.59978 176.0416 184.59949 196.83131 210.27313 216.38905 229.83087 243.27269 249.3886 268.94632 282.38815 295.82996 308.0618 314.1777 327.61954 333.73544 348.40924 364.29303 380.17682">Resposta ao degrau do modelo SUB1</tspan></text>
</g><path
         id="path102"
         style="fill:none;stroke:#0072bd;stroke-width:15;stroke-linecap:butt;stroke-linejoin:miter;stroke-miterlimit:10;stroke-dasharray:none;stroke-opacity:1"
         d="m 1395,647.566 h 9.02 v 219.997 h 9.03 v 352.887 h 9.02 V 836.797 h 9.02 v 253.043 h 9.02 v 261.73 h 9.03 V 906.699 h 9.02 V 1034 h 9.02 v 393.68 h 9.02 v -344.64 h 9.03 V 897.332 h 9.02 v 421.388 h 9.02 V 982.395 h 9.02 v 56.995 h 9.03 v 163.52 h 9.02 v 114.87 h 9.02 V 853.441 h 9.02 v 417.129 h 9.03 v 137.05 h 9.02 v -314.17 h 9.02 v 175.18 h 9.02 v -98.74 h 9.03 V 996.801 h 9.02 v 40.649 h 9.02 v 382.28 h 9.02 V 1186 h 9.03 V 833.371 h 9.02 V 1207.1 h 9.02 v 169.44 h 9.02 V 952.305 h 9.03 v 28.914 h 9.02 V 1022 h 9.02 v 138.24 h 9.02 v -97.44 h 9.03 V 619.359 h 9.02 v 305.789 h 9.02 v -71.796 h 9.02 v -18.586 h 9.03 v 222.814 h 9.02 V 810.637 h 9.02 v -58.703 h 9.02 v 121.359 h 9.03 V 1189 h 9.02 v -138.52 h 9.02 V 853.418 h 9.02 v -84.277 h 9.03 v 60.914 h 9.02 v 50.625 h 9.02 v -37.817 h 9.02 V 719.691 h 9.03 V 1238.2 h 9.02 V 966.457 h 9.02 v 45.783 h 9.02 v 13.41 h 9.02 v 1.83 h 9.03 V 919.223 h 9.02 V 772.492 h 9.02 V 922.02 h 9.02 V 809.871 h 9.03 v 28.606 h 9.02 v 12.543 h 9.02 v 99.468 h 9.02 v -73.965 h 9.03 v -6.171 h 9.02 v -87.907 h 9.02 v 71.422 h 9.02 v 221.113 h 9.04 V 694.777 h 9.02 v 342.043 h 9.02 v 30.84 h 9.02 V 724.035 h 9.03 v 49.067 h 9.02 v 123.41 h 9.02 v -39.688 h 9.02 v -31.668 h 9.03 v 12.699 h 9.02 v 332.485 h 9.02 V 955.043 h 9.02 v 77.557 h 9.03 v -5.26 h 9.02 v -5.38 h 9.02 V 703.656 h 9.02 v 100.973 h 9.03 v 421.781 h 9.02 v -158.47 h 9.02 V 626.863 h 9.02 V 1121 h 9.02 v -85.11 h 9.03 V 720.344 h 9.02 v 388.116 h 9.02 v -97.92 h 9.02 v -69.626 h 9.03 v 33.742 h 9.02 v 122.354 h 9.02 v 232.42 h 9.02 v -214.95 h 9.03 V 905.578 h 9.02 v -14.945 h 9.02 v 256.827 h 9.02 v -107.44 h 9.03 V 884.828 h 9.02 v 102.254 h 9.02 v 19.488 h 9.02 v 76.02 h 9.03 V 904.441 h 9.02 V 757.359 h 9.02 v 277.871 h 9.02 v 32.86 h 9.03 V 616.605 h 9.02 v 445.445 h 9.02 v 132.36 h 9.02 V 968.582 h 9.03 v 12.809 h 9.02 v -43.809 h 9.02 V 783.391 h 9.02 v -87.254 h 9.03 v 254.465 h 9.02 v -92.286 h 9.02 v -49.14 h 9.02 v 354.314 h 9.03 V 963.156 h 9.02 v -35.367 h 9.02 v -46.957 h 9.02 V 738.156 h 9.03 v 134.125 h 9.02 V 758.664 h 9.02 v 253.666 h 9.02 v 84.71 h 9.03 V 927.406 h 9.02 v 21.989 h 9.02 v 46.687 h 9.03 V 771.621 h 9.02 v 18.93 h 9.02 v 310.039 h 9.02 V 821.031 h 9.03 v -81.117 h 9.02 v 456.526 h 9.02 V 1087 h 9.02 V 633.414 h 9.03 v 157.02 h 9.02 v 455.496 h 9.02 V 748.711 h 9.02 v -27.578 h 9.03 V 1111.3 h 9.02 V 838.672 h 9.02 V 735.773 h 9.02 v 349.097 h 9.03 v -32.78 h 9.02 V 712.273 h 9.02 v 175.321 h 9.02 v -59.535 h 9.03 V 955.77 h 9.02 V 774.391 h 9.02 v 55.898 h 9.02 v 140.082 h 9.03 v 125.859 h 9.02 V 724.605 h 9.02 v 39.375 h 9.02 v 242.4 h 9.03 V 787.996 h 9.02 v 27.863 h 9.02 v 151.957 h 9.02 v -83.078 h 9.03 V 755.656 h 9.02 v 96.203 h 9.02 v 12.555 h 9.02 v -27.961 h 9.03 v -1.449 h 9.02 V 731.836 h 9.02 v 71.828 h 9.02 v 117.832 h 9.03 V 717.691 h 9.02 v 62.368 h 9.02 V 926.82 h 9.02 v -92.558 h 9.03 v -17.348 h 9.02 v -83.34 h 9.02 v 185.453 h 9.02 V 738 h 9.03 v 152.078 h 9.02 v -40.59 h 9.02 v -23.777 h 9.02 v -96.816 h 9.03 v 188.136 h 9.02 v -66.945 h 9.02 V 707.813 h 9.02 v 93.449 h 9.02 v 126.789 h 9.03 v -99.504 h 9.02 v 206.293 h 9.02 V 704.121 h 9.02 v 449.839 h 9.03 v -53.18 h 9.02 V 752.145 h 9.02 v 288.435 h 9.02 v 400.18 h 9.03 V 899.039 h 9.02 v 5.461 h 9.02 v 390.65 h 9.02 v 37.46 h 9.04 V 793.648 h 9.02 v 498.362 h 9.02 v 50.4 h 9.02 V 863.43 h 9.03 v 319.64 h 9.02 v 408.48 h 9.02 v -142.14 h 9.02 v 318.08 h 9.03 v 484.34 h 9.02 v -462.8 h 9.02 v -77.51 h 9.02 v 773.16 h 9.03 v -66.62 h 9.02 v -227.98 h 9.02 v 343.89 h 9.02 v -49.86 h 9.03 v -312.33 h 9.02 v 550.9 h 9.02 v 427.86 h 9.02 V 2173.2 h 9.02 V 2642 h 9.03 v 694.37 h 9.02 v -776.61 h 9.02 v 108.54 h 9.02 v 499.9 h 9.03 v -67.09 h 9.02 v -713.63 h 9.02 v 599.43 h 9.02 v 408.98 h 9.03 V 2654.1 h 9.02 v -206.11 h 9.02 v 670.88 h 9.02 v -140.34 h 9.03 v -506.95 h 9.02 v 277.72 h 9.02 v 271.27 h 9.02 V 2673.5 h 9.03 v -499.09 h 9.02 v 434.32 h 9.02 v 236.84 h 9.02 v -333.78 h 9.03 V 2254.3 h 9.02 v 339.79 h 9.02 v 34.01 h 9.02 v -273.69 h 9.03 v -42.55 h 9.02 V 2602 h 9.02 v -264.77 h 9.02 v 265.93 h 9.03 v -94.66 h 9.02 v 36.61 h 9.02 v -16.42 h 9.02 v 1.57 h 9.03 v -66.98 h 9.02 v -174.3 h 9.02 v 368.64 h 9.02 v -66.66 h 9.03 v -107.93 h 9.02 v 38.1 h 9.02 v 27.16 h 9.02 v -11.99 h 9.03 v 206.66 h 9.02 v 275.06 h 9.02 v 43.46 h 9.03 v -334.89 h 9.02 v -262.22 h 9.02 v 394.42 h 9.02 v -329.55 h 9.03 v -203.19 h 9.02 v 9.47 h 9.02 v 358.78 h 9.02 v 94.97 h 9.03 v -240.41 h 9.02 v 33.73 h 9.02 v 65.58 h 9.02 v -13.36 h 9.03 v -157.8 h 9.02 v 167.69 h 9.02 v 247.47 h 9.02 V 2469.2 h 9.03 v -89.5 h 9.02 v 217.57 h 9.02 v 189.52 h 9.02 v -197.78 h 9.03 v -7.29 h 9.02 v 194.94 h 9.02 v 44.38 h 9.02 v 85.62 h 9.03 v 335.81 h 9.02 v -403.08 h 9.02 v -115.76 h 9.02 v 344.87 h 9.03 v 93.34 h 9.02 v -382.43 h 9.02 v 10.82 h 9.02 v 281.09 h 9.03 v -53.96 h 9.02 v -219.79 h 9.02 v -15.54 h 9.02 v 375.95 h 9.03 v -128.3 h 9.02 v -284.82 h 9.02 v 241.17 h 9.02 v -3.71 h 9.03 v -121.75 h 9.02 v -82.38 h 9.02 v 234.67 h 9.02 v -218.7 h 9.03 v -87.7 h 9.02 v -9.6 h 9.02 v 216.34 h 9.02 v -44.68 h 9.03 v -10.5 h 9.02 v -80.48 h 9.02 v -9.68 h 9.02 v 184.55 h 9.03 v -162.77 h 9.02 v -182.87 h 9.02 v 232.68 h 9.02 v 97.89 h 9.02 v -73.75 h 9.03 v -39.87 h 9.02 v -98.78 h 9.02 v 161.48 h 9.02 v 24.1 h 9.03 v -75.43 h 9.02 v 8.77 h 9.02 v -178.61 h 9.02 v 258.89 h 9.03 v -9.58 h 9.02 v -156.47 h 9.02 v 128.21 h 9.02 v -13.64 h 9.04 v -223.93 h 9.02 v 68.22 h 9.02 v 200.86 h 9.02 v 9.9 h 9.03 V 2814.4 h 9.02 v -106.81 h 9.02 v 313.5 h 9.02 v -126.2 h 9.03 v -114.3 h 9.02 v 82.05 h 9.02 v 145.7 h 9.02 v -173.02 h 9.03 v -36.4 h 9.02 v 273.35 h 9.02 V 3004 h 9.02 v -336.72 h 9.03 V 2870 h 9.02 v 40.79 h 9.02 v -259.24 h 9.02 v 55.18 h 9.02 v 76.76 h 9.03 v 35.31 h 9.02 v -837.78 h 9.02 v 433.92 h 9.02 v 564.88 h 9.03 v -358.09 h 9.02 v -539.11 h 9.02 v 250.02 h 9.02 v 376.46 h 9.03 v -321.9 h 9.02 v 139.93 h 9.02 v -16.38 h 9.02 v 268.4 h 9.03 V 2315.9 h 9.02 v -54.46 h 9.02 v 219.58 h 9.02 v 112.68 h 9.03 v -453.22 h 9.02 v 41.91 h 9.02 v 395.77 h 9.02 v -196.62 h 9.03 v 12.58 h 9.02 v 11.01 h 9.02 v -68.52 h 9.02 v 46.31 h 9.03 v -146.91 h 9.02 v 236.66 h 9.02 v -11.68 h 9.02 v -86.71 h 9.03 v 242.03 h 9.02 v -48.54 h 9.02 v -72.4 h 9.02 v 31 h 9.03 v 231.25 h 9.02 v -147.98 h 9.02 v -92.09 h 9.02 v -198.14 h 9.03 v 48.09 h 9.02 v 387.2 h 9.02 v -162.54 h 9.02 v -95 h 9.03 v -300.82 h 9.02 V 2603 h 9.02 v 60.69 h 9.03 v -326.26 h 9.02 v 39.19 h 9.02 v 34.53 h 9.02 v 18.14 h 9.03 v -21.76 h 9.02 v 216.22 h 9.02 v -65.22 h 9.02 v -64.45 h 9.03 v 34.85 h 9.02 v 15.85 h 9.02 v -10.3 h 9.02 v -296.25 h 9.03 v 193.42 h 9.02 v 245.4 h 9.02 v -128.41 h 9.02 v -67.98 h 9.03 v 194.49 h 9.02 v 62.96 h 9.02 v -400.5 h 9.02 v 51.66 h 9.03 v 437.86 h 9.02 v -95.02 h 9.02 v -364.75 h 9.02 v 267.52 h 9.03 v 10 h 9.02 v 281.14 h 9.02 v -154.79 h 9.02 v -190.74 h 9.03 v 9.35 h 9.02 v 112.54 h 9.02 v -31.14 h 9.02 v -29.68 h 9.03 v 10.25 h 9.02 v 7.13 h 9.02 v -73.04 h 9.02 v -97.64 h 9.03 v 27.05 h 9.02 v 45.17 h 9.02 v -22.23 h 9.02 v -11.54 h 9.03 v 6.63 h 9.02 v 2.58 h 9.02 v -1.96 h 9.02 v -0.53 h 9.03 v 0.55 h 9.02 v 142.73 h 9.02 v -22.53 h 9.02 v -57.55 h 9.03 v 91.48 h 9.02 v -313.32 h 9.02 v 171.42 h 9.02 v 33.29 h 9.03 v -51.73 h 9.02 v -77.68 h 9.02 v 275.95 h 9.02 v -62.99 h 9.02 v 126.43 h 9.03 v 168.72 h 9.02 v -304.81 h 9.02 v 26.3 h 9.02 v 304.53 h 9.03 v -288.87 h 9.02 v -230.01 h 9.02 v 441.68 h 9.02 v -196.63 h 9.03 v -317.64 h 9.02 v 642.55 h 9.02 v -239.64 h 9.02 v -374.22 h 9.04 v 323.22 h 9.02 v 135.93 h 9.02 v -585.95 h 9.02 v 407.9 h 9.03 v 197.19 h 9.02 V 2533 h 9.02 v 83.51 h 9.02 v 348.88 h 9.03 v -411.1 h 9.02 v -188.27 h 9.02 v 609.79 h 9.02 v -305.05 h 9.03 v -776.43 h 9.02 v 1058.5 h 9.02 v -123.62 h 9.02 v -721.62 h 9.03 v 430.47 h 9.02 v 206.52 h 9.02 v -352.07 h 9.02 v 288.69 h 9.02 v 71.08 h 9.03 v -563.29 h 9.02 v 507.78 h 9.02 v 280.5 h 9.02 v -682.01 h 9.03 v 82.66 h 9.02 v 430.71 h 9.02 v -272.25 h 9.02 v -391.23 h 9.03 v 597.17 h 9.02 v 193.11 h 9.02 v -341.28 h 9.02 v 93.51 h 9.03 v 49.4 h 9.02 v -18.64 h 9.02 v -218.39 h 9.02 v 348.43 h 9.03 v -47.42 h 9.02 v -378.63 h 9.02 v 211.15 h 9.02 v 48.94 h 9.03 v -276.31 h 9.02 v 57.54 h 9.02 v 81.98 h 9.02 v -33.99 h 9.03 v -20.57 h 9.02 v 82.65 h 9.02 v -485.4 h 9.02 v 354.61 h 9.03 v 222.82 h 9.02 V 2283.5 h 9.02 v 9.8 h 9.02 v 349.64 h 9.03 v -241.99 h 9.02 V 2323 h 9.02 v 105.75 h 9.02 v 295.01 h 9.03 v -292.01 h 9.02 v -196.28 h 9.02 v 361.14 h 9.02 v -17.16 h 9.03 v -119.79 h 9.02 v 239.75 h 9.02 v -396.27 h 9.03 v 12.95 h 9.02 v 153.46 H 6195 V 2356.4 h 9.02 v 83.14 h 9.03 v 118.1 h 9.02 v -33.97 h 9.02 v -420.9 h 9.02 v 416.21 h 9.03 v 166.06 h 9.02 v -380.98 h 9.02 v -124.78 h 9.02 v 666.38 h 9.03 v -303.51 h 9.02 v -390.77 h 9.02 v 431.64 h 9.02 v 235.59 h 9.03 V 2536.7 h 9.02 v -143.94 h 9.02 v 314.48 h 9.02 v -15.65 h 9.03 v -318.61 h 9.02 v 161.71 h 9.02 v -27.16 h 9.02 v 70.15 h 9.03 v 233.09 h 9.02 v -190.11 h 9.02 v -8.77 h 9.02 v -14.69 h 9.03 v 113.86 h 9.02 v -54.15 h 9.02 v -17.77 h 9.02 v 16.55 h 9.03 v 3.59 h 9.02 v 201.17 h 9.02 v 66.19 h 9.02 v -80.41 h 9.03 V 2627.6 h 9.02 v 363.15 h 9.02 v -443.61 h 9.02 v 221.43 h 9.03 v 86.93 h 9.02 v -99.2 h 9.02 v 127.01 h 9.02 v -125.18 h 9.03 v -35 h 9.02 v 67.24 h 9.02 v -5.42 h 9.02 v -153.92 h 9.03 v 293.15 h 9.02 v 16.37 h 9.02 v -195.51 h 9.02 v -64.79 h 9.03 v 259.91 h 9.02 v -298.11 h 9.02 v -121.06 h 9.02 v 521.41 h 9.02 v -503.76 h 9.03 v 28.61 h 9.02 v 545.73 h 9.02 v -361.1 h 9.02 V 2454.5 h 9.03 v 407.13 h 9.02 v -66.75 h 9.02 v -364.1 h 9.02 v 204.93 h 9.03 v 183.5 h 9.02 V 2315.4 h 9.02 v 281.37 h 9.02 v 443.01 h 9.04 v -275.26 h 9.02 v -214.9 h 9.02 v 249.97 h 9.02 v 50.12 h 9.03 v -236.99 h 9.02 v 227.59 h 9.02 v -533.68 h 9.02 v 416.2 h 9.03 v 35.46 h 9.02 V 2617.6 h 9.02 v 217.42 h 9.02 v -28.76 h 9.03 v -202.04 h 9.02 v 43.97 h 9.02 v 3.69 h 9.02 v -52.84 h 9.03 v -37.72 h 9.02 v -95.71 h 9.02 v 301.74 h 9.02 v 67.58 h 9.02 v -246.68 h 9.03 v 1.36 h 9.02 v 99.18 h 9.02 v -17.63 h 9.02 v -26.09 h 9.03 v -63.28 h 9.02 v 259.42 h 9.02 v -200.06 h 9.02 v -267.83 h 9.03 v 369.36 h 9.02 v -6.37 h 9.02 v -333.82 h 9.02 v -57.74 h 9.03 v 548.6 h 9.02 v -476.67 h 9.02 v 57.41 h 9.02 v 25.88 h 9.03 v 94.35 h 9.02 v -65.55 h 9.02 v -83.7 h 9.02 v 138.35 h 9.03 v -39.28 h 9.02 v -97.3 h 9.02 v 60.13 h 9.02 v 226.6 h 9.03 v -300.16 h 9.02 v -145.5 h 9.02 v 561.4 h 9.02 v 238.07 h 9.03 v -738.09 h 9.02 v 45.69 h 9.02 v 555.86 h 9.02 v -316.41 h 9.03 v -261.02 h 9.02 v 568.12 h 9.02 V 2806.7 h 9.02 v -341.77 h 9.03 v 262.5 h 9.02 v 209.2 h 9.02 v -609.57 h 9.02 v 113.39 h 9.03 v 465.52 h 9.02 v -679.99 h 9.02 v 61.23 h 9.03 v 712.8 h 9.02 V 2543.77 H 7395 V 2133.2 h 9.02 v 858.26 h 9.03 v -362.19 h 9.02 v -311.19 h 9.02 v 381.41 h 9.02 v 83.44 h 9.03 v -599.84 h 9.02 v 506.09 h 9.02 v 290.23 h 9.02 v -611.28 h 9.03 v 177.76 h 9.02 v 394.67 h 9.02 v -517.79 h 9.02 v -156.91 h 9.03 v 914.88 h 9.02 v -37.08 h 9.02 v -851.83 h 9.02 v 402.21 h 9.03 v 208.14 h 9.02 v -513.05 h 9.02 v -97.18 h 9.02 v 551.19 h 9.03 v -366.86 h 9.02 v -74.87 h 9.02 v 689.61 h 9.02 v 30.73 h 9.03 v -735.69 h 9.02 v 199.12 h 9.02 v 280.75 h 9.02 v -274.19 h 9.03 v -395.95 h 9.02 v 688.94 h 9.02 v 198.18 h 9.02 v -325.27 h 9.03 v -73.57 h 9.02 v 471.32 h 9.02 v -339.57 h 9.02 v -314.21 h 9.03 v 85.72 h 9.02 v -61.46 h 9.02 v -72.85 h 9.02 v 72.78 h 9.03 v 206.17 h 9.02 v -90.31 h 9.02 v -345.09 h 9.02 v 298.57 h 9.03 v -227.93 h 9.02 v -79.44 h 9.02 v 47.82 h 9.02 v 113.56 h 9.03 v -2.33 h 9.02 v -139.03 h 9.02 v 139.87 h 9.02 v 122.17 h 9.02 v -269.8 h 9.03 v 18.66 h 9.02 v 318.1 h 9.02 v -95.74 h 9.02 v -461.49 h 9.03 v 209.9 h 9.02 v 476.4 h 9.03 v -249.01 h 9.01 v -174.06 h 9.04 v -11.88 h 9.02 v 344.54 h 9.01 V 2432.3 h 9.02 v -301.87 h 9.03 v 251.61 h 9.03 v 318.67 h 9.02 v -266.32 h 9.02 v -323.18 h 9.03 v 117.42 h 9.01 v 278.62 h 9.03 v -14.4 h 9.02 v -141.46 h 9.03 v 36.42 h 9.02 v 257.73 h 9.02 v -83.4 h 9.02 v -292.75 h 9.03 v -118.1 h 9.02 v 307.77 h 9.02 v 71.56 h 9.02 v -167.83 h 9.03 v 14.28 h 9.02 v 193.36 h 9.02 v 42.13 h 9.02 v -336.79 h 9.02 v 87.16 h 9.03 v 98.44 h 9.02 v -43.19 h 9.02 v -24.29 h 9.02 v 160.82 h 9.03 v 54.55 h 9.02 V 2280.2 h 9.03 v 83.29 h 9.01 v 244.36 h 9.03 v 7.02 h 9.02 v -498.08 h 9.02 v 116.68 h 9.02 v 315.31 h 9.03 v -92.17 h 9.02 v -102.2 h 9.02 v 264.52 h 9.02 v -46.07 h 9.03 v -150.79 h 9.02 v -142.8 h 9.02 v 169.32 h 9.02 v -5.25 h 9.03 v 172.88 h 9.02 v -66.65 h 9.02 v -52.84 h 9.03 v -37.85 h 9.02 v -13.1 h 9.02 v 331.13 h 9.02 v -268.68 h 9.02 v -61.02 h 9.03 v 324.37 h 9.02 v -70.97 h 9.02 v -376.2 h 9.02 v 149.64 h 9.03 v 308.41 h 9.02 V 2511.6 h 9.02 v -137.23 h 9.02 v 158.22 h 9.03 v 76.91 h 9.02 v -91.39 h 9.02 v -76.39 h 9.03 v -0.33 h 9.02 v -95.01 h 9.02 v 301.98 h 9.02 v -218.17 h 9.03 v 78.49 h 9.02 v 75.29 h 9.02 v -131.09" /><path
         id="path104"
         style="fill:none;stroke:#d95319;stroke-width:15;stroke-linecap:butt;stroke-linejoin:miter;stroke-miterlimit:10;stroke-dasharray:none;stroke-opacity:1"
         d="m 1395,985.832 h 9.02 v 0 h 9.03 v 0 h 9.02 v 0 h 9.02 v 0 h 9.02 v 0 h 9.03 v 0 h 9.02 v 0 h 9.02 v 0 h 9.02 v 0 h 9.03 v 0 h 9.02 v 0 h 9.02 v 0 h 9.02 v 0 h 9.03 v 0 h 9.02 v 0 h 9.02 v 0 h 9.02 v 0 h 9.03 v 0 h 9.02 v 0 h 9.02 v 0 h 9.02 v 0 h 9.03 v 0 h 9.02 v 0 h 9.02 v 0 h 9.02 v 0 h 9.03 v 0 h 9.02 v 0 h 9.02 v 0 h 9.02 v 0 h 9.03 v 0 h 9.02 v 0 h 9.02 v 0 h 9.02 v 0 h 9.03 v 0 h 9.02 v 0 h 9.02 v 0 h 9.02 v 0 h 9.03 v 0 h 9.02 v 0 h 9.02 v 0 h 9.02 v 0 h 9.03 v 0 h 9.02 v 0 h 9.02 v 0 h 9.02 v 0 h 9.03 v 0 h 9.02 v 0 h 9.02 v 0 h 9.02 v 0 h 9.03 v 0 h 9.02 v 0 h 9.02 v 0 h 9.02 v 0 h 9.02 v 0 h 9.03 v 0 h 9.02 v 0 h 9.02 v 0 h 9.02 v 0 h 9.03 v 0 h 9.02 v 0 h 9.02 v 0 h 9.02 v 0 h 9.03 v 0 h 9.02 v 0 h 9.02 v 0 h 9.02 v 0 h 9.04 v 0 h 9.02 v 0 h 9.02 v 0 h 9.02 v 0 h 9.03 v 0 h 9.02 v 0 h 9.02 v 0 h 9.02 v 0 h 9.03 v 0 h 9.02 v 0 h 9.02 v 0 h 9.02 v 0 h 9.03 v 0 h 9.02 v 0 h 9.02 v 0 h 9.02 v 0 h 9.03 v 0 h 9.02 v 0 h 9.02 v 0 h 9.02 v 0 h 9.02 v 0 h 9.03 v 0 h 9.02 v 0 h 9.02 v 0 h 9.02 v 0 h 9.03 v 0 h 9.02 v 0 h 9.02 v 0 h 9.02 v 0 h 9.03 v 0 h 9.02 v 0 h 9.02 v 0 h 9.02 v 0 h 9.03 v 0 h 9.02 v 0 h 9.02 v 0 h 9.02 v 0 h 9.03 v 0 h 9.02 v 0 h 9.02 v 0 h 9.02 v 0 h 9.03 v 0 h 9.02 v 0 h 9.02 v 0 h 9.02 v 0 h 9.03 v 0 h 9.02 v 0 h 9.02 v 0 h 9.02 v 0 h 9.03 v 0 h 9.02 v 0 h 9.02 v 0 h 9.02 v 0 h 9.03 v 0 h 9.02 v 0 h 9.02 v 0 h 9.02 v 0 h 9.03 v 0 h 9.02 v 0 h 9.02 v 0 h 9.02 v 0 h 9.03 v 0 h 9.02 v 0 h 9.02 v 0 h 9.03 v 0 h 9.02 v 0 h 9.02 v 0 h 9.02 v 0 h 9.03 v 0 h 9.02 v 0 h 9.02 v 0 h 9.02 v 0 h 9.03 v 0 h 9.02 v 0 h 9.02 v 0 h 9.02 v 0 h 9.03 v 0 h 9.02 v 0 h 9.02 v 0 h 9.02 v 0 h 9.03 v 0 h 9.02 v 0 h 9.02 v 0 h 9.02 v 0 h 9.03 v 0 h 9.02 v 0 h 9.02 v 0 h 9.02 v 0 h 9.03 v 0 h 9.02 v 0 h 9.02 v 0 h 9.02 v 0 h 9.03 v 0 h 9.02 v 0 h 9.02 v 0 h 9.02 v 0 h 9.03 v 0 h 9.02 v 0 h 9.02 v 0 h 9.02 v 0 h 9.03 v 0 h 9.02 v 0 h 9.02 v 0 h 9.02 v 0 h 9.03 v 0 h 9.02 v 0 h 9.02 v 0 h 9.02 v 0 h 9.03 v 0 h 9.02 v 0 h 9.02 v 0 h 9.02 v 0 h 9.03 v 0 h 9.02 v 0 h 9.02 v 0 h 9.02 v 0 h 9.03 v 0 h 9.02 v 0 h 9.02 v 0 h 9.02 v 0 h 9.02 v 0 h 9.03 v 0 h 9.02 v 0 h 9.02 v 0 h 9.02 v 0 h 9.03 v 0 h 9.02 v 0 h 9.02 v 0 h 9.02 v 0 h 9.03 v 0 h 9.02 v 0 h 9.02 v 0 h 9.02 V 2646.05 h 9.04 v 0 h 9.02 v 0 h 9.02 v 0 h 9.02 v 0 h 9.03 v 0 h 9.02 v 0 h 9.02 v 0 h 9.02 v 0 h 9.03 v 0 h 9.02 v 0 h 9.02 v 0 h 9.02 v 0 h 9.03 v 0 h 9.02 v 0 h 9.02 v 0 h 9.02 v 0 h 9.03 v 0 h 9.02 v 0 h 9.02 v 0 h 9.02 v 0 h 9.02 v 0 h 9.03 v 0 h 9.02 v 0 h 9.02 v 0 h 9.02 v 0 h 9.03 v 0 h 9.02 v 0 h 9.02 v 0 h 9.02 v 0 h 9.03 v 0 h 9.02 v 0 h 9.02 v 0 h 9.02 v 0 h 9.03 v 0 h 9.02 v 0 h 9.02 v 0 h 9.02 v 0 h 9.03 v 0 h 9.02 v 0 h 9.02 v 0 h 9.02 v 0 h 9.03 v 0 h 9.02 v 0 h 9.02 v 0 h 9.02 v 0 h 9.03 v 0 h 9.02 v 0 h 9.02 v 0 h 9.02 v 0 h 9.03 v 0 h 9.02 v 0 h 9.02 v 0 h 9.02 v 0 h 9.03 v 0 h 9.02 v 0 h 9.02 v 0 h 9.02 v 0 h 9.03 v 0 h 9.02 v 0 h 9.02 v 0 h 9.02 v 0 h 9.03 v 0 h 9.02 v 0 h 9.02 v 0 h 9.03 v 0 h 9.02 v 0 h 9.02 v 0 h 9.02 v 0 h 9.03 v 0 h 9.02 v 0 h 9.02 v 0 h 9.02 v 0 h 9.03 v 0 h 9.02 v 0 h 9.02 v 0 h 9.02 v 0 h 9.03 v 0 h 9.02 v 0 h 9.02 v 0 h 9.02 v 0 h 9.03 v 0 h 9.02 v 0 h 9.02 v 0 h 9.02 v 0 h 9.03 v 0 h 9.02 v 0 h 9.02 v 0 h 9.02 v 0 h 9.03 v 0 h 9.02 v 0 h 9.02 v 0 h 9.02 v 0 h 9.03 v 0 h 9.02 v 0 h 9.02 v 0 h 9.02 v 0 h 9.03 v 0 h 9.02 v 0 h 9.02 v 0 h 9.02 v 0 h 9.03 v 0 h 9.02 v 0 h 9.02 v 0 h 9.02 v 0 h 9.03 v 0 h 9.02 v 0 h 9.02 v 0 h 9.02 v 0 h 9.03 v 0 h 9.02 v 0 h 9.02 v 0 h 9.02 v 0 h 9.03 v 0 h 9.02 v 0 h 9.02 v 0 h 9.02 v 0 h 9.03 v 0 h 9.02 v 0 h 9.02 v 0 h 9.02 v 0 h 9.02 v 0 h 9.03 v 0 h 9.02 v 0 h 9.02 v 0 h 9.02 v 0 h 9.03 v 0 h 9.02 v 0 h 9.02 v 0 h 9.02 v 0 h 9.03 v 0 h 9.02 v 0 h 9.02 v 0 h 9.02 v 0 h 9.04 v 0 h 9.02 v 0 h 9.02 v 0 h 9.02 v 0 h 9.03 v 0 h 9.02 v 0 h 9.02 v 0 h 9.02 v 0 h 9.03 v 0 h 9.02 v 0 h 9.02 v 0 h 9.02 v 0 h 9.03 v 0 h 9.02 v 0 h 9.02 v 0 h 9.02 v 0 h 9.03 v 0 h 9.02 v 0 h 9.02 v 0 h 9.02 v 0 h 9.02 v 0 h 9.03 v 0 h 9.02 v 0 h 9.02 v 0 h 9.02 v 0 h 9.03 v 0 h 9.02 v 0 h 9.02 v 0 h 9.02 v 0 h 9.03 v 0 h 9.02 v 0 h 9.02 v 0 h 9.02 v 0 h 9.03 v 0 h 9.02 v 0 h 9.02 v 0 h 9.02 v 0 h 9.03 v 0 h 9.02 v 0 h 9.02 v 0 h 9.02 v 0 h 9.03 v 0 h 9.02 v 0 h 9.02 v 0 h 9.02 v 0 h 9.03 v 0 h 9.02 v 0 h 9.02 v 0 h 9.02 v 0 h 9.03 v 0 h 9.02 v 0 h 9.02 v 0 h 9.02 v 0 h 9.03 v 0 h 9.02 v 0 h 9.02 v 0 h 9.02 v 0 h 9.03 v 0 h 9.02 v 0 h 9.02 v 0 h 9.02 v 0 h 9.03 v 0 h 9.02 v 0 h 9.02 v 0 h 9.03 v 0 h 9.02 v 0 h 9.02 v 0 h 9.02 v 0 h 9.03 v 0 h 9.02 v 0 h 9.02 v 0 h 9.02 v 0 h 9.03 v 0 h 9.02 v 0 h 9.02 v 0 h 9.02 v 0 h 9.03 v 0 h 9.02 v 0 h 9.02 v 0 h 9.02 v 0 h 9.03 v 0 h 9.02 v 0 h 9.02 v 0 h 9.02 v 0 h 9.03 v 0 h 9.02 v 0 h 9.02 v 0 h 9.02 v 0 h 9.03 v 0 h 9.02 v 0 h 9.02 v 0 h 9.02 v 0 h 9.03 v 0 h 9.02 v 0 h 9.02 v 0 h 9.02 v 0 h 9.03 v 0 h 9.02 v 0 h 9.02 v 0 h 9.02 v 0 h 9.03 v 0 h 9.02 v 0 h 9.02 v 0 h 9.02 v 0 h 9.03 v 0 h 9.02 v 0 h 9.02 v 0 h 9.02 v 0 h 9.03 v 0 h 9.02 v 0 h 9.02 v 0 h 9.02 v 0 h 9.03 v 0 h 9.02 v 0 h 9.02 v 0 h 9.02 v 0 h 9.03 v 0 h 9.02 v 0 h 9.02 v 0 h 9.02 v 0 h 9.02 v 0 h 9.03 v 0 h 9.02 v 0 h 9.02 v 0 h 9.02 v 0 h 9.03 v 0 h 9.02 v 0 h 9.02 v 0 h 9.02 v 0 h 9.03 v 0 h 9.02 v 0 h 9.02 v 0 h 9.02 v 0 h 9.04 v 0 h 9.02 v 0 h 9.02 v 0 h 9.02 v 0 h 9.03 v 0 h 9.02 v 0 h 9.02 v 0 h 9.02 v 0 h 9.03 v 0 h 9.02 v 0 h 9.02 v 0 h 9.02 v 0 h 9.03 v 0 h 9.02 v 0 h 9.02 v 0 h 9.02 v 0 h 9.03 v 0 h 9.02 v 0 h 9.02 v 0 h 9.02 v 0 h 9.02 v 0 h 9.03 v 0 h 9.02 v 0 h 9.02 v 0 h 9.02 v 0 h 9.03 v 0 h 9.02 v 0 h 9.02 v 0 h 9.02 v 0 h 9.03 v 0 h 9.02 v 0 h 9.02 v 0 h 9.02 v 0 h 9.03 v 0 h 9.02 v 0 h 9.02 v 0 h 9.02 v 0 h 9.03 v 0 h 9.02 v 0 h 9.02 v 0 h 9.02 v 0 h 9.03 v 0 h 9.02 v 0 h 9.02 v 0 h 9.02 v 0 h 9.03 v 0 h 9.02 v 0 h 9.02 v 0 h 9.02 v 0 h 9.03 v 0 h 9.02 v 0 h 9.02 v 0 h 9.02 v 0 h 9.03 v 0 h 9.02 v 0 h 9.02 v 0 h 9.02 v 0 h 9.03 v 0 h 9.02 v 0 h 9.02 v 0 h 9.02 v 0 h 9.03 v 0 h 9.02 v 0 h 9.02 v 0 h 9.03 v 0 h 9.02 v 0 h 9.02 v 0 h 9.02 v 0 h 9.03 v 0 h 9.02 v 0 h 9.02 v 0 h 9.02 v 0 h 9.03 v 0 h 9.02 v 0 h 9.02 v 0 h 9.02 v 0 h 9.03 v 0 h 9.02 v 0 h 9.02 v 0 h 9.02 v 0 h 9.03 v 0 h 9.02 v 0 h 9.02 v 0 h 9.02 v 0 h 9.03 v 0 h 9.02 v 0 h 9.02 v 0 h 9.02 v 0 h 9.03 v 0 h 9.02 v 0 h 9.02 v 0 h 9.02 v 0 h 9.03 v 0 h 9.02 v 0 h 9.02 v 0 h 9.02 v 0 h 9.03 v 0 h 9.02 v 0 h 9.02 v 0 h 9.02 v 0 h 9.03 v 0 h 9.02 v 0 h 9.02 v 0 h 9.02 v 0 h 9.03 v 0 h 9.02 v 0 h 9.02 v 0 h 9.02 v 0 h 9.03 v 0 h 9.02 v 0 h 9.02 v 0 h 9.02 v 0 h 9.03 v 0 h 9.02 v 0 h 9.02 v 0 h 9.02 v 0 h 9.03 v 0 h 9.02 v 0 h 9.02 v 0 h 9.02 v 0 h 9.02 v 0 h 9.03 v 0 h 9.02 v 0 h 9.02 v 0 h 9.02 v 0 h 9.03 v 0 h 9.02 v 0 h 9.02 v 0 h 9.02 v 0 h 9.03 v 0 h 9.02 v 0 h 9.02 v 0 h 9.02 v 0 h 9.04 v 0 h 9.02 v 0 h 9.02 v 0 h 9.02 v 0 h 9.03 v 0 h 9.02 v 0 h 9.02 v 0 h 9.02 v 0 h 9.03 v 0 h 9.02 v 0 h 9.02 v 0 h 9.02 v 0 h 9.03 v 0 h 9.02 v 0 h 9.02 v 0 h 9.02 v 0 h 9.03 v 0 h 9.02 v 0 h 9.02 v 0 h 9.02 v 0 h 9.02 v 0 h 9.03 v 0 h 9.02 v 0 h 9.02 v 0 h 9.02 v 0 h 9.03 v 0 h 9.02 v 0 h 9.02 v 0 h 9.02 v 0 h 9.03 v 0 h 9.02 v 0 h 9.02 v 0 h 9.02 v 0 h 9.03 v 0 h 9.02 v 0 h 9.02 v 0 h 9.02 v 0 h 9.03 v 0 h 9.02 v 0 h 9.02 v 0 h 9.02 v 0 h 9.03 v 0 h 9.02 v 0 h 9.02 v 0 h 9.02 v 0 h 9.03 v 0 h 9.02 v 0 h 9.02 v 0 h 9.02 v 0 h 9.03 v 0 h 9.02 v 0 h 9.02 v 0 h 9.02 v 0 h 9.03 v 0 h 9.02 v 0 h 9.02 v 0 h 9.02 v 0 h 9.03 v 0 h 9.02 v 0 h 9.02 v 0 h 9.02 v 0 h 9.03 v 0 h 9.02 v 0 h 9.02 v 0 h 9.03 v 0 h 9.02 v 0 h 9.02 v 0 h 9.02 v 0 h 9.03 v 0 h 9.02 v 0 h 9.02 v 0 h 9.02 v 0 h 9.03 v 0 h 9.02 v 0 h 9.02 v 0 h 9.02 v 0 h 9.03 v 0 h 9.02 v 0 h 9.02 v 0 h 9.02 v 0 h 9.03 v 0 h 9.02 v 0 h 9.02 v 0 h 9.02 v 0 h 9.03 v 0 h 9.02 v 0 h 9.02 v 0 h 9.02 v 0 h 9.03 v 0 h 9.02 v 0 h 9.02 v 0 h 9.02 v 0 h 9.03 v 0 h 9.02 v 0 h 9.02 v 0 h 9.02 v 0 h 9.03 v 0 h 9.02 v 0 h 9.02 v 0 h 9.02 v 0 h 9.03 v 0 h 9.02 v 0 h 9.02 v 0 h 9.02 v 0 h 9.03 v 0 h 9.02 v 0 h 9.02 v 0 h 9.02 v 0 h 9.03 v 0 h 9.02 v 0 h 9.02 v 0 h 9.02 v 0 h 9.03 v 0 h 9.02 v 0 h 9.02 v 0 h 9.02 v 0 h 9.03 v 0 h 9.02 v 0 h 9.02 v 0 h 9.02 v 0 h 9.02 v 0 h 9.03 v 0 h 9.02 v 0 h 9.02 v 0 h 9.02 v 0 h 9.03 v 0 h 9.02 v 0 h 9.03 v 0 h 9.01 v 0 h 9.04 v 0 h 9.02 v 0 h 9.01 v 0 h 9.02 v 0 h 9.03 v 0 h 9.03 v 0 h 9.02 v 0 h 9.02 v 0 h 9.03 v 0 h 9.01 v 0 h 9.03 v 0 h 9.02 v 0 h 9.03 v 0 h 9.02 v 0 h 9.02 v 0 h 9.02 v 0 h 9.03 v 0 h 9.02 v 0 h 9.02 v 0 h 9.02 v 0 h 9.03 v 0 h 9.02 v 0 h 9.02 v 0 h 9.02 v 0 h 9.02 v 0 h 9.03 v 0 h 9.02 v 0 h 9.02 v 0 h 9.02 v 0 h 9.03 v 0 h 9.02 v 0 h 9.03 v 0 h 9.01 v 0 h 9.03 v 0 h 9.02 v 0 h 9.02 v 0 h 9.02 v 0 h 9.03 v 0 h 9.02 v 0 h 9.02 v 0 h 9.02 v 0 h 9.03 v 0 h 9.02 v 0 h 9.02 v 0 h 9.02 v 0 h 9.03 v 0 h 9.02 v 0 h 9.02 v 0 h 9.03 v 0 h 9.02 v 0 h 9.02 v 0 h 9.02 v 0 h 9.02 v 0 h 9.03 v 0 h 9.02 v 0 h 9.02 v 0 h 9.02 v 0 h 9.03 v 0 h 9.02 v 0 h 9.02 v 0 h 9.02 v 0 h 9.03 v 0 h 9.02 v 0 h 9.02 v 0 h 9.03 v 0 h 9.02 v 0 h 9.02 v 0 h 9.02 v 0 h 9.03 v 0 h 9.02 v 0 h 9.02 v 0" /><path
         id="path106"
         style="fill:none;stroke:#000000;stroke-width:15;stroke-linecap:butt;stroke-linejoin:miter;stroke-miterlimit:10;stroke-dasharray:none;stroke-opacity:1"
         d="m 1395,839.52 h 9.02 v 0 h 9.03 v 140.582 h 9.02 v -46.368 h 9.02 v 92.236 h 9.02 v 134.74 h 9.03 v -89.36 h 9.02 v 0 h 9.02 v 133.35 h 9.02 v -43.99 h 9.03 v -89.36 h 9.02 v 89.36 h 9.02 v -89.36 h 9.02 v 0 h 9.03 v 44.92 h 9.02 v 88.43 h 9.02 v -133.35 h 9.02 v 89.36 h 9.03 v 87.53 h 9.02 v -43.54 h 9.02 v 43.54 h 9.02 v -43.54 h 9.03 v -88.43 h 9.02 v -44.92 h 9.02 v 133.35 h 9.02 v 0 h 9.03 v -133.35 h 9.02 v 44.92 h 9.02 v 88.43 h 9.02 v -88.43 h 9.03 v -44.92 h 9.02 v -45.38 h 9.02 v 45.38 h 9.02 v 0 h 9.03 V 886.883 h 9.02 v 0 h 9.02 V 839.52 h 9.02 v 0 h 9.03 v 94.214 h 9.02 v -46.851 h 9.02 V 839.52 h 9.02 v 0 h 9.03 v 140.582 h 9.02 v 45.868 h 9.02 v -45.868 h 9.02 v -93.219 h 9.03 V 839.52 h 9.02 v 0 h 9.02 v 0 h 9.02 v -47.879 h 9.03 v 188.461 h 9.02 v 0 h 9.02 v 45.868 h 9.02 v 0 h 9.02 v 0 h 9.03 v -45.868 h 9.02 v -93.219 h 9.02 v 0 h 9.02 V 839.52 h 9.03 v 0 h 9.02 v 0 h 9.02 v 47.363 h 9.02 v 0 h 9.03 v 0 h 9.02 V 839.52 h 9.02 v 0 h 9.02 v 94.214 h 9.04 V 839.52 h 9.02 v 94.214 h 9.02 v 46.368 h 9.02 v -93.219 h 9.03 V 839.52 h 9.02 v 0 h 9.02 v 0 h 9.02 v 0 h 9.03 v 0 h 9.02 v 140.582 h 9.02 v 0 h 9.02 v 45.868 h 9.03 v 0 h 9.02 v 0 h 9.02 V 886.883 h 9.02 V 839.52 h 9.03 v 140.582 h 9.02 v 45.868 h 9.02 V 886.883 h 9.02 v 93.219 h 9.02 v 0 h 9.03 v -93.219 h 9.02 v 93.219 h 9.02 v 0 h 9.02 v 0 h 9.03 v 0 h 9.02 v 45.868 h 9.02 v 134.74 h 9.02 v 0 h 9.03 v -89.36 h 9.02 v -91.248 h 9.02 v 45.868 h 9.02 v 0 h 9.03 v -45.868 h 9.02 v 0 h 9.02 v 0 h 9.02 v 45.868 h 9.03 v -45.868 h 9.02 v -93.219 h 9.02 v 46.851 h 9.02 v 46.368 h 9.03 V 839.52 h 9.02 v 94.214 h 9.02 v 92.236 h 9.02 v 0 h 9.03 v 0 h 9.02 v -45.868 h 9.02 v -93.219 h 9.02 v -95.242 h 9.03 v 47.879 h 9.02 v 0 h 9.02 v 0 h 9.02 v 140.582 h 9.03 v 0 h 9.02 v 0 h 9.02 v -46.368 h 9.02 V 839.52 h 9.03 v 0 h 9.02 v -47.879 h 9.02 v 95.242 h 9.02 v 93.219 h 9.03 v 0 h 9.02 v 0 h 9.02 v 0 h 9.03 v -93.219 h 9.02 V 839.52 h 9.02 v 94.214 h 9.02 v -46.851 h 9.03 V 839.52 h 9.02 v 140.582 h 9.02 v 45.868 h 9.02 V 886.883 h 9.03 V 839.52 h 9.02 v 140.582 h 9.02 v -93.219 h 9.02 V 839.52 h 9.03 v 94.214 h 9.02 v -46.851 h 9.02 V 839.52 h 9.02 v 94.214 h 9.03 v 46.368 h 9.02 v -93.219 h 9.02 v 0 h 9.02 V 839.52 h 9.03 v 47.363 h 9.02 V 839.52 h 9.02 v 0 h 9.02 v 47.363 h 9.03 v 93.219 h 9.02 v -93.219 h 9.02 V 839.52 h 9.02 v 47.363 h 9.03 V 839.52 h 9.02 v 0 h 9.02 v 47.363 h 9.02 v 0 h 9.03 V 839.52 h 9.02 v 0 h 9.02 v 0 h 9.02 v 0 h 9.03 v 0 h 9.02 v -47.879 h 9.02 v 0 h 9.02 v 47.879 h 9.03 v -47.879 h 9.02 v 0 h 9.02 v 47.879 h 9.02 v 0 h 9.03 v 0 h 9.02 v -47.879 h 9.02 v 47.879 h 9.02 v -47.879 h 9.03 v 47.879 h 9.02 v 0 h 9.02 v 0 h 9.02 v -47.879 h 9.03 v 47.879 h 9.02 v 0 h 9.02 v -47.879 h 9.02 v 0 h 9.02 v 47.879 h 9.03 v 0 h 9.02 v 94.214 h 9.02 V 839.52 h 9.02 v 140.582 h 9.03 v 45.868 h 9.02 v -92.236 h 9.02 v 46.368 h 9.02 v 180.608 h 9.03 v -89.36 h 9.02 v -45.38 h 9.02 v 90.3 h 9.02 v 88.43 h 9.04 v -133.35 h 9.02 v 89.36 h 9.02 v 43.99 h 9.02 v -133.35 h 9.03 v 44.92 h 9.02 v 175.06 h 9.02 v 84.87 h 9.02 v 204.83 h 9.03 v 307.5 h 9.02 v 0 h 9.02 v -37.15 h 9.02 v 252.86 h 9.03 v 137.29 h 9.02 v 33.55 h 9.02 v 131.21 h 9.02 v 32.09 h 9.03 v -97.11 h 9.02 v 160.43 h 9.02 v 271.75 h 9.02 v -209.53 h 9.02 v 61.15 h 9.03 v 262.66 h 9.02 v -114.28 h 9.02 v 0 h 9.02 v 142.26 h 9.03 v 82.59 h 9.02 v -224.85 h 9.02 v 86.07 h 9.02 v 192.72 h 9.03 v -136.53 h 9.02 v -171.44 h 9.02 v 115.25 h 9.02 v 28.21 h 9.03 v -143.46 h 9.02 v 0 h 9.02 v 86.79 h 9.02 v -57.61 h 9.03 v -240.51 h 9.02 v 0 h 9.02 v 92.13 h 9.02 v -30.44 h 9.03 v -124.45 h 9.02 v 31.52 h 9.02 v 31.24 h 9.02 v -62.76 h 9.03 v -63.89 h 9.02 v 63.89 h 9.02 v -63.89 h 9.02 v 95.41 h 9.03 v 0 h 9.02 v 31.24 h 9.02 v 0 h 9.02 v 0 h 9.03 v -31.24 h 9.02 v -95.41 h 9.02 v 95.41 h 9.02 v 31.24 h 9.03 v 0 h 9.02 v 0 h 9.02 v 0 h 9.02 v 0 h 9.03 v 92.13 h 9.02 v 177.31 h 9.02 v 141.08 h 9.03 v -55.73 h 9.02 v -172.87 h 9.02 v 29.41 h 9.02 v -119.2 h 9.03 V 2501.7 h 9.02 v -95.41 h 9.02 v 95.41 h 9.02 v 123.37 h 9.03 v 0 h 9.02 v 0 h 9.02 v 0 h 9.02 v 0 h 9.03 v -61.15 h 9.02 v 30.71 h 9.02 v 120.23 h 9.02 v -89.79 h 9.03 v -92.13 h 9.02 v 0 h 9.02 v 92.13 h 9.02 v 0 h 9.03 v 0 h 9.02 v 60.11 h 9.02 v 59.09 h 9.02 v 86.79 h 9.03 v 194.32 h 9.02 v -54.39 h 9.02 v -83.26 h 9.02 v 55.73 h 9.03 v 81.92 h 9.02 v -81.92 h 9.02 v -55.73 h 9.02 v 55.73 h 9.03 v 27.53 h 9.02 v -55.28 h 9.02 v -56.19 h 9.02 v 111.47 h 9.03 v 27.31 h 9.02 v -82.59 h 9.02 v 27.75 h 9.02 v 0 h 9.03 v -27.75 h 9.02 v -56.19 h 9.02 v 56.19 h 9.02 v -56.19 h 9.03 v -57.14 h 9.02 v -58.11 h 9.02 v 58.11 h 9.02 v 28.68 h 9.03 v 28.46 h 9.02 v -28.46 h 9.02 v -28.68 h 9.02 v 57.14 h 9.03 v -28.46 h 9.02 v -86.79 h 9.02 v 29.18 h 9.02 v 57.61 h 9.02 v 28.46 h 9.03 v 0 h 9.02 v -57.14 h 9.02 v 28.68 h 9.02 v 28.46 h 9.03 v 0 h 9.02 v 0 h 9.02 v -86.07 h 9.02 v 57.61 h 9.03 v 28.46 h 9.02 v -28.46 h 9.02 v 28.46 h 9.02 v 0 h 9.04 v -86.07 h 9.02 v -29.18 h 9.02 v 58.11 h 9.02 v 57.14 h 9.03 v 0 h 9.02 v -57.14 h 9.02 v 85.35 h 9.02 v 0 h 9.03 v -28.21 h 9.02 v 0 h 9.02 v 56.19 h 9.02 v -27.98 h 9.03 v -28.21 h 9.02 v 83.94 h 9.02 v 27.53 h 9.02 v -111.47 h 9.03 v 0 h 9.02 v 0 h 9.02 v -86.07 h 9.02 v -29.18 h 9.02 v 0 h 9.03 v 29.18 h 9.02 v -335.07 h 9.02 v -32.09 h 9.02 v 188.34 h 9.03 v 30.44 h 9.02 v -186.69 h 9.02 v -64.45 h 9.02 v 96.25 h 9.03 v -31.8 h 9.02 v 63.32 h 9.02 v 0 h 9.02 v 123.37 h 9.03 V 2501.7 h 9.02 v -95.41 h 9.02 v 0 h 9.02 v 63.89 h 9.03 v -128.91 h 9.02 v -66.19 h 9.02 v 98.85 h 9.02 v 0 h 9.03 v 32.36 h 9.02 v 0 h 9.02 v -32.36 h 9.02 v 0 h 9.03 v -65.6 h 9.02 v 65.6 h 9.02 v 32.36 h 9.02 v 0 h 9.03 v 95.41 h 9.02 v 31.24 h 9.02 v 0 h 9.02 v 0 h 9.03 v 92.13 h 9.02 v 0 h 9.02 v -30.44 h 9.02 v -124.45 h 9.03 v -63.89 h 9.02 v 126.65 h 9.02 v 30.98 h 9.02 v 0 h 9.03 v -157.63 h 9.02 v 63.89 h 9.02 v 62.76 h 9.03 v -62.76 h 9.02 v -31.8 h 9.02 v -32.09 h 9.02 v 0 h 9.03 v 0 h 9.02 v 95.41 h 9.02 v 31.24 h 9.02 v 0 h 9.03 v 0 h 9.02 v 0 h 9.02 v 0 h 9.02 v -126.65 h 9.03 v 0 h 9.02 v 95.41 h 9.02 v 31.24 h 9.02 v 0 h 9.03 v 61.69 h 9.02 v 60.62 h 9.02 v -122.31 h 9.02 v -62.76 h 9.03 v 124.45 h 9.02 v 60.62 h 9.02 v -91.33 h 9.02 v 30.71 h 9.03 v 0 h 9.02 v 149.64 h 9.02 v 29.18 h 9.02 v -58.59 h 9.03 v -59.61 h 9.02 v 0 h 9.02 v 0 h 9.02 v 0 h 9.03 v 0 h 9.02 v 0 h 9.02 v -30.18 h 9.02 v -61.15 h 9.03 v -30.98 h 9.02 v 0 h 9.02 v 0 h 9.02 v 0 h 9.03 v 0 h 9.02 v 0 h 9.02 v 0 h 9.02 v 0 h 9.03 v 0 h 9.02 v 61.69 h 9.02 v 30.44 h 9.02 v 0 h 9.03 v 30.18 h 9.02 v -122.31 h 9.02 v 0 h 9.02 v 0 h 9.03 v 0 h 9.02 v -31.24 h 9.02 v 92.93 h 9.02 v 30.44 h 9.02 v 89.79 h 9.03 v 116.2 h 9.02 v -57.61 h 9.02 v -29.18 h 9.02 v 86.79 h 9.03 v -57.61 h 9.02 v -118.2 h 9.02 v 89.02 h 9.02 v -29.41 h 9.03 v -120.23 h 9.02 v 178.82 h 9.02 v 0 h 9.02 v -118.2 h 9.04 v 29.93 h 9.02 v 59.09 h 9.02 v -180.35 h 9.02 v 61.15 h 9.03 v 89.79 h 9.02 v -59.61 h 9.02 v 0 h 9.02 v 118.2 h 9.03 v -88.27 h 9.02 v -121.26 h 9.02 v 150.94 h 9.02 v -29.68 h 9.03 v -311.25 h 9.02 v 220.7 h 9.02 v 60.62 h 9.02 v -185.07 h 9.03 v 31.52 h 9.02 v 62.22 h 9.02 v -62.22 h 9.02 v 92.93 h 9.02 v 60.62 h 9.03 v -185.07 h 9.02 v 93.74 h 9.02 v 150.94 h 9.02 v -150.94 h 9.03 v -62.22 h 9.02 v 92.93 h 9.02 v -30.71 h 9.02 v -157.63 h 9.03 v 126.65 h 9.02 v 152.24 h 9.02 v 0 h 9.02 v 29.68 h 9.03 v 0 h 9.02 v 0 h 9.02 v -89.79 h 9.02 v 89.79 h 9.03 v 29.41 h 9.02 v -119.2 h 9.02 v 0 h 9.02 v 0 h 9.03 v -92.13 h 9.02 v -31.24 h 9.02 v 0 h 9.02 v 0 h 9.03 v 0 h 9.02 v 31.24 h 9.02 v -191.67 h 9.02 v 32.66 h 9.03 v 96.25 h 9.02 v -63.89 h 9.02 v -32.36 h 9.02 v 96.25 h 9.03 v -31.8 h 9.02 v -32.09 h 9.02 v 0 h 9.02 v 126.65 h 9.03 v -31.24 h 9.02 v -95.41 h 9.02 v 63.89 h 9.02 v 31.52 h 9.03 v 0 h 9.02 v 92.93 h 9.02 v -124.45 h 9.03 v -63.89 h 9.02 v 0 h 9.02 v -32.36 h 9.02 v 32.36 h 9.03 v 63.89 h 9.02 v 31.52 h 9.02 v -160.43 h 9.02 v 65.02 h 9.03 v 95.41 h 9.02 v -63.32 h 9.02 v -97.11 h 9.02 v 191.67 h 9.03 v 0 h 9.02 v -126.65 h 9.02 v 63.89 h 9.02 v 124.45 h 9.03 v 0 h 9.02 v -61.69 h 9.02 v 61.69 h 9.02 v 30.44 h 9.03 v -92.13 h 9.02 v 0 h 9.02 v -31.24 h 9.02 v 31.24 h 9.03 v 122.31 h 9.02 v 0 h 9.02 v 0 h 9.02 v -30.18 h 9.03 v 30.18 h 9.02 v 0 h 9.02 v 0 h 9.02 v 0 h 9.03 v 0 h 9.02 v 89.02 h 9.02 v 86.79 h 9.02 v 28.46 h 9.03 v -86.07 h 9.02 v 86.07 h 9.02 v -144.66 h 9.02 v 29.41 h 9.03 v 29.18 h 9.02 v 0 h 9.02 v 57.61 h 9.02 v -28.68 h 9.03 v -28.93 h 9.02 v 0 h 9.02 v 0 h 9.02 v -58.59 h 9.03 v 87.52 h 9.02 v 57.14 h 9.02 v -28.46 h 9.02 v -57.61 h 9.03 v 57.61 h 9.02 v -86.79 h 9.02 v -89.02 h 9.02 v 147.13 h 9.02 v -117.2 h 9.03 v -29.93 h 9.02 v 175.81 h 9.02 v -28.68 h 9.02 v -117.2 h 9.03 v 59.09 h 9.02 v 0 h 9.02 v -119.2 h 9.02 v 0 h 9.03 v 60.11 h 9.02 v -152.24 h 9.02 v 30.98 h 9.02 v 180.35 h 9.04 v 29.18 h 9.02 v -58.59 h 9.02 v 29.41 h 9.02 v 29.18 h 9.03 v -58.59 h 9.02 v 58.59 h 9.02 v -209.53 h 9.02 v 61.15 h 9.03 v 30.18 h 9.02 v 0 h 9.02 v 89.02 h 9.02 v 29.18 h 9.03 v -58.59 h 9.02 v -29.68 h 9.02 v -29.93 h 9.02 v -30.18 h 9.03 v -30.44 h 9.02 v -61.69 h 9.02 v 92.13 h 9.02 v 89.79 h 9.02 v -29.68 h 9.03 v -29.93 h 9.02 v 0 h 9.02 v 0 h 9.02 v 0 h 9.03 v -30.18 h 9.02 v 89.79 h 9.02 v -29.68 h 9.02 v -121.26 h 9.03 v 61.15 h 9.02 v 30.18 h 9.02 v -91.33 h 9.02 v -93.74 h 9.03 v 154.89 h 9.02 v -92.13 h 9.02 v 0 h 9.02 v -31.24 h 9.03 v 31.24 h 9.02 v 0 h 9.02 v -31.24 h 9.02 v 31.24 h 9.03 v 0 h 9.02 v -31.24 h 9.02 v 0 h 9.02 v 92.93 h 9.03 v -61.69 h 9.02 v -94.56 h 9.02 v 156.25 h 9.02 v 207.75 h 9.03 v -147.13 h 9.02 v -91.33 h 9.02 v 121.26 h 9.02 v -29.93 h 9.03 v -91.33 h 9.02 v 150.94 h 9.02 v 29.41 h 9.02 v -89.02 h 9.03 v 29.93 h 9.02 v 88.27 h 9.02 v -178.82 h 9.02 v -61.69 h 9.03 v 122.31 h 9.02 v -185.07 h 9.02 v -63.89 h 9.03 v 218.78 h 9.02 v -30.44 h 9.02 v -156.25 h 9.02 v 216.87 h 9.03 v -30.18 h 9.02 v -92.13 h 9.02 v 61.69 h 9.02 v 60.62 h 9.03 v -185.07 h 9.02 v 93.74 h 9.02 v 150.94 h 9.02 v -120.23 h 9.03 v 0 h 9.02 v 120.23 h 9.02 v -120.23 h 9.02 v -124.45 h 9.03 v 274.09 h 9.02 v 171.44 h 9.02 v -200.85 h 9.02 v 0 h 9.03 v 29.41 h 9.02 v -149.64 h 9.02 v -124.45 h 9.02 v 124.45 h 9.03 v -61.69 h 9.02 v -31.24 h 9.02 v 242.57 h 9.02 v 171.44 h 9.03 v -171.44 h 9.02 v -59.09 h 9.02 v 29.68 h 9.02 v -59.61 h 9.03 v -185.07 h 9.02 v 154.89 h 9.02 v 177.31 h 9.02 v 28.68 h 9.03 v -28.68 h 9.02 v 141.08 h 9.02 v -55.73 h 9.02 v -143.46 h 9.03 v -89.02 h 9.02 v -91.33 h 9.02 v -62.22 h 9.02 v 0 h 9.03 v 92.93 h 9.02 v 30.44 h 9.02 V 2501.7 h 9.02 v 31.24 h 9.03 v -94.56 h 9.02 v -64.45 h 9.02 v -32.66 h 9.02 v 32.66 h 9.03 v 32.36 h 9.02 v -32.36 h 9.02 v 32.36 h 9.02 v 63.89 h 9.02 v -63.89 h 9.03 v -32.36 h 9.02 v 96.25 h 9.02 v 31.52 h 9.02 v -160.43 h 9.03 v -32.94 h 9.02 v 161.85 h 9.03 v 31.52 h 9.01 v -31.52 h 9.04 v -63.89 h 9.02 v 95.41 h 9.01 v -31.52 h 9.02 v -128.91 h 9.03 v 0 h 9.03 v 128.91 h 9.02 v 0 h 9.02 v -128.91 h 9.03 v -66.19 h 9.01 v 66.19 h 9.03 v 65.02 h 9.02 v 0 h 9.03 v 0 h 9.02 v 95.41 h 9.02 v 31.24 h 9.02 v -94.56 h 9.03 v -130.05 h 9.02 v 32.94 h 9.02 v 65.02 h 9.02 v 0 h 9.03 v 0 h 9.02 v 63.89 h 9.02 v 62.76 h 9.02 v -94.56 h 9.02 v -32.09 h 9.03 v 0 h 9.02 v 0 h 9.02 v 0 h 9.02 v 63.89 h 9.03 v 62.76 h 9.02 v -94.56 h 9.03 v -32.09 h 9.01 v 63.89 h 9.03 v 62.76 h 9.02 v -159.01 h 9.02 v -65.6 h 9.02 v 65.6 h 9.03 v 32.36 h 9.02 v 0 h 9.02 v 95.41 h 9.02 v 31.24 h 9.03 v -31.24 h 9.02 v -95.41 h 9.02 v 0 h 9.02 v 0 h 9.03 v 95.41 h 9.02 v 31.24 h 9.02 v 0 h 9.03 v -31.24 h 9.02 v -31.52 h 9.02 v 124.45 h 9.02 v -30.71 h 9.02 v -30.98 h 9.03 v 92.13 h 9.02 v 30.18 h 9.02 v -122.31 h 9.02 v -31.24 h 9.03 v 92.93 h 9.02 v -30.71 h 9.02 v -62.22 h 9.02 v 0 h 9.03 v 31.24 h 9.02 v 0 h 9.02 v -31.24 h 9.03 v -31.52 h 9.02 v -63.89 h 9.02 v 95.41 h 9.02 v -31.52 h 9.03 v 31.52 h 9.02 v 31.24 h 9.02 v -31.24" /><path
         id="path108"
         style="fill:none;stroke:#000000;stroke-width:15;stroke-linecap:butt;stroke-linejoin:bevel;stroke-miterlimit:10;stroke-dasharray:15, 15;stroke-dashoffset:0;stroke-opacity:1"
         d="m 1395,1234.86 h 9.02 v 0 h 9.03 v 0 h 9.02 v 0 h 9.02 v 0 h 9.02 v 0 h 9.03 v 0 h 9.02 v 0 h 9.02 v 0 h 9.02 v 0 h 9.03 v 0 h 9.02 v 0 h 9.02 v 0 h 9.02 v 0 h 9.03 v 0 h 9.02 v 0 h 9.02 v 0 h 9.02 v 0 h 9.03 v 0 h 9.02 v 0 h 9.02 v 0 h 9.02 v 0 h 9.03 v 0 h 9.02 v 0 h 9.02 v 0 h 9.02 v 0 h 9.03 v 0 h 9.02 v 0 h 9.02 v 0 h 9.02 v 0 h 9.03 v 0 h 9.02 v 0 h 9.02 v 0 h 9.02 v 0 h 9.03 v 0 h 9.02 v 0 h 9.02 v 0 h 9.02 v 0 h 9.03 v 0 h 9.02 v 0 h 9.02 v 0 h 9.02 v 0 h 9.03 v 0 h 9.02 v 0 h 9.02 v 0 h 9.02 v 0 h 9.03 v 0 h 9.02 v 0 h 9.02 v 0 h 9.02 v 0 h 9.03 v 0 h 9.02 v 0 h 9.02 v 0 h 9.02 v 0 h 9.02 v 0 h 9.03 v 0 h 9.02 v 0 h 9.02 v 0 h 9.02 v 0 h 9.03 v 0 h 9.02 v 0 h 9.02 v 0 h 9.02 v 0 h 9.03 v 0 h 9.02 v 0 h 9.02 v 0 h 9.02 v 0 h 9.04 v 0 h 9.02 v 0 h 9.02 v 0 h 9.02 v 0 h 9.03 v 0 h 9.02 v 0 h 9.02 v 0 h 9.02 v 0 h 9.03 v 0 h 9.02 v 0 h 9.02 v 0 h 9.02 v 0 h 9.03 v 0 h 9.02 v 0 h 9.02 v 0 h 9.02 v 0 h 9.03 v 0 h 9.02 v 0 h 9.02 v 0 h 9.02 v 0 h 9.02 v 0 h 9.03 v 0 h 9.02 v 0 h 9.02 v 0 h 9.02 v 0 h 9.03 v 0 h 9.02 v 0 h 9.02 v 0 h 9.02 v 0 h 9.03 v 0 h 9.02 v 0 h 9.02 v 0 h 9.02 v 0 h 9.03 v 0 h 9.02 v 0 h 9.02 v 0 h 9.02 v 0 h 9.03 v 0 h 9.02 v 0 h 9.02 v 0 h 9.02 v 0 h 9.03 v 0 h 9.02 v 0 h 9.02 v 0 h 9.02 v 0 h 9.03 v 0 h 9.02 v 0 h 9.02 v 0 h 9.02 v 0 h 9.03 v 0 h 9.02 v 0 h 9.02 v 0 h 9.02 v 0 h 9.03 v 0 h 9.02 v 0 h 9.02 v 0 h 9.02 v 0 h 9.03 v 0 h 9.02 v 0 h 9.02 v 0 h 9.02 v 0 h 9.03 v 0 h 9.02 v 0 h 9.02 v 0 h 9.03 v 0 h 9.02 v 0 h 9.02 v 0 h 9.02 v 0 h 9.03 v 0 h 9.02 v 0 h 9.02 v 0 h 9.02 v 0 h 9.03 v 0 h 9.02 v 0 h 9.02 v 0 h 9.02 v 0 h 9.03 v 0 h 9.02 v 0 h 9.02 v 0 h 9.02 v 0 h 9.03 v 0 h 9.02 v 0 h 9.02 v 0 h 9.02 v 0 h 9.03 v 0 h 9.02 v 0 h 9.02 v 0 h 9.02 v 0 h 9.03 v 0 h 9.02 v 0 h 9.02 v 0 h 9.02 v 0 h 9.03 v 0 h 9.02 v 0 h 9.02 v 0 h 9.02 v 0 h 9.03 v 0 h 9.02 v 0 h 9.02 v 0 h 9.02 v 0 h 9.03 v 0 h 9.02 v 0 h 9.02 v 0 h 9.02 v 0 h 9.03 v 0 h 9.02 v 0 h 9.02 v 0 h 9.02 v 0 h 9.03 v 0 h 9.02 v 0 h 9.02 v 0 h 9.02 v 0 h 9.03 v 0 h 9.02 v 0 h 9.02 v 0 h 9.02 v 0 h 9.03 v 0 h 9.02 v 0 h 9.02 v 0 h 9.02 v 0 h 9.02 v 0 h 9.03 v 0 h 9.02 v 0 h 9.02 v 0 h 9.02 v 0 h 9.03 v 0 h 9.02 v 0 h 9.02 v 0 h 9.02 v 0 h 9.03 v 0 h 9.02 v 0 h 9.02 v 0 h 9.02 V 2978.1 h 9.04 v 0 h 9.02 v 0 h 9.02 v 0 h 9.02 v 0 h 9.03 v 0 h 9.02 v 0 h 9.02 v 0 h 9.02 v 0 h 9.03 v 0 h 9.02 v 0 h 9.02 v 0 h 9.02 v 0 h 9.03 v 0 h 9.02 v 0 h 9.02 v 0 h 9.02 v 0 h 9.03 v 0 h 9.02 v 0 h 9.02 v 0 h 9.02 v 0 h 9.02 v 0 h 9.03 v 0 h 9.02 v 0 h 9.02 v 0 h 9.02 v 0 h 9.03 v 0 h 9.02 v 0 h 9.02 v 0 h 9.02 v 0 h 9.03 v 0 h 9.02 v 0 h 9.02 v 0 h 9.02 v 0 h 9.03 v 0 h 9.02 v 0 h 9.02 v 0 h 9.02 v 0 h 9.03 v 0 h 9.02 v 0 h 9.02 v 0 h 9.02 v 0 h 9.03 v 0 h 9.02 v 0 h 9.02 v 0 h 9.02 v 0 h 9.03 v 0 h 9.02 v 0 h 9.02 v 0 h 9.02 v 0 h 9.03 v 0 h 9.02 v 0 h 9.02 v 0 h 9.02 v 0 h 9.03 v 0 h 9.02 v 0 h 9.02 v 0 h 9.02 v 0 h 9.03 v 0 h 9.02 v 0 h 9.02 v 0 h 9.02 v 0 h 9.03 v 0 h 9.02 v 0 h 9.02 v 0 h 9.03 v 0 h 9.02 v 0 h 9.02 v 0 h 9.02 v 0 h 9.03 v 0 h 9.02 v 0 h 9.02 v 0 h 9.02 v 0 h 9.03 v 0 h 9.02 v 0 h 9.02 v 0 h 9.02 v 0 h 9.03 v 0 h 9.02 v 0 h 9.02 v 0 h 9.02 v 0 h 9.03 v 0 h 9.02 v 0 h 9.02 v 0 h 9.02 v 0 h 9.03 v 0 h 9.02 v 0 h 9.02 v 0 h 9.02 v 0 h 9.03 v 0 h 9.02 v 0 h 9.02 v 0 h 9.02 v 0 h 9.03 v 0 h 9.02 v 0 h 9.02 v 0 h 9.02 v 0 h 9.03 v 0 h 9.02 v 0 h 9.02 v 0 h 9.02 v 0 h 9.03 v 0 h 9.02 v 0 h 9.02 v 0 h 9.02 v 0 h 9.03 v 0 h 9.02 v 0 h 9.02 v 0 h 9.02 v 0 h 9.03 v 0 h 9.02 v 0 h 9.02 v 0 h 9.02 v 0 h 9.03 v 0 h 9.02 v 0 h 9.02 v 0 h 9.02 v 0 h 9.03 v 0 h 9.02 v 0 h 9.02 v 0 h 9.02 v 0 h 9.02 v 0 h 9.03 v 0 h 9.02 v 0 h 9.02 v 0 h 9.02 v 0 h 9.03 v 0 h 9.02 v 0 h 9.02 v 0 h 9.02 v 0 h 9.03 v 0 h 9.02 v 0 h 9.02 v 0 h 9.02 v 0 h 9.04 v 0 h 9.02 v 0 h 9.02 v 0 h 9.02 v 0 h 9.03 v 0 h 9.02 v 0 h 9.02 v 0 h 9.02 v 0 h 9.03 v 0 h 9.02 v 0 h 9.02 v 0 h 9.02 v 0 h 9.03 v 0 h 9.02 v 0 h 9.02 v 0 h 9.02 v 0 h 9.03 v 0 h 9.02 v 0 h 9.02 v 0 h 9.02 v 0 h 9.02 v 0 h 9.03 v 0 h 9.02 v 0 h 9.02 v 0 h 9.02 v 0 h 9.03 v 0 h 9.02 v 0 h 9.02 v 0 h 9.02 v 0 h 9.03 v 0 h 9.02 v 0 h 9.02 v 0 h 9.02 v 0 h 9.03 v 0 h 9.02 v 0 h 9.02 v 0 h 9.02 v 0 h 9.03 v 0 h 9.02 v 0 h 9.02 v 0 h 9.02 v 0 h 9.03 v 0 h 9.02 v 0 h 9.02 v 0 h 9.02 v 0 h 9.03 v 0 h 9.02 v 0 h 9.02 v 0 h 9.02 v 0 h 9.03 v 0 h 9.02 v 0 h 9.02 v 0 h 9.02 v 0 h 9.03 v 0 h 9.02 v 0 h 9.02 v 0 h 9.02 v 0 h 9.03 v 0 h 9.02 v 0 h 9.02 v 0 h 9.02 v 0 h 9.03 v 0 h 9.02 v 0 h 9.02 v 0 h 9.03 v 0 h 9.02 v 0 h 9.02 v 0 h 9.02 v 0 h 9.03 v 0 h 9.02 v 0 h 9.02 v 0 h 9.02 v 0 h 9.03 v 0 h 9.02 v 0 h 9.02 v 0 h 9.02 v 0 h 9.03 v 0 h 9.02 v 0 h 9.02 v 0 h 9.02 v 0 h 9.03 v 0 h 9.02 v 0 h 9.02 v 0 h 9.02 v 0 h 9.03 v 0 h 9.02 v 0 h 9.02 v 0 h 9.02 v 0 h 9.03 v 0 h 9.02 v 0 h 9.02 v 0 h 9.02 v 0 h 9.03 v 0 h 9.02 v 0 h 9.02 v 0 h 9.02 v 0 h 9.03 v 0 h 9.02 v 0 h 9.02 v 0 h 9.02 v 0 h 9.03 v 0 h 9.02 v 0 h 9.02 v 0 h 9.02 v 0 h 9.03 v 0 h 9.02 v 0 h 9.02 v 0 h 9.02 v 0 h 9.03 v 0 h 9.02 v 0 h 9.02 v 0 h 9.02 v 0 h 9.03 v 0 h 9.02 v 0 h 9.02 v 0 h 9.02 v 0 h 9.03 v 0 h 9.02 v 0 h 9.02 v 0 h 9.02 v 0 h 9.02 v 0 h 9.03 v 0 h 9.02 v 0 h 9.02 v 0 h 9.02 v 0 h 9.03 v 0 h 9.02 v 0 h 9.02 v 0 h 9.02 v 0 h 9.03 v 0 h 9.02 v 0 h 9.02 v 0 h 9.02 v 0 h 9.04 v 0 h 9.02 v 0 h 9.02 v 0 h 9.02 v 0 h 9.03 v 0 h 9.02 v 0 h 9.02 v 0 h 9.02 v 0 h 9.03 v 0 h 9.02 v 0 h 9.02 v 0 h 9.02 v 0 h 9.03 v 0 h 9.02 v 0 h 9.02 v 0 h 9.02 v 0 h 9.03 v 0 h 9.02 v 0 h 9.02 v 0 h 9.02 v 0 h 9.02 v 0 h 9.03 v 0 h 9.02 v 0 h 9.02 v 0 h 9.02 v 0 h 9.03 v 0 h 9.02 v 0 h 9.02 v 0 h 9.02 v 0 h 9.03 v 0 h 9.02 v 0 h 9.02 v 0 h 9.02 v 0 h 9.03 v 0 h 9.02 v 0 h 9.02 v 0 h 9.02 v 0 h 9.03 v 0 h 9.02 v 0 h 9.02 v 0 h 9.02 v 0 h 9.03 v 0 h 9.02 v 0 h 9.02 v 0 h 9.02 v 0 h 9.03 v 0 h 9.02 v 0 h 9.02 v 0 h 9.02 v 0 h 9.03 v 0 h 9.02 v 0 h 9.02 v 0 h 9.02 v 0 h 9.03 v 0 h 9.02 v 0 h 9.02 v 0 h 9.02 v 0 h 9.03 v 0 h 9.02 v 0 h 9.02 v 0 h 9.02 v 0 h 9.03 v 0 h 9.02 v 0 h 9.02 v 0 h 9.03 v 0 h 9.02 v 0 h 9.02 v 0 h 9.02 v 0 h 9.03 v 0 h 9.02 v 0 h 9.02 v 0 h 9.02 v 0 h 9.03 v 0 h 9.02 v 0 h 9.02 v 0 h 9.02 v 0 h 9.03 v 0 h 9.02 v 0 h 9.02 v 0 h 9.02 v 0 h 9.03 v 0 h 9.02 v 0 h 9.02 v 0 h 9.02 v 0 h 9.03 v 0 h 9.02 v 0 h 9.02 v 0 h 9.02 v 0 h 9.03 v 0 h 9.02 v 0 h 9.02 v 0 h 9.02 v 0 h 9.03 v 0 h 9.02 v 0 h 9.02 v 0 h 9.02 v 0 h 9.03 v 0 h 9.02 v 0 h 9.02 v 0 h 9.02 v 0 h 9.03 v 0 h 9.02 v 0 h 9.02 v 0 h 9.02 v 0 h 9.03 v 0 h 9.02 v 0 h 9.02 v 0 h 9.02 v 0 h 9.03 v 0 h 9.02 v 0 h 9.02 v 0 h 9.02 v 0 h 9.03 v 0 h 9.02 v 0 h 9.02 v 0 h 9.02 v 0 h 9.03 v 0 h 9.02 v 0 h 9.02 v 0 h 9.02 v 0 h 9.02 v 0 h 9.03 v 0 h 9.02 v 0 h 9.02 v 0 h 9.02 v 0 h 9.03 v 0 h 9.02 v 0 h 9.02 v 0 h 9.02 v 0 h 9.03 v 0 h 9.02 v 0 h 9.02 v 0 h 9.02 v 0 h 9.04 v 0 h 9.02 v 0 h 9.02 v 0 h 9.02 v 0 h 9.03 v 0 h 9.02 v 0 h 9.02 v 0 h 9.02 v 0 h 9.03 v 0 h 9.02 v 0 h 9.02 v 0 h 9.02 v 0 h 9.03 v 0 h 9.02 v 0 h 9.02 v 0 h 9.02 v 0 h 9.03 v 0 h 9.02 v 0 h 9.02 v 0 h 9.02 v 0 h 9.02 v 0 h 9.03 v 0 h 9.02 v 0 h 9.02 v 0 h 9.02 v 0 h 9.03 v 0 h 9.02 v 0 h 9.02 v 0 h 9.02 v 0 h 9.03 v 0 h 9.02 v 0 h 9.02 v 0 h 9.02 v 0 h 9.03 v 0 h 9.02 v 0 h 9.02 v 0 h 9.02 v 0 h 9.03 v 0 h 9.02 v 0 h 9.02 v 0 h 9.02 v 0 h 9.03 v 0 h 9.02 v 0 h 9.02 v 0 h 9.02 v 0 h 9.03 v 0 h 9.02 v 0 h 9.02 v 0 h 9.02 v 0 h 9.03 v 0 h 9.02 v 0 h 9.02 v 0 h 9.02 v 0 h 9.03 v 0 h 9.02 v 0 h 9.02 v 0 h 9.02 v 0 h 9.03 v 0 h 9.02 v 0 h 9.02 v 0 h 9.02 v 0 h 9.03 v 0 h 9.02 v 0 h 9.02 v 0 h 9.03 v 0 h 9.02 v 0 h 9.02 v 0 h 9.02 v 0 h 9.03 v 0 h 9.02 v 0 h 9.02 v 0 h 9.02 v 0 h 9.03 v 0 h 9.02 v 0 h 9.02 v 0 h 9.02 v 0 h 9.03 v 0 h 9.02 v 0 h 9.02 v 0 h 9.02 v 0 h 9.03 v 0 h 9.02 v 0 h 9.02 v 0 h 9.02 v 0 h 9.03 v 0 h 9.02 v 0 h 9.02 v 0 h 9.02 v 0 h 9.03 v 0 h 9.02 v 0 h 9.02 v 0 h 9.02 v 0 h 9.03 v 0 h 9.02 v 0 h 9.02 v 0 h 9.02 v 0 h 9.03 v 0 h 9.02 v 0 h 9.02 v 0 h 9.02 v 0 h 9.03 v 0 h 9.02 v 0 h 9.02 v 0 h 9.02 v 0 h 9.03 v 0 h 9.02 v 0 h 9.02 v 0 h 9.02 v 0 h 9.03 v 0 h 9.02 v 0 h 9.02 v 0 h 9.02 v 0 h 9.03 v 0 h 9.02 v 0 h 9.02 v 0 h 9.02 v 0 h 9.03 v 0 h 9.02 v 0 h 9.02 v 0 h 9.02 v 0 h 9.02 v 0 h 9.03 v 0 h 9.02 v 0 h 9.02 v 0 h 9.02 v 0 h 9.03 v 0 h 9.02 v 0 h 9.03 v 0 h 9.01 v 0 h 9.04 v 0 h 9.02 v 0 h 9.01 v 0 h 9.02 v 0 h 9.03 v 0 h 9.03 v 0 h 9.02 v 0 h 9.02 v 0 h 9.03 v 0 h 9.01 v 0 h 9.03 v 0 h 9.02 v 0 h 9.03 v 0 h 9.02 v 0 h 9.02 v 0 h 9.02 v 0 h 9.03 v 0 h 9.02 v 0 h 9.02 v 0 h 9.02 v 0 h 9.03 v 0 h 9.02 v 0 h 9.02 v 0 h 9.02 v 0 h 9.02 v 0 h 9.03 v 0 h 9.02 v 0 h 9.02 v 0 h 9.02 v 0 h 9.03 v 0 h 9.02 v 0 h 9.03 v 0 h 9.01 v 0 h 9.03 v 0 h 9.02 v 0 h 9.02 v 0 h 9.02 v 0 h 9.03 v 0 h 9.02 v 0 h 9.02 v 0 h 9.02 v 0 h 9.03 v 0 h 9.02 v 0 h 9.02 v 0 h 9.02 v 0 h 9.03 v 0 h 9.02 v 0 h 9.02 v 0 h 9.03 v 0 h 9.02 v 0 h 9.02 v 0 h 9.02 v 0 h 9.02 v 0 h 9.03 v 0 h 9.02 v 0 h 9.02 v 0 h 9.02 v 0 h 9.03 v 0 h 9.02 v 0 h 9.02 v 0 h 9.02 v 0 h 9.03 v 0 h 9.02 v 0 h 9.02 v 0 h 9.03 v 0 h 9.02 v 0 h 9.02 v 0 h 9.02 v 0 h 9.03 v 0 h 9.02 v 0 h 9.02 v 0" /><path
         id="path110"
         style="fill:none;stroke:#000000;stroke-width:15;stroke-linecap:butt;stroke-linejoin:bevel;stroke-miterlimit:10;stroke-dasharray:15, 15;stroke-dashoffset:0;stroke-opacity:1"
         d="m 1395,736.793 h 9.02 v 0 h 9.03 v 0 h 9.02 v 0 h 9.02 v 0 h 9.02 v 0 h 9.03 v 0 h 9.02 v 0 h 9.02 v 0 h 9.02 v 0 h 9.03 v 0 h 9.02 v 0 h 9.02 v 0 h 9.02 v 0 h 9.03 v 0 h 9.02 v 0 h 9.02 v 0 h 9.02 v 0 h 9.03 v 0 h 9.02 v 0 h 9.02 v 0 h 9.02 v 0 h 9.03 v 0 h 9.02 v 0 h 9.02 v 0 h 9.02 v 0 h 9.03 v 0 h 9.02 v 0 h 9.02 v 0 h 9.02 v 0 h 9.03 v 0 h 9.02 v 0 h 9.02 v 0 h 9.02 v 0 h 9.03 v 0 h 9.02 v 0 h 9.02 v 0 h 9.02 v 0 h 9.03 v 0 h 9.02 v 0 h 9.02 v 0 h 9.02 v 0 h 9.03 v 0 h 9.02 v 0 h 9.02 v 0 h 9.02 v 0 h 9.03 v 0 h 9.02 v 0 h 9.02 v 0 h 9.02 v 0 h 9.03 v 0 h 9.02 v 0 h 9.02 v 0 h 9.02 v 0 h 9.02 v 0 h 9.03 v 0 h 9.02 v 0 h 9.02 v 0 h 9.02 v 0 h 9.03 v 0 h 9.02 v 0 h 9.02 v 0 h 9.02 v 0 h 9.03 v 0 h 9.02 v 0 h 9.02 v 0 h 9.02 v 0 h 9.04 v 0 h 9.02 v 0 h 9.02 v 0 h 9.02 v 0 h 9.03 v 0 h 9.02 v 0 h 9.02 v 0 h 9.02 v 0 h 9.03 v 0 h 9.02 v 0 h 9.02 v 0 h 9.02 v 0 h 9.03 v 0 h 9.02 v 0 h 9.02 v 0 h 9.02 v 0 h 9.03 v 0 h 9.02 v 0 h 9.02 v 0 h 9.02 v 0 h 9.02 v 0 h 9.03 v 0 h 9.02 v 0 h 9.02 v 0 h 9.02 v 0 h 9.03 v 0 h 9.02 v 0 h 9.02 v 0 h 9.02 v 0 h 9.03 v 0 h 9.02 v 0 h 9.02 v 0 h 9.02 v 0 h 9.03 v 0 h 9.02 v 0 h 9.02 v 0 h 9.02 v 0 h 9.03 v 0 h 9.02 v 0 h 9.02 v 0 h 9.02 v 0 h 9.03 v 0 h 9.02 v 0 h 9.02 v 0 h 9.02 v 0 h 9.03 v 0 h 9.02 v 0 h 9.02 v 0 h 9.02 v 0 h 9.03 v 0 h 9.02 v 0 h 9.02 v 0 h 9.02 v 0 h 9.03 v 0 h 9.02 v 0 h 9.02 v 0 h 9.02 v 0 h 9.03 v 0 h 9.02 v 0 h 9.02 v 0 h 9.02 v 0 h 9.03 v 0 h 9.02 v 0 h 9.02 v 0 h 9.03 v 0 h 9.02 v 0 h 9.02 v 0 h 9.02 v 0 h 9.03 v 0 h 9.02 v 0 h 9.02 v 0 h 9.02 v 0 h 9.03 v 0 h 9.02 v 0 h 9.02 v 0 h 9.02 v 0 h 9.03 v 0 h 9.02 v 0 h 9.02 v 0 h 9.02 v 0 h 9.03 v 0 h 9.02 v 0 h 9.02 v 0 h 9.02 v 0 h 9.03 v 0 h 9.02 v 0 h 9.02 v 0 h 9.02 v 0 h 9.03 v 0 h 9.02 v 0 h 9.02 v 0 h 9.02 v 0 h 9.03 v 0 h 9.02 v 0 h 9.02 v 0 h 9.02 v 0 h 9.03 v 0 h 9.02 v 0 h 9.02 v 0 h 9.02 v 0 h 9.03 v 0 h 9.02 v 0 h 9.02 v 0 h 9.02 v 0 h 9.03 v 0 h 9.02 v 0 h 9.02 v 0 h 9.02 v 0 h 9.03 v 0 h 9.02 v 0 h 9.02 v 0 h 9.02 v 0 h 9.03 v 0 h 9.02 v 0 h 9.02 v 0 h 9.02 v 0 h 9.03 v 0 h 9.02 v 0 h 9.02 v 0 h 9.02 v 0 h 9.02 v 0 h 9.03 v 0 h 9.02 v 0 h 9.02 v 0 h 9.02 v 0 h 9.03 v 0 h 9.02 v 0 h 9.02 v 0 h 9.02 v 0 h 9.03 v 0 h 9.02 v 0 h 9.02 v 0 h 9.02 V 2314.01 h 9.04 v 0 h 9.02 v 0 h 9.02 v 0 h 9.02 v 0 h 9.03 v 0 h 9.02 v 0 h 9.02 v 0 h 9.02 v 0 h 9.03 v 0 h 9.02 v 0 h 9.02 v 0 h 9.02 v 0 h 9.03 v 0 h 9.02 v 0 h 9.02 v 0 h 9.02 v 0 h 9.03 v 0 h 9.02 v 0 h 9.02 v 0 h 9.02 v 0 h 9.02 v 0 h 9.03 v 0 h 9.02 v 0 h 9.02 v 0 h 9.02 v 0 h 9.03 v 0 h 9.02 v 0 h 9.02 v 0 h 9.02 v 0 h 9.03 v 0 h 9.02 v 0 h 9.02 v 0 h 9.02 v 0 h 9.03 v 0 h 9.02 v 0 h 9.02 v 0 h 9.02 v 0 h 9.03 v 0 h 9.02 v 0 h 9.02 v 0 h 9.02 v 0 h 9.03 v 0 h 9.02 v 0 h 9.02 v 0 h 9.02 v 0 h 9.03 v 0 h 9.02 v 0 h 9.02 v 0 h 9.02 v 0 h 9.03 v 0 h 9.02 v 0 h 9.02 v 0 h 9.02 v 0 h 9.03 v 0 h 9.02 v 0 h 9.02 v 0 h 9.02 v 0 h 9.03 v 0 h 9.02 v 0 h 9.02 v 0 h 9.02 v 0 h 9.03 v 0 h 9.02 v 0 h 9.02 v 0 h 9.03 v 0 h 9.02 v 0 h 9.02 v 0 h 9.02 v 0 h 9.03 v 0 h 9.02 v 0 h 9.02 v 0 h 9.02 v 0 h 9.03 v 0 h 9.02 v 0 h 9.02 v 0 h 9.02 v 0 h 9.03 v 0 h 9.02 v 0 h 9.02 v 0 h 9.02 v 0 h 9.03 v 0 h 9.02 v 0 h 9.02 v 0 h 9.02 v 0 h 9.03 v 0 h 9.02 v 0 h 9.02 v 0 h 9.02 v 0 h 9.03 v 0 h 9.02 v 0 h 9.02 v 0 h 9.02 v 0 h 9.03 v 0 h 9.02 v 0 h 9.02 v 0 h 9.02 v 0 h 9.03 v 0 h 9.02 v 0 h 9.02 v 0 h 9.02 v 0 h 9.03 v 0 h 9.02 v 0 h 9.02 v 0 h 9.02 v 0 h 9.03 v 0 h 9.02 v 0 h 9.02 v 0 h 9.02 v 0 h 9.03 v 0 h 9.02 v 0 h 9.02 v 0 h 9.02 v 0 h 9.03 v 0 h 9.02 v 0 h 9.02 v 0 h 9.02 v 0 h 9.03 v 0 h 9.02 v 0 h 9.02 v 0 h 9.02 v 0 h 9.02 v 0 h 9.03 v 0 h 9.02 v 0 h 9.02 v 0 h 9.02 v 0 h 9.03 v 0 h 9.02 v 0 h 9.02 v 0 h 9.02 v 0 h 9.03 v 0 h 9.02 v 0 h 9.02 v 0 h 9.02 v 0 h 9.04 v 0 h 9.02 v 0 h 9.02 v 0 h 9.02 v 0 h 9.03 v 0 h 9.02 v 0 h 9.02 v 0 h 9.02 v 0 h 9.03 v 0 h 9.02 v 0 h 9.02 v 0 h 9.02 v 0 h 9.03 v 0 h 9.02 v 0 h 9.02 v 0 h 9.02 v 0 h 9.03 v 0 h 9.02 v 0 h 9.02 v 0 h 9.02 v 0 h 9.02 v 0 h 9.03 v 0 h 9.02 v 0 h 9.02 v 0 h 9.02 v 0 h 9.03 v 0 h 9.02 v 0 h 9.02 v 0 h 9.02 v 0 h 9.03 v 0 h 9.02 v 0 h 9.02 v 0 h 9.02 v 0 h 9.03 v 0 h 9.02 v 0 h 9.02 v 0 h 9.02 v 0 h 9.03 v 0 h 9.02 v 0 h 9.02 v 0 h 9.02 v 0 h 9.03 v 0 h 9.02 v 0 h 9.02 v 0 h 9.02 v 0 h 9.03 v 0 h 9.02 v 0 h 9.02 v 0 h 9.02 v 0 h 9.03 v 0 h 9.02 v 0 h 9.02 v 0 h 9.02 v 0 h 9.03 v 0 h 9.02 v 0 h 9.02 v 0 h 9.02 v 0 h 9.03 v 0 h 9.02 v 0 h 9.02 v 0 h 9.02 v 0 h 9.03 v 0 h 9.02 v 0 h 9.02 v 0 h 9.03 v 0 h 9.02 v 0 h 9.02 v 0 h 9.02 v 0 h 9.03 v 0 h 9.02 v 0 h 9.02 v 0 h 9.02 v 0 h 9.03 v 0 h 9.02 v 0 h 9.02 v 0 h 9.02 v 0 h 9.03 v 0 h 9.02 v 0 h 9.02 v 0 h 9.02 v 0 h 9.03 v 0 h 9.02 v 0 h 9.02 v 0 h 9.02 v 0 h 9.03 v 0 h 9.02 v 0 h 9.02 v 0 h 9.02 v 0 h 9.03 v 0 h 9.02 v 0 h 9.02 v 0 h 9.02 v 0 h 9.03 v 0 h 9.02 v 0 h 9.02 v 0 h 9.02 v 0 h 9.03 v 0 h 9.02 v 0 h 9.02 v 0 h 9.02 v 0 h 9.03 v 0 h 9.02 v 0 h 9.02 v 0 h 9.02 v 0 h 9.03 v 0 h 9.02 v 0 h 9.02 v 0 h 9.02 v 0 h 9.03 v 0 h 9.02 v 0 h 9.02 v 0 h 9.02 v 0 h 9.03 v 0 h 9.02 v 0 h 9.02 v 0 h 9.02 v 0 h 9.03 v 0 h 9.02 v 0 h 9.02 v 0 h 9.02 v 0 h 9.02 v 0 h 9.03 v 0 h 9.02 v 0 h 9.02 v 0 h 9.02 v 0 h 9.03 v 0 h 9.02 v 0 h 9.02 v 0 h 9.02 v 0 h 9.03 v 0 h 9.02 v 0 h 9.02 v 0 h 9.02 v 0 h 9.04 v 0 h 9.02 v 0 h 9.02 v 0 h 9.02 v 0 h 9.03 v 0 h 9.02 v 0 h 9.02 v 0 h 9.02 v 0 h 9.03 v 0 h 9.02 v 0 h 9.02 v 0 h 9.02 v 0 h 9.03 v 0 h 9.02 v 0 h 9.02 v 0 h 9.02 v 0 h 9.03 v 0 h 9.02 v 0 h 9.02 v 0 h 9.02 v 0 h 9.02 v 0 h 9.03 v 0 h 9.02 v 0 h 9.02 v 0 h 9.02 v 0 h 9.03 v 0 h 9.02 v 0 h 9.02 v 0 h 9.02 v 0 h 9.03 v 0 h 9.02 v 0 h 9.02 v 0 h 9.02 v 0 h 9.03 v 0 h 9.02 v 0 h 9.02 v 0 h 9.02 v 0 h 9.03 v 0 h 9.02 v 0 h 9.02 v 0 h 9.02 v 0 h 9.03 v 0 h 9.02 v 0 h 9.02 v 0 h 9.02 v 0 h 9.03 v 0 h 9.02 v 0 h 9.02 v 0 h 9.02 v 0 h 9.03 v 0 h 9.02 v 0 h 9.02 v 0 h 9.02 v 0 h 9.03 v 0 h 9.02 v 0 h 9.02 v 0 h 9.02 v 0 h 9.03 v 0 h 9.02 v 0 h 9.02 v 0 h 9.02 v 0 h 9.03 v 0 h 9.02 v 0 h 9.02 v 0 h 9.03 v 0 h 9.02 v 0 h 9.02 v 0 h 9.02 v 0 h 9.03 v 0 h 9.02 v 0 h 9.02 v 0 h 9.02 v 0 h 9.03 v 0 h 9.02 v 0 h 9.02 v 0 h 9.02 v 0 h 9.03 v 0 h 9.02 v 0 h 9.02 v 0 h 9.02 v 0 h 9.03 v 0 h 9.02 v 0 h 9.02 v 0 h 9.02 v 0 h 9.03 v 0 h 9.02 v 0 h 9.02 v 0 h 9.02 v 0 h 9.03 v 0 h 9.02 v 0 h 9.02 v 0 h 9.02 v 0 h 9.03 v 0 h 9.02 v 0 h 9.02 v 0 h 9.02 v 0 h 9.03 v 0 h 9.02 v 0 h 9.02 v 0 h 9.02 v 0 h 9.03 v 0 h 9.02 v 0 h 9.02 v 0 h 9.02 v 0 h 9.03 v 0 h 9.02 v 0 h 9.02 v 0 h 9.02 v 0 h 9.03 v 0 h 9.02 v 0 h 9.02 v 0 h 9.02 v 0 h 9.03 v 0 h 9.02 v 0 h 9.02 v 0 h 9.02 v 0 h 9.03 v 0 h 9.02 v 0 h 9.02 v 0 h 9.02 v 0 h 9.02 v 0 h 9.03 v 0 h 9.02 v 0 h 9.02 v 0 h 9.02 v 0 h 9.03 v 0 h 9.02 v 0 h 9.02 v 0 h 9.02 v 0 h 9.03 v 0 h 9.02 v 0 h 9.02 v 0 h 9.02 v 0 h 9.04 v 0 h 9.02 v 0 h 9.02 v 0 h 9.02 v 0 h 9.03 v 0 h 9.02 v 0 h 9.02 v 0 h 9.02 v 0 h 9.03 v 0 h 9.02 v 0 h 9.02 v 0 h 9.02 v 0 h 9.03 v 0 h 9.02 v 0 h 9.02 v 0 h 9.02 v 0 h 9.03 v 0 h 9.02 v 0 h 9.02 v 0 h 9.02 v 0 h 9.02 v 0 h 9.03 v 0 h 9.02 v 0 h 9.02 v 0 h 9.02 v 0 h 9.03 v 0 h 9.02 v 0 h 9.02 v 0 h 9.02 v 0 h 9.03 v 0 h 9.02 v 0 h 9.02 v 0 h 9.02 v 0 h 9.03 v 0 h 9.02 v 0 h 9.02 v 0 h 9.02 v 0 h 9.03 v 0 h 9.02 v 0 h 9.02 v 0 h 9.02 v 0 h 9.03 v 0 h 9.02 v 0 h 9.02 v 0 h 9.02 v 0 h 9.03 v 0 h 9.02 v 0 h 9.02 v 0 h 9.02 v 0 h 9.03 v 0 h 9.02 v 0 h 9.02 v 0 h 9.02 v 0 h 9.03 v 0 h 9.02 v 0 h 9.02 v 0 h 9.02 v 0 h 9.03 v 0 h 9.02 v 0 h 9.02 v 0 h 9.02 v 0 h 9.03 v 0 h 9.02 v 0 h 9.02 v 0 h 9.03 v 0 h 9.02 v 0 h 9.02 v 0 h 9.02 v 0 h 9.03 v 0 h 9.02 v 0 h 9.02 v 0 h 9.02 v 0 h 9.03 v 0 h 9.02 v 0 h 9.02 v 0 h 9.02 v 0 h 9.03 v 0 h 9.02 v 0 h 9.02 v 0 h 9.02 v 0 h 9.03 v 0 h 9.02 v 0 h 9.02 v 0 h 9.02 v 0 h 9.03 v 0 h 9.02 v 0 h 9.02 v 0 h 9.02 v 0 h 9.03 v 0 h 9.02 v 0 h 9.02 v 0 h 9.02 v 0 h 9.03 v 0 h 9.02 v 0 h 9.02 v 0 h 9.02 v 0 h 9.03 v 0 h 9.02 v 0 h 9.02 v 0 h 9.02 v 0 h 9.03 v 0 h 9.02 v 0 h 9.02 v 0 h 9.02 v 0 h 9.03 v 0 h 9.02 v 0 h 9.02 v 0 h 9.02 v 0 h 9.03 v 0 h 9.02 v 0 h 9.02 v 0 h 9.02 v 0 h 9.03 v 0 h 9.02 v 0 h 9.02 v 0 h 9.02 v 0 h 9.03 v 0 h 9.02 v 0 h 9.02 v 0 h 9.02 v 0 h 9.02 v 0 h 9.03 v 0 h 9.02 v 0 h 9.02 v 0 h 9.02 v 0 h 9.03 v 0 h 9.02 v 0 h 9.03 v 0 h 9.01 v 0 h 9.04 v 0 h 9.02 v 0 h 9.01 v 0 h 9.02 v 0 h 9.03 v 0 h 9.03 v 0 h 9.02 v 0 h 9.02 v 0 h 9.03 v 0 h 9.01 v 0 h 9.03 v 0 h 9.02 v 0 h 9.03 v 0 h 9.02 v 0 h 9.02 v 0 h 9.02 v 0 h 9.03 v 0 h 9.02 v 0 h 9.02 v 0 h 9.02 v 0 h 9.03 v 0 h 9.02 v 0 h 9.02 v 0 h 9.02 v 0 h 9.02 v 0 h 9.03 v 0 h 9.02 v 0 h 9.02 v 0 h 9.02 v 0 h 9.03 v 0 h 9.02 v 0 h 9.03 v 0 h 9.01 v 0 h 9.03 v 0 h 9.02 v 0 h 9.02 v 0 h 9.02 v 0 h 9.03 v 0 h 9.02 v 0 h 9.02 v 0 h 9.02 v 0 h 9.03 v 0 h 9.02 v 0 h 9.02 v 0 h 9.02 v 0 h 9.03 v 0 h 9.02 v 0 h 9.02 v 0 h 9.03 v 0 h 9.02 v 0 h 9.02 v 0 h 9.02 v 0 h 9.02 v 0 h 9.03 v 0 h 9.02 v 0 h 9.02 v 0 h 9.02 v 0 h 9.03 v 0 h 9.02 v 0 h 9.02 v 0 h 9.02 v 0 h 9.03 v 0 h 9.02 v 0 h 9.02 v 0 h 9.03 v 0 h 9.02 v 0 h 9.02 v 0 h 9.02 v 0 h 9.03 v 0 h 9.02 v 0 h 9.02 v 0" /><path
         id="path112"
         style="fill:#ffffff;fill-opacity:1;fill-rule:nonzero;stroke:none"
         d="m 7372.5,697.5 h 1125 V 1530 h -1125 z" /><path
         id="path114"
         style="fill:#000000;fill-opacity:1;fill-rule:nonzero;stroke:none"
         d="m 7743.18,1298.5 c 3.04,-5.24 8.36,-7.86 15.94,-7.86 6.87,0 12.81,2.43 17.81,7.27 5,4.84 9.04,10.68 12.12,17.52 3.09,6.84 5.49,13.81 7.21,20.92 -6.41,-6.1 -13.4,-9.14 -20.97,-9.14 -5.71,0 -10.58,0.99 -14.6,2.98 -4.02,2 -7.14,4.97 -9.37,8.91 -2.23,3.95 -3.34,8.69 -3.34,14.24 0,4.76 0.62,9.64 1.87,14.64 1.25,5 3.03,10.56 5.34,16.65 2.3,6.09 4.31,11.41 6.03,15.94 1.88,5.31 2.82,9.68 2.82,13.12 0,4.3 -1.57,6.45 -4.69,6.45 -5.78,0 -10.53,-2.95 -14.24,-8.85 -3.72,-5.9 -6.47,-12.52 -8.26,-19.87 -0.24,-0.85 -0.82,-1.28 -1.76,-1.28 h -2.58 c -1.17,0 -1.76,0.66 -1.76,1.99 v 0.58 c 2.35,8.68 5.92,16.36 10.73,23.04 4.8,6.68 10.88,10.02 18.22,10.02 5.16,0 9.53,-1.7 13.12,-5.11 3.59,-3.39 5.39,-7.71 5.39,-12.95 0,-2.65 -0.58,-5.46 -1.75,-8.43 -0.71,-1.8 -2.19,-5.67 -4.46,-11.61 -2.27,-5.93 -3.98,-10.85 -5.15,-14.76 -1.18,-3.91 -2.15,-7.74 -2.94,-11.49 -0.77,-3.75 -1.16,-7.5 -1.16,-11.25 0,-4.84 1.01,-8.92 3.04,-12.24 2.03,-3.32 5.27,-4.98 9.73,-4.98 8.98,0 17.07,5.51 24.25,16.53 l 16.41,66.91 c 0.55,1.95 1.7,3.61 3.46,4.98 1.75,1.36 3.65,2.05 5.68,2.05 1.8,0 3.36,-0.57 4.69,-1.7 1.33,-1.13 1.99,-2.59 1.99,-4.39 0,-0.86 -0.08,-1.45 -0.23,-1.76 l -21.56,-86.49 c -1.96,-7.5 -5.48,-14.64 -10.55,-21.44 -5.08,-6.8 -11.21,-12.27 -18.4,-16.41 -7.19,-4.14 -14.69,-6.21 -22.5,-6.21 -3.75,0 -7.46,0.74 -11.13,2.23 -3.67,1.48 -6.64,3.67 -8.91,6.56 -2.26,2.89 -3.4,6.29 -3.4,10.19 0,3.91 1.18,7.32 3.52,10.25 2.34,2.94 5.43,4.4 9.26,4.4 2.34,0 4.31,-0.72 5.92,-2.17 1.6,-1.44 2.39,-3.34 2.39,-5.68 0,-3.36 -1.22,-6.26 -3.68,-8.73 -2.46,-2.46 -5.37,-3.69 -8.73,-3.69 -0.16,0.08 -0.3,0.12 -0.42,0.12 -0.11,0 -0.25,0 -0.4,0" /><path
         id="path116"
         style="fill:#000000;fill-opacity:1;fill-rule:nonzero;stroke:none"
         d="m 7864.39,1294.91 c -5,0 -9.37,1.31 -13.12,3.93 -3.75,2.62 -6.62,6.13 -8.61,10.54 -2,4.42 -3,9.08 -3,14.01 0,7.5 1.9,14.55 5.69,21.15 3.79,6.6 8.91,11.87 15.35,15.82 6.45,3.94 13.34,5.92 20.69,5.92 4.53,0 8.47,-1.17 11.83,-3.51 3.36,-2.35 5.04,-5.71 5.04,-10.08 0,-6.02 -2.4,-10.49 -7.21,-13.42 -4.8,-2.93 -10.23,-4.75 -16.28,-5.45 -6.06,-0.7 -12.76,-1.05 -20.11,-1.05 h -0.46 c -1.72,-6.25 -2.58,-11.61 -2.58,-16.06 0,-4.69 1.09,-8.81 3.29,-12.36 2.18,-3.56 5.46,-5.33 9.84,-5.33 6.25,0 12.26,1.44 18.04,4.33 5.78,2.89 10.47,6.88 14.06,11.95 0.32,0.32 0.75,0.47 1.29,0.47 0.47,0 0.98,-0.29 1.52,-0.88 0.55,-0.58 0.83,-1.15 0.83,-1.7 0,-0.39 -0.08,-0.7 -0.23,-0.94 -3.91,-5.39 -9.11,-9.62 -15.6,-12.71 -6.47,-3.08 -13.23,-4.63 -20.27,-4.63 z m -9.25,41.96 c 6.09,0 11.74,0.27 16.93,0.82 5.2,0.54 9.89,1.95 14.07,4.21 4.18,2.27 6.27,5.83 6.27,10.67 0,1.95 -0.53,3.65 -1.59,5.09 -1.05,1.45 -2.44,2.56 -4.16,3.34 -1.72,0.79 -3.52,1.18 -5.39,1.18 -4.45,0 -8.45,-1.21 -12.01,-3.64 -3.55,-2.41 -6.48,-5.56 -8.79,-9.43 -2.31,-3.87 -4.08,-7.95 -5.33,-12.24" /><path
         id="path118"
         style="fill:#000000;fill-opacity:1;fill-rule:nonzero;stroke:none"
         d="m 7918.18,1306.28 c 2.8,-4.84 8.47,-7.26 16.98,-7.26 3.68,0 7.18,0.64 10.5,1.92 3.32,1.29 6.07,3.19 8.25,5.69 2.19,2.5 3.29,5.55 3.29,9.14 0,2.73 -0.98,4.96 -2.93,6.68 -1.96,1.72 -4.34,2.89 -7.15,3.51 l -8.56,1.65 c -3.83,1.01 -7.01,2.85 -9.55,5.51 -2.54,2.65 -3.81,5.89 -3.81,9.72 0,4.61 1.27,8.71 3.81,12.3 2.54,3.6 5.88,6.36 10.03,8.27 4.13,1.91 8.47,2.87 13,2.87 4.76,0 9.02,-1.14 12.77,-3.4 3.75,-2.27 5.63,-5.67 5.63,-10.19 0,-2.35 -0.69,-4.46 -2.05,-6.33 -1.37,-1.88 -3.26,-2.82 -5.69,-2.82 -1.32,0 -2.5,0.45 -3.51,1.35 -1.02,0.9 -1.53,2.06 -1.53,3.46 0,1.25 0.36,2.44 1.06,3.57 0.7,1.13 1.62,2.06 2.75,2.76 1.14,0.7 2.33,1.05 3.58,1.05 -0.94,2.27 -2.68,3.91 -5.22,4.92 -2.54,1.02 -5.26,1.53 -8.14,1.53 -2.66,0 -5.31,-0.53 -7.97,-1.58 -2.65,-1.06 -4.81,-2.64 -6.45,-4.75 -1.64,-2.11 -2.46,-4.57 -2.46,-7.39 0,-1.87 0.67,-3.53 1.99,-4.98 1.34,-1.44 2.98,-2.48 4.93,-3.1 l 9.14,-1.75 c 2.97,-0.63 5.67,-1.73 8.08,-3.29 2.43,-1.56 4.34,-3.54 5.75,-5.92 1.4,-2.38 2.1,-5.13 2.1,-8.26 0,-3.9 -1.09,-7.75 -3.28,-11.54 -2.18,-3.79 -4.84,-6.82 -7.97,-9.08 -5.62,-3.75 -12.45,-5.63 -20.5,-5.63 -5.62,0 -10.76,1.29 -15.41,3.87 -4.65,2.58 -6.98,6.41 -6.98,11.49 0,2.8 0.82,5.28 2.47,7.44 1.63,2.15 3.9,3.22 6.8,3.22 1.71,0 3.14,-0.53 4.27,-1.58 1.13,-1.06 1.69,-2.4 1.69,-4.05 0,-2.42 -0.89,-4.53 -2.69,-6.32 -1.79,-1.8 -3.9,-2.7 -6.32,-2.7 h -0.7" /><path
         id="path120"
         style="fill:#000000;fill-opacity:1;fill-rule:nonzero;stroke:none"
         d="m 7986.38,1309.44 c 0,1.56 0.15,3.01 0.47,4.34 l 11.36,45.24 h -16.52 c -1.02,0 -1.53,0.7 -1.53,2.11 0.39,2.26 1.06,3.39 2,3.39 h 17.46 l 6.33,25.78 c 0.39,1.33 1.21,2.48 2.46,3.45 1.25,0.98 2.62,1.48 4.1,1.48 1.4,0 2.56,-0.39 3.46,-1.18 0.89,-0.78 1.34,-1.84 1.34,-3.16 0,-0.32 -0.02,-0.57 -0.05,-0.76 -0.04,-0.2 -0.1,-0.38 -0.18,-0.53 l -6.33,-25.08 h 16.29 c 1.09,0 1.64,-0.66 1.64,-1.99 -0.08,-0.32 -0.2,-0.76 -0.35,-1.35 -0.16,-0.58 -0.37,-1.09 -0.65,-1.52 -0.27,-0.43 -0.64,-0.64 -1.11,-0.64 h -17.11 l -11.36,-45.48 c -0.78,-2.97 -1.17,-5.54 -1.17,-7.73 0,-4.53 1.56,-6.79 4.68,-6.79 4.61,0 8.69,2.16 12.24,6.5 3.56,4.33 6.28,9.12 8.15,14.36 0.39,0.54 0.82,0.81 1.29,0.81 h 1.87 c 0.39,0 0.73,-0.14 1,-0.4 0.28,-0.28 0.41,-0.58 0.41,-0.89 0,-0.23 -0.03,-0.38 -0.12,-0.46 -2.34,-6.41 -5.72,-12.01 -10.13,-16.82 -4.41,-4.8 -9.47,-7.21 -15.18,-7.21 -4.14,0 -7.64,1.35 -10.48,4.05 -2.86,2.69 -4.28,6.18 -4.28,10.48" /><path
         id="path122"
         style="fill:#000000;fill-opacity:1;fill-rule:nonzero;stroke:none"
         d="m 8044.57,1307.92 c 0,1.96 0.43,4.02 1.29,6.21 l 12.65,33.87 c 1.41,3.9 2.12,7.07 2.12,9.49 0,3.13 -1.14,4.69 -3.41,4.69 -4.22,0 -7.65,-2.13 -10.31,-6.39 -2.66,-4.26 -4.65,-9.04 -5.97,-14.35 -0.16,-0.71 -0.59,-1.06 -1.3,-1.06 h -1.87 c -0.86,0 -1.29,0.51 -1.29,1.52 v 0.48 c 1.72,6.25 4.32,11.79 7.79,16.64 3.48,4.84 7.87,7.26 13.19,7.26 3.75,0 6.91,-1.23 9.49,-3.69 2.58,-2.46 3.87,-5.61 3.87,-9.44 0,-1.95 -0.43,-3.98 -1.29,-6.09 l -12.78,-33.87 c -1.4,-3.51 -2.11,-6.68 -2.11,-9.49 0,-3.12 1.22,-4.68 3.64,-4.68 4.06,0 7.48,2.2 10.25,6.61 2.77,4.42 4.71,9.16 5.8,14.25 0.24,0.54 0.63,0.81 1.17,0.81 h 2 c 0.39,0 0.72,-0.14 0.99,-0.4 0.27,-0.28 0.41,-0.58 0.41,-0.89 0,-0.15 -0.08,-0.31 -0.23,-0.46 -1.41,-5.94 -3.88,-11.43 -7.44,-16.47 -3.56,-5.04 -7.99,-7.56 -13.31,-7.56 -3.67,0 -6.81,1.27 -9.43,3.81 -2.61,2.54 -3.92,5.6 -3.92,9.2 z m 17.81,84.14 c 0,2.26 0.92,4.3 2.75,6.09 1.83,1.8 3.85,2.7 6.04,2.7 1.79,0 3.28,-0.56 4.46,-1.7 1.16,-1.13 1.75,-2.52 1.75,-4.16 0,-2.34 -0.94,-4.42 -2.81,-6.21 -1.88,-1.8 -3.95,-2.7 -6.21,-2.7 -1.72,0 -3.15,0.59 -4.29,1.76 -1.12,1.17 -1.69,2.58 -1.69,4.22" /><path
         id="path124"
         style="fill:#000000;fill-opacity:1;fill-rule:nonzero;stroke:none"
         d="m 8097.5,1299.37 c 0,0.62 0.04,1.09 0.12,1.4 l 11.72,47 c 0.78,2.89 1.17,5.42 1.17,7.61 0,4.53 -1.52,6.8 -4.57,6.8 -3.28,0 -5.72,-1.95 -7.32,-5.86 -1.61,-3.91 -3.15,-8.87 -4.63,-14.88 0,-0.32 -0.16,-0.57 -0.47,-0.77 -0.31,-0.19 -0.58,-0.29 -0.82,-0.29 h -1.88 c -0.31,0 -0.61,0.19 -0.88,0.58 -0.27,0.4 -0.4,0.75 -0.4,1.06 1.17,4.61 2.26,8.5 3.27,11.66 1.02,3.17 2.66,6.06 4.93,8.67 2.26,2.62 5.04,3.93 8.32,3.93 3.98,0 7.48,-1.25 10.48,-3.75 3.01,-2.5 4.52,-5.67 4.52,-9.49 3.12,4.14 6.8,7.38 11.01,9.73 4.22,2.34 8.67,3.51 13.36,3.51 5,0 9.3,-1.27 12.89,-3.81 3.59,-2.54 5.39,-6.15 5.39,-10.84 3.29,4.61 7.09,8.2 11.43,10.78 4.34,2.58 9.04,3.87 14.12,3.87 5.47,0 9.85,-1.49 13.13,-4.45 3.28,-2.97 4.92,-7.15 4.92,-12.54 0,-4.3 -0.96,-9.5 -2.87,-15.59 -1.92,-6.09 -4.28,-12.93 -7.09,-20.51 -1.56,-3.59 -2.35,-6.75 -2.35,-9.49 0,-3.12 1.25,-4.68 3.75,-4.68 4.07,0 7.46,2.2 10.2,6.61 2.74,4.42 4.65,9.16 5.74,14.25 0.31,0.54 0.78,0.81 1.41,0.81 h 1.76 c 0.46,0 0.84,-0.14 1.11,-0.4 0.27,-0.28 0.41,-0.58 0.41,-0.89 0,-0.15 -0.04,-0.31 -0.12,-0.46 -1.48,-5.94 -4,-11.43 -7.56,-16.47 -3.55,-5.04 -7.99,-7.56 -13.3,-7.56 -3.75,0 -6.92,1.27 -9.49,3.81 -2.58,2.54 -3.87,5.6 -3.87,9.2 0,1.87 0.43,3.94 1.29,6.21 2.97,7.89 5.43,14.94 7.38,21.16 1.96,6.21 2.93,11.65 2.93,16.34 0,2.97 -0.58,5.47 -1.75,7.5 -1.18,2.03 -3.13,3.05 -5.87,3.05 -5.78,0 -10.76,-1.76 -14.94,-5.28 -4.18,-3.51 -7.83,-8.16 -10.95,-13.94 -0.16,-1.02 -0.31,-1.8 -0.47,-2.34 l -10.08,-40.43 c -0.39,-1.49 -1.21,-2.74 -2.46,-3.75 -1.25,-1.02 -2.66,-1.53 -4.22,-1.53 -1.25,0 -2.35,0.41 -3.28,1.23 -0.94,0.82 -1.41,1.9 -1.41,3.23 0,0.62 0.04,1.09 0.12,1.4 l 10.08,40.08 c 1.09,4.29 1.64,7.89 1.64,10.78 0,2.97 -0.6,5.47 -1.82,7.5 -1.21,2.03 -3.22,3.05 -6.03,3.05 -3.91,0 -7.47,-0.84 -10.66,-2.52 -3.21,-1.68 -6.02,-3.93 -8.44,-6.74 -2.43,-2.81 -4.65,-6.13 -6.69,-9.96 l -10.66,-42.77 c -0.31,-1.49 -1.11,-2.74 -2.4,-3.75 -1.29,-1.02 -2.68,-1.53 -4.16,-1.53 -1.33,0 -2.44,0.41 -3.34,1.23 -0.9,0.82 -1.35,1.9 -1.35,3.23" /><path
         id="path126"
         style="fill:#000000;fill-opacity:1;fill-rule:nonzero;stroke:none"
         d="m 8247.95,1294.91 c -6.64,0 -11.88,2.5 -15.7,7.5 -3.83,5 -5.74,10.9 -5.74,17.7 0,6.71 1.74,13.69 5.21,20.91 3.48,7.23 8.18,13.25 14.12,18.05 5.94,4.81 12.3,7.21 19.11,7.21 3.12,0 5.91,-0.84 8.37,-2.53 2.47,-1.67 4.39,-3.99 5.8,-6.96 1.18,4.22 3.48,6.33 6.92,6.33 1.33,0 2.44,-0.39 3.34,-1.18 0.9,-0.78 1.34,-1.83 1.34,-3.16 0,-0.32 0,-0.55 0,-0.7 0,-0.16 -0.03,-0.36 -0.11,-0.59 l -11.02,-43.95 c -0.7,-3.12 -1.05,-5.7 -1.05,-7.73 0,-4.53 1.52,-6.79 4.57,-6.79 3.28,0 5.78,2.09 7.5,6.27 1.71,4.17 3.16,9.04 4.34,14.59 0.15,0.54 0.54,0.81 1.17,0.81 h 1.99 c 0.39,0 0.7,-0.17 0.94,-0.53 0.23,-0.34 0.34,-0.68 0.34,-0.99 -1.79,-7.35 -3.78,-13.22 -5.97,-17.63 -2.19,-4.42 -5.74,-6.63 -10.66,-6.63 -3.52,0 -6.64,1.04 -9.38,3.11 -2.73,2.07 -4.41,4.82 -5.04,8.26 -6.8,-7.58 -13.59,-11.37 -20.39,-11.37 z m 0.12,4.11 c 3.82,0 7.52,1.42 11.07,4.27 3.56,2.85 6.62,6.19 9.2,10.02 0.08,0.15 0.12,0.31 0.12,0.47 l 8.43,34.22 0.12,0.46 c -0.62,3.75 -1.97,6.98 -4.04,9.67 -2.07,2.7 -4.86,4.05 -8.38,4.05 -3.51,0 -6.79,-1.45 -9.84,-4.34 -3.05,-2.89 -5.62,-6.33 -7.74,-10.31 -2.03,-4.14 -3.98,-9.89 -5.85,-17.23 -1.88,-7.34 -2.82,-13.05 -2.82,-17.11 0,-3.59 0.79,-6.85 2.34,-9.78 1.57,-2.93 4.03,-4.39 7.39,-4.39" /><path
         id="path128"
         style="fill:#000000;fill-opacity:1;fill-rule:nonzero;stroke:none"
         d="m 8329.36,1294.91 c -6.65,0 -11.88,2.5 -15.71,7.5 -3.83,5 -5.74,10.9 -5.74,17.7 0,6.71 1.73,13.69 5.22,20.91 3.47,7.23 8.17,13.25 14.11,18.05 5.94,4.81 12.31,7.21 19.1,7.21 3.13,0 5.92,-0.86 8.39,-2.58 2.46,-1.72 4.39,-4.02 5.8,-6.91 l 8.9,35.15 c 0.39,1.8 0.63,3.21 0.7,4.22 0,1.72 -3.4,2.58 -10.19,2.58 -1.09,0 -1.64,0.71 -1.64,2.11 0.08,0.24 0.2,0.69 0.35,1.34 0.15,0.67 0.39,1.18 0.71,1.53 0.31,0.35 0.69,0.53 1.17,0.53 l 21.2,1.75 c 1.34,0 2,-0.7 2,-2.11 l -22.74,-90.58 c -0.7,-1.72 -1.05,-4.22 -1.05,-7.5 0,-4.53 1.52,-6.79 4.57,-6.79 3.28,0 5.78,2.09 7.5,6.27 1.72,4.17 3.16,9.04 4.33,14.59 0.16,0.54 0.55,0.81 1.18,0.81 h 1.99 c 0.39,0 0.7,-0.17 0.94,-0.53 0.23,-0.34 0.35,-0.68 0.35,-0.99 -1.8,-7.35 -3.79,-13.22 -5.98,-17.63 -2.18,-4.42 -5.74,-6.63 -10.66,-6.63 -3.52,0 -6.64,1.04 -9.38,3.11 -2.73,2.07 -4.41,4.82 -5.04,8.26 -6.79,-7.58 -13.59,-11.37 -20.38,-11.37 z m 0.11,4.11 c 3.83,0 7.52,1.42 11.08,4.27 3.55,2.85 6.62,6.19 9.19,10.02 0.08,0.15 0.12,0.39 0.12,0.71 l 8.56,34.68 c -0.63,3.68 -1.97,6.84 -4.04,9.49 -2.08,2.66 -4.87,3.99 -8.39,3.99 -3.51,0 -6.79,-1.45 -9.84,-4.34 -3.04,-2.89 -5.62,-6.33 -7.73,-10.31 -2.04,-4.14 -3.99,-9.89 -5.87,-17.23 -1.87,-7.34 -2.81,-13.05 -2.81,-17.11 0,-3.59 0.78,-6.85 2.35,-9.78 1.56,-2.93 4.02,-4.39 7.38,-4.39" /><path
         id="path130"
         style="fill:#000000;fill-opacity:1;fill-rule:nonzero;stroke:none"
         d="m 8413.73,1294.91 c -4.93,0 -9.32,1.18 -13.18,3.52 -3.87,2.34 -6.86,5.52 -8.98,9.55 -2.1,4.02 -3.15,8.57 -3.15,13.65 0,7.11 1.99,14.14 5.97,21.1 3.99,6.95 9.26,12.61 15.82,16.98 6.56,4.38 13.48,6.57 20.74,6.57 3.91,0 7.39,-0.67 10.43,-1.99 3.05,-1.33 5.69,-3.21 7.92,-5.63 2.22,-2.42 3.94,-5.25 5.15,-8.5 1.21,-3.23 1.81,-6.73 1.81,-10.48 0,-5.47 -1.15,-10.86 -3.45,-16.18 -2.3,-5.31 -5.47,-10.13 -9.49,-14.46 -4.03,-4.34 -8.62,-7.78 -13.77,-10.32 -5.16,-2.54 -10.43,-3.81 -15.82,-3.81 z m 0.34,4.11 c 4.7,0 8.97,1.6 12.84,4.8 3.87,3.2 7.04,7.23 9.49,12.07 2.46,4.84 4.38,9.96 5.75,15.35 1.37,5.39 2.05,10.24 2.05,14.53 0,4.61 -1.16,8.5 -3.46,11.66 -2.31,3.17 -5.69,4.75 -10.13,4.75 -6.18,0 -11.57,-2.62 -16.18,-7.85 -4.61,-5.24 -8.07,-11.51 -10.37,-18.81 -2.3,-7.31 -3.45,-14.01 -3.45,-20.1 0,-4.53 1.15,-8.4 3.45,-11.6 2.3,-3.2 5.64,-4.8 10.01,-4.8" /><path
         id="path132"
         style="fill:none;stroke:#0072bd;stroke-width:15;stroke-linecap:butt;stroke-linejoin:round;stroke-miterlimit:10;stroke-dasharray:none;stroke-opacity:1"
         d="M 7402.49,1382.47 H 7702.4" /><path
         id="path134"
         style="fill:#000000;fill-opacity:1;fill-rule:nonzero;stroke:none"
         d="m 7741.65,1064.7 c 0,0.86 0.08,1.48 0.24,1.87 l 16.29,64.93 c 1.02,3.98 1.52,7.5 1.52,10.55 0,6.25 -2.11,9.37 -6.33,9.37 -4.53,0 -7.89,-2.71 -10.08,-8.14 -2.18,-5.43 -4.33,-12.29 -6.44,-20.58 0,-0.38 -0.2,-0.7 -0.59,-0.93 -0.38,-0.23 -0.78,-0.35 -1.17,-0.35 h -2.58 c -0.47,0 -0.88,0.26 -1.22,0.76 -0.36,0.51 -0.54,1 -0.54,1.46 1.57,6.25 3.07,11.59 4.52,16 1.44,4.41 3.71,8.42 6.79,12.02 3.08,3.59 6.93,5.39 11.54,5.39 5,0 9.4,-1.45 13.19,-4.35 3.79,-2.88 6.15,-6.71 7.09,-11.48 3.67,4.85 7.85,8.69 12.53,11.55 4.7,2.85 9.85,4.28 15.48,4.28 4.61,0 8.67,-1.35 12.18,-4.05 3.52,-2.7 5.28,-6.35 5.28,-10.95 0,-3.68 -1.15,-6.88 -3.46,-9.62 -2.3,-2.73 -5.37,-4.1 -9.2,-4.1 -2.34,0 -4.31,0.74 -5.92,2.23 -1.6,1.48 -2.4,3.4 -2.4,5.74 0,3.13 1.17,5.96 3.52,8.5 2.34,2.54 5.03,3.81 8.08,3.81 -2.34,1.87 -5.19,2.81 -8.56,2.81 -6.16,0 -11.55,-2.21 -16.16,-6.62 -4.61,-4.41 -8.75,-10.02 -12.43,-16.82 l -15.58,-62.22 c -0.47,-2.04 -1.56,-3.76 -3.28,-5.16 -1.73,-1.41 -3.67,-2.11 -5.86,-2.11 -1.72,0 -3.22,0.57 -4.52,1.7 -1.29,1.13 -1.93,2.63 -1.93,4.51" /><path
         id="path136"
         style="fill:none;stroke:#d95319;stroke-width:15;stroke-linecap:butt;stroke-linejoin:round;stroke-miterlimit:10;stroke-dasharray:none;stroke-opacity:1"
         d="M 7402.49,1113.75 H 7702.4" /><path
         id="path138"
         style="fill:#000000;fill-opacity:1;fill-rule:nonzero;stroke:none"
         d="m 7743.18,761.063 c 3.04,-5.235 8.36,-7.852 15.94,-7.852 6.87,0 12.81,2.422 17.81,7.266 5,4.839 9.04,10.679 12.12,17.519 3.09,6.836 5.49,13.809 7.21,20.918 -6.41,-6.094 -13.4,-9.141 -20.97,-9.141 -5.71,0 -10.58,0.993 -14.6,2.985 -4.02,1.992 -7.14,4.965 -9.37,8.91 -2.23,3.945 -3.34,8.687 -3.34,14.234 0,4.766 0.62,9.649 1.87,14.649 1.25,5 3.03,10.547 5.34,16.64 2.3,6.094 4.31,11.407 6.03,15.938 1.88,5.316 2.82,9.691 2.82,13.125 0,4.301 -1.57,6.449 -4.69,6.449 -5.78,0 -10.53,-2.949 -14.24,-8.848 -3.72,-5.902 -6.47,-12.523 -8.26,-19.867 -0.24,-0.855 -0.82,-1.285 -1.76,-1.285 h -2.58 c -1.17,0 -1.76,0.664 -1.76,1.988 v 0.586 c 2.35,8.676 5.92,16.352 10.73,23.032 4.8,6.679 10.88,10.019 18.22,10.019 5.16,0 9.53,-1.699 13.12,-5.098 3.59,-3.402 5.39,-7.718 5.39,-12.953 0,-2.656 -0.58,-5.468 -1.75,-8.437 -0.71,-1.797 -2.19,-5.664 -4.46,-11.602 -2.27,-5.937 -3.98,-10.855 -5.15,-14.761 -1.18,-3.911 -2.15,-7.739 -2.94,-11.489 -0.77,-3.75 -1.16,-7.5 -1.16,-11.25 0,-4.84 1.01,-8.922 3.04,-12.242 2.03,-3.32 5.27,-4.98 9.73,-4.98 8.98,0 17.07,5.507 24.25,16.523 l 16.41,66.914 c 0.55,1.949 1.7,3.61 3.46,4.981 1.75,1.367 3.65,2.046 5.68,2.046 1.8,0 3.36,-0.562 4.69,-1.695 1.33,-1.133 1.99,-2.597 1.99,-4.394 0,-0.86 -0.08,-1.446 -0.23,-1.762 l -21.56,-86.481 c -1.96,-7.5 -5.48,-14.648 -10.55,-21.445 -5.08,-6.801 -11.21,-12.269 -18.4,-16.41 -7.19,-4.141 -14.69,-6.207 -22.5,-6.207 -3.75,0 -7.46,0.742 -11.13,2.227 -3.67,1.484 -6.64,3.671 -8.91,6.562 -2.26,2.891 -3.4,6.285 -3.4,10.191 0,3.907 1.18,7.325 3.52,10.254 2.34,2.93 5.43,4.395 9.26,4.395 2.34,0 4.31,-0.723 5.92,-2.168 1.6,-1.445 2.39,-3.34 2.39,-5.684 0,-3.355 -1.22,-6.265 -3.68,-8.73 -2.46,-2.461 -5.37,-3.692 -8.73,-3.692 -0.16,0.082 -0.3,0.122 -0.42,0.122 -0.11,0 -0.25,0 -0.4,0" /><path
         id="path140"
         style="fill:#000000;fill-opacity:1;fill-rule:nonzero;stroke:none"
         d="m 7844.95,761.934 c 0,0.625 0.03,1.089 0.11,1.402 l 11.72,46.992 c 0.78,2.891 1.17,5.43 1.17,7.613 0,4.536 -1.52,6.805 -4.57,6.805 -3.28,0 -5.72,-1.957 -7.33,-5.867 -1.59,-3.906 -3.14,-8.863 -4.62,-14.879 0,-0.316 -0.16,-0.57 -0.47,-0.766 -0.32,-0.195 -0.58,-0.293 -0.82,-0.293 h -1.88 c -0.31,0 -0.6,0.196 -0.87,0.586 -0.28,0.395 -0.42,0.746 -0.42,1.059 1.17,4.609 2.27,8.496 3.29,11.66 1.01,3.164 2.65,6.055 4.92,8.672 2.26,2.613 5.03,3.922 8.32,3.922 3.98,0 7.48,-1.25 10.49,-3.75 3,-2.5 4.51,-5.664 4.51,-9.488 3.12,4.14 6.79,7.382 11.01,9.726 4.22,2.34 8.68,3.512 13.36,3.512 5,0 9.3,-1.27 12.89,-3.805 3.6,-2.539 5.4,-6.152 5.4,-10.844 3.28,4.61 7.08,8.207 11.42,10.786 4.33,2.574 9.04,3.863 14.12,3.863 5.47,0 9.85,-1.485 13.12,-4.449 3.29,-2.969 4.93,-7.149 4.93,-12.539 0,-4.301 -0.96,-9.497 -2.87,-15.586 -1.92,-6.094 -4.28,-12.93 -7.09,-20.512 -1.56,-3.59 -2.34,-6.754 -2.34,-9.488 0,-3.125 1.25,-4.688 3.75,-4.688 4.06,0 7.45,2.207 10.19,6.617 2.74,4.414 4.65,9.16 5.74,14.243 0.32,0.542 0.78,0.816 1.41,0.816 h 1.75 c 0.47,0 0.84,-0.133 1.12,-0.406 0.27,-0.274 0.41,-0.571 0.41,-0.883 0,-0.156 -0.04,-0.313 -0.12,-0.465 -1.49,-5.941 -4,-11.43 -7.56,-16.465 -3.55,-5.039 -7.99,-7.558 -13.3,-7.558 -3.75,0 -6.91,1.269 -9.49,3.808 -2.58,2.535 -3.87,5.602 -3.87,9.195 0,1.875 0.43,3.946 1.29,6.211 2.97,7.891 5.43,14.942 7.39,21.157 1.95,6.211 2.92,11.66 2.92,16.343 0,2.969 -0.58,5.469 -1.76,7.5 -1.16,2.036 -3.12,3.055 -5.85,3.055 -5.79,0 -10.77,-1.762 -14.94,-5.281 -4.18,-3.516 -7.83,-8.164 -10.96,-13.942 -0.16,-1.015 -0.32,-1.796 -0.47,-2.339 l -10.08,-40.434 c -0.39,-1.484 -1.21,-2.734 -2.46,-3.75 -1.25,-1.016 -2.66,-1.523 -4.22,-1.523 -1.25,0 -2.34,0.41 -3.28,1.23 -0.93,0.82 -1.4,1.895 -1.4,3.227 0,0.625 0.03,1.089 0.11,1.402 l 10.08,40.078 c 1.09,4.297 1.64,7.887 1.64,10.777 0,2.969 -0.6,5.469 -1.81,7.5 -1.22,2.036 -3.23,3.055 -6.04,3.055 -3.91,0 -7.46,-0.844 -10.67,-2.523 -3.2,-1.68 -6.01,-3.926 -8.43,-6.743 -2.42,-2.808 -4.65,-6.128 -6.69,-9.957 L 7856.2,762.75 c -0.32,-1.484 -1.12,-2.734 -2.41,-3.75 -1.29,-1.016 -2.68,-1.523 -4.16,-1.523 -1.33,0 -2.44,0.41 -3.34,1.23 -0.9,0.82 -1.34,1.895 -1.34,3.227" /><path
         id="path142"
         style="fill:#000000;fill-opacity:1;fill-rule:nonzero;stroke:none"
         d="m 7999.61,757.477 c -5,0 -9.38,1.308 -13.13,3.921 -3.75,2.622 -6.62,6.137 -8.61,10.547 -1.99,4.414 -2.99,9.082 -2.99,14.008 0,7.5 1.9,14.551 5.69,21.152 3.79,6.598 8.91,11.872 15.35,15.817 6.45,3.945 13.34,5.918 20.68,5.918 4.53,0 8.48,-1.172 11.84,-3.512 3.36,-2.344 5.03,-5.703 5.03,-10.078 0,-6.016 -2.4,-10.488 -7.2,-13.418 -4.8,-2.93 -10.23,-4.746 -16.29,-5.453 -6.05,-0.699 -12.75,-1.051 -20.1,-1.051 h -0.47 c -1.71,-6.25 -2.57,-11.601 -2.57,-16.055 0,-4.687 1.09,-8.808 3.28,-12.363 2.18,-3.555 5.47,-5.332 9.84,-5.332 6.25,0 12.27,1.445 18.05,4.336 5.78,2.891 10.47,6.875 14.06,11.957 0.31,0.309 0.74,0.465 1.29,0.465 0.47,0 0.98,-0.293 1.52,-0.879 0.55,-0.586 0.82,-1.152 0.82,-1.703 0,-0.391 -0.07,-0.703 -0.23,-0.938 -3.91,-5.39 -9.1,-9.628 -15.59,-12.711 -6.48,-3.085 -13.24,-4.628 -20.27,-4.628 z m -9.26,41.957 c 6.09,0 11.74,0.269 16.94,0.816 5.19,0.543 9.87,1.949 14.06,4.215 4.18,2.269 6.27,5.824 6.27,10.664 0,1.957 -0.53,3.656 -1.58,5.101 -1.06,1.446 -2.45,2.555 -4.16,3.336 -1.72,0.786 -3.52,1.18 -5.4,1.18 -4.45,0 -8.45,-1.215 -12.01,-3.641 -3.56,-2.417 -6.49,-5.562 -8.79,-9.433 -2.3,-3.863 -4.08,-7.945 -5.33,-12.238" /><path
         id="path144"
         style="fill:#000000;fill-opacity:1;fill-rule:nonzero;stroke:none"
         d="m 8067.1,757.477 c -6.64,0 -11.88,2.5 -15.71,7.5 -3.82,5 -5.74,10.898 -5.74,17.691 0,6.723 1.74,13.695 5.22,20.918 3.47,7.23 8.18,13.246 14.12,18.047 5.93,4.805 12.3,7.207 19.1,7.207 3.12,0 5.92,-0.86 8.38,-2.574 2.46,-1.719 4.39,-4.024 5.8,-6.914 l 8.91,35.152 c 0.39,1.801 0.62,3.207 0.7,4.223 0,1.718 -3.4,2.582 -10.2,2.582 -1.09,0 -1.63,0.699 -1.63,2.105 0.07,0.234 0.18,0.684 0.34,1.344 0.16,0.664 0.4,1.176 0.71,1.527 0.31,0.352 0.7,0.528 1.17,0.528 l 21.21,1.753 c 1.33,0 1.99,-0.703 1.99,-2.105 l -22.73,-90.586 c -0.7,-1.723 -1.06,-4.223 -1.06,-7.5 0,-4.531 1.53,-6.797 4.57,-6.797 3.29,0 5.79,2.09 7.5,6.27 1.72,4.179 3.16,9.043 4.34,14.59 0.16,0.542 0.55,0.816 1.17,0.816 h 1.99 c 0.39,0 0.71,-0.176 0.94,-0.524 0.24,-0.351 0.36,-0.683 0.36,-1 -1.8,-7.343 -3.8,-13.222 -5.98,-17.632 -2.19,-4.414 -5.75,-6.621 -10.67,-6.621 -3.51,0 -6.64,1.035 -9.37,3.105 -2.74,2.07 -4.42,4.82 -5.04,8.258 -6.79,-7.574 -13.6,-11.363 -20.39,-11.363 z m 0.11,4.101 c 3.83,0 7.52,1.426 11.08,4.277 3.55,2.848 6.62,6.188 9.2,10.02 0.08,0.152 0.12,0.391 0.12,0.703 l 8.55,34.688 c -0.62,3.672 -1.97,6.832 -4.04,9.488 -2.07,2.66 -4.87,3.992 -8.38,3.992 -3.52,0 -6.8,-1.449 -9.85,-4.344 -3.04,-2.89 -5.62,-6.328 -7.73,-10.312 -2.03,-4.141 -3.98,-9.879 -5.86,-17.219 -1.87,-7.348 -2.81,-13.051 -2.81,-17.117 0,-3.59 0.78,-6.852 2.34,-9.781 1.56,-2.93 4.03,-4.395 7.38,-4.395" /><path
         id="path146"
         style="fill:#000000;fill-opacity:1;fill-rule:nonzero;stroke:none"
         d="m 8132.14,770.48 c 0,1.958 0.43,4.028 1.29,6.211 l 12.65,33.872 c 1.41,3.902 2.11,7.07 2.11,9.496 0,3.125 -1.13,4.687 -3.4,4.687 -4.22,0 -7.65,-2.133 -10.31,-6.391 -2.66,-4.261 -4.65,-9.046 -5.98,-14.355 -0.15,-0.707 -0.59,-1.059 -1.29,-1.059 h -1.87 c -0.86,0 -1.29,0.508 -1.29,1.524 v 0.473 c 1.72,6.25 4.32,11.796 7.79,16.64 3.48,4.84 7.87,7.262 13.19,7.262 3.75,0 6.91,-1.231 9.49,-3.692 2.58,-2.46 3.87,-5.605 3.87,-9.433 0,-1.949 -0.43,-3.981 -1.29,-6.09 l -12.78,-33.871 c -1.4,-3.516 -2.11,-6.676 -2.11,-9.488 0,-3.125 1.22,-4.688 3.64,-4.688 4.06,0 7.48,2.207 10.25,6.617 2.78,4.414 4.71,9.16 5.8,14.243 0.24,0.542 0.63,0.816 1.17,0.816 h 2 c 0.39,0 0.72,-0.133 0.99,-0.406 0.27,-0.274 0.41,-0.571 0.41,-0.883 0,-0.156 -0.08,-0.313 -0.23,-0.465 -1.41,-5.941 -3.89,-11.43 -7.44,-16.465 -3.56,-5.039 -7.99,-7.558 -13.31,-7.558 -3.67,0 -6.81,1.269 -9.43,3.808 -2.61,2.535 -3.92,5.602 -3.92,9.195 z m 17.81,84.145 c 0,2.266 0.92,4.293 2.75,6.09 1.84,1.801 3.85,2.699 6.04,2.699 1.8,0 3.28,-0.566 4.45,-1.703 1.17,-1.129 1.76,-2.516 1.76,-4.152 0,-2.348 -0.94,-4.418 -2.81,-6.219 -1.88,-1.797 -3.95,-2.692 -6.21,-2.692 -1.72,0 -3.15,0.582 -4.29,1.754 -1.13,1.176 -1.69,2.582 -1.69,4.223" /><path
         id="path148"
         style="fill:#000000;fill-opacity:1;fill-rule:nonzero;stroke:none"
         d="m 8200.31,757.477 c -6.64,0 -11.88,2.5 -15.7,7.5 -3.83,5 -5.75,10.898 -5.75,17.691 0,6.723 1.74,13.695 5.21,20.918 3.48,7.23 8.19,13.246 14.13,18.047 5.94,4.805 12.3,7.207 19.1,7.207 3.12,0 5.91,-0.86 8.38,-2.574 2.46,-1.719 4.39,-4.024 5.8,-6.914 l 8.9,35.152 c 0.39,1.801 0.63,3.207 0.71,4.223 0,1.718 -3.4,2.582 -10.2,2.582 -1.09,0 -1.64,0.699 -1.64,2.105 0.08,0.234 0.2,0.684 0.36,1.344 0.15,0.664 0.39,1.176 0.7,1.527 0.31,0.352 0.7,0.528 1.17,0.528 l 21.21,1.753 c 1.33,0 2,-0.703 2,-2.105 l -22.74,-90.586 c -0.7,-1.723 -1.06,-4.223 -1.06,-7.5 0,-4.531 1.53,-6.797 4.57,-6.797 3.28,0 5.78,2.09 7.5,6.27 1.72,4.179 3.17,9.043 4.34,14.59 0.15,0.542 0.54,0.816 1.17,0.816 h 1.99 c 0.4,0 0.71,-0.176 0.94,-0.524 0.24,-0.351 0.35,-0.683 0.35,-1 -1.79,-7.343 -3.79,-13.222 -5.97,-17.632 -2.19,-4.414 -5.74,-6.621 -10.67,-6.621 -3.51,0 -6.64,1.035 -9.38,3.105 -2.73,2.07 -4.41,4.82 -5.03,8.258 -6.8,-7.574 -13.59,-11.363 -20.39,-11.363 z m 0.11,4.101 c 3.83,0 7.53,1.426 11.08,4.277 3.55,2.848 6.62,6.188 9.2,10.02 0.08,0.152 0.12,0.391 0.12,0.703 l 8.56,34.688 c -0.63,3.672 -1.98,6.832 -4.06,9.488 -2.07,2.66 -4.86,3.992 -8.37,3.992 -3.52,0 -6.8,-1.449 -9.84,-4.344 -3.06,-2.89 -5.63,-6.328 -7.73,-10.312 -2.04,-4.141 -4,-9.879 -5.87,-17.219 -1.88,-7.348 -2.81,-13.051 -2.81,-17.117 0,-3.59 0.78,-6.852 2.34,-9.781 1.57,-2.93 4.02,-4.395 7.38,-4.395" /><path
         id="path150"
         style="fill:#000000;fill-opacity:1;fill-rule:nonzero;stroke:none"
         d="m 8284.68,757.477 c -4.92,0 -9.31,1.171 -13.18,3.519 -3.87,2.34 -6.86,5.52 -8.97,9.547 -2.11,4.023 -3.16,8.574 -3.16,13.648 0,7.11 1.99,14.145 5.97,21.098 3.99,6.949 9.27,12.613 15.83,16.988 6.56,4.375 13.47,6.563 20.74,6.563 3.9,0 7.38,-0.664 10.43,-1.988 3.04,-1.329 5.68,-3.204 7.91,-5.625 2.23,-2.426 3.95,-5.258 5.15,-8.497 1.21,-3.242 1.82,-6.734 1.82,-10.484 0,-5.473 -1.15,-10.863 -3.46,-16.18 -2.3,-5.308 -5.47,-10.132 -9.49,-14.468 -4.02,-4.34 -8.61,-7.778 -13.77,-10.313 -5.16,-2.539 -10.43,-3.808 -15.82,-3.808 z m 0.35,4.101 c 4.69,0 8.97,1.602 12.83,4.801 3.87,3.207 7.04,7.23 9.5,12.074 2.46,4.84 4.37,9.957 5.74,15.356 1.36,5.386 2.05,10.23 2.05,14.527 0,4.609 -1.15,8.496 -3.45,11.66 -2.31,3.164 -5.69,4.75 -10.15,4.75 -6.17,0 -11.56,-2.621 -16.17,-7.855 -4.61,-5.235 -8.06,-11.504 -10.37,-18.809 -2.3,-7.305 -3.46,-14.004 -3.46,-20.102 0,-4.527 1.16,-8.394 3.46,-11.601 2.31,-3.199 5.65,-4.801 10.02,-4.801" /><path
         id="path152"
         style="fill:none;stroke:#000000;stroke-width:15;stroke-linecap:butt;stroke-linejoin:round;stroke-miterlimit:10;stroke-dasharray:none;stroke-opacity:1"
         d="M 7402.49,845.031 H 7702.4" /><path
         id="path154"
         style="fill:none;stroke:#262626;stroke-width:5.00250006;stroke-linecap:butt;stroke-linejoin:miter;stroke-miterlimit:10;stroke-dasharray:none;stroke-opacity:1"
         d="m 7372.5,697.5 h 1125 V 1530 h -1125 z" /></g></g></svg>