<?xml version="1.0" encoding="UTF-8" standalone="no"?>
<!-- Created with Inkscape (http://www.inkscape.org/) -->

<svg
   xmlns:dc="http://purl.org/dc/elements/1.1/"
   xmlns:cc="http://creativecommons.org/ns#"
   xmlns:rdf="http://www.w3.org/1999/02/22-rdf-syntax-ns#"
   xmlns:svg="http://www.w3.org/2000/svg"
   xmlns="http://www.w3.org/2000/svg"
   xmlns:sodipodi="http://sodipodi.sourceforge.net/DTD/sodipodi-0.dtd"
   xmlns:inkscape="http://www.inkscape.org/namespaces/inkscape"
   version="1.1"
   id="svg2"
   xml:space="preserve"
   width="1200"
   height="500"
   viewBox="0 0 1200 500"
   sodipodi:docname="step_simul.svg"
   inkscape:version="0.92.3 (2405546, 2018-03-11)"><metadata
     id="metadata8"><rdf:RDF><cc:Work
         rdf:about=""><dc:format>image/svg+xml</dc:format><dc:type
           rdf:resource="http://purl.org/dc/dcmitype/StillImage" /><dc:title></dc:title></cc:Work></rdf:RDF></metadata><defs
     id="defs6" /><sodipodi:namedview
     pagecolor="#ffffff"
     bordercolor="#666666"
     borderopacity="1"
     objecttolerance="10"
     gridtolerance="10"
     guidetolerance="10"
     inkscape:pageopacity="0"
     inkscape:pageshadow="2"
     inkscape:window-width="1538"
     inkscape:window-height="877"
     id="namedview4"
     showgrid="false"
     inkscape:zoom="0.28333333"
     inkscape:cx="600"
     inkscape:cy="250"
     inkscape:window-x="-8"
     inkscape:window-y="-8"
     inkscape:window-maximized="1"
     inkscape:current-layer="g10" /><g
     id="g10"
     inkscape:groupmode="layer"
     inkscape:label="ink_ext_XXXXXX"
     transform="matrix(1.3333333,0,0,-1.3333333,0,500)"><g
       id="g12"
       transform="scale(0.1)"><path
         d="M 0,0 H 9000 V 3750 H 0 Z"
         style="fill:#ffffff;fill-opacity:1;fill-rule:nonzero;stroke:none"
         id="path14"
         inkscape:connector-curvature="0" /><path
         d="M 0,0 H 9000 V 3750 H 0 Z"
         style="fill:#ffffff;fill-opacity:1;fill-rule:nonzero;stroke:none"
         id="path16"
         inkscape:connector-curvature="0" /><path
         d="M 1395,600 H 8595 V 3412.5 H 1395 Z"
         style="fill:#ffffff;fill-opacity:1;fill-rule:nonzero;stroke:none"
         id="path18"
         inkscape:connector-curvature="0" /><path
         d="M 1395,600 H 8595"
         style="fill:none;stroke:#262626;stroke-width:5.00250006;stroke-linecap:square;stroke-linejoin:round;stroke-miterlimit:10;stroke-dasharray:none;stroke-opacity:1"
         id="path20"
         inkscape:connector-curvature="0" /><path
         d="M 1395,3412.5 H 8595"
         style="fill:none;stroke:#262626;stroke-width:5.00250006;stroke-linecap:square;stroke-linejoin:round;stroke-miterlimit:10;stroke-dasharray:none;stroke-opacity:1"
         id="path22"
         inkscape:connector-curvature="0" /><path
         d="m 1395,600 v 72"
         style="fill:none;stroke:#262626;stroke-width:5.00250006;stroke-linecap:square;stroke-linejoin:round;stroke-miterlimit:10;stroke-dasharray:none;stroke-opacity:1"
         id="path24"
         inkscape:connector-curvature="0" /><path
         d="m 2115,600 v 72"
         style="fill:none;stroke:#262626;stroke-width:5.00250006;stroke-linecap:square;stroke-linejoin:round;stroke-miterlimit:10;stroke-dasharray:none;stroke-opacity:1"
         id="path26"
         inkscape:connector-curvature="0" /><path
         d="m 2835,600 v 72"
         style="fill:none;stroke:#262626;stroke-width:5.00250006;stroke-linecap:square;stroke-linejoin:round;stroke-miterlimit:10;stroke-dasharray:none;stroke-opacity:1"
         id="path28"
         inkscape:connector-curvature="0" /><path
         d="m 3555,600 v 72"
         style="fill:none;stroke:#262626;stroke-width:5.00250006;stroke-linecap:square;stroke-linejoin:round;stroke-miterlimit:10;stroke-dasharray:none;stroke-opacity:1"
         id="path30"
         inkscape:connector-curvature="0" /><path
         d="m 4275,600 v 72"
         style="fill:none;stroke:#262626;stroke-width:5.00250006;stroke-linecap:square;stroke-linejoin:round;stroke-miterlimit:10;stroke-dasharray:none;stroke-opacity:1"
         id="path32"
         inkscape:connector-curvature="0" /><path
         d="m 4995,600 v 72"
         style="fill:none;stroke:#262626;stroke-width:5.00250006;stroke-linecap:square;stroke-linejoin:round;stroke-miterlimit:10;stroke-dasharray:none;stroke-opacity:1"
         id="path34"
         inkscape:connector-curvature="0" /><path
         d="m 5715,600 v 72"
         style="fill:none;stroke:#262626;stroke-width:5.00250006;stroke-linecap:square;stroke-linejoin:round;stroke-miterlimit:10;stroke-dasharray:none;stroke-opacity:1"
         id="path36"
         inkscape:connector-curvature="0" /><path
         d="m 6435,600 v 72"
         style="fill:none;stroke:#262626;stroke-width:5.00250006;stroke-linecap:square;stroke-linejoin:round;stroke-miterlimit:10;stroke-dasharray:none;stroke-opacity:1"
         id="path38"
         inkscape:connector-curvature="0" /><path
         d="m 7155,600 v 72"
         style="fill:none;stroke:#262626;stroke-width:5.00250006;stroke-linecap:square;stroke-linejoin:round;stroke-miterlimit:10;stroke-dasharray:none;stroke-opacity:1"
         id="path40"
         inkscape:connector-curvature="0" /><path
         d="m 7875,600 v 72"
         style="fill:none;stroke:#262626;stroke-width:5.00250006;stroke-linecap:square;stroke-linejoin:round;stroke-miterlimit:10;stroke-dasharray:none;stroke-opacity:1"
         id="path42"
         inkscape:connector-curvature="0" /><path
         d="m 8595,600 v 72"
         style="fill:none;stroke:#262626;stroke-width:5.00250006;stroke-linecap:square;stroke-linejoin:round;stroke-miterlimit:10;stroke-dasharray:none;stroke-opacity:1"
         id="path44"
         inkscape:connector-curvature="0" /><path
         d="m 1395,3412.5 v -72"
         style="fill:none;stroke:#262626;stroke-width:5.00250006;stroke-linecap:square;stroke-linejoin:round;stroke-miterlimit:10;stroke-dasharray:none;stroke-opacity:1"
         id="path46"
         inkscape:connector-curvature="0" /><path
         d="m 2115,3412.5 v -72"
         style="fill:none;stroke:#262626;stroke-width:5.00250006;stroke-linecap:square;stroke-linejoin:round;stroke-miterlimit:10;stroke-dasharray:none;stroke-opacity:1"
         id="path48"
         inkscape:connector-curvature="0" /><path
         d="m 2835,3412.5 v -72"
         style="fill:none;stroke:#262626;stroke-width:5.00250006;stroke-linecap:square;stroke-linejoin:round;stroke-miterlimit:10;stroke-dasharray:none;stroke-opacity:1"
         id="path50"
         inkscape:connector-curvature="0" /><path
         d="m 3555,3412.5 v -72"
         style="fill:none;stroke:#262626;stroke-width:5.00250006;stroke-linecap:square;stroke-linejoin:round;stroke-miterlimit:10;stroke-dasharray:none;stroke-opacity:1"
         id="path52"
         inkscape:connector-curvature="0" /><path
         d="m 4275,3412.5 v -72"
         style="fill:none;stroke:#262626;stroke-width:5.00250006;stroke-linecap:square;stroke-linejoin:round;stroke-miterlimit:10;stroke-dasharray:none;stroke-opacity:1"
         id="path54"
         inkscape:connector-curvature="0" /><path
         d="m 4995,3412.5 v -72"
         style="fill:none;stroke:#262626;stroke-width:5.00250006;stroke-linecap:square;stroke-linejoin:round;stroke-miterlimit:10;stroke-dasharray:none;stroke-opacity:1"
         id="path56"
         inkscape:connector-curvature="0" /><path
         d="m 5715,3412.5 v -72"
         style="fill:none;stroke:#262626;stroke-width:5.00250006;stroke-linecap:square;stroke-linejoin:round;stroke-miterlimit:10;stroke-dasharray:none;stroke-opacity:1"
         id="path58"
         inkscape:connector-curvature="0" /><path
         d="m 6435,3412.5 v -72"
         style="fill:none;stroke:#262626;stroke-width:5.00250006;stroke-linecap:square;stroke-linejoin:round;stroke-miterlimit:10;stroke-dasharray:none;stroke-opacity:1"
         id="path60"
         inkscape:connector-curvature="0" /><path
         d="m 7155,3412.5 v -72"
         style="fill:none;stroke:#262626;stroke-width:5.00250006;stroke-linecap:square;stroke-linejoin:round;stroke-miterlimit:10;stroke-dasharray:none;stroke-opacity:1"
         id="path62"
         inkscape:connector-curvature="0" /><path
         d="m 7875,3412.5 v -72"
         style="fill:none;stroke:#262626;stroke-width:5.00250006;stroke-linecap:square;stroke-linejoin:round;stroke-miterlimit:10;stroke-dasharray:none;stroke-opacity:1"
         id="path64"
         inkscape:connector-curvature="0" /><path
         d="m 8595,3412.5 v -72"
         style="fill:none;stroke:#262626;stroke-width:5.00250006;stroke-linecap:square;stroke-linejoin:round;stroke-miterlimit:10;stroke-dasharray:none;stroke-opacity:1"
         id="path66"
         inkscape:connector-curvature="0" /><g
         id="g68"
         transform="scale(10)"><text
           transform="matrix(1,0,0,-1,133.5,33)"
           style="font-variant:normal;font-weight:normal;font-size:20.00020027px;font-family:Helvetica;-inkscape-font-specification:Helvetica;writing-mode:lr-tb;fill:#262626;fill-opacity:1;fill-rule:nonzero;stroke:none"
           id="text72"><tspan
             x="0 71.999718 138.37459 149.49469 210.3743 221.49442 282.37402 293.49414 354.37375 365.49387 426.37347 437.49356 498.37317 509.49329 570.37292 581.49304 642.37262 653.49274 714.37231 725.49243"
             y="0"
             sodipodi:role="line"
             id="tspan70">05101520253035404550</tspan></text>
<text
           transform="matrix(1,0,0,-1,449.625,5)"
           style="font-variant:normal;font-weight:normal;font-size:21.99970055px;font-family:Helvetica;-inkscape-font-specification:Helvetica;writing-mode:lr-tb;fill:#262626;fill-opacity:1;fill-rule:nonzero;stroke:none"
           id="text76"><tspan
             x="0 13.441816 25.673651 43.999401 56.231232 68.463066 74.578979 81.904884 92.904732"
             y="0"
             sodipodi:role="line"
             id="tspan74">Tempo (s)</tspan></text>
</g><path
         d="M 1395,600 V 3412.5"
         style="fill:none;stroke:#262626;stroke-width:5.00250006;stroke-linecap:square;stroke-linejoin:round;stroke-miterlimit:10;stroke-dasharray:none;stroke-opacity:1"
         id="path78"
         inkscape:connector-curvature="0" /><path
         d="M 8595,600 V 3412.5"
         style="fill:none;stroke:#262626;stroke-width:5.00250006;stroke-linecap:square;stroke-linejoin:round;stroke-miterlimit:10;stroke-dasharray:none;stroke-opacity:1"
         id="path80"
         inkscape:connector-curvature="0" /><path
         d="m 1395,673.281 h 72"
         style="fill:none;stroke:#262626;stroke-width:5.00250006;stroke-linecap:square;stroke-linejoin:round;stroke-miterlimit:10;stroke-dasharray:none;stroke-opacity:1"
         id="path82"
         inkscape:connector-curvature="0" /><path
         d="m 1395,1603.54 h 72"
         style="fill:none;stroke:#262626;stroke-width:5.00250006;stroke-linecap:square;stroke-linejoin:round;stroke-miterlimit:10;stroke-dasharray:none;stroke-opacity:1"
         id="path84"
         inkscape:connector-curvature="0" /><path
         d="m 1395,2533.79 h 72"
         style="fill:none;stroke:#262626;stroke-width:5.00250006;stroke-linecap:square;stroke-linejoin:round;stroke-miterlimit:10;stroke-dasharray:none;stroke-opacity:1"
         id="path86"
         inkscape:connector-curvature="0" /><path
         d="m 8595,673.281 h -72"
         style="fill:none;stroke:#262626;stroke-width:5.00250006;stroke-linecap:square;stroke-linejoin:round;stroke-miterlimit:10;stroke-dasharray:none;stroke-opacity:1"
         id="path88"
         inkscape:connector-curvature="0" /><path
         d="m 8595,1603.54 h -72"
         style="fill:none;stroke:#262626;stroke-width:5.00250006;stroke-linecap:square;stroke-linejoin:round;stroke-miterlimit:10;stroke-dasharray:none;stroke-opacity:1"
         id="path90"
         inkscape:connector-curvature="0" /><path
         d="m 8595,2533.79 h -72"
         style="fill:none;stroke:#262626;stroke-width:5.00250006;stroke-linecap:square;stroke-linejoin:round;stroke-miterlimit:10;stroke-dasharray:none;stroke-opacity:1"
         id="path92"
         inkscape:connector-curvature="0" /><g
         id="g94"
         transform="scale(10)"><text
           transform="matrix(1,0,0,-1,110.25,59.0785)"
           style="font-variant:normal;font-weight:normal;font-size:20.00020027px;font-family:Helvetica;-inkscape-font-specification:Helvetica;writing-mode:lr-tb;fill:#262626;fill-opacity:1;fill-rule:nonzero;stroke:none"
           id="text102"><tspan
             x="0 11.120111"
             y="0"
             sodipodi:role="line"
             id="tspan96">30</tspan><tspan
             x="0 11.120111"
             y="-93.025398"
             sodipodi:role="line"
             id="tspan98">35</tspan><tspan
             x="0 11.120111"
             y="-186.0504"
             sodipodi:role="line"
             id="tspan100">40</tspan></text>
<text
           transform="matrix(0,1,1,0,102,147.375)"
           style="font-variant:normal;font-weight:normal;font-size:21.99970055px;font-family:Helvetica;-inkscape-font-specification:Helvetica;writing-mode:lr-tb;fill:#262626;fill-opacity:1;fill-rule:nonzero;stroke:none"
           id="text106"><tspan
             x="0 14.6738 19.557734 25.673651 37.905483 45.231384 57.463215 63.579132 70.905029 81.904884 100.23064"
             y="0"
             sodipodi:role="line"
             id="tspan104">Altura (cm)</tspan></text>
</g><g
         id="g108"
         transform="scale(10)"><text
           transform="matrix(1,0,0,-1,301.125,350.625)"
           style="font-variant:normal;font-weight:bold;font-size:21.99970055px;font-family:Helvetica;-inkscape-font-specification:Helvetica-Bold;writing-mode:lr-tb;fill:#000000;fill-opacity:1;fill-rule:nonzero;stroke:none"
           id="text112"><tspan
             x="0 15.883783 28.115616 40.34745 53.789265 67.231087 79.462914 86.788818 99.020653 105.13657 117.3684 130.81021 136.92613 150.36795 162.59978 176.0416 184.59949 196.83131 210.27313 216.38905 229.83087 243.27269 249.3886 268.94632 282.38815 295.82996 308.0618 314.1777 327.61954 333.73544 347.17728 360.61908 367.94498 374.06091 387.50272"
             y="0"
             sodipodi:role="line"
             id="tspan110">Resposta ao degrau do modelo obtido</tspan></text>
</g><path
         d="m 1395,673.281 7.2,0.008 7.2,0.008 7.2,0.008 7.2,0.015 7.2,0.024 7.2,0.019 7.2,0.032 7.2,0.031 7.2,0.035 7.2,0.039 7.2,0.039 7.2,0.043 7.2,0.047 7.2,0.043 7.2,0.047 7.2,0.051 7.2,0.054 7.2,0.051 7.2,0.059 7.2,0.062 7.2,0.051 7.2,0.062 7.2,0.059 7.2,0.066 7.2,0.063 7.2,0.058 7.2,0.067 7.2,0.066 7.2,0.063 7.2,0.066 7.2,0.067 7.2,0.07 7.2,0.066 7.2,0.067 7.2,0.066 7.2,0.07 7.2,0.067 7.2,0.066 7.2,0.071 7.2,0.066 7.2,0.066 7.2,0.067 7.2,0.07 7.2,0.067 7.2,0.066 7.2,0.07 7.2,0.067 7.2,0.066 7.2,0.066 7.2,0.071 7.2,0.058 7.2,0.067 7.2,0.07 7.2,0.066 7.2,0.059 7.2,0.07 7.2,0.059 7.2,0.066 7.2,0.063 7.2,0.066 7.2,0.059 7.2,0.062 7.2,0.059 7.2,0.066 7.2,0.063 7.2,0.058 7.2,0.059 7.2,0.063 7.2,0.05 7.2,0.059 7.2,0.062 7.2,0.059 7.2,0.055 7.2,0.058 7.2,0.051 7.2,0.063 7.2,0.05 7.2,0.055 7.2,0.059 7.2,0.05 7.2,0.055 7.2,0.051 7.2,0.055 7.2,0.05 7.2,0.055 7.2,0.043 7.2,0.055 7.2,0.051 7.2,0.046 7.2,0.051 7.2,0.047 7.2,0.051 7.2,0.043 7.2,0.047 7.2,0.05 7.2,0.047 7.2,0.043 7.2,0.047 7.2,0.043 7.2,0.047 7.2,0.563 7.2,1.546 7.2,2.473 7.2,3.332 7.2,4.133 7.2,4.879 7.2,5.582 7.2,6.226 7.2,6.832 7.2,7.395 7.2,7.918 7.2,8.402 7.2,8.84 7.2,9.266 7.2,9.644 7.2,9.996 7.2,10.321 7.2,10.621 7.2,10.894 7.2,11.149 7.2,11.367 7.2,11.574 7.2,11.766 7.2,11.933 7.2,12.082 7.2,12.219 7.2,12.336 7.2,12.445 7.2,12.524 7.2,12.613 7.2,12.668 7.2,12.731 7.2,12.769 7.2,12.813 7.2,12.828 7.2,12.84 7.2,12.85 7.2,12.85 7.2,12.84 7.2,12.82 7.2,12.8 7.2,12.78 7.2,12.75 7.2,12.7 7.2,12.66 7.2,12.62 7.2,12.56 7.2,12.5 7.2,12.45 7.2,12.39 7.2,12.32 7.2,12.25 7.2,12.18 7.2,12.12 7.2,12.03 7.2,11.96 7.2,11.88 7.2,11.8 7.2,11.71 7.2,11.63 7.2,11.55 7.2,11.46 7.2,11.38 7.2,11.29 7.2,11.2 7.2,11.12 7.2,11.02 7.2,10.94 7.2,10.84 7.2,10.76 7.2,10.66 7.2,10.58 7.2,10.49 7.2,10.4 7.2,10.31 7.2,10.21 7.2,10.14 7.2,10.04 7.2,9.95 7.2,9.86 7.2,9.78 7.2,9.69 7.2,9.6 7.2,9.52 7.2,9.43 7.2,9.34 7.2,9.27 7.2,9.17 7.2,9.09 7.2,9.01 7.2,8.93 7.2,8.84 7.2,8.77 7.2,8.68 7.2,8.6 7.2,8.52 7.2,8.46 7.2,8.36 7.2,8.29 7.2,8.22 7.2,8.14 7.2,8.07 7.2,7.98 7.2,7.92 7.2,7.85 7.2,7.78 7.2,7.7 7.2,7.62 7.2,7.56 7.2,7.5 7.2,7.42 7.2,7.36 7.2,7.29 7.2,7.22 7.2,7.16 7.2,7.09 7.2,7.03 7.2,6.96 7.2,6.91 7.2,6.84 7.2,6.77 7.2,6.72 7.2,6.65 7.2,6.6 7.2,6.54 7.2,6.47 7.2,6.43 7.2,6.36 7.2,6.31 7.2,6.26 7.2,6.19 7.2,6.14 7.2,6.09 7.2,6.03 7.2,5.99 7.2,5.93 7.2,5.87 7.2,5.83 7.2,5.77 7.2,5.73 7.2,5.68 7.2,5.62 7.2,5.58 7.2,5.53 7.2,5.48 7.2,5.43 7.2,5.38 7.2,5.35 7.2,5.3 7.2,5.25 7.2,5.2 7.2,5.16 7.2,5.13 7.2,5.07 7.2,5.03 7.2,4.99 7.2,4.95 7.2,4.9 7.2,4.87 7.2,4.82 7.2,4.78 7.2,4.75 7.2,4.7 7.2,4.67 7.2,4.63 7.2,4.59 7.2,4.54 7.2,4.52 7.2,4.48 7.2,4.44 7.2,4.4 7.2,4.36 7.2,4.33 7.2,4.3 7.2,4.26 7.2,4.23 7.2,4.19 7.2,4.15 7.2,4.13 7.2,4.09 7.2,4.06 7.2,4.02 7.2,4 7.2,3.96 7.2,3.93 7.2,3.89 7.2,3.87 7.2,3.83 7.2,3.82 7.2,3.77 7.2,3.74 7.2,3.72 7.2,3.68 7.2,3.66 7.2,3.63 7.2,3.6 7.2,3.57 7.2,3.54 7.2,3.52 7.2,3.49 7.2,3.46 7.2,3.43 7.2,3.41 7.2,3.38 7.2,3.35 7.2,3.33 7.2,3.31 7.2,3.27 7.2,3.25 7.2,3.23 7.2,3.2 7.2,3.17 7.2,3.16 7.2,3.13 7.2,3.1 7.2,3.08 7.2,3.06 7.2,3.03 7.2,3.01 7.2,2.99 7.2,2.96 7.2,2.95 7.2,2.91 7.2,2.9 7.2,2.88 7.2,2.85 7.2,2.84 7.2,2.8 7.2,2.79 7.2,2.77 7.2,2.75 7.2,2.72 7.2,2.71 7.2,2.69 7.2,2.66 7.2,2.65 7.2,2.63 7.2,2.6 7.2,2.59 7.2,2.57 7.2,2.54 7.2,2.54 7.2,2.5 7.2,2.5 7.2,2.47 7.2,2.46 7.2,2.43 7.2,2.42 7.2,2.41 7.2,2.37 7.2,2.37 7.2,2.35 7.2,2.33 7.2,2.32 7.2,2.3 7.2,2.28 7.2,2.26 7.2,2.25 7.2,2.22 7.2,2.21 7.2,2.2 7.2,2.18 7.2,2.17 7.2,2.15 7.2,2.14 7.2,2.12 7.2,2.1 7.2,2.08 7.2,2.08 7.2,2.05 7.2,2.05 7.2,2.03 7.2,2.01 7.2,2 7.2,1.98 7.2,1.97 7.2,1.96 7.2,1.94 7.2,1.93 7.2,1.91 7.2,1.9 7.2,1.88 7.2,1.88 7.2,1.86 7.2,1.84 7.2,1.83 7.2,1.83 7.2,1.8 7.2,1.79 7.2,1.78 7.2,1.77 7.2,1.76 7.2,1.74 7.2,1.73 7.2,1.72 7.2,1.7 7.2,1.7 7.2,1.67 7.2,1.68 7.2,1.66 7.2,1.64 7.2,1.63 7.2,1.62 7.2,1.61 7.2,1.6 7.2,1.59 7.2,1.58 7.2,1.57 7.2,1.55 7.2,1.54 7.2,1.53 7.2,1.53 7.2,1.51 7.2,1.5 7.2,1.49 7.2,1.47 7.2,1.47 7.2,1.47 7.2,1.44 7.2,1.44 7.2,1.43 7.2,1.42 7.2,1.41 7.2,1.39 7.2,1.39 7.2,1.38 7.2,1.36 7.2,1.37 7.2,1.34 7.2,1.34 7.2,1.34 7.2,1.32 7.2,1.31 7.2,1.3 7.2,1.3 7.2,1.28 7.2,1.27 7.2,1.27 7.2,1.26 7.2,1.25 7.2,1.24 7.2,1.23 7.2,1.22 7.2,1.22 7.2,1.21 7.2,1.2 7.2,1.19 7.2,1.18 7.2,1.17 7.2,1.17 7.2,1.15 7.2,1.15 7.2,1.14 7.2,1.14 7.2,1.12 7.2,1.12 7.2,1.11 7.2,1.09 7.2,1.1 7.2,1.09 7.2,1.08 7.2,1.07 7.2,1.07 7.2,1.05 7.2,1.05 7.2,1.04 7.2,1.04 7.2,1.03 7.2,1.02 7.2,1.01 7.2,1.01 7.2,1 7.2,1 7.2,0.98 7.2,0.98 7.2,0.97 7.2,0.97 7.2,0.96 7.2,0.95 7.2,0.94 7.2,0.95 7.2,0.93 7.2,0.93 7.2,0.92 7.2,0.91 7.2,0.91 7.2,0.91 7.2,0.89 7.2,0.89 7.2,0.88 7.2,0.88 7.2,0.87 7.2,0.86 7.2,0.87 7.2,0.85 7.2,0.85 7.2,0.84 7.2,0.84 7.2,0.82 7.2,0.83 7.2,0.83 7.2,0.81 7.2,0.8 7.2,0.81 7.2,0.79 7.2,0.8 7.2,0.78 7.2,0.78 7.2,0.78 7.2,0.77 7.2,0.76 7.2,0.76 7.2,0.76 7.2,0.75 7.2,0.74 7.2,0.74 7.2,0.73 7.2,0.74 7.2,0.72 7.2,0.72 7.2,0.72 7.2,0.7 7.2,0.71 7.2,0.7 7.2,0.69 7.2,0.69 7.2,0.69 7.2,0.69 7.2,0.67 7.2,0.68 7.2,0.66 7.2,0.66 7.2,0.66 7.2,0.65 7.2,0.66 7.2,0.64 7.2,0.64 7.2,0.64 7.2,0.63 7.2,0.63 7.2,0.62 7.2,0.62 7.2,0.62 7.2,0.61 7.2,0.61 7.2,0.6 7.2,0.6 7.2,0.59 7.2,0.59 7.2,0.59 7.2,0.59 7.2,0.57 7.2,0.58 7.2,0.57 7.2,0.57 7.2,0.56 7.2,0.56 7.2,0.56 7.2,0.55 7.2,0.55 7.2,0.54 7.2,0.54 7.2,0.54 7.2,0.54 7.2,0.53 7.2,0.52 7.2,0.53 7.2,0.51 7.2,0.52 7.2,0.51 7.2,0.51 7.2,0.51 7.2,0.51 7.2,0.49 7.2,0.49 7.2,0.5 7.2,0.49 7.2,0.49 7.2,0.48 7.2,0.47 7.2,0.48 7.2,0.48 7.2,0.46 7.2,0.47 7.2,0.46 7.2,0.46 7.2,0.47 7.2,0.45 7.2,0.45 7.2,0.44 7.2,0.45 7.2,0.44 7.2,0.44 7.2,0.44 7.2,0.43 7.2,0.43 7.2,0.43 7.2,0.42 7.2,0.43 7.2,0.41 7.2,0.42 7.2,0.41 7.2,0.41 7.2,0.42 7.2,0.4 7.2,0.4 7.2,0.4 7.2,0.39 7.2,0.4 7.2,0.39 7.2,0.39 7.2,0.39 7.2,0.38 7.2,0.39 7.2,0.37 7.2,0.38 7.2,0.37 7.2,0.38 7.2,0.36 7.2,0.37 7.2,0.36 7.2,0.36 7.2,0.36 7.2,0.36 7.2,0.35 7.2,0.36 7.2,0.35 7.2,0.34 7.2,0.35 7.2,0.34 7.2,0.34 7.2,0.34 7.2,0.33 7.2,0.34 7.2,0.33 7.2,0.33 7.2,0.32 7.2,0.33 7.2,0.32 7.2,0.32 7.2,0.32 7.2,0.32 7.2,0.32 7.2,0.3 7.2,0.32 7.2,0.31 7.2,0.3 7.2,0.3 7.2,0.3 7.2,0.3 7.2,0.3 7.2,0.3 7.2,0.29 7.2,0.29 7.2,0.29 7.2,0.29 7.2,0.29 7.2,0.28 7.2,0.28 7.2,0.28 7.2,0.28 7.2,0.27 7.2,0.28 7.2,0.27 7.2,0.28 7.2,0.27 7.2,0.26 7.2,0.27 7.2,0.27 7.2,0.26 7.2,0.26 7.2,0.26 7.2,0.25 7.2,0.25 7.2,0.26 7.2,0.26 7.2,0.24 7.2,0.25 7.2,0.25 7.2,0.24 7.2,0.25 7.2,0.24 7.2,0.24 7.2,0.24 7.2,0.23 7.2,0.25 7.2,0.23 7.2,0.23 7.2,0.23 7.2,0.24 7.2,0.22 7.2,0.22 7.2,0.23 7.2,0.22 7.2,0.23 7.2,0.22 7.2,0.21 7.2,0.22 7.2,0.22 7.2,0.22 7.2,0.21 7.2,0.21 7.2,0.22 7.2,0.2 7.2,0.21 7.2,0.21 7.2,0.2 7.2,0.2 7.2,0.2 7.2,0.21 7.2,0.19 7.2,0.2 7.2,0.2 7.2,0.2 7.2,0.19 7.2,0.2 7.2,0.19 7.2,0.19 7.2,0.19 7.2,0.18 7.2,0.19 7.2,0.19 7.2,0.19 7.2,0.18 7.2,0.18 7.2,0.18 7.2,0.18 7.2,0.17 7.2,0.18 7.2,0.18 7.2,0.17 7.2,0.18 7.2,0.17 7.2,0.17 7.2,0.17 7.2,0.17 7.2,0.17 7.2,0.16 7.2,0.17 7.2,0.16 7.2,0.17 7.2,0.16 7.2,0.16 7.2,0.16 7.2,0.16 7.2,0.16 7.2,0.16 7.2,0.16 7.2,0.15 7.2,0.15 7.2,0.16 7.2,0.15 7.2,0.15 7.2,0.15 7.2,0.15 7.2,0.15 7.2,0.14 7.2,0.15 7.2,0.15 7.2,0.14 7.2,0.14 7.2,0.14 7.2,0.15 7.2,0.14 7.2,0.14 7.2,0.13 7.2,0.14 7.2,0.14 7.2,0.14 7.2,0.13 7.2,0.14 7.2,0.13 7.2,0.13 7.2,0.14 7.2,0.12 7.2,0.13 7.2,0.13 7.2,0.13 7.2,0.12 7.2,0.13 7.2,0.13 7.2,0.13 7.2,0.12 7.2,0.12 7.2,0.12 7.2,0.12 7.2,0.12 7.2,0.12 7.2,0.12 7.2,0.12 7.2,0.11 7.2,0.12 7.2,0.12 7.2,0.12 7.2,0.11 7.2,0.11 7.2,0.11 7.2,0.12 7.2,0.11 7.2,0.11 7.2,0.11 7.2,0.11 7.2,0.11 7.2,0.11 7.2,0.1 7.2,0.11 7.2,0.1 7.2,0.11 7.2,0.1 7.2,0.11 7.2,0.1 7.2,0.1 7.2,0.11 7.2,0.09 7.2,0.11 7.2,0.1 7.2,0.09 7.2,0.1 7.2,0.1 7.2,0.1 7.2,0.09 7.2,0.1 7.2,0.1 7.2,0.09 7.2,0.09 7.2,0.09 7.2,0.09 7.2,0.1 7.2,0.09 7.2,0.09 7.2,0.09 7.2,0.09 7.2,0.09 7.2,0.09 7.2,0.09 7.2,0.09 7.2,0.08 7.2,0.09 7.2,0.08 7.2,0.09 7.2,0.08 7.2,0.08 7.2,0.09 7.2,0.08 7.2,0.08 7.2,0.09 7.2,0.08 7.2,0.08 7.2,0.07 7.2,0.09 7.2,0.07 7.2,0.09 7.2,0.07 7.2,0.08 7.2,0.08 7.2,0.07 7.2,0.08 7.2,0.07 7.2,0.08 7.2,0.07 7.2,0.08 7.2,0.07 7.2,0.07 7.2,0.07 7.2,0.08 7.2,0.07 7.2,0.07 7.2,0.07 7.2,0.07 7.2,0.07 7.2,0.07 7.2,0.07 7.2,0.06 7.2,0.07 7.2,0.07 7.2,0.07 7.2,0.07 7.2,0.06 7.2,0.07 7.2,0.06 7.2,0.07 7.2,0.07 7.2,0.05 7.2,0.07 7.2,0.06 7.2,0.06 7.2,0.07 7.2,0.06 7.2,0.06 7.2,0.06 7.2,0.06 7.2,0.06 7.2,0.06 7.2,0.06 7.2,0.06 7.2,0.06 7.2,0.06 7.2,0.05 7.2,0.06 7.2,0.06 7.2,0.06 7.2,0.05 7.2,0.06 7.2,0.06 7.2,0.05 7.2,0.05 7.2,0.06 7.2,0.06 7.2,0.05 7.2,0.05 7.2,0.05 7.2,0.05 7.2,0.06 7.2,0.05 7.2,0.05 7.2,0.05 7.2,0.06 7.2,0.05 7.2,0.05 7.2,0.05 7.2,0.05 7.2,0.05 7.2,0.05 7.2,0.04 7.2,0.05 7.2,0.05 7.2,0.04 7.2,0.06 7.2,0.04 7.2,0.05 7.2,0.05 7.2,0.05 7.2,0.04 7.2,0.05 7.2,0.04 7.2,0.05 7.2,0.04 7.2,0.05 7.2,0.04 7.2,0.04 7.2,0.04 7.2,0.05 7.2,0.04 7.2,0.05 7.2,0.04 7.2,0.04 7.2,0.05 7.2,0.03 7.2,0.05 7.2,0.04 7.2,0.04 7.2,0.04 7.2,0.03 7.2,0.05 7.2,0.04 7.2,0.04 7.2,0.03 7.2,0.05 7.2,0.04 7.2,0.03 7.2,0.04 7.2,0.04 7.2,0.03 7.2,0.04 7.2,0.04 7.2,0.04 7.2,0.04 7.2,0.03 7.2,0.04 7.2,0.03 7.2,0.04 7.2,0.04 7.2,0.03 7.2,0.03 7.2,0.04 7.2,0.03 7.2,0.04 7.2,0.03 7.2,0.03 7.2,0.04 7.2,0.03 7.2,0.04 7.2,0.03 7.2,0.03 7.2,0.04 7.2,0.03 7.2,0.03 7.2,0.04 7.2,0.03 7.2,0.02 7.2,0.04 7.2,0.03 7.2,0.02 7.2,0.04 7.2,0.03 7.2,0.03 7.2,0.03 7.2,0.03 7.2,0.03 7.2,0.03"
         style="fill:none;stroke:#000000;stroke-width:15;stroke-linecap:butt;stroke-linejoin:round;stroke-miterlimit:10;stroke-dasharray:none;stroke-opacity:1"
         id="path114"
         inkscape:connector-curvature="0" /><path
         d="m 1395,673.281 h 7.2 v 0 h 7.2 v 0 h 7.2 v 0 h 7.2 v 0 h 7.2 v 0 h 7.2 v 0 h 7.2 v 0 h 7.2 v 0 h 7.2 v 0 h 7.2 v 0 h 7.2 v 0 h 7.2 v 0 h 7.2 v 0 h 7.2 v 0 h 7.2 v 0 h 7.2 v 0 h 7.2 v 0 h 7.2 v 0 h 7.2 v 0 h 7.2 v 0 h 7.2 v 0 h 7.2 v 0 h 7.2 v 0 h 7.2 v 0 h 7.2 v 0 h 7.2 v 0 h 7.2 v 0 h 7.2 v 0 h 7.2 v 0 h 7.2 v 0 h 7.2 v 0 h 7.2 v 0 h 7.2 v 0 h 7.2 v 0 h 7.2 v 0 h 7.2 v 0 h 7.2 v 0 h 7.2 v 0 h 7.2 v 0 h 7.2 v 0 h 7.2 v 0 h 7.2 v 0 h 7.2 v 0 h 7.2 v 0 h 7.2 v 0 h 7.2 v 0 h 7.2 v 0 h 7.2 v 0 h 7.2 v 0 h 7.2 v 0 h 7.2 v 0 h 7.2 v 0 h 7.2 v 0 h 7.2 v 0 h 7.2 v 0 h 7.2 v 0 h 7.2 v 0 h 7.2 v 0 h 7.2 v 0 h 7.2 v 0 h 7.2 v 0 h 7.2 v 0 h 7.2 v 0 h 7.2 v 0 h 7.2 v 0 h 7.2 v 0 h 7.2 v 0 h 7.2 v 0 h 7.2 v 0 h 7.2 v 0 h 7.2 v 0 h 7.2 v 0 h 7.2 v 0 h 7.2 v 0 h 7.2 v 0 h 7.2 v 0 h 7.2 v 0 h 7.2 v 0 h 7.2 v 0 h 7.2 v 0 h 7.2 v 0 h 7.2 v 0 h 7.2 v 0 h 7.2 v 0 h 7.2 v 0 h 7.2 v 0 h 7.2 v 0 h 7.2 v 0 h 7.2 v 0 h 7.2 v 0 h 7.2 v 0 h 7.2 v 0 h 7.2 v 0 h 7.2 v 0 h 7.2 v 0 h 7.2 v 0 h 7.2 v 0 h 7.2 v 0 h 7.2 v 0 h 7.2 V 2533.79 h 7.2 v 0 h 7.2 v 0 h 7.2 v 0 h 7.2 v 0 h 7.2 v 0 h 7.2 v 0 h 7.2 v 0 h 7.2 v 0 h 7.2 v 0 h 7.2 v 0 h 7.2 v 0 h 7.2 v 0 h 7.2 v 0 h 7.2 v 0 h 7.2 v 0 h 7.2 v 0 h 7.2 v 0 h 7.2 v 0 h 7.2 v 0 h 7.2 v 0 h 7.2 v 0 h 7.2 v 0 h 7.2 v 0 h 7.2 v 0 h 7.2 v 0 h 7.2 v 0 h 7.2 v 0 h 7.2 v 0 h 7.2 v 0 h 7.2 v 0 h 7.2 v 0 h 7.2 v 0 h 7.2 v 0 h 7.2 v 0 h 7.2 v 0 h 7.2 v 0 h 7.2 v 0 h 7.2 v 0 h 7.2 v 0 h 7.2 v 0 h 7.2 v 0 h 7.2 v 0 h 7.2 v 0 h 7.2 v 0 h 7.2 v 0 h 7.2 v 0 h 7.2 v 0 h 7.2 v 0 h 7.2 v 0 h 7.2 v 0 h 7.2 v 0 h 7.2 v 0 h 7.2 v 0 h 7.2 v 0 h 7.2 v 0 h 7.2 v 0 h 7.2 v 0 h 7.2 v 0 h 7.2 v 0 h 7.2 v 0 h 7.2 v 0 h 7.2 v 0 h 7.2 v 0 h 7.2 v 0 h 7.2 v 0 h 7.2 v 0 h 7.2 v 0 h 7.2 v 0 h 7.2 v 0 h 7.2 v 0 h 7.2 v 0 h 7.2 v 0 h 7.2 v 0 h 7.2 v 0 h 7.2 v 0 h 7.2 v 0 h 7.2 v 0 h 7.2 v 0 h 7.2 v 0 h 7.2 v 0 h 7.2 v 0 h 7.2 v 0 h 7.2 v 0 h 7.2 v 0 h 7.2 v 0 h 7.2 v 0 h 7.2 v 0 h 7.2 v 0 h 7.2 v 0 h 7.2 v 0 h 7.2 v 0 h 7.2 v 0 h 7.2 v 0 h 7.2 v 0 h 7.2 v 0 h 7.2 v 0 h 7.2 v 0 h 7.2 v 0 h 7.2 v 0 h 7.2 v 0 h 7.2 v 0 h 7.2 v 0 h 7.2 v 0 h 7.2 v 0 h 7.2 v 0 h 7.2 v 0 h 7.2 v 0 h 7.2 v 0 h 7.2 v 0 h 7.2 v 0 h 7.2 v 0 h 7.2 v 0 h 7.2 v 0 h 7.2 v 0 h 7.2 v 0 h 7.2 v 0 h 7.2 v 0 h 7.2 v 0 h 7.2 v 0 h 7.2 v 0 h 7.2 v 0 h 7.2 v 0 h 7.2 v 0 h 7.2 v 0 h 7.2 v 0 h 7.2 v 0 h 7.2 v 0 h 7.2 v 0 h 7.2 v 0 h 7.2 v 0 h 7.2 v 0 h 7.2 v 0 h 7.2 v 0 h 7.2 v 0 h 7.2 v 0 h 7.2 v 0 h 7.2 v 0 h 7.2 v 0 h 7.2 v 0 h 7.2 v 0 h 7.2 v 0 h 7.2 v 0 h 7.2 v 0 h 7.2 v 0 h 7.2 v 0 h 7.2 v 0 h 7.2 v 0 h 7.2 v 0 h 7.2 v 0 h 7.2 v 0 h 7.2 v 0 h 7.2 v 0 h 7.2 v 0 h 7.2 v 0 h 7.2 v 0 h 7.2 v 0 h 7.2 v 0 h 7.2 v 0 h 7.2 v 0 h 7.2 v 0 h 7.2 v 0 h 7.2 v 0 h 7.2 v 0 h 7.2 v 0 h 7.2 v 0 h 7.2 v 0 h 7.2 v 0 h 7.2 v 0 h 7.2 v 0 h 7.2 v 0 h 7.2 v 0 h 7.2 v 0 h 7.2 v 0 h 7.2 v 0 h 7.2 v 0 h 7.2 v 0 h 7.2 v 0 h 7.2 v 0 h 7.2 v 0 h 7.2 v 0 h 7.2 v 0 h 7.2 v 0 h 7.2 v 0 h 7.2 v 0 h 7.2 v 0 h 7.2 v 0 h 7.2 v 0 h 7.2 v 0 h 7.2 v 0 h 7.2 v 0 h 7.2 v 0 h 7.2 v 0 h 7.2 v 0 h 7.2 v 0 h 7.2 v 0 h 7.2 v 0 h 7.2 v 0 h 7.2 v 0 h 7.2 v 0 h 7.2 v 0 h 7.2 v 0 h 7.2 v 0 h 7.2 v 0 h 7.2 v 0 h 7.2 v 0 h 7.2 v 0 h 7.2 v 0 h 7.2 v 0 h 7.2 v 0 h 7.2 v 0 h 7.2 v 0 h 7.2 v 0 h 7.2 v 0 h 7.2 v 0 h 7.2 v 0 h 7.2 v 0 h 7.2 v 0 h 7.2 v 0 h 7.2 v 0 h 7.2 v 0 h 7.2 v 0 h 7.2 v 0 h 7.2 v 0 h 7.2 v 0 h 7.2 v 0 h 7.2 v 0 h 7.2 v 0 h 7.2 v 0 h 7.2 v 0 h 7.2 v 0 h 7.2 v 0 h 7.2 v 0 h 7.2 v 0 h 7.2 v 0 h 7.2 v 0 h 7.2 v 0 h 7.2 v 0 h 7.2 v 0 h 7.2 v 0 h 7.2 v 0 h 7.2 v 0 h 7.2 v 0 h 7.2 v 0 h 7.2 v 0 h 7.2 v 0 h 7.2 v 0 h 7.2 v 0 h 7.2 v 0 h 7.2 v 0 h 7.2 v 0 h 7.2 v 0 h 7.2 v 0 h 7.2 v 0 h 7.2 v 0 h 7.2 v 0 h 7.2 v 0 h 7.2 v 0 h 7.2 v 0 h 7.2 v 0 h 7.2 v 0 h 7.2 v 0 h 7.2 v 0 h 7.2 v 0 h 7.2 v 0 h 7.2 v 0 h 7.2 v 0 h 7.2 v 0 h 7.2 v 0 h 7.2 v 0 h 7.2 v 0 h 7.2 v 0 h 7.2 v 0 h 7.2 v 0 h 7.2 v 0 h 7.2 v 0 h 7.2 v 0 h 7.2 v 0 h 7.2 v 0 h 7.2 v 0 h 7.2 v 0 h 7.2 v 0 h 7.2 v 0 h 7.2 v 0 h 7.2 v 0 h 7.2 v 0 h 7.2 v 0 h 7.2 v 0 h 7.2 v 0 h 7.2 v 0 h 7.2 v 0 h 7.2 v 0 h 7.2 v 0 h 7.2 v 0 h 7.2 v 0 h 7.2 v 0 h 7.2 v 0 h 7.2 v 0 h 7.2 v 0 h 7.2 v 0 h 7.2 v 0 h 7.2 v 0 h 7.2 v 0 h 7.2 v 0 h 7.2 v 0 h 7.2 v 0 h 7.2 v 0 h 7.2 v 0 h 7.2 v 0 h 7.2 v 0 h 7.2 v 0 h 7.2 v 0 h 7.2 v 0 h 7.2 v 0 h 7.2 v 0 h 7.2 v 0 h 7.2 v 0 h 7.2 v 0 h 7.2 v 0 h 7.2 v 0 h 7.2 v 0 h 7.2 v 0 h 7.2 v 0 h 7.2 v 0 h 7.2 v 0 h 7.2 v 0 h 7.2 v 0 h 7.2 v 0 h 7.2 v 0 h 7.2 v 0 h 7.2 v 0 h 7.2 v 0 h 7.2 v 0 h 7.2 v 0 h 7.2 v 0 h 7.2 v 0 h 7.2 v 0 h 7.2 v 0 h 7.2 v 0 h 7.2 v 0 h 7.2 v 0 h 7.2 v 0 h 7.2 v 0 h 7.2 v 0 h 7.2 v 0 h 7.2 v 0 h 7.2 v 0 h 7.2 v 0 h 7.2 v 0 h 7.2 v 0 h 7.2 v 0 h 7.2 v 0 h 7.2 v 0 h 7.2 v 0 h 7.2 v 0 h 7.2 v 0 h 7.2 v 0 h 7.2 v 0 h 7.2 v 0 h 7.2 v 0 h 7.2 v 0 h 7.2 v 0 h 7.2 v 0 h 7.2 v 0 h 7.2 v 0 h 7.2 v 0 h 7.2 v 0 h 7.2 v 0 h 7.2 v 0 h 7.2 v 0 h 7.2 v 0 h 7.2 v 0 h 7.2 v 0 h 7.2 v 0 h 7.2 v 0 h 7.2 v 0 h 7.2 v 0 h 7.2 v 0 h 7.2 v 0 h 7.2 v 0 h 7.2 v 0 h 7.2 v 0 h 7.2 v 0 h 7.2 v 0 h 7.2 v 0 h 7.2 v 0 h 7.2 v 0 h 7.2 v 0 h 7.2 v 0 h 7.2 v 0 h 7.2 v 0 h 7.2 v 0 h 7.2 v 0 h 7.2 v 0 h 7.2 v 0 h 7.2 v 0 h 7.2 v 0 h 7.2 v 0 h 7.2 v 0 h 7.2 v 0 h 7.2 v 0 h 7.2 v 0 h 7.2 v 0 h 7.2 v 0 h 7.2 v 0 h 7.2 v 0 h 7.2 v 0 h 7.2 v 0 h 7.2 v 0 h 7.2 v 0 h 7.2 v 0 h 7.2 v 0 h 7.2 v 0 h 7.2 v 0 h 7.2 v 0 h 7.2 v 0 h 7.2 v 0 h 7.2 v 0 h 7.2 v 0 h 7.2 v 0 h 7.2 v 0 h 7.2 v 0 h 7.2 v 0 h 7.2 v 0 h 7.2 v 0 h 7.2 v 0 h 7.2 v 0 h 7.2 v 0 h 7.2 v 0 h 7.2 v 0 h 7.2 v 0 h 7.2 v 0 h 7.2 v 0 h 7.2 v 0 h 7.2 v 0 h 7.2 v 0 h 7.2 v 0 h 7.2 v 0 h 7.2 v 0 h 7.2 v 0 h 7.2 v 0 h 7.2 v 0 h 7.2 v 0 h 7.2 v 0 h 7.2 v 0 h 7.2 v 0 h 7.2 v 0 h 7.2 v 0 h 7.2 v 0 h 7.2 v 0 h 7.2 v 0 h 7.2 v 0 h 7.2 v 0 h 7.2 v 0 h 7.2 v 0 h 7.2 v 0 h 7.2 v 0 h 7.2 v 0 h 7.2 v 0 h 7.2 v 0 h 7.2 v 0 h 7.2 v 0 h 7.2 v 0 h 7.2 v 0 h 7.2 v 0 h 7.2 v 0 h 7.2 v 0 h 7.2 v 0 h 7.2 v 0 h 7.2 v 0 h 7.2 v 0 h 7.2 v 0 h 7.2 v 0 h 7.2 v 0 h 7.2 v 0 h 7.2 v 0 h 7.2 v 0 h 7.2 v 0 h 7.2 v 0 h 7.2 v 0 h 7.2 v 0 h 7.2 v 0 h 7.2 v 0 h 7.2 v 0 h 7.2 v 0 h 7.2 v 0 h 7.2 v 0 h 7.2 v 0 h 7.2 v 0 h 7.2 v 0 h 7.2 v 0 h 7.2 v 0 h 7.2 v 0 h 7.2 v 0 h 7.2 v 0 h 7.2 v 0 h 7.2 v 0 h 7.2 v 0 h 7.2 v 0 h 7.2 v 0 h 7.2 v 0 h 7.2 v 0 h 7.2 v 0 h 7.2 v 0 h 7.2 v 0 h 7.2 v 0 h 7.2 v 0 h 7.2 v 0 h 7.2 v 0 h 7.2 v 0 h 7.2 v 0 h 7.2 v 0 h 7.2 v 0 h 7.2 v 0 h 7.2 v 0 h 7.2 v 0 h 7.2 v 0 h 7.2 v 0 h 7.2 v 0 h 7.2 v 0 h 7.2 v 0 h 7.2 v 0 h 7.2 v 0 h 7.2 v 0 h 7.2 v 0 h 7.2 v 0 h 7.2 v 0 h 7.2 v 0 h 7.2 v 0 h 7.2 v 0 h 7.2 v 0 h 7.2 v 0 h 7.2 v 0 h 7.2 v 0 h 7.2 v 0 h 7.2 v 0 h 7.2 v 0 h 7.2 v 0 h 7.2 v 0 h 7.2 v 0 h 7.2 v 0 h 7.2 v 0 h 7.2 v 0 h 7.2 v 0 h 7.2 v 0 h 7.2 v 0 h 7.2 v 0 h 7.2 v 0 h 7.2 v 0 h 7.2 v 0 h 7.2 v 0 h 7.2 v 0 h 7.2 v 0 h 7.2 v 0 h 7.2 v 0 h 7.2 v 0 h 7.2 v 0 h 7.2 v 0 h 7.2 v 0 h 7.2 v 0 h 7.2 v 0 h 7.2 v 0 h 7.2 v 0 h 7.2 v 0 h 7.2 v 0 h 7.2 v 0 h 7.2 v 0 h 7.2 v 0 h 7.2 v 0 h 7.2 v 0 h 7.2 v 0 h 7.2 v 0 h 7.2 v 0 h 7.2 v 0 h 7.2 v 0 h 7.2 v 0 h 7.2 v 0 h 7.2 v 0 h 7.2 v 0 h 7.2 v 0 h 7.2 v 0 h 7.2 v 0 h 7.2 v 0 h 7.2 v 0 h 7.2 v 0 h 7.2 v 0 h 7.2 v 0 h 7.2 v 0 h 7.2 v 0 h 7.2 v 0 h 7.2 v 0 h 7.2 v 0 h 7.2 v 0 h 7.2 v 0 h 7.2 v 0 h 7.2 v 0 h 7.2 v 0 h 7.2 v 0 h 7.2 v 0 h 7.2 v 0 h 7.2 v 0 h 7.2 v 0 h 7.2 v 0 h 7.2 v 0 h 7.2 v 0 h 7.2 v 0 h 7.2 v 0 h 7.2 v 0 h 7.2 v 0 h 7.2 v 0 h 7.2 v 0 h 7.2 v 0 h 7.2 v 0 h 7.2 v 0 h 7.2 v 0 h 7.2 v 0 h 7.2 v 0 h 7.2 v 0 h 7.2 v 0 h 7.2 v 0 h 7.2 v 0 h 7.2 v 0 h 7.2 v 0 h 7.2 v 0 h 7.2 v 0 h 7.2 v 0 h 7.2 v 0 h 7.2 v 0 h 7.2 v 0 h 7.2 v 0 h 7.2 v 0 h 7.2 v 0 h 7.2 v 0 h 7.2 v 0 h 7.2 v 0 h 7.2 v 0 h 7.2 v 0 h 7.2 v 0 h 7.2 v 0 h 7.2 v 0 h 7.2 v 0 h 7.2 v 0 h 7.2 v 0 h 7.2 v 0 h 7.2 v 0 h 7.2 v 0 h 7.2 v 0 h 7.2 v 0 h 7.2 v 0 h 7.2 v 0 h 7.2 v 0 h 7.2 v 0 h 7.2 v 0 h 7.2 v 0 h 7.2 v 0 h 7.2 v 0 h 7.2 v 0 h 7.2 v 0 h 7.2 v 0 h 7.2 v 0 h 7.2 v 0 h 7.2 v 0 h 7.2 v 0 h 7.2 v 0 h 7.2 v 0 h 7.2 v 0 h 7.2 v 0 h 7.2 v 0 h 7.2 v 0 h 7.2 v 0 h 7.2 v 0 h 7.2 v 0 h 7.2 v 0 h 7.2 v 0 h 7.2 v 0 h 7.2 v 0 h 7.2 v 0 h 7.2 v 0 h 7.2 v 0 h 7.2 v 0 h 7.2 v 0 h 7.2 v 0 h 7.2 v 0 h 7.2 v 0 h 7.2 v 0 h 7.2 v 0 h 7.2 v 0 h 7.2 v 0 h 7.2 v 0 h 7.2 v 0 h 7.2 v 0 h 7.2 v 0 h 7.2 v 0 h 7.2 v 0 h 7.2 v 0 h 7.2 v 0 h 7.2 v 0 h 7.2 v 0 h 7.2 v 0 h 7.2 v 0 h 7.2 v 0 h 7.2 v 0 h 7.2 v 0 h 7.2 v 0 h 7.2 v 0 h 7.2 v 0 h 7.2 v 0 h 7.2 v 0 h 7.2 v 0 h 7.2 v 0 h 7.2 v 0 h 7.2 v 0 h 7.2 v 0 h 7.2 v 0 h 7.2 v 0 h 7.2 v 0 h 7.2 v 0 h 7.2 v 0 h 7.2 v 0 h 7.2 v 0 h 7.2 v 0 h 7.2 v 0 h 7.2 v 0 h 7.2 v 0 h 7.2 v 0 h 7.2 v 0 h 7.2 v 0 h 7.2 v 0 h 7.2 v 0 h 7.2 v 0 h 7.2 v 0 h 7.2 v 0 h 7.2 v 0 h 7.2 v 0 h 7.2 v 0 h 7.2 v 0 h 7.2 v 0 h 7.2 v 0 h 7.2 v 0 h 7.2 v 0 h 7.2 v 0 h 7.2 v 0 h 7.2 v 0 h 7.2 v 0 h 7.2 v 0 h 7.2 v 0 h 7.2 v 0 h 7.2 v 0 h 7.2 v 0 h 7.2 v 0 h 7.2 v 0 h 7.2 v 0 h 7.2 v 0 h 7.2 v 0 h 7.2 v 0 h 7.2 v 0 h 7.2 v 0 h 7.2 v 0 h 7.2 v 0 h 7.2 v 0 h 7.2 v 0 h 7.2 v 0 h 7.2 v 0 h 7.2 v 0 h 7.2 v 0 h 7.2 v 0 h 7.2 v 0 h 7.2 v 0 h 7.2 v 0 h 7.2 v 0 h 7.2 v 0 h 7.2 v 0 h 7.2 v 0 h 7.2 v 0 h 7.2 v 0 h 7.2 v 0 h 7.2 v 0 h 7.2 v 0 h 7.2 v 0 h 7.2 v 0 h 7.2 v 0 h 7.2 v 0 h 7.2 v 0 h 7.2 v 0 h 7.2 v 0 h 7.2 v 0 h 7.2 v 0 h 7.2 v 0 h 7.2 v 0 h 7.2 v 0 h 7.2 v 0 h 7.2 v 0 h 7.2 v 0 h 7.2 v 0 h 7.2 v 0 h 7.2 v 0 h 7.2 v 0 h 7.2 v 0 h 7.2 v 0 h 7.2 v 0 h 7.2 v 0 h 7.2 v 0 h 7.2 v 0 h 7.2 v 0 h 7.2 v 0 h 7.2 v 0 h 7.2 v 0 h 7.2 v 0 h 7.2 v 0 h 7.2 v 0 h 7.2 v 0 h 7.2 v 0 h 7.2 v 0 h 7.2 v 0 h 7.2 v 0 h 7.2 v 0 h 7.2 v 0 h 7.2 v 0 h 7.2 v 0 h 7.2 v 0 h 7.2 v 0 h 7.2 v 0 h 7.2 v 0 h 7.2 v 0 h 7.2 v 0 h 7.2 v 0 h 7.2 v 0 h 7.2 v 0 h 7.2 v 0 h 7.2 v 0 h 7.2 v 0 h 7.2 v 0 h 7.2 v 0 h 7.2 v 0 h 7.2 v 0 h 7.2 v 0 h 7.2 v 0 h 7.2 v 0 h 7.2 v 0 h 7.2 v 0 h 7.2 v 0 h 7.2 v 0 h 7.2 v 0 h 7.2 v 0 h 7.2 v 0 h 7.2 v 0 h 7.2 v 0 h 7.2 v 0 h 7.2 v 0 h 7.2 v 0 h 7.2 v 0 h 7.2 v 0 h 7.2 v 0 h 7.2 v 0 h 7.2 v 0 h 7.2 v 0 h 7.2 v 0 h 7.2 v 0 h 7.2 v 0 h 7.2 v 0 h 7.2 v 0 h 7.2 v 0 h 7.2 v 0 h 7.2 v 0 h 7.2 v 0 h 7.2 v 0 h 7.2 v 0 h 7.2 v 0 h 7.2 v 0 h 7.2 v 0 h 7.2 v 0 h 7.2 v 0 h 7.2 v 0 h 7.2 v 0 h 7.2 v 0 h 7.2 v 0 h 7.2 v 0 h 7.2 v 0 h 7.2 v 0 h 7.2 v 0 h 7.2 v 0 h 7.2 v 0 h 7.2 v 0 h 7.2 v 0 h 7.2 v 0 h 7.2 v 0 h 7.2 v 0 h 7.2 v 0 h 7.2 v 0 h 7.2 v 0 h 7.2 v 0 h 7.2 v 0 h 7.2 v 0 h 7.2 v 0 h 7.2 v 0 h 7.2 v 0 h 7.2 v 0 h 7.2 v 0 h 7.2 v 0 h 7.2 v 0 h 7.2 v 0"
         style="fill:none;stroke:#ff0000;stroke-width:15;stroke-linecap:butt;stroke-linejoin:miter;stroke-miterlimit:10;stroke-dasharray:none;stroke-opacity:1"
         id="path116"
         inkscape:connector-curvature="0" /><path
         d="M 1492.5,2752.5 H 1995 V 3315 h -502.5 z"
         style="fill:#ffffff;fill-opacity:1;fill-rule:nonzero;stroke:none"
         id="path118"
         inkscape:connector-curvature="0" /><path
         d="m 1866.29,3083.83 c 3.04,-5.23 8.35,-7.85 15.94,-7.85 6.87,0 12.81,2.42 17.81,7.27 5,4.84 9.04,10.68 12.12,17.52 3.09,6.84 5.49,13.81 7.22,20.92 -6.42,-6.1 -13.41,-9.15 -20.99,-9.15 -5.7,0 -10.57,1 -14.59,2.99 -4.02,1.99 -7.14,4.96 -9.37,8.91 -2.23,3.94 -3.34,8.69 -3.34,14.24 0,4.76 0.62,9.64 1.87,14.64 1.25,5 3.03,10.55 5.34,16.64 2.3,6.1 4.31,11.41 6.03,15.94 1.88,5.31 2.81,9.69 2.81,13.13 0,4.3 -1.56,6.45 -4.68,6.45 -5.78,0 -10.53,-2.95 -14.25,-8.85 -3.71,-5.9 -6.46,-12.52 -8.25,-19.87 -0.24,-0.86 -0.82,-1.28 -1.76,-1.28 h -2.57 c -1.18,0 -1.77,0.66 -1.77,1.98 v 0.59 c 2.35,8.67 5.92,16.35 10.73,23.03 4.8,6.68 10.87,10.02 18.22,10.02 5.15,0 9.53,-1.7 13.13,-5.1 3.59,-3.4 5.38,-7.71 5.38,-12.95 0,-2.66 -0.59,-5.47 -1.75,-8.44 -0.71,-1.79 -2.19,-5.66 -4.46,-11.6 -2.26,-5.94 -3.98,-10.86 -5.15,-14.76 -1.17,-3.91 -2.16,-7.74 -2.93,-11.49 -0.78,-3.75 -1.17,-7.5 -1.17,-11.25 0,-4.84 1.01,-8.92 3.04,-12.24 2.03,-3.32 5.27,-4.98 9.73,-4.98 8.98,0 17.07,5.51 24.25,16.52 l 16.41,66.92 c 0.55,1.95 1.7,3.61 3.46,4.98 1.75,1.36 3.65,2.04 5.69,2.04 1.79,0 3.35,-0.56 4.69,-1.69 1.32,-1.14 1.98,-2.6 1.98,-4.4 0,-0.86 -0.07,-1.45 -0.23,-1.76 l -21.56,-86.48 c -1.96,-7.5 -5.47,-14.65 -10.55,-21.44 -5.08,-6.8 -11.21,-12.27 -18.39,-16.41 -7.2,-4.14 -14.7,-6.21 -22.5,-6.21 -3.75,0 -7.47,0.74 -11.15,2.22 -3.66,1.49 -6.63,3.68 -8.9,6.56 -2.26,2.9 -3.39,6.29 -3.39,10.2 0,3.9 1.17,7.32 3.51,10.25 2.34,2.93 5.43,4.4 9.26,4.4 2.34,0 4.32,-0.72 5.92,-2.17 1.6,-1.44 2.4,-3.34 2.4,-5.69 0,-3.35 -1.23,-6.26 -3.69,-8.73 -2.46,-2.45 -5.38,-3.69 -8.73,-3.69 -0.16,0.08 -0.3,0.12 -0.42,0.12 -0.11,0 -0.25,0 -0.4,0"
         style="fill:#000000;fill-opacity:1;fill-rule:nonzero;stroke:none"
         id="path120"
         inkscape:connector-curvature="0" /><path
         d="m 1522.75,3167.8 h 302.56"
         style="fill:none;stroke:#000000;stroke-width:15;stroke-linecap:butt;stroke-linejoin:round;stroke-miterlimit:10;stroke-dasharray:none;stroke-opacity:1"
         id="path122"
         inkscape:connector-curvature="0" /><path
         d="m 1864.76,2850.64 c 0,0.87 0.08,1.49 0.24,1.88 l 16.29,64.92 c 1.01,3.99 1.52,7.51 1.52,10.55 0,6.25 -2.11,9.38 -6.33,9.38 -4.53,0 -7.89,-2.72 -10.08,-8.15 -2.19,-5.43 -4.33,-12.28 -6.44,-20.57 0,-0.39 -0.2,-0.7 -0.58,-0.94 -0.4,-0.23 -0.79,-0.34 -1.18,-0.34 h -2.57 c -0.48,0 -0.89,0.25 -1.24,0.76 -0.35,0.51 -0.53,1 -0.53,1.46 1.57,6.25 3.07,11.58 4.52,16 1.44,4.41 3.71,8.42 6.79,12.01 3.08,3.6 6.93,5.39 11.54,5.39 5,0 9.4,-1.44 13.19,-4.34 3.79,-2.89 6.15,-6.72 7.08,-11.48 3.68,4.85 7.86,8.69 12.55,11.54 4.68,2.86 9.85,4.28 15.47,4.28 4.61,0 8.67,-1.35 12.19,-4.04 3.51,-2.7 5.27,-6.35 5.27,-10.96 0,-3.67 -1.16,-6.88 -3.46,-9.61 -2.3,-2.74 -5.37,-4.1 -9.2,-4.1 -2.34,0 -4.32,0.74 -5.92,2.22 -1.6,1.49 -2.4,3.4 -2.4,5.75 0,3.13 1.17,5.96 3.52,8.5 2.34,2.54 5.04,3.8 8.08,3.8 -2.34,1.88 -5.19,2.82 -8.55,2.82 -6.17,0 -11.57,-2.21 -16.17,-6.62 -4.61,-4.42 -8.75,-10.02 -12.42,-16.82 l -15.59,-62.23 c -0.47,-2.03 -1.56,-3.75 -3.28,-5.16 -1.72,-1.4 -3.68,-2.1 -5.86,-2.1 -1.72,0 -3.23,0.56 -4.52,1.7 -1.29,1.13 -1.93,2.63 -1.93,4.5"
         style="fill:#000000;fill-opacity:1;fill-rule:nonzero;stroke:none"
         id="path124"
         inkscape:connector-curvature="0" /><path
         d="m 1522.75,2899.7 h 302.56"
         style="fill:none;stroke:#ff0000;stroke-width:15;stroke-linecap:butt;stroke-linejoin:round;stroke-miterlimit:10;stroke-dasharray:none;stroke-opacity:1"
         id="path126"
         inkscape:connector-curvature="0" /><path
         d="M 1492.5,2752.5 H 1995 V 3315 h -502.5 z"
         style="fill:none;stroke:#262626;stroke-width:5.00250006;stroke-linecap:butt;stroke-linejoin:miter;stroke-miterlimit:10;stroke-dasharray:none;stroke-opacity:1"
         id="path128"
         inkscape:connector-curvature="0" /></g></g></svg>