<?xml version="1.0" encoding="UTF-8" standalone="no"?>
<!-- Created with Inkscape (http://www.inkscape.org/) -->

<svg
   xmlns:dc="http://purl.org/dc/elements/1.1/"
   xmlns:cc="http://creativecommons.org/ns#"
   xmlns:rdf="http://www.w3.org/1999/02/22-rdf-syntax-ns#"
   xmlns:svg="http://www.w3.org/2000/svg"
   xmlns="http://www.w3.org/2000/svg"
   xmlns:sodipodi="http://sodipodi.sourceforge.net/DTD/sodipodi-0.dtd"
   xmlns:inkscape="http://www.inkscape.org/namespaces/inkscape"
   version="1.1"
   id="svg2"
   xml:space="preserve"
   width="1200"
   height="500"
   viewBox="0 0 1200 500"
   sodipodi:docname="steparx1simy.svg"
   inkscape:version="0.92.3 (2405546, 2018-03-11)"><metadata
     id="metadata8"><rdf:RDF><cc:Work
         rdf:about=""><dc:format>image/svg+xml</dc:format><dc:type
           rdf:resource="http://purl.org/dc/dcmitype/StillImage" /><dc:title></dc:title></cc:Work></rdf:RDF></metadata><defs
     id="defs6" /><sodipodi:namedview
     pagecolor="#ffffff"
     bordercolor="#666666"
     borderopacity="1"
     objecttolerance="10"
     gridtolerance="10"
     guidetolerance="10"
     inkscape:pageopacity="0"
     inkscape:pageshadow="2"
     inkscape:window-width="1538"
     inkscape:window-height="877"
     id="namedview4"
     showgrid="false"
     inkscape:zoom="0.80138768"
     inkscape:cx="562.05329"
     inkscape:cy="300.30521"
     inkscape:window-x="-8"
     inkscape:window-y="-8"
     inkscape:window-maximized="1"
     inkscape:current-layer="g10" /><g
     id="g10"
     inkscape:groupmode="layer"
     inkscape:label="ink_ext_XXXXXX"
     transform="matrix(1.3333333,0,0,-1.3333333,0,500)"><g
       id="g12"
       transform="scale(0.1)"><path
         d="M 0,0 H 9000 V 3750 H 0 Z"
         style="fill:#ffffff;fill-opacity:1;fill-rule:nonzero;stroke:none"
         id="path14"
         inkscape:connector-curvature="0" /><path
         d="M 0,0 H 9000 V 3750 H 0 Z"
         style="fill:#ffffff;fill-opacity:1;fill-rule:nonzero;stroke:none"
         id="path16"
         inkscape:connector-curvature="0" /><path
         d="M 1395,600 H 8595 V 3412.5 H 1395 Z"
         style="fill:#ffffff;fill-opacity:1;fill-rule:nonzero;stroke:none"
         id="path18"
         inkscape:connector-curvature="0" /><path
         d="M 1395,600 H 8595"
         style="fill:none;stroke:#262626;stroke-width:5.00250006;stroke-linecap:square;stroke-linejoin:round;stroke-miterlimit:10;stroke-dasharray:none;stroke-opacity:1"
         id="path20"
         inkscape:connector-curvature="0" /><path
         d="M 1395,3412.5 H 8595"
         style="fill:none;stroke:#262626;stroke-width:5.00250006;stroke-linecap:square;stroke-linejoin:round;stroke-miterlimit:10;stroke-dasharray:none;stroke-opacity:1"
         id="path22"
         inkscape:connector-curvature="0" /><path
         d="m 1395,600 v 72"
         style="fill:none;stroke:#262626;stroke-width:5.00250006;stroke-linecap:square;stroke-linejoin:round;stroke-miterlimit:10;stroke-dasharray:none;stroke-opacity:1"
         id="path24"
         inkscape:connector-curvature="0" /><path
         d="m 2295,600 v 72"
         style="fill:none;stroke:#262626;stroke-width:5.00250006;stroke-linecap:square;stroke-linejoin:round;stroke-miterlimit:10;stroke-dasharray:none;stroke-opacity:1"
         id="path26"
         inkscape:connector-curvature="0" /><path
         d="m 3195,600 v 72"
         style="fill:none;stroke:#262626;stroke-width:5.00250006;stroke-linecap:square;stroke-linejoin:round;stroke-miterlimit:10;stroke-dasharray:none;stroke-opacity:1"
         id="path28"
         inkscape:connector-curvature="0" /><path
         d="m 4095,600 v 72"
         style="fill:none;stroke:#262626;stroke-width:5.00250006;stroke-linecap:square;stroke-linejoin:round;stroke-miterlimit:10;stroke-dasharray:none;stroke-opacity:1"
         id="path30"
         inkscape:connector-curvature="0" /><path
         d="m 4995,600 v 72"
         style="fill:none;stroke:#262626;stroke-width:5.00250006;stroke-linecap:square;stroke-linejoin:round;stroke-miterlimit:10;stroke-dasharray:none;stroke-opacity:1"
         id="path32"
         inkscape:connector-curvature="0" /><path
         d="m 5895,600 v 72"
         style="fill:none;stroke:#262626;stroke-width:5.00250006;stroke-linecap:square;stroke-linejoin:round;stroke-miterlimit:10;stroke-dasharray:none;stroke-opacity:1"
         id="path34"
         inkscape:connector-curvature="0" /><path
         d="m 6795,600 v 72"
         style="fill:none;stroke:#262626;stroke-width:5.00250006;stroke-linecap:square;stroke-linejoin:round;stroke-miterlimit:10;stroke-dasharray:none;stroke-opacity:1"
         id="path36"
         inkscape:connector-curvature="0" /><path
         d="m 7695,600 v 72"
         style="fill:none;stroke:#262626;stroke-width:5.00250006;stroke-linecap:square;stroke-linejoin:round;stroke-miterlimit:10;stroke-dasharray:none;stroke-opacity:1"
         id="path38"
         inkscape:connector-curvature="0" /><path
         d="m 8595,600 v 72"
         style="fill:none;stroke:#262626;stroke-width:5.00250006;stroke-linecap:square;stroke-linejoin:round;stroke-miterlimit:10;stroke-dasharray:none;stroke-opacity:1"
         id="path40"
         inkscape:connector-curvature="0" /><path
         d="m 1395,3412.5 v -72"
         style="fill:none;stroke:#262626;stroke-width:5.00250006;stroke-linecap:square;stroke-linejoin:round;stroke-miterlimit:10;stroke-dasharray:none;stroke-opacity:1"
         id="path42"
         inkscape:connector-curvature="0" /><path
         d="m 2295,3412.5 v -72"
         style="fill:none;stroke:#262626;stroke-width:5.00250006;stroke-linecap:square;stroke-linejoin:round;stroke-miterlimit:10;stroke-dasharray:none;stroke-opacity:1"
         id="path44"
         inkscape:connector-curvature="0" /><path
         d="m 3195,3412.5 v -72"
         style="fill:none;stroke:#262626;stroke-width:5.00250006;stroke-linecap:square;stroke-linejoin:round;stroke-miterlimit:10;stroke-dasharray:none;stroke-opacity:1"
         id="path46"
         inkscape:connector-curvature="0" /><path
         d="m 4095,3412.5 v -72"
         style="fill:none;stroke:#262626;stroke-width:5.00250006;stroke-linecap:square;stroke-linejoin:round;stroke-miterlimit:10;stroke-dasharray:none;stroke-opacity:1"
         id="path48"
         inkscape:connector-curvature="0" /><path
         d="m 4995,3412.5 v -72"
         style="fill:none;stroke:#262626;stroke-width:5.00250006;stroke-linecap:square;stroke-linejoin:round;stroke-miterlimit:10;stroke-dasharray:none;stroke-opacity:1"
         id="path50"
         inkscape:connector-curvature="0" /><path
         d="m 5895,3412.5 v -72"
         style="fill:none;stroke:#262626;stroke-width:5.00250006;stroke-linecap:square;stroke-linejoin:round;stroke-miterlimit:10;stroke-dasharray:none;stroke-opacity:1"
         id="path52"
         inkscape:connector-curvature="0" /><path
         d="m 6795,3412.5 v -72"
         style="fill:none;stroke:#262626;stroke-width:5.00250006;stroke-linecap:square;stroke-linejoin:round;stroke-miterlimit:10;stroke-dasharray:none;stroke-opacity:1"
         id="path54"
         inkscape:connector-curvature="0" /><path
         d="m 7695,3412.5 v -72"
         style="fill:none;stroke:#262626;stroke-width:5.00250006;stroke-linecap:square;stroke-linejoin:round;stroke-miterlimit:10;stroke-dasharray:none;stroke-opacity:1"
         id="path56"
         inkscape:connector-curvature="0" /><path
         d="m 8595,3412.5 v -72"
         style="fill:none;stroke:#262626;stroke-width:5.00250006;stroke-linecap:square;stroke-linejoin:round;stroke-miterlimit:10;stroke-dasharray:none;stroke-opacity:1"
         id="path58"
         inkscape:connector-curvature="0" /><g
         id="g60"
         transform="scale(10)"><text
           transform="matrix(1,0,0,-1,133.5,33)"
           style="font-variant:normal;font-weight:normal;font-size:20.00020027px;font-family:Helvetica;-inkscape-font-specification:Helvetica;writing-mode:lr-tb;fill:#262626;fill-opacity:1;fill-rule:nonzero;stroke:none"
           id="text64"><tspan
             x="0 89.999702 174.37454 185.49466 264.37424 275.49435 354.37393 365.49405 444.37366 455.49374 534.37335 545.49347 624.37305 635.49316 714.37274 725.49286"
             y="0"
             sodipodi:role="line"
             id="tspan62">0510152025303540</tspan></text>
<text
           transform="matrix(1,0,0,-1,449.625,5)"
           style="font-variant:normal;font-weight:normal;font-size:21.99970055px;font-family:Helvetica;-inkscape-font-specification:Helvetica;writing-mode:lr-tb;fill:#262626;fill-opacity:1;fill-rule:nonzero;stroke:none"
           id="text68"><tspan
             x="0 13.441816 25.673651 43.999401 56.231232 68.463066 74.578979 81.904884 92.904732"
             y="0"
             sodipodi:role="line"
             id="tspan66">Tempo (s)</tspan></text>
</g><path
         d="M 1395,600 V 3412.5"
         style="fill:none;stroke:#262626;stroke-width:5.00250006;stroke-linecap:square;stroke-linejoin:round;stroke-miterlimit:10;stroke-dasharray:none;stroke-opacity:1"
         id="path70"
         inkscape:connector-curvature="0" /><path
         d="M 8595,600 V 3412.5"
         style="fill:none;stroke:#262626;stroke-width:5.00250006;stroke-linecap:square;stroke-linejoin:round;stroke-miterlimit:10;stroke-dasharray:none;stroke-opacity:1"
         id="path72"
         inkscape:connector-curvature="0" /><path
         d="m 1395,621.082 h 72"
         style="fill:none;stroke:#262626;stroke-width:5.00250006;stroke-linecap:square;stroke-linejoin:round;stroke-miterlimit:10;stroke-dasharray:none;stroke-opacity:1"
         id="path74"
         inkscape:connector-curvature="0" /><path
         d="m 1395,1042.75 h 72"
         style="fill:none;stroke:#262626;stroke-width:5.00250006;stroke-linecap:square;stroke-linejoin:round;stroke-miterlimit:10;stroke-dasharray:none;stroke-opacity:1"
         id="path76"
         inkscape:connector-curvature="0" /><path
         d="m 1395,1464.41 h 72"
         style="fill:none;stroke:#262626;stroke-width:5.00250006;stroke-linecap:square;stroke-linejoin:round;stroke-miterlimit:10;stroke-dasharray:none;stroke-opacity:1"
         id="path78"
         inkscape:connector-curvature="0" /><path
         d="m 1395,1886.08 h 72"
         style="fill:none;stroke:#262626;stroke-width:5.00250006;stroke-linecap:square;stroke-linejoin:round;stroke-miterlimit:10;stroke-dasharray:none;stroke-opacity:1"
         id="path80"
         inkscape:connector-curvature="0" /><path
         d="m 1395,2307.74 h 72"
         style="fill:none;stroke:#262626;stroke-width:5.00250006;stroke-linecap:square;stroke-linejoin:round;stroke-miterlimit:10;stroke-dasharray:none;stroke-opacity:1"
         id="path82"
         inkscape:connector-curvature="0" /><path
         d="m 1395,2729.41 h 72"
         style="fill:none;stroke:#262626;stroke-width:5.00250006;stroke-linecap:square;stroke-linejoin:round;stroke-miterlimit:10;stroke-dasharray:none;stroke-opacity:1"
         id="path84"
         inkscape:connector-curvature="0" /><path
         d="m 1395,3151.07 h 72"
         style="fill:none;stroke:#262626;stroke-width:5.00250006;stroke-linecap:square;stroke-linejoin:round;stroke-miterlimit:10;stroke-dasharray:none;stroke-opacity:1"
         id="path86"
         inkscape:connector-curvature="0" /><path
         d="m 8595,621.082 h -72"
         style="fill:none;stroke:#262626;stroke-width:5.00250006;stroke-linecap:square;stroke-linejoin:round;stroke-miterlimit:10;stroke-dasharray:none;stroke-opacity:1"
         id="path88"
         inkscape:connector-curvature="0" /><path
         d="m 8595,1042.75 h -72"
         style="fill:none;stroke:#262626;stroke-width:5.00250006;stroke-linecap:square;stroke-linejoin:round;stroke-miterlimit:10;stroke-dasharray:none;stroke-opacity:1"
         id="path90"
         inkscape:connector-curvature="0" /><path
         d="m 8595,1464.41 h -72"
         style="fill:none;stroke:#262626;stroke-width:5.00250006;stroke-linecap:square;stroke-linejoin:round;stroke-miterlimit:10;stroke-dasharray:none;stroke-opacity:1"
         id="path92"
         inkscape:connector-curvature="0" /><path
         d="m 8595,1886.08 h -72"
         style="fill:none;stroke:#262626;stroke-width:5.00250006;stroke-linecap:square;stroke-linejoin:round;stroke-miterlimit:10;stroke-dasharray:none;stroke-opacity:1"
         id="path94"
         inkscape:connector-curvature="0" /><path
         d="m 8595,2307.74 h -72"
         style="fill:none;stroke:#262626;stroke-width:5.00250006;stroke-linecap:square;stroke-linejoin:round;stroke-miterlimit:10;stroke-dasharray:none;stroke-opacity:1"
         id="path96"
         inkscape:connector-curvature="0" /><path
         d="m 8595,2729.41 h -72"
         style="fill:none;stroke:#262626;stroke-width:5.00250006;stroke-linecap:square;stroke-linejoin:round;stroke-miterlimit:10;stroke-dasharray:none;stroke-opacity:1"
         id="path98"
         inkscape:connector-curvature="0" /><path
         d="m 8595,3151.07 h -72"
         style="fill:none;stroke:#262626;stroke-width:5.00250006;stroke-linecap:square;stroke-linejoin:round;stroke-miterlimit:10;stroke-dasharray:none;stroke-opacity:1"
         id="path100"
         inkscape:connector-curvature="0" /><g
         id="g102"
         transform="scale(10)"><text
           transform="matrix(1,0,0,-1,110.25,53.8582)"
           style="font-variant:normal;font-weight:normal;font-size:20.00020027px;font-family:Helvetica;-inkscape-font-specification:Helvetica;writing-mode:lr-tb;fill:#262626;fill-opacity:1;fill-rule:nonzero;stroke:none"
           id="text118"><tspan
             x="0 11.120111"
             y="0"
             sodipodi:role="line"
             id="tspan104">30</tspan><tspan
             x="0 11.120111"
             y="-42.166801"
             sodipodi:role="line"
             id="tspan106">32</tspan><tspan
             x="0 11.120111"
             y="-84.333199"
             sodipodi:role="line"
             id="tspan108">34</tspan><tspan
             x="0 11.120111"
             y="-126.4996"
             sodipodi:role="line"
             id="tspan110">36</tspan><tspan
             x="0 11.120111"
             y="-168.666"
             sodipodi:role="line"
             id="tspan112">38</tspan><tspan
             x="0 11.120111"
             y="-210.8324"
             sodipodi:role="line"
             id="tspan114">40</tspan><tspan
             x="0 11.120111"
             y="-252.99921"
             sodipodi:role="line"
             id="tspan116">42</tspan></text>
<text
           transform="matrix(0,1,1,0,102,147.375)"
           style="font-variant:normal;font-weight:normal;font-size:21.99970055px;font-family:Helvetica;-inkscape-font-specification:Helvetica;writing-mode:lr-tb;fill:#262626;fill-opacity:1;fill-rule:nonzero;stroke:none"
           id="text122"><tspan
             x="0 14.6738 19.557734 25.673651 37.905483 45.231384 57.463215 63.579132 70.905029 81.904884 100.23064"
             y="0"
             sodipodi:role="line"
             id="tspan120">Altura (cm)</tspan></text>
</g><g
         id="g124"
         transform="scale(10)"><text
           transform="matrix(1,0,0,-1,247.125,350.625)"
           style="font-variant:normal;font-weight:bold;font-size:21.99970055px;font-family:Helvetica;-inkscape-font-specification:Helvetica-Bold;writing-mode:lr-tb;fill:#000000;fill-opacity:1;fill-rule:nonzero;stroke:none"
           id="text128"><tspan
             x="0 15.883783 28.115616 40.34745 53.789265 67.231087 79.462914 86.788818 99.020653 105.13657 117.3684 123.48431 135.71616 147.94798 160.17981 172.41165 185.85347 198.0853 206.64319 212.75909 224.99094 231.10684 244.54866 257.99048 264.10638 283.66412 297.10596 310.54776 322.7796 328.89551 342.33734 348.45325 364.33704 380.22083 394.89462 407.12643 413.24237 425.47421 431.59012 451.14786 464.58966 470.70557 482.93741 496.37924"
             y="0"
             sodipodi:role="line"
             id="tspan126">Resposta à escadaria do modelo ARX1 simulado</tspan></text>
</g><path
         d="m 1395,621.082 h 9 v 0 h 9 v 0 h 9 v 0 h 9 v 0 h 9 v 0 h 9 v 0 h 9 v 0 h 9 v 0 h 9 v 0 h 9 v 0 h 9 v 0 h 9 v 0 h 9 v 0 h 9 v 0 h 9 v 0 h 9 v 0 h 9 v 0 h 9 v 0 h 9 v 0 h 9 v 0 h 9 v 0 h 9 v 0 h 9 v 0 h 9 v 0 h 9 v 0 h 9 v 0 h 9 v 0 h 9 v 0 h 9 v 0 h 9 v 0 h 9 v 0 h 9 v 0 h 9 v 0 h 9 v 0 h 9 v 0 h 9 v 0 h 9 v 0 h 9 v 0 h 9 v 0 h 9 v 0 h 9 v 0 h 9 v 0 h 9 v 0 h 9 v 0 h 9 v 0 h 9 v 0 h 9 v 0 h 9 v 0 h 9 v 0 h 9 v 0 h 9 v 0 h 9 v 0 h 9 v 0 h 9 v 0 h 9 v 0 h 9 v 0 h 9 v 0 h 9 v 0 h 9 v 0 h 9 v 0 h 9 v 0 h 9 v 0 h 9 v 0 h 9 v 0 h 9 v 0 h 9 v 0 h 9 v 0 h 9 v 0 h 9 v 0 h 9 v 0 h 9 v 0 h 9 v 0 h 9 v 0 h 9 v 0 h 9 v 0 h 9 v 0 h 9 v 0 h 9 v 0 h 9 v 0 h 9 v 0 h 9 v 0 h 9 v 0 h 9 v 0 h 9 v 0 h 9 v 0 h 9 v 0 h 9 v 0 h 9 v 0 h 9 v 0 h 9 v 0 h 9 v 0 h 9 v 0 h 9 v 0 h 9 v 0 h 9 v 0 h 9 v 0 h 9 v 0 h 9 v 0 h 9 v 0 h 9 v 0 h 9 v 2.941 h 9 v 6.727 h 9 v 105.324 h 9 v 167.625 h 9 v 238.051 h 9 v 263.88 h 9 v 273.91 h 9 v 253.01 h 9 v 221.65 h 9 v 178.4 h 9 v 135.97 h 9 v 95.24 h 9 v 62.01 h 9 v 35.85 h 9 v 17.94 h 9 v 6.58 h 9 v 0.88 h 9 v -1.12 h 9 v -0.63 h 9 v 0.95 h 9 v 2.87 h 9 v 4.46 h 9 v 5.51 h 9 v 5.89 h 9 v 5.72 h 9 v 5.1 h 9 v 4.26 h 9 v 3.3 h 9 v 2.37 h 9 v 1.59 h 9 v 0.96 h 9 v 0.49 h 9 v 0.2 h 9 v 0.03 h 9 v -0.03 h 9 v -0.04 h 9 v -0.01 h 9 v 0.04 h 9 v 0.08 h 9 v 0.11 h 9 v 0.13 h 9 v 0.12 h 9 v 0.12 h 9 v 0.1 h 9 v 0.08 h 9 v 0.05 h 9 v 0.05 h 9 v 0.02 h 9 v 0.02 h 9 v 0 h 9 v 0 h 9 v 0 h 9 v 0 h 9 v 0 h 9 v 0 h 9 v 0 h 9 v 0 h 9 v 0 h 9 v 0.01 h 9 v 0 h 9 v 0 h 9 v 0.01 h 9 v 0 h 9 v 0 h 9 v 0 h 9 v 0 h 9 v 0 h 9 v 0 h 9 v 0 h 9 v 0 h 9 v 0 h 9 v 0 h 9 v 0 h 9 v 0 h 9 v 0 h 9 v 0 h 9 v 0 h 9 v 0 h 9 v 0 h 9 v 0 h 9 v 0 h 9 v 0 h 9 v 0 h 9 v 0 h 9 v 0 h 9 v 0 h 9 v 0 h 9 v 0 h 9 v 0 h 9 v 0 h 9 v 0 h 9 v 0 h 9 v 0 h 9 v 0 h 9 v 0 h 9 v 0 h 9 v 0 h 9 v 0 h 9 v 0 h 9 v 0 h 9 v 0 h 9 v 661.54 h 9 v -205.26 h 9 v -55.69 h 9 v -37.58 h 9 v -33.39 h 9 v -34.18 h 9 v -20.79 h 9 v -11.46 h 9 v 0.82 h 9 v 8.01 h 9 v 13.9 h 9 v 15.69 h 9 v 15.92 h 9 v 13.93 h 9 v 11.37 h 9 v 8.28 h 9 v 5.51 h 9 v 3.08 h 9 v 1.31 h 9 v 0.09 h 9 v -0.57 h 9 v -0.84 h 9 v -0.8 h 9 v -0.61 h 9 v -0.35 h 9 v -0.1 h 9 v 0.11 h 9 v 0.27 h 9 v 0.33 h 9 v 0.35 h 9 v 0.33 h 9 v 0.27 h 9 v 0.21 h 9 v 0.14 h 9 v 0.08 h 9 v 0.05 h 9 v 0.01 h 9 v -0.01 h 9 v -0.02 h 9 v -0.02 h 9 v -661.55 h 9 v 205.24 h 9 v 55.69 h 9 v 37.58 h 9 v 33.39 h 9 v 34.19 h 9 v 20.8 h 9 v 11.46 h 9 v -0.81 h 9 v -8 h 9 v -13.89 h 9 v -15.7 h 9 v -15.91 h 9 v -13.93 h 9 V 2747 h 9 v -8.29 h 9 v -5.51 h 9 v -3.07 h 9 v -1.31 h 9 v -0.09 h 9 v 0.57 h 9 v 0.83 h 9 v 0.8 h 9 v 0.62 h 9 v 0.35 h 9 v 0.1 h 9 v -0.12 h 9 v -0.26 h 9 v -0.34 h 9 v -0.35 h 9 v -0.32 h 9 v -0.28 h 9 v -0.2 h 9 v -0.15 h 9 v -0.09 h 9 v -0.03 h 9 v -0.01 h 9 v 0.01 h 9 v 0.02 h 9 v 0.01 h 9 v 0.02 h 9 v 0.02 h 9 v 0 h 9 v 0 h 9 v 0 h 9 v -0.01 h 9 v -0.01 h 9 v -0.01 h 9 v -0.01 h 9 v 0 h 9 v 0 h 9 v -0.01 h 9 v 0 h 9 v 0 h 9 v 0 h 9 v 0 h 9 v 0 h 9 v 0 h 9 v 0 h 9 v 0 h 9 v 0 h 9 v 0 h 9 v 0 h 9 v 0 h 9 v 0 h 9 v 0 h 9 v 0 h 9 v 0 h 9 v 0 h 9 v 0 h 9 v 0 h 9 v 0 h 9 v 0 h 9 v 0 h 9 v 0 h 9 v 0 h 9 v 0 h 9 v 0 h 9 v 0 h 9 v 0 h 9 v 0 h 9 v 0 h 9 v 0 h 9 v 0 h 9 v 0 h 9 v 0 h 9 v 0 h 9 v 0 h 9 v 0 h 9 v 0 h 9 v 0 h 9 v 0 h 9 v 0 h 9 v 0 h 9 v 0 h 9 v 0 h 9 v 0 h 9 v 0 h 9 v 0 h 9 v 0 h 9 v 0 h 9 v 0 h 9 v 0 h 9 v 0 h 9 v 0 h 9 v 0 h 9 v 0 h 9 v 0 h 9 v 0 h 9 v 0 h 9 v 0 h 9 v 0 h 9 v 0 h 9 v 0 h 9 v 0 h 9 v 0 h 9 v 0 h 9 v 0 h 9 v 0 h 9 v 0 h 9 v 0 h 9 v 0 h 9 v 0 h 9 v 0 h 9 v 0 h 9 v 0 h 9 v 0 h 9 v 0 h 9 v 0 h 9 v 0 h 9 v 0 h 9 v 0 h 9 v 0 h 9 v 0 h 9 v 0 h 9 v 0 h 9 v 0 h 9 v 0 h 9 v 0 h 9 v 0 h 9 v 0 h 9 v 0 h 9 v 0 h 9 v 0 h 9 v 0 h 9 v 0 h 9 v 0 h 9 v 0 h 9 v 0 h 9 v 0 h 9 v 0 h 9 v 0 h 9 v 0 h 9 v 0 h 9 v 0 h 9 v 0 h 9 v 0 h 9 v 0 h 9 v 0 h 9 v 0 h 9 v 0 h 9 v 0 h 9 v 0 h 9 v 0 h 9 v 0 h 9 v 0 h 9 v 0 h 9 v 0 h 9 v 0 h 9 v 0 h 9 v 0 h 9 v 0 h 9 v 0 h 9 v 0 h 9 v 0 h 9 v 0 h 9 v 0 h 9 v 0 h 9 v 0 h 9 v 0 h 9 v 0 h 9 v 0 h 9 v 0 h 9 v 0 h 9 v 0 h 9 v 0 h 9 v 0 h 9 v 0 h 9 v 0 h 9 v 0 h 9 v 0 h 9 v 0 h 9 v 0 h 9 v 0 h 9 v 0 h 9 v 0 h 9 v 0 h 9 v 0 h 9 v 0 h 9 v 0 h 9 v 0 h 9 v 0 h 9 v 0 h 9 v 0 h 9 v 0 h 9 v 0 h 9 v 0 h 9 v 0 h 9 v 0 h 9 v 0 h 9 v 0 h 9 v 0 h 9 v 0 h 9 v 0 h 9 v 0 h 9 v 0 h 9 v 0 h 9 v 0 h 9 v 0 h 9 v 0 h 9 v 0 h 9 v 0 h 9 v 0 h 9 v 0 h 9 v 0 h 9 v 0 h 9 v 0 h 9 v 0 h 9 v 0 h 9 v 0 h 9 v 0 h 9 v 0 h 9 v 0 h 9 v 0 h 9 v 0 h 9 v 0 h 9 v 0 h 9 v 0 h 9 v 0 h 9 v 0 h 9 v 0 h 9 v 0 h 9 v 0 h 9 v 0 h 9 v 0 h 9 v 0 h 9 v 0 h 9 v 0 h 9 v 0 h 9 v 0 h 9 v 0 h 9 v 0 h 9 v 0 h 9 v 0 h 9 v 0 h 9 v 0 h 9 v 0 h 9 v 0 h 9 v 0 h 9 v 0 h 9 v 0 h 9 v 0 h 9 v 0 h 9 v 0 h 9 v 0 h 9 v 0 h 9 v 0 h 9 v 0 h 9 v 0 h 9 v 0 h 9 v 0 h 9 v 0 h 9 v 0 h 9 v 0 h 9 v 0 h 9 v 0 h 9 v 0 h 9 v 0 h 9 v 0 h 9 v 0 h 9 v 0 h 9 v 0 h 9 v 0 h 9 v 0 h 9 v 0 h 9 v 0 h 9 v 0 h 9 v 0 h 9 v 0 h 9 v 0 h 9 v 0 h 9 v 0 h 9 v 0 h 9 v 0 h 9 v 0 h 9 v 0 h 9 v 0 h 9 v 0 h 9 v 0 h 9 v 0 h 9 v 0 h 9 v 0 h 9 v 0 h 9 v 0 h 9 v 0 h 9 v 0 h 9 v 0 h 9 v 0 h 9 v 0 h 9 v 0 h 9 v 0 h 9 v 0 h 9 v 0 h 9 v 0 h 9 v 0 h 9 v 0 h 9 v 0 h 9 v 0 h 9 v 0 h 9 v 0 h 9 v 0 h 9 v 0 h 9 v 0 h 9 v 0 h 9 v 0 h 9 v 0 h 9 v 0 h 9 v 0 h 9 v 0 h 9 v 0 h 9 v 0 h 9 v 0 h 9 v 0 h 9 v 0 h 9 v 0 h 9 v 0 h 9 v 0 h 9 v 0 h 9 v 0 h 9 v 0 h 9 v 0 h 9 v 0 h 9 v 0 h 9 v 0 h 9 v 0 h 9 v 0 h 9 v 0 h 9 v 0 h 9 v 0 h 9 v 0 h 9 v 0 h 9 v 0 h 9 v 0 h 9 v 0 h 9 v 0 h 9 v 0 h 9 v 0 h 9 v 0 h 9 v 0 h 9 v 0 h 9 v 0 h 9 v 0 h 9 v 0 h 9 v 0 h 9 v 0 h 9 v 0 h 9 v 0 h 9 v 0 h 9 v 0 h 9 v 0 h 9 v 0 h 9 v 0 h 9 v 0 h 9 v 0 h 9 v 0 h 9 v 0 h 9 v 0 h 9 v 0 h 9 v 0 h 9 v 0 h 9 v 0 h 9 v 0 h 9 v 0 h 9 v 0 h 9 v 0 h 9 v 0 h 9 v 0 h 9 v 0 h 9 v 0 h 9 v 0 h 9 v 0 h 9 v 0 h 9 v 0 h 9 v 0 h 9 v 0 h 9 v 0 h 9 v 0 h 9 v 0 h 9 v 0 h 9 v 0 h 9 v 0 h 9 v 0 h 9 v 0 h 9 v 0 h 9 v 0 h 9 v 0 h 9 v 0 h 9 v 0 h 9 v 0 h 9 v 0 h 9 v 0 h 9 v 0 h 9 v 0 h 9 v 0 h 9 v 0 h 9 v 0 h 9 v 0 h 9 v 0 h 9 v 0 h 9 v 0 h 9 v 0 h 9 v 0 h 9 v 0 h 9 v 0 h 9 v 0 h 9 v 0 h 9 v 0 h 9 v 0 h 9 v 0 h 9 v 0 h 9 v 0 h 9 v 0 h 9 v 0 h 9 v 0 h 9 v 0 h 9 v 0 h 9 v 0 h 9 v 0 h 9 v 0 h 9 v 0 h 9 v 0 h 9 v 0 h 9 v 0 h 9 v 0 h 9 v 0 h 9 v 0 h 9 v 0 h 9 v 0 h 9 v 0 h 9 v 0 h 9 v 0 h 9 v 0 h 9 v 0 h 9 v 0 h 9 v 0 h 9 v 0 h 9 v 0 h 9 v 0 h 9 v 0 h 9 v 0 h 9 v 0 h 9 v 0 h 9 v 0 h 9 v 0 h 9 v 0 h 9 v 0 h 9 v 0 h 9 v 0 h 9 v 0 h 9 v 0 h 9 v 0 h 9 v 0 h 9 v 0 h 9 v 0 h 9 v 0 h 9 v 0 h 9 v 0 h 9 v 0 h 9 v 0 h 9 v 0 h 9 v 0 h 9 v 0 h 9 v 0 h 9 v 0 h 9 v 0 h 9 v 0 h 9 v 0 h 9 v 0 h 9 v 0 h 9 v 0 h 9 v 0 h 9 v 0 h 9 v 0 h 9 v 0 h 9 v 0 h 9 v 0 h 9 v 0 h 9 v 0 h 9 v 0 h 9 v 0 h 9 v 0 h 9 v 0 h 9 v 0 h 9 v 0 h 9 v 0 h 9 v 0 h 9 v 0 h 9 v 0 h 9 v 0 h 9 v 0 h 9 v 0 h 9 v 0 h 9 v 0 h 9 v 0 h 9 v 0 h 9 v 0 h 9 v 0 h 9 v 0 h 9 v 0 h 9 v 0 h 9 v 0 h 9 v 0 h 9 v 0 h 9 v 0 h 9 v 0 h 9 v 0 h 9 v 0 h 9 v 0 h 9 v 0 h 9 v 0 h 9 v 0 h 9 v 0 h 9 v 0 h 9 v 0 h 9 v 0 h 9 v 0 h 9 v 0 h 9 v 0 h 9 v 0 h 9 v 0 h 9 v 0 h 9 v 0 h 9 v 0 h 9 v 0 h 9 v 0 h 9 v 0 h 9 v 0 h 9 v 0 h 9 v 0 h 9 v 0 h 9 v 0 h 9 v 0 h 9 v 0 h 9 v 0 h 9 v 0 h 9 v 0 h 9 v 0 h 9 v 0 h 9 v 0"
         style="fill:none;stroke:#0072bd;stroke-width:15;stroke-linecap:butt;stroke-linejoin:miter;stroke-miterlimit:10;stroke-dasharray:none;stroke-opacity:1"
         id="path130"
         inkscape:connector-curvature="0" /><path
         d="m 1395,621.082 h 9 v 0 h 9 v 0 h 9 v 0 h 9 v 0 h 9 v 0 h 9 v 0 h 9 v 0 h 9 v 0 h 9 v 0 h 9 v 0 h 9 v 0 h 9 v 0 h 9 v 0 h 9 v 0 h 9 v 0 h 9 v 0 h 9 v 0 h 9 v 0 h 9 v 0 h 9 v 0 h 9 v 0 h 9 v 0 h 9 v 0 h 9 v 0 h 9 v 0 h 9 v 0 h 9 v 0 h 9 v 0 h 9 v 0 h 9 v 0 h 9 v 0 h 9 v 0 h 9 v 0 h 9 v 0 h 9 v 0 h 9 v 0 h 9 v 0 h 9 v 0 h 9 v 0 h 9 v 0 h 9 v 0 h 9 v 0 h 9 v 0 h 9 v 0 h 9 v 0 h 9 v 0 h 9 v 0 h 9 v 0 h 9 v 0 h 9 v 0 h 9 v 0 h 9 v 0 h 9 v 0 h 9 v 0 h 9 v 0 h 9 v 0 h 9 v 0 h 9 v 0 h 9 v 0 h 9 v 0 h 9 v 0 h 9 v 0 h 9 v 0 h 9 v 0 h 9 v 0 h 9 v 0 h 9 v 0 h 9 v 0 h 9 v 0 h 9 v 0 h 9 v 0 h 9 v 0 h 9 v 0 h 9 v 0 h 9 v 0 h 9 v 0 h 9 v 0 h 9 v 0 h 9 v 0 h 9 v 0 h 9 v 0 h 9 v 0 h 9 v 0 h 9 v 0 h 9 v 0 h 9 v 0 h 9 v 0 h 9 v 0 h 9 v 0 h 9 v 0 h 9 v 0 h 9 v 0 h 9 v 0 h 9 v 0 h 9 v 0 h 9 v 0 h 9 v 0 h 9 v 0 h 9 v 0 h 9 V 2729.41 h 9 v 0 h 9 v 0 h 9 v 0 h 9 v 0 h 9 v 0 h 9 v 0 h 9 v 0 h 9 v 0 h 9 v 0 h 9 v 0 h 9 v 0 h 9 v 0 h 9 v 0 h 9 v 0 h 9 v 0 h 9 v 0 h 9 v 0 h 9 v 0 h 9 v 0 h 9 v 0 h 9 v 0 h 9 v 0 h 9 v 0 h 9 v 0 h 9 v 0 h 9 v 0 h 9 v 0 h 9 v 0 h 9 v 0 h 9 v 0 h 9 v 0 h 9 v 0 h 9 v 0 h 9 v 0 h 9 v 0 h 9 v 0 h 9 v 0 h 9 v 0 h 9 v 0 h 9 v 0 h 9 v 0 h 9 v 0 h 9 v 0 h 9 v 0 h 9 v 0 h 9 v 0 h 9 v 0 h 9 v 0 h 9 v 0 h 9 v 0 h 9 v 0 h 9 v 0 h 9 v 0 h 9 v 0 h 9 v 0 h 9 v 0 h 9 v 0 h 9 v 0 h 9 v 0 h 9 v 0 h 9 v 0 h 9 v 0 h 9 v 0 h 9 v 0 h 9 v 0 h 9 v 0 h 9 v 0 h 9 v 0 h 9 v 0 h 9 v 0 h 9 v 0 h 9 v 0 h 9 v 0 h 9 v 0 h 9 v 0 h 9 v 0 h 9 v 0 h 9 v 0 h 9 v 0 h 9 v 0 h 9 v 0 h 9 v 0 h 9 v 0 h 9 v 0 h 9 v 0 h 9 v 0 h 9 v 0 h 9 v 0 h 9 v 0 h 9 v 0 h 9 v 0 h 9 v 0 h 9 v 0 h 9 v 0 h 9 v 0 h 9 v 0 h 9 v 0 h 9 v 0 h 9 v 0 h 9 v 0 h 9 v 0 h 9 v 0 h 9 v 0 h 9 v 0 h 9 v 0 h 9 v 0 h 9 v 0 h 9 v 0 h 9 v 0 h 9 v 0 h 9 v 0 h 9 v 0 h 9 v 0 h 9 v 0 h 9 v 0 h 9 v 0 h 9 v 0 h 9 v 0 h 9 v 0 h 9 v 0 h 9 v 0 h 9 v 0 h 9 v 0 h 9 v 0 h 9 v 0 h 9 v 0 h 9 v 0 h 9 v 0 h 9 v 0 h 9 v 0 h 9 v 0 h 9 v 0 h 9 v 0 h 9 v 0 h 9 v 0 h 9 v 0 h 9 v 0 h 9 v 0 h 9 v 0 h 9 v 0 h 9 v 0 h 9 v 0 h 9 v 0 h 9 v 0 h 9 v 0 h 9 v 0 h 9 v 0 h 9 v 0 h 9 v 0 h 9 v 0 h 9 v 0 h 9 v 0 h 9 v 0 h 9 v 0 h 9 v 0 h 9 v 0 h 9 v 0 h 9 v 0 h 9 v 0 h 9 v 0 h 9 v 0 h 9 v 0 h 9 v 0 h 9 v 0 h 9 v 0 h 9 v 0 h 9 v 0 h 9 v 0 h 9 v 0 h 9 v 0 h 9 v 0 h 9 v 0 h 9 v 0 h 9 v 0 h 9 v 0 h 9 v 0 h 9 v 0 h 9 v 0 h 9 v 0 h 9 v 0 h 9 v 0 h 9 v 0 h 9 v 0 h 9 v 0 h 9 v 0 h 9 v 0 h 9 v 0 h 9 v 0 h 9 v 0 h 9 v 0 h 9 v 0 h 9 v 0 h 9 v 0 h 9 v 0 h 9 v 0 h 9 v 0 h 9 v 0 h 9 v 0 h 9 v 0 h 9 v 0 h 9 v 0 h 9 v 0 h 9 v 0 h 9 v 0 h 9 v 0 h 9 v 0 h 9 v 0 h 9 v 0 h 9 v 0 h 9 v 0 h 9 v 0 h 9 v 0 h 9 v 0 h 9 v 0 h 9 v 0 h 9 v 0 h 9 v 0 h 9 v 0 h 9 v 0 h 9 v 0 h 9 v 0 h 9 v 0 h 9 v 0 h 9 v 0 h 9 v 0 h 9 v 0 h 9 v 0 h 9 v 0 h 9 v 0 h 9 v 0 h 9 v 0 h 9 v 0 h 9 v 0 h 9 v 0 h 9 v 0 h 9 v 0 h 9 v 0 h 9 v 0 h 9 v 0 h 9 v 0 h 9 v 0 h 9 v 0 h 9 v 0 h 9 v 0 h 9 v 0 h 9 v 0 h 9 v 0 h 9 v 0 h 9 v 0 h 9 v 0 h 9 v 0 h 9 v 0 h 9 v 0 h 9 v 0 h 9 v 0 h 9 v 0 h 9 v 0 h 9 v 0 h 9 v 0 h 9 v 0 h 9 v 0 h 9 v 0 h 9 v 0 h 9 v 0 h 9 v 0 h 9 v 0 h 9 v 0 h 9 v 0 h 9 v 0 h 9 v 0 h 9 v 0 h 9 v 0 h 9 v 0 h 9 v 0 h 9 v 0 h 9 v 0 h 9 v 0 h 9 v 0 h 9 v 0 h 9 v 0 h 9 v 0 h 9 v 0 h 9 v 0 h 9 v 0 h 9 v 0 h 9 v 0 h 9 v 0 h 9 v 0 h 9 v 0 h 9 v 0 h 9 v 0 h 9 v 0 h 9 v 0 h 9 v 0 h 9 v 0 h 9 v 0 h 9 v 0 h 9 v 0 h 9 v 0 h 9 v 0 h 9 v 0 h 9 v 0 h 9 v 0 h 9 v 0 h 9 v 0 h 9 v 0 h 9 v 0 h 9 v 0 h 9 v 0 h 9 v 0 h 9 v 0 h 9 v 0 h 9 v 0 h 9 v 0 h 9 v 0 h 9 v 0 h 9 v 0 h 9 v 0 h 9 v 0 h 9 v 0 h 9 v 0 h 9 v 0 h 9 v 0 h 9 v 0 h 9 v 0 h 9 v 0 h 9 v 0 h 9 v 0 h 9 v 0 h 9 v 0 h 9 v 0 h 9 v 0 h 9 v 0 h 9 v 0 h 9 v 0 h 9 v 0 h 9 v 0 h 9 v 0 h 9 v 0 h 9 v 0 h 9 v 0 h 9 v 0 h 9 v 0 h 9 v 0 h 9 v 0 h 9 v 0 h 9 v 0 h 9 v 0 h 9 v 0 h 9 v 0 h 9 v 0 h 9 v 0 h 9 v 0 h 9 v 0 h 9 v 0 h 9 v 0 h 9 v 0 h 9 v 0 h 9 v 0 h 9 v 0 h 9 v 0 h 9 v 0 h 9 v 0 h 9 v 0 h 9 v 0 h 9 v 0 h 9 v 0 h 9 v 0 h 9 v 0 h 9 v 0 h 9 v 0 h 9 v 0 h 9 v 0 h 9 v 0 h 9 v 0 h 9 v 0 h 9 v 0 h 9 v 0 h 9 v 0 h 9 v 0 h 9 v 0 h 9 v 0 h 9 v 0 h 9 v 0 h 9 v 0 h 9 v 0 h 9 v 0 h 9 v 0 h 9 v 0 h 9 v 0 h 9 v 0 h 9 v 0 h 9 v 0 h 9 v 0 h 9 v 0 h 9 v 0 h 9 v 0 h 9 v 0 h 9 v 0 h 9 v 0 h 9 v 0 h 9 v 0 h 9 v 0 h 9 v 0 h 9 v 0 h 9 v 0 h 9 v 0 h 9 v 0 h 9 v 0 h 9 v 0 h 9 v 0 h 9 v 0 h 9 v 0 h 9 v 0 h 9 v 0 h 9 v 0 h 9 v 0 h 9 v 0 h 9 v 0 h 9 v 0 h 9 v 0 h 9 v 0 h 9 v 0 h 9 v 0 h 9 v 0 h 9 v 0 h 9 v 0 h 9 v 0 h 9 v 0 h 9 v 0 h 9 v 0 h 9 v 0 h 9 v 0 h 9 v 0 h 9 v 0 h 9 v 0 h 9 v 0 h 9 v 0 h 9 v 0 h 9 v 0 h 9 v 0 h 9 v 0 h 9 v 0 h 9 v 0 h 9 v 0 h 9 v 0 h 9 v 0 h 9 v 0 h 9 v 0 h 9 v 0 h 9 v 0 h 9 v 0 h 9 v 0 h 9 v 0 h 9 v 0 h 9 v 0 h 9 v 0 h 9 v 0 h 9 v 0 h 9 v 0 h 9 v 0 h 9 v 0 h 9 v 0 h 9 v 0 h 9 v 0 h 9 v 0 h 9 v 0 h 9 v 0 h 9 v 0 h 9 v 0 h 9 v 0 h 9 v 0 h 9 v 0 h 9 v 0 h 9 v 0 h 9 v 0 h 9 v 0 h 9 v 0 h 9 v 0 h 9 v 0 h 9 v 0 h 9 v 0 h 9 v 0 h 9 v 0 h 9 v 0 h 9 v 0 h 9 v 0 h 9 v 0 h 9 v 0 h 9 v 0 h 9 v 0 h 9 v 0 h 9 v 0 h 9 v 0 h 9 v 0 h 9 v 0 h 9 v 0 h 9 v 0 h 9 v 0 h 9 v 0 h 9 v 0 h 9 v 0 h 9 v 0 h 9 v 0 h 9 v 0 h 9 v 0 h 9 v 0 h 9 v 0 h 9 v 0 h 9 v 0 h 9 v 0 h 9 v 0 h 9 v 0 h 9 v 0 h 9 v 0 h 9 v 0 h 9 v 0 h 9 v 0 h 9 v 0 h 9 v 0 h 9 v 0 h 9 v 0 h 9 v 0 h 9 v 0 h 9 v 0 h 9 v 0 h 9 v 0 h 9 v 0 h 9 v 0 h 9 v 0 h 9 v 0 h 9 v 0 h 9 v 0 h 9 v 0 h 9 v 0 h 9 v 0 h 9 v 0 h 9 v 0 h 9 v 0 h 9 v 0 h 9 v 0 h 9 v 0 h 9 v 0 h 9 v 0 h 9 v 0 h 9 v 0 h 9 v 0 h 9 v 0 h 9 v 0 h 9 v 0 h 9 v 0 h 9 v 0 h 9 v 0 h 9 v 0 h 9 v 0 h 9 v 0 h 9 v 0 h 9 v 0 h 9 v 0 h 9 v 0 h 9 v 0 h 9 v 0 h 9 v 0 h 9 v 0 h 9 v 0 h 9 v 0 h 9 v 0 h 9 v 0 h 9 v 0 h 9 v 0 h 9 v 0 h 9 v 0 h 9 v 0 h 9 v 0 h 9 v 0 h 9 v 0 h 9 v 0 h 9 v 0 h 9 v 0 h 9 v 0 h 9 v 0 h 9 v 0 h 9 v 0 h 9 v 0 h 9 v 0 h 9 v 0 h 9 v 0 h 9 v 0 h 9 v 0 h 9 v 0 h 9 v 0 h 9 v 0 h 9 v 0 h 9 v 0 h 9 v 0 h 9 v 0 h 9 v 0 h 9 v 0 h 9 v 0 h 9 v 0 h 9 v 0 h 9 v 0 h 9 v 0 h 9 v 0 h 9 v 0 h 9 v 0 h 9 v 0 h 9 v 0 h 9 v 0 h 9 v 0 h 9 v 0 h 9 v 0 h 9 v 0 h 9 v 0 h 9 v 0 h 9 v 0 h 9 v 0 h 9 v 0 h 9 v 0 h 9 v 0 h 9 v 0 h 9 v 0 h 9 v 0 h 9 v 0 h 9 v 0 h 9 v 0 h 9 v 0 h 9 v 0 h 9 v 0 h 9 v 0 h 9 v 0 h 9 v 0 h 9 v 0 h 9 v 0 h 9 v 0 h 9 v 0 h 9 v 0 h 9 v 0 h 9 v 0 h 9 v 0 h 9 v 0 h 9 v 0 h 9 v 0 h 9 v 0 h 9 v 0 h 9 v 0 h 9 v 0 h 9 v 0 h 9 v 0 h 9 v 0 h 9 v 0 h 9 v 0 h 9 v 0 h 9 v 0 h 9 v 0 h 9 v 0 h 9 v 0 h 9 v 0 h 9 v 0 h 9 v 0 h 9 v 0 h 9 v 0 h 9 v 0 h 9 v 0 h 9 v 0 h 9 v 0 h 9 v 0 h 9 v 0 h 9 v 0 h 9 v 0 h 9 v 0 h 9 v 0 h 9 v 0 h 9 v 0 h 9 v 0 h 9 v 0 h 9 v 0 h 9 v 0 h 9 v 0 h 9 v 0 h 9 v 0 h 9 v 0 h 9 v 0 h 9 v 0 h 9 v 0 h 9 v 0 h 9 v 0 h 9 v 0 h 9 v 0 h 9 v 0 h 9 v 0 h 9 v 0 h 9 v 0 h 9 v 0 h 9 v 0 h 9 v 0 h 9 v 0 h 9 v 0 h 9 v 0 h 9 v 0"
         style="fill:none;stroke:#ff0000;stroke-width:15;stroke-linecap:butt;stroke-linejoin:miter;stroke-miterlimit:10;stroke-dasharray:none;stroke-opacity:1"
         id="path132"
         inkscape:connector-curvature="0" /><path
         d="m 1395,621.082 h 9 v 0 h 9 v 0 h 9 v 0 h 9 v 0 h 9 v 0 h 9 v 0 h 9 v 0 h 9 v 0 h 9 v 0 h 9 v 0 h 9 v 0 h 9 v 0 h 9 v 0 h 9 v 0 h 9 v 0 h 9 v 0 h 9 v 0 h 9 v 0 h 9 v 0 h 9 v 0 h 9 v 0 h 9 v 0 h 9 v 0 h 9 v 0 h 9 v 0 h 9 v 0 h 9 v 0 h 9 v 0 h 9 v 0 h 9 v 0 h 9 v 0 h 9 v 0 h 9 v 0 h 9 v 0 h 9 v 0 h 9 v 0 h 9 v 0 h 9 v 0 h 9 v 0 h 9 v 0 h 9 v 0 h 9 v 0 h 9 v 0 h 9 v 0 h 9 v 0 h 9 v 0 h 9 v 0 h 9 v 0 h 9 v 0 h 9 v 0 h 9 v 0 h 9 v 0 h 9 v 0 h 9 v 0 h 9 v 0 h 9 v 0 h 9 v 0 h 9 v 0 h 9 v 0 h 9 v 0 h 9 v 0 h 9 v 0 h 9 v 0 h 9 v 0 h 9 v 0 h 9 v 0 h 9 v 0 h 9 v 0 h 9 v 0 h 9 v 0 h 9 v 0 h 9 v 0 h 9 v 0 h 9 v 0 h 9 v 0 h 9 v 0 h 9 v 0 h 9 v 0 h 9 v 0 h 9 v 0 h 9 v 0 h 9 v 0 h 9 v 0 h 9 v 0 h 9 v 0 h 9 v 0 h 9 v 0 h 9 v 0 h 9 v 0 h 9 v 0 h 9 v 0 h 9 v 0 h 9 v 0 h 9 v 0 h 9 v 0 h 9 v 0 h 9 v 0 h 9 v 0 h 9 v 0 h 9 v 2.941 h 9 v 6.727 h 9 v 105.324 h 9 v 167.625 h 9 v 238.051 h 9 v 263.88 h 9 v 273.91 h 9 v 253.01 h 9 v 221.65 h 9 v 178.4 h 9 v 135.97 h 9 v 95.24 h 9 v 62.01 h 9 v 35.85 h 9 v 17.94 h 9 v 6.58 h 9 v 0.88 h 9 v -1.12 h 9 v -0.63 h 9 v 0.95 h 9 v 2.87 h 9 v 4.46 h 9 v 5.51 h 9 v 5.89 h 9 v 5.72 h 9 v 5.1 h 9 v 4.26 h 9 v 3.3 h 9 v 2.37 h 9 v 1.59 h 9 v 0.96 h 9 v 0.49 h 9 v 0.2 h 9 v 0.03 h 9 v -0.03 h 9 v -0.04 h 9 v -0.01 h 9 v 0.04 h 9 v 0.08 h 9 v 0.11 h 9 v 0.13 h 9 v 0.12 h 9 v 0.12 h 9 v 0.1 h 9 v 0.08 h 9 v 0.05 h 9 v 0.05 h 9 v 0.02 h 9 v 0.02 h 9 v 0 h 9 v 0 h 9 v 0 h 9 v 0 h 9 v 0 h 9 v 0 h 9 v 0 h 9 v 0 h 9 v 0 h 9 v 0.01 h 9 v 0 h 9 v 0 h 9 v 0.01 h 9 v 0 h 9 v 0 h 9 v 0 h 9 v 0 h 9 v 0 h 9 v 0 h 9 v 0 h 9 v 0 h 9 v 0 h 9 v 0 h 9 v 0 h 9 v 0 h 9 v 0 h 9 v 0 h 9 v 0 h 9 v 0 h 9 v 0 h 9 v 0 h 9 v 0 h 9 v 0 h 9 v 0 h 9 v 0 h 9 v 0 h 9 v 0 h 9 v 0 h 9 v 0 h 9 v 0 h 9 v 0 h 9 v 0 h 9 v 0 h 9 v 0 h 9 v 0 h 9 v 0 h 9 v 0 h 9 v 0 h 9 v 0 h 9 v 0 h 9 v 0 h 9 v 421.67 h 9 v 0 h 9 v -1.02 h 9 v -1.65 h 9 v -34.42 h 9 v -33.25 h 9 v -34.18 h 9 v -20.79 h 9 v -11.45 h 9 v 0.82 h 9 v 8 h 9 v 13.91 h 9 v 15.69 h 9 v 15.91 h 9 v 13.93 h 9 v 11.38 h 9 v 8.28 h 9 v 5.51 h 9 v 3.07 h 9 v 1.32 h 9 v 0.09 h 9 v -0.57 h 9 v -0.84 h 9 v -0.81 h 9 v -0.6 h 9 v -0.36 h 9 v -0.09 h 9 v 0.11 h 9 v 0.26 h 9 v 0.34 h 9 v 0.35 h 9 v 0.32 h 9 v 0.27 h 9 v 0.21 h 9 v 0.14 h 9 v 0.09 h 9 v 0.04 h 9 v 0.01 h 9 v -0.01 h 9 v -0.01 h 9 v -421.69 h 9 v -0.02 h 9 v 1 h 9 v 1.65 h 9 v 34.43 h 9 v 33.25 h 9 v 34.19 h 9 v 20.79 h 9 v 11.46 h 9 v -0.81 h 9 v -8 h 9 v -13.89 h 9 v -15.7 h 9 v -15.91 h 9 v -13.93 h 9 V 2747 h 9 v -8.29 h 9 v -5.51 h 9 v -3.07 h 9 v -1.31 h 9 v -0.09 h 9 v 0.57 h 9 v 0.83 h 9 v 0.8 h 9 v 0.62 h 9 v 0.35 h 9 v 0.1 h 9 v -0.12 h 9 v -0.26 h 9 v -0.34 h 9 v -0.35 h 9 v -0.32 h 9 v -0.28 h 9 v -0.2 h 9 v -0.15 h 9 v -0.09 h 9 v -0.03 h 9 v -0.01 h 9 v 0.01 h 9 v 0.02 h 9 v 0.01 h 9 v 0.02 h 9 v 0.02 h 9 v 0 h 9 v 0 h 9 v 0 h 9 v -0.01 h 9 v -0.01 h 9 v -0.01 h 9 v -0.01 h 9 v 0 h 9 v 0 h 9 v -0.01 h 9 v 0 h 9 v 0 h 9 v 0 h 9 v 0 h 9 v 0 h 9 v 0 h 9 v 0 h 9 v 0 h 9 v 0 h 9 v 0 h 9 v 0 h 9 v 0 h 9 v 0 h 9 v 0 h 9 v 0 h 9 v 0 h 9 v 0 h 9 v 0 h 9 v 0 h 9 v 0 h 9 v 0 h 9 v 0 h 9 v 0 h 9 v 0 h 9 v 0 h 9 v 0 h 9 v 0 h 9 v 0 h 9 v 0 h 9 v 0 h 9 v 0 h 9 v 0 h 9 v 0 h 9 v 0 h 9 v 0 h 9 v 0 h 9 v 0 h 9 v 0 h 9 v 0 h 9 v 0 h 9 v 0 h 9 v 0 h 9 v 0 h 9 v 0 h 9 v 0 h 9 v 0 h 9 v 0 h 9 v 0 h 9 v 0 h 9 v 0 h 9 v 0 h 9 v 0 h 9 v 0 h 9 v 0 h 9 v 0 h 9 v 0 h 9 v 0 h 9 v 0 h 9 v 0 h 9 v 0 h 9 v 0 h 9 v 0 h 9 v 0 h 9 v 0 h 9 v 0 h 9 v 0 h 9 v 0 h 9 v 0 h 9 v 0 h 9 v 0 h 9 v 0 h 9 v 0 h 9 v 0 h 9 v 0 h 9 v 0 h 9 v 0 h 9 v 0 h 9 v 0 h 9 v 0 h 9 v 0 h 9 v 0 h 9 v 0 h 9 v 0 h 9 v 0 h 9 v 0 h 9 v 0 h 9 v 0 h 9 v 0 h 9 v 0 h 9 v 0 h 9 v 0 h 9 v 0 h 9 v 0 h 9 v 0 h 9 v 0 h 9 v 0 h 9 v 0 h 9 v 0 h 9 v 0 h 9 v 0 h 9 v 0 h 9 v 0 h 9 v 0 h 9 v 0 h 9 v 0 h 9 v 0 h 9 v 0 h 9 v 0 h 9 v 0 h 9 v 0 h 9 v 0 h 9 v 0 h 9 v 0 h 9 v 0 h 9 v 0 h 9 v 0 h 9 v 0 h 9 v 0 h 9 v 0 h 9 v 0 h 9 v 0 h 9 v 0 h 9 v 0 h 9 v 0 h 9 v 0 h 9 v 0 h 9 v 0 h 9 v 0 h 9 v 0 h 9 v 0 h 9 v 0 h 9 v 0 h 9 v 0 h 9 v 0 h 9 v 0 h 9 v 0 h 9 v 0 h 9 v 0 h 9 v 0 h 9 v 0 h 9 v 0 h 9 v 0 h 9 v 0 h 9 v 0 h 9 v 0 h 9 v 0 h 9 v 0 h 9 v 0 h 9 v 0 h 9 v 0 h 9 v 0 h 9 v 0 h 9 v 0 h 9 v 0 h 9 v 0 h 9 v 0 h 9 v 0 h 9 v 0 h 9 v 0 h 9 v 0 h 9 v 0 h 9 v 0 h 9 v 0 h 9 v 0 h 9 v 0 h 9 v 0 h 9 v 0 h 9 v 0 h 9 v 0 h 9 v 0 h 9 v 0 h 9 v 0 h 9 v 0 h 9 v 0 h 9 v 0 h 9 v 0 h 9 v 0 h 9 v 0 h 9 v 0 h 9 v 0 h 9 v 0 h 9 v 0 h 9 v 0 h 9 v 0 h 9 v 0 h 9 v 0 h 9 v 0 h 9 v 0 h 9 v 0 h 9 v 0 h 9 v 0 h 9 v 0 h 9 v 0 h 9 v 0 h 9 v 0 h 9 v 0 h 9 v 0 h 9 v 0 h 9 v 0 h 9 v 0 h 9 v 0 h 9 v 0 h 9 v 0 h 9 v 0 h 9 v 0 h 9 v 0 h 9 v 0 h 9 v 0 h 9 v 0 h 9 v 0 h 9 v 0 h 9 v 0 h 9 v 0 h 9 v 0 h 9 v 0 h 9 v 0 h 9 v 0 h 9 v 0 h 9 v 0 h 9 v 0 h 9 v 0 h 9 v 0 h 9 v 0 h 9 v 0 h 9 v 0 h 9 v 0 h 9 v 0 h 9 v 0 h 9 v 0 h 9 v 0 h 9 v 0 h 9 v 0 h 9 v 0 h 9 v 0 h 9 v 0 h 9 v 0 h 9 v 0 h 9 v 0 h 9 v 0 h 9 v 0 h 9 v 0 h 9 v 0 h 9 v 0 h 9 v 0 h 9 v 0 h 9 v 0 h 9 v 0 h 9 v 0 h 9 v 0 h 9 v 0 h 9 v 0 h 9 v 0 h 9 v 0 h 9 v 0 h 9 v 0 h 9 v 0 h 9 v 0 h 9 v 0 h 9 v 0 h 9 v 0 h 9 v 0 h 9 v 0 h 9 v 0 h 9 v 0 h 9 v 0 h 9 v 0 h 9 v 0 h 9 v 0 h 9 v 0 h 9 v 0 h 9 v 0 h 9 v 0 h 9 v 0 h 9 v 0 h 9 v 0 h 9 v 0 h 9 v 0 h 9 v 0 h 9 v 0 h 9 v 0 h 9 v 0 h 9 v 0 h 9 v 0 h 9 v 0 h 9 v 0 h 9 v 0 h 9 v 0 h 9 v 0 h 9 v 0 h 9 v 0 h 9 v 0 h 9 v 0 h 9 v 0 h 9 v 0 h 9 v 0 h 9 v 0 h 9 v 0 h 9 v 0 h 9 v 0 h 9 v 0 h 9 v 0 h 9 v 0 h 9 v 0 h 9 v 0 h 9 v 0 h 9 v 0 h 9 v 0 h 9 v 0 h 9 v 0 h 9 v 0 h 9 v 0 h 9 v 0 h 9 v 0 h 9 v 0 h 9 v 0 h 9 v 0 h 9 v 0 h 9 v 0 h 9 v 0 h 9 v 0 h 9 v 0 h 9 v 0 h 9 v 0 h 9 v 0 h 9 v 0 h 9 v 0 h 9 v 0 h 9 v 0 h 9 v 0 h 9 v 0 h 9 v 0 h 9 v 0 h 9 v 0 h 9 v 0 h 9 v 0 h 9 v 0 h 9 v 0 h 9 v 0 h 9 v 0 h 9 v 0 h 9 v 0 h 9 v 0 h 9 v 0 h 9 v 0 h 9 v 0 h 9 v 0 h 9 v 0 h 9 v 0 h 9 v 0 h 9 v 0 h 9 v 0 h 9 v 0 h 9 v 0 h 9 v 0 h 9 v 0 h 9 v 0 h 9 v 0 h 9 v 0 h 9 v 0 h 9 v 0 h 9 v 0 h 9 v 0 h 9 v 0 h 9 v 0 h 9 v 0 h 9 v 0 h 9 v 0 h 9 v 0 h 9 v 0 h 9 v 0 h 9 v 0 h 9 v 0 h 9 v 0 h 9 v 0 h 9 v 0 h 9 v 0 h 9 v 0 h 9 v 0 h 9 v 0 h 9 v 0 h 9 v 0 h 9 v 0 h 9 v 0 h 9 v 0 h 9 v 0 h 9 v 0 h 9 v 0 h 9 v 0 h 9 v 0 h 9 v 0 h 9 v 0 h 9 v 0 h 9 v 0 h 9 v 0 h 9 v 0 h 9 v 0 h 9 v 0 h 9 v 0 h 9 v 0 h 9 v 0 h 9 v 0 h 9 v 0 h 9 v 0 h 9 v 0 h 9 v 0 h 9 v 0 h 9 v 0 h 9 v 0 h 9 v 0 h 9 v 0 h 9 v 0 h 9 v 0 h 9 v 0 h 9 v 0 h 9 v 0 h 9 v 0 h 9 v 0 h 9 v 0 h 9 v 0 h 9 v 0 h 9 v 0 h 9 v 0 h 9 v 0 h 9 v 0 h 9 v 0 h 9 v 0 h 9 v 0 h 9 v 0 h 9 v 0 h 9 v 0 h 9 v 0 h 9 v 0 h 9 v 0 h 9 v 0 h 9 v 0 h 9 v 0 h 9 v 0 h 9 v 0 h 9 v 0 h 9 v 0 h 9 v 0 h 9 v 0 h 9 v 0 h 9 v 0 h 9 v 0 h 9 v 0 h 9 v 0 h 9 v 0 h 9 v 0 h 9 v 0 h 9 v 0 h 9 v 0 h 9 v 0 h 9 v 0 h 9 v 0 h 9 v 0 h 9 v 0 h 9 v 0 h 9 v 0 h 9 v 0 h 9 v 0 h 9 v 0 h 9 v 0 h 9 v 0 h 9 v 0 h 9 v 0 h 9 v 0 h 9 v 0 h 9 v 0 h 9 v 0 h 9 v 0 h 9 v 0 h 9 v 0 h 9 v 0 h 9 v 0 h 9 v 0 h 9 v 0 h 9 v 0 h 9 v 0 h 9 v 0 h 9 v 0 h 9 v 0 h 9 v 0 h 9 v 0 h 9 v 0 h 9 v 0 h 9 v 0 h 9 v 0 h 9 v 0 h 9 v 0 h 9 v 0 h 9 v 0 h 9 v 0 h 9 v 0 h 9 v 0 h 9 v 0 h 9 v 0 h 9 v 0 h 9 v 0 h 9 v 0 h 9 v 0 h 9 v 0 h 9 v 0 h 9 v 0 h 9 v 0 h 9 v 0 h 9 v 0 h 9 v 0"
         style="fill:none;stroke:#000000;stroke-width:15;stroke-linecap:butt;stroke-linejoin:miter;stroke-miterlimit:10;stroke-dasharray:none;stroke-opacity:1"
         id="path134"
         inkscape:connector-curvature="0" /><path
         d="M 1492.5,2482.5 H 2070 V 3315 h -577.5 z"
         style="fill:#ffffff;fill-opacity:1;fill-rule:nonzero;stroke:none"
         id="path136"
         inkscape:connector-curvature="0" /><path
         d="m 1866.01,3083.5 c 3.04,-5.24 8.36,-7.86 15.94,-7.86 6.87,0 12.81,2.43 17.81,7.27 5,4.84 9.04,10.68 12.13,17.52 3.08,6.84 5.49,13.81 7.21,20.92 -6.41,-6.09 -13.4,-9.14 -20.98,-9.14 -5.71,0 -10.57,0.99 -14.6,2.99 -4.02,1.99 -7.14,4.96 -9.37,8.9 -2.23,3.95 -3.34,8.69 -3.34,14.24 0,4.76 0.63,9.64 1.88,14.64 1.25,5 3.02,10.56 5.33,16.65 2.3,6.09 4.32,11.41 6.03,15.94 1.88,5.31 2.82,9.69 2.82,13.12 0,4.3 -1.57,6.45 -4.69,6.45 -5.78,0 -10.53,-2.95 -14.24,-8.85 -3.71,-5.9 -6.46,-12.52 -8.26,-19.87 -0.23,-0.85 -0.82,-1.28 -1.76,-1.28 h -2.57 c -1.18,0 -1.77,0.66 -1.77,1.99 v 0.58 c 2.35,8.68 5.92,16.36 10.73,23.04 4.8,6.68 10.88,10.02 18.23,10.02 5.15,0 9.52,-1.7 13.12,-5.11 3.59,-3.39 5.38,-7.71 5.38,-12.95 0,-2.65 -0.58,-5.46 -1.75,-8.43 -0.71,-1.8 -2.19,-5.67 -4.46,-11.61 -2.26,-5.93 -3.98,-10.85 -5.15,-14.76 -1.17,-3.91 -2.15,-7.74 -2.93,-11.49 -0.78,-3.75 -1.17,-7.5 -1.17,-11.25 0,-4.84 1.01,-8.92 3.05,-12.24 2.02,-3.32 5.26,-4.98 9.72,-4.98 8.99,0 17.07,5.51 24.26,16.53 l 16.41,66.91 c 0.54,1.95 1.69,3.61 3.45,4.98 1.76,1.36 3.66,2.05 5.69,2.05 1.79,0 3.36,-0.57 4.69,-1.7 1.32,-1.13 1.98,-2.59 1.98,-4.39 0,-0.86 -0.07,-1.45 -0.23,-1.76 l -21.56,-86.49 c -1.96,-7.5 -5.47,-14.64 -10.55,-21.44 -5.08,-6.8 -11.21,-12.27 -18.39,-16.41 -7.19,-4.14 -14.69,-6.21 -22.5,-6.21 -3.75,0 -7.47,0.74 -11.14,2.23 -3.67,1.48 -6.64,3.67 -8.91,6.56 -2.26,2.89 -3.39,6.29 -3.39,10.19 0,3.91 1.17,7.32 3.51,10.26 2.34,2.93 5.43,4.39 9.26,4.39 2.35,0 4.32,-0.72 5.92,-2.17 1.6,-1.44 2.4,-3.34 2.4,-5.68 0,-3.35 -1.23,-6.26 -3.69,-8.73 -2.46,-2.46 -5.37,-3.69 -8.73,-3.69 -0.16,0.08 -0.29,0.12 -0.42,0.12 -0.11,0 -0.25,0 -0.4,0"
         style="fill:#000000;fill-opacity:1;fill-rule:nonzero;stroke:none"
         id="path138"
         inkscape:connector-curvature="0" /><path
         d="m 1987.23,3079.91 c -5,0 -9.38,1.31 -13.13,3.93 -3.75,2.62 -6.62,6.13 -8.61,10.54 -1.99,4.42 -2.99,9.08 -2.99,14.01 0,7.5 1.89,14.55 5.68,21.15 3.79,6.6 8.91,11.87 15.36,15.82 6.44,3.94 13.34,5.92 20.68,5.92 4.53,0 8.48,-1.17 11.83,-3.51 3.36,-2.35 5.05,-5.71 5.05,-10.08 0,-6.02 -2.4,-10.49 -7.21,-13.42 -4.81,-2.93 -10.24,-4.75 -16.29,-5.45 -6.06,-0.7 -12.76,-1.05 -20.1,-1.05 h -0.46 c -1.73,-6.25 -2.59,-11.61 -2.59,-16.06 0,-4.69 1.1,-8.81 3.29,-12.36 2.18,-3.56 5.46,-5.33 9.84,-5.33 6.25,0 12.26,1.44 18.05,4.33 5.78,2.89 10.47,6.88 14.06,11.95 0.31,0.32 0.74,0.47 1.29,0.47 0.47,0 0.97,-0.29 1.52,-0.88 0.55,-0.58 0.82,-1.15 0.82,-1.7 0,-0.39 -0.07,-0.7 -0.23,-0.94 -3.91,-5.39 -9.11,-9.62 -15.59,-12.71 -6.48,-3.08 -13.24,-4.63 -20.27,-4.63 z m -9.26,41.96 c 6.1,0 11.74,0.27 16.94,0.82 5.19,0.54 9.88,1.95 14.06,4.21 4.18,2.27 6.27,5.83 6.27,10.67 0,1.95 -0.53,3.65 -1.58,5.09 -1.06,1.45 -2.45,2.56 -4.17,3.34 -1.72,0.79 -3.51,1.18 -5.39,1.18 -4.45,0 -8.45,-1.21 -12.01,-3.64 -3.55,-2.41 -6.48,-5.56 -8.79,-9.43 -2.3,-3.87 -4.08,-7.95 -5.33,-12.24"
         style="fill:#000000;fill-opacity:1;fill-rule:nonzero;stroke:none"
         id="path140"
         inkscape:connector-curvature="0" /><path
         d="m 1522.73,3167.47 h 302.32"
         style="fill:none;stroke:#0072bd;stroke-width:15;stroke-linecap:butt;stroke-linejoin:round;stroke-miterlimit:10;stroke-dasharray:none;stroke-opacity:1"
         id="path142"
         inkscape:connector-curvature="0" /><path
         d="m 1864.48,2849.7 c 0,0.86 0.08,1.48 0.24,1.87 l 16.29,64.93 c 1.02,3.98 1.53,7.5 1.53,10.55 0,6.25 -2.12,9.37 -6.34,9.37 -4.53,0 -7.89,-2.71 -10.07,-8.14 -2.19,-5.43 -4.34,-12.29 -6.45,-20.57 0,-0.39 -0.2,-0.71 -0.58,-0.94 -0.39,-0.23 -0.79,-0.35 -1.18,-0.35 h -2.57 c -0.47,0 -0.89,0.26 -1.23,0.76 -0.36,0.51 -0.54,1 -0.54,1.46 1.57,6.25 3.07,11.59 4.52,16 1.44,4.41 3.71,8.42 6.79,12.02 3.09,3.59 6.93,5.39 11.55,5.39 5,0 9.39,-1.45 13.18,-4.34 3.79,-2.89 6.15,-6.72 7.09,-11.49 3.67,4.85 7.85,8.69 12.54,11.55 4.69,2.85 9.85,4.28 15.47,4.28 4.61,0 8.67,-1.35 12.19,-4.05 3.51,-2.7 5.27,-6.35 5.27,-10.95 0,-3.68 -1.15,-6.88 -3.46,-9.62 -2.3,-2.73 -5.37,-4.1 -9.2,-4.1 -2.34,0 -4.31,0.74 -5.92,2.23 -1.6,1.48 -2.4,3.4 -2.4,5.74 0,3.13 1.18,5.96 3.52,8.5 2.34,2.54 5.04,3.81 8.08,3.81 -2.34,1.87 -5.19,2.81 -8.55,2.81 -6.17,0 -11.56,-2.21 -16.17,-6.62 -4.61,-4.41 -8.75,-10.02 -12.42,-16.82 l -15.59,-62.22 c -0.47,-2.04 -1.56,-3.76 -3.28,-5.16 -1.72,-1.41 -3.67,-2.11 -5.86,-2.11 -1.72,0 -3.22,0.57 -4.52,1.7 -1.28,1.13 -1.93,2.63 -1.93,4.51"
         style="fill:#000000;fill-opacity:1;fill-rule:nonzero;stroke:none"
         id="path144"
         inkscape:connector-curvature="0" /><path
         d="m 1522.73,2898.75 h 302.32"
         style="fill:none;stroke:#ff0000;stroke-width:15;stroke-linecap:butt;stroke-linejoin:round;stroke-miterlimit:10;stroke-dasharray:none;stroke-opacity:1"
         id="path146"
         inkscape:connector-curvature="0" /><path
         d="m 1866.01,2546.06 c 3.04,-5.23 8.36,-7.85 15.94,-7.85 6.87,0 12.81,2.42 17.81,7.27 5,4.84 9.04,10.68 12.13,17.52 3.08,6.83 5.49,13.8 7.21,20.91 -6.41,-6.09 -13.4,-9.14 -20.98,-9.14 -5.71,0 -10.57,1 -14.6,2.99 -4.02,1.99 -7.14,4.96 -9.37,8.91 -2.23,3.94 -3.34,8.69 -3.34,14.23 0,4.77 0.63,9.65 1.88,14.65 1.25,5 3.02,10.55 5.33,16.64 2.3,6.1 4.32,11.41 6.03,15.94 1.88,5.32 2.82,9.69 2.82,13.12 0,4.3 -1.57,6.45 -4.69,6.45 -5.78,0 -10.53,-2.95 -14.24,-8.84 -3.71,-5.91 -6.46,-12.53 -8.26,-19.87 -0.23,-0.86 -0.82,-1.29 -1.76,-1.29 h -2.57 c -1.18,0 -1.77,0.67 -1.77,1.99 v 0.59 c 2.35,8.67 5.92,16.35 10.73,23.03 4.8,6.68 10.88,10.02 18.23,10.02 5.15,0 9.52,-1.7 13.12,-5.1 3.59,-3.4 5.38,-7.72 5.38,-12.95 0,-2.66 -0.58,-5.47 -1.75,-8.44 -0.71,-1.8 -2.19,-5.66 -4.46,-11.6 -2.26,-5.94 -3.98,-10.86 -5.15,-14.76 -1.17,-3.91 -2.15,-7.74 -2.93,-11.49 -0.78,-3.75 -1.17,-7.5 -1.17,-11.25 0,-4.84 1.01,-8.92 3.05,-12.24 2.02,-3.32 5.26,-4.98 9.72,-4.98 8.99,0 17.07,5.5 24.26,16.52 l 16.41,66.91 c 0.54,1.95 1.69,3.61 3.45,4.98 1.76,1.37 3.66,2.05 5.69,2.05 1.79,0 3.36,-0.56 4.69,-1.69 1.32,-1.14 1.98,-2.6 1.98,-4.4 0,-0.86 -0.07,-1.44 -0.23,-1.76 l -21.56,-86.48 c -1.96,-7.5 -5.47,-14.65 -10.55,-21.45 -5.08,-6.8 -11.21,-12.27 -18.39,-16.41 -7.19,-4.14 -14.69,-6.2 -22.5,-6.2 -3.75,0 -7.47,0.74 -11.14,2.22 -3.67,1.49 -6.64,3.67 -8.91,6.57 -2.26,2.89 -3.39,6.28 -3.39,10.19 0,3.9 1.17,7.32 3.51,10.25 2.34,2.93 5.43,4.39 9.26,4.39 2.35,0 4.32,-0.72 5.92,-2.16 1.6,-1.45 2.4,-3.34 2.4,-5.69 0,-3.35 -1.23,-6.26 -3.69,-8.73 -2.46,-2.46 -5.37,-3.69 -8.73,-3.69 -0.16,0.08 -0.29,0.12 -0.42,0.12 -0.11,0 -0.25,0 -0.4,0"
         style="fill:#000000;fill-opacity:1;fill-rule:nonzero;stroke:none"
         id="path148"
         inkscape:connector-curvature="0" /><path
         d="m 1522.73,2630.03 h 302.32"
         style="fill:none;stroke:#000000;stroke-width:15;stroke-linecap:butt;stroke-linejoin:round;stroke-miterlimit:10;stroke-dasharray:none;stroke-opacity:1"
         id="path150"
         inkscape:connector-curvature="0" /><path
         d="M 1492.5,2482.5 H 2070 V 3315 h -577.5 z"
         style="fill:none;stroke:#262626;stroke-width:5.00250006;stroke-linecap:butt;stroke-linejoin:miter;stroke-miterlimit:10;stroke-dasharray:none;stroke-opacity:1"
         id="path152"
         inkscape:connector-curvature="0" /></g></g></svg>