<?xml version="1.0" encoding="UTF-8" standalone="no"?>
<!-- Created with Inkscape (http://www.inkscape.org/) -->

<svg
   xmlns:dc="http://purl.org/dc/elements/1.1/"
   xmlns:cc="http://creativecommons.org/ns#"
   xmlns:rdf="http://www.w3.org/1999/02/22-rdf-syntax-ns#"
   xmlns:svg="http://www.w3.org/2000/svg"
   xmlns="http://www.w3.org/2000/svg"
   xmlns:sodipodi="http://sodipodi.sourceforge.net/DTD/sodipodi-0.dtd"
   xmlns:inkscape="http://www.inkscape.org/namespaces/inkscape"
   version="1.1"
   id="svg3875"
   xml:space="preserve"
   width="1200"
   height="500"
   viewBox="0 0 1200 500"
   sodipodi:docname="stepsarxsimy.svg"
   inkscape:version="0.92.3 (2405546, 2018-03-11)"><metadata
     id="metadata3881"><rdf:RDF><cc:Work
         rdf:about=""><dc:format>image/svg+xml</dc:format><dc:type
           rdf:resource="http://purl.org/dc/dcmitype/StillImage" /><dc:title></dc:title></cc:Work></rdf:RDF></metadata><defs
     id="defs3879" /><sodipodi:namedview
     pagecolor="#ffffff"
     bordercolor="#666666"
     borderopacity="1"
     objecttolerance="10"
     gridtolerance="10"
     guidetolerance="10"
     inkscape:pageopacity="0"
     inkscape:pageshadow="2"
     inkscape:window-width="1538"
     inkscape:window-height="877"
     id="namedview3877"
     showgrid="false"
     inkscape:zoom="0.28333333"
     inkscape:cx="600"
     inkscape:cy="250"
     inkscape:window-x="-8"
     inkscape:window-y="-8"
     inkscape:window-maximized="1"
     inkscape:current-layer="g3883" /><g
     id="g3883"
     inkscape:groupmode="layer"
     inkscape:label="ink_ext_XXXXXX"
     transform="matrix(1.3333333,0,0,-1.3333333,0,500)"><g
       id="g3885"
       transform="scale(0.1)"><path
         d="M 0,0 H 9000 V 3750 H 0 Z"
         style="fill:#ffffff;fill-opacity:1;fill-rule:nonzero;stroke:none"
         id="path3887"
         inkscape:connector-curvature="0" /><path
         d="M 0,0 H 9000 V 3750 H 0 Z"
         style="fill:#ffffff;fill-opacity:1;fill-rule:nonzero;stroke:none"
         id="path3889"
         inkscape:connector-curvature="0" /><path
         d="M 1395,600 H 8595 V 3412.5 H 1395 Z"
         style="fill:#ffffff;fill-opacity:1;fill-rule:nonzero;stroke:none"
         id="path3891"
         inkscape:connector-curvature="0" /><path
         d="M 1395,600 H 8595"
         style="fill:none;stroke:#262626;stroke-width:5.00250006;stroke-linecap:square;stroke-linejoin:round;stroke-miterlimit:10;stroke-dasharray:none;stroke-opacity:1"
         id="path3893"
         inkscape:connector-curvature="0" /><path
         d="M 1395,3412.5 H 8595"
         style="fill:none;stroke:#262626;stroke-width:5.00250006;stroke-linecap:square;stroke-linejoin:round;stroke-miterlimit:10;stroke-dasharray:none;stroke-opacity:1"
         id="path3895"
         inkscape:connector-curvature="0" /><path
         d="m 1395,600 v 72"
         style="fill:none;stroke:#262626;stroke-width:5.00250006;stroke-linecap:square;stroke-linejoin:round;stroke-miterlimit:10;stroke-dasharray:none;stroke-opacity:1"
         id="path3897"
         inkscape:connector-curvature="0" /><path
         d="m 2295,600 v 72"
         style="fill:none;stroke:#262626;stroke-width:5.00250006;stroke-linecap:square;stroke-linejoin:round;stroke-miterlimit:10;stroke-dasharray:none;stroke-opacity:1"
         id="path3899"
         inkscape:connector-curvature="0" /><path
         d="m 3195,600 v 72"
         style="fill:none;stroke:#262626;stroke-width:5.00250006;stroke-linecap:square;stroke-linejoin:round;stroke-miterlimit:10;stroke-dasharray:none;stroke-opacity:1"
         id="path3901"
         inkscape:connector-curvature="0" /><path
         d="m 4095,600 v 72"
         style="fill:none;stroke:#262626;stroke-width:5.00250006;stroke-linecap:square;stroke-linejoin:round;stroke-miterlimit:10;stroke-dasharray:none;stroke-opacity:1"
         id="path3903"
         inkscape:connector-curvature="0" /><path
         d="m 4995,600 v 72"
         style="fill:none;stroke:#262626;stroke-width:5.00250006;stroke-linecap:square;stroke-linejoin:round;stroke-miterlimit:10;stroke-dasharray:none;stroke-opacity:1"
         id="path3905"
         inkscape:connector-curvature="0" /><path
         d="m 5895,600 v 72"
         style="fill:none;stroke:#262626;stroke-width:5.00250006;stroke-linecap:square;stroke-linejoin:round;stroke-miterlimit:10;stroke-dasharray:none;stroke-opacity:1"
         id="path3907"
         inkscape:connector-curvature="0" /><path
         d="m 6795,600 v 72"
         style="fill:none;stroke:#262626;stroke-width:5.00250006;stroke-linecap:square;stroke-linejoin:round;stroke-miterlimit:10;stroke-dasharray:none;stroke-opacity:1"
         id="path3909"
         inkscape:connector-curvature="0" /><path
         d="m 7695,600 v 72"
         style="fill:none;stroke:#262626;stroke-width:5.00250006;stroke-linecap:square;stroke-linejoin:round;stroke-miterlimit:10;stroke-dasharray:none;stroke-opacity:1"
         id="path3911"
         inkscape:connector-curvature="0" /><path
         d="m 8595,600 v 72"
         style="fill:none;stroke:#262626;stroke-width:5.00250006;stroke-linecap:square;stroke-linejoin:round;stroke-miterlimit:10;stroke-dasharray:none;stroke-opacity:1"
         id="path3913"
         inkscape:connector-curvature="0" /><path
         d="m 1395,3412.5 v -72"
         style="fill:none;stroke:#262626;stroke-width:5.00250006;stroke-linecap:square;stroke-linejoin:round;stroke-miterlimit:10;stroke-dasharray:none;stroke-opacity:1"
         id="path3915"
         inkscape:connector-curvature="0" /><path
         d="m 2295,3412.5 v -72"
         style="fill:none;stroke:#262626;stroke-width:5.00250006;stroke-linecap:square;stroke-linejoin:round;stroke-miterlimit:10;stroke-dasharray:none;stroke-opacity:1"
         id="path3917"
         inkscape:connector-curvature="0" /><path
         d="m 3195,3412.5 v -72"
         style="fill:none;stroke:#262626;stroke-width:5.00250006;stroke-linecap:square;stroke-linejoin:round;stroke-miterlimit:10;stroke-dasharray:none;stroke-opacity:1"
         id="path3919"
         inkscape:connector-curvature="0" /><path
         d="m 4095,3412.5 v -72"
         style="fill:none;stroke:#262626;stroke-width:5.00250006;stroke-linecap:square;stroke-linejoin:round;stroke-miterlimit:10;stroke-dasharray:none;stroke-opacity:1"
         id="path3921"
         inkscape:connector-curvature="0" /><path
         d="m 4995,3412.5 v -72"
         style="fill:none;stroke:#262626;stroke-width:5.00250006;stroke-linecap:square;stroke-linejoin:round;stroke-miterlimit:10;stroke-dasharray:none;stroke-opacity:1"
         id="path3923"
         inkscape:connector-curvature="0" /><path
         d="m 5895,3412.5 v -72"
         style="fill:none;stroke:#262626;stroke-width:5.00250006;stroke-linecap:square;stroke-linejoin:round;stroke-miterlimit:10;stroke-dasharray:none;stroke-opacity:1"
         id="path3925"
         inkscape:connector-curvature="0" /><path
         d="m 6795,3412.5 v -72"
         style="fill:none;stroke:#262626;stroke-width:5.00250006;stroke-linecap:square;stroke-linejoin:round;stroke-miterlimit:10;stroke-dasharray:none;stroke-opacity:1"
         id="path3927"
         inkscape:connector-curvature="0" /><path
         d="m 7695,3412.5 v -72"
         style="fill:none;stroke:#262626;stroke-width:5.00250006;stroke-linecap:square;stroke-linejoin:round;stroke-miterlimit:10;stroke-dasharray:none;stroke-opacity:1"
         id="path3929"
         inkscape:connector-curvature="0" /><path
         d="m 8595,3412.5 v -72"
         style="fill:none;stroke:#262626;stroke-width:5.00250006;stroke-linecap:square;stroke-linejoin:round;stroke-miterlimit:10;stroke-dasharray:none;stroke-opacity:1"
         id="path3931"
         inkscape:connector-curvature="0" /><g
         id="g3933"
         transform="scale(10)"><text
           transform="matrix(1,0,0,-1,133.5,33)"
           style="font-variant:normal;font-weight:normal;font-size:20.00020027px;font-family:Helvetica;-inkscape-font-specification:Helvetica;writing-mode:lr-tb;fill:#262626;fill-opacity:1;fill-rule:nonzero;stroke:none"
           id="text3937"><tspan
             x="0 89.999702 174.37454 185.49466 264.37424 275.49435 354.37393 365.49405 444.37366 455.49374 534.37335 545.49347 624.37305 635.49316 714.37274 725.49286"
             y="0"
             sodipodi:role="line"
             id="tspan3935">0510152025303540</tspan></text>
<text
           transform="matrix(1,0,0,-1,449.625,5)"
           style="font-variant:normal;font-weight:normal;font-size:21.99970055px;font-family:Helvetica;-inkscape-font-specification:Helvetica;writing-mode:lr-tb;fill:#262626;fill-opacity:1;fill-rule:nonzero;stroke:none"
           id="text3941"><tspan
             x="0 13.441816 25.673651 43.999401 56.231232 68.463066 74.578979 81.904884 92.904732"
             y="0"
             sodipodi:role="line"
             id="tspan3939">Tempo (s)</tspan></text>
</g><path
         d="M 1395,600 V 3412.5"
         style="fill:none;stroke:#262626;stroke-width:5.00250006;stroke-linecap:square;stroke-linejoin:round;stroke-miterlimit:10;stroke-dasharray:none;stroke-opacity:1"
         id="path3943"
         inkscape:connector-curvature="0" /><path
         d="M 8595,600 V 3412.5"
         style="fill:none;stroke:#262626;stroke-width:5.00250006;stroke-linecap:square;stroke-linejoin:round;stroke-miterlimit:10;stroke-dasharray:none;stroke-opacity:1"
         id="path3945"
         inkscape:connector-curvature="0" /><path
         d="m 1395,883.41 h 72"
         style="fill:none;stroke:#262626;stroke-width:5.00250006;stroke-linecap:square;stroke-linejoin:round;stroke-miterlimit:10;stroke-dasharray:none;stroke-opacity:1"
         id="path3947"
         inkscape:connector-curvature="0" /><path
         d="m 1395,1377.41 h 72"
         style="fill:none;stroke:#262626;stroke-width:5.00250006;stroke-linecap:square;stroke-linejoin:round;stroke-miterlimit:10;stroke-dasharray:none;stroke-opacity:1"
         id="path3949"
         inkscape:connector-curvature="0" /><path
         d="m 1395,1871.39 h 72"
         style="fill:none;stroke:#262626;stroke-width:5.00250006;stroke-linecap:square;stroke-linejoin:round;stroke-miterlimit:10;stroke-dasharray:none;stroke-opacity:1"
         id="path3951"
         inkscape:connector-curvature="0" /><path
         d="m 1395,2365.39 h 72"
         style="fill:none;stroke:#262626;stroke-width:5.00250006;stroke-linecap:square;stroke-linejoin:round;stroke-miterlimit:10;stroke-dasharray:none;stroke-opacity:1"
         id="path3953"
         inkscape:connector-curvature="0" /><path
         d="m 1395,2859.38 h 72"
         style="fill:none;stroke:#262626;stroke-width:5.00250006;stroke-linecap:square;stroke-linejoin:round;stroke-miterlimit:10;stroke-dasharray:none;stroke-opacity:1"
         id="path3955"
         inkscape:connector-curvature="0" /><path
         d="m 1395,3353.37 h 72"
         style="fill:none;stroke:#262626;stroke-width:5.00250006;stroke-linecap:square;stroke-linejoin:round;stroke-miterlimit:10;stroke-dasharray:none;stroke-opacity:1"
         id="path3957"
         inkscape:connector-curvature="0" /><path
         d="m 8595,883.41 h -72"
         style="fill:none;stroke:#262626;stroke-width:5.00250006;stroke-linecap:square;stroke-linejoin:round;stroke-miterlimit:10;stroke-dasharray:none;stroke-opacity:1"
         id="path3959"
         inkscape:connector-curvature="0" /><path
         d="m 8595,1377.41 h -72"
         style="fill:none;stroke:#262626;stroke-width:5.00250006;stroke-linecap:square;stroke-linejoin:round;stroke-miterlimit:10;stroke-dasharray:none;stroke-opacity:1"
         id="path3961"
         inkscape:connector-curvature="0" /><path
         d="m 8595,1871.39 h -72"
         style="fill:none;stroke:#262626;stroke-width:5.00250006;stroke-linecap:square;stroke-linejoin:round;stroke-miterlimit:10;stroke-dasharray:none;stroke-opacity:1"
         id="path3963"
         inkscape:connector-curvature="0" /><path
         d="m 8595,2365.39 h -72"
         style="fill:none;stroke:#262626;stroke-width:5.00250006;stroke-linecap:square;stroke-linejoin:round;stroke-miterlimit:10;stroke-dasharray:none;stroke-opacity:1"
         id="path3965"
         inkscape:connector-curvature="0" /><path
         d="m 8595,2859.38 h -72"
         style="fill:none;stroke:#262626;stroke-width:5.00250006;stroke-linecap:square;stroke-linejoin:round;stroke-miterlimit:10;stroke-dasharray:none;stroke-opacity:1"
         id="path3967"
         inkscape:connector-curvature="0" /><path
         d="m 8595,3353.37 h -72"
         style="fill:none;stroke:#262626;stroke-width:5.00250006;stroke-linecap:square;stroke-linejoin:round;stroke-miterlimit:10;stroke-dasharray:none;stroke-opacity:1"
         id="path3969"
         inkscape:connector-curvature="0" /><g
         id="g3971"
         transform="scale(10)"><text
           transform="matrix(1,0,0,-1,110.25,80.0914)"
           style="font-variant:normal;font-weight:normal;font-size:20.00020027px;font-family:Helvetica;-inkscape-font-specification:Helvetica;writing-mode:lr-tb;fill:#262626;fill-opacity:1;fill-rule:nonzero;stroke:none"
           id="text3985"><tspan
             x="0 11.120111"
             y="0"
             sodipodi:role="line"
             id="tspan3973">30</tspan><tspan
             x="0 11.120111"
             y="-49.3992"
             sodipodi:role="line"
             id="tspan3975">32</tspan><tspan
             x="0 11.120111"
             y="-98.797997"
             sodipodi:role="line"
             id="tspan3977">34</tspan><tspan
             x="0 11.120111"
             y="-148.1972"
             sodipodi:role="line"
             id="tspan3979">36</tspan><tspan
             x="0 11.120111"
             y="-197.59641"
             sodipodi:role="line"
             id="tspan3981">38</tspan><tspan
             x="0 11.120111"
             y="-246.99561"
             sodipodi:role="line"
             id="tspan3983">40</tspan></text>
<text
           transform="matrix(0,1,1,0,102,147.375)"
           style="font-variant:normal;font-weight:normal;font-size:21.99970055px;font-family:Helvetica;-inkscape-font-specification:Helvetica;writing-mode:lr-tb;fill:#262626;fill-opacity:1;fill-rule:nonzero;stroke:none"
           id="text3989"><tspan
             x="0 14.6738 19.557734 25.673651 37.905483 45.231384 57.463215 63.579132 70.905029 81.904884 100.23064"
             y="0"
             sodipodi:role="line"
             id="tspan3987">Altura (cm)</tspan></text>
</g><g
         id="g3991"
         transform="scale(10)"><text
           transform="matrix(1,0,0,-1,241.875,350.625)"
           style="font-variant:normal;font-weight:bold;font-size:21.99970055px;font-family:Helvetica;-inkscape-font-specification:Helvetica-Bold;writing-mode:lr-tb;fill:#000000;fill-opacity:1;fill-rule:nonzero;stroke:none"
           id="text3995"><tspan
             x="0 15.883783 28.115616 40.34745 53.789265 67.231087 79.462914 86.788818 99.020653 105.13657 117.3684 130.81021 136.92613 150.36795 162.59978 176.0416 184.59949 196.83131 210.27313 216.38905 229.83087 243.27269 249.3886 268.94632 282.38815 295.82996 308.0618 314.1777 327.61954 333.73544 349.61923 365.50302 380.17682 392.40866 398.52457 418.08231 424.19821 436.43005 442.54596 462.1037 475.5455 481.66144 493.89328 507.33508"
             y="0"
             sodipodi:role="line"
             id="tspan3993">Resposta ao degrau do modelo ARXsim simulado</tspan></text>
</g><path
         d="m 1395,883.41 h 9 v 0 h 9 v 0 h 9 v 0 h 9 v 0 h 9 v 0 h 9 v 0 h 9 v 0 h 9 v 0.008 h 9 v 0 h 9 v 0 h 9 v 0 h 9 v 0 h 9 v 0 h 9 v 0 h 9 v 0 h 9 v 0 h 9 v 0 h 9 v 0 h 9 v 0 h 9 v 0 h 9 v 0 h 9 v 0 h 9 v 0 h 9 v 0 h 9 v 0.008 h 9 v 0 h 9 v 0 h 9 v 0 h 9 v 0 h 9 v 0 h 9 v 0 h 9 v 0 h 9 v 0 h 9 v 0 h 9 v 0 h 9 v 0 h 9 v 0 h 9 v 0 h 9 v 0.008 h 9 v 0 h 9 v 0 h 9 v 0 h 9 v 0 h 9 v 0 h 9 v 0 h 9 v 0 h 9 v 0 h 9 v 0 h 9 v 0 h 9 v 0 h 9 v 0 h 9 v 0 h 9 v 0 h 9 v 0 h 9 v 0 h 9 v 0.007 h 9 v 0 h 9 v 0 h 9 v 0 h 9 v 0 h 9 v 0 h 9 v 0 h 9 v 0 h 9 v 0 h 9 v 0 h 9 v 0 h 9 v 0 h 9 v 0 h 9 v 0 h 9 v 0 h 9 v 0 h 9 v 0 h 9 v 0 h 9 v 0 h 9 v 0 h 9 v 0 h 9 v 0 h 9 v 0 h 9 v 0 h 9 v 0 h 9 v 0 h 9 v 0 h 9 v 0 h 9 v 0 h 9 v 0 h 9 v 0 h 9 v 0 h 9 v 0 h 9 v 0 h 9 v 0 h 9 v 0 h 9 v 0 h 9 v 0 h 9 v 0 h 9 v 0 h 9 v 0 h 9 v 0 h 9 v 0 h 9 v 0 h 9 v 0 h 9 v 0 h 9 v 0 h 9 v 0 h 9 v 0 h 9 v 0 h 9 v 0 h 9 v 0 h 9 v 0 h 9 v 0 h 9 v 0 h 9 v 0 h 9 v 0 h 9 v 0 h 9 v 0 h 9 v 0 h 9 v 0 h 9 v 0 h 9 v 0 h 9 v 0 h 9 v 0 h 9 v 0 h 9 v 0 h 9 v 0 h 9 v 0 h 9 v 0 h 9 v 0 h 9 v 0 h 9 v 0 h 9 v 0 h 9 v 0 h 9 v 0 h 9 v 0 h 9 v 0 h 9 v 0 h 9 v 0 h 9 v 0 h 9 v 0 h 9 v 0 h 9 v 0 h 9 v 0 h 9 v 0 h 9 v 0 h 9 v 0 h 9 v 0 h 9 v 0 h 9 v 0 h 9 v 0 h 9 v 0 h 9 v 0 h 9 v 0 h 9 v 0 h 9 v 0 h 9 v 0 h 9 v 0 h 9 v 0 h 9 v 0 h 9 v 0 h 9 v 0 h 9 v 0 h 9 v 0 h 9 v 0 h 9 v 0 h 9 v 0 h 9 v 0 h 9 v 0 h 9 v 0 h 9 v 0 h 9 v 0 h 9 v 0 h 9 v 0 h 9 v 0 h 9 v 0 h 9 v 0 h 9 v 0 h 9 v 0 h 9 v 0 h 9 v 0 h 9 v 0 h 9 v 0 h 9 v 0 h 9 v 0 h 9 v 0 h 9 v 0 h 9 v 0 h 9 v 0 h 9 v 0 h 9 v 0 h 9 v 0 h 9 v 0 h 9 v 0 h 9 v 0 h 9 v 0 h 9 v 0 h 9 v 0 h 9 v 0 h 9 v 0 h 9 v 0 h 9 v 0 h 9 v 0 h 9 v 0 h 9 v -45.992 h 9 v -29.332 h 9 v 32.34 h 9 v 21.871 h 9 v -25.777 h 9 v -18.684 h 9 v 17.469 h 9 v 12.008 h 9 v -16.106 h 9 v -12.547 h 9 v 8.704 h 9 v 5.902 h 9 v -10.652 h 9 v -8.942 h 9 v 3.551 h 9 v 2.16 h 9 v -7.59 h 9 v -6.797 h 9 v 0.547 h 9 v -0.117 h 9 v -5.852 h 9 v -5.503 h 9 v -1.18 h 9 v -1.477 h 9 v -4.836 h 9 v -4.695 h 9 v -2.144 h 9 v -2.25 h 9 v -4.219 h 9 v -4.153 h 9 v -2.64 h 9 v -2.664 h 9 v -3.793 h 9 v -3.766 h 9 v -2.859 h 9 v -2.832 h 9 v -3.481 h 9 v -3.457 h 9 v -2.91 h 9 v -2.859 h 9 v -3.215 h 9 v -3.188 h 9 v -2.851 h 9 v -2.789 h 9 v -2.973 h 9 v -2.945 h 9 v -2.715 h 9 v -2.664 h 9 v -2.746 h 9 v -2.715 h 9 v -2.547 h 9 v -2.5 h 9 v -2.527 h 9 v -2.481 h 9 v -2.371 h 9 v -2.308 h 9 v -2.313 h 9 v -2.266 h 9 v -2.171 h 9 v -2.125 h 9 v -2.09 h 9 v -2.055 h 9 v -1.98 h 9 v -1.93 h 9 v -1.899 h 9 v -1.843 h 9 v -1.785 h 9 v -1.739 h 9 v -1.703 h 9 v -1.656 h 9 v -1.598 h 9 v -1.562 h 9 v -1.516 h 9 v -1.476 h 9 v -1.426 h 9 v -1.379 h 9 v -1.344 h 9 v -1.305 h 9 v -1.265 h 9 v -1.223 h 9 v -1.187 h 9 v -1.137 h 9 v -1.109 h 9 v -1.075 h 9 v -1.035 h 9 v -1.004 h 9 v -0.968 h 9 v -0.938 h 9 v -0.898 h 9 v -0.872 h 9 v -0.839 h 9 v -0.809 h 9 v -0.781 h 9 v -0.75 h 9 v -0.719 h 9 v -0.699 h 9 v -0.668 h 9 v -0.645 h 9 v -0.613 h 9 v -0.594 h 9 v -0.57 h 9 v -0.547 h 9 v -0.527 h 9 v -0.5 h 9 v -0.481 h 9 v -0.465 h 9 v -0.437 h 9 v -0.418 h 9 v -0.406 h 9 v -0.383 h 9 v -0.367 h 9 v -0.352 h 9 v -0.336 h 9 v -0.316 h 9 v -0.301 h 9 v -0.293 h 9 v -0.269 h 9 v -0.262 h 9 v -0.246 h 9 v -0.235 h 9 v -0.218 h 9 v -0.207 h 9 v -0.204 h 9 v -0.187 h 9 v -0.172 h 9 v -0.168 h 9 v -0.156 h 9 v -0.141 h 9 v -0.144 h 9 v -0.129 h 9 v -0.117 h 9 v -0.114 h 9 v -0.105 h 9 v -0.098 h 9 v -0.09 h 9 v -0.082 h 9 v -0.074 h 9 v -0.07 h 9 v -0.067 h 9 v -0.058 h 9 v -0.055 h 9 v -0.043 h 9 v -0.047 h 9 v -0.035 h 9 v -0.031 h 9 v -0.031 h 9 v -0.028 h 9 v -0.023 h 9 v -0.016 h 9 v -0.015 h 9 v -0.016 h 9 v -0.004 h 9 v 0 h 9 v -0.008 h 9 v 0 h 9 v 0.008 h 9 v 0 h 9 v 0.004 h 9 v 0.008 h 9 v 0.015 h 9 v 0.016 h 9 v 0.008 h 9 v 0.023 h 9 v 0.016 h 9 v 0.012 h 9 v 0.023 h 9 v 0.023 h 9 v 0.024 h 9 v 0.019 h 9 v 0.024 h 9 v 0.031 h 9 v 0.024 h 9 v 0.019 h 9 v 0.031 h 9 v 0.032 h 9 v 0.023 h 9 v 0.027 h 9 v 0.032 h 9 v 0.031 h 9 v 0.027 h 9 v 0.031 h 9 v 0.032 h 9 v 0.019 h 9 v 0.032 h 9 v 0.031 h 9 v 0.027 h 9 v 0.031 h 9 v 0.032 h 9 v 0.027 h 9 v 0.031 h 9 v 0.031 h 9 v 0.028 h 9 v 0.023 h 9 v 0.031 h 9 v 0.032 h 9 v 0.027 h 9 v 0.024 h 9 v 0.031 h 9 v 0.027 h 9 v 0.024 h 9 v 0.031 h 9 v 0.023 h 9 v 0.02 h 9 v 0.031 h 9 v 0.023 h 9 v 0.024 h 9 v 0.019 h 9 v 0.032 h 9 v 0.023 h 9 v 0.024 h 9 v 0.019 h 9 v 0.024 h 9 v 0.015 h 9 v 0.024 h 9 v 0.019 h 9 v 0.024 h 9 v 0.015 h 9 v 0.024 h 9 v 0.015 h 9 v 0.02 h 9 v 0.015 h 9 v 0.024 h 9 v 0.015 h 9 v 0.016 h 9 v 0.012 h 9 v 0.015 h 9 v 0.016 h 9 v 0.016 h 9 v 0.015 h 9 v 0.016 h 9 v 0.016 h 9 v 0.011 h 9 v 0.016 h 9 v 0.016 h 9 v 0.007 h 9 v 0.016 h 9 v 0.008 h 9 v 0.015 h 9 v 0.004 h 9 v 0.016 h 9 v 0.008 h 9 v 0.015 h 9 v 0.008 h 9 v 0.008 h 9 v 0.016 h 9 v 0.007 h 9 v 0.008 h 9 v 0.008 h 9 v 0.004 h 9 v 0.008 h 9 v 0.008 h 9 v 0.007 h 9 v 0.008 h 9 v 0.008 h 9 v 0.008 h 9 v 0.008 h 9 v 0.007 h 9 v 0 h 9 v 0.008 h 9 v 0.008 h 9 v 0.008 h 9 v 0 h 9 v 0.004 h 9 v 0.008 h 9 v 0 h 9 v 0.007 h 9 v 0 h 9 v 0.008 h 9 v 0.008 h 9 v 0 h 9 v 0 h 9 v 0.008 h 9 v 0 h 9 v 0.008 h 9 v 0 h 9 v 0.007 h 9 v 0 h 9 v 0 h 9 v 0.008 h 9 v 0 h 9 v 0 h 9 v 0.008 h 9 v 0 h 9 v 0 h 9 v 0 h 9 v 0.008 h 9 v 0 h 9 v 0 h 9 v 0 h 9 v 0.008 h 9 v 0 h 9 v 0 h 9 v 0 h 9 v 0 h 9 v 0 h 9 v 0 h 9 v 0.008 h 9 v 0 h 9 v 0 h 9 v 0 h 9 v 0 h 9 v 0 h 9 v 0 h 9 v 0 h 9 v 0 h 9 v 0 h 9 v 0 h 9 v 0.003 h 9 v 0 h 9 v 0 h 9 v 0 h 9 v 0 h 9 v 0 h 9 v 0 h 9 v 0 h 9 v 0 h 9 v 0 h 9 v 0 h 9 v 0 h 9 v 0 h 9 v 0 h 9 v 0 h 9 v 0 h 9 v 0 h 9 v 0 h 9 v 0 h 9 v 0 h 9 v 0 h 9 v 0 h 9 v 0 h 9 v 0 h 9 v 0 h 9 v 0 h 9 v 0 h 9 v 0 h 9 v 0 h 9 v 0 h 9 v 0 h 9 v 0 h 9 v 0 h 9 v 0 h 9 v 0 h 9 v 0 h 9 v 0 h 9 v 0 h 9 v 0 h 9 v 0 h 9 v 0 h 9 v 0 h 9 v 0 h 9 v -0.003 h 9 v 0 h 9 v 0 h 9 v 0 h 9 v 0 h 9 v 0 h 9 v 0 h 9 v 0 h 9 v 0 h 9 v 0 h 9 v 0 h 9 v 0 h 9 v 0 h 9 v 0 h 9 v 0 h 9 v 0 h 9 v 0 h 9 v 0 h 9 v 0 h 9 v 0 h 9 v 0 h 9 v 0 h 9 v 0 h 9 v 0 h 9 v 0 h 9 v 0 h 9 v 0 h 9 v 0 h 9 v 0 h 9 v 0 h 9 v 0 h 9 v 0 h 9 v 0 h 9 v 0 h 9 v 0 h 9 v 0 h 9 v 0 h 9 v 0 h 9 v 0 h 9 v 0 h 9 v 0 h 9 v 0 h 9 v 0 h 9 v 0 h 9 v 0 h 9 v 0 h 9 v 0 h 9 v 0 h 9 v 0 h 9 v 0 h 9 v 0 h 9 v -0.008 h 9 v 0 h 9 v 0 h 9 v 0 h 9 v 0 h 9 v 0 h 9 v 0 h 9 v 0 h 9 v 0 h 9 v 0 h 9 v 0 h 9 v 0 h 9 v 0 h 9 v 0 h 9 v 0 h 9 v 0 h 9 v 0 h 9 v 0 h 9 v 0 h 9 v 0 h 9 v 0 h 9 v 0 h 9 v 0 h 9 v 0 h 9 v 0 h 9 v 0 h 9 v 0 h 9 v 0 h 9 v 0 h 9 v 0 h 9 v 0 h 9 v 0 h 9 v 0 h 9 v 0 h 9 v 0 h 9 v 0 h 9 v 0 h 9 v 0 h 9 v 0 h 9 v 0 h 9 v 0 h 9 v 0 h 9 v 0 h 9 v 0 h 9 v 0 h 9 v 0 h 9 v 0 h 9 v 0 h 9 v 0 h 9 v 0 h 9 v 0 h 9 v 0 h 9 v 0 h 9 v 0 h 9 v 0 h 9 v 0 h 9 v 0 h 9 v 0 h 9 v 0 h 9 v 0 h 9 v 0 h 9 v 0 h 9 v 0 h 9 v 0 h 9 v 0 h 9 v 0 h 9 v 0 h 9 v 0 h 9 v 0 h 9 v 0 h 9 v 0 h 9 v 0 h 9 v 0 h 9 v 0 h 9 v 0 h 9 v 0 h 9 v 0 h 9 v 0 h 9 v 0 h 9 v 0 h 9 v 0 h 9 v 0 h 9 v 0 h 9 v 0 h 9 v 0 h 9 v 0 h 9 v 0 h 9 v 0 h 9 v 0 h 9 v 0 h 9 v 0 h 9 v 0 h 9 v 0 h 9 v 0 h 9 v 0 h 9 v 0 h 9 v 0 h 9 v 0 h 9 v 0 h 9 v 0 h 9 v 0 h 9 v 0 h 9 v 0 h 9 v 0 h 9 v 0 h 9 v 0 h 9 v 0 h 9 v 0 h 9 v 0 h 9 v 0 h 9 v 0 h 9 v 0 h 9 v 0 h 9 v 0 h 9 v 0 h 9 v 0 h 9 v 0 h 9 v 0 h 9 v 0 h 9 v 0 h 9 v 0 h 9 v 0 h 9 v 0 h 9 v 0 h 9 v 0 h 9 v 0 h 9 v 0 h 9 v 0 h 9 v 0 h 9 v 0 h 9 v 0 h 9 v 0 h 9 v 0 h 9 v 0 h 9 v 0 h 9 v 0 h 9 v 0 h 9 v 0 h 9 v 0 h 9 v 0 h 9 v 0 h 9 v 0 h 9 v 0 h 9 v 0 h 9 v 0 h 9 v 0 h 9 v 0 h 9 v 0 h 9 v 0 h 9 v 0 h 9 v 0 h 9 v 0 h 9 v 0 h 9 v 0 h 9 v 0 h 9 v 0 h 9 v 0 h 9 v 0 h 9 v 0 h 9 v 0 h 9 v 0 h 9 v 0 h 9 v 0 h 9 v 0 h 9 v 0 h 9 v 0 h 9 v 0 h 9 v 0 h 9 v 0 h 9 v 0 h 9 v 0 h 9 v 0 h 9 v 0 h 9 v 0 h 9 v 0 h 9 v 0 h 9 v 0 h 9 v 0 h 9 v 0 h 9 v 0 h 9 v 0 h 9 v 0 h 9 v 0 h 9 v 0 h 9 v 0 h 9 v 0 h 9 v 0 h 9 v 0 h 9 v 0 h 9 v 0 h 9 v 0 h 9 v 0 h 9 v 0 h 9 v 0 h 9 v 0 h 9 v 0 h 9 v 0 h 9 v 0 h 9 v 0"
         style="fill:none;stroke:#0072bd;stroke-width:15;stroke-linecap:butt;stroke-linejoin:miter;stroke-miterlimit:10;stroke-dasharray:none;stroke-opacity:1"
         id="path3997"
         inkscape:connector-curvature="0" /><path
         d="m 1395,883.41 h 9 v 0 h 9 v 0 h 9 v 0 h 9 v 0 h 9 v 0 h 9 v 0 h 9 v 0 h 9 v 0 h 9 v 0 h 9 v 0 h 9 v 0 h 9 v 0 h 9 v 0 h 9 v 0 h 9 v 0 h 9 v 0 h 9 v 0 h 9 v 0 h 9 v 0 h 9 v 0 h 9 v 0 h 9 v 0 h 9 v 0 h 9 v 0 h 9 v 0 h 9 v 0 h 9 v 0 h 9 v 0 h 9 v 0 h 9 v 0 h 9 v 0 h 9 v 0 h 9 v 0 h 9 v 0 h 9 v 0 h 9 v 0 h 9 v 0 h 9 v 0 h 9 v 0 h 9 v 0 h 9 v 0 h 9 v 0 h 9 v 0 h 9 v 0 h 9 v 0 h 9 v 0 h 9 v 0 h 9 v 0 h 9 v 0 h 9 v 0 h 9 v 0 h 9 v 0 h 9 v 0 h 9 v 0 h 9 v 0 h 9 v 0 h 9 v 0 h 9 v 0 h 9 v 0 h 9 v 0 h 9 v 0 h 9 v 0 h 9 v 0 h 9 v 0 h 9 v 0 h 9 v 0 h 9 v 0 h 9 v 0 h 9 v 0 h 9 v 0 h 9 v 0 h 9 v 0 h 9 v 0 h 9 v 0 h 9 v 0 h 9 v 0 h 9 v 0 h 9 v 0 h 9 v 0 h 9 v 0 h 9 v 0 h 9 v 0 h 9 v 0 h 9 v 0 h 9 v 0 h 9 v 0 h 9 v 0 h 9 v 0 h 9 v 0 h 9 v 0 h 9 v 0 h 9 v 0 h 9 v 0 h 9 v 0 h 9 v 0 h 9 v 0 h 9 v 0 h 9 v 0 h 9 v 0 h 9 v 0 h 9 v 0 h 9 v 0 h 9 v 0 h 9 v 0 h 9 v 0 h 9 v 0 h 9 v 0 h 9 v 0 h 9 v 0 h 9 v 0 h 9 v 0 h 9 v 0 h 9 v 0 h 9 v 0 h 9 v 0 h 9 v 0 h 9 v 0 h 9 v 0 h 9 v 0 h 9 v 0 h 9 v 0 h 9 v 0 h 9 v 0 h 9 v 0 h 9 v 0 h 9 v 0 h 9 v 0 h 9 v 0 h 9 v 0 h 9 v 0 h 9 v 0 h 9 v 0 h 9 v 0 h 9 v 0 h 9 v 0 h 9 v 0 h 9 v 0 h 9 v 0 h 9 v 0 h 9 v 0 h 9 v 0 h 9 v 0 h 9 v 0 h 9 v 0 h 9 v 0 h 9 v 0 h 9 v 0 h 9 v 0 h 9 v 0 h 9 v 0 h 9 v 0 h 9 v 0 h 9 v 0 h 9 v 0 h 9 v 0 h 9 v 0 h 9 v 0 h 9 v 0 h 9 v 0 h 9 v 0 h 9 v 0 h 9 v 0 h 9 v 0 h 9 v 0 h 9 v 0 h 9 v 0 h 9 v 0 h 9 v 0 h 9 v 0 h 9 v 0 h 9 v 0 h 9 v 0 h 9 v 0 h 9 v 0 h 9 v 0 h 9 v 0 h 9 v 0 h 9 v 0 h 9 v 0 h 9 v 0 h 9 v 0 h 9 v 0 h 9 v 0 h 9 v 0 h 9 v 0 h 9 v 0 h 9 v 0 h 9 v 0 h 9 v 0 h 9 v 0 h 9 v 0 h 9 v 0 h 9 v 0 h 9 v 0 h 9 v 0 h 9 v 0 h 9 v 0 h 9 v 0 h 9 v 0 h 9 v 2469.96 h 9 v 0 h 9 v 0 h 9 v 0 h 9 v 0 h 9 v 0 h 9 v 0 h 9 v 0 h 9 v 0 h 9 v 0 h 9 v 0 h 9 v 0 h 9 v 0 h 9 v 0 h 9 v 0 h 9 v 0 h 9 v 0 h 9 v 0 h 9 v 0 h 9 v 0 h 9 v 0 h 9 v 0 h 9 v 0 h 9 v 0 h 9 v 0 h 9 v 0 h 9 v 0 h 9 v 0 h 9 v 0 h 9 v 0 h 9 v 0 h 9 v 0 h 9 v 0 h 9 v 0 h 9 v 0 h 9 v 0 h 9 v 0 h 9 v 0 h 9 v 0 h 9 v 0 h 9 v 0 h 9 v 0 h 9 v 0 h 9 v 0 h 9 v 0 h 9 v 0 h 9 v 0 h 9 v 0 h 9 v 0 h 9 v 0 h 9 v 0 h 9 v 0 h 9 v 0 h 9 v 0 h 9 v 0 h 9 v 0 h 9 v 0 h 9 v 0 h 9 v 0 h 9 v 0 h 9 v 0 h 9 v 0 h 9 v 0 h 9 v 0 h 9 v 0 h 9 v 0 h 9 v 0 h 9 v 0 h 9 v 0 h 9 v 0 h 9 v 0 h 9 v 0 h 9 v 0 h 9 v 0 h 9 v 0 h 9 v 0 h 9 v 0 h 9 v 0 h 9 v 0 h 9 v 0 h 9 v 0 h 9 v 0 h 9 v 0 h 9 v 0 h 9 v 0 h 9 v 0 h 9 v 0 h 9 v 0 h 9 v 0 h 9 v 0 h 9 v 0 h 9 v 0 h 9 v 0 h 9 v 0 h 9 v 0 h 9 v 0 h 9 v 0 h 9 v 0 h 9 v 0 h 9 v 0 h 9 v 0 h 9 v 0 h 9 v 0 h 9 v 0 h 9 v 0 h 9 v 0 h 9 v 0 h 9 v 0 h 9 v 0 h 9 v 0 h 9 v 0 h 9 v 0 h 9 v 0 h 9 v 0 h 9 v 0 h 9 v 0 h 9 v 0 h 9 v 0 h 9 v 0 h 9 v 0 h 9 v 0 h 9 v 0 h 9 v 0 h 9 v 0 h 9 v 0 h 9 v 0 h 9 v 0 h 9 v 0 h 9 v 0 h 9 v 0 h 9 v 0 h 9 v 0 h 9 v 0 h 9 v 0 h 9 v 0 h 9 v 0 h 9 v 0 h 9 v 0 h 9 v 0 h 9 v 0 h 9 v 0 h 9 v 0 h 9 v 0 h 9 v 0 h 9 v 0 h 9 v 0 h 9 v 0 h 9 v 0 h 9 v 0 h 9 v 0 h 9 v 0 h 9 v 0 h 9 v 0 h 9 v 0 h 9 v 0 h 9 v 0 h 9 v 0 h 9 v 0 h 9 v 0 h 9 v 0 h 9 v 0 h 9 v 0 h 9 v 0 h 9 v 0 h 9 v 0 h 9 v 0 h 9 v 0 h 9 v 0 h 9 v 0 h 9 v 0 h 9 v 0 h 9 v 0 h 9 v 0 h 9 v 0 h 9 v 0 h 9 v 0 h 9 v 0 h 9 v 0 h 9 v 0 h 9 v 0 h 9 v 0 h 9 v 0 h 9 v 0 h 9 v 0 h 9 v 0 h 9 v 0 h 9 v 0 h 9 v 0 h 9 v 0 h 9 v 0 h 9 v 0 h 9 v 0 h 9 v 0 h 9 v 0 h 9 v 0 h 9 v 0 h 9 v 0 h 9 v 0 h 9 v 0 h 9 v 0 h 9 v 0 h 9 v 0 h 9 v 0 h 9 v 0 h 9 v 0 h 9 v 0 h 9 v 0 h 9 v 0 h 9 v 0 h 9 v 0 h 9 v 0 h 9 v 0 h 9 v 0 h 9 v 0 h 9 v 0 h 9 v 0 h 9 v 0 h 9 v 0 h 9 v 0 h 9 v 0 h 9 v 0 h 9 v 0 h 9 v 0 h 9 v 0 h 9 v 0 h 9 v 0 h 9 v 0 h 9 v 0 h 9 v 0 h 9 v 0 h 9 v 0 h 9 v 0 h 9 v 0 h 9 v 0 h 9 v 0 h 9 v 0 h 9 v 0 h 9 v 0 h 9 v 0 h 9 v 0 h 9 v 0 h 9 v 0 h 9 v 0 h 9 v 0 h 9 v 0 h 9 v 0 h 9 v 0 h 9 v 0 h 9 v 0 h 9 v 0 h 9 v 0 h 9 v 0 h 9 v 0 h 9 v 0 h 9 v 0 h 9 v 0 h 9 v 0 h 9 v 0 h 9 v 0 h 9 v 0 h 9 v 0 h 9 v 0 h 9 v 0 h 9 v 0 h 9 v 0 h 9 v 0 h 9 v 0 h 9 v 0 h 9 v 0 h 9 v 0 h 9 v 0 h 9 v 0 h 9 v 0 h 9 v 0 h 9 v 0 h 9 v 0 h 9 v 0 h 9 v 0 h 9 v 0 h 9 v 0 h 9 v 0 h 9 v 0 h 9 v 0 h 9 v 0 h 9 v 0 h 9 v 0 h 9 v 0 h 9 v 0 h 9 v 0 h 9 v 0 h 9 v 0 h 9 v 0 h 9 v 0 h 9 v 0 h 9 v 0 h 9 v 0 h 9 v 0 h 9 v 0 h 9 v 0 h 9 v 0 h 9 v 0 h 9 v 0 h 9 v 0 h 9 v 0 h 9 v 0 h 9 v 0 h 9 v 0 h 9 v 0 h 9 v 0 h 9 v 0 h 9 v 0 h 9 v 0 h 9 v 0 h 9 v 0 h 9 v 0 h 9 v 0 h 9 v 0 h 9 v 0 h 9 v 0 h 9 v 0 h 9 v 0 h 9 v 0 h 9 v 0 h 9 v 0 h 9 v 0 h 9 v 0 h 9 v 0 h 9 v 0 h 9 v 0 h 9 v 0 h 9 v 0 h 9 v 0 h 9 v 0 h 9 v 0 h 9 v 0 h 9 v 0 h 9 v 0 h 9 v 0 h 9 v 0 h 9 v 0 h 9 v 0 h 9 v 0 h 9 v 0 h 9 v 0 h 9 v 0 h 9 v 0 h 9 v 0 h 9 v 0 h 9 v 0 h 9 v 0 h 9 v 0 h 9 v 0 h 9 v 0 h 9 v 0 h 9 v 0 h 9 v 0 h 9 v 0 h 9 v 0 h 9 v 0 h 9 v 0 h 9 v 0 h 9 v 0 h 9 v 0 h 9 v 0 h 9 v 0 h 9 v 0 h 9 v 0 h 9 v 0 h 9 v 0 h 9 v 0 h 9 v 0 h 9 v 0 h 9 v 0 h 9 v 0 h 9 v 0 h 9 v 0 h 9 v 0 h 9 v 0 h 9 v 0 h 9 v 0 h 9 v 0 h 9 v 0 h 9 v 0 h 9 v 0 h 9 v 0 h 9 v 0 h 9 v 0 h 9 v 0 h 9 v 0 h 9 v 0 h 9 v 0 h 9 v 0 h 9 v 0 h 9 v 0 h 9 v 0 h 9 v 0 h 9 v 0 h 9 v 0 h 9 v 0 h 9 v 0 h 9 v 0 h 9 v 0 h 9 v 0 h 9 v 0 h 9 v 0 h 9 v 0 h 9 v 0 h 9 v 0 h 9 v 0 h 9 v 0 h 9 v 0 h 9 v 0 h 9 v 0 h 9 v 0 h 9 v 0 h 9 v 0 h 9 v 0 h 9 v 0 h 9 v 0 h 9 v 0 h 9 v 0 h 9 v 0 h 9 v 0 h 9 v 0 h 9 v 0 h 9 v 0 h 9 v 0 h 9 v 0 h 9 v 0 h 9 v 0 h 9 v 0 h 9 v 0 h 9 v 0 h 9 v 0 h 9 v 0 h 9 v 0 h 9 v 0 h 9 v 0 h 9 v 0 h 9 v 0 h 9 v 0 h 9 v 0 h 9 v 0 h 9 v 0 h 9 v 0 h 9 v 0 h 9 v 0 h 9 v 0 h 9 v 0 h 9 v 0 h 9 v 0 h 9 v 0 h 9 v 0 h 9 v 0 h 9 v 0 h 9 v 0 h 9 v 0 h 9 v 0 h 9 v 0 h 9 v 0 h 9 v 0 h 9 v 0 h 9 v 0 h 9 v 0 h 9 v 0 h 9 v 0 h 9 v 0 h 9 v 0 h 9 v 0 h 9 v 0 h 9 v 0 h 9 v 0 h 9 v 0 h 9 v 0 h 9 v 0 h 9 v 0 h 9 v 0 h 9 v 0 h 9 v 0 h 9 v 0 h 9 v 0 h 9 v 0 h 9 v 0 h 9 v 0 h 9 v 0 h 9 v 0 h 9 v 0 h 9 v 0 h 9 v 0 h 9 v 0 h 9 v 0 h 9 v 0 h 9 v 0 h 9 v 0 h 9 v 0 h 9 v 0 h 9 v 0 h 9 v 0 h 9 v 0 h 9 v 0 h 9 v 0 h 9 v 0 h 9 v 0 h 9 v 0 h 9 v 0 h 9 v 0 h 9 v 0 h 9 v 0 h 9 v 0 h 9 v 0 h 9 v 0 h 9 v 0 h 9 v 0 h 9 v 0 h 9 v 0 h 9 v 0 h 9 v 0 h 9 v 0 h 9 v 0 h 9 v 0 h 9 v 0 h 9 v 0 h 9 v 0 h 9 v 0 h 9 v 0 h 9 v 0 h 9 v 0 h 9 v 0 h 9 v 0 h 9 v 0 h 9 v 0 h 9 v 0 h 9 v 0 h 9 v 0 h 9 v 0 h 9 v 0 h 9 v 0 h 9 v 0 h 9 v 0 h 9 v 0 h 9 v 0 h 9 v 0 h 9 v 0 h 9 v 0 h 9 v 0 h 9 v 0 h 9 v 0 h 9 v 0 h 9 v 0 h 9 v 0 h 9 v 0 h 9 v 0 h 9 v 0 h 9 v 0 h 9 v 0 h 9 v 0 h 9 v 0 h 9 v 0 h 9 v 0 h 9 v 0 h 9 v 0 h 9 v 0 h 9 v 0 h 9 v 0 h 9 v 0 h 9 v 0 h 9 v 0 h 9 v 0 h 9 v 0 h 9 v 0 h 9 v 0 h 9 v 0 h 9 v 0 h 9 v 0 h 9 v 0 h 9 v 0 h 9 v 0 h 9 v 0 h 9 v 0 h 9 v 0 h 9 v 0 h 9 v 0 h 9 v 0 h 9 v 0 h 9 v 0 h 9 v 0 h 9 v 0 h 9 v 0 h 9 v 0 h 9 v 0 h 9 v 0 h 9 v 0 h 9 v 0 h 9 v 0 h 9 v 0 h 9 v 0 h 9 v 0 h 9 v 0 h 9 v 0 h 9 v 0 h 9 v 0"
         style="fill:none;stroke:#ff0000;stroke-width:15;stroke-linecap:butt;stroke-linejoin:miter;stroke-miterlimit:10;stroke-dasharray:none;stroke-opacity:1"
         id="path3999"
         inkscape:connector-curvature="0" /><path
         d="m 1395,883.41 h 45 l 9,-0.008 h 9 l 9,-0.007 h 9 l 9,-0.008 h 9 l 9,-0.008 9,-0.008 h 9 l 9,-0.008 9,-0.004 9,-0.007 h 9 l 9,-0.008 9,-0.008 9,-0.008 9,-0.008 9,-0.007 h 9 l 9,-0.008 9,-0.008 9,-0.008 9,-0.008 9,-0.008 9,-0.003 h 9 l 9,-0.008 9,-0.008 9,-0.008 9,-0.008 9,-0.008 h 9 l 9,-0.007 9,-0.008 9,-0.008 h 9 l 9,-0.008 9,-0.008 9,-0.007 h 9 l 9,-0.008 9,-0.004 h 9 l 9,-0.008 9,-0.008 h 9 l 9,-0.008 h 9 l 9,-0.007 h 9 l 9,-0.008 9,-0.008 h 9 9 l 9,-0.008 h 9 l 9,-0.008 h 9 l 9,-0.007 h 9 9 l 9,-0.008 h 9 9 l 9,-0.008 h 9 9 9 l 9,-0.008 h 9 9 9 l 9,-0.004 h 9 9 9 9 l 9,-0.008 h 9 9 9 9 9 9 9 9 l 9,-0.007 h 9 9 9 9 9 9 9 9 9 9 9 9 9 9 9 9 9 9 9 9 9 9 9 9 9 9 9 9 9 9 9 9 9 9 9 9 l 9,0.007 h 9 9 9 9 9 9 9 9 9 9 9 9 9 9 9 9 9 9 9 9 9 9 9 9 9 9 9 9 9 9 9 l 9,0.008 h 9 9 9 9 9 9 9 9 9 9 9 9 9 9 9 9 9 9 9 9 9 9 9 9 9 9 9 9 9 9 9 9 9 9 9 9 9 9 9 l 9,3.067 9,8.847 9,12.039 9,12.899 9,15.355 9,19.289 9,21.727 9,22.734 9,24.549 9,27.15 9,28.9 9,29.74 9,30.99 9,32.66 9,33.8 9,34.41 9,35.19 9,36.19 9,36.86 9,37.2 9,37.61 9,38.13 9,38.44 9,38.53 9,38.67 9,38.81 9,38.86 9,38.76 9,38.64 9,38.56 9,38.38 9,38.11 9,37.85 9,37.57 9,37.23 9,36.85 9,36.44 9,36.05 9,35.6 9,35.12 9,34.64 9,34.14 9,33.63 9,33.09 9,32.54 9,31.99 9,31.43 9,30.85 9,30.27 9,29.69 9,29.1 9,28.51 9,27.9 9,27.32 9,26.73 9,26.12 9,25.53 9,24.94 9,24.35 9,23.76 9,23.18 9,22.6 9,22.03 9,21.46 9,20.89 9,20.35 9,19.79 9,19.25 9,18.72 9,18.18 9,17.67 9,17.15 9,16.66 9,16.15 9,15.67 9,15.19 9,14.72 9,14.26 9,13.81 9,13.36 9,12.93 9,12.51 9,12.09 9,11.68 9,11.29 9,10.89 9,10.52 9,10.15 9,9.78 9,9.44 9,9.09 9,8.75 9,8.42 9,8.11 9,7.79 9,7.5 9,7.2 9,6.92 9,6.64 9,6.37 9,6.11 9,5.85 9,5.61 9,5.37 9,5.14 9,4.91 9,4.7 9,4.48 9,4.28 9,4.09 9,3.89 9,3.7 9,3.53 9,3.35 9,3.19 9,3.03 9,2.87 9,2.72 9,2.58 9,2.44 9,2.3 9,2.18 9,2.05 9,1.93 9,1.82 9,1.7 9,1.6 9,1.5 9,1.4 9,1.3 9,1.22 9,1.13 9,1.04 9,0.97 9,0.89 9,0.82 9,0.75 9,0.68 9,0.62 9,0.56 9,0.49 9,0.46 9,0.39 9,0.34 9,0.3 9,0.26 9,0.21 9,0.16 9,0.13 9,0.1 9,0.06 9,0.03 h 9 l 9,-0.03 9,-0.06 9,-0.08 9,-0.11 9,-0.12 9,-0.15 9,-0.18 9,-0.18 9,-0.21 9,-0.21 9,-0.24 9,-0.24 9,-0.26 9,-0.27 9,-0.29 9,-0.28 9,-0.3 9,-0.31 9,-0.32 9,-0.31 9,-0.33 9,-0.33 9,-0.33 9,-0.34 9,-0.34 9,-0.34 9,-0.34 9,-0.34 9,-0.35 9,-0.34 9,-0.35 9,-0.35 9,-0.34 9,-0.34 9,-0.34 9,-0.34 9,-0.34 9,-0.33 9,-0.33 9,-0.33 9,-0.32 9,-0.32 9,-0.33 9,-0.3 9,-0.32 9,-0.3 9,-0.31 9,-0.29 9,-0.29 9,-0.28 9,-0.29 9,-0.28 9,-0.27 9,-0.27 9,-0.27 9,-0.26 9,-0.25 9,-0.25 9,-0.24 9,-0.24 9,-0.24 9,-0.23 9,-0.22 9,-0.22 9,-0.22 9,-0.21 9,-0.2 9,-0.2 9,-0.2 9,-0.19 9,-0.18 9,-0.19 9,-0.17 9,-0.17 9,-0.18 9,-0.16 9,-0.16 9,-0.15 9,-0.15 9,-0.15 9,-0.14 9,-0.14 9,-0.13 9,-0.14 9,-0.13 9,-0.12 9,-0.11 9,-0.12 9,-0.11 9,-0.11 9,-0.11 9,-0.09 9,-0.11 9,-0.09 9,-0.1 9,-0.09 9,-0.08 9,-0.08 9,-0.09 9,-0.07 9,-0.07 9,-0.08 9,-0.07 9,-0.07 9,-0.06 9,-0.06 9,-0.06 9,-0.06 9,-0.06 9,-0.05 9,-0.05 9,-0.05 9,-0.05 9,-0.05 9,-0.04 9,-0.04 9,-0.04 9,-0.04 9,-0.04 9,-0.03 9,-0.04 9,-0.03 9,-0.03 9,-0.03 9,-0.03 9,-0.02 9,-0.03 9,-0.02 9,-0.03 9,-0.02 9,-0.02 9,-0.02 9,-0.02 9,-0.02 9,-0.02 9,-0.01 9,-0.02 9,-0.01 9,-0.02 9,-0.01 9,-0.01 9,-0.01 9,-0.01 9,-0.01 9,-0.01 9,-0.01 9,-0.01 9,-0.01 9,-0.01 h 9 9 l 9,-0.01 9,-0.01 h 9 l 9,-0.01 h 9 9 9 l 9,-0.01 h 9 9 l 9,-0.01 h 9 9 9 9 9 9 9 9 9 9 9 9 9 9 9 l 9,0.01 h 9 9 9 9 l 9,0.01 h 9 9 9 9 9 9 9 l 9,0.01 h 9 9 9 l 9,0.01 h 9 9 l 9,0.01 h 9 9 9 9 9 9 l 9,0.01 h 9 9 9 l 9,0.01 h 9 9 l 9,0.01 h 9 9 9 l 9,0.01 h 9 9 9 9 9 9 9 l 9,0.01 h 9 9 9 9 l 9,0.01 h 9 9 9 9 l 9,0.01 h 9 9 9 9 9 9 9 9 9 9 9 9 l 9,0.01 h 9 9 9 9 9 9 9 9 l 9,0.01 h 9 9 9 9 9 9 9 9 9 9 9 9 9 9 9 9 9 9 9 9 9 9 9 9 9 9 9 9 9 9 l 9,0.01 h 9 9 9 9 9 9 9 9 9 9 9 9 9 9 9 9 9 9 9 9 9 9 9 9 9 9 9 9 9 9 9 9 9 9 9 9 9 9 9 9 9 9 9 9 9 9 9 9 9 9 9 9 9 9 9 9 9 9 9 9 9 9 9 9 9 9 9 9 9 9 9 9 9 9 9 9 9 9 9 9 9 9 9 9 9 9 9 9 9 9 9 9 9 9 9 9 9 9 9 9 9 9 9 9 9 9 9 9 9 9 9 9 9 9 9 9 9 9 9 9 9 9 9 9 9 9 9 9 9 9 9 9 9 9 9 9 9 9 9 9 9 9 9 9 9 9 9 9 9 9 9 9 9 9 9 9 9 9 9 9"
         style="fill:none;stroke:#000000;stroke-width:15;stroke-linecap:butt;stroke-linejoin:round;stroke-miterlimit:10;stroke-dasharray:none;stroke-opacity:1"
         id="path4001"
         inkscape:connector-curvature="0" /><path
         d="M 1492.5,2482.5 H 2070 V 3315 h -577.5 z"
         style="fill:#ffffff;fill-opacity:1;fill-rule:nonzero;stroke:none"
         id="path4003"
         inkscape:connector-curvature="0" /><path
         d="m 1866.01,3083.5 c 3.04,-5.24 8.36,-7.86 15.94,-7.86 6.87,0 12.81,2.43 17.81,7.27 5,4.84 9.04,10.68 12.13,17.52 3.08,6.84 5.49,13.81 7.21,20.92 -6.41,-6.09 -13.4,-9.14 -20.98,-9.14 -5.71,0 -10.57,0.99 -14.6,2.99 -4.02,1.99 -7.14,4.96 -9.37,8.9 -2.23,3.95 -3.34,8.69 -3.34,14.24 0,4.76 0.63,9.64 1.88,14.64 1.25,5 3.02,10.56 5.33,16.65 2.3,6.09 4.32,11.41 6.03,15.94 1.88,5.31 2.82,9.69 2.82,13.12 0,4.3 -1.57,6.45 -4.69,6.45 -5.78,0 -10.53,-2.95 -14.24,-8.85 -3.71,-5.9 -6.46,-12.52 -8.26,-19.87 -0.23,-0.85 -0.82,-1.28 -1.76,-1.28 h -2.57 c -1.18,0 -1.77,0.66 -1.77,1.99 v 0.58 c 2.35,8.68 5.92,16.36 10.73,23.04 4.8,6.68 10.88,10.02 18.23,10.02 5.15,0 9.52,-1.7 13.12,-5.11 3.59,-3.39 5.38,-7.71 5.38,-12.95 0,-2.65 -0.58,-5.46 -1.75,-8.43 -0.71,-1.8 -2.19,-5.67 -4.46,-11.61 -2.26,-5.93 -3.98,-10.85 -5.15,-14.76 -1.17,-3.91 -2.15,-7.74 -2.93,-11.49 -0.78,-3.75 -1.17,-7.5 -1.17,-11.25 0,-4.84 1.01,-8.92 3.05,-12.24 2.02,-3.32 5.26,-4.98 9.72,-4.98 8.99,0 17.07,5.51 24.26,16.53 l 16.41,66.91 c 0.54,1.95 1.69,3.61 3.45,4.98 1.76,1.36 3.66,2.05 5.69,2.05 1.79,0 3.36,-0.57 4.69,-1.7 1.32,-1.13 1.98,-2.59 1.98,-4.39 0,-0.86 -0.07,-1.45 -0.23,-1.76 l -21.56,-86.49 c -1.96,-7.5 -5.47,-14.64 -10.55,-21.44 -5.08,-6.8 -11.21,-12.27 -18.39,-16.41 -7.19,-4.14 -14.69,-6.21 -22.5,-6.21 -3.75,0 -7.47,0.74 -11.14,2.23 -3.67,1.48 -6.64,3.67 -8.91,6.56 -2.26,2.89 -3.39,6.29 -3.39,10.19 0,3.91 1.17,7.32 3.51,10.26 2.34,2.93 5.43,4.39 9.26,4.39 2.35,0 4.32,-0.72 5.92,-2.17 1.6,-1.44 2.4,-3.34 2.4,-5.68 0,-3.35 -1.23,-6.26 -3.69,-8.73 -2.46,-2.46 -5.37,-3.69 -8.73,-3.69 -0.16,0.08 -0.29,0.12 -0.42,0.12 -0.11,0 -0.25,0 -0.4,0"
         style="fill:#000000;fill-opacity:1;fill-rule:nonzero;stroke:none"
         id="path4005"
         inkscape:connector-curvature="0" /><path
         d="m 1987.23,3079.91 c -5,0 -9.38,1.31 -13.13,3.93 -3.75,2.62 -6.62,6.13 -8.61,10.54 -1.99,4.42 -2.99,9.08 -2.99,14.01 0,7.5 1.89,14.55 5.68,21.15 3.79,6.6 8.91,11.87 15.36,15.82 6.44,3.94 13.34,5.92 20.68,5.92 4.53,0 8.48,-1.17 11.83,-3.51 3.36,-2.35 5.05,-5.71 5.05,-10.08 0,-6.02 -2.4,-10.49 -7.21,-13.42 -4.81,-2.93 -10.24,-4.75 -16.29,-5.45 -6.06,-0.7 -12.76,-1.05 -20.1,-1.05 h -0.46 c -1.73,-6.25 -2.59,-11.61 -2.59,-16.06 0,-4.69 1.1,-8.81 3.29,-12.36 2.18,-3.56 5.46,-5.33 9.84,-5.33 6.25,0 12.26,1.44 18.05,4.33 5.78,2.89 10.47,6.88 14.06,11.95 0.31,0.32 0.74,0.47 1.29,0.47 0.47,0 0.97,-0.29 1.52,-0.88 0.55,-0.58 0.82,-1.15 0.82,-1.7 0,-0.39 -0.07,-0.7 -0.23,-0.94 -3.91,-5.39 -9.11,-9.62 -15.59,-12.71 -6.48,-3.08 -13.24,-4.63 -20.27,-4.63 z m -9.26,41.96 c 6.1,0 11.74,0.27 16.94,0.82 5.19,0.54 9.88,1.95 14.06,4.21 4.18,2.27 6.27,5.83 6.27,10.67 0,1.95 -0.53,3.65 -1.58,5.09 -1.06,1.45 -2.45,2.56 -4.17,3.34 -1.72,0.79 -3.51,1.18 -5.39,1.18 -4.45,0 -8.45,-1.21 -12.01,-3.64 -3.55,-2.41 -6.48,-5.56 -8.79,-9.43 -2.3,-3.87 -4.08,-7.95 -5.33,-12.24"
         style="fill:#000000;fill-opacity:1;fill-rule:nonzero;stroke:none"
         id="path4007"
         inkscape:connector-curvature="0" /><path
         d="m 1522.73,3167.47 h 302.32"
         style="fill:none;stroke:#0072bd;stroke-width:15;stroke-linecap:butt;stroke-linejoin:round;stroke-miterlimit:10;stroke-dasharray:none;stroke-opacity:1"
         id="path4009"
         inkscape:connector-curvature="0" /><path
         d="m 1864.48,2849.7 c 0,0.86 0.08,1.48 0.24,1.87 l 16.29,64.93 c 1.02,3.98 1.53,7.5 1.53,10.55 0,6.25 -2.12,9.37 -6.34,9.37 -4.53,0 -7.89,-2.71 -10.07,-8.14 -2.19,-5.43 -4.34,-12.29 -6.45,-20.57 0,-0.39 -0.2,-0.71 -0.58,-0.94 -0.39,-0.23 -0.79,-0.35 -1.18,-0.35 h -2.57 c -0.47,0 -0.89,0.26 -1.23,0.76 -0.36,0.51 -0.54,1 -0.54,1.46 1.57,6.25 3.07,11.59 4.52,16 1.44,4.41 3.71,8.42 6.79,12.02 3.09,3.59 6.93,5.39 11.55,5.39 5,0 9.39,-1.45 13.18,-4.34 3.79,-2.89 6.15,-6.72 7.09,-11.49 3.67,4.85 7.85,8.69 12.54,11.55 4.69,2.85 9.85,4.28 15.47,4.28 4.61,0 8.67,-1.35 12.19,-4.05 3.51,-2.7 5.27,-6.35 5.27,-10.95 0,-3.68 -1.15,-6.88 -3.46,-9.62 -2.3,-2.73 -5.37,-4.1 -9.2,-4.1 -2.34,0 -4.31,0.74 -5.92,2.23 -1.6,1.48 -2.4,3.4 -2.4,5.74 0,3.13 1.18,5.96 3.52,8.5 2.34,2.54 5.04,3.81 8.08,3.81 -2.34,1.87 -5.19,2.81 -8.55,2.81 -6.17,0 -11.56,-2.21 -16.17,-6.62 -4.61,-4.41 -8.75,-10.02 -12.42,-16.82 l -15.59,-62.22 c -0.47,-2.04 -1.56,-3.76 -3.28,-5.16 -1.72,-1.41 -3.67,-2.11 -5.86,-2.11 -1.72,0 -3.22,0.57 -4.52,1.7 -1.28,1.13 -1.93,2.63 -1.93,4.51"
         style="fill:#000000;fill-opacity:1;fill-rule:nonzero;stroke:none"
         id="path4011"
         inkscape:connector-curvature="0" /><path
         d="m 1522.73,2898.75 h 302.32"
         style="fill:none;stroke:#ff0000;stroke-width:15;stroke-linecap:butt;stroke-linejoin:round;stroke-miterlimit:10;stroke-dasharray:none;stroke-opacity:1"
         id="path4013"
         inkscape:connector-curvature="0" /><path
         d="m 1866.01,2546.06 c 3.04,-5.23 8.36,-7.85 15.94,-7.85 6.87,0 12.81,2.42 17.81,7.27 5,4.84 9.04,10.68 12.13,17.52 3.08,6.83 5.49,13.8 7.21,20.91 -6.41,-6.09 -13.4,-9.14 -20.98,-9.14 -5.71,0 -10.57,1 -14.6,2.99 -4.02,1.99 -7.14,4.96 -9.37,8.91 -2.23,3.94 -3.34,8.69 -3.34,14.23 0,4.77 0.63,9.65 1.88,14.65 1.25,5 3.02,10.55 5.33,16.64 2.3,6.1 4.32,11.41 6.03,15.94 1.88,5.32 2.82,9.69 2.82,13.12 0,4.3 -1.57,6.45 -4.69,6.45 -5.78,0 -10.53,-2.95 -14.24,-8.84 -3.71,-5.91 -6.46,-12.53 -8.26,-19.87 -0.23,-0.86 -0.82,-1.29 -1.76,-1.29 h -2.57 c -1.18,0 -1.77,0.67 -1.77,1.99 v 0.59 c 2.35,8.67 5.92,16.35 10.73,23.03 4.8,6.68 10.88,10.02 18.23,10.02 5.15,0 9.52,-1.7 13.12,-5.1 3.59,-3.4 5.38,-7.72 5.38,-12.95 0,-2.66 -0.58,-5.47 -1.75,-8.44 -0.71,-1.8 -2.19,-5.66 -4.46,-11.6 -2.26,-5.94 -3.98,-10.86 -5.15,-14.76 -1.17,-3.91 -2.15,-7.74 -2.93,-11.49 -0.78,-3.75 -1.17,-7.5 -1.17,-11.25 0,-4.84 1.01,-8.92 3.05,-12.24 2.02,-3.32 5.26,-4.98 9.72,-4.98 8.99,0 17.07,5.5 24.26,16.52 l 16.41,66.91 c 0.54,1.95 1.69,3.61 3.45,4.98 1.76,1.37 3.66,2.05 5.69,2.05 1.79,0 3.36,-0.56 4.69,-1.69 1.32,-1.14 1.98,-2.6 1.98,-4.4 0,-0.86 -0.07,-1.44 -0.23,-1.76 l -21.56,-86.48 c -1.96,-7.5 -5.47,-14.65 -10.55,-21.45 -5.08,-6.8 -11.21,-12.27 -18.39,-16.41 -7.19,-4.14 -14.69,-6.2 -22.5,-6.2 -3.75,0 -7.47,0.74 -11.14,2.22 -3.67,1.49 -6.64,3.67 -8.91,6.57 -2.26,2.89 -3.39,6.28 -3.39,10.19 0,3.9 1.17,7.32 3.51,10.25 2.34,2.93 5.43,4.39 9.26,4.39 2.35,0 4.32,-0.72 5.92,-2.16 1.6,-1.45 2.4,-3.34 2.4,-5.69 0,-3.35 -1.23,-6.26 -3.69,-8.73 -2.46,-2.46 -5.37,-3.69 -8.73,-3.69 -0.16,0.08 -0.29,0.12 -0.42,0.12 -0.11,0 -0.25,0 -0.4,0"
         style="fill:#000000;fill-opacity:1;fill-rule:nonzero;stroke:none"
         id="path4015"
         inkscape:connector-curvature="0" /><path
         d="m 1522.73,2630.03 h 302.32"
         style="fill:none;stroke:#000000;stroke-width:15;stroke-linecap:butt;stroke-linejoin:round;stroke-miterlimit:10;stroke-dasharray:none;stroke-opacity:1"
         id="path4017"
         inkscape:connector-curvature="0" /><path
         d="M 1492.5,2482.5 H 2070 V 3315 h -577.5 z"
         style="fill:none;stroke:#262626;stroke-width:5.00250006;stroke-linecap:butt;stroke-linejoin:miter;stroke-miterlimit:10;stroke-dasharray:none;stroke-opacity:1"
         id="path4019"
         inkscape:connector-curvature="0" /></g></g></svg>