<?xml version="1.0" encoding="UTF-8" standalone="no"?>
<svg
   xmlns:dc="http://purl.org/dc/elements/1.1/"
   xmlns:cc="http://creativecommons.org/ns#"
   xmlns:rdf="http://www.w3.org/1999/02/22-rdf-syntax-ns#"
   xmlns:svg="http://www.w3.org/2000/svg"
   xmlns="http://www.w3.org/2000/svg"
   viewBox="0 0 1200 500"
   height="500"
   width="1200"
   xml:space="preserve"
   id="svg2"
   version="1.1"><metadata
     id="metadata8"><rdf:RDF><cc:Work
         rdf:about=""><dc:format>image/svg+xml</dc:format><dc:type
           rdf:resource="http://purl.org/dc/dcmitype/StillImage" /></cc:Work></rdf:RDF></metadata><defs
     id="defs6" /><g
     transform="matrix(1.3333333,0,0,-1.3333333,0,500)"
     id="g10"><g
       transform="scale(0.1)"
       id="g12"><path
         id="path14"
         style="fill:#ffffff;fill-opacity:1;fill-rule:nonzero;stroke:none"
         d="M 0,0 H 9000 V 3750 H 0 Z" /><path
         id="path16"
         style="fill:#ffffff;fill-opacity:1;fill-rule:nonzero;stroke:none"
         d="M 0,0 H 9000 V 3750 H 0 Z" /><path
         id="path18"
         style="fill:#ffffff;fill-opacity:1;fill-rule:nonzero;stroke:none"
         d="M 1395,600 H 8595 V 3412.5 H 1395 Z" /><path
         id="path20"
         style="fill:none;stroke:#262626;stroke-width:5.00250006;stroke-linecap:square;stroke-linejoin:round;stroke-miterlimit:10;stroke-dasharray:none;stroke-opacity:1"
         d="M 1395,600 H 8595" /><path
         id="path22"
         style="fill:none;stroke:#262626;stroke-width:5.00250006;stroke-linecap:square;stroke-linejoin:round;stroke-miterlimit:10;stroke-dasharray:none;stroke-opacity:1"
         d="M 1395,3412.5 H 8595" /><path
         id="path24"
         style="fill:none;stroke:#262626;stroke-width:5.00250006;stroke-linecap:square;stroke-linejoin:round;stroke-miterlimit:10;stroke-dasharray:none;stroke-opacity:1"
         d="m 1395,600 v 72" /><path
         id="path26"
         style="fill:none;stroke:#262626;stroke-width:5.00250006;stroke-linecap:square;stroke-linejoin:round;stroke-miterlimit:10;stroke-dasharray:none;stroke-opacity:1"
         d="m 2115,600 v 72" /><path
         id="path28"
         style="fill:none;stroke:#262626;stroke-width:5.00250006;stroke-linecap:square;stroke-linejoin:round;stroke-miterlimit:10;stroke-dasharray:none;stroke-opacity:1"
         d="m 2835,600 v 72" /><path
         id="path30"
         style="fill:none;stroke:#262626;stroke-width:5.00250006;stroke-linecap:square;stroke-linejoin:round;stroke-miterlimit:10;stroke-dasharray:none;stroke-opacity:1"
         d="m 3555,600 v 72" /><path
         id="path32"
         style="fill:none;stroke:#262626;stroke-width:5.00250006;stroke-linecap:square;stroke-linejoin:round;stroke-miterlimit:10;stroke-dasharray:none;stroke-opacity:1"
         d="m 4275,600 v 72" /><path
         id="path34"
         style="fill:none;stroke:#262626;stroke-width:5.00250006;stroke-linecap:square;stroke-linejoin:round;stroke-miterlimit:10;stroke-dasharray:none;stroke-opacity:1"
         d="m 4995,600 v 72" /><path
         id="path36"
         style="fill:none;stroke:#262626;stroke-width:5.00250006;stroke-linecap:square;stroke-linejoin:round;stroke-miterlimit:10;stroke-dasharray:none;stroke-opacity:1"
         d="m 5715,600 v 72" /><path
         id="path38"
         style="fill:none;stroke:#262626;stroke-width:5.00250006;stroke-linecap:square;stroke-linejoin:round;stroke-miterlimit:10;stroke-dasharray:none;stroke-opacity:1"
         d="m 6435,600 v 72" /><path
         id="path40"
         style="fill:none;stroke:#262626;stroke-width:5.00250006;stroke-linecap:square;stroke-linejoin:round;stroke-miterlimit:10;stroke-dasharray:none;stroke-opacity:1"
         d="m 7155,600 v 72" /><path
         id="path42"
         style="fill:none;stroke:#262626;stroke-width:5.00250006;stroke-linecap:square;stroke-linejoin:round;stroke-miterlimit:10;stroke-dasharray:none;stroke-opacity:1"
         d="m 7875,600 v 72" /><path
         id="path44"
         style="fill:none;stroke:#262626;stroke-width:5.00250006;stroke-linecap:square;stroke-linejoin:round;stroke-miterlimit:10;stroke-dasharray:none;stroke-opacity:1"
         d="m 8595,600 v 72" /><path
         id="path46"
         style="fill:none;stroke:#262626;stroke-width:5.00250006;stroke-linecap:square;stroke-linejoin:round;stroke-miterlimit:10;stroke-dasharray:none;stroke-opacity:1"
         d="m 1395,3412.5 v -72" /><path
         id="path48"
         style="fill:none;stroke:#262626;stroke-width:5.00250006;stroke-linecap:square;stroke-linejoin:round;stroke-miterlimit:10;stroke-dasharray:none;stroke-opacity:1"
         d="m 2115,3412.5 v -72" /><path
         id="path50"
         style="fill:none;stroke:#262626;stroke-width:5.00250006;stroke-linecap:square;stroke-linejoin:round;stroke-miterlimit:10;stroke-dasharray:none;stroke-opacity:1"
         d="m 2835,3412.5 v -72" /><path
         id="path52"
         style="fill:none;stroke:#262626;stroke-width:5.00250006;stroke-linecap:square;stroke-linejoin:round;stroke-miterlimit:10;stroke-dasharray:none;stroke-opacity:1"
         d="m 3555,3412.5 v -72" /><path
         id="path54"
         style="fill:none;stroke:#262626;stroke-width:5.00250006;stroke-linecap:square;stroke-linejoin:round;stroke-miterlimit:10;stroke-dasharray:none;stroke-opacity:1"
         d="m 4275,3412.5 v -72" /><path
         id="path56"
         style="fill:none;stroke:#262626;stroke-width:5.00250006;stroke-linecap:square;stroke-linejoin:round;stroke-miterlimit:10;stroke-dasharray:none;stroke-opacity:1"
         d="m 4995,3412.5 v -72" /><path
         id="path58"
         style="fill:none;stroke:#262626;stroke-width:5.00250006;stroke-linecap:square;stroke-linejoin:round;stroke-miterlimit:10;stroke-dasharray:none;stroke-opacity:1"
         d="m 5715,3412.5 v -72" /><path
         id="path60"
         style="fill:none;stroke:#262626;stroke-width:5.00250006;stroke-linecap:square;stroke-linejoin:round;stroke-miterlimit:10;stroke-dasharray:none;stroke-opacity:1"
         d="m 6435,3412.5 v -72" /><path
         id="path62"
         style="fill:none;stroke:#262626;stroke-width:5.00250006;stroke-linecap:square;stroke-linejoin:round;stroke-miterlimit:10;stroke-dasharray:none;stroke-opacity:1"
         d="m 7155,3412.5 v -72" /><path
         id="path64"
         style="fill:none;stroke:#262626;stroke-width:5.00250006;stroke-linecap:square;stroke-linejoin:round;stroke-miterlimit:10;stroke-dasharray:none;stroke-opacity:1"
         d="m 7875,3412.5 v -72" /><path
         id="path66"
         style="fill:none;stroke:#262626;stroke-width:5.00250006;stroke-linecap:square;stroke-linejoin:round;stroke-miterlimit:10;stroke-dasharray:none;stroke-opacity:1"
         d="m 8595,3412.5 v -72" /><g
         transform="scale(10)"
         id="g68"><text
           id="text72"
           style="font-variant:normal;font-weight:normal;font-size:20.00020027px;font-family:Helvetica;-inkscape-font-specification:Helvetica;writing-mode:lr-tb;fill:#262626;fill-opacity:1;fill-rule:nonzero;stroke:none"
           transform="matrix(1,0,0,-1,133.5,33)"><tspan
             id="tspan70"
             y="0"
             x="0 71.999718 143.99944 215.99916 287.99887 359.99881 431.99872 503.99863 575.99854 647.99847 714.37335 725.49347">012345678910</tspan></text>
<text
           id="text76"
           style="font-variant:normal;font-weight:normal;font-size:21.99970055px;font-family:Helvetica;-inkscape-font-specification:Helvetica;writing-mode:lr-tb;fill:#262626;fill-opacity:1;fill-rule:nonzero;stroke:none"
           transform="matrix(1,0,0,-1,449.625,5)"><tspan
             id="tspan74"
             y="0"
             x="0 13.441816 25.673651 43.999401 56.231232 68.463066 74.578979 81.904884 92.904732">Tempo (s)</tspan></text>
</g><path
         id="path78"
         style="fill:none;stroke:#262626;stroke-width:5.00250006;stroke-linecap:square;stroke-linejoin:round;stroke-miterlimit:10;stroke-dasharray:none;stroke-opacity:1"
         d="M 1395,600 V 3412.5" /><path
         id="path80"
         style="fill:none;stroke:#262626;stroke-width:5.00250006;stroke-linecap:square;stroke-linejoin:round;stroke-miterlimit:10;stroke-dasharray:none;stroke-opacity:1"
         d="M 8595,600 V 3412.5" /><path
         id="path82"
         style="fill:none;stroke:#262626;stroke-width:5.00250006;stroke-linecap:square;stroke-linejoin:round;stroke-miterlimit:10;stroke-dasharray:none;stroke-opacity:1"
         d="m 1395,657.105 h 72" /><path
         id="path84"
         style="fill:none;stroke:#262626;stroke-width:5.00250006;stroke-linecap:square;stroke-linejoin:round;stroke-miterlimit:10;stroke-dasharray:none;stroke-opacity:1"
         d="m 1395,1105.4 h 72" /><path
         id="path86"
         style="fill:none;stroke:#262626;stroke-width:5.00250006;stroke-linecap:square;stroke-linejoin:round;stroke-miterlimit:10;stroke-dasharray:none;stroke-opacity:1"
         d="m 1395,1553.7 h 72" /><path
         id="path88"
         style="fill:none;stroke:#262626;stroke-width:5.00250006;stroke-linecap:square;stroke-linejoin:round;stroke-miterlimit:10;stroke-dasharray:none;stroke-opacity:1"
         d="m 1395,2002 h 72" /><path
         id="path90"
         style="fill:none;stroke:#262626;stroke-width:5.00250006;stroke-linecap:square;stroke-linejoin:round;stroke-miterlimit:10;stroke-dasharray:none;stroke-opacity:1"
         d="m 1395,2450.3 h 72" /><path
         id="path92"
         style="fill:none;stroke:#262626;stroke-width:5.00250006;stroke-linecap:square;stroke-linejoin:round;stroke-miterlimit:10;stroke-dasharray:none;stroke-opacity:1"
         d="m 1395,2898.6 h 72" /><path
         id="path94"
         style="fill:none;stroke:#262626;stroke-width:5.00250006;stroke-linecap:square;stroke-linejoin:round;stroke-miterlimit:10;stroke-dasharray:none;stroke-opacity:1"
         d="m 1395,3346.91 h 72" /><path
         id="path96"
         style="fill:none;stroke:#262626;stroke-width:5.00250006;stroke-linecap:square;stroke-linejoin:round;stroke-miterlimit:10;stroke-dasharray:none;stroke-opacity:1"
         d="m 8595,657.105 h -72" /><path
         id="path98"
         style="fill:none;stroke:#262626;stroke-width:5.00250006;stroke-linecap:square;stroke-linejoin:round;stroke-miterlimit:10;stroke-dasharray:none;stroke-opacity:1"
         d="m 8595,1105.4 h -72" /><path
         id="path100"
         style="fill:none;stroke:#262626;stroke-width:5.00250006;stroke-linecap:square;stroke-linejoin:round;stroke-miterlimit:10;stroke-dasharray:none;stroke-opacity:1"
         d="m 8595,1553.7 h -72" /><path
         id="path102"
         style="fill:none;stroke:#262626;stroke-width:5.00250006;stroke-linecap:square;stroke-linejoin:round;stroke-miterlimit:10;stroke-dasharray:none;stroke-opacity:1"
         d="m 8595,2002 h -72" /><path
         id="path104"
         style="fill:none;stroke:#262626;stroke-width:5.00250006;stroke-linecap:square;stroke-linejoin:round;stroke-miterlimit:10;stroke-dasharray:none;stroke-opacity:1"
         d="m 8595,2450.3 h -72" /><path
         id="path106"
         style="fill:none;stroke:#262626;stroke-width:5.00250006;stroke-linecap:square;stroke-linejoin:round;stroke-miterlimit:10;stroke-dasharray:none;stroke-opacity:1"
         d="m 8595,2898.6 h -72" /><path
         id="path108"
         style="fill:none;stroke:#262626;stroke-width:5.00250006;stroke-linecap:square;stroke-linejoin:round;stroke-miterlimit:10;stroke-dasharray:none;stroke-opacity:1"
         d="m 8595,3346.91 h -72" /><g
         transform="scale(10)"
         id="g110"><text
           id="text126"
           style="font-variant:normal;font-weight:normal;font-size:20.00020027px;font-family:Helvetica;-inkscape-font-specification:Helvetica;writing-mode:lr-tb;fill:#262626;fill-opacity:1;fill-rule:nonzero;stroke:none"
           transform="matrix(1,0,0,-1,110.25,57.4602)"><tspan
             id="tspan112"
             y="0"
             x="0 11.120111">30</tspan><tspan
             id="tspan114"
             y="-44.830101"
             x="0 11.120111">32</tspan><tspan
             id="tspan116"
             y="-89.660202"
             x="0 11.120111">34</tspan><tspan
             id="tspan118"
             y="-134.4903"
             x="0 11.120111">36</tspan><tspan
             id="tspan120"
             y="-179.3204"
             x="0 11.120111">38</tspan><tspan
             id="tspan122"
             y="-224.1501"
             x="0 11.120111">40</tspan><tspan
             id="tspan124"
             y="-268.98019"
             x="0 11.120111">42</tspan></text>
<text
           id="text130"
           style="font-variant:normal;font-weight:normal;font-size:21.99970055px;font-family:Helvetica;-inkscape-font-specification:Helvetica;writing-mode:lr-tb;fill:#262626;fill-opacity:1;fill-rule:nonzero;stroke:none"
           transform="matrix(0,1,1,0,102,147.375)"><tspan
             id="tspan128"
             y="0"
             x="0 14.6738 19.557734 25.673651 37.905483 45.231384 57.463215 63.579132 70.905029 81.904884 100.23064">Altura (cm)</tspan></text>
</g><path
         id="path132"
         style="fill:#000000;fill-opacity:1;fill-rule:nonzero;stroke:none"
         d="m 2337.82,3532.95 v 7.62 c 14.92,0 22.38,2.31 22.38,6.91 v 119.53 c 0,4.61 -7.46,6.92 -22.38,6.92 v 7.62 h 68.21 c 8.2,0 16.77,-1.47 25.72,-4.4 8.94,-2.93 16.42,-7.4 22.43,-13.42 6.02,-6.02 9.03,-13.2 9.03,-21.56 0,-6.09 -1.81,-11.54 -5.45,-16.35 -3.63,-4.8 -8.3,-8.81 -14,-12.01 -5.71,-3.2 -11.53,-5.51 -17.46,-6.92 6.49,-2.26 12.17,-5.87 17.05,-10.84 4.88,-4.96 7.83,-10.64 8.85,-17.04 l 3.04,-19.34 c 1.41,-8.67 2.89,-15.16 4.46,-19.45 1.56,-4.3 5,-6.45 10.31,-6.45 4.53,0 7.91,2.11 10.13,6.33 2.23,4.22 3.35,8.83 3.35,13.83 0,0.47 0.23,0.9 0.69,1.29 0.48,0.39 0.95,0.58 1.41,0.58 h 2 c 1.41,0 2.11,-0.98 2.11,-2.93 0,-3.91 -0.77,-7.75 -2.29,-11.54 -1.52,-3.79 -3.77,-6.94 -6.73,-9.44 -2.98,-2.5 -6.45,-3.75 -10.44,-3.75 -10.47,0 -19.47,2.6 -27.01,7.8 -7.54,5.2 -11.3,12.83 -11.3,22.91 v 19.33 c 0,7.27 -2.52,13.48 -7.57,18.64 -5.04,5.16 -11.19,7.73 -18.45,7.73 h -26.13 v -57.07 c 0,-4.6 7.46,-6.91 22.38,-6.91 v -7.62 z m 41.96,77.23 h 23.2 c 12.03,0 21.19,2.42 27.47,7.27 6.3,4.84 9.44,13.08 9.44,24.72 0,11.48 -3.1,19.65 -9.32,24.49 -6.21,4.84 -15.41,7.27 -27.59,7.27 h -12.19 c -2.66,0 -4.71,-0.12 -6.15,-0.36 -1.45,-0.23 -2.62,-0.86 -3.52,-1.87 -0.89,-1.02 -1.34,-2.58 -1.34,-4.69 v -56.83" /><path
         id="path134"
         style="fill:#000000;fill-opacity:1;fill-rule:nonzero;stroke:none"
         d="m 2546.64,3530.49 c -8.83,0 -16.93,2.33 -24.32,6.97 -7.38,4.65 -13.18,10.84 -17.4,18.58 -4.22,7.73 -6.33,15.93 -6.33,24.6 0,8.52 1.92,16.59 5.75,24.2 3.82,7.62 9.19,13.79 16.11,18.52 6.91,4.73 14.63,7.09 23.14,7.09 6.64,0 12.43,-1.11 17.35,-3.34 4.92,-2.23 8.98,-5.33 12.19,-9.31 3.2,-3.99 5.6,-8.66 7.21,-14.01 1.59,-5.35 2.39,-11.27 2.39,-17.75 0,-1.88 -0.74,-2.82 -2.22,-2.82 h -62.94 v -2.34 c 0,-12.03 2.43,-22.36 7.27,-30.99 4.85,-8.64 12.78,-12.96 23.79,-12.96 4.46,0 8.58,0.98 12.36,2.93 3.79,1.96 7.08,4.71 9.85,8.27 2.77,3.55 4.67,7.36 5.68,11.42 0.16,0.47 0.43,0.9 0.82,1.29 0.39,0.39 0.82,0.59 1.29,0.59 h 1.88 c 1.48,0 2.22,-0.94 2.22,-2.82 -2.02,-8.2 -6.44,-14.94 -13.24,-20.21 -6.79,-5.27 -14.41,-7.91 -22.85,-7.91 z m -28.82,58.12 h 49.56 c 0,5.48 -0.76,11 -2.29,16.59 -1.52,5.58 -4.05,10.23 -7.61,13.94 -3.55,3.71 -8.18,5.57 -13.89,5.57 -8.2,0 -14.54,-3.85 -19.04,-11.55 -4.49,-7.69 -6.73,-15.87 -6.73,-24.55" /><path
         id="path136"
         style="fill:#000000;fill-opacity:1;fill-rule:nonzero;stroke:none"
         d="m 2597.54,3532.36 v 35.4 c 0,1.17 0.62,1.75 1.87,1.75 h 2.7 c 0.78,0 1.33,-0.58 1.65,-1.75 4.06,-21.02 13.82,-31.53 29.29,-31.53 6.88,0 12.64,1.57 17.29,4.69 4.64,3.13 6.97,7.93 6.97,14.41 0,4.69 -1.82,8.67 -5.45,11.96 -3.63,3.28 -7.91,5.54 -12.83,6.79 l -14.53,2.81 c -4.93,1.1 -9.38,2.74 -13.36,4.93 -3.99,2.18 -7.25,5.09 -9.79,8.73 -2.54,3.63 -3.81,7.87 -3.81,12.71 0,6.41 1.68,11.64 5.04,15.71 3.36,4.06 7.72,6.99 13.07,8.79 5.35,1.79 11.15,2.69 17.4,2.69 7.42,0 13.91,-1.99 19.46,-5.98 l 6.32,5.39 c 0,0.39 0.35,0.59 1.06,0.59 h 1.52 c 0.47,0 0.88,-0.2 1.23,-0.59 0.35,-0.38 0.52,-0.77 0.52,-1.16 v -28.48 c 0,-1.41 -0.58,-2.11 -1.75,-2.11 h -2.58 c -1.33,0 -1.99,0.7 -1.99,2.11 0,7.57 -2.11,13.65 -6.33,18.22 -4.22,4.57 -10.12,6.86 -17.69,6.86 -6.48,0 -12.11,-1.19 -16.87,-3.58 -4.77,-2.38 -7.16,-6.51 -7.16,-12.36 0,-4.06 1.72,-7.39 5.16,-9.97 3.44,-2.57 7.46,-4.45 12.07,-5.62 l 14.64,-2.7 c 5,-1.16 9.66,-3.1 13.95,-5.79 4.3,-2.7 7.7,-6.1 10.2,-10.2 2.5,-4.1 3.75,-8.73 3.75,-13.88 0,-5.24 -0.9,-9.79 -2.7,-13.66 -1.79,-3.87 -4.31,-7.07 -7.56,-9.61 -3.23,-2.54 -7.04,-4.41 -11.42,-5.63 -4.37,-1.21 -8.98,-1.81 -13.83,-1.81 -9.06,0 -16.8,3.05 -23.2,9.14 l -7.97,-8.56 c 0,-0.39 -0.39,-0.58 -1.17,-0.58 h -1.3 c -1.25,0 -1.87,0.62 -1.87,1.87" /><path
         id="path138"
         style="fill:#000000;fill-opacity:1;fill-rule:nonzero;stroke:none"
         d="m 2682.68,3490.76 v 7.62 c 4.92,0 8.98,0.41 12.19,1.23 3.2,0.82 4.81,2.72 4.81,5.69 v 104.88 c 0,3.98 -1.41,6.46 -4.23,7.44 -2.81,0.97 -7.06,1.46 -12.77,1.46 v 7.62 l 32.23,2.35 v -13.48 c 3.9,4.38 8.49,7.72 13.77,10.02 5.27,2.3 10.92,3.46 16.93,3.46 8.52,0 16.21,-2.33 23.09,-6.98 6.87,-4.65 12.24,-10.74 16.11,-18.28 3.87,-7.54 5.8,-15.49 5.8,-23.84 0,-8.84 -2.15,-17.04 -6.45,-24.62 -4.29,-7.58 -10.13,-13.61 -17.52,-18.1 -7.38,-4.5 -15.52,-6.74 -24.43,-6.74 -10.55,0 -19.45,4.3 -26.72,12.89 v -38.08 c 0,-2.97 1.62,-4.87 4.87,-5.69 3.24,-0.82 7.28,-1.23 12.13,-1.23 v -7.62 z m 32.81,63.29 c 2.58,-5.16 6.14,-9.42 10.67,-12.78 4.53,-3.36 9.49,-5.04 14.88,-5.04 5,0 9.43,1.35 13.3,4.05 3.87,2.69 7.11,6.31 9.73,10.83 2.61,4.53 4.53,9.3 5.74,14.3 1.21,5 1.81,9.84 1.81,14.54 0,5.78 -1.03,12.05 -3.1,18.8 -2.07,6.76 -5.25,12.46 -9.55,17.11 -4.29,4.65 -9.49,6.97 -15.58,6.97 -5.87,0 -11.25,-1.5 -16.18,-4.51 -4.92,-3.01 -8.83,-7.09 -11.72,-12.25 v -52.02" /><path
         id="path140"
         style="fill:#000000;fill-opacity:1;fill-rule:nonzero;stroke:none"
         d="m 2859.76,3530.49 c -8.67,0 -16.73,2.21 -24.19,6.62 -7.47,4.42 -13.35,10.35 -17.64,17.82 -4.3,7.46 -6.45,15.56 -6.45,24.31 0,6.64 1.18,13.05 3.52,19.22 2.34,6.17 5.74,11.68 10.2,16.52 4.44,4.84 9.6,8.63 15.46,11.37 5.86,2.73 12.23,4.1 19.1,4.1 8.91,0 17.03,-2.36 24.38,-7.09 7.34,-4.73 13.15,-11.04 17.41,-18.93 4.25,-7.89 6.38,-16.29 6.38,-25.19 0,-8.67 -2.17,-16.76 -6.5,-24.26 -4.34,-7.5 -10.2,-13.45 -17.59,-17.87 -7.38,-4.41 -15.4,-6.62 -24.08,-6.62 z m 0,6.44 c 11.64,0 19.4,4.2 23.27,12.6 3.86,8.4 5.79,19.13 5.79,32.17 0,7.26 -0.39,13.3 -1.16,18.1 -0.78,4.81 -2.46,9.16 -5.05,13.07 -1.63,2.34 -3.7,4.43 -6.2,6.27 -2.5,1.84 -5.16,3.22 -7.98,4.16 -2.81,0.94 -5.7,1.41 -8.67,1.41 -4.53,0 -8.83,-1.04 -12.89,-3.11 -4.06,-2.07 -7.46,-4.98 -10.19,-8.73 -2.66,-4.14 -4.36,-8.67 -5.1,-13.59 -0.74,-4.92 -1.11,-10.78 -1.11,-17.58 0,-8.13 0.7,-15.43 2.1,-21.91 1.41,-6.49 4.26,-11.92 8.56,-16.29 4.3,-4.38 10.51,-6.57 18.63,-6.57" /><path
         id="path142"
         style="fill:#000000;fill-opacity:1;fill-rule:nonzero;stroke:none"
         d="m 2922.66,3532.36 v 35.4 c 0,1.17 0.62,1.75 1.87,1.75 h 2.7 c 0.77,0 1.32,-0.58 1.64,-1.75 4.06,-21.02 13.82,-31.53 29.29,-31.53 6.88,0 12.64,1.57 17.29,4.69 4.64,3.13 6.97,7.93 6.97,14.41 0,4.69 -1.82,8.67 -5.45,11.96 -3.63,3.28 -7.91,5.54 -12.83,6.79 l -14.53,2.81 c -4.93,1.1 -9.38,2.74 -13.36,4.93 -3.99,2.18 -7.25,5.09 -9.78,8.73 -2.54,3.63 -3.81,7.87 -3.81,12.71 0,6.41 1.68,11.64 5.04,15.71 3.35,4.06 7.71,6.99 13.06,8.79 5.35,1.79 11.15,2.69 17.4,2.69 7.42,0 13.91,-1.99 19.46,-5.98 l 6.33,5.39 c 0,0.39 0.35,0.59 1.05,0.59 h 1.52 c 0.47,0 0.88,-0.2 1.23,-0.59 0.36,-0.38 0.53,-0.77 0.53,-1.16 v -28.48 c 0,-1.41 -0.58,-2.11 -1.76,-2.11 h -2.57 c -1.33,0 -2,0.7 -2,2.11 0,7.57 -2.11,13.65 -6.33,18.22 -4.22,4.57 -10.12,6.86 -17.69,6.86 -6.48,0 -12.11,-1.19 -16.88,-3.58 -4.76,-2.38 -7.14,-6.51 -7.14,-12.36 0,-4.06 1.72,-7.39 5.15,-9.97 3.44,-2.57 7.46,-4.45 12.08,-5.62 l 14.64,-2.7 c 5,-1.16 9.65,-3.1 13.95,-5.79 4.29,-2.7 7.69,-6.1 10.19,-10.2 2.5,-4.1 3.75,-8.73 3.75,-13.88 0,-5.24 -0.9,-9.79 -2.69,-13.66 -1.8,-3.87 -4.32,-7.07 -7.57,-9.61 -3.23,-2.54 -7.04,-4.41 -11.42,-5.63 -4.37,-1.21 -8.98,-1.81 -13.83,-1.81 -9.06,0 -16.79,3.05 -23.2,9.14 l -7.97,-8.56 c 0,-0.39 -0.39,-0.58 -1.17,-0.58 h -1.29 c -1.25,0 -1.87,0.62 -1.87,1.87" /><path
         id="path144"
         style="fill:#000000;fill-opacity:1;fill-rule:nonzero;stroke:none"
         d="m 3024.31,3559.08 v 60 h -18.04 v 5.63 c 9.53,0 16.52,4.43 20.98,13.3 4.45,8.87 6.68,18.45 6.68,28.77 h 6.21 v -40.08 h 30.7 v -7.62 h -30.7 v -59.53 c 0,-6.01 1.01,-11.28 3.04,-15.82 2.03,-4.53 5.66,-6.8 10.9,-6.8 5,0 8.6,2.39 10.78,7.15 2.19,4.77 3.28,9.93 3.28,15.47 v 12.77 h 6.21 v -13.24 c 0,-4.53 -0.82,-9 -2.46,-13.42 -1.64,-4.41 -4.1,-8.04 -7.38,-10.89 -3.28,-2.86 -7.26,-4.28 -11.95,-4.28 -8.67,0 -15.55,2.6 -20.63,7.79 -5.08,5.2 -7.62,12.13 -7.62,20.8" /><path
         id="path146"
         style="fill:#000000;fill-opacity:1;fill-rule:nonzero;stroke:none"
         d="m 3096.39,3554.28 c 0,8.67 3.4,15.7 10.2,21.09 6.8,5.39 14.96,9.2 24.49,11.43 9.53,2.22 18.6,3.34 27.19,3.34 v 9.02 c 0,4.14 -0.92,8.18 -2.75,12.13 -1.84,3.94 -4.5,7.17 -7.97,9.67 -3.48,2.5 -7.33,3.75 -11.55,3.75 -9.61,0 -16.91,-2.15 -21.91,-6.45 2.73,0 5,-1.05 6.8,-3.16 1.79,-2.11 2.69,-4.53 2.69,-7.27 0,-2.89 -1.01,-5.37 -3.04,-7.44 -2.03,-2.07 -4.45,-3.1 -7.27,-3.1 -2.97,0 -5.47,1.03 -7.5,3.1 -2.03,2.07 -3.04,4.55 -3.04,7.44 0,7.66 3.45,13.35 10.37,17.06 6.91,3.7 14.54,5.56 22.9,5.56 5.94,0 11.88,-1.25 17.82,-3.75 5.93,-2.5 10.8,-6.09 14.59,-10.78 3.79,-4.69 5.68,-10.16 5.68,-16.41 v -48.98 c 0,-2.82 0.61,-5.41 1.82,-7.79 1.21,-2.39 3.07,-3.58 5.57,-3.58 2.41,0 4.21,1.21 5.39,3.64 1.17,2.42 1.75,5 1.75,7.73 v 13.94 h 6.33 v -13.94 c 0,-3.21 -0.84,-6.27 -2.52,-9.2 -1.68,-2.93 -3.96,-5.28 -6.85,-7.03 -2.89,-1.76 -5.98,-2.64 -9.26,-2.64 -4.3,0 -7.97,1.64 -11.02,4.92 -3.05,3.28 -4.76,7.19 -5.16,11.72 -2.65,-5.39 -6.59,-9.71 -11.83,-12.95 -5.24,-3.24 -10.86,-4.86 -16.88,-4.86 -5.47,0 -10.88,0.82 -16.23,2.46 -5.34,1.64 -9.82,4.22 -13.41,7.73 -3.6,3.52 -5.4,8.05 -5.4,13.6 z m 17.7,0 c 0,-5.08 1.87,-9.36 5.62,-12.83 3.75,-3.48 8.17,-5.22 13.25,-5.22 4.69,0 8.95,1.18 12.77,3.52 3.83,2.34 6.88,5.52 9.14,9.55 2.27,4.02 3.4,8.26 3.4,12.71 v 22.62 c -6.64,0 -13.4,-1.07 -20.27,-3.22 -6.88,-2.15 -12.58,-5.53 -17.11,-10.14 -4.53,-4.61 -6.8,-10.27 -6.8,-16.99" /><path
         id="path148"
         style="fill:#000000;fill-opacity:1;fill-rule:nonzero;stroke:none"
         d="m 3279.73,3554.28 c 0,8.67 3.4,15.7 10.2,21.09 6.79,5.39 14.95,9.2 24.48,11.43 9.54,2.22 18.6,3.34 27.19,3.34 v 9.02 c 0,4.14 -0.92,8.18 -2.75,12.13 -1.84,3.94 -4.49,7.17 -7.97,9.67 -3.48,2.5 -7.33,3.75 -11.54,3.75 -9.61,0 -16.91,-2.15 -21.91,-6.45 2.73,0 5,-1.05 6.79,-3.16 1.8,-2.11 2.69,-4.53 2.69,-7.27 0,-2.89 -1.01,-5.37 -3.04,-7.44 -2.03,-2.07 -4.46,-3.1 -7.27,-3.1 -2.96,0 -5.46,1.03 -7.5,3.1 -2.03,2.07 -3.05,4.55 -3.05,7.44 0,7.66 3.46,13.35 10.38,17.06 6.91,3.7 14.55,5.56 22.91,5.56 5.93,0 11.87,-1.25 17.81,-3.75 5.94,-2.5 10.8,-6.09 14.59,-10.78 3.79,-4.69 5.69,-10.16 5.69,-16.41 v -48.98 c 0,-2.82 0.6,-5.41 1.81,-7.79 1.21,-2.39 3.06,-3.58 5.56,-3.58 2.43,0 4.23,1.21 5.4,3.64 1.17,2.42 1.75,5 1.75,7.73 v 13.94 h 6.33 v -13.94 c 0,-3.21 -0.84,-6.27 -2.52,-9.2 -1.68,-2.93 -3.96,-5.28 -6.85,-7.03 -2.89,-1.76 -5.98,-2.64 -9.26,-2.64 -4.3,0 -7.97,1.64 -11.01,4.92 -3.05,3.28 -4.77,7.19 -5.16,11.72 -2.66,-5.39 -6.6,-9.71 -11.84,-12.95 -5.23,-3.24 -10.86,-4.86 -16.87,-4.86 -5.47,0 -10.88,0.82 -16.23,2.46 -5.36,1.64 -9.83,4.22 -13.42,7.73 -3.6,3.52 -5.39,8.05 -5.39,13.6 z m 17.7,0 c 0,-5.08 1.87,-9.36 5.62,-12.83 3.75,-3.48 8.16,-5.22 13.24,-5.22 4.69,0 8.95,1.18 12.78,3.52 3.82,2.34 6.87,5.52 9.13,9.55 2.27,4.02 3.4,8.26 3.4,12.71 v 22.62 c -6.64,0 -13.4,-1.07 -20.27,-3.22 -6.88,-2.15 -12.58,-5.53 -17.11,-10.14 -4.53,-4.61 -6.79,-10.27 -6.79,-16.99" /><path
         id="path150"
         style="fill:#000000;fill-opacity:1;fill-rule:nonzero;stroke:none"
         d="m 3435.43,3530.49 c -8.67,0 -16.73,2.21 -24.2,6.62 -7.46,4.42 -13.34,10.35 -17.63,17.82 -4.3,7.46 -6.45,15.56 -6.45,24.31 0,6.64 1.17,13.05 3.51,19.22 2.35,6.17 5.75,11.68 10.2,16.52 4.46,4.84 9.61,8.63 15.47,11.37 5.86,2.73 12.23,4.1 19.1,4.1 8.91,0 17.03,-2.36 24.38,-7.09 7.34,-4.73 13.14,-11.04 17.4,-18.93 4.26,-7.89 6.39,-16.29 6.39,-25.19 0,-8.67 -2.17,-16.76 -6.51,-24.26 -4.34,-7.5 -10.2,-13.45 -17.57,-17.87 -7.39,-4.41 -15.42,-6.62 -24.09,-6.62 z m 0,6.44 c 11.64,0 19.4,4.2 23.27,12.6 3.86,8.4 5.8,19.13 5.8,32.17 0,7.26 -0.39,13.3 -1.18,18.1 -0.78,4.81 -2.46,9.16 -5.03,13.07 -1.65,2.34 -3.72,4.43 -6.22,6.27 -2.5,1.84 -5.15,3.22 -7.97,4.16 -2.81,0.94 -5.7,1.41 -8.67,1.41 -4.53,0 -8.82,-1.04 -12.89,-3.11 -4.06,-2.07 -7.46,-4.98 -10.19,-8.73 -2.66,-4.14 -4.36,-8.67 -5.1,-13.59 -0.74,-4.92 -1.11,-10.78 -1.11,-17.58 0,-8.13 0.7,-15.43 2.11,-21.91 1.4,-6.49 4.25,-11.92 8.55,-16.29 4.3,-4.38 10.51,-6.57 18.63,-6.57" /><path
         id="path152"
         style="fill:#000000;fill-opacity:1;fill-rule:nonzero;stroke:none"
         d="m 3617.48,3530.49 c -8.59,0 -16.43,2.33 -23.5,6.97 -7.07,4.65 -12.56,10.76 -16.47,18.34 -3.9,7.58 -5.85,15.63 -5.85,24.15 0,8.75 2.13,16.89 6.39,24.43 4.25,7.53 10.07,13.53 17.45,17.98 7.39,4.46 15.49,6.69 24.32,6.69 5.32,0 10.34,-1.12 15.06,-3.35 4.73,-2.22 8.85,-5.33 12.36,-9.31 v 45.23 c 0,3.91 -0.58,6.74 -1.76,8.5 -1.16,1.76 -2.82,2.83 -4.98,3.22 -2.14,0.39 -5.52,0.59 -10.14,0.59 v 7.62 l 32.12,2.34 v -131.13 c 0,-3.83 0.59,-6.62 1.75,-8.38 1.18,-1.76 2.86,-2.83 5.04,-3.22 2.19,-0.39 5.55,-0.59 10.09,-0.59 v -7.62 l -32.82,-2.46 v 13.71 c -3.75,-4.29 -8.2,-7.65 -13.36,-10.08 -5.16,-2.42 -10.39,-3.63 -15.7,-3.63 z m -22.16,21.33 c 2.43,-4.69 5.71,-8.46 9.85,-11.31 4.14,-2.85 8.67,-4.28 13.59,-4.28 6.02,0 11.55,1.74 16.58,5.22 5.05,3.47 8.78,7.98 11.2,13.53 v 52.15 c -1.64,3.13 -3.75,5.96 -6.33,8.5 -2.58,2.53 -5.49,4.47 -8.73,5.8 -3.24,1.33 -6.66,1.99 -10.25,1.99 -7.58,0 -13.68,-2.15 -18.28,-6.45 -4.61,-4.29 -7.84,-9.76 -9.67,-16.4 -1.84,-6.64 -2.76,-13.59 -2.76,-20.86 0,-5.86 0.3,-10.94 0.88,-15.24 0.59,-4.29 1.9,-8.51 3.92,-12.65" /><path
         id="path154"
         style="fill:#000000;fill-opacity:1;fill-rule:nonzero;stroke:none"
         d="m 3740.76,3530.49 c -8.83,0 -16.94,2.33 -24.33,6.97 -7.38,4.65 -13.18,10.84 -17.39,18.58 -4.22,7.73 -6.34,15.93 -6.34,24.6 0,8.52 1.92,16.59 5.75,24.2 3.83,7.62 9.2,13.79 16.11,18.52 6.92,4.73 14.63,7.09 23.14,7.09 6.64,0 12.43,-1.11 17.35,-3.34 4.92,-2.23 8.99,-5.33 12.19,-9.31 3.2,-3.99 5.6,-8.66 7.21,-14.01 1.6,-5.35 2.4,-11.27 2.4,-17.75 0,-1.88 -0.74,-2.82 -2.23,-2.82 h -62.92 v -2.34 c 0,-12.03 2.41,-22.36 7.25,-30.99 4.85,-8.64 12.78,-12.96 23.8,-12.96 4.45,0 8.57,0.98 12.36,2.93 3.79,1.96 7.07,4.71 9.84,8.27 2.78,3.55 4.67,7.36 5.69,11.42 0.15,0.47 0.43,0.9 0.81,1.29 0.39,0.39 0.82,0.59 1.3,0.59 h 1.87 c 1.49,0 2.23,-0.94 2.23,-2.82 -2.03,-8.2 -6.45,-14.94 -13.25,-20.21 -6.79,-5.27 -14.41,-7.91 -22.84,-7.91 z m -28.83,58.12 h 49.57 c 0,5.48 -0.77,11 -2.29,16.59 -1.52,5.58 -4.06,10.23 -7.62,13.94 -3.55,3.71 -8.18,5.57 -13.89,5.57 -8.2,0 -14.54,-3.85 -19.04,-11.55 -4.49,-7.69 -6.73,-15.87 -6.73,-24.55" /><path
         id="path156"
         style="fill:#000000;fill-opacity:1;fill-rule:nonzero;stroke:none"
         d="m 3790.48,3515.96 c 0,5.15 1.88,9.67 5.63,13.53 3.75,3.87 8.2,6.63 13.36,8.27 -2.89,2.18 -5.1,4.94 -6.62,8.26 -1.53,3.32 -2.29,6.85 -2.29,10.6 0,6.8 2.15,12.82 6.44,18.05 -6.64,6.56 -9.95,14.02 -9.95,22.38 0,4.53 0.97,8.79 2.93,12.77 1.95,3.99 4.67,7.43 8.14,10.32 3.48,2.89 7.33,5.09 11.54,6.62 4.23,1.53 8.56,2.29 13.01,2.29 8.67,0 16.45,-2.5 23.33,-7.5 2.96,3.2 6.48,5.66 10.54,7.38 4.06,1.72 8.28,2.58 12.65,2.58 3.13,0 5.69,-1.12 7.68,-3.35 1.99,-2.22 2.99,-4.9 2.99,-8.02 0,-1.8 -0.68,-3.36 -2.05,-4.69 -1.37,-1.33 -2.91,-1.99 -4.63,-1.99 -1.87,0 -3.48,0.66 -4.8,1.99 -1.33,1.33 -2,2.89 -2,4.69 0,2.65 0.86,4.53 2.58,5.62 -7.5,0 -13.91,-2.58 -19.21,-7.73 2.57,-2.65 4.66,-5.88 6.27,-9.67 1.59,-3.79 2.39,-7.56 2.39,-11.31 0,-6.09 -1.7,-11.6 -5.09,-16.52 -3.4,-4.92 -7.87,-8.75 -13.42,-11.48 -5.55,-2.74 -11.29,-4.1 -17.23,-4.1 -7.89,0 -15.12,2.14 -21.67,6.44 -2.11,-2.81 -3.17,-5.98 -3.17,-9.5 0,-3.82 1.27,-7.18 3.81,-10.07 2.54,-2.89 5.72,-4.34 9.55,-4.34 H 3839 c 8.59,0 16.37,-0.78 23.32,-2.34 6.95,-1.56 12.79,-4.67 17.52,-9.32 4.73,-4.65 7.09,-11.27 7.09,-19.86 0,-6.41 -2.69,-11.7 -8.08,-15.88 -5.4,-4.18 -11.83,-7.21 -19.28,-9.08 -7.46,-1.88 -14.4,-2.82 -20.8,-2.82 -6.41,0 -13.38,0.94 -20.92,2.82 -7.54,1.87 -13.99,4.9 -19.33,9.08 -5.36,4.18 -8.04,9.47 -8.04,15.88 z m 12.19,0 c 0,-4.92 1.97,-9.03 5.92,-12.3 3.94,-3.28 8.73,-5.73 14.35,-7.33 5.63,-1.6 10.9,-2.4 15.83,-2.4 4.92,0 10.17,0.8 15.75,2.4 5.59,1.6 10.34,4.05 14.25,7.33 3.9,3.27 5.86,7.38 5.86,12.3 0,7.58 -3.46,12.48 -10.38,14.7 -6.91,2.23 -15.33,3.35 -25.25,3.35 h -17.81 c -3.36,0 -6.45,-0.8 -9.26,-2.41 -2.81,-1.6 -5.06,-3.83 -6.74,-6.67 -1.68,-2.86 -2.52,-5.85 -2.52,-8.97 z m 30,54.84 c 12.35,0 18.52,8.75 18.52,26.25 0,7.58 -1.31,13.83 -3.92,18.75 -2.63,4.92 -7.49,7.38 -14.6,7.38 -7.03,0 -11.85,-2.46 -14.47,-7.38 -2.62,-4.92 -3.93,-11.17 -3.93,-18.75 0,-4.76 0.49,-9.1 1.46,-13 0.98,-3.91 2.82,-7.1 5.52,-9.56 2.69,-2.46 6.5,-3.69 11.42,-3.69" /><path
         id="path158"
         style="fill:#000000;fill-opacity:1;fill-rule:nonzero;stroke:none"
         d="m 3900.02,3532.95 v 7.62 c 4.92,0 8.98,0.39 12.19,1.17 3.2,0.78 4.8,2.69 4.8,5.74 v 59.41 c 0,3.91 -0.59,6.72 -1.76,8.44 -1.17,1.72 -2.85,2.78 -5.04,3.17 -2.19,0.39 -5.58,0.58 -10.19,0.58 v 7.62 l 31.17,2.35 v -21.22 c 2.27,6.33 5.56,11.45 9.9,15.35 4.34,3.91 9.59,5.87 15.77,5.87 4.29,0 8.14,-1.27 11.54,-3.81 3.39,-2.54 5.09,-5.92 5.09,-10.14 0,-2.58 -0.94,-4.84 -2.81,-6.8 -1.88,-1.95 -4.18,-2.93 -6.91,-2.93 -2.73,0 -5.06,0.96 -6.97,2.87 -1.92,1.92 -2.88,4.2 -2.88,6.86 0,3.9 1.41,6.68 4.22,8.32 h -1.28 c -5.86,0 -10.65,-2.13 -14.36,-6.39 -3.71,-4.26 -6.35,-9.53 -7.91,-15.82 -1.57,-6.28 -2.35,-12.28 -2.35,-17.99 v -35.74 c 0,-4.6 7.03,-6.91 21.1,-6.91 v -7.62 h -53.32" /><path
         id="path160"
         style="fill:#000000;fill-opacity:1;fill-rule:nonzero;stroke:none"
         d="m 3989.23,3554.28 c 0,8.67 3.4,15.7 10.2,21.09 6.79,5.39 14.96,9.2 24.49,11.43 9.53,2.22 18.59,3.34 27.19,3.34 v 9.02 c 0,4.14 -0.92,8.18 -2.76,12.13 -1.84,3.94 -4.49,7.17 -7.97,9.67 -3.47,2.5 -7.32,3.75 -11.54,3.75 -9.61,0 -16.91,-2.15 -21.91,-6.45 2.73,0 5,-1.05 6.79,-3.16 1.8,-2.11 2.7,-4.53 2.7,-7.27 0,-2.89 -1.02,-5.37 -3.05,-7.44 -2.03,-2.07 -4.45,-3.1 -7.26,-3.1 -2.97,0 -5.47,1.03 -7.5,3.1 -2.04,2.07 -3.06,4.55 -3.06,7.44 0,7.66 3.46,13.35 10.38,17.06 6.91,3.7 14.55,5.56 22.91,5.56 5.93,0 11.87,-1.25 17.81,-3.75 5.94,-2.5 10.8,-6.09 14.59,-10.78 3.79,-4.69 5.69,-10.16 5.69,-16.41 v -48.98 c 0,-2.82 0.6,-5.41 1.81,-7.79 1.21,-2.39 3.06,-3.58 5.56,-3.58 2.43,0 4.23,1.21 5.4,3.64 1.17,2.42 1.76,5 1.76,7.73 v 13.94 h 6.32 v -13.94 c 0,-3.21 -0.84,-6.27 -2.52,-9.2 -1.68,-2.93 -3.96,-5.28 -6.85,-7.03 -2.89,-1.76 -5.98,-2.64 -9.26,-2.64 -4.29,0 -7.97,1.64 -11.01,4.92 -3.05,3.28 -4.77,7.19 -5.16,11.72 -2.66,-5.39 -6.6,-9.71 -11.83,-12.95 -5.24,-3.24 -10.86,-4.86 -16.88,-4.86 -5.47,0 -10.88,0.82 -16.23,2.46 -5.36,1.64 -9.83,4.22 -13.42,7.73 -3.59,3.52 -5.39,8.05 -5.39,13.6 z m 17.7,0 c 0,-5.08 1.87,-9.36 5.62,-12.83 3.75,-3.48 8.16,-5.22 13.25,-5.22 4.68,0 8.94,1.18 12.77,3.52 3.82,2.34 6.87,5.52 9.14,9.55 2.27,4.02 3.4,8.26 3.4,12.71 v 22.62 c -6.64,0 -13.4,-1.07 -20.27,-3.22 -6.88,-2.15 -12.59,-5.53 -17.12,-10.14 -4.53,-4.61 -6.79,-10.27 -6.79,-16.99" /><path
         id="path162"
         style="fill:#000000;fill-opacity:1;fill-rule:nonzero;stroke:none"
         d="m 4114,3558.85 v 48.04 c 0,3.91 -0.59,6.72 -1.76,8.44 -1.17,1.72 -2.85,2.78 -5.04,3.17 -2.19,0.39 -5.59,0.58 -10.19,0.58 v 7.62 l 32.92,2.35 v -70.2 c 0,-5.63 0.41,-10.02 1.23,-13.19 0.82,-3.16 2.56,-5.52 5.22,-7.09 2.66,-1.55 6.87,-2.34 12.66,-2.34 7.81,0 14.02,3.27 18.62,9.79 4.61,6.52 6.92,13.92 6.92,22.2 v 38.67 c 0,3.91 -0.6,6.72 -1.81,8.44 -1.22,1.72 -2.89,2.78 -5.04,3.17 -2.15,0.39 -5.53,0.58 -10.14,0.58 v 7.62 l 32.82,2.35 v -76.29 c 0,-3.83 0.58,-6.62 1.75,-8.38 1.17,-1.76 2.85,-2.83 5.04,-3.22 2.19,-0.39 5.58,-0.59 10.19,-0.59 v -7.62 l -32.23,-2.46 v 18.4 c -2.65,-5.47 -6.38,-9.91 -11.18,-13.3 -4.81,-3.4 -10.14,-5.1 -16,-5.1 -10.39,0 -18.65,2.21 -24.78,6.62 -6.14,4.42 -9.2,11.66 -9.2,21.74" /><path
         id="path164"
         style="fill:#000000;fill-opacity:1;fill-rule:nonzero;stroke:none"
         d="m 4339.2,3530.49 c -8.59,0 -16.42,2.33 -23.49,6.97 -7.08,4.65 -12.57,10.76 -16.47,18.34 -3.91,7.58 -5.86,15.63 -5.86,24.15 0,8.75 2.13,16.89 6.39,24.43 4.25,7.53 10.07,13.53 17.46,17.98 7.38,4.46 15.48,6.69 24.32,6.69 5.31,0 10.33,-1.12 15.06,-3.35 4.72,-2.22 8.84,-5.33 12.35,-9.31 v 45.23 c 0,3.91 -0.58,6.74 -1.75,8.5 -1.17,1.76 -2.83,2.83 -4.98,3.22 -2.15,0.39 -5.53,0.59 -10.14,0.59 v 7.62 l 32.11,2.34 v -131.13 c 0,-3.83 0.59,-6.62 1.76,-8.38 1.17,-1.76 2.85,-2.83 5.04,-3.22 2.18,-0.39 5.54,-0.59 10.07,-0.59 v -7.62 l -32.81,-2.46 v 13.71 c -3.75,-4.29 -8.2,-7.65 -13.36,-10.08 -5.15,-2.42 -10.39,-3.63 -15.7,-3.63 z m -22.15,21.33 c 2.43,-4.69 5.71,-8.46 9.85,-11.31 4.14,-2.85 8.67,-4.28 13.59,-4.28 6.01,0 11.54,1.74 16.58,5.22 5.04,3.47 8.77,7.98 11.19,13.53 v 52.15 c -1.64,3.13 -3.75,5.96 -6.32,8.5 -2.58,2.53 -5.49,4.47 -8.73,5.8 -3.25,1.33 -6.67,1.99 -10.26,1.99 -7.58,0 -13.67,-2.15 -18.28,-6.45 -4.61,-4.29 -7.83,-9.76 -9.67,-16.4 -1.83,-6.64 -2.75,-13.59 -2.75,-20.86 0,-5.86 0.29,-10.94 0.88,-15.24 0.58,-4.29 1.89,-8.51 3.92,-12.65" /><path
         id="path166"
         style="fill:#000000;fill-opacity:1;fill-rule:nonzero;stroke:none"
         d="m 4462.71,3530.49 c -8.67,0 -16.74,2.21 -24.2,6.62 -7.46,4.42 -13.34,10.35 -17.64,17.82 -4.29,7.46 -6.44,15.56 -6.44,24.31 0,6.64 1.17,13.05 3.52,19.22 2.34,6.17 5.74,11.68 10.19,16.52 4.45,4.84 9.61,8.63 15.47,11.37 5.86,2.73 12.23,4.1 19.1,4.1 8.91,0 17.04,-2.36 24.38,-7.09 7.34,-4.73 13.14,-11.04 17.4,-18.93 4.26,-7.89 6.38,-16.29 6.38,-25.19 0,-8.67 -2.16,-16.76 -6.5,-24.26 -4.33,-7.5 -10.19,-13.45 -17.57,-17.87 -7.39,-4.41 -15.41,-6.62 -24.09,-6.62 z m 0,6.44 c 11.65,0 19.4,4.2 23.26,12.6 3.87,8.4 5.81,19.13 5.81,32.17 0,7.26 -0.39,13.3 -1.18,18.1 -0.78,4.81 -2.46,9.16 -5.04,13.07 -1.64,2.34 -3.71,4.43 -6.21,6.27 -2.5,1.84 -5.15,3.22 -7.96,4.16 -2.82,0.94 -5.71,1.41 -8.68,1.41 -4.53,0 -8.83,-1.04 -12.89,-3.11 -4.06,-2.07 -7.46,-4.98 -10.2,-8.73 -2.65,-4.14 -4.35,-8.67 -5.09,-13.59 -0.74,-4.92 -1.12,-10.78 -1.12,-17.58 0,-8.13 0.71,-15.43 2.12,-21.91 1.4,-6.49 4.25,-11.92 8.55,-16.29 4.3,-4.38 10.51,-6.57 18.63,-6.57" /><path
         id="path168"
         style="fill:#000000;fill-opacity:1;fill-rule:nonzero;stroke:none"
         d="m 4598.11,3532.95 v 7.62 c 5,0 9.09,0.39 12.25,1.17 3.16,0.78 4.75,2.69 4.75,5.74 v 59.41 c 0,3.91 -0.59,6.72 -1.76,8.44 -1.17,1.72 -2.85,2.78 -5.04,3.17 -2.19,0.39 -5.59,0.58 -10.2,0.58 v 7.62 l 31.53,2.35 v -21.22 c 2.97,6.25 7.3,11.35 13.01,15.3 5.7,3.94 11.91,5.92 18.63,5.92 16.64,0 26.44,-6.8 29.41,-20.39 2.89,6.09 7.13,11.01 12.72,14.76 5.59,3.75 11.7,5.63 18.34,5.63 6.56,0 12.11,-1.06 16.64,-3.17 4.53,-2.11 7.93,-5.35 10.2,-9.72 2.26,-4.38 3.39,-9.85 3.39,-16.41 v -52.27 c 0,-3.05 1.61,-4.96 4.81,-5.74 3.2,-0.78 7.26,-1.17 12.19,-1.17 v -7.62 h -49.81 v 7.62 c 4.92,0 8.98,0.39 12.19,1.17 3.2,0.78 4.8,2.69 4.8,5.74 v 51.68 c 0,7.27 -1.03,13.13 -3.1,17.58 -2.07,4.46 -6.31,6.68 -12.72,6.68 -8.36,0 -15.25,-3.36 -20.68,-10.08 -5.43,-6.72 -8.14,-14.38 -8.14,-22.97 v -42.89 c 0,-3.05 1.58,-4.96 4.74,-5.74 3.16,-0.78 7.24,-1.17 12.24,-1.17 v -7.62 h -49.79 v 7.62 c 4.92,0 8.98,0.39 12.18,1.17 3.2,0.78 4.8,2.69 4.8,5.74 v 51.68 c 0,7.03 -1.03,12.83 -3.1,17.41 -2.07,4.57 -6.27,6.85 -12.6,6.85 -8.44,0 -15.37,-3.36 -20.8,-10.08 -5.43,-6.72 -8.14,-14.38 -8.14,-22.97 v -42.89 c 0,-3.05 1.6,-4.96 4.8,-5.74 3.2,-0.78 7.22,-1.17 12.07,-1.17 v -7.62 h -49.81" /><path
         id="path170"
         style="fill:#000000;fill-opacity:1;fill-rule:nonzero;stroke:none"
         d="m 4829.38,3530.49 c -8.67,0 -16.74,2.21 -24.2,6.62 -7.46,4.42 -13.34,10.35 -17.64,17.82 -4.29,7.46 -6.44,15.56 -6.44,24.31 0,6.64 1.17,13.05 3.51,19.22 2.35,6.17 5.75,11.68 10.2,16.52 4.45,4.84 9.61,8.63 15.47,11.37 5.86,2.73 12.23,4.1 19.1,4.1 8.91,0 17.03,-2.36 24.38,-7.09 7.34,-4.73 13.14,-11.04 17.4,-18.93 4.25,-7.89 6.38,-16.29 6.38,-25.19 0,-8.67 -2.17,-16.76 -6.5,-24.26 -4.34,-7.5 -10.2,-13.45 -17.58,-17.87 -7.38,-4.41 -15.41,-6.62 -24.08,-6.62 z m 0,6.44 c 11.64,0 19.39,4.2 23.26,12.6 3.87,8.4 5.81,19.13 5.81,32.17 0,7.26 -0.4,13.3 -1.18,18.1 -0.78,4.81 -2.46,9.16 -5.04,13.07 -1.64,2.34 -3.71,4.43 -6.21,6.27 -2.5,1.84 -5.16,3.22 -7.97,4.16 -2.81,0.94 -5.7,1.41 -8.67,1.41 -4.53,0 -8.83,-1.04 -12.89,-3.11 -4.06,-2.07 -7.47,-4.98 -10.2,-8.73 -2.65,-4.14 -4.35,-8.67 -5.09,-13.59 -0.75,-4.92 -1.12,-10.78 -1.12,-17.58 0,-8.13 0.71,-15.43 2.12,-21.91 1.4,-6.49 4.25,-11.92 8.55,-16.29 4.3,-4.38 10.51,-6.57 18.63,-6.57" /><path
         id="path172"
         style="fill:#000000;fill-opacity:1;fill-rule:nonzero;stroke:none"
         d="m 4944.2,3530.49 c -8.59,0 -16.42,2.33 -23.5,6.97 -7.07,4.65 -12.56,10.76 -16.46,18.34 -3.9,7.58 -5.86,15.63 -5.86,24.15 0,8.75 2.13,16.89 6.39,24.43 4.25,7.53 10.08,13.53 17.46,17.98 7.38,4.46 15.49,6.69 24.32,6.69 5.31,0 10.33,-1.12 15.06,-3.35 4.72,-2.22 8.84,-5.33 12.36,-9.31 v 45.23 c 0,3.91 -0.59,6.74 -1.76,8.5 -1.17,1.76 -2.83,2.83 -4.98,3.22 -2.15,0.39 -5.53,0.59 -10.14,0.59 v 7.62 l 32.11,2.34 v -131.13 c 0,-3.83 0.59,-6.62 1.76,-8.38 1.17,-1.76 2.85,-2.83 5.04,-3.22 2.19,-0.39 5.55,-0.59 10.07,-0.59 v -7.62 l -32.81,-2.46 v 13.71 c -3.75,-4.29 -8.2,-7.65 -13.35,-10.08 -5.16,-2.42 -10.39,-3.63 -15.71,-3.63 z m -22.15,21.33 c 2.43,-4.69 5.71,-8.46 9.85,-11.31 4.14,-2.85 8.67,-4.28 13.59,-4.28 6.01,0 11.54,1.74 16.58,5.22 5.04,3.47 8.77,7.98 11.19,13.53 v 52.15 c -1.64,3.13 -3.74,5.96 -6.32,8.5 -2.58,2.53 -5.49,4.47 -8.74,5.8 -3.24,1.33 -6.65,1.99 -10.25,1.99 -7.57,0 -13.67,-2.15 -18.28,-6.45 -4.61,-4.29 -7.83,-9.76 -9.67,-16.4 -1.83,-6.64 -2.75,-13.59 -2.75,-20.86 0,-5.86 0.3,-10.94 0.88,-15.24 0.58,-4.29 1.89,-8.51 3.92,-12.65" /><path
         id="path174"
         style="fill:#000000;fill-opacity:1;fill-rule:nonzero;stroke:none"
         d="m 5067.48,3530.49 c -8.83,0 -16.93,2.33 -24.32,6.97 -7.38,4.65 -13.18,10.84 -17.4,18.58 -4.22,7.73 -6.33,15.93 -6.33,24.6 0,8.52 1.92,16.59 5.75,24.2 3.82,7.62 9.19,13.79 16.11,18.52 6.91,4.73 14.63,7.09 23.14,7.09 6.64,0 12.42,-1.11 17.34,-3.34 4.93,-2.23 8.99,-5.33 12.19,-9.31 3.2,-3.99 5.61,-8.66 7.21,-14.01 1.6,-5.35 2.4,-11.27 2.4,-17.75 0,-1.88 -0.74,-2.82 -2.22,-2.82 h -62.94 v -2.34 c 0,-12.03 2.43,-22.36 7.27,-30.99 4.85,-8.64 12.78,-12.96 23.79,-12.96 4.45,0 8.57,0.98 12.36,2.93 3.79,1.96 7.08,4.71 9.85,8.27 2.77,3.55 4.66,7.36 5.68,11.42 0.16,0.47 0.43,0.9 0.82,1.29 0.39,0.39 0.82,0.59 1.29,0.59 h 1.88 c 1.48,0 2.22,-0.94 2.22,-2.82 -2.03,-8.2 -6.44,-14.94 -13.24,-20.21 -6.79,-5.27 -14.41,-7.91 -22.85,-7.91 z m -28.83,58.12 h 49.57 c 0,5.48 -0.76,11 -2.29,16.59 -1.52,5.58 -4.06,10.23 -7.61,13.94 -3.55,3.71 -8.18,5.57 -13.89,5.57 -8.2,0 -14.55,-3.85 -19.04,-11.55 -4.5,-7.69 -6.74,-15.87 -6.74,-24.55" /><path
         id="path176"
         style="fill:#000000;fill-opacity:1;fill-rule:nonzero;stroke:none"
         d="m 5117.8,3532.95 v 7.62 c 5,0 9.08,0.39 12.24,1.17 3.17,0.78 4.75,2.69 4.75,5.74 v 114.14 c 0,3.91 -0.59,6.74 -1.76,8.5 -1.17,1.76 -2.85,2.83 -5.03,3.22 -2.2,0.39 -5.59,0.59 -10.2,0.59 v 7.62 l 32.34,2.34 v -136.41 c 0,-3.05 1.58,-4.96 4.74,-5.74 3.17,-0.78 7.21,-1.17 12.14,-1.17 v -7.62 h -49.22" /><path
         id="path178"
         style="fill:#000000;fill-opacity:1;fill-rule:nonzero;stroke:none"
         d="m 5226.61,3530.49 c -8.68,0 -16.75,2.21 -24.21,6.62 -7.46,4.42 -13.33,10.35 -17.63,17.82 -4.3,7.46 -6.45,15.56 -6.45,24.31 0,6.64 1.17,13.05 3.52,19.22 2.34,6.17 5.74,11.68 10.19,16.52 4.45,4.84 9.61,8.63 15.47,11.37 5.86,2.73 12.23,4.1 19.11,4.1 8.9,0 17.03,-2.36 24.37,-7.09 7.34,-4.73 13.14,-11.04 17.4,-18.93 4.26,-7.89 6.39,-16.29 6.39,-25.19 0,-8.67 -2.17,-16.76 -6.51,-24.26 -4.33,-7.5 -10.19,-13.45 -17.57,-17.87 -7.39,-4.41 -15.42,-6.62 -24.08,-6.62 z m 0,6.44 c 11.64,0 19.39,4.2 23.25,12.6 3.87,8.4 5.81,19.13 5.81,32.17 0,7.26 -0.4,13.3 -1.18,18.1 -0.78,4.81 -2.46,9.16 -5.03,13.07 -1.65,2.34 -3.72,4.43 -6.22,6.27 -2.5,1.84 -5.15,3.22 -7.97,4.16 -2.81,0.94 -5.7,1.41 -8.66,1.41 -4.54,0 -8.84,-1.04 -12.9,-3.11 -4.06,-2.07 -7.46,-4.98 -10.19,-8.73 -2.66,-4.14 -4.36,-8.67 -5.1,-13.59 -0.74,-4.92 -1.12,-10.78 -1.12,-17.58 0,-8.13 0.71,-15.43 2.12,-21.91 1.4,-6.49 4.25,-11.92 8.55,-16.29 4.3,-4.38 10.51,-6.57 18.64,-6.57" /><path
         id="path180"
         style="fill:#000000;fill-opacity:1;fill-rule:nonzero;stroke:none"
         d="m 5362.59,3532.95 v 7.62 c 12.97,0 20.94,4.29 23.91,12.89 l 45.58,132.89 c 0.47,1.56 1.65,2.35 3.52,2.35 h 2.81 c 1.88,0 3.05,-0.79 3.52,-2.35 l 47.69,-138.87 c 1.33,-3.05 3.89,-4.96 7.68,-5.74 3.79,-0.78 8.49,-1.17 14.12,-1.17 v -7.62 h -60.59 v 7.62 c 12.04,0 18.06,1.95 18.06,5.86 v 1.05 l -11.85,33.99 h -52.73 l -9.73,-28.01 c -0.15,-0.47 -0.23,-1.21 -0.23,-2.23 0,-3.59 1.72,-6.27 5.16,-8.03 3.44,-1.75 7.1,-2.63 11.01,-2.63 v -7.62 z m 44.3,56.13 h 47.69 l -23.9,69.38 z" /><path
         id="path182"
         style="fill:#000000;fill-opacity:1;fill-rule:nonzero;stroke:none"
         d="m 5527.83,3532.95 v 7.62 c 14.92,0 22.38,2.31 22.38,6.91 v 119.53 c 0,4.61 -7.46,6.92 -22.38,6.92 v 7.62 h 68.2 c 8.2,0 16.77,-1.47 25.72,-4.4 8.95,-2.93 16.43,-7.4 22.45,-13.42 6.01,-6.02 9.02,-13.2 9.02,-21.56 0,-6.09 -1.82,-11.54 -5.45,-16.35 -3.63,-4.8 -8.3,-8.81 -14,-12.01 -5.71,-3.2 -11.53,-5.51 -17.47,-6.92 6.49,-2.26 12.17,-5.87 17.05,-10.84 4.89,-4.96 7.84,-10.64 8.85,-17.04 l 3.05,-19.34 c 1.4,-8.67 2.89,-15.16 4.45,-19.45 1.56,-4.3 5,-6.45 10.32,-6.45 4.53,0 7.91,2.11 10.14,6.33 2.22,4.22 3.33,8.83 3.33,13.83 0,0.47 0.24,0.9 0.71,1.29 0.46,0.39 0.93,0.58 1.4,0.58 h 1.99 c 1.41,0 2.11,-0.98 2.11,-2.93 0,-3.91 -0.76,-7.75 -2.29,-11.54 -1.52,-3.79 -3.76,-6.94 -6.73,-9.44 -2.97,-2.5 -6.45,-3.75 -10.43,-3.75 -10.47,0 -19.48,2.6 -27.01,7.8 -7.54,5.2 -11.31,12.83 -11.31,22.91 v 19.33 c 0,7.27 -2.52,13.48 -7.56,18.64 -5.04,5.16 -11.19,7.73 -18.46,7.73 h -26.13 v -57.07 c 0,-4.6 7.46,-6.91 22.38,-6.91 v -7.62 z m 41.95,77.23 h 23.2 c 12.04,0 21.2,2.42 27.49,7.27 6.28,4.84 9.42,13.08 9.42,24.72 0,11.48 -3.1,19.65 -9.31,24.49 -6.21,4.84 -15.41,7.27 -27.6,7.27 h -12.19 c -2.65,0 -4.7,-0.12 -6.15,-0.36 -1.44,-0.23 -2.62,-0.86 -3.51,-1.87 -0.9,-1.02 -1.35,-2.58 -1.35,-4.69 v -56.83" /><path
         id="path184"
         style="fill:#000000;fill-opacity:1;fill-rule:nonzero;stroke:none"
         d="m 5687.55,3532.95 v 7.62 c 14.68,0 24.95,4.1 30.81,12.3 l 36.1,53.79 -39.96,60.94 c -2.27,2.73 -5.34,4.47 -9.2,5.22 -3.87,0.74 -8.77,1.11 -14.71,1.11 v 7.62 h 60.82 v -7.62 c -2.57,0 -5.56,-0.53 -8.96,-1.59 -3.4,-1.05 -5.1,-2.48 -5.1,-4.27 0,-0.32 0.04,-0.59 0.12,-0.82 l 28.48,-43.36 25.07,37.38 c 0.55,1.25 0.82,2.27 0.82,3.05 0,2.97 -1.46,5.31 -4.39,7.03 -2.93,1.72 -6,2.58 -9.2,2.58 v 7.62 h 53.09 v -7.62 c -14.77,0 -25.09,-4.14 -30.94,-12.42 l -29.89,-44.54 46.06,-70.08 c 2.42,-2.81 5.52,-4.57 9.32,-5.27 3.79,-0.7 8.65,-1.05 14.58,-1.05 v -7.62 h -61.05 v 7.62 c 2.34,0 5.31,0.53 8.9,1.58 3.6,1.06 5.4,2.48 5.4,4.28 0,0.47 -0.12,0.74 -0.36,0.82 l -34.33,52.5 -31.29,-46.64 c -0.39,-0.86 -0.58,-1.84 -0.58,-2.93 0,-2.97 1.44,-5.32 4.33,-7.04 2.89,-1.71 5.94,-2.57 9.14,-2.57 v -7.62 h -53.08" /><path
         id="path186"
         style="fill:#000000;fill-opacity:1;fill-rule:nonzero;stroke:none"
         d="m 5854.77,3532.36 v 35.4 c 0,1.17 0.63,1.75 1.88,1.75 h 2.69 c 0.78,0 1.33,-0.58 1.64,-1.75 4.07,-21.02 13.83,-31.53 29.3,-31.53 6.88,0 12.64,1.57 17.29,4.69 4.64,3.13 6.97,7.93 6.97,14.41 0,4.69 -1.82,8.67 -5.45,11.96 -3.63,3.28 -7.91,5.54 -12.83,6.79 l -14.54,2.81 c -4.92,1.1 -9.37,2.74 -13.36,4.93 -3.98,2.18 -7.24,5.09 -9.78,8.73 -2.54,3.63 -3.81,7.87 -3.81,12.71 0,6.41 1.68,11.64 5.04,15.71 3.36,4.06 7.71,6.99 13.07,8.79 5.35,1.79 11.15,2.69 17.4,2.69 7.42,0 13.9,-1.99 19.45,-5.98 l 6.33,5.39 c 0,0.39 0.35,0.59 1.05,0.59 h 1.53 c 0.47,0 0.88,-0.2 1.23,-0.59 0.35,-0.38 0.53,-0.77 0.53,-1.16 v -28.48 c 0,-1.41 -0.59,-2.11 -1.76,-2.11 h -2.58 c -1.33,0 -1.99,0.7 -1.99,2.11 0,7.57 -2.11,13.65 -6.33,18.22 -4.22,4.57 -10.12,6.86 -17.69,6.86 -6.49,0 -12.11,-1.19 -16.88,-3.58 -4.76,-2.38 -7.15,-6.51 -7.15,-12.36 0,-4.06 1.72,-7.39 5.16,-9.97 3.44,-2.57 7.46,-4.45 12.07,-5.62 l 14.65,-2.7 c 5,-1.16 9.65,-3.1 13.94,-5.79 4.3,-2.7 7.7,-6.1 10.2,-10.2 2.5,-4.1 3.75,-8.73 3.75,-13.88 0,-5.24 -0.9,-9.79 -2.7,-13.66 -1.79,-3.87 -4.31,-7.07 -7.56,-9.61 -3.24,-2.54 -7.05,-4.41 -11.42,-5.63 -4.38,-1.21 -8.98,-1.81 -13.83,-1.81 -9.07,0 -16.8,3.05 -23.21,9.14 l -7.96,-8.56 c 0,-0.39 -0.39,-0.58 -1.18,-0.58 h -1.28 c -1.25,0 -1.88,0.62 -1.88,1.87" /><path
         id="path188"
         style="fill:#000000;fill-opacity:1;fill-rule:nonzero;stroke:none"
         d="m 5940.96,3532.95 v 7.62 c 5,0 9.09,0.39 12.25,1.17 3.16,0.78 4.74,2.69 4.74,5.74 v 59.41 c 0,5.55 -1.07,8.97 -3.22,10.26 -2.14,1.29 -6.42,1.93 -12.83,1.93 v 7.62 l 31.4,2.35 v -81.57 c 0,-3.05 1.37,-4.96 4.11,-5.74 2.73,-0.78 6.41,-1.17 11.02,-1.17 v -7.62 z m 9.26,133.48 c 0,3.2 1.21,6.02 3.64,8.43 2.42,2.43 5.15,3.64 8.19,3.64 2.11,0 4.13,-0.55 6.04,-1.64 1.92,-1.09 3.4,-2.6 4.46,-4.52 1.05,-1.91 1.58,-3.88 1.58,-5.91 0,-3.13 -1.21,-5.88 -3.64,-8.27 -2.42,-2.38 -5.23,-3.57 -8.44,-3.57 -3.04,0 -5.77,1.19 -8.19,3.57 -2.43,2.39 -3.64,5.14 -3.64,8.27" /><path
         id="path190"
         style="fill:#000000;fill-opacity:1;fill-rule:nonzero;stroke:none"
         d="m 6001.84,3532.95 v 7.62 c 5,0 9.09,0.39 12.25,1.17 3.16,0.78 4.74,2.69 4.74,5.74 v 59.41 c 0,3.91 -0.58,6.72 -1.76,8.44 -1.16,1.72 -2.84,2.78 -5.03,3.17 -2.19,0.39 -5.59,0.58 -10.2,0.58 v 7.62 l 31.52,2.35 v -21.22 c 2.98,6.25 7.31,11.35 13.01,15.3 5.7,3.94 11.92,5.92 18.64,5.92 16.64,0 26.44,-6.8 29.41,-20.39 2.89,6.09 7.13,11.01 12.72,14.76 5.58,3.75 11.69,5.63 18.33,5.63 6.57,0 12.12,-1.06 16.64,-3.17 4.53,-2.11 7.93,-5.35 10.2,-9.72 2.26,-4.38 3.4,-9.85 3.4,-16.41 v -52.27 c 0,-3.05 1.6,-4.96 4.8,-5.74 3.21,-0.78 7.27,-1.17 12.19,-1.17 v -7.62 h -49.81 v 7.62 c 4.93,0 8.99,0.39 12.19,1.17 3.21,0.78 4.81,2.69 4.81,5.74 v 51.68 c 0,7.27 -1.04,13.13 -3.11,17.58 -2.07,4.46 -6.3,6.68 -12.71,6.68 -8.36,0 -15.25,-3.36 -20.68,-10.08 -5.43,-6.72 -8.15,-14.38 -8.15,-22.97 v -42.89 c 0,-3.05 1.58,-4.96 4.75,-5.74 3.16,-0.78 7.24,-1.17 12.24,-1.17 v -7.62 h -49.8 v 7.62 c 4.92,0 8.98,0.39 12.18,1.17 3.21,0.78 4.81,2.69 4.81,5.74 v 51.68 c 0,7.03 -1.03,12.83 -3.11,17.41 -2.07,4.57 -6.27,6.85 -12.59,6.85 -8.44,0 -15.38,-3.36 -20.81,-10.08 -5.43,-6.72 -8.14,-14.38 -8.14,-22.97 v -42.89 c 0,-3.05 1.6,-4.96 4.8,-5.74 3.21,-0.78 7.23,-1.17 12.07,-1.17 v -7.62 h -49.8" /><path
         id="path192"
         style="fill:#000000;fill-opacity:1;fill-rule:nonzero;stroke:none"
         d="m 6306.2,3530.49 c -8.75,0 -16.7,2.28 -23.84,6.85 -7.15,4.57 -12.78,10.67 -16.88,18.29 -4.1,7.62 -6.16,15.72 -6.16,24.32 0,8.51 2.04,16.69 6.1,24.54 4.06,7.85 9.69,14.14 16.88,18.87 7.18,4.73 15.15,7.09 23.9,7.09 8.52,0 16.26,-1.66 23.21,-4.98 6.95,-3.32 10.43,-8.77 10.43,-16.35 0,-2.81 -1,-5.27 -3,-7.38 -1.98,-2.11 -4.43,-3.17 -7.32,-3.17 -2.88,0 -5.35,1.06 -7.38,3.17 -2.03,2.11 -3.05,4.57 -3.05,7.38 0,2.5 0.82,4.69 2.46,6.56 1.64,1.88 3.63,3.09 5.98,3.64 -5,3.2 -12.03,4.8 -21.09,4.8 -6.96,0 -12.56,-2.3 -16.82,-6.91 -4.26,-4.61 -7.23,-10.31 -8.91,-17.11 -1.67,-6.8 -2.51,-13.51 -2.51,-20.15 0,-7.04 1.03,-13.84 3.1,-20.4 2.07,-6.56 5.43,-11.97 10.08,-16.23 4.65,-4.26 10.49,-6.39 17.52,-6.39 6.87,0 12.72,2.09 17.52,6.27 4.81,4.18 8.1,9.67 9.9,16.47 0,0.86 0.55,1.29 1.64,1.29 h 2.7 c 0.39,0 0.76,-0.2 1.11,-0.59 0.35,-0.39 0.53,-0.82 0.53,-1.29 v -0.58 c -2.19,-8.59 -6.55,-15.41 -13.07,-20.45 -6.52,-5.04 -14.2,-7.56 -23.03,-7.56" /><path
         id="path194"
         style="fill:#000000;fill-opacity:1;fill-rule:nonzero;stroke:none"
         d="m 6404.22,3530.49 c -8.68,0 -16.74,2.21 -24.2,6.62 -7.47,4.42 -13.34,10.35 -17.64,17.82 -4.3,7.46 -6.45,15.56 -6.45,24.31 0,6.64 1.18,13.05 3.52,19.22 2.35,6.17 5.74,11.68 10.19,16.52 4.46,4.84 9.61,8.63 15.48,11.37 5.86,2.73 12.22,4.1 19.1,4.1 8.9,0 17.03,-2.36 24.37,-7.09 7.34,-4.73 13.14,-11.04 17.4,-18.93 4.26,-7.89 6.39,-16.29 6.39,-25.19 0,-8.67 -2.17,-16.76 -6.51,-24.26 -4.33,-7.5 -10.19,-13.45 -17.57,-17.87 -7.39,-4.41 -15.41,-6.62 -24.08,-6.62 z m 0,6.44 c 11.64,0 19.39,4.2 23.26,12.6 3.86,8.4 5.8,19.13 5.8,32.17 0,7.26 -0.39,13.3 -1.18,18.1 -0.78,4.81 -2.46,9.16 -5.03,13.07 -1.64,2.34 -3.72,4.43 -6.22,6.27 -2.5,1.84 -5.15,3.22 -7.96,4.16 -2.82,0.94 -5.71,1.41 -8.67,1.41 -4.54,0 -8.83,-1.04 -12.9,-3.11 -4.06,-2.07 -7.46,-4.98 -10.19,-8.73 -2.66,-4.14 -4.36,-8.67 -5.1,-13.59 -0.74,-4.92 -1.12,-10.78 -1.12,-17.58 0,-8.13 0.71,-15.43 2.12,-21.91 1.4,-6.49 4.26,-11.92 8.55,-16.29 4.3,-4.38 10.51,-6.57 18.64,-6.57" /><path
         id="path196"
         style="fill:#000000;fill-opacity:1;fill-rule:nonzero;stroke:none"
         d="m 6466.29,3532.95 v 7.62 c 5,0 9.08,0.39 12.25,1.17 3.16,0.78 4.73,2.69 4.73,5.74 v 59.41 c 0,3.91 -0.58,6.72 -1.75,8.44 -1.17,1.72 -2.85,2.78 -5.04,3.17 -2.18,0.39 -5.58,0.58 -10.19,0.58 v 7.62 l 31.52,2.35 v -21.22 c 2.97,6.25 7.31,11.35 13.01,15.3 5.7,3.94 11.91,5.92 18.63,5.92 16.64,0 26.45,-6.8 29.42,-20.39 2.89,6.09 7.13,11.01 12.71,14.76 5.58,3.75 11.7,5.63 18.34,5.63 6.56,0 12.11,-1.06 16.64,-3.17 4.53,-2.11 7.93,-5.35 10.19,-9.72 2.27,-4.38 3.4,-9.85 3.4,-16.41 v -52.27 c 0,-3.05 1.6,-4.96 4.81,-5.74 3.2,-0.78 7.27,-1.17 12.18,-1.17 v -7.62 h -49.8 v 7.62 c 4.92,0 8.98,0.39 12.18,1.17 3.21,0.78 4.81,2.69 4.81,5.74 v 51.68 c 0,7.27 -1.03,13.13 -3.1,17.58 -2.07,4.46 -6.31,6.68 -12.71,6.68 -8.36,0 -15.26,-3.36 -20.69,-10.08 -5.43,-6.72 -8.15,-14.38 -8.15,-22.97 v -42.89 c 0,-3.05 1.59,-4.96 4.75,-5.74 3.17,-0.78 7.25,-1.17 12.25,-1.17 v -7.62 h -49.81 v 7.62 c 4.92,0 8.99,0.39 12.19,1.17 3.21,0.78 4.81,2.69 4.81,5.74 v 51.68 c 0,7.03 -1.04,12.83 -3.12,17.41 -2.07,4.57 -6.26,6.85 -12.59,6.85 -8.44,0 -15.37,-3.36 -20.8,-10.08 -5.43,-6.72 -8.15,-14.38 -8.15,-22.97 v -42.89 c 0,-3.05 1.61,-4.96 4.81,-5.74 3.21,-0.78 7.23,-1.17 12.07,-1.17 v -7.62 h -49.8" /><path
         id="path198"
         style="fill:#000000;fill-opacity:1;fill-rule:nonzero;stroke:none"
         d="m 6770.64,3530.49 c -8.82,0 -16.93,2.33 -24.31,6.97 -7.38,4.65 -13.18,10.84 -17.4,18.58 -4.22,7.73 -6.33,15.93 -6.33,24.6 0,8.52 1.92,16.59 5.74,24.2 3.83,7.62 9.2,13.79 16.12,18.52 6.91,4.73 14.63,7.09 23.14,7.09 6.64,0 12.42,-1.11 17.35,-3.34 4.92,-2.23 8.98,-5.33 12.19,-9.31 3.2,-3.99 5.6,-8.66 7.2,-14.01 1.6,-5.35 2.4,-11.27 2.4,-17.75 0,-1.88 -0.74,-2.82 -2.22,-2.82 h -62.94 v -2.34 c 0,-12.03 2.42,-22.36 7.27,-30.99 4.85,-8.64 12.78,-12.96 23.79,-12.96 4.45,0 8.58,0.98 12.37,2.93 3.78,1.96 7.06,4.71 9.84,8.27 2.77,3.55 4.67,7.36 5.68,11.42 0.16,0.47 0.43,0.9 0.82,1.29 0.39,0.39 0.82,0.59 1.29,0.59 h 1.88 c 1.48,0 2.22,-0.94 2.22,-2.82 -2.03,-8.2 -6.44,-14.94 -13.24,-20.21 -6.8,-5.27 -14.41,-7.91 -22.86,-7.91 z m -28.82,58.12 h 49.57 c 0,5.48 -0.76,11 -2.29,16.59 -1.52,5.58 -4.05,10.23 -7.61,13.94 -3.56,3.71 -8.19,5.57 -13.89,5.57 -8.2,0 -14.55,-3.85 -19.04,-11.55 -4.49,-7.69 -6.74,-15.87 -6.74,-24.55" /><path
         id="path200"
         style="fill:#000000;fill-opacity:1;fill-rule:nonzero;stroke:none"
         d="m 6821.55,3532.36 v 35.4 c 0,1.17 0.62,1.75 1.87,1.75 h 2.7 c 0.78,0 1.33,-0.58 1.65,-1.75 4.05,-21.02 13.82,-31.53 29.29,-31.53 6.87,0 12.64,1.57 17.29,4.69 4.64,3.13 6.97,7.93 6.97,14.41 0,4.69 -1.82,8.67 -5.45,11.96 -3.64,3.28 -7.91,5.54 -12.83,6.79 l -14.54,2.81 c -4.92,1.1 -9.37,2.74 -13.36,4.93 -3.98,2.18 -7.24,5.09 -9.78,8.73 -2.54,3.63 -3.81,7.87 -3.81,12.71 0,6.41 1.68,11.64 5.04,15.71 3.36,4.06 7.71,6.99 13.07,8.79 5.35,1.79 11.15,2.69 17.4,2.69 7.42,0 13.9,-1.99 19.46,-5.98 l 6.32,5.39 c 0,0.39 0.35,0.59 1.05,0.59 h 1.53 c 0.47,0 0.88,-0.2 1.23,-0.59 0.35,-0.38 0.52,-0.77 0.52,-1.16 v -28.48 c 0,-1.41 -0.58,-2.11 -1.75,-2.11 h -2.58 c -1.33,0 -1.99,0.7 -1.99,2.11 0,7.57 -2.11,13.65 -6.33,18.22 -4.22,4.57 -10.12,6.86 -17.69,6.86 -6.49,0 -12.11,-1.19 -16.88,-3.58 -4.77,-2.38 -7.15,-6.51 -7.15,-12.36 0,-4.06 1.72,-7.39 5.16,-9.97 3.43,-2.57 7.45,-4.45 12.06,-5.62 l 14.65,-2.7 c 5,-1.16 9.65,-3.1 13.95,-5.79 4.3,-2.7 7.7,-6.1 10.2,-10.2 2.5,-4.1 3.75,-8.73 3.75,-13.88 0,-5.24 -0.9,-9.79 -2.7,-13.66 -1.8,-3.87 -4.32,-7.07 -7.56,-9.61 -3.24,-2.54 -7.04,-4.41 -11.42,-5.63 -4.37,-1.21 -8.98,-1.81 -13.83,-1.81 -9.06,0 -16.8,3.05 -23.2,9.14 l -7.97,-8.56 c 0,-0.39 -0.39,-0.58 -1.18,-0.58 h -1.29 c -1.25,0 -1.87,0.62 -1.87,1.87" /><path
         id="path202"
         style="fill:#000000;fill-opacity:1;fill-rule:nonzero;stroke:none"
         d="m 6923.21,3559.08 v 60 h -18.05 v 5.63 c 9.54,0 16.53,4.43 20.98,13.3 4.45,8.87 6.68,18.45 6.68,28.77 h 6.22 v -40.08 h 30.69 v -7.62 h -30.69 v -59.53 c 0,-6.01 1.01,-11.28 3.04,-15.82 2.03,-4.53 5.66,-6.8 10.9,-6.8 5,0 8.59,2.39 10.77,7.15 2.2,4.77 3.29,9.93 3.29,15.47 v 12.77 h 6.21 v -13.24 c 0,-4.53 -0.82,-9 -2.46,-13.42 -1.64,-4.41 -4.1,-8.04 -7.38,-10.89 -3.28,-2.86 -7.27,-4.28 -11.95,-4.28 -8.68,0 -15.55,2.6 -20.63,7.79 -5.08,5.2 -7.62,12.13 -7.62,20.8" /><path
         id="path204"
         style="fill:#000000;fill-opacity:1;fill-rule:nonzero;stroke:none"
         d="m 6993.3,3532.95 v 7.62 c 5,0 9.08,0.39 12.25,1.17 3.16,0.78 4.74,2.69 4.74,5.74 v 59.41 c 0,5.55 -1.07,8.97 -3.22,10.26 -2.15,1.29 -6.43,1.93 -12.84,1.93 v 7.62 l 31.41,2.35 v -81.57 c 0,-3.05 1.37,-4.96 4.11,-5.74 2.73,-0.78 6.4,-1.17 11.01,-1.17 v -7.62 z m 9.26,133.48 c 0,3.2 1.21,6.02 3.63,8.43 2.42,2.43 5.15,3.64 8.2,3.64 2.11,0 4.13,-0.55 6.04,-1.64 1.91,-1.09 3.39,-2.6 4.45,-4.52 1.05,-1.91 1.58,-3.88 1.58,-5.91 0,-3.13 -1.21,-5.88 -3.63,-8.27 -2.42,-2.38 -5.24,-3.57 -8.44,-3.57 -3.05,0 -5.78,1.19 -8.2,3.57 -2.42,2.39 -3.63,5.14 -3.63,8.27" /><path
         id="path206"
         style="fill:#000000;fill-opacity:1;fill-rule:nonzero;stroke:none"
         d="m 7054.18,3532.95 v 7.62 c 5,0 9.08,0.39 12.24,1.17 3.17,0.78 4.75,2.69 4.75,5.74 v 59.41 c 0,3.91 -0.59,6.72 -1.76,8.44 -1.17,1.72 -2.85,2.78 -5.04,3.17 -2.19,0.39 -5.58,0.58 -10.19,0.58 v 7.62 l 31.52,2.35 v -21.22 c 2.97,6.25 7.3,11.35 13.01,15.3 5.7,3.94 11.91,5.92 18.63,5.92 16.64,0 26.45,-6.8 29.41,-20.39 2.89,6.09 7.13,11.01 12.72,14.76 5.58,3.75 11.69,5.63 18.33,5.63 6.57,0 12.12,-1.06 16.65,-3.17 4.53,-2.11 7.93,-5.35 10.2,-9.72 2.26,-4.38 3.4,-9.85 3.4,-16.41 v -52.27 c 0,-3.05 1.59,-4.96 4.79,-5.74 3.21,-0.78 7.27,-1.17 12.19,-1.17 v -7.62 h -49.8 v 7.62 c 4.92,0 8.98,0.39 12.19,1.17 3.2,0.78 4.8,2.69 4.8,5.74 v 51.68 c 0,7.27 -1.04,13.13 -3.1,17.58 -2.07,4.46 -6.31,6.68 -12.72,6.68 -8.36,0 -15.25,-3.36 -20.68,-10.08 -5.43,-6.72 -8.15,-14.38 -8.15,-22.97 v -42.89 c 0,-3.05 1.59,-4.96 4.75,-5.74 3.16,-0.78 7.25,-1.17 12.25,-1.17 v -7.62 h -49.81 v 7.62 c 4.92,0 8.99,0.39 12.19,1.17 3.2,0.78 4.8,2.69 4.8,5.74 v 51.68 c 0,7.03 -1.03,12.83 -3.1,17.41 -2.07,4.57 -6.27,6.85 -12.6,6.85 -8.44,0 -15.37,-3.36 -20.8,-10.08 -5.43,-6.72 -8.14,-14.38 -8.14,-22.97 v -42.89 c 0,-3.05 1.6,-4.96 4.8,-5.74 3.2,-0.78 7.23,-1.17 12.07,-1.17 v -7.62 h -49.8" /><path
         id="path208"
         style="fill:#000000;fill-opacity:1;fill-rule:nonzero;stroke:none"
         d="m 7239.73,3554.28 c 0,8.67 3.4,15.7 10.2,21.09 6.8,5.39 14.96,9.2 24.49,11.43 9.54,2.22 18.6,3.34 27.19,3.34 v 9.02 c 0,4.14 -0.92,8.18 -2.75,12.13 -1.84,3.94 -4.5,7.17 -7.97,9.67 -3.48,2.5 -7.33,3.75 -11.54,3.75 -9.61,0 -16.92,-2.15 -21.92,-6.45 2.74,0 5,-1.05 6.8,-3.16 1.79,-2.11 2.69,-4.53 2.69,-7.27 0,-2.89 -1.01,-5.37 -3.04,-7.44 -2.04,-2.07 -4.46,-3.1 -7.27,-3.1 -2.97,0 -5.47,1.03 -7.5,3.1 -2.03,2.07 -3.05,4.55 -3.05,7.44 0,7.66 3.46,13.35 10.37,17.06 6.92,3.7 14.56,5.56 22.92,5.56 5.93,0 11.87,-1.25 17.81,-3.75 5.93,-2.5 10.8,-6.09 14.59,-10.78 3.79,-4.69 5.68,-10.16 5.68,-16.41 v -48.98 c 0,-2.82 0.61,-5.41 1.82,-7.79 1.21,-2.39 3.06,-3.58 5.56,-3.58 2.43,0 4.23,1.21 5.4,3.64 1.17,2.42 1.75,5 1.75,7.73 v 13.94 h 6.33 v -13.94 c 0,-3.21 -0.84,-6.27 -2.52,-9.2 -1.68,-2.93 -3.97,-5.28 -6.86,-7.03 -2.89,-1.76 -5.97,-2.64 -9.25,-2.64 -4.3,0 -7.97,1.64 -11.02,4.92 -3.04,3.28 -4.76,7.19 -5.16,11.72 -2.65,-5.39 -6.6,-9.71 -11.83,-12.95 -5.24,-3.24 -10.86,-4.86 -16.88,-4.86 -5.46,0 -10.87,0.82 -16.23,2.46 -5.35,1.64 -9.82,4.22 -13.41,7.73 -3.6,3.52 -5.4,8.05 -5.4,13.6 z m 17.7,0 c 0,-5.08 1.88,-9.36 5.63,-12.83 3.75,-3.48 8.16,-5.22 13.24,-5.22 4.68,0 8.95,1.18 12.77,3.52 3.83,2.34 6.88,5.52 9.14,9.55 2.27,4.02 3.4,8.26 3.4,12.71 v 22.62 c -6.64,0 -13.4,-1.07 -20.27,-3.22 -6.88,-2.15 -12.58,-5.53 -17.11,-10.14 -4.53,-4.61 -6.8,-10.27 -6.8,-16.99" /><path
         id="path210"
         style="fill:#000000;fill-opacity:1;fill-rule:nonzero;stroke:none"
         d="m 7394.15,3530.49 c -8.6,0 -16.43,2.33 -23.5,6.97 -7.07,4.65 -12.56,10.76 -16.46,18.34 -3.9,7.58 -5.86,15.63 -5.86,24.15 0,8.75 2.13,16.89 6.38,24.43 4.27,7.53 10.09,13.53 17.47,17.98 7.38,4.46 15.49,6.69 24.32,6.69 5.31,0 10.32,-1.12 15.05,-3.35 4.73,-2.22 8.85,-5.33 12.37,-9.31 v 45.23 c 0,3.91 -0.59,6.74 -1.76,8.5 -1.18,1.76 -2.84,2.83 -4.98,3.22 -2.15,0.39 -5.53,0.59 -10.14,0.59 v 7.62 l 32.11,2.34 v -131.13 c 0,-3.83 0.58,-6.62 1.76,-8.38 1.17,-1.76 2.85,-2.83 5.04,-3.22 2.19,-0.39 5.55,-0.59 10.07,-0.59 v -7.62 l -32.81,-2.46 v 13.71 c -3.75,-4.29 -8.2,-7.65 -13.35,-10.08 -5.16,-2.42 -10.4,-3.63 -15.71,-3.63 z m -22.15,21.33 c 2.42,-4.69 5.7,-8.46 9.84,-11.31 4.15,-2.85 8.68,-4.28 13.6,-4.28 6.02,0 11.54,1.74 16.58,5.22 5.04,3.47 8.77,7.98 11.19,13.53 v 52.15 c -1.64,3.13 -3.75,5.96 -6.33,8.5 -2.57,2.53 -5.48,4.47 -8.73,5.8 -3.24,1.33 -6.65,1.99 -10.25,1.99 -7.58,0 -13.67,-2.15 -18.28,-6.45 -4.61,-4.29 -7.83,-9.76 -9.66,-16.4 -1.84,-6.64 -2.76,-13.59 -2.76,-20.86 0,-5.86 0.29,-10.94 0.88,-15.24 0.58,-4.29 1.89,-8.51 3.92,-12.65" /><path
         id="path212"
         style="fill:#000000;fill-opacity:1;fill-rule:nonzero;stroke:none"
         d="m 7517.66,3530.49 c -8.67,0 -16.73,2.21 -24.2,6.62 -7.46,4.42 -13.33,10.35 -17.64,17.82 -4.29,7.46 -6.44,15.56 -6.44,24.31 0,6.64 1.17,13.05 3.52,19.22 2.34,6.17 5.74,11.68 10.19,16.52 4.46,4.84 9.61,8.63 15.47,11.37 5.86,2.73 12.23,4.1 19.1,4.1 8.91,0 17.04,-2.36 24.38,-7.09 7.34,-4.73 13.14,-11.04 17.4,-18.93 4.26,-7.89 6.38,-16.29 6.38,-25.19 0,-8.67 -2.16,-16.76 -6.5,-24.26 -4.33,-7.5 -10.19,-13.45 -17.58,-17.87 -7.38,-4.41 -15.4,-6.62 -24.08,-6.62 z m 0,6.44 c 11.64,0 19.39,4.2 23.27,12.6 3.86,8.4 5.79,19.13 5.79,32.17 0,7.26 -0.39,13.3 -1.17,18.1 -0.78,4.81 -2.46,9.16 -5.04,13.07 -1.64,2.34 -3.71,4.43 -6.21,6.27 -2.5,1.84 -5.15,3.22 -7.96,4.16 -2.82,0.94 -5.71,1.41 -8.68,1.41 -4.53,0 -8.82,-1.04 -12.89,-3.11 -4.06,-2.07 -7.46,-4.98 -10.2,-8.73 -2.65,-4.14 -4.35,-8.67 -5.09,-13.59 -0.75,-4.92 -1.12,-10.78 -1.12,-17.58 0,-8.13 0.71,-15.43 2.11,-21.91 1.41,-6.49 4.26,-11.92 8.56,-16.29 4.29,-4.38 10.51,-6.57 18.63,-6.57" /><path
         id="path214"
         style="fill:#000000;fill-opacity:1;fill-rule:nonzero;stroke:none"
         d="m 7578.91,3532.95 v 7.62 c 4.92,0 8.98,0.39 12.19,1.17 3.2,0.78 4.81,2.69 4.81,5.74 v 59.41 c 0,3.91 -0.59,6.72 -1.77,8.44 -1.16,1.72 -2.84,2.78 -5.03,3.17 -2.19,0.39 -5.59,0.58 -10.2,0.58 v 7.62 l 31.17,2.35 v -21.22 c 2.27,6.33 5.57,11.45 9.91,15.35 4.33,3.91 9.59,5.87 15.76,5.87 4.29,0 8.14,-1.27 11.54,-3.81 3.4,-2.54 5.1,-5.92 5.1,-10.14 0,-2.58 -0.94,-4.84 -2.81,-6.8 -1.88,-1.95 -4.18,-2.93 -6.92,-2.93 -2.73,0 -5.06,0.96 -6.97,2.87 -1.92,1.92 -2.87,4.2 -2.87,6.86 0,3.9 1.4,6.68 4.22,8.32 h -1.29 c -5.86,0 -10.65,-2.13 -14.36,-6.39 -3.71,-4.26 -6.34,-9.53 -7.91,-15.82 -1.56,-6.28 -2.34,-12.28 -2.34,-17.99 v -35.74 c 0,-4.6 7.03,-6.91 21.09,-6.91 v -7.62 h -53.32" /><path
         id="path216"
         style="fill:none;stroke:#0072bd;stroke-width:20.00250053;stroke-linecap:butt;stroke-linejoin:bevel;stroke-miterlimit:10;stroke-dasharray:15, 15;stroke-dashoffset:0;stroke-opacity:1"
         d="m 1395,2898.6 h 36 v 0 h 36 v 0 h 36 v 0 h 36 v 0 h 36 v 0 h 36 v 0 h 36 v 0 h 36 v 0 h 36 v 0 h 36 v 0 h 36 v 0 h 36 v 0 h 36 v 0 h 36 v 0 h 36 v 0 h 36 v 0 h 36 v 0 h 36 v 0 h 36 v 0 h 36 v 0 h 36 v 0 h 36 v 0 h 36 v 0 h 36 v 0 h 36 v 0 h 36 v 0 h 36 v 0 h 36 v 0 h 36 v 0 h 36 v 0 h 36 v 0 h 36 v 0 h 36 v 0 h 36 v 0 h 36 v 0 h 36 v 0 h 36 v 0 h 36 v 0 h 36 v 0 h 36 v 0 h 36 v 0 h 36 v 0 h 36 v 0 h 36 v 0 h 36 v 0 h 36 v 0 h 36 v 0 h 36 v 0 h 36 v 0 h 36 v 0 h 36 v 0 h 36 v 0 h 36 v 0 h 36 v 0 h 36 v 0 h 36 v 0 h 36 v 0 h 36 v 0 h 36 v 0 h 36 v 0 h 36 v 0 h 36 v 0 h 36 v 0 h 36 v 0 h 36 v 0 h 36 v 0 h 36 v 0 h 36 v 0 h 36 v 0 h 36 v 0 h 36 v 0 h 36 v 0 h 36 v 0 h 36 v 0 h 36 v 0 h 36 v 0 h 36 v 0 h 36 v 0 h 36 v 0 h 36 v 0 h 36 v 0 h 36 v 0 h 36 v 0 h 36 v 0 h 36 v 0 h 36 v 0 h 36 v 0 h 36 v 0 h 36 v 0 h 36 v 0 h 36 v 0 h 36 v 0 h 36 v 0 h 36 v 0 h 36 v 0 h 36 v 0 h 36 v 0 h 36 v 0 h 36 v 0 h 36 v 0 h 36 v 0 h 36 v 0 h 36 v 0 h 36 v 0 h 36 v 0 h 36 v 0 h 36 v 0 h 36 v 0 h 36 v 0 h 36 v 0 h 36 v 0 h 36 v 0 h 36 v 0 h 36 v 0 h 36 v 0 h 36 v 0 h 36 v 0 h 36 v 0 h 36 v 0 h 36 v 0 h 36 v 0 h 36 v 0 h 36 v 0 h 36 v 0 h 36 v 0 h 36 v 0 h 36 v 0 h 36 v 0 h 36 v 0 h 36 v 0 h 36 v 0 h 36 v 0 h 36 v 0 h 36 v 0 h 36 v 0 h 36 v 0 h 36 v 0 h 36 v 0 h 36 v 0 h 36 v 0 h 36 v 0 h 36 v 0 h 36 v 0 h 36 v 0 h 36 v 0 h 36 v 0 h 36 v 0 h 36 v 0 h 36 v 0 h 36 v 0 h 36 v 0 h 36 v 0 h 36 v 0 h 36 v 0 h 36 v 0 h 36 v 0 h 36 v 0 h 36 v 0 h 36 v 0 h 36 v 0 h 36 v 0 h 36 v 0 h 36 v 0 h 36 v 0 h 36 v 0 h 36 v 0 h 36 v 0 h 36 v 0 h 36 v 0 h 36 v 0 h 36 v 0 h 36 v 0 h 36 v 0 h 36 v 0 h 36 v 0 h 36 v 0 h 36 v 0 h 36 v 0 h 36 v 0 h 36 v 0 h 36 v 0 h 36 v 0 h 36 v 0 h 36 v 0 h 36 v 0 h 36 v 0 h 36 v 0 h 36 v 0 h 36 v 0 h 36 v 0 h 36 v 0 h 36 v 0 h 36 v 0 h 36 v 0 h 36 v 0 h 36 v 0 h 36 v 0 h 36 v 0 h 36 v 0 h 36 v 0" /><path
         id="path218"
         style="fill:none;stroke:#000000;stroke-width:20.00250053;stroke-linecap:butt;stroke-linejoin:miter;stroke-miterlimit:10;stroke-dasharray:none;stroke-opacity:1"
         d="m 1395,627.465 h 36 v -16.262 h 36 v 16.637 h 36 v 24.351 h 36 v 49.157 h 36 v 57.496 h 36 v 75.41 h 36 v 82.848 h 36 v 95.358 h 36 v 101.06 h 36 v 109.25 h 36 v 112.85 h 36 v 117.47 h 36 v 118.96 h 36 v 120.66 h 36 v 120.15 h 36 v 119.46 h 36 v 117.22 h 36 v 114.65 h 36 v 110.95 h 36 v 106.92 h 36 v 102.1 h 36 v 97.01 h 36 v 91.38 h 36 v 85.57 h 36 v 79.45 h 36 v 73.23 h 36 v 66.89 h 36 v 60.54 h 36 v 54.2 h 36 v 47.96 h 36 v 41.83 h 36 v 35.88 h 36 v 30.12 h 36 v 24.6 h 36 v 19.34 h 36 v 14.36 h 36 v 9.69 h 36 v 5.33 h 36 v 1.3 h 36 v -2.4 h 36 v -5.77 h 36 v -8.81 h 36 v -11.49 h 36 v -13.88 h 36 v -15.92 h 36 v -17.67 h 36 v -19.11 h 36 v -20.28 h 36 v -21.17 h 36 v -21.8 h 36 v -22.2 h 36 v -22.38 h 36 v -22.34 h 36 v -22.13 h 36 v -21.75 h 36 v -21.21 h 36 v -20.55 h 36 v -19.75 h 36 v -18.87 h 36 v -17.9 h 36 v -16.85 h 36 v -15.76 h 36 v -14.64 h 36 v -13.46 h 36 v -12.29 h 36 v -11.11 h 36 v -9.93 h 36 v -8.77 h 36 V 2845 h 36 v -6.54 h 36 V 2833 h 36 v -4.46 h 36 v -3.48 h 36 v -2.56 h 36 v -1.7 h 36 v -0.91 h 36 v -0.15 h 36 v 0.52 h 36 v 1.14 h 36 v 1.7 h 36 v 2.19 h 36 v 2.62 h 36 v 3 h 36 v 3.32 h 36 v 3.58 h 36 v 3.79 h 36 v 3.95 h 36 v 4.06 h 36 v 4.13 h 36 v 4.16 h 36 v 4.15 h 36 v 4.11 h 36 v 4.02 h 36 v 3.93 h 36 v 3.8 h 36 v 3.65 h 36 v 3.49 h 36 v 3.3 h 36 v 3.11 h 36 v 2.9 h 36 v 2.69 h 36 v 2.48 h 36 v 2.26 h 36 v 2.04 h 36 v 1.82 h 36 v 1.6 h 36 v 1.4 h 36 v 1.19 h 36 v 0.99 h 36 v 0.81 h 36 v 0.63 h 36 v 0.45 h 36 v 0.3 h 36 v 0.15 h 36 v 0.01 h 36 v -0.11 h 36 v -0.22 h 36 v -0.33 h 36 v -0.41 h 36 v -0.5 h 36 v -0.57 h 36 v -0.62 h 36 v -0.67 h 36 v -0.71 h 36 v -0.74 h 36 v -0.75 h 36 v -0.77 h 36 v -0.77 h 36 v -0.77 h 36 v -0.76 h 36 v -0.75 h 36 V 2903 h 36 v -0.7 h 36 v -0.68 h 36 v -0.64 h 36 v -0.61 h 36 v -0.57 h 36 v -0.53 h 36 v -0.5 h 36 v -0.45 h 36 v -0.43 h 36 v -0.36 h 36 v -0.34 h 36 v -0.29 h 36 v -0.26 h 36 v -0.21 h 36 v -0.18 h 36 v -0.15 h 36 v -0.11 h 36 v -0.08 h 36 v -0.05 h 36 v -0.03 h 36 v 0 h 36 v 0.03 h 36 v 0.04 h 36 v 0.06 h 36 v 0.08 h 36 v 0.09 h 36 v 0.11 h 36 v 0.12 h 36 v 0.12 h 36 v 0.13 h 36 v 0.14 h 36 v 0.14 h 36 v 0.14 h 36 v 0.15 h 36 v 0.14 h 36 v 0.14 h 36 v 0.14 h 36 v 0.14 h 36 v 0.12 h 36 v 0.13 h 36 v 0.12 h 36 v 0.12 h 36 v 0.1 h 36 v 0.1 h 36 v 0.09 h 36 v 0.08 h 36 v 0.08 h 36 v 0.06 h 36 v 0.07 h 36 v 0.05 h 36 v 0.05 h 36 v 0.04 h 36 v 0.03 h 36 v 0.02 h 36 v 0.03 h 36 v 0.01 h 36 v 0.01 h 36 v 0 h 36 v 0 h 36 v 0 h 36 v -0.01 h 36 v -0.01 h 36 v -0.02 h 36 v -0.02 h 36 v -0.01 h 36 v -0.03 h 36 v -0.02 h 36 v -0.02" /><path
         id="path220"
         style="fill:none;stroke:#ff0000;stroke-width:20.00250053;stroke-linecap:butt;stroke-linejoin:miter;stroke-miterlimit:10;stroke-dasharray:none;stroke-opacity:1"
         d="m 1395,657.105 h 36 v -29.64 h 36 v -16.262 h 36 v 16.637 h 36 v 24.351 h 36 v 49.157 h 36 v 57.496 h 36 v 75.41 h 36 v 82.848 h 36 v 95.358 h 36 v 101.06 h 36 v 109.25 h 36 v 112.85 h 36 v 117.47 h 36 v 118.96 h 36 v 120.66 h 36 v 120.15 h 36 v 119.46 h 36 v 117.22 h 36 v 114.65 h 36 v 110.95 h 36 v 106.92 h 36 v 102.1 h 36 v 97.01 h 36 v 91.38 h 36 v 85.57 h 36 v 79.45 h 36 v 73.23 h 36 v 66.89 h 36 v 60.54 h 36 v 54.2 h 36 v 47.96 h 36 v 41.83 h 36 v 35.88 h 36 v 30.12 h 36 v 24.6 h 36 v 19.34 h 36 v 14.36 h 36 v 9.69 h 36 v 5.33 h 36 v 1.3 h 36 v -2.4 h 36 v -5.77 h 36 v -8.81 h 36 v -11.49 h 36 v -13.88 h 36 v -15.92 h 36 v -17.67 h 36 v -19.11 h 36 v -20.28 h 36 v -21.17 h 36 v -21.8 h 36 v -22.2 h 36 v -22.38 h 36 v -22.34 h 36 v -22.13 h 36 v -21.75 h 36 v -21.21 h 36 v -20.55 h 36 v -19.75 h 36 v -18.87 h 36 v -17.9 h 36 v -16.85 h 36 v -15.76 h 36 v -14.64 h 36 v -13.46 h 36 v -12.29 h 36 v -11.11 h 36 v -9.93 h 36 v -8.77 h 36 V 2845 h 36 v -6.54 h 36 V 2833 h 36 v -4.46 h 36 v -3.48 h 36 v -2.56 h 36 v -1.7 h 36 v -0.91 h 36 v -0.15 h 36 v 0.52 h 36 v 1.14 h 36 v 1.7 h 36 v 2.19 h 36 v 2.62 h 36 v 3 h 36 v 3.32 h 36 v 3.58 h 36 v 3.79 h 36 v 3.95 h 36 v 4.06 h 36 v 4.13 h 36 v 4.16 h 36 v 4.15 h 36 v 4.11 h 36 v 4.02 h 36 v 3.93 h 36 v 3.8 h 36 v 3.65 h 36 v 3.49 h 36 v 3.3 h 36 v 3.11 h 36 v 2.9 h 36 v 2.69 h 36 v 2.48 h 36 v 2.26 h 36 v 2.04 h 36 v 1.82 h 36 v 1.6 h 36 v 1.4 h 36 v 1.19 h 36 v 0.99 h 36 v 0.81 h 36 v 0.63 h 36 v 0.45 h 36 v 0.3 h 36 v 0.15 h 36 v 0.01 h 36 v -0.11 h 36 v -0.22 h 36 v -0.33 h 36 v -0.41 h 36 v -0.5 h 36 v -0.57 h 36 v -0.62 h 36 v -0.67 h 36 v -0.71 h 36 v -0.74 h 36 v -0.75 h 36 v -0.77 h 36 v -0.77 h 36 v -0.77 h 36 v -0.76 h 36 v -0.75 h 36 V 2903 h 36 v -0.7 h 36 v -0.68 h 36 v -0.64 h 36 v -0.61 h 36 v -0.57 h 36 v -0.53 h 36 v -0.5 h 36 v -0.45 h 36 v -0.43 h 36 v -0.36 h 36 v -0.34 h 36 v -0.29 h 36 v -0.26 h 36 v -0.21 h 36 v -0.18 h 36 v -0.15 h 36 v -0.11 h 36 v -0.08 h 36 v -0.05 h 36 v -0.03 h 36 v 0 h 36 v 0.03 h 36 v 0.04 h 36 v 0.06 h 36 v 0.08 h 36 v 0.09 h 36 v 0.11 h 36 v 0.12 h 36 v 0.12 h 36 v 0.13 h 36 v 0.14 h 36 v 0.14 h 36 v 0.14 h 36 v 0.15 h 36 v 0.14 h 36 v 0.14 h 36 v 0.14 h 36 v 0.14 h 36 v 0.12 h 36 v 0.13 h 36 v 0.12 h 36 v 0.12 h 36 v 0.1 h 36 v 0.1 h 36 v 0.09 h 36 v 0.08 h 36 v 0.08 h 36 v 0.06 h 36 v 0.07 h 36 v 0.05 h 36 v 0.05 h 36 v 0.04 h 36 v 0.03 h 36 v 0.02 h 36 v 0.03 h 36 v 0.01 h 36 v 0.01 h 36 v 0 h 36 v 0 h 36 v 0 h 36 v -0.01 h 36 v -0.01 h 36 v -0.02 h 36 v -0.02 h 36 v -0.01 h 36 v -0.03 h 36 v -0.02" /><path
         id="path222"
         style="fill:#ffffff;fill-opacity:1;fill-rule:nonzero;stroke:none"
         d="m 7372.5,697.5 h 1125 V 1530 h -1125 z" /><path
         id="path224"
         style="fill:#000000;fill-opacity:1;fill-rule:nonzero;stroke:none"
         d="m 7741.65,1333.42 c 0,0.86 0.08,1.48 0.24,1.87 l 16.29,64.92 c 1.02,3.99 1.52,7.5 1.52,10.56 0,6.25 -2.11,9.37 -6.33,9.37 -4.53,0 -7.89,-2.71 -10.08,-8.14 -2.18,-5.43 -4.33,-12.29 -6.44,-20.58 0,-0.38 -0.2,-0.7 -0.59,-0.94 -0.38,-0.23 -0.78,-0.34 -1.17,-0.34 h -2.58 c -0.47,0 -0.88,0.25 -1.22,0.76 -0.36,0.51 -0.54,0.99 -0.54,1.46 1.57,6.25 3.07,11.58 4.52,16 1.44,4.41 3.71,8.42 6.79,12.02 3.08,3.59 6.93,5.39 11.54,5.39 5,0 9.4,-1.45 13.19,-4.35 3.79,-2.88 6.15,-6.71 7.09,-11.48 3.67,4.85 7.85,8.69 12.53,11.54 4.7,2.86 9.85,4.29 15.48,4.29 4.61,0 8.67,-1.35 12.18,-4.05 3.52,-2.7 5.28,-6.35 5.28,-10.95 0,-3.68 -1.15,-6.88 -3.46,-9.62 -2.3,-2.74 -5.37,-4.1 -9.2,-4.1 -2.34,0 -4.31,0.74 -5.92,2.23 -1.6,1.48 -2.4,3.4 -2.4,5.74 0,3.12 1.17,5.96 3.52,8.5 2.34,2.54 5.03,3.81 8.08,3.81 -2.34,1.87 -5.19,2.81 -8.56,2.81 -6.16,0 -11.55,-2.21 -16.16,-6.62 -4.61,-4.42 -8.75,-10.02 -12.43,-16.82 l -15.58,-62.22 c -0.47,-2.04 -1.56,-3.76 -3.28,-5.16 -1.73,-1.41 -3.67,-2.11 -5.86,-2.11 -1.72,0 -3.22,0.57 -4.52,1.7 -1.29,1.13 -1.93,2.63 -1.93,4.51" /><path
         id="path226"
         style="fill:none;stroke:#0072bd;stroke-width:20.00250053;stroke-linecap:butt;stroke-linejoin:bevel;stroke-miterlimit:10;stroke-dasharray:15, 15;stroke-dashoffset:0;stroke-opacity:1"
         d="M 7402.49,1382.47 H 7702.4" /><path
         id="path228"
         style="fill:#000000;fill-opacity:1;fill-rule:nonzero;stroke:none"
         d="m 7743.18,1029.78 c 3.04,-5.23 8.36,-7.85 15.94,-7.85 6.87,0 12.81,2.42 17.81,7.27 5,4.84 9.04,10.68 12.12,17.51 3.09,6.84 5.49,13.81 7.21,20.92 -6.41,-6.09 -13.4,-9.14 -20.97,-9.14 -5.71,0 -10.58,0.99 -14.6,2.99 -4.02,1.99 -7.14,4.96 -9.37,8.91 -2.23,3.94 -3.34,8.68 -3.34,14.23 0,4.77 0.62,9.65 1.87,14.65 1.25,5 3.03,10.55 5.34,16.64 2.3,6.09 4.31,11.41 6.03,15.94 1.88,5.31 2.82,9.69 2.82,13.12 0,4.3 -1.57,6.45 -4.69,6.45 -5.78,0 -10.53,-2.95 -14.24,-8.85 -3.72,-5.9 -6.47,-12.52 -8.26,-19.87 -0.24,-0.85 -0.82,-1.28 -1.76,-1.28 h -2.58 c -1.17,0 -1.76,0.67 -1.76,1.99 v 0.59 c 2.35,8.67 5.92,16.35 10.73,23.03 4.8,6.68 10.88,10.02 18.22,10.02 5.16,0 9.53,-1.7 13.12,-5.1 3.59,-3.4 5.39,-7.72 5.39,-12.95 0,-2.66 -0.58,-5.47 -1.75,-8.44 -0.71,-1.8 -2.19,-5.67 -4.46,-11.61 -2.27,-5.93 -3.98,-10.85 -5.15,-14.75 -1.18,-3.91 -2.15,-7.75 -2.94,-11.5 -0.77,-3.75 -1.16,-7.5 -1.16,-11.25 0,-4.84 1.01,-8.91 3.04,-12.24 2.03,-3.32 5.27,-4.98 9.73,-4.98 8.98,0 17.07,5.51 24.25,16.53 l 16.41,66.91 c 0.55,1.95 1.7,3.61 3.46,4.98 1.75,1.37 3.65,2.05 5.68,2.05 1.8,0 3.36,-0.56 4.69,-1.7 1.33,-1.13 1.99,-2.59 1.99,-4.39 0,-0.86 -0.08,-1.45 -0.23,-1.76 l -21.56,-86.49 c -1.96,-7.5 -5.48,-14.64 -10.55,-21.44 -5.08,-6.8 -11.21,-12.27 -18.4,-16.41 -7.19,-4.14 -14.69,-6.21 -22.5,-6.21 -3.75,0 -7.46,0.75 -11.13,2.23 -3.67,1.49 -6.64,3.67 -8.91,6.56 -2.26,2.89 -3.4,6.29 -3.4,10.2 0,3.9 1.18,7.32 3.52,10.25 2.34,2.93 5.43,4.39 9.26,4.39 2.34,0 4.31,-0.72 5.92,-2.16 1.6,-1.45 2.39,-3.34 2.39,-5.69 0,-3.35 -1.22,-6.26 -3.68,-8.73 -2.46,-2.46 -5.37,-3.69 -8.73,-3.69 -0.16,0.08 -0.3,0.12 -0.42,0.12 -0.11,0 -0.25,0 -0.4,0" /><path
         id="path230"
         style="fill:none;stroke:#000000;stroke-width:20.00250053;stroke-linecap:butt;stroke-linejoin:round;stroke-miterlimit:10;stroke-dasharray:none;stroke-opacity:1"
         d="M 7402.49,1113.75 H 7702.4" /><path
         id="path232"
         style="fill:#000000;fill-opacity:1;fill-rule:nonzero;stroke:none"
         d="m 7743.18,761.063 c 3.04,-5.235 8.36,-7.852 15.94,-7.852 6.87,0 12.81,2.422 17.81,7.266 5,4.839 9.04,10.679 12.12,17.519 3.09,6.836 5.49,13.809 7.21,20.918 -6.41,-6.094 -13.4,-9.141 -20.97,-9.141 -5.71,0 -10.58,0.993 -14.6,2.985 -4.02,1.992 -7.14,4.965 -9.37,8.91 -2.23,3.945 -3.34,8.687 -3.34,14.234 0,4.766 0.62,9.649 1.87,14.649 1.25,5 3.03,10.547 5.34,16.64 2.3,6.094 4.31,11.407 6.03,15.938 1.88,5.316 2.82,9.691 2.82,13.125 0,4.301 -1.57,6.449 -4.69,6.449 -5.78,0 -10.53,-2.949 -14.24,-8.848 -3.72,-5.902 -6.47,-12.523 -8.26,-19.867 -0.24,-0.855 -0.82,-1.285 -1.76,-1.285 h -2.58 c -1.17,0 -1.76,0.664 -1.76,1.988 v 0.586 c 2.35,8.676 5.92,16.352 10.73,23.032 4.8,6.679 10.88,10.019 18.22,10.019 5.16,0 9.53,-1.699 13.12,-5.098 3.59,-3.402 5.39,-7.718 5.39,-12.953 0,-2.656 -0.58,-5.468 -1.75,-8.437 -0.71,-1.797 -2.19,-5.664 -4.46,-11.602 -2.27,-5.937 -3.98,-10.855 -5.15,-14.761 -1.18,-3.911 -2.15,-7.739 -2.94,-11.489 -0.77,-3.75 -1.16,-7.5 -1.16,-11.25 0,-4.84 1.01,-8.922 3.04,-12.242 2.03,-3.32 5.27,-4.98 9.73,-4.98 8.98,0 17.07,5.507 24.25,16.523 l 16.41,66.914 c 0.55,1.949 1.7,3.61 3.46,4.981 1.75,1.367 3.65,2.046 5.68,2.046 1.8,0 3.36,-0.562 4.69,-1.695 1.33,-1.133 1.99,-2.597 1.99,-4.394 0,-0.86 -0.08,-1.446 -0.23,-1.762 l -21.56,-86.481 c -1.96,-7.5 -5.48,-14.648 -10.55,-21.445 -5.08,-6.801 -11.21,-12.269 -18.4,-16.41 -7.19,-4.141 -14.69,-6.207 -22.5,-6.207 -3.75,0 -7.46,0.742 -11.13,2.227 -3.67,1.484 -6.64,3.671 -8.91,6.562 -2.26,2.891 -3.4,6.285 -3.4,10.191 0,3.907 1.18,7.325 3.52,10.254 2.34,2.93 5.43,4.395 9.26,4.395 2.34,0 4.31,-0.723 5.92,-2.168 1.6,-1.445 2.39,-3.34 2.39,-5.684 0,-3.355 -1.22,-6.265 -3.68,-8.73 -2.46,-2.461 -5.37,-3.692 -8.73,-3.692 -0.16,0.082 -0.3,0.122 -0.42,0.122 -0.11,0 -0.25,0 -0.4,0" /><path
         id="path234"
         style="fill:#000000;fill-opacity:1;fill-rule:nonzero;stroke:none"
         d="m 7864.39,757.477 c -5,0 -9.37,1.308 -13.12,3.921 -3.75,2.622 -6.62,6.137 -8.61,10.547 -2,4.414 -3,9.082 -3,14.008 0,7.5 1.9,14.551 5.69,21.152 3.79,6.598 8.91,11.872 15.35,15.817 6.45,3.945 13.34,5.918 20.69,5.918 4.53,0 8.47,-1.172 11.83,-3.512 3.36,-2.344 5.04,-5.703 5.04,-10.078 0,-6.016 -2.4,-10.488 -7.21,-13.418 -4.8,-2.93 -10.23,-4.746 -16.28,-5.453 -6.06,-0.699 -12.76,-1.051 -20.11,-1.051 h -0.46 c -1.72,-6.25 -2.58,-11.601 -2.58,-16.055 0,-4.687 1.09,-8.808 3.29,-12.363 2.18,-3.555 5.46,-5.332 9.84,-5.332 6.25,0 12.26,1.445 18.04,4.336 5.78,2.891 10.47,6.875 14.06,11.957 0.32,0.309 0.75,0.465 1.29,0.465 0.47,0 0.98,-0.293 1.52,-0.879 0.55,-0.586 0.83,-1.152 0.83,-1.703 0,-0.391 -0.08,-0.703 -0.23,-0.938 -3.91,-5.39 -9.11,-9.628 -15.6,-12.711 -6.47,-3.085 -13.23,-4.628 -20.27,-4.628 z m -9.25,41.957 c 6.09,0 11.74,0.269 16.93,0.816 5.2,0.543 9.89,1.949 14.07,4.215 4.18,2.269 6.27,5.824 6.27,10.664 0,1.957 -0.53,3.656 -1.59,5.101 -1.05,1.446 -2.44,2.555 -4.16,3.336 -1.72,0.786 -3.52,1.18 -5.39,1.18 -4.45,0 -8.45,-1.215 -12.01,-3.641 -3.55,-2.417 -6.48,-5.562 -8.79,-9.433 -2.31,-3.863 -4.08,-7.945 -5.33,-12.238" /><path
         id="path236"
         style="fill:#000000;fill-opacity:1;fill-rule:nonzero;stroke:none"
         d="m 7918.18,768.84 c 2.8,-4.84 8.47,-7.262 16.98,-7.262 3.68,0 7.18,0.645 10.5,1.93 3.32,1.289 6.07,3.183 8.25,5.683 2.19,2.5 3.29,5.547 3.29,9.145 0,2.734 -0.98,4.961 -2.93,6.68 -1.96,1.714 -4.34,2.886 -7.15,3.511 l -8.56,1.641 c -3.83,1.016 -7.01,2.855 -9.55,5.516 -2.54,2.652 -3.81,5.894 -3.81,9.718 0,4.61 1.27,8.711 3.81,12.309 2.54,3.594 5.88,6.348 10.03,8.262 4.13,1.91 8.47,2.867 13,2.867 4.76,0 9.02,-1.133 12.77,-3.399 3.75,-2.265 5.63,-5.664 5.63,-10.191 0,-2.348 -0.69,-4.457 -2.05,-6.332 -1.37,-1.875 -3.26,-2.813 -5.69,-2.813 -1.32,0 -2.5,0.454 -3.51,1.352 -1.02,0.898 -1.53,2.051 -1.53,3.457 0,1.25 0.36,2.441 1.06,3.57 0.7,1.137 1.62,2.055 2.75,2.762 1.14,0.699 2.33,1.047 3.58,1.047 -0.94,2.266 -2.68,3.906 -5.22,4.922 -2.54,1.019 -5.26,1.531 -8.14,1.531 -2.66,0 -5.31,-0.531 -7.97,-1.586 -2.65,-1.055 -4.81,-2.637 -6.45,-4.746 -1.64,-2.109 -2.46,-4.574 -2.46,-7.387 0,-1.875 0.67,-3.535 1.99,-4.98 1.34,-1.445 2.98,-2.481 4.93,-3.106 l 9.14,-1.753 c 2.97,-0.625 5.67,-1.723 8.08,-3.286 2.43,-1.562 4.34,-3.531 5.75,-5.918 1.4,-2.379 2.1,-5.132 2.1,-8.257 0,-3.907 -1.09,-7.754 -3.28,-11.543 -2.18,-3.789 -4.84,-6.817 -7.97,-9.082 -5.62,-3.75 -12.45,-5.625 -20.5,-5.625 -5.62,0 -10.76,1.289 -15.41,3.863 -4.65,2.578 -6.98,6.41 -6.98,11.488 0,2.813 0.82,5.293 2.47,7.442 1.63,2.148 3.9,3.226 6.8,3.226 1.71,0 3.14,-0.531 4.27,-1.586 1.13,-1.055 1.69,-2.402 1.69,-4.039 0,-2.426 -0.89,-4.535 -2.69,-6.332 -1.79,-1.801 -3.9,-2.699 -6.32,-2.699 h -0.7" /><path
         id="path238"
         style="fill:#000000;fill-opacity:1;fill-rule:nonzero;stroke:none"
         d="m 7986.38,772.004 c 0,1.566 0.15,3.012 0.47,4.336 l 11.36,45.238 h -16.52 c -1.02,0 -1.53,0.703 -1.53,2.11 0.39,2.265 1.06,3.398 2,3.398 h 17.46 l 6.33,25.785 c 0.39,1.324 1.21,2.473 2.46,3.449 1.25,0.981 2.62,1.469 4.1,1.469 1.4,0 2.56,-0.391 3.46,-1.168 0.89,-0.785 1.34,-1.844 1.34,-3.168 0,-0.312 -0.02,-0.57 -0.05,-0.765 -0.04,-0.192 -0.1,-0.368 -0.18,-0.524 l -6.33,-25.078 h 16.29 c 1.09,0 1.64,-0.668 1.64,-1.996 -0.08,-0.313 -0.2,-0.758 -0.35,-1.344 -0.16,-0.586 -0.37,-1.094 -0.65,-1.523 -0.27,-0.43 -0.64,-0.645 -1.11,-0.645 h -17.11 l -11.36,-45.473 c -0.78,-2.968 -1.17,-5.546 -1.17,-7.73 0,-4.531 1.56,-6.797 4.68,-6.797 4.61,0 8.69,2.168 12.24,6.504 3.56,4.336 6.28,9.121 8.15,14.356 0.39,0.542 0.82,0.816 1.29,0.816 h 1.87 c 0.39,0 0.73,-0.133 1,-0.406 0.28,-0.274 0.41,-0.571 0.41,-0.883 0,-0.231 -0.03,-0.387 -0.12,-0.465 -2.34,-6.406 -5.72,-12.012 -10.13,-16.816 -4.41,-4.805 -9.47,-7.207 -15.18,-7.207 -4.14,0 -7.64,1.347 -10.48,4.043 -2.86,2.695 -4.28,6.191 -4.28,10.484" /><path
         id="path240"
         style="fill:#000000;fill-opacity:1;fill-rule:nonzero;stroke:none"
         d="m 8044.57,770.48 c 0,1.958 0.43,4.028 1.29,6.211 l 12.65,33.872 c 1.41,3.902 2.12,7.07 2.12,9.496 0,3.125 -1.14,4.687 -3.41,4.687 -4.22,0 -7.65,-2.133 -10.31,-6.391 -2.66,-4.261 -4.65,-9.046 -5.97,-14.355 -0.16,-0.707 -0.59,-1.059 -1.3,-1.059 h -1.87 c -0.86,0 -1.29,0.508 -1.29,1.524 v 0.473 c 1.72,6.25 4.32,11.796 7.79,16.64 3.48,4.84 7.87,7.262 13.19,7.262 3.75,0 6.91,-1.231 9.49,-3.692 2.58,-2.46 3.87,-5.605 3.87,-9.433 0,-1.949 -0.43,-3.981 -1.29,-6.09 l -12.78,-33.871 c -1.4,-3.516 -2.11,-6.676 -2.11,-9.488 0,-3.125 1.22,-4.688 3.64,-4.688 4.06,0 7.48,2.207 10.25,6.617 2.77,4.414 4.71,9.16 5.8,14.243 0.24,0.542 0.63,0.816 1.17,0.816 h 2 c 0.39,0 0.72,-0.133 0.99,-0.406 0.27,-0.274 0.41,-0.571 0.41,-0.883 0,-0.156 -0.08,-0.313 -0.23,-0.465 -1.41,-5.941 -3.88,-11.43 -7.44,-16.465 -3.56,-5.039 -7.99,-7.558 -13.31,-7.558 -3.67,0 -6.81,1.269 -9.43,3.808 -2.61,2.535 -3.92,5.602 -3.92,9.195 z m 17.81,84.145 c 0,2.266 0.92,4.293 2.75,6.09 1.83,1.801 3.85,2.699 6.04,2.699 1.79,0 3.28,-0.566 4.46,-1.703 1.16,-1.129 1.75,-2.516 1.75,-4.152 0,-2.348 -0.94,-4.418 -2.81,-6.219 -1.88,-1.797 -3.95,-2.692 -6.21,-2.692 -1.72,0 -3.15,0.582 -4.29,1.754 -1.12,1.176 -1.69,2.582 -1.69,4.223" /><path
         id="path242"
         style="fill:#000000;fill-opacity:1;fill-rule:nonzero;stroke:none"
         d="m 8097.5,761.934 c 0,0.625 0.04,1.089 0.12,1.402 l 11.72,46.992 c 0.78,2.891 1.17,5.43 1.17,7.613 0,4.536 -1.52,6.805 -4.57,6.805 -3.28,0 -5.72,-1.957 -7.32,-5.867 -1.61,-3.906 -3.15,-8.863 -4.63,-14.879 0,-0.316 -0.16,-0.57 -0.47,-0.766 -0.31,-0.195 -0.58,-0.293 -0.82,-0.293 h -1.88 c -0.31,0 -0.61,0.196 -0.88,0.586 -0.27,0.395 -0.4,0.746 -0.4,1.059 1.17,4.609 2.26,8.496 3.27,11.66 1.02,3.164 2.66,6.055 4.93,8.672 2.26,2.613 5.04,3.922 8.32,3.922 3.98,0 7.48,-1.25 10.48,-3.75 3.01,-2.5 4.52,-5.664 4.52,-9.488 3.12,4.14 6.8,7.382 11.01,9.726 4.22,2.34 8.67,3.512 13.36,3.512 5,0 9.3,-1.27 12.89,-3.805 3.59,-2.539 5.39,-6.152 5.39,-10.844 3.29,4.61 7.09,8.207 11.43,10.786 4.34,2.574 9.04,3.863 14.12,3.863 5.47,0 9.85,-1.485 13.13,-4.449 3.28,-2.969 4.92,-7.149 4.92,-12.539 0,-4.301 -0.96,-9.497 -2.87,-15.586 -1.92,-6.094 -4.28,-12.93 -7.09,-20.512 -1.56,-3.59 -2.35,-6.754 -2.35,-9.488 0,-3.125 1.25,-4.688 3.75,-4.688 4.07,0 7.46,2.207 10.2,6.617 2.74,4.414 4.65,9.16 5.74,14.243 0.31,0.542 0.78,0.816 1.41,0.816 h 1.76 c 0.46,0 0.84,-0.133 1.11,-0.406 0.27,-0.274 0.41,-0.571 0.41,-0.883 0,-0.156 -0.04,-0.313 -0.12,-0.465 -1.48,-5.941 -4,-11.43 -7.56,-16.465 -3.55,-5.039 -7.99,-7.558 -13.3,-7.558 -3.75,0 -6.92,1.269 -9.49,3.808 -2.58,2.535 -3.87,5.602 -3.87,9.195 0,1.875 0.43,3.946 1.29,6.211 2.97,7.891 5.43,14.942 7.38,21.157 1.96,6.211 2.93,11.66 2.93,16.343 0,2.969 -0.58,5.469 -1.75,7.5 -1.18,2.036 -3.13,3.055 -5.87,3.055 -5.78,0 -10.76,-1.762 -14.94,-5.281 -4.18,-3.516 -7.83,-8.164 -10.95,-13.942 -0.16,-1.015 -0.31,-1.796 -0.47,-2.339 l -10.08,-40.434 c -0.39,-1.484 -1.21,-2.734 -2.46,-3.75 -1.25,-1.016 -2.66,-1.523 -4.22,-1.523 -1.25,0 -2.35,0.41 -3.28,1.23 -0.94,0.82 -1.41,1.895 -1.41,3.227 0,0.625 0.04,1.089 0.12,1.402 l 10.08,40.078 c 1.09,4.297 1.64,7.887 1.64,10.777 0,2.969 -0.6,5.469 -1.82,7.5 -1.21,2.036 -3.22,3.055 -6.03,3.055 -3.91,0 -7.47,-0.844 -10.66,-2.523 -3.21,-1.68 -6.02,-3.926 -8.44,-6.743 -2.43,-2.808 -4.65,-6.128 -6.69,-9.957 l -10.66,-42.773 c -0.31,-1.484 -1.11,-2.734 -2.4,-3.75 -1.29,-1.016 -2.68,-1.523 -4.16,-1.523 -1.33,0 -2.44,0.41 -3.34,1.23 -0.9,0.82 -1.35,1.895 -1.35,3.227" /><path
         id="path244"
         style="fill:#000000;fill-opacity:1;fill-rule:nonzero;stroke:none"
         d="m 8247.95,757.477 c -6.64,0 -11.88,2.5 -15.7,7.5 -3.83,5 -5.74,10.898 -5.74,17.691 0,6.723 1.74,13.695 5.21,20.918 3.48,7.23 8.18,13.246 14.12,18.047 5.94,4.805 12.3,7.207 19.11,7.207 3.12,0 5.91,-0.84 8.37,-2.52 2.47,-1.675 4.39,-4 5.8,-6.968 1.18,4.218 3.48,6.332 6.92,6.332 1.33,0 2.44,-0.395 3.34,-1.18 0.9,-0.781 1.34,-1.836 1.34,-3.164 0,-0.313 0,-0.543 0,-0.699 0,-0.161 -0.03,-0.356 -0.11,-0.582 l -11.02,-43.954 c -0.7,-3.125 -1.05,-5.703 -1.05,-7.73 0,-4.531 1.52,-6.797 4.57,-6.797 3.28,0 5.78,2.09 7.5,6.27 1.71,4.179 3.16,9.043 4.34,14.59 0.15,0.542 0.54,0.816 1.17,0.816 h 1.99 c 0.39,0 0.7,-0.176 0.94,-0.524 0.23,-0.351 0.34,-0.683 0.34,-1 -1.79,-7.343 -3.78,-13.222 -5.97,-17.632 -2.19,-4.414 -5.74,-6.621 -10.66,-6.621 -3.52,0 -6.64,1.035 -9.38,3.105 -2.73,2.07 -4.41,4.82 -5.04,8.258 -6.8,-7.574 -13.59,-11.363 -20.39,-11.363 z m 0.12,4.101 c 3.82,0 7.52,1.426 11.07,4.277 3.56,2.848 6.62,6.188 9.2,10.02 0.08,0.152 0.12,0.309 0.12,0.465 l 8.43,34.223 0.12,0.464 c -0.62,3.75 -1.97,6.973 -4.04,9.668 -2.07,2.7 -4.86,4.051 -8.38,4.051 -3.51,0 -6.79,-1.449 -9.84,-4.344 -3.05,-2.89 -5.62,-6.328 -7.74,-10.312 -2.03,-4.141 -3.98,-9.879 -5.85,-17.219 -1.88,-7.348 -2.82,-13.051 -2.82,-17.117 0,-3.59 0.79,-6.852 2.34,-9.781 1.57,-2.93 4.03,-4.395 7.39,-4.395" /><path
         id="path246"
         style="fill:#000000;fill-opacity:1;fill-rule:nonzero;stroke:none"
         d="m 8329.36,757.477 c -6.65,0 -11.88,2.5 -15.71,7.5 -3.83,5 -5.74,10.898 -5.74,17.691 0,6.723 1.73,13.695 5.22,20.918 3.47,7.23 8.17,13.246 14.11,18.047 5.94,4.805 12.31,7.207 19.1,7.207 3.13,0 5.92,-0.86 8.39,-2.574 2.46,-1.719 4.39,-4.024 5.8,-6.914 l 8.9,35.152 c 0.39,1.801 0.63,3.207 0.7,4.223 0,1.718 -3.4,2.582 -10.19,2.582 -1.09,0 -1.64,0.699 -1.64,2.105 0.08,0.234 0.2,0.684 0.35,1.344 0.15,0.664 0.39,1.176 0.71,1.527 0.31,0.352 0.69,0.528 1.17,0.528 l 21.2,1.753 c 1.34,0 2,-0.703 2,-2.105 l -22.74,-90.586 c -0.7,-1.723 -1.05,-4.223 -1.05,-7.5 0,-4.531 1.52,-6.797 4.57,-6.797 3.28,0 5.78,2.09 7.5,6.27 1.72,4.179 3.16,9.043 4.33,14.59 0.16,0.542 0.55,0.816 1.18,0.816 h 1.99 c 0.39,0 0.7,-0.176 0.94,-0.524 0.23,-0.351 0.35,-0.683 0.35,-1 -1.8,-7.343 -3.79,-13.222 -5.98,-17.632 -2.18,-4.414 -5.74,-6.621 -10.66,-6.621 -3.52,0 -6.64,1.035 -9.38,3.105 -2.73,2.07 -4.41,4.82 -5.04,8.258 -6.79,-7.574 -13.59,-11.363 -20.38,-11.363 z m 0.11,4.101 c 3.83,0 7.52,1.426 11.08,4.277 3.55,2.848 6.62,6.188 9.19,10.02 0.08,0.152 0.12,0.391 0.12,0.703 l 8.56,34.688 c -0.63,3.672 -1.97,6.832 -4.04,9.488 -2.08,2.66 -4.87,3.992 -8.39,3.992 -3.51,0 -6.79,-1.449 -9.84,-4.344 -3.04,-2.89 -5.62,-6.328 -7.73,-10.312 -2.04,-4.141 -3.99,-9.879 -5.87,-17.219 -1.87,-7.348 -2.81,-13.051 -2.81,-17.117 0,-3.59 0.78,-6.852 2.35,-9.781 1.56,-2.93 4.02,-4.395 7.38,-4.395" /><path
         id="path248"
         style="fill:#000000;fill-opacity:1;fill-rule:nonzero;stroke:none"
         d="m 8413.73,757.477 c -4.93,0 -9.32,1.171 -13.18,3.519 -3.87,2.34 -6.86,5.52 -8.98,9.547 -2.1,4.023 -3.15,8.574 -3.15,13.648 0,7.11 1.99,14.145 5.97,21.098 3.99,6.949 9.26,12.613 15.82,16.988 6.56,4.375 13.48,6.563 20.74,6.563 3.91,0 7.39,-0.664 10.43,-1.988 3.05,-1.329 5.69,-3.204 7.92,-5.625 2.22,-2.426 3.94,-5.258 5.15,-8.497 1.21,-3.242 1.81,-6.734 1.81,-10.484 0,-5.473 -1.15,-10.863 -3.45,-16.18 -2.3,-5.308 -5.47,-10.132 -9.49,-14.468 -4.03,-4.34 -8.62,-7.778 -13.77,-10.313 -5.16,-2.539 -10.43,-3.808 -15.82,-3.808 z m 0.34,4.101 c 4.7,0 8.97,1.602 12.84,4.801 3.87,3.207 7.04,7.23 9.49,12.074 2.46,4.84 4.38,9.957 5.75,15.356 1.37,5.386 2.05,10.23 2.05,14.527 0,4.609 -1.16,8.496 -3.46,11.66 -2.31,3.164 -5.69,4.75 -10.13,4.75 -6.18,0 -11.57,-2.621 -16.18,-7.855 -4.61,-5.235 -8.07,-11.504 -10.37,-18.809 -2.3,-7.305 -3.45,-14.004 -3.45,-20.102 0,-4.527 1.15,-8.394 3.45,-11.601 2.3,-3.199 5.64,-4.801 10.01,-4.801" /><path
         id="path250"
         style="fill:none;stroke:#ff0000;stroke-width:20.00250053;stroke-linecap:butt;stroke-linejoin:round;stroke-miterlimit:10;stroke-dasharray:none;stroke-opacity:1"
         d="M 7402.49,845.031 H 7702.4" /><path
         id="path252"
         style="fill:none;stroke:#262626;stroke-width:5.00250006;stroke-linecap:butt;stroke-linejoin:miter;stroke-miterlimit:10;stroke-dasharray:none;stroke-opacity:1"
         d="m 7372.5,697.5 h 1125 V 1530 h -1125 z" /></g></g></svg>